<?xml version="1.0" standalone="no"?>
<!DOCTYPE svg PUBLIC "-//W3C//DTD SVG 1.1//EN" "http://www.w3.org/Graphics/SVG/1.1/DTD/svg11.dtd" >
<svg xmlns="http://www.w3.org/2000/svg" xmlns:xlink="http://www.w3.org/1999/xlink" version="1.1">
<metadata>
Created by FontForge 20170731 at Wed Jun  1 11:19:28 2022
 By Aleksey,,,
Service d'Information du Gouvernement
</metadata>
<defs>
<font id="Marianne-BoldItalic" horiz-adv-x="1228" >
  <font-face 
    font-family="Marianne"
    font-weight="700"
    font-style="italic"
    font-stretch="normal"
    units-per-em="2048"
    panose-1="2 0 0 0 0 0 0 0 0 0"
    ascent="1536"
    descent="-512"
    x-height="1032"
    cap-height="1434"
    bbox="-586 -520 2460 2316"
    underline-thickness="221"
    underline-position="-492"
    slope="-10"
    unicode-range="U+0020-FEFF"
  />
<missing-glyph horiz-adv-x="1191" 
d="M-176 -504l358 2040h1190l-358 -2040h-1190zM389 236h150l39 167q205 35 344 149t170 292q16 89 -4.5 166.5t-69 130.5t-121.5 83.5t-160 30.5q-282 0 -491 -254l151 -110q76 89 145.5 130.5t153.5 41.5q96 0 149 -63t36 -158q-24 -131 -138.5 -198.5t-320.5 -90.5z
M385 -215q59 0 108.5 44t59.5 105q11 59 -23.5 102.5t-91.5 43.5q-58 0 -107.5 -43.5t-60.5 -102.5q-11 -62 23 -105.5t92 -43.5z" />
    <glyph glyph-name=".notdef" horiz-adv-x="1191" 
d="M-176 -504l358 2040h1190l-358 -2040h-1190zM389 236h150l39 167q205 35 344 149t170 292q16 89 -4.5 166.5t-69 130.5t-121.5 83.5t-160 30.5q-282 0 -491 -254l151 -110q76 89 145.5 130.5t153.5 41.5q96 0 149 -63t36 -158q-24 -131 -138.5 -198.5t-320.5 -90.5z
M385 -215q59 0 108.5 44t59.5 105q11 59 -23.5 102.5t-91.5 43.5q-58 0 -107.5 -43.5t-60.5 -102.5q-11 -62 23 -105.5t92 -43.5z" />
    <glyph glyph-name=".null" horiz-adv-x="0" 
 />
    <glyph glyph-name="nonmarkingreturn" horiz-adv-x="682" 
 />
    <glyph glyph-name="space" unicode=" " horiz-adv-x="552" 
 />
    <glyph glyph-name="exclam" unicode="!" horiz-adv-x="661" 
d="M227 461l117 973h297l-225 -973h-189zM270 -25q-75 0 -127.5 52.5t-52.5 126.5q0 72 53 125t127 53q72 0 125.5 -53t53.5 -125q0 -73 -53.5 -126t-125.5 -53z" />
    <glyph glyph-name="quotedbl" unicode="&#x22;" horiz-adv-x="1007" 
d="M451 844h-230l70 590h293zM905 844h-229l69 590h293z" />
    <glyph glyph-name="numbersign" unicode="#" horiz-adv-x="1386" 
d="M98 578h201l123 278h-275l37 211h332l162 367h250l-162 -367h240l161 367h248l-162 -367h146l-37 -211h-201l-125 -278h277l-37 -211h-332l-162 -367h-250l162 367h-239l-162 -367h-250l162 367h-144zM549 578h239l123 278h-239z" />
    <glyph glyph-name="dollar" unicode="$" 
d="M66 246l196 151q79 -109 211 -149l68 391q-52 23 -89.5 44.5t-79.5 55.5t-68.5 71.5t-44 92t-17.5 119.5q0 170 123.5 286t316.5 126l25 143h219l-29 -162q217 -51 334 -223l-199 -152q-59 103 -174 148l-65 -365q52 -25 90.5 -47t81.5 -57t70 -73.5t45 -93t18 -118.5
q0 -181 -124.5 -302.5t-326.5 -131.5l-24 -143h-220l29 159q-247 50 -366 230zM504 1051q0 -71 88 -129l49 282q-68 -17 -102.5 -57.5t-34.5 -95.5zM838 406q0 81 -95 139l-53 -309q71 15 109.5 60t38.5 110z" />
    <glyph glyph-name="percent" unicode="%" horiz-adv-x="1716" 
d="M545 1473q145 0 231 -85.5t86 -220.5q0 -155 -107 -268t-270 -113q-146 0 -231.5 86t-85.5 222q0 154 107 266.5t270 112.5zM127 0l1257 1434h281l-1255 -1434h-283zM489 958q80 0 129.5 62t49.5 147q0 60 -35.5 96.5t-93.5 36.5q-80 0 -129.5 -61.5t-49.5 -146.5
q0 -60 35.5 -97t93.5 -37zM1305 641q145 0 231 -85.5t86 -219.5q0 -155 -107 -268t-270 -113q-147 0 -232 85.5t-85 221.5q0 154 107 266.5t270 112.5zM1249 127q80 0 129 61.5t49 147.5q0 60 -35.5 96.5t-93.5 36.5q-80 0 -129 -61.5t-49 -147.5q0 -60 35.5 -96.5
t93.5 -36.5z" />
    <glyph glyph-name="ampersand" unicode="&#x26;" horiz-adv-x="1470" 
d="M1341 0h-317l-61 82q-174 -123 -396 -123q-225 0 -361 116t-136 302q0 163 91 271t253 163q-86 147 -86 274q0 163 117 276.5t313 113.5q176 0 283.5 -95.5t107.5 -255.5q0 -140 -100.5 -245.5t-257.5 -153.5l202 -266q84 127 150 309h274q-125 -329 -272 -510zM588 1075
q0 -81 82 -192q231 67 231 219q0 62 -38 101.5t-109 39.5q-80 0 -123 -48.5t-43 -119.5zM344 410q0 -98 66.5 -157.5t175.5 -59.5q122 0 231 77l-264 344q-3 4 -10.5 13.5t-10.5 13.5q-188 -70 -188 -231z" />
    <glyph glyph-name="quotesingle" unicode="'" horiz-adv-x="552" 
d="M451 844h-230l70 590h293z" />
    <glyph glyph-name="parenleft" unicode="(" horiz-adv-x="729" 
d="M844 1364q-252 -213 -374 -446t-122 -523q0 -203 47.5 -351.5t165.5 -315.5l-194 -138q-277 326 -277 805q0 344 154.5 632.5t445.5 508.5z" />
    <glyph glyph-name="parenright" unicode=")" horiz-adv-x="729" 
d="M-102 -238q252 213 373.5 446t121.5 523q0 203 -47.5 352t-167.5 316l195 137q278 -323 278 -805q0 -343 -154.5 -632t-445.5 -509z" />
    <glyph glyph-name="asterisk" unicode="*" horiz-adv-x="942" 
d="M850 709l-191 -115l-112 258l-201 -258l-172 137l242 242l-275 71l95 199l256 -117l32 308h221l-77 -310l297 117l30 -209l-305 -74z" />
    <glyph glyph-name="plus" unicode="+" 
d="M1094 406h-387l-72 -406h-221l71 406h-391l41 221h389l72 405h221l-72 -405h390z" />
    <glyph glyph-name="comma" unicode="," horiz-adv-x="552" 
d="M137 -328h-252l289 613h305z" />
    <glyph glyph-name="hyphen" unicode="-" horiz-adv-x="616" 
d="M63 649h537l-45 -252h-535z" />
    <glyph glyph-name="period" unicode="." horiz-adv-x="552" 
d="M215 -25q-75 0 -127.5 52.5t-52.5 126.5q0 72 52.5 125t127.5 53q72 0 125 -53t53 -125q0 -73 -53 -126t-125 -53z" />
    <glyph glyph-name="slash" unicode="/" horiz-adv-x="751" 
d="M-139 -403l786 1939h264l-788 -1939h-262z" />
    <glyph glyph-name="zero" unicode="0" 
d="M729 1475q245 0 364 -152.5t119 -431.5q0 -142 -26 -277t-79.5 -254t-128 -208t-180 -141t-227.5 -52q-244 0 -362.5 152.5t-118.5 431.5q0 142 26 277t79 254t128 208t179.5 141t226.5 52zM569 215q105 0 189 97.5t128 251t44 325.5q0 330 -197 330q-105 0 -188.5 -97.5
t-127.5 -250.5t-44 -326q0 -330 196 -330z" />
    <glyph glyph-name="one" unicode="1" horiz-adv-x="917" 
d="M332 2l194 1112l-290 -156l-113 222l471 256h266l-252 -1434h-276z" />
    <glyph glyph-name="two" unicode="2" 
d="M41 0l45 250l590 502q114 98 159.5 164t45.5 145q0 73 -48.5 120.5t-123.5 47.5q-86 0 -156.5 -55.5t-138.5 -165.5l-215 147q189 320 534 320q188 0 311 -108t123 -280q0 -74 -20.5 -137t-67.5 -127.5t-106 -122.5t-154 -139l-373 -311h605l-43 -250h-967z" />
    <glyph glyph-name="three" unicode="3" 
d="M1159 1087q0 -110 -65 -199t-185 -138q97 -53 148 -139.5t51 -188.5q0 -209 -147.5 -336t-387.5 -127q-193 0 -332.5 85t-209.5 239l239 131q105 -209 310 -209q108 0 175.5 61.5t67.5 165.5q0 96 -63 149.5t-185 53.5h-188l43 246h188q128 0 191 52t63 136
q0 70 -47.5 115t-119.5 45q-149 0 -254 -166l-213 149q84 127 210 195t283 68q185 0 306.5 -108t121.5 -280z" />
    <glyph glyph-name="four" unicode="4" 
d="M68 381l43 250l716 803h338l-141 -803h139l-45 -250h-137l-68 -381h-276l68 381h-637zM401 631h347l86 485z" />
    <glyph glyph-name="five" unicode="5" 
d="M217 635l182 799h834l-43 -250h-572l-65 -299h53q135 0 234.5 -32t158.5 -91.5t87 -136t28 -172.5q0 -214 -147.5 -354t-386.5 -140q-193 0 -334 85t-209 239l239 131q102 -209 310 -209q106 0 173.5 61.5t67.5 165.5q0 96 -64.5 149.5t-193.5 53.5h-352z" />
    <glyph glyph-name="six" unicode="6" 
d="M782 1475q179 0 311.5 -84.5t196.5 -235.5l-239 -131q-88 205 -277 205q-142 0 -239 -115t-134 -317q142 123 314 123q196 0 317 -123t121 -320q0 -105 -39.5 -199.5t-110.5 -165t-176 -112t-229 -41.5q-230 0 -369 151.5t-139 399.5q0 202 44 375.5t128.5 306t218 208
t301.5 75.5zM377 520q0 -158 61 -234.5t166 -76.5q116 0 187 70t71 190q0 96 -56.5 150.5t-152.5 54.5q-81 0 -153.5 -37t-122.5 -102v-15z" />
    <glyph glyph-name="seven" unicode="7" 
d="M397 0h-327l878 1184h-692l43 250h1004l-41 -250z" />
    <glyph glyph-name="eight" unicode="8" 
d="M229 1061q0 81 32 154.5t92.5 132t158.5 93t221 34.5q217 0 343 -106.5t126 -274.5q0 -116 -66 -206t-196 -136q199 -102 199 -334q0 -91 -34.5 -172t-101.5 -146t-176.5 -103t-248.5 -38q-247 0 -387 116t-140 302q0 140 84.5 253t245.5 161q-73 46 -112.5 116
t-39.5 154zM520 1049q0 -80 48 -124t141 -44q98 0 149 56t51 138q0 79 -48.5 123.5t-139.5 44.5q-94 0 -147.5 -56.5t-53.5 -137.5zM850 438q0 95 -63.5 150t-184.5 55q-127 0 -194.5 -68t-67.5 -169q0 -96 63 -151.5t185 -55.5q128 0 195 68t67 171z" />
    <glyph glyph-name="nine" unicode="9" 
d="M510 -41q-180 0 -313 84.5t-197 235.5l240 131q91 -205 276 -205q144 0 240.5 115t134.5 317q-142 -123 -316 -123q-195 0 -315.5 122.5t-120.5 319.5q0 105 39.5 199.5t110 165.5t175 112.5t228.5 41.5q231 0 369.5 -150.5t138.5 -400.5q0 -162 -27 -306t-83.5 -265
t-137 -208.5t-194 -136.5t-248.5 -49zM428 965q0 -96 57 -150.5t154 -54.5q82 0 155.5 37.5t120.5 103.5v12q0 157 -61.5 234.5t-165.5 77.5q-117 0 -188.5 -70t-71.5 -190z" />
    <glyph glyph-name="colon" unicode=":" horiz-adv-x="552" 
d="M340 700q-73 0 -126.5 53.5t-53.5 127.5q0 72 53 124t127 52t127 -52t53 -124q0 -74 -53.5 -127.5t-126.5 -53.5zM217 -25q-75 0 -127.5 52.5t-52.5 126.5q0 72 52.5 125t127.5 53q72 0 125 -53t53 -125q0 -73 -53 -126t-125 -53z" />
    <glyph glyph-name="semicolon" unicode=";" horiz-adv-x="552" 
d="M338 700q-75 0 -128.5 53.5t-53.5 127.5q0 72 53.5 124t128.5 52q72 0 125 -52t53 -124q0 -73 -53 -127t-125 -54zM66 -328h-250l288 613h304z" />
    <glyph glyph-name="less" unicode="&#x3c;" 
d="M1065 229l-43 -229l-930 389l45 254l1067 389l-41 -248l-772 -276z" />
    <glyph glyph-name="equal" unicode="=" 
d="M1133 623h-998l37 221h999zM1057 188h-1000l37 222h1002z" />
    <glyph glyph-name="greater" unicode="&#x3e;" 
d="M66 248l772 276l-674 279l41 229l932 -389l-45 -254l-1067 -389z" />
    <glyph glyph-name="question" unicode="?" horiz-adv-x="1030" 
d="M336 461l12 342q230 26 332 83.5t102 178.5q0 65 -46 114.5t-120 49.5q-129 0 -239 -156l-205 144q81 125 201.5 191.5t273.5 66.5q114 0 208.5 -44.5t154 -136t59.5 -213.5q0 -189 -136.5 -309.5t-363.5 -150.5l-43 -160h-190zM379 -25q-75 0 -128.5 52.5t-53.5 126.5
q0 72 53.5 125t128.5 53q72 0 125 -53t53 -125q0 -73 -53 -126t-125 -53z" />
    <glyph glyph-name="at" unicode="@" horiz-adv-x="1654" 
d="M446 467q0 178 106.5 300t266.5 122q138 0 221 -96l13 67h200l-86 -477q-6 -39 12 -61.5t60 -22.5q77 0 129.5 86t52.5 233q0 213 -149 356.5t-383 143.5q-120 0 -224.5 -36t-179.5 -98.5t-129.5 -145.5t-81 -178.5t-26.5 -196.5q0 -163 71 -289.5t193 -195t274 -68.5
q126 0 225.5 36t200.5 117l101 -131q-211 -176 -527 -176q-157 0 -289.5 51t-226 143t-146 224t-52.5 289q0 159 56.5 304.5t159 258t259 179.5t342.5 67q154 0 285.5 -49.5t224 -135.5t144.5 -206.5t52 -259.5q0 -123 -46 -234t-127.5 -179.5t-178.5 -68.5q-163 0 -223 123
q-109 -125 -252 -125q-139 0 -230.5 92t-91.5 238zM659 477q0 -69 39 -114.5t105 -45.5q101 0 170 93l33 184q-56 115 -162 115q-78 0 -131.5 -65.5t-53.5 -166.5z" />
    <glyph glyph-name="A" unicode="A" horiz-adv-x="1482" 
d="M-63 0l778 1434h381l270 -1434h-301l-66 373h-548l-197 -373h-317zM584 621h372l-94 528z" />
    <glyph glyph-name="B" unicode="B" horiz-adv-x="1271" 
d="M113 0l254 1434h368q223 0 339 -92t116 -259q0 -104 -55.5 -191.5t-155.5 -141.5q87 -47 133.5 -122.5t46.5 -168.5q0 -204 -154.5 -331.5t-402.5 -127.5h-489zM721 1192h-107l-57 -324h133q90 0 142.5 53t52.5 126q0 69 -42.5 107t-121.5 38zM672 627h-158l-68 -385h172
q107 0 174.5 59t67.5 150q0 83 -49 129.5t-139 46.5z" />
    <glyph glyph-name="C" unicode="C" horiz-adv-x="1466" 
d="M918 1475q203 0 351.5 -88t237.5 -230l-250 -166q-54 93 -145.5 151t-204.5 58q-144 0 -258 -72t-176.5 -198t-62.5 -281q0 -117 42.5 -210.5t130.5 -150.5t208 -57q205 0 372 181l205 -187q-99 -125 -258.5 -195.5t-337.5 -70.5q-296 0 -481 181.5t-185 484.5
q0 136 37.5 263.5t109.5 233.5t170 185.5t225.5 123.5t269.5 44z" />
    <glyph glyph-name="D" unicode="D" horiz-adv-x="1576" 
d="M113 0l254 1434h415q225 0 395 -77t265.5 -225.5t95.5 -351.5q0 -155 -59.5 -296t-166 -248.5t-268 -171.5t-352.5 -64h-579zM782 1169h-172l-159 -905h241q122 0 224 38.5t171 105.5t107.5 159.5t38.5 198.5q0 186 -119 294.5t-332 108.5z" />
    <glyph glyph-name="E" unicode="E" horiz-adv-x="1161" 
d="M113 0l254 1434h815l-41 -242h-527l-59 -340h444l-41 -242h-446l-66 -368h525l-41 -242h-817z" />
    <glyph glyph-name="F" unicode="F" horiz-adv-x="1081" 
d="M113 0l254 1434h815l-41 -242h-527l-59 -340h444l-41 -242h-446l-109 -610h-290z" />
    <glyph glyph-name="G" unicode="G" horiz-adv-x="1576" 
d="M774 -41q-296 0 -479.5 181.5t-183.5 484.5q0 136 38 263.5t110.5 233.5t171.5 185.5t228 123.5t273 44q203 0 348.5 -87t235.5 -229l-250 -166q-54 92 -145.5 149.5t-207.5 57.5q-219 0 -360 -157t-141 -394q0 -180 101.5 -299t279.5 -119q194 0 342 119l43 254h-351
l43 250h643l-110 -627q-109 -122 -275.5 -195t-353.5 -73z" />
    <glyph glyph-name="H" unicode="H" horiz-adv-x="1675" 
d="M113 0l254 1434h290l-100 -572h688l101 572h290l-254 -1434h-290l106 598h-688l-107 -598h-290z" />
    <glyph glyph-name="I" unicode="I" horiz-adv-x="696" 
d="M113 0l254 1434h290l-254 -1434h-290z" />
    <glyph glyph-name="J" unicode="J" horiz-adv-x="718" 
d="M430 33q-70 -389 -430 -389q-116 0 -184 28l45 246q50 -16 106 -16q81 0 123 37.5t62 154.5l235 1340h291z" />
    <glyph glyph-name="K" unicode="K" horiz-adv-x="1490" 
d="M113 0l254 1434h290l-108 -611l680 611h379l-686 -611l432 -823h-338l-318 627l-219 -197l-76 -430h-290z" />
    <glyph glyph-name="L" unicode="L" horiz-adv-x="1081" 
d="M113 0l254 1434h290l-206 -1170h524l-45 -264h-817z" />
    <glyph glyph-name="M" unicode="M" horiz-adv-x="1792" 
d="M113 0l254 1434h350l225 -586l434 586h377l-252 -1434h-291l181 1020l-396 -528h-202l-209 530l-181 -1022h-290z" />
    <glyph glyph-name="N" unicode="N" horiz-adv-x="1675" 
d="M113 0l254 1434h368l424 -1051l187 1051h290l-254 -1434h-370l-422 1049l-187 -1049h-290z" />
    <glyph glyph-name="O" unicode="O" horiz-adv-x="1644" 
d="M926 1475q198 0 353 -80.5t243 -233t88 -352.5q0 -136 -38 -263.5t-111 -233.5t-172 -185.5t-228 -123.5t-273 -44q-197 0 -351.5 80.5t-242.5 233t-88 352.5q0 170 60.5 325.5t166.5 271.5t260.5 184.5t332.5 68.5zM799 231q222 0 365 158t143 395q0 117 -44 210.5
t-133.5 150.5t-211.5 57q-222 0 -365 -158t-143 -395q0 -117 44 -210.5t133.5 -150.5t211.5 -57z" />
    <glyph glyph-name="P" unicode="P" horiz-adv-x="1208" 
d="M113 0l254 1434h430q215 0 339 -104.5t124 -293.5q0 -126 -61 -228.5t-182 -165t-282 -62.5h-229l-103 -580h-290zM776 1192h-162l-65 -371h182q102 0 162.5 56.5t60.5 148.5q0 79 -46.5 122.5t-131.5 43.5z" />
    <glyph glyph-name="Q" unicode="Q" horiz-adv-x="1644" 
d="M109 635q0 132 37 257t109 230t171 184.5t231 124t281 44.5q203 0 357 -88t234.5 -240.5t80.5 -345.5q0 -218 -97.5 -407t-271.5 -304l74 -86q93 -104 217 -104q82 0 123 16l-43 -244q-69 -28 -152 -28q-102 0 -196.5 42t-165.5 117l-156 170q-71 -14 -162 -14
q-204 0 -357.5 88t-233.5 240.5t-80 347.5zM1307 803q0 173 -102.5 286t-278.5 113q-116 0 -214 -48t-163 -128t-101 -184.5t-36 -218.5q0 -109 43.5 -197t131 -141.5t204.5 -53.5q116 0 214.5 48t163.5 127.5t101.5 182.5t36.5 214z" />
    <glyph glyph-name="R" unicode="R" horiz-adv-x="1333" 
d="M113 0l254 1434h399q216 0 339.5 -104.5t123.5 -293.5q0 -141 -81.5 -253.5t-225.5 -166.5l333 -616h-321l-281 580h-147l-103 -580h-290zM745 1192h-131l-65 -371h151q101 0 161.5 57t60.5 148q0 79 -46 122.5t-131 43.5z" />
    <glyph glyph-name="S" unicode="S" horiz-adv-x="1167" 
d="M537 1073q0 -50 28 -93t72.5 -75.5t98.5 -65.5t108.5 -72.5t99 -86t72.5 -115.5t28 -153q0 -194 -138 -323.5t-357 -129.5q-333 0 -504 258l221 174q127 -176 287 -176q84 0 138 48.5t54 121.5q0 51 -28 94t-73 76.5t-99.5 66.5t-108.5 72.5t-99 86t-73 115.5t-28 153
t35.5 161.5t97 136t152.5 93.5t196 35q305 0 473 -258l-223 -173q-119 177 -265 177q-72 0 -118.5 -43.5t-46.5 -104.5z" />
    <glyph glyph-name="T" unicode="T" horiz-adv-x="1267" 
d="M176 1169l47 265h1143l-45 -265h-428l-205 -1169h-291l205 1169h-426z" />
    <glyph glyph-name="U" unicode="U" horiz-adv-x="1458" 
d="M1008 537l157 897h291l-158 -904q-104 -571 -630 -571q-128 0 -230 40.5t-171 116t-95 192t0 261.5l154 865h290l-157 -889q-26 -150 35.5 -232t199.5 -82q130 0 208.5 78.5t105.5 227.5z" />
    <glyph glyph-name="V" unicode="V" horiz-adv-x="1482" 
d="M190 1434h297l209 -1110l602 1110h320l-776 -1434h-381z" />
    <glyph glyph-name="W" unicode="W" horiz-adv-x="2136" 
d="M213 1434h291l55 -1076l473 1076h381l92 -1072l437 1072h307l-594 -1434h-393l-95 1096l-481 -1096h-383z" />
    <glyph glyph-name="X" unicode="X" horiz-adv-x="1476" 
d="M301 0h-350l637 762l-352 672h321l254 -482l403 482h355l-600 -715l374 -719h-321l-277 528z" />
    <glyph glyph-name="Y" unicode="Y" horiz-adv-x="1417" 
d="M1591 1434l-723 -832l-106 -602h-291l109 621l-428 813h329l281 -549l467 549h362z" />
    <glyph glyph-name="Z" unicode="Z" horiz-adv-x="1384" 
d="M31 0l45 264l905 905h-725l47 265h1104l-47 -265l-901 -905h762l-47 -264h-1143z" />
    <glyph glyph-name="bracketleft" unicode="[" horiz-adv-x="663" 
d="M16 -182l303 1718h490l-39 -221h-246l-264 -1497h246l-39 -221h-490z" />
    <glyph glyph-name="backslash" unicode="\" horiz-adv-x="751" 
d="M569 -403h-250l-116 1939h250z" />
    <glyph glyph-name="bracketright" unicode="]" horiz-adv-x="663" 
d="M367 -403h-490l39 221h244l264 1497h-244l39 221h490l-39 -221z" />
    <glyph glyph-name="asciicircum" unicode="^" 
d="M393 315h-241l344 463h331l185 -463h-219l-142 330z" />
    <glyph glyph-name="underscore" unicode="_" horiz-adv-x="1073" 
d="M-111 -162h1057l-39 -221h-1057z" />
    <glyph glyph-name="grave" unicode="`" horiz-adv-x="688" 
d="M463 1196l-180 340h274l143 -340h-237z" />
    <glyph glyph-name="a" unicode="a" horiz-adv-x="1120" 
d="M369 -31q-145 0 -235.5 72.5t-90.5 204.5q0 127 90.5 218t272.5 122l342 59l4 23q14 81 -27.5 129.5t-128.5 48.5q-128 0 -240 -125l-184 153q71 87 186 143t254 56q154 0 252 -60.5t131.5 -164t8.5 -240.5l-109 -608h-260l14 78q-106 -109 -280 -109zM307 279
q0 -48 34 -75.5t97 -27.5q74 0 140 32t108 85l29 166l-256 -45q-77 -13 -114.5 -49.5t-37.5 -85.5z" />
    <glyph glyph-name="b" unicode="b" horiz-adv-x="1302" 
d="M1237 586q0 -122 -39.5 -234.5t-110.5 -200t-180.5 -140t-240.5 -52.5q-201 0 -330 129l-17 -88h-262l273 1536h262l-98 -557q129 94 290 94q213 0 333 -133t120 -354zM713 827q-168 0 -271 -133l-55 -317q76 -172 258 -172q141 0 229.5 105.5t88.5 258.5
q0 115 -67 186.5t-183 71.5z" />
    <glyph glyph-name="c" unicode="c" horiz-adv-x="1087" 
d="M680 1073q148 0 259.5 -58t164.5 -147l-219 -174q-33 58 -90.5 95.5t-137.5 37.5q-140 0 -228.5 -109.5t-88.5 -262.5q0 -111 66 -180.5t174 -69.5q73 0 134.5 30.5t102.5 79.5l174 -180q-72 -81 -182 -128.5t-234 -47.5q-235 0 -372 139t-137 357q0 169 79 310
t220.5 224.5t314.5 83.5z" />
    <glyph glyph-name="d" unicode="d" horiz-adv-x="1302" 
d="M68 446q0 121 41 234.5t114 201t181.5 140t234.5 51.5q201 0 330 -129l104 592h262l-270 -1536h-262l12 76q-135 -117 -303 -117q-216 0 -330 132t-114 355zM342 463q0 -115 67 -186.5t183 -71.5q168 0 270 135l56 315q-75 172 -259 172q-141 0 -229 -105.5t-88 -258.5z
" />
    <glyph glyph-name="e" unicode="e" horiz-adv-x="1146" 
d="M573 -41q-234 0 -368.5 138.5t-134.5 357.5q0 171 67.5 310.5t199.5 223.5t306 84q191 0 316.5 -113t125.5 -290q0 -50 -12.5 -109.5t-30.5 -97.5h-706v-8q0 -132 65.5 -197t190.5 -65q169 0 278 135l170 -168q-83 -95 -204.5 -148t-262.5 -53zM639 860
q-103 0 -171.5 -56t-102.5 -153h464q11 82 -38.5 145.5t-151.5 63.5z" />
    <glyph glyph-name="f" unicode="f" horiz-adv-x="806" 
d="M119 1032h186l21 119q32 186 138 285.5t273 99.5q148 0 262 -74l-139 -205q-57 46 -119 46q-60 0 -100.5 -39.5t-52.5 -112.5l-21 -119h301l-41 -233h-301l-227 -1303h-264l229 1303h-188z" />
    <glyph glyph-name="g" unicode="g" horiz-adv-x="1110" 
d="M-76 -193q0 175 195 277q-45 58 -45 121q0 71 39.5 126t122.5 103q-105 92 -105 246q0 79 29.5 149.5t83.5 125t137.5 86.5t185.5 32q124 0 211 -41h387l-39 -221h-174q6 -35 6 -70q0 -79 -29 -150.5t-83 -126.5t-137 -87.5t-185 -32.5q-76 0 -131 14q-67 -42 -67 -84
q0 -49 57 -49h207q194 0 293.5 -87t99.5 -232q0 -86 -38 -161t-108.5 -133t-181.5 -91t-249 -33q-237 0 -359.5 84t-122.5 235zM721 735q0 63 -42 103.5t-114 40.5q-87 0 -140.5 -55.5t-53.5 -139.5q0 -63 40.5 -103t112.5 -40q88 0 142.5 55.5t54.5 138.5zM182 -156
q0 -147 236 -147q153 0 226 50.5t73 129.5q0 125 -152 125h-272q-58 -30 -84.5 -72t-26.5 -86z" />
    <glyph glyph-name="h" unicode="h" horiz-adv-x="1224" 
d="M57 0l271 1536h262l-103 -578q132 115 291 115q181 0 273.5 -119t54.5 -340l-107 -614h-262l107 604q19 103 -22.5 163t-133.5 60q-82 0 -145.5 -45t-104.5 -108l-2 2l-119 -676h-260z" />
    <glyph glyph-name="i" unicode="i" horiz-adv-x="557" 
d="M430 1212q-69 0 -119.5 50.5t-50.5 119.5t50.5 119.5t119.5 50.5t118.5 -50.5t49.5 -119.5t-49.5 -119.5t-118.5 -50.5zM57 0l183 1032h260l-183 -1032h-260z" />
    <glyph glyph-name="j" unicode="j" horiz-adv-x="557" 
d="M430 1212q-70 0 -121 50.5t-51 119.5t51 119.5t121 50.5q68 0 118 -50.5t50 -119.5t-50 -119.5t-118 -50.5zM297 -119q-37 -213 -135 -303t-262 -90q-145 0 -230 45l39 225q73 -32 148 -32q78 0 122 35t58 124l203 1147h260z" />
    <glyph glyph-name="k" unicode="k" horiz-adv-x="1107" 
d="M61 0l271 1536h262l-156 -889l410 385h342l-483 -446l297 -586h-293l-201 401l-139 -129l-47 -272h-263z" />
    <glyph glyph-name="l" unicode="l" horiz-adv-x="557" 
d="M57 0l271 1536h262l-273 -1536h-260z" />
    <glyph glyph-name="m" unicode="m" horiz-adv-x="1820" 
d="M57 0l183 1032h260l-13 -69q126 110 271 110q99 0 173.5 -41.5t112.5 -120.5q158 162 353 162q170 0 259.5 -116.5t51.5 -325.5l-111 -631h-262l109 618q18 102 -19.5 155.5t-117.5 53.5q-123 0 -232 -153q-1 -7 -3 -21.5t-3 -21.5l-111 -631h-262l109 618
q18 102 -19.5 155.5t-117.5 53.5q-129 0 -230 -153l-2 2l-119 -676h-260z" />
    <glyph glyph-name="n" unicode="n" horiz-adv-x="1224" 
d="M57 0l183 1032h260l-13 -76q131 117 291 117q181 0 273.5 -119t54.5 -340l-107 -614h-262l107 604q19 104 -22 163.5t-134 59.5q-82 0 -145.5 -45t-104.5 -108l-2 2l-119 -676h-260z" />
    <glyph glyph-name="o" unicode="o" horiz-adv-x="1253" 
d="M680 1073q233 0 370.5 -138.5t137.5 -356.5q0 -122 -43 -234t-120.5 -197.5t-193.5 -136.5t-253 -51q-235 0 -372.5 139t-137.5 357q0 122 43.5 234t120.5 197.5t194 136t254 50.5zM584 205q148 0 238.5 109.5t90.5 263.5q0 110 -68 179.5t-175 69.5q-148 0 -238 -109
t-90 -263q0 -110 67.5 -180t174.5 -70z" />
    <glyph glyph-name="p" unicode="p" horiz-adv-x="1302" 
d="M-31 -504l271 1536h260l-15 -76q139 117 306 117q216 0 330 -132t114 -355q0 -121 -41 -234.5t-114 -200.5t-181.5 -139.5t-234.5 -52.5q-201 0 -330 129l-105 -592h-260zM711 827q-170 0 -271 -137l-55 -313q75 -172 258 -172q141 0 229.5 105.5t88.5 258.5
q0 115 -67 186.5t-183 71.5z" />
    <glyph glyph-name="q" unicode="q" horiz-adv-x="1302" 
d="M68 446q0 121 41 234.5t114 200.5t181.5 139.5t234.5 52.5q201 0 330 -129l16 88h260l-270 -1536h-260l98 559q-131 -96 -293 -96q-219 0 -335.5 132t-116.5 355zM342 463q0 -115 67 -186.5t183 -71.5q167 0 272 135l56 315q-76 172 -261 172q-141 0 -229 -105.5
t-88 -258.5z" />
    <glyph glyph-name="r" unicode="r" horiz-adv-x="806" 
d="M57 0l183 1032h260l-19 -108q58 63 124 96t157 33q52 0 90 -15l-45 -256q-54 15 -98 15q-158 0 -279 -164l-113 -633h-260z" />
    <glyph glyph-name="s" unicode="s" horiz-adv-x="903" 
d="M397 758q0 -33 21.5 -60t56.5 -47.5t77 -41.5t84 -48t77 -60.5t56.5 -85.5t21.5 -116t-26 -124t-74 -108.5t-123.5 -78t-166.5 -29.5q-129 0 -229.5 55t-165.5 154l187 143q89 -143 221 -143q57 0 91 33.5t34 85.5q0 33 -21.5 60t-56 47t-76.5 41t-84 47.5t-76.5 59.5
t-56 85t-21.5 116q0 135 105 232.5t280 97.5q119 0 216.5 -53t142.5 -137l-186 -142q-71 123 -181 123q-55 0 -91 -32t-36 -74z" />
    <glyph glyph-name="t" unicode="t" horiz-adv-x="851" 
d="M195 416l67 383h-186l43 233h186l45 258h262l-45 -258h301l-41 -233h-301l-71 -406q-18 -95 15 -135.5t114 -40.5q74 0 147 25l-39 -228q-78 -34 -186 -34q-190 0 -269.5 109.5t-41.5 326.5z" />
    <glyph glyph-name="u" unicode="u" horiz-adv-x="1193" 
d="M793 446l102 586h264l-104 -588q-86 -485 -516 -485q-229 0 -344.5 137t-73.5 381l98 555h262l-104 -586q-20 -116 27.5 -178.5t156.5 -62.5q93 0 152.5 61.5t79.5 179.5z" />
    <glyph glyph-name="v" unicode="v" horiz-adv-x="1077" 
d="M98 1032h271l123 -725l380 725h291l-542 -1032h-345z" />
    <glyph glyph-name="w" unicode="w" horiz-adv-x="1669" 
d="M141 1032h248l41 -756l311 756h353l45 -751l307 751h266l-420 -1032h-364l-47 791l-328 -791h-354z" />
    <glyph glyph-name="x" unicode="x" horiz-adv-x="1118" 
d="M252 0h-301l452 545l-251 487h282l158 -315l258 315h301l-430 -516l266 -516h-278l-174 346z" />
    <glyph glyph-name="y" unicode="y" horiz-adv-x="1114" 
d="M473 -236q-83 -147 -172 -211.5t-217 -64.5q-136 0 -207 45l39 221q66 -28 133 -28q64 0 110.5 32t88.5 107l80 139l-230 1028h275l145 -696l397 696h285z" />
    <glyph glyph-name="z" unicode="z" horiz-adv-x="1064" 
d="M23 0l43 233l596 566h-484l41 233h813l-41 -233l-598 -566h512l-41 -233h-841z" />
    <glyph glyph-name="braceleft" unicode="{" horiz-adv-x="663" 
d="M461 379q0 -66 -28.5 -138.5t-62.5 -125t-62.5 -112.5t-28.5 -103q0 -40 27.5 -61t78.5 -21h123l-41 -221h-115q-153 0 -237 75.5t-84 206.5q0 67 29.5 140t64.5 125t64.5 115t29.5 114q0 82 -82 82h-110l39 223h118q57 0 87 38t30 103q0 57 -23.5 184.5t-23.5 204.5
q0 65 23 122.5t68 104t119.5 74t168.5 27.5h176l-39 -221h-135q-64 0 -98.5 -35.5t-34.5 -101.5q0 -58 21.5 -164t21.5 -176q0 -55 -17.5 -108.5t-56.5 -102.5t-94 -76q84 -65 84 -172z" />
    <glyph glyph-name="bar" unicode="|" horiz-adv-x="751" 
d="M92 -403l342 1939h244l-342 -1939h-244z" />
    <glyph glyph-name="braceright" unicode="}" horiz-adv-x="663" 
d="M227 754q0 66 28.5 138.5t63 125t63 112.5t28.5 103q0 39 -28.5 60.5t-78.5 21.5h-123l41 221h115q152 0 236.5 -76t84.5 -207q0 -67 -29.5 -140t-64.5 -124.5t-64.5 -115t-29.5 -115.5q0 -78 82 -78h111l-41 -225h-117q-57 0 -87 -38.5t-30 -103.5q0 -57 23.5 -184.5
t23.5 -204.5q0 -64 -23.5 -122t-68.5 -104.5t-119.5 -73.5t-167.5 -27h-178l41 221h133q65 0 100 35.5t35 101.5q0 57 -21.5 164t-21.5 176q0 55 17.5 108.5t56.5 102.5t94 76q-84 65 -84 172z" />
    <glyph glyph-name="asciitilde" unicode="~" 
d="M143 319l33 181q48 286 256 286q52 0 95 -16t70.5 -41.5t49.5 -56t39 -61t32.5 -56t35.5 -41.5t43 -16q63 0 80 88l32 188h189l-33 -180q-48 -287 -256 -287q-71 0 -124 30t-82.5 72.5t-52.5 84.5t-49 72t-57 30q-62 0 -79 -88l-33 -189h-189z" />
    <glyph glyph-name="nbspace" unicode="&#xa0;" horiz-adv-x="552" 
 />
    <glyph glyph-name="exclamdown" unicode="&#xa1;" horiz-adv-x="661" 
d="M397 1073q73 0 127 -53t54 -125t-54 -125t-127 -53t-126.5 53t-53.5 125t53.5 125t126.5 53zM438 588l-116 -973h-297l225 973h188z" />
    <glyph glyph-name="cent" unicode="&#xa2;" 
d="M711 1434h217l-29 -168q102 -22 178.5 -74t116.5 -119l-217 -168q-43 77 -123 109l-104 -594q93 25 159 108l172 -188q-65 -76 -163.5 -122t-212.5 -52l-29 -166h-219l32 188q-157 47 -245 173t-88 298q0 234 148 408t378 205zM430 659q0 -145 107 -213l98 564
q-94 -41 -149.5 -138t-55.5 -213z" />
    <glyph glyph-name="sterling" unicode="&#xa3;" 
d="M51 0l45 250h2l156 108q118 88 160.5 136.5t42.5 109.5h-299l39 217h188q-66 148 -66 236q0 188 127 303t322 115q155 0 263 -63.5t167 -166.5l-219 -143q-74 125 -197 125q-92 0 -143 -53t-51 -142q0 -15 1.5 -30t6.5 -33t7.5 -27.5t12 -31.5t11.5 -27.5t14.5 -32
t13.5 -29.5h406l-37 -217h-311q-3 -101 -60.5 -180t-177.5 -166l-12 -8h598l-45 -250h-965z" />
    <glyph glyph-name="currency" unicode="&#xa4;" 
d="M868 0l-151 199q-67 -23 -129 -23q-90 0 -158 35l-235 -211l-144 158l240 215q-17 56 -17 106q0 114 62 211l-156 203l182 139l152 -196q62 24 133 24q82 0 156 -33l229 205l148 -155l-236 -211q17 -56 17 -109q0 -120 -64 -215l156 -203zM594 348q77 0 125.5 60.5
t48.5 142.5q0 59 -35.5 97t-93.5 38q-76 0 -125 -60t-49 -141q0 -61 35.5 -99t93.5 -38z" />
    <glyph glyph-name="yen" unicode="&#xa5;" 
d="M111 444l36 218h355l20 116h-354l39 217h201l-195 439h309l168 -426l320 426h329l-348 -439h199l-39 -217h-352l-21 -116h355l-39 -218h-353l-77 -444h-279l78 444h-352z" />
    <glyph glyph-name="brokenbar" unicode="&#xa6;" horiz-adv-x="751" 
d="M551 815h-244l127 721h244zM336 -403h-244l127 720h244z" />
    <glyph glyph-name="section" unicode="&#xa7;" horiz-adv-x="1046" 
d="M406 -182q74 0 123 39.5t49 111.5q0 48 -28.5 85.5t-74 64t-100 52t-109.5 57t-100.5 70.5t-74 101.5t-28.5 141.5q0 102 66.5 182t183.5 123q-100 93 -100 244q0 171 124 278t316 107q126 0 237 -57t185 -154l-174 -150q-115 146 -256 146q-75 0 -123.5 -40.5
t-48.5 -111.5q0 -48 28.5 -85.5t73.5 -64t100 -52t110 -57t100 -70.5t73.5 -101t28.5 -141q0 -104 -67 -185.5t-185 -122.5q101 -91 101 -243q0 -169 -123.5 -276t-315.5 -107q-132 0 -245.5 60.5t-192.5 164.5l176 149q122 -159 271 -159zM324 551q0 -32 13.5 -60t30 -46
t52 -39t57.5 -31t70 -31q83 21 131.5 71.5t48.5 108.5q0 39 -15.5 69.5t-48.5 54.5t-64 40t-81 39q-9 4 -14 6q-82 -21 -131 -72.5t-49 -109.5z" />
    <glyph glyph-name="dieresis" unicode="&#xa8;" horiz-adv-x="688" 
d="M279 1237q-64 0 -112 47.5t-48 110.5t48 110t112 47q63 0 110 -47t47 -110t-47 -110.5t-110 -47.5zM723 1237q-64 0 -112 47.5t-48 110.5t48 110t112 47q63 0 110.5 -47t47.5 -110t-47.5 -110.5t-110.5 -47.5z" />
    <glyph glyph-name="copyright" unicode="&#xa9;" horiz-adv-x="1654" 
d="M918 1475q165 0 299 -52t221 -144t133.5 -214.5t46.5 -265.5q0 -169 -61 -323t-166 -268t-256.5 -181.5t-323.5 -67.5q-166 0 -300 52t-221.5 144t-134 214.5t-46.5 265.5q0 169 60.5 323t166 268t257.5 181.5t325 67.5zM805 106q188 0 336 93t227.5 250t79.5 346
q0 232 -140.5 382t-381.5 150q-191 0 -340.5 -93t-229.5 -249.5t-80 -345.5q0 -152 61 -271.5t182.5 -190.5t285.5 -71zM920 1184q236 0 366 -197l-178 -117q-32 52 -83.5 85.5t-113.5 33.5q-124 0 -201 -87.5t-77 -223.5q0 -102 55.5 -169t155.5 -67q113 0 209 103
l143 -131q-59 -76 -158 -119t-209 -43q-183 0 -296 110t-113 300q0 105 36.5 200t101 166.5t159 113.5t203.5 42z" />
    <glyph glyph-name="ordfeminine" unicode="&#xaa;" horiz-adv-x="710" 
d="M354 803q-90 0 -146 46t-56 132q0 79 54.5 136.5t168.5 78.5l203 33v6q6 42 -16 68t-68 26q-75 0 -134 -69l-129 106q41 53 113.5 88t161.5 35q148 0 210 -82t38 -215l-64 -363h-184l6 35q-58 -61 -158 -61zM336 1006q0 -28 18.5 -44t51.5 -16q78 0 133 66l16 90
l-143 -25q-40 -7 -58 -26.5t-18 -44.5zM102 508l33 176h516l-30 -176h-519z" />
    <glyph glyph-name="guillemetleft" unicode="&#xab;" horiz-adv-x="1126" 
d="M516 98h-262l-182 410l325 410h295l-344 -439zM977 98h-262l-183 410l326 410h295l-344 -439z" />
    <glyph glyph-name="logicalnot" unicode="&#xac;" 
d="M1171 844l-114 -656h-221l75 435h-776l37 221h999z" />
    <glyph glyph-name="registered" unicode="&#xae;" horiz-adv-x="991" 
d="M621 1475q195 0 306 -115.5t111 -290.5q0 -135 -61.5 -250.5t-173 -184.5t-248.5 -69q-197 0 -309.5 115t-112.5 291q0 101 36.5 193.5t100 161t155.5 109t196 40.5zM551 657q167 0 274 119t107 291q0 138 -82.5 226.5t-226.5 88.5q-170 0 -276.5 -118t-106.5 -291
q0 -138 83 -227t228 -89zM373 758l94 528h160q83 0 131.5 -40t48.5 -111q0 -54 -32 -97t-89 -63l84 -217h-137l-64 205h-32l-37 -205h-127zM618 1180h-43l-20 -111h49q31 0 48.5 16.5t17.5 44.5q0 23 -13.5 36.5t-38.5 13.5z" />
    <glyph glyph-name="macron" unicode="&#xaf;" horiz-adv-x="688" 
d="M129 1270l33 192h702l-33 -192h-702z" />
    <glyph glyph-name="degree" unicode="&#xb0;" horiz-adv-x="806" 
d="M543 1475q136 0 224.5 -86.5t88.5 -217.5q0 -102 -42.5 -187.5t-129 -139t-201.5 -53.5q-135 0 -225 86.5t-90 216.5q0 76 26 144.5t72.5 121.5t118.5 84t158 31zM496 963q76 0 122 59t46 137q0 62 -38 101.5t-96 39.5q-78 0 -124 -58t-46 -136q0 -64 38.5 -103.5
t97.5 -39.5z" />
    <glyph glyph-name="plusminus" unicode="&#xb1;" 
d="M1122 567h-387l-43 -243h-221l43 243h-391l41 221h389l43 244h221l-43 -244h389zM1022 0h-997l36 221h1002z" />
    <glyph glyph-name="twosuperior" unicode="&#xb2;" horiz-adv-x="772" 
d="M137 829l31 177l362 305q56 48 80.5 84.5t24.5 79.5q0 38 -25 63t-65 25q-51 0 -91.5 -34.5t-80.5 -101.5l-150 105q118 205 340 205q119 0 196 -67.5t77 -176.5q0 -87 -47 -153.5t-158 -161.5l-209 -172h348l-31 -177h-602z" />
    <glyph glyph-name="threesuperior" unicode="&#xb3;" horiz-adv-x="772" 
d="M834 1493q0 -65 -38 -119t-108 -84q56 -33 85.5 -85t29.5 -113q0 -123 -92.5 -205t-241.5 -82q-121 0 -210 54t-130 153l168 92q58 -127 176 -127q56 0 92.5 32.5t36.5 90.5q0 108 -133 108h-121l31 172h113q73 0 107 27.5t34 71.5q0 37 -25 60.5t-65 23.5
q-84 0 -142 -95l-149 105q51 78 132 121t179 43q117 0 194 -67.5t77 -176.5z" />
    <glyph glyph-name="acute" unicode="&#xb4;" horiz-adv-x="688" 
d="M473 1196h-258l264 340h293z" />
    <glyph glyph-name="paragraph" unicode="&#xb6;" horiz-adv-x="1439" 
d="M635 -403h-244l174 983h-8q-117 0 -213 43.5t-156.5 133.5t-60.5 212q0 93 38 177t106.5 148.5t173 102t229.5 37.5h287zM834 -403l323 1837h244l-326 -1837h-241z" />
    <glyph glyph-name="periodcentered" unicode="&#xb7;" horiz-adv-x="552" 
d="M287 342q-75 0 -128 52t-53 126q0 72 53 125t128 53q72 0 125 -53t53 -125q0 -73 -53 -125.5t-125 -52.5z" />
    <glyph glyph-name="cedilla" unicode="&#xb8;" horiz-adv-x="688" 
d="M188 16l191 -4l-119 -125q76 -9 125 -59t49 -115q0 -99 -72.5 -162t-191.5 -63q-144 0 -227 86l104 121q49 -60 115 -60q37 0 58.5 18.5t21.5 51.5q0 28 -21 46t-55 18q-33 0 -80 -21l-59 96z" />
    <glyph glyph-name="onesuperior" unicode="&#xb9;" horiz-adv-x="772" 
d="M135 829l31 177h217l86 479l-158 -84l-78 155l283 156h186l-124 -706h194l-31 -177h-606z" />
    <glyph glyph-name="ordmasculine" unicode="&#xba;" horiz-adv-x="806" 
d="M545 1489q145 0 231 -85.5t86 -219.5q0 -155 -107 -268t-270 -113q-147 0 -232 85.5t-85 221.5q0 154 107 266.5t270 112.5zM489 975q80 0 129.5 62t49.5 147q0 60 -35.5 96.5t-93.5 36.5q-80 0 -129.5 -62t-49.5 -147q0 -60 35.5 -96.5t93.5 -36.5zM109 508l32 176h588
l-31 -176h-589z" />
    <glyph glyph-name="guillemetright" unicode="&#xbb;" horiz-adv-x="1126" 
d="M162 918h262l182 -410l-327 -410h-295l344 437zM623 918h262l182 -410l-328 -410h-295l344 437z" />
    <glyph glyph-name="onequarter" unicode="&#xbc;" horiz-adv-x="1912" 
d="M88 553l31 176h217l86 479l-158 -84l-78 156l283 156h186l-125 -707h195l-31 -176h-606zM315 0l1258 1434h280l-1255 -1434h-283zM1151 225l33 176l420 480h235l-84 -480h80l-31 -176h-82l-39 -225h-194l39 225h-377zM1386 401h175l43 250z" />
    <glyph glyph-name="onehalf" unicode="&#xbd;" horiz-adv-x="2050" 
d="M88 553l31 176h217l86 479l-158 -84l-78 156l283 156h186l-125 -707h195l-31 -176h-606zM315 0l1258 1434h280l-1255 -1434h-283zM1272 0l31 176l362 305q56 47 80 84t24 80q0 38 -25 63t-65 25q-51 0 -91.5 -34t-80.5 -101l-149 104q118 205 340 205q119 0 195.5 -67
t76.5 -176q0 -87 -47 -154.5t-158 -161.5l-209 -172h349l-31 -176h-602z" />
    <glyph glyph-name="threequarters" unicode="&#xbe;" horiz-adv-x="1839" 
d="M786 1217q0 -65 -37.5 -119t-107.5 -84q56 -33 85.5 -85.5t29.5 -113.5q0 -123 -92.5 -205t-241.5 -82q-121 0 -210 54t-130 153l168 92q58 -127 176 -127q56 0 92.5 32.5t36.5 90.5q0 109 -133 109h-121l31 172h112q73 0 107.5 27.5t34.5 70.5q0 37 -25 60.5t-65 23.5
q-85 0 -142 -94l-149 104q51 78 132 121t179 43q117 0 193.5 -67t76.5 -176zM240 0l1257 1434h281l-1256 -1434h-282zM1077 225l33 176l420 480h235l-84 -480h80l-30 -176h-82l-39 -225h-195l39 225h-377zM1313 401h174l43 250z" />
    <glyph glyph-name="questiondown" unicode="&#xbf;" horiz-adv-x="1030" 
d="M655 1073q73 0 127 -53t54 -125t-54 -125t-127 -53t-126.5 53t-53.5 125t53.5 125t126.5 53zM696 588l-12 -344q-226 -24 -330 -83.5t-104 -180.5q0 -66 46 -113t122 -47q65 0 122.5 36t116.5 117l203 -141q-167 -258 -475 -258q-84 0 -159.5 25.5t-134.5 72.5
t-93.5 122.5t-34.5 168.5q0 189 137 312t363 153l43 160h190z" />
    <glyph glyph-name="Agrave" unicode="&#xc0;" horiz-adv-x="1482" 
d="M803 1556l-207 277h289l176 -277h-258zM-63 0l778 1434h381l270 -1434h-301l-66 373h-548l-197 -373h-317zM584 621h372l-94 528z" />
    <glyph glyph-name="Aacute" unicode="&#xc1;" horiz-adv-x="1482" 
d="M1061 1556h-273l273 277h307zM-63 0l778 1434h381l270 -1434h-301l-66 373h-548l-197 -373h-317zM584 621h372l-94 528z" />
    <glyph glyph-name="Acircumflex" unicode="&#xc2;" horiz-adv-x="1482" 
d="M795 1556h-242l274 277h295l174 -277h-217l-114 152zM-63 0l778 1434h381l270 -1434h-301l-66 373h-548l-197 -373h-317zM584 621h372l-94 528z" />
    <glyph glyph-name="Atilde" unicode="&#xc3;" horiz-adv-x="1482" 
d="M559 1563l10 63q13 107 75 164t147 57q55 0 104 -20.5t77.5 -45t58 -45t50.5 -20.5q45 0 58 62l8 49h192l-8 -64q-14 -108 -75.5 -164.5t-145.5 -56.5q-56 0 -106 20.5t-79 45t-58.5 45t-49.5 20.5q-42 0 -55 -61l-8 -49h-195zM-63 0l778 1434h381l270 -1434h-301
l-66 373h-548l-197 -373h-317zM584 621h372l-94 528z" />
    <glyph glyph-name="Adieresis" unicode="&#xc4;" horiz-adv-x="1482" 
d="M731 1559q-60 0 -102.5 42.5t-42.5 102.5q0 59 42.5 101t102.5 42t104 -42.5t44 -100.5q0 -60 -44 -102.5t-104 -42.5zM1171 1559q-61 0 -104 42.5t-43 102.5q0 59 43 101t104 42q59 0 102.5 -42.5t43.5 -100.5q0 -60 -43.5 -102.5t-102.5 -42.5zM-63 0l778 1434h381
l270 -1434h-301l-66 373h-548l-197 -373h-317zM584 621h372l-94 528z" />
    <glyph glyph-name="Aring" unicode="&#xc5;" horiz-adv-x="1482" 
d="M975 1978q107 0 178.5 -57t71.5 -156q0 -123 -80 -186t-205 -63q-107 0 -177.5 55.5t-70.5 154.5q0 124 79 188t204 64zM969 1841q-56 0 -88.5 -26.5t-32.5 -77.5q0 -39 27.5 -61.5t72.5 -22.5q56 0 88.5 26.5t32.5 77.5q0 39 -28 61.5t-72 22.5zM-63 0l778 1434h381
l270 -1434h-301l-66 373h-548l-197 -373h-317zM584 621h372l-94 528z" />
    <glyph glyph-name="AE" unicode="&#xc6;" horiz-adv-x="1974" 
d="M-74 0l1041 1434h1030l-43 -242h-527l-59 -340h449l-48 -242h-444l-63 -368h524l-41 -242h-817l65 373h-450l-269 -373h-348zM719 621h317l105 585z" />
    <glyph glyph-name="Ccedilla" unicode="&#xc7;" horiz-adv-x="1466" 
d="M918 1475q203 0 351.5 -88t237.5 -230l-250 -166q-54 93 -145.5 151t-204.5 58q-144 0 -258 -72t-176.5 -198t-62.5 -281q0 -117 42.5 -210.5t130.5 -150.5t208 -57q205 0 372 181l205 -187q-79 -99 -197 -165t-256 -89l-229 -299h-262l223 297q-246 37 -393.5 212.5
t-147.5 443.5q0 136 37.5 263.5t109.5 233.5t170 185.5t225.5 123.5t269.5 44z" />
    <glyph glyph-name="Egrave" unicode="&#xc8;" horiz-adv-x="1161" 
d="M655 1556l-206 277h288l176 -277h-258zM113 0l254 1434h815l-41 -242h-527l-59 -340h444l-41 -242h-446l-66 -368h525l-41 -242h-817z" />
    <glyph glyph-name="Eacute" unicode="&#xc9;" horiz-adv-x="1161" 
d="M913 1556h-272l272 277h308zM113 0l254 1434h815l-41 -242h-527l-59 -340h444l-41 -242h-446l-66 -368h525l-41 -242h-817z" />
    <glyph glyph-name="Ecircumflex" unicode="&#xca;" horiz-adv-x="1161" 
d="M647 1556h-241l274 277h295l174 -277h-217l-115 152zM113 0l254 1434h815l-41 -242h-527l-59 -340h444l-41 -242h-446l-66 -368h525l-41 -242h-817z" />
    <glyph glyph-name="Edieresis" unicode="&#xcb;" horiz-adv-x="1161" 
d="M584 1559q-60 0 -103 42.5t-43 102.5q0 59 43 101t103 42t103.5 -42.5t43.5 -100.5q0 -60 -43.5 -102.5t-103.5 -42.5zM1024 1559q-61 0 -104 42.5t-43 102.5q0 59 43 101t104 42q59 0 102 -42.5t43 -100.5q0 -60 -43 -102.5t-102 -42.5zM113 0l254 1434h815l-41 -242
h-527l-59 -340h444l-41 -242h-446l-66 -368h525l-41 -242h-817z" />
    <glyph glyph-name="Igrave" unicode="&#xcc;" horiz-adv-x="696" 
d="M410 1556l-207 277h289l176 -277h-258zM113 0l254 1434h290l-254 -1434h-290z" />
    <glyph glyph-name="Iacute" unicode="&#xcd;" horiz-adv-x="696" 
d="M668 1556h-273l273 277h307zM113 0l254 1434h290l-254 -1434h-290z" />
    <glyph glyph-name="Icircumflex" unicode="&#xce;" horiz-adv-x="696" 
d="M401 1556h-241l274 277h295l174 -277h-217l-115 152zM113 0l254 1434h290l-254 -1434h-290z" />
    <glyph glyph-name="Idieresis" unicode="&#xcf;" horiz-adv-x="696" 
d="M338 1559q-60 0 -102.5 42.5t-42.5 102.5q0 59 42.5 101t102.5 42t103.5 -42.5t43.5 -100.5q0 -60 -43.5 -102.5t-103.5 -42.5zM778 1559q-61 0 -104 42.5t-43 102.5q0 59 43 101t104 42q59 0 102.5 -42.5t43.5 -100.5q0 -60 -43.5 -102.5t-102.5 -42.5zM113 0l254 1434
h290l-254 -1434h-290z" />
    <glyph glyph-name="Eth" unicode="&#xd0;" horiz-adv-x="1576" 
d="M113 0l112 635h-202l32 192h205l107 607h415q225 0 395 -77t265.5 -225.5t95.5 -351.5q0 -155 -59.5 -296t-166 -248.5t-268 -171.5t-352.5 -64h-579zM782 1169h-172l-59 -342h321l-34 -192h-322l-65 -371h241q122 0 224 38.5t171 105.5t107.5 159.5t38.5 198.5
q0 186 -119 294.5t-332 108.5z" />
    <glyph glyph-name="Ntilde" unicode="&#xd1;" horiz-adv-x="1675" 
d="M655 1563l11 63q13 107 75 164t146 57q55 0 104 -20.5t77.5 -45t58.5 -45t51 -20.5q44 0 57 62l8 49h193l-9 -64q-14 -108 -75.5 -164.5t-145.5 -56.5q-56 0 -106 20.5t-79 45t-58.5 45t-49.5 20.5q-42 0 -55 -61l-8 -49h-195zM113 0l254 1434h368l424 -1051l187 1051
h290l-254 -1434h-370l-422 1049l-187 -1049h-290z" />
    <glyph glyph-name="Ograve" unicode="&#xd2;" horiz-adv-x="1644" 
d="M879 1556l-207 277h289l176 -277h-258zM926 1475q198 0 353 -80.5t243 -233t88 -352.5q0 -136 -38 -263.5t-111 -233.5t-172 -185.5t-228 -123.5t-273 -44q-197 0 -351.5 80.5t-242.5 233t-88 352.5q0 170 60.5 325.5t166.5 271.5t260.5 184.5t332.5 68.5zM799 231
q222 0 365 158t143 395q0 117 -44 210.5t-133.5 150.5t-211.5 57q-222 0 -365 -158t-143 -395q0 -117 44 -210.5t133.5 -150.5t211.5 -57z" />
    <glyph glyph-name="Oacute" unicode="&#xd3;" horiz-adv-x="1644" 
d="M1137 1556h-273l273 277h307zM926 1475q198 0 353 -80.5t243 -233t88 -352.5q0 -136 -38 -263.5t-111 -233.5t-172 -185.5t-228 -123.5t-273 -44q-197 0 -351.5 80.5t-242.5 233t-88 352.5q0 170 60.5 325.5t166.5 271.5t260.5 184.5t332.5 68.5zM799 231q222 0 365 158
t143 395q0 117 -44 210.5t-133.5 150.5t-211.5 57q-222 0 -365 -158t-143 -395q0 -117 44 -210.5t133.5 -150.5t211.5 -57z" />
    <glyph glyph-name="Ocircumflex" unicode="&#xd4;" horiz-adv-x="1644" 
d="M870 1556h-241l274 277h295l174 -277h-217l-115 152zM926 1475q198 0 353 -80.5t243 -233t88 -352.5q0 -136 -38 -263.5t-111 -233.5t-172 -185.5t-228 -123.5t-273 -44q-197 0 -351.5 80.5t-242.5 233t-88 352.5q0 170 60.5 325.5t166.5 271.5t260.5 184.5t332.5 68.5z
M799 231q222 0 365 158t143 395q0 117 -44 210.5t-133.5 150.5t-211.5 57q-222 0 -365 -158t-143 -395q0 -117 44 -210.5t133.5 -150.5t211.5 -57z" />
    <glyph glyph-name="Otilde" unicode="&#xd5;" horiz-adv-x="1644" 
d="M635 1563l10 63q13 107 75 164t146 57q55 0 104 -20.5t77.5 -45t58.5 -45t51 -20.5q44 0 57 62l9 49h192l-8 -64q-14 -108 -75.5 -164.5t-145.5 -56.5q-56 0 -106 20.5t-79 45t-58.5 45t-49.5 20.5q-42 0 -55 -61l-9 -49h-194zM926 1475q198 0 353 -80.5t243 -233
t88 -352.5q0 -136 -38 -263.5t-111 -233.5t-172 -185.5t-228 -123.5t-273 -44q-197 0 -351.5 80.5t-242.5 233t-88 352.5q0 170 60.5 325.5t166.5 271.5t260.5 184.5t332.5 68.5zM799 231q222 0 365 158t143 395q0 117 -44 210.5t-133.5 150.5t-211.5 57q-222 0 -365 -158
t-143 -395q0 -117 44 -210.5t133.5 -150.5t211.5 -57z" />
    <glyph glyph-name="Odieresis" unicode="&#xd6;" horiz-adv-x="1644" 
d="M807 1559q-60 0 -102.5 42.5t-42.5 102.5q0 59 42.5 101t102.5 42t103.5 -42.5t43.5 -100.5q0 -60 -43.5 -102.5t-103.5 -42.5zM1247 1559q-61 0 -104 42.5t-43 102.5q0 59 43 101t104 42q59 0 102.5 -42.5t43.5 -100.5q0 -60 -43.5 -102.5t-102.5 -42.5zM926 1475
q198 0 353 -80.5t243 -233t88 -352.5q0 -136 -38 -263.5t-111 -233.5t-172 -185.5t-228 -123.5t-273 -44q-197 0 -351.5 80.5t-242.5 233t-88 352.5q0 170 60.5 325.5t166.5 271.5t260.5 184.5t332.5 68.5zM799 231q222 0 365 158t143 395q0 117 -44 210.5t-133.5 150.5
t-211.5 57q-222 0 -365 -158t-143 -395q0 -117 44 -210.5t133.5 -150.5t211.5 -57z" />
    <glyph glyph-name="multiply" unicode="&#xd7;" 
d="M868 0l-274 356l-399 -356l-144 158l412 366l-283 369l182 139l273 -354l397 354l148 -155l-414 -367l287 -371z" />
    <glyph glyph-name="Oslash" unicode="&#xd8;" horiz-adv-x="1644" 
d="M254 -41h-268l245 258q-125 166 -125 408q0 170 60.5 325.5t166.5 271.5t260.5 184.5t332.5 68.5q245 0 422 -123l116 123h267l-246 -258q125 -170 125 -408q0 -136 -38 -263.5t-111 -233.5t-172 -185.5t-228 -123.5t-273 -44q-243 0 -417 123zM410 649q0 -121 47 -217
l673 713q-88 57 -212 57q-222 0 -365 -158t-143 -395zM799 231q222 0 365 158t143 395q0 119 -47 215l-674 -710q89 -58 213 -58z" />
    <glyph glyph-name="Ugrave" unicode="&#xd9;" horiz-adv-x="1458" 
d="M791 1556l-207 277h288l177 -277h-258zM1008 537l157 897h291l-158 -904q-104 -571 -630 -571q-128 0 -230 40.5t-171 116t-95 192t0 261.5l154 865h290l-157 -889q-26 -150 35.5 -232t199.5 -82q130 0 208.5 78.5t105.5 227.5z" />
    <glyph glyph-name="Uacute" unicode="&#xda;" horiz-adv-x="1458" 
d="M1049 1556h-273l273 277h307zM1008 537l157 897h291l-158 -904q-104 -571 -630 -571q-128 0 -230 40.5t-171 116t-95 192t0 261.5l154 865h290l-157 -889q-26 -150 35.5 -232t199.5 -82q130 0 208.5 78.5t105.5 227.5z" />
    <glyph glyph-name="Ucircumflex" unicode="&#xdb;" horiz-adv-x="1458" 
d="M782 1556h-241l274 277h295l174 -277h-217l-115 152zM1008 537l157 897h291l-158 -904q-104 -571 -630 -571q-128 0 -230 40.5t-171 116t-95 192t0 261.5l154 865h290l-157 -889q-26 -150 35.5 -232t199.5 -82q130 0 208.5 78.5t105.5 227.5z" />
    <glyph glyph-name="Udieresis" unicode="&#xdc;" horiz-adv-x="1458" 
d="M719 1559q-60 0 -103 42.5t-43 102.5q0 59 43 101t103 42t103.5 -42.5t43.5 -100.5q0 -60 -43.5 -102.5t-103.5 -42.5zM1159 1559q-61 0 -104 42.5t-43 102.5q0 59 43 101t104 42q59 0 102.5 -42.5t43.5 -100.5q0 -60 -43.5 -102.5t-102.5 -42.5zM1008 537l157 897h291
l-158 -904q-104 -571 -630 -571q-128 0 -230 40.5t-171 116t-95 192t0 261.5l154 865h290l-157 -889q-26 -150 35.5 -232t199.5 -82q130 0 208.5 78.5t105.5 227.5z" />
    <glyph glyph-name="Yacute" unicode="&#xdd;" horiz-adv-x="1417" 
d="M997 1556h-272l272 277h308zM1591 1434l-723 -832l-106 -602h-291l109 621l-428 813h329l281 -549l467 549h362z" />
    <glyph glyph-name="Thorn" unicode="&#xde;" horiz-adv-x="1208" 
d="M113 0l254 1434h290l-49 -273h140q214 0 338 -104t124 -291q0 -196 -141.5 -327.5t-382.5 -131.5h-227l-56 -307h-290zM727 920h-160l-67 -371h182q102 0 162.5 56.5t60.5 148.5q0 79 -46.5 122.5t-131.5 43.5z" />
    <glyph glyph-name="germandbls" unicode="&#xdf;" horiz-adv-x="1189" 
d="M592 -8q-87 0 -146 16l43 238q50 -13 89 -13q126 0 192 62t66 164q0 86 -56 140t-147 54h-66l43 246h66q106 0 167.5 61t61.5 156q0 83 -45 129.5t-131 46.5q-180 0 -217 -207l-193 -1085h-262l193 1087q17 99 52.5 178t94 141t147 96t201.5 34q206 0 320.5 -109
t114.5 -288q0 -126 -79.5 -229t-205.5 -136q96 -33 152.5 -119.5t56.5 -193.5q0 -90 -28 -166.5t-76.5 -131.5t-113.5 -94t-139.5 -58t-154.5 -19z" />
    <glyph glyph-name="agrave" unicode="&#xe0;" horiz-adv-x="1120" 
d="M561 1196l-180 340h274l144 -340h-238zM369 -31q-145 0 -235.5 72.5t-90.5 204.5q0 127 90.5 218t272.5 122l342 59l4 23q14 81 -27.5 129.5t-128.5 48.5q-128 0 -240 -125l-184 153q71 87 186 143t254 56q154 0 252 -60.5t131.5 -164t8.5 -240.5l-109 -608h-260l14 78
q-106 -109 -280 -109zM307 279q0 -48 34 -75.5t97 -27.5q74 0 140 32t108 85l29 166l-256 -45q-77 -13 -114.5 -49.5t-37.5 -85.5z" />
    <glyph glyph-name="aacute" unicode="&#xe1;" horiz-adv-x="1120" 
d="M809 1196h-258l264 340h293zM369 -31q-145 0 -235.5 72.5t-90.5 204.5q0 127 90.5 218t272.5 122l342 59l4 23q14 81 -27.5 129.5t-128.5 48.5q-128 0 -240 -125l-184 153q71 87 186 143t254 56q154 0 252 -60.5t131.5 -164t8.5 -240.5l-109 -608h-260l14 78
q-106 -109 -280 -109zM307 279q0 -48 34 -75.5t97 -27.5q74 0 140 32t108 85l29 166l-256 -45q-77 -13 -114.5 -49.5t-37.5 -85.5z" />
    <glyph glyph-name="acircumflex" unicode="&#xe2;" horiz-adv-x="1120" 
d="M543 1196h-240l264 340h332l143 -340h-219l-102 215zM369 -31q-145 0 -235.5 72.5t-90.5 204.5q0 127 90.5 218t272.5 122l342 59l4 23q14 81 -27.5 129.5t-128.5 48.5q-128 0 -240 -125l-184 153q71 87 186 143t254 56q154 0 252 -60.5t131.5 -164t8.5 -240.5l-109 -608
h-260l14 78q-106 -109 -280 -109zM307 279q0 -48 34 -75.5t97 -27.5q74 0 140 32t108 85l29 166l-256 -45q-77 -13 -114.5 -49.5t-37.5 -85.5z" />
    <glyph glyph-name="atilde" unicode="&#xe3;" horiz-adv-x="1120" 
d="M489 1206h-184l8 72q15 129 76.5 195.5t155.5 66.5q47 0 89.5 -16.5t72.5 -39.5t56 -46t50.5 -39.5t46.5 -16.5q56 0 66 66l8 78h184l-8 -72q-15 -129 -76 -195.5t-153 -66.5q-48 0 -91 16.5t-73 39.5t-56 46t-51 39.5t-47 16.5q-53 0 -63 -66zM369 -31
q-145 0 -235.5 72.5t-90.5 204.5q0 127 90.5 218t272.5 122l342 59l4 23q14 81 -27.5 129.5t-128.5 48.5q-128 0 -240 -125l-184 153q71 87 186 143t254 56q154 0 252 -60.5t131.5 -164t8.5 -240.5l-109 -608h-260l14 78q-106 -109 -280 -109zM307 279q0 -48 34 -75.5
t97 -27.5q74 0 140 32t108 85l29 166l-256 -45q-77 -13 -114.5 -49.5t-37.5 -85.5z" />
    <glyph glyph-name="adieresis" unicode="&#xe4;" horiz-adv-x="1120" 
d="M496 1237q-64 0 -112 47.5t-48 110.5t48 110t112 47q63 0 110 -47t47 -110t-47 -110.5t-110 -47.5zM940 1237q-64 0 -112 47.5t-48 110.5t48 110t112 47q63 0 110.5 -47t47.5 -110t-47.5 -110.5t-110.5 -47.5zM369 -31q-145 0 -235.5 72.5t-90.5 204.5q0 127 90.5 218
t272.5 122l342 59l4 23q14 81 -27.5 129.5t-128.5 48.5q-128 0 -240 -125l-184 153q71 87 186 143t254 56q154 0 252 -60.5t131.5 -164t8.5 -240.5l-109 -608h-260l14 78q-106 -109 -280 -109zM307 279q0 -48 34 -75.5t97 -27.5q74 0 140 32t108 85l29 166l-256 -45
q-77 -13 -114.5 -49.5t-37.5 -85.5z" />
    <glyph glyph-name="aring" unicode="&#xe5;" horiz-adv-x="1120" 
d="M696 1139q-103 0 -175 64t-72 163q0 123 80.5 196.5t205.5 73.5q103 0 175.5 -64t72.5 -163q0 -122 -81 -196t-206 -74zM709 1274q54 0 86 36t32 89q0 45 -27.5 72.5t-76.5 27.5q-54 0 -86.5 -36t-32.5 -89q0 -45 28 -72.5t77 -27.5zM369 -31q-145 0 -235.5 72.5
t-90.5 204.5q0 127 90.5 218t272.5 122l342 59l4 23q14 81 -27.5 129.5t-128.5 48.5q-128 0 -240 -125l-184 153q71 87 186 143t254 56q154 0 252 -60.5t131.5 -164t8.5 -240.5l-109 -608h-260l14 78q-106 -109 -280 -109zM307 279q0 -48 34 -75.5t97 -27.5q74 0 140 32
t108 85l29 166l-256 -45q-77 -13 -114.5 -49.5t-37.5 -85.5z" />
    <glyph glyph-name="ae" unicode="&#xe6;" horiz-adv-x="1802" 
d="M391 -29q-148 0 -245 74.5t-97 212.5q0 120 90.5 208.5t272.5 119.5l342 59l4 23q14 80 -28 129t-128 49q-128 0 -240 -125l-184 153q71 88 185.5 143.5t254.5 55.5q223 0 324 -131q153 131 375 131q183 0 304.5 -113t121.5 -290q0 -48 -13 -107t-30 -100h-707v-8
q0 -132 65.5 -197t190.5 -65q175 0 279 135l172 -168q-84 -95 -205 -148t-262 -53q-135 0 -239.5 49t-168.5 137q-75 -79 -188.5 -126.5t-245.5 -47.5zM1303 860q-97 0 -167.5 -55.5t-107.5 -149.5l459 -4q7 52 -8.5 98.5t-61 78.5t-114.5 32zM313 283q0 -49 34 -78t97 -29
q165 0 297 162q-10 62 -10 117v4l-266 -45q-78 -13 -115 -48t-37 -83z" />
    <glyph glyph-name="ccedilla" unicode="&#xe7;" horiz-adv-x="1087" 
d="M680 1073q148 0 259.5 -58t164.5 -147l-219 -174q-33 58 -90.5 95.5t-137.5 37.5q-140 0 -228.5 -109.5t-88.5 -262.5q0 -111 66 -180.5t174 -69.5q73 0 134.5 30.5t102.5 79.5l174 -180q-59 -67 -146.5 -112t-187.5 -58l-223 -293h-262l234 310q-160 45 -250 172.5
t-90 300.5q0 169 79 310t220.5 224.5t314.5 83.5z" />
    <glyph glyph-name="egrave" unicode="&#xe8;" horiz-adv-x="1146" 
d="M575 1196l-180 340h275l143 -340h-238zM573 -41q-234 0 -368.5 138.5t-134.5 357.5q0 171 67.5 310.5t199.5 223.5t306 84q191 0 316.5 -113t125.5 -290q0 -50 -12.5 -109.5t-30.5 -97.5h-706v-8q0 -132 65.5 -197t190.5 -65q169 0 278 135l170 -168q-83 -95 -204.5 -148
t-262.5 -53zM639 860q-103 0 -171.5 -56t-102.5 -153h464q11 82 -38.5 145.5t-151.5 63.5z" />
    <glyph glyph-name="eacute" unicode="&#xe9;" horiz-adv-x="1146" 
d="M823 1196h-258l264 340h293zM573 -41q-234 0 -368.5 138.5t-134.5 357.5q0 171 67.5 310.5t199.5 223.5t306 84q191 0 316.5 -113t125.5 -290q0 -50 -12.5 -109.5t-30.5 -97.5h-706v-8q0 -132 65.5 -197t190.5 -65q169 0 278 135l170 -168q-83 -95 -204.5 -148
t-262.5 -53zM639 860q-103 0 -171.5 -56t-102.5 -153h464q11 82 -38.5 145.5t-151.5 63.5z" />
    <glyph glyph-name="ecircumflex" unicode="&#xea;" horiz-adv-x="1146" 
d="M557 1196h-240l265 340h331l144 -340h-219l-103 215zM573 -41q-234 0 -368.5 138.5t-134.5 357.5q0 171 67.5 310.5t199.5 223.5t306 84q191 0 316.5 -113t125.5 -290q0 -50 -12.5 -109.5t-30.5 -97.5h-706v-8q0 -132 65.5 -197t190.5 -65q169 0 278 135l170 -168
q-83 -95 -204.5 -148t-262.5 -53zM639 860q-103 0 -171.5 -56t-102.5 -153h464q11 82 -38.5 145.5t-151.5 63.5z" />
    <glyph glyph-name="edieresis" unicode="&#xeb;" horiz-adv-x="1146" 
d="M510 1237q-64 0 -112 47.5t-48 110.5t48 110t112 47q63 0 110.5 -47t47.5 -110t-47.5 -110.5t-110.5 -47.5zM954 1237q-64 0 -111.5 47.5t-47.5 110.5t47.5 110t111.5 47q63 0 110.5 -47t47.5 -110t-47.5 -110.5t-110.5 -47.5zM573 -41q-234 0 -368.5 138.5t-134.5 357.5
q0 171 67.5 310.5t199.5 223.5t306 84q191 0 316.5 -113t125.5 -290q0 -50 -12.5 -109.5t-30.5 -97.5h-706v-8q0 -132 65.5 -197t190.5 -65q169 0 278 135l170 -168q-83 -95 -204.5 -148t-262.5 -53zM639 860q-103 0 -171.5 -56t-102.5 -153h464q11 82 -38.5 145.5
t-151.5 63.5z" />
    <glyph glyph-name="igrave" unicode="&#xec;" horiz-adv-x="557" 
d="M279 1196l-181 340h275l143 -340h-237zM57 0l183 1032h260l-183 -1032h-260z" />
    <glyph glyph-name="iacute" unicode="&#xed;" horiz-adv-x="557" 
d="M526 1196h-258l264 340h293zM57 0l183 1032h260l-183 -1032h-260z" />
    <glyph glyph-name="icircumflex" unicode="&#xee;" horiz-adv-x="557" 
d="M260 1196h-240l265 340h331l144 -340h-219l-103 215zM57 0l183 1032h260l-183 -1032h-260z" />
    <glyph glyph-name="idieresis" unicode="&#xef;" horiz-adv-x="557" 
d="M213 1237q-64 0 -112 47.5t-48 110.5t48 110t112 47q63 0 110.5 -47t47.5 -110t-47.5 -110.5t-110.5 -47.5zM657 1237q-64 0 -111.5 47.5t-47.5 110.5t47.5 110t111.5 47q63 0 110.5 -47t47.5 -110t-47.5 -110.5t-110.5 -47.5zM57 0l183 1032h260l-183 -1032h-260z" />
    <glyph glyph-name="eth" unicode="&#xf0;" horiz-adv-x="1251" 
d="M352 1098l33 205l221 59q-90 84 -215 174h342q71 -49 131 -106l396 106l-35 -205l-224 -59q195 -280 195 -621q0 -160 -47 -292t-128.5 -219t-189.5 -134t-231 -47q-247 0 -389.5 140.5t-142.5 371.5q0 114 39.5 217.5t110 182t176.5 125t231 46.5q163 0 264 -88
q-43 126 -137 250zM340 475q0 -124 74 -198t190 -74q137 0 229 117.5t101 316.5q-44 70 -120 115t-167 45q-143 0 -225 -93.5t-82 -228.5z" />
    <glyph glyph-name="ntilde" unicode="&#xf1;" horiz-adv-x="1224" 
d="M539 1206h-185l8 72q15 129 76.5 195.5t155.5 66.5q47 0 89.5 -16.5t72.5 -39.5t56 -46t50.5 -39.5t46.5 -16.5q56 0 66 66l8 78h184l-8 -72q-15 -129 -76 -195.5t-153 -66.5q-48 0 -91 16.5t-73 39.5t-56 46t-51 39.5t-47 16.5q-53 0 -63 -66zM57 0l183 1032h260
l-13 -76q131 117 291 117q181 0 273.5 -119t54.5 -340l-107 -614h-262l107 604q19 104 -22 163.5t-134 59.5q-82 0 -145.5 -45t-104.5 -108l-2 2l-119 -676h-260z" />
    <glyph glyph-name="ograve" unicode="&#xf2;" horiz-adv-x="1253" 
d="M627 1196l-181 340h275l143 -340h-237zM680 1073q233 0 370.5 -138.5t137.5 -356.5q0 -122 -43 -234t-120.5 -197.5t-193.5 -136.5t-253 -51q-235 0 -372.5 139t-137.5 357q0 122 43.5 234t120.5 197.5t194 136t254 50.5zM584 205q148 0 238.5 109.5t90.5 263.5
q0 110 -68 179.5t-175 69.5q-148 0 -238 -109t-90 -263q0 -110 67.5 -180t174.5 -70z" />
    <glyph glyph-name="oacute" unicode="&#xf3;" horiz-adv-x="1253" 
d="M874 1196h-258l265 340h293zM680 1073q233 0 370.5 -138.5t137.5 -356.5q0 -122 -43 -234t-120.5 -197.5t-193.5 -136.5t-253 -51q-235 0 -372.5 139t-137.5 357q0 122 43.5 234t120.5 197.5t194 136t254 50.5zM584 205q148 0 238.5 109.5t90.5 263.5q0 110 -68 179.5
t-175 69.5q-148 0 -238 -109t-90 -263q0 -110 67.5 -180t174.5 -70z" />
    <glyph glyph-name="ocircumflex" unicode="&#xf4;" horiz-adv-x="1253" 
d="M608 1196h-239l264 340h332l143 -340h-219l-103 215zM680 1073q233 0 370.5 -138.5t137.5 -356.5q0 -122 -43 -234t-120.5 -197.5t-193.5 -136.5t-253 -51q-235 0 -372.5 139t-137.5 357q0 122 43.5 234t120.5 197.5t194 136t254 50.5zM584 205q148 0 238.5 109.5
t90.5 263.5q0 110 -68 179.5t-175 69.5q-148 0 -238 -109t-90 -263q0 -110 67.5 -180t174.5 -70z" />
    <glyph glyph-name="otilde" unicode="&#xf5;" horiz-adv-x="1253" 
d="M555 1206h-184l8 72q15 129 76.5 195.5t154.5 66.5q58 0 109.5 -24.5t82.5 -54.5t64.5 -54.5t59.5 -24.5q55 0 65 66l8 78h185l-8 -72q-15 -128 -76.5 -195t-153.5 -67q-48 0 -90.5 16.5t-73 39.5t-56.5 46t-50.5 39.5t-46.5 16.5q-54 0 -64 -66zM680 1073
q233 0 370.5 -138.5t137.5 -356.5q0 -122 -43 -234t-120.5 -197.5t-193.5 -136.5t-253 -51q-235 0 -372.5 139t-137.5 357q0 122 43.5 234t120.5 197.5t194 136t254 50.5zM584 205q148 0 238.5 109.5t90.5 263.5q0 110 -68 179.5t-175 69.5q-148 0 -238 -109t-90 -263
q0 -110 67.5 -180t174.5 -70z" />
    <glyph glyph-name="odieresis" unicode="&#xf6;" horiz-adv-x="1253" 
d="M561 1237q-64 0 -112 47.5t-48 110.5t48 110t112 47q63 0 110.5 -47t47.5 -110t-47.5 -110.5t-110.5 -47.5zM1006 1237q-64 0 -112 47.5t-48 110.5t48 110t112 47q63 0 110 -47t47 -110t-47 -110.5t-110 -47.5zM680 1073q233 0 370.5 -138.5t137.5 -356.5
q0 -122 -43 -234t-120.5 -197.5t-193.5 -136.5t-253 -51q-235 0 -372.5 139t-137.5 357q0 122 43.5 234t120.5 197.5t194 136t254 50.5zM584 205q148 0 238.5 109.5t90.5 263.5q0 110 -68 179.5t-175 69.5q-148 0 -238 -109t-90 -263q0 -110 67.5 -180t174.5 -70z" />
    <glyph glyph-name="divide" unicode="&#xf7;" 
d="M686 776q-60 0 -103.5 43.5t-43.5 102.5q0 60 43.5 103.5t103.5 43.5t102.5 -43.5t42.5 -103.5q0 -59 -42.5 -102.5t-102.5 -43.5zM1094 406h-1000l41 221h1000zM545 -37q-59 0 -102.5 43.5t-43.5 102.5q0 60 43.5 102.5t102.5 42.5q60 0 103.5 -42.5t43.5 -102.5
q0 -59 -43.5 -102.5t-103.5 -43.5z" />
    <glyph glyph-name="oslash" unicode="&#xf8;" horiz-adv-x="1253" 
d="M242 -41h-260l176 195q-90 125 -90 301q0 122 43.5 234t120.5 197.5t194 136t254 50.5q154 0 274 -65l60 65h262l-178 -194q90 -125 90 -301q0 -122 -43 -234t-120.5 -197.5t-193.5 -136.5t-253 -51q-155 0 -277 66zM342 455q0 -51 16 -97l406 453q-46 16 -94 16
q-148 0 -238 -109t-90 -263zM584 205q148 0 238.5 109.5t90.5 263.5q0 48 -16 94l-403 -453q51 -14 90 -14z" />
    <glyph glyph-name="ugrave" unicode="&#xf9;" horiz-adv-x="1193" 
d="M598 1196l-180 340h274l144 -340h-238zM793 446l102 586h264l-104 -588q-86 -485 -516 -485q-229 0 -344.5 137t-73.5 381l98 555h262l-104 -586q-20 -116 27.5 -178.5t156.5 -62.5q93 0 152.5 61.5t79.5 179.5z" />
    <glyph glyph-name="uacute" unicode="&#xfa;" horiz-adv-x="1193" 
d="M846 1196h-258l264 340h293zM793 446l102 586h264l-104 -588q-86 -485 -516 -485q-229 0 -344.5 137t-73.5 381l98 555h262l-104 -586q-20 -116 27.5 -178.5t156.5 -62.5q93 0 152.5 61.5t79.5 179.5z" />
    <glyph glyph-name="ucircumflex" unicode="&#xfb;" horiz-adv-x="1193" 
d="M580 1196h-240l264 340h332l143 -340h-219l-102 215zM793 446l102 586h264l-104 -588q-86 -485 -516 -485q-229 0 -344.5 137t-73.5 381l98 555h262l-104 -586q-20 -116 27.5 -178.5t156.5 -62.5q93 0 152.5 61.5t79.5 179.5z" />
    <glyph glyph-name="udieresis" unicode="&#xfc;" horiz-adv-x="1193" 
d="M532 1237q-64 0 -111.5 47.5t-47.5 110.5t47.5 110t111.5 47q63 0 110.5 -47t47.5 -110t-47.5 -110.5t-110.5 -47.5zM977 1237q-64 0 -112 47.5t-48 110.5t48 110t112 47q63 0 110.5 -47t47.5 -110t-47.5 -110.5t-110.5 -47.5zM793 446l102 586h264l-104 -588
q-86 -485 -516 -485q-229 0 -344.5 137t-73.5 381l98 555h262l-104 -586q-20 -116 27.5 -178.5t156.5 -62.5q93 0 152.5 61.5t79.5 179.5z" />
    <glyph glyph-name="yacute" unicode="&#xfd;" horiz-adv-x="1114" 
d="M805 1196h-258l264 340h293zM473 -236q-83 -147 -172 -211.5t-217 -64.5q-136 0 -207 45l39 221q66 -28 133 -28q64 0 110.5 32t88.5 107l80 139l-230 1028h275l145 -696l397 696h285z" />
    <glyph glyph-name="thorn" unicode="&#xfe;" horiz-adv-x="1302" 
d="M-31 -504l359 2040h260l-99 -563q124 100 293 100q212 0 332.5 -138t120.5 -366q0 -118 -41 -228t-114 -195t-181.5 -136t-234.5 -51q-201 0 -330 129l-105 -592h-260zM711 827q-169 0 -273 -139l-53 -311q76 -172 258 -172q141 0 229.5 105.5t88.5 258.5
q0 115 -67 186.5t-183 71.5z" />
    <glyph glyph-name="ydieresis" unicode="&#xff;" horiz-adv-x="1114" 
d="M492 1237q-64 0 -112 47.5t-48 110.5t48 110t112 47q63 0 110 -47t47 -110t-47 -110.5t-110 -47.5zM936 1237q-64 0 -112 47.5t-48 110.5t48 110t112 47q63 0 110.5 -47t47.5 -110t-47.5 -110.5t-110.5 -47.5zM473 -236q-83 -147 -172 -211.5t-217 -64.5q-136 0 -207 45
l39 221q66 -28 133 -28q64 0 110.5 32t88.5 107l80 139l-230 1028h275l145 -696l397 696h285z" />
    <glyph glyph-name="Amacron" unicode="&#x100;" horiz-adv-x="1482" 
d="M584 1606l32 190h703l-33 -190h-702zM-63 0l778 1434h381l270 -1434h-301l-66 373h-548l-197 -373h-317zM584 621h372l-94 528z" />
    <glyph glyph-name="amacron" unicode="&#x101;" horiz-adv-x="1120" 
d="M344 1270l33 192h702l-32 -192h-703zM369 -31q-145 0 -235.5 72.5t-90.5 204.5q0 127 90.5 218t272.5 122l342 59l4 23q14 81 -27.5 129.5t-128.5 48.5q-128 0 -240 -125l-184 153q71 87 186 143t254 56q154 0 252 -60.5t131.5 -164t8.5 -240.5l-109 -608h-260l14 78
q-106 -109 -280 -109zM307 279q0 -48 34 -75.5t97 -27.5q74 0 140 32t108 85l29 166l-256 -45q-77 -13 -114.5 -49.5t-37.5 -85.5z" />
    <glyph glyph-name="Abreve" unicode="&#x102;" horiz-adv-x="1482" 
d="M956 1712q140 0 172 121h220q-25 -147 -126.5 -222t-269.5 -75q-177 0 -275 79.5t-75 217.5h205q-5 -59 30.5 -90t118.5 -31zM-63 0l778 1434h381l270 -1434h-301l-66 373h-548l-197 -373h-317zM584 621h372l-94 528z" />
    <glyph glyph-name="abreve" unicode="&#x103;" horiz-adv-x="1120" 
d="M731 1372q142 0 170 164h217q-52 -340 -401 -340q-165 0 -258 92t-66 248h205q-20 -164 133 -164zM369 -31q-145 0 -235.5 72.5t-90.5 204.5q0 127 90.5 218t272.5 122l342 59l4 23q14 81 -27.5 129.5t-128.5 48.5q-128 0 -240 -125l-184 153q71 87 186 143t254 56
q154 0 252 -60.5t131.5 -164t8.5 -240.5l-109 -608h-260l14 78q-106 -109 -280 -109zM307 279q0 -48 34 -75.5t97 -27.5q74 0 140 32t108 85l29 166l-256 -45q-77 -13 -114.5 -49.5t-37.5 -85.5z" />
    <glyph glyph-name="Aogonek" unicode="&#x104;" horiz-adv-x="1482" 
d="M-63 0l778 1434h381l270 -1434h-45l-129 -76q-88 -56 -120 -93.5t-32 -76.5t27.5 -60.5t75.5 -21.5q59 0 127 33l-33 -184q-66 -25 -141 -25q-128 0 -200.5 64t-72.5 155q0 170 234 287l8 4l-66 367h-548l-197 -373h-317zM584 621h372l-94 528z" />
    <glyph glyph-name="aogonek" unicode="&#x105;" horiz-adv-x="1120" 
d="M369 -31q-145 0 -235.5 72.5t-90.5 204.5q0 127 90.5 218t272.5 122l342 59l4 23q14 81 -27.5 129.5t-128.5 48.5q-128 0 -240 -125l-184 153q71 87 186 143t254 56q154 0 252 -60.5t131.5 -164t8.5 -240.5l-109 -608l-129 -76q-88 -56 -120 -93.5t-32 -76.5t27.5 -60.5
t75.5 -21.5q59 0 127 33l-33 -184q-66 -25 -141 -25q-128 0 -200.5 64t-72.5 155q0 170 234 287l4 2l14 74q-106 -109 -280 -109zM307 279q0 -48 34 -75.5t97 -27.5q74 0 140 32t108 85l29 166l-256 -45q-77 -13 -114.5 -49.5t-37.5 -85.5z" />
    <glyph glyph-name="Cacute" unicode="&#x106;" horiz-adv-x="1466" 
d="M1057 1556h-273l273 277h307zM918 1475q203 0 351.5 -88t237.5 -230l-250 -166q-54 93 -145.5 151t-204.5 58q-144 0 -258 -72t-176.5 -198t-62.5 -281q0 -117 42.5 -210.5t130.5 -150.5t208 -57q205 0 372 181l205 -187q-99 -125 -258.5 -195.5t-337.5 -70.5
q-296 0 -481 181.5t-185 484.5q0 136 37.5 263.5t109.5 233.5t170 185.5t225.5 123.5t269.5 44z" />
    <glyph glyph-name="cacute" unicode="&#x107;" horiz-adv-x="1087" 
d="M801 1196h-258l264 340h293zM680 1073q148 0 259.5 -58t164.5 -147l-219 -174q-33 58 -90.5 95.5t-137.5 37.5q-140 0 -228.5 -109.5t-88.5 -262.5q0 -111 66 -180.5t174 -69.5q73 0 134.5 30.5t102.5 79.5l174 -180q-72 -81 -182 -128.5t-234 -47.5q-235 0 -372 139
t-137 357q0 169 79 310t220.5 224.5t314.5 83.5z" />
    <glyph glyph-name="Ccircumflex" unicode="&#x108;" horiz-adv-x="1466" 
d="M791 1556h-242l274 277h295l174 -277h-217l-114 152zM918 1475q203 0 351.5 -88t237.5 -230l-250 -166q-54 93 -145.5 151t-204.5 58q-144 0 -258 -72t-176.5 -198t-62.5 -281q0 -117 42.5 -210.5t130.5 -150.5t208 -57q205 0 372 181l205 -187q-99 -125 -258.5 -195.5
t-337.5 -70.5q-296 0 -481 181.5t-185 484.5q0 136 37.5 263.5t109.5 233.5t170 185.5t225.5 123.5t269.5 44z" />
    <glyph glyph-name="ccircumflex" unicode="&#x109;" horiz-adv-x="1087" 
d="M535 1196h-240l264 340h332l143 -340h-219l-102 215zM680 1073q148 0 259.5 -58t164.5 -147l-219 -174q-33 58 -90.5 95.5t-137.5 37.5q-140 0 -228.5 -109.5t-88.5 -262.5q0 -111 66 -180.5t174 -69.5q73 0 134.5 30.5t102.5 79.5l174 -180q-72 -81 -182 -128.5
t-234 -47.5q-235 0 -372 139t-137 357q0 169 79 310t220.5 224.5t314.5 83.5z" />
    <glyph glyph-name="Cdotaccent" unicode="&#x10a;" horiz-adv-x="1466" 
d="M946 1559q-59 0 -102 42.5t-43 102.5q0 58 43 100.5t102 42.5q60 0 104 -42.5t44 -100.5q0 -60 -44 -102.5t-104 -42.5zM918 1475q203 0 351.5 -88t237.5 -230l-250 -166q-54 93 -145.5 151t-204.5 58q-144 0 -258 -72t-176.5 -198t-62.5 -281q0 -117 42.5 -210.5
t130.5 -150.5t208 -57q205 0 372 181l205 -187q-99 -125 -258.5 -195.5t-337.5 -70.5q-296 0 -481 181.5t-185 484.5q0 136 37.5 263.5t109.5 233.5t170 185.5t225.5 123.5t269.5 44z" />
    <glyph glyph-name="cdotaccent" unicode="&#x10b;" horiz-adv-x="1087" 
d="M721 1212q-70 0 -122 50t-52 118q0 69 52 120.5t122 51.5q68 0 119 -51.5t51 -120.5q0 -67 -51 -117.5t-119 -50.5zM680 1073q148 0 259.5 -58t164.5 -147l-219 -174q-33 58 -90.5 95.5t-137.5 37.5q-140 0 -228.5 -109.5t-88.5 -262.5q0 -111 66 -180.5t174 -69.5
q73 0 134.5 30.5t102.5 79.5l174 -180q-72 -81 -182 -128.5t-234 -47.5q-235 0 -372 139t-137 357q0 169 79 310t220.5 224.5t314.5 83.5z" />
    <glyph glyph-name="Ccaron" unicode="&#x10c;" horiz-adv-x="1466" 
d="M815 1833l115 -152l168 152h243l-270 -277h-297l-176 277h217zM918 1475q203 0 351.5 -88t237.5 -230l-250 -166q-54 93 -145.5 151t-204.5 58q-144 0 -258 -72t-176.5 -198t-62.5 -281q0 -117 42.5 -210.5t130.5 -150.5t208 -57q205 0 372 181l205 -187
q-99 -125 -258.5 -195.5t-337.5 -70.5q-296 0 -481 181.5t-185 484.5q0 136 37.5 263.5t109.5 233.5t170 185.5t225.5 123.5t269.5 44z" />
    <glyph glyph-name="ccaron" unicode="&#x10d;" horiz-adv-x="1087" 
d="M594 1536l100 -215l178 215h242l-264 -340h-334l-143 340h221zM680 1073q148 0 259.5 -58t164.5 -147l-219 -174q-33 58 -90.5 95.5t-137.5 37.5q-140 0 -228.5 -109.5t-88.5 -262.5q0 -111 66 -180.5t174 -69.5q73 0 134.5 30.5t102.5 79.5l174 -180
q-72 -81 -182 -128.5t-234 -47.5q-235 0 -372 139t-137 357q0 169 79 310t220.5 224.5t314.5 83.5z" />
    <glyph glyph-name="Dcaron" unicode="&#x10e;" horiz-adv-x="1576" 
d="M866 1833l115 -152l168 152h244l-271 -277h-297l-176 277h217zM113 0l254 1434h415q225 0 395 -77t265.5 -225.5t95.5 -351.5q0 -155 -59.5 -296t-166 -248.5t-268 -171.5t-352.5 -64h-579zM782 1169h-172l-159 -905h241q122 0 224 38.5t171 105.5t107.5 159.5
t38.5 198.5q0 186 -119 294.5t-332 108.5z" />
    <glyph glyph-name="dcaron" unicode="&#x10f;" horiz-adv-x="1302" 
d="M68 446q0 121 41 234.5t114 201t181.5 140t234.5 51.5q201 0 330 -129l104 592h262l-270 -1536h-262l12 76q-135 -117 -303 -117q-216 0 -330 132t-114 355zM1542 1155h-219l236 381h268zM342 463q0 -115 67 -186.5t183 -71.5q168 0 270 135l56 315q-75 172 -259 172
q-141 0 -229 -105.5t-88 -258.5z" />
    <glyph glyph-name="Dcroat" unicode="&#x110;" horiz-adv-x="1576" 
d="M113 0l112 635h-202l32 192h205l107 607h415q225 0 395 -77t265.5 -225.5t95.5 -351.5q0 -155 -59.5 -296t-166 -248.5t-268 -171.5t-352.5 -64h-579zM782 1169h-172l-59 -342h321l-34 -192h-322l-65 -371h241q122 0 224 38.5t171 105.5t107.5 159.5t38.5 198.5
q0 186 -119 294.5t-332 108.5z" />
    <glyph glyph-name="dcroat" unicode="&#x111;" horiz-adv-x="1302" 
d="M68 446q0 121 41 234.5t114 201t181.5 140t234.5 51.5q201 0 330 -129l39 225h-367l33 193h368l31 174h262l-30 -174h147l-35 -193h-147l-205 -1169h-262l12 76q-135 -117 -303 -117q-216 0 -330 132t-114 355zM342 463q0 -115 67 -186.5t183 -71.5q168 0 270 135l56 315
q-75 172 -259 172q-141 0 -229 -105.5t-88 -258.5z" />
    <glyph glyph-name="Emacron" unicode="&#x112;" horiz-adv-x="1161" 
d="M436 1606l33 190h702l-32 -190h-703zM113 0l254 1434h815l-41 -242h-527l-59 -340h444l-41 -242h-446l-66 -368h525l-41 -242h-817z" />
    <glyph glyph-name="emacron" unicode="&#x113;" horiz-adv-x="1146" 
d="M358 1270l33 192h703l-33 -192h-703zM573 -41q-234 0 -368.5 138.5t-134.5 357.5q0 171 67.5 310.5t199.5 223.5t306 84q191 0 316.5 -113t125.5 -290q0 -50 -12.5 -109.5t-30.5 -97.5h-706v-8q0 -132 65.5 -197t190.5 -65q169 0 278 135l170 -168q-83 -95 -204.5 -148
t-262.5 -53zM639 860q-103 0 -171.5 -56t-102.5 -153h464q11 82 -38.5 145.5t-151.5 63.5z" />
    <glyph glyph-name="Ebreve" unicode="&#x114;" horiz-adv-x="1161" 
d="M809 1712q140 0 172 121h219q-25 -147 -126 -222t-269 -75q-177 0 -275 79.5t-75 217.5h204q-5 -59 30.5 -90t119.5 -31zM113 0l254 1434h815l-41 -242h-527l-59 -340h444l-41 -242h-446l-66 -368h525l-41 -242h-817z" />
    <glyph glyph-name="ebreve" unicode="&#x115;" horiz-adv-x="1146" 
d="M745 1372q142 0 170 164h218q-26 -169 -127.5 -254.5t-274.5 -85.5q-165 0 -257.5 92t-65.5 248h204q-20 -164 133 -164zM573 -41q-234 0 -368.5 138.5t-134.5 357.5q0 171 67.5 310.5t199.5 223.5t306 84q191 0 316.5 -113t125.5 -290q0 -50 -12.5 -109.5t-30.5 -97.5
h-706v-8q0 -132 65.5 -197t190.5 -65q169 0 278 135l170 -168q-83 -95 -204.5 -148t-262.5 -53zM639 860q-103 0 -171.5 -56t-102.5 -153h464q11 82 -38.5 145.5t-151.5 63.5z" />
    <glyph glyph-name="Edotaccent" unicode="&#x116;" horiz-adv-x="1161" 
d="M803 1559q-59 0 -102.5 42.5t-43.5 102.5q0 58 43.5 100.5t102.5 42.5q60 0 103.5 -42.5t43.5 -100.5q0 -60 -43.5 -102.5t-103.5 -42.5zM113 0l254 1434h815l-41 -242h-527l-59 -340h444l-41 -242h-446l-66 -368h525l-41 -242h-817z" />
    <glyph glyph-name="edotaccent" unicode="&#x117;" horiz-adv-x="1146" 
d="M743 1212q-70 0 -122 50t-52 118q0 69 52 120.5t122 51.5q68 0 119 -51.5t51 -120.5q0 -67 -51 -117.5t-119 -50.5zM573 -41q-234 0 -368.5 138.5t-134.5 357.5q0 171 67.5 310.5t199.5 223.5t306 84q191 0 316.5 -113t125.5 -290q0 -50 -12.5 -109.5t-30.5 -97.5h-706
v-8q0 -132 65.5 -197t190.5 -65q169 0 278 135l170 -168q-83 -95 -204.5 -148t-262.5 -53zM639 860q-103 0 -171.5 -56t-102.5 -153h464q11 82 -38.5 145.5t-151.5 63.5z" />
    <glyph glyph-name="Eogonek" unicode="&#x118;" horiz-adv-x="1161" 
d="M113 0l254 1434h815l-41 -242h-527l-59 -340h444l-41 -242h-446l-66 -368h525l-41 -242h-2l-129 -76q-88 -56 -120 -93.5t-32 -76.5t27.5 -60.5t75.5 -21.5q59 0 127 33l-33 -184q-66 -25 -142 -25q-128 0 -200 64t-72 155q0 171 229 285h-546z" />
    <glyph glyph-name="eogonek" unicode="&#x119;" horiz-adv-x="1146" 
d="M291 -285q0 147 172 252q-186 33 -289.5 165t-103.5 323q0 171 67.5 310.5t199.5 223.5t306 84q191 0 316.5 -113t125.5 -290q0 -50 -12.5 -109.5t-30.5 -97.5h-706v-8q0 -132 65.5 -197t190.5 -65q169 0 278 135l170 -168q-109 -124 -276 -174l-105 -62
q-88 -56 -119.5 -93.5t-31.5 -76.5t27 -60.5t75 -21.5q59 0 127 33l-32 -184q-66 -25 -142 -25q-128 0 -200 64t-72 155zM639 860q-103 0 -171.5 -56t-102.5 -153h464q11 82 -38.5 145.5t-151.5 63.5z" />
    <glyph glyph-name="Ecaron" unicode="&#x11a;" horiz-adv-x="1161" 
d="M672 1833l114 -152l168 152h244l-270 -277h-297l-176 277h217zM113 0l254 1434h815l-41 -242h-527l-59 -340h444l-41 -242h-446l-66 -368h525l-41 -242h-817z" />
    <glyph glyph-name="ecaron" unicode="&#x11b;" horiz-adv-x="1146" 
d="M616 1536l101 -215l178 215h242l-265 -340h-333l-144 340h221zM573 -41q-234 0 -368.5 138.5t-134.5 357.5q0 171 67.5 310.5t199.5 223.5t306 84q191 0 316.5 -113t125.5 -290q0 -50 -12.5 -109.5t-30.5 -97.5h-706v-8q0 -132 65.5 -197t190.5 -65q169 0 278 135
l170 -168q-83 -95 -204.5 -148t-262.5 -53zM639 860q-103 0 -171.5 -56t-102.5 -153h464q11 82 -38.5 145.5t-151.5 63.5z" />
    <glyph glyph-name="Gcircumflex" unicode="&#x11c;" horiz-adv-x="1576" 
d="M821 1556h-241l274 277h295l174 -277h-217l-115 152zM774 -41q-296 0 -479.5 181.5t-183.5 484.5q0 136 38 263.5t110.5 233.5t171.5 185.5t228 123.5t273 44q203 0 348.5 -87t235.5 -229l-250 -166q-54 92 -145.5 149.5t-207.5 57.5q-219 0 -360 -157t-141 -394
q0 -180 101.5 -299t279.5 -119q194 0 342 119l43 254h-351l43 250h643l-110 -627q-109 -122 -275.5 -195t-353.5 -73z" />
    <glyph glyph-name="gcircumflex" unicode="&#x11d;" horiz-adv-x="1110" 
d="M465 1196h-240l264 340h332l144 -340h-220l-102 215zM-76 -193q0 175 195 277q-45 58 -45 121q0 71 39.5 126t122.5 103q-105 92 -105 246q0 79 29.5 149.5t83.5 125t137.5 86.5t185.5 32q124 0 211 -41h387l-39 -221h-174q6 -35 6 -70q0 -79 -29 -150.5t-83 -126.5
t-137 -87.5t-185 -32.5q-76 0 -131 14q-67 -42 -67 -84q0 -49 57 -49h207q194 0 293.5 -87t99.5 -232q0 -86 -38 -161t-108.5 -133t-181.5 -91t-249 -33q-237 0 -359.5 84t-122.5 235zM721 735q0 63 -42 103.5t-114 40.5q-87 0 -140.5 -55.5t-53.5 -139.5q0 -63 40.5 -103
t112.5 -40q88 0 142.5 55.5t54.5 138.5zM182 -156q0 -147 236 -147q153 0 226 50.5t73 129.5q0 125 -152 125h-272q-58 -30 -84.5 -72t-26.5 -86z" />
    <glyph glyph-name="Gbreve" unicode="&#x11e;" horiz-adv-x="1576" 
d="M983 1712q140 0 172 121h219q-25 -147 -126 -222t-269 -75q-177 0 -275 79.5t-75 217.5h205q-5 -59 30.5 -90t118.5 -31zM774 -41q-296 0 -479.5 181.5t-183.5 484.5q0 136 38 263.5t110.5 233.5t171.5 185.5t228 123.5t273 44q203 0 348.5 -87t235.5 -229l-250 -166
q-54 92 -145.5 149.5t-207.5 57.5q-219 0 -360 -157t-141 -394q0 -180 101.5 -299t279.5 -119q194 0 342 119l43 254h-351l43 250h643l-110 -627q-109 -122 -275.5 -195t-353.5 -73z" />
    <glyph glyph-name="gbreve" unicode="&#x11f;" horiz-adv-x="1110" 
d="M653 1372q142 0 170 164h217q-52 -340 -401 -340q-165 0 -258 92t-66 248h205q-20 -164 133 -164zM-76 -193q0 175 195 277q-45 58 -45 121q0 71 39.5 126t122.5 103q-105 92 -105 246q0 79 29.5 149.5t83.5 125t137.5 86.5t185.5 32q124 0 211 -41h387l-39 -221h-174
q6 -35 6 -70q0 -79 -29 -150.5t-83 -126.5t-137 -87.5t-185 -32.5q-76 0 -131 14q-67 -42 -67 -84q0 -49 57 -49h207q194 0 293.5 -87t99.5 -232q0 -86 -38 -161t-108.5 -133t-181.5 -91t-249 -33q-237 0 -359.5 84t-122.5 235zM721 735q0 63 -42 103.5t-114 40.5
q-87 0 -140.5 -55.5t-53.5 -139.5q0 -63 40.5 -103t112.5 -40q88 0 142.5 55.5t54.5 138.5zM182 -156q0 -147 236 -147q153 0 226 50.5t73 129.5q0 125 -152 125h-272q-58 -30 -84.5 -72t-26.5 -86z" />
    <glyph glyph-name="Gdotaccent" unicode="&#x120;" horiz-adv-x="1576" 
d="M977 1559q-59 0 -102.5 42.5t-43.5 102.5q0 58 43.5 100.5t102.5 42.5q60 0 103.5 -42.5t43.5 -100.5q0 -60 -43.5 -102.5t-103.5 -42.5zM774 -41q-296 0 -479.5 181.5t-183.5 484.5q0 136 38 263.5t110.5 233.5t171.5 185.5t228 123.5t273 44q203 0 348.5 -87
t235.5 -229l-250 -166q-54 92 -145.5 149.5t-207.5 57.5q-219 0 -360 -157t-141 -394q0 -180 101.5 -299t279.5 -119q194 0 342 119l43 254h-351l43 250h643l-110 -627q-109 -122 -275.5 -195t-353.5 -73z" />
    <glyph glyph-name="gdotaccent" unicode="&#x121;" horiz-adv-x="1110" 
d="M651 1212q-70 0 -122 50t-52 118q0 69 52 120.5t122 51.5q68 0 119 -51.5t51 -120.5q0 -67 -51 -117.5t-119 -50.5zM-76 -193q0 175 195 277q-45 58 -45 121q0 71 39.5 126t122.5 103q-105 92 -105 246q0 79 29.5 149.5t83.5 125t137.5 86.5t185.5 32q124 0 211 -41h387
l-39 -221h-174q6 -35 6 -70q0 -79 -29 -150.5t-83 -126.5t-137 -87.5t-185 -32.5q-76 0 -131 14q-67 -42 -67 -84q0 -49 57 -49h207q194 0 293.5 -87t99.5 -232q0 -86 -38 -161t-108.5 -133t-181.5 -91t-249 -33q-237 0 -359.5 84t-122.5 235zM721 735q0 63 -42 103.5
t-114 40.5q-87 0 -140.5 -55.5t-53.5 -139.5q0 -63 40.5 -103t112.5 -40q88 0 142.5 55.5t54.5 138.5zM182 -156q0 -147 236 -147q153 0 226 50.5t73 129.5q0 125 -152 125h-272q-58 -30 -84.5 -72t-26.5 -86z" />
    <glyph glyph-name="Gcedilla" unicode="&#x122;" horiz-adv-x="1576" 
d="M774 -41q-296 0 -479.5 181.5t-183.5 484.5q0 136 38 263.5t110.5 233.5t171.5 185.5t228 123.5t273 44q203 0 348.5 -87t235.5 -229l-250 -166q-54 92 -145.5 149.5t-207.5 57.5q-219 0 -360 -157t-141 -394q0 -180 101.5 -299t279.5 -119q194 0 342 119l43 254h-351
l43 250h643l-110 -627q-109 -122 -275.5 -195t-353.5 -73zM584 -504h-258l264 340h293z" />
    <glyph glyph-name="gcedilla" unicode="&#x123;" horiz-adv-x="1110" 
d="M754 1536h258l-267 -340h-290zM-76 -193q0 175 195 277q-45 58 -45 121q0 71 39.5 126t122.5 103q-105 92 -105 246q0 79 29.5 149.5t83.5 125t137.5 86.5t185.5 32q124 0 211 -41h387l-39 -221h-174q6 -35 6 -70q0 -79 -29 -150.5t-83 -126.5t-137 -87.5t-185 -32.5
q-76 0 -131 14q-67 -42 -67 -84q0 -49 57 -49h207q194 0 293.5 -87t99.5 -232q0 -86 -38 -161t-108.5 -133t-181.5 -91t-249 -33q-237 0 -359.5 84t-122.5 235zM721 735q0 63 -42 103.5t-114 40.5q-87 0 -140.5 -55.5t-53.5 -139.5q0 -63 40.5 -103t112.5 -40
q88 0 142.5 55.5t54.5 138.5zM182 -156q0 -147 236 -147q153 0 226 50.5t73 129.5q0 125 -152 125h-272q-58 -30 -84.5 -72t-26.5 -86z" />
    <glyph glyph-name="Hcircumflex" unicode="&#x124;" horiz-adv-x="1675" 
d="M891 1556h-242l275 277h295l174 -277h-217l-115 152zM113 0l254 1434h290l-100 -572h688l101 572h290l-254 -1434h-290l106 598h-688l-107 -598h-290z" />
    <glyph glyph-name="hcircumflex" unicode="&#x125;" horiz-adv-x="1224" 
d="M684 1659h-242l275 276h295l174 -276h-217l-115 151zM57 0l271 1536h262l-103 -578q132 115 291 115q181 0 273.5 -119t54.5 -340l-107 -614h-262l107 604q19 103 -22.5 163t-133.5 60q-82 0 -145.5 -45t-104.5 -108l-2 2l-119 -676h-260z" />
    <glyph glyph-name="Hbar" unicode="&#x126;" horiz-adv-x="1675" 
d="M113 0l184 1040h-203l33 195h205l35 199h290l-34 -199h688l35 199h290l-34 -199h202l-35 -195h-202l-185 -1040h-290l106 598h-688l-107 -598h-290zM557 862h688l31 178h-688z" />
    <glyph glyph-name="hbar" unicode="&#x127;" horiz-adv-x="1224" 
d="M57 0l205 1169h-145l33 193h147l31 174h262l-31 -174h350l-35 -193h-350l-37 -211q132 115 291 115q181 0 273.5 -119t54.5 -340l-107 -614h-262l107 604q19 103 -22.5 163t-133.5 60q-82 0 -145.5 -45t-104.5 -108l-2 2l-119 -676h-260z" />
    <glyph glyph-name="Itilde" unicode="&#x128;" horiz-adv-x="696" 
d="M166 1563l10 63q13 107 75 164t146 57q55 0 104 -20.5t77.5 -45t58.5 -45t51 -20.5q44 0 57 62l9 49h192l-8 -64q-14 -108 -75.5 -164.5t-145.5 -56.5q-56 0 -106 20.5t-79 45t-58.5 45t-49.5 20.5q-42 0 -55 -61l-9 -49h-194zM113 0l254 1434h290l-254 -1434h-290z" />
    <glyph glyph-name="itilde" unicode="&#x129;" horiz-adv-x="557" 
d="M207 1206h-184l8 72q15 129 76.5 195.5t154.5 66.5q58 0 109.5 -24.5t82.5 -54.5t64.5 -54.5t59.5 -24.5q55 0 65 66l8 78h185l-9 -72q-15 -129 -76 -195.5t-153 -66.5q-48 0 -90.5 16.5t-73 39.5t-56.5 46t-50.5 39.5t-46.5 16.5q-54 0 -64 -66zM57 0l183 1032h260
l-183 -1032h-260z" />
    <glyph glyph-name="Imacron" unicode="&#x12a;" horiz-adv-x="696" 
d="M190 1606l33 190h703l-33 -190h-703zM113 0l254 1434h290l-254 -1434h-290z" />
    <glyph glyph-name="imacron" unicode="&#x12b;" horiz-adv-x="557" 
d="M61 1270l33 192h703l-33 -192h-703zM57 0l183 1032h260l-183 -1032h-260z" />
    <glyph glyph-name="Ibreve" unicode="&#x12c;" horiz-adv-x="696" 
d="M563 1712q140 0 172 121h219q-25 -147 -126 -222t-269 -75q-177 0 -275 79.5t-75 217.5h205q-5 -59 30.5 -90t118.5 -31zM113 0l254 1434h290l-254 -1434h-290z" />
    <glyph glyph-name="ibreve" unicode="&#x12d;" horiz-adv-x="557" 
d="M449 1372q141 0 169 164h218q-26 -169 -127.5 -254.5t-274.5 -85.5q-165 0 -257.5 92t-65.5 248h204q-20 -164 134 -164zM57 0l183 1032h260l-183 -1032h-260z" />
    <glyph glyph-name="Iogonek" unicode="&#x12e;" horiz-adv-x="696" 
d="M113 0l254 1434h290l-254 -1434l-129 -76q-88 -56 -119.5 -93.5t-31.5 -76.5t27 -60.5t75 -21.5q59 0 127 33l-33 -184q-66 -25 -141 -25q-128 0 -200 64t-72 155q0 171 229 285h-22z" />
    <glyph glyph-name="iogonek" unicode="&#x12f;" horiz-adv-x="557" 
d="M430 1212q-69 0 -119.5 50.5t-50.5 119.5t50.5 119.5t119.5 50.5t118.5 -50.5t49.5 -119.5t-49.5 -119.5t-118.5 -50.5zM-180 -285q0 171 233 287l4 2l183 1028h260l-183 -1032l-129 -76q-88 -56 -119.5 -93.5t-31.5 -76.5t27 -60.5t75 -21.5q59 0 127 33l-33 -184
q-66 -25 -141 -25q-128 0 -200 64t-72 155z" />
    <glyph glyph-name="Idotaccent" unicode="&#x130;" horiz-adv-x="696" 
d="M557 1559q-59 0 -102 42.5t-43 102.5q0 58 43 100.5t102 42.5q60 0 104 -42.5t44 -100.5q0 -60 -44 -102.5t-104 -42.5zM113 0l254 1434h290l-254 -1434h-290z" />
    <glyph glyph-name="dotlessi" unicode="&#x131;" horiz-adv-x="557" 
d="M57 0l183 1032h260l-183 -1032h-260z" />
    <glyph glyph-name="IJ" unicode="&#x132;" horiz-adv-x="1415" 
d="M113 0l254 1434h290l-254 -1434h-290zM1126 33q-70 -389 -430 -389q-116 0 -184 28l45 246q50 -16 107 -16q81 0 122.5 37.5t61.5 154.5l235 1340h291z" />
    <glyph glyph-name="ij" unicode="&#x133;" horiz-adv-x="1114" 
d="M430 1212q-69 0 -119.5 50.5t-50.5 119.5t50.5 119.5t119.5 50.5t118.5 -50.5t49.5 -119.5t-49.5 -119.5t-118.5 -50.5zM987 1212q-70 0 -121 50.5t-51 119.5t51 119.5t121 50.5q68 0 118 -50.5t50 -119.5t-50 -119.5t-118 -50.5zM57 0l183 1032h260l-183 -1032h-260z
M854 -119q-37 -213 -135 -303t-262 -90q-145 0 -230 45l39 225q73 -32 148 -32q78 0 122 35t58 124l203 1147h260z" />
    <glyph glyph-name="Jcircumflex" unicode="&#x134;" horiz-adv-x="718" 
d="M424 1556h-242l275 277h295l174 -277h-217l-115 152zM430 33q-70 -389 -430 -389q-116 0 -184 28l45 246q50 -16 106 -16q81 0 123 37.5t62 154.5l235 1340h291z" />
    <glyph glyph-name="jcircumflex" unicode="&#x135;" horiz-adv-x="557" 
d="M260 1196h-240l265 340h331l144 -340h-219l-103 215zM297 -119q-37 -213 -135 -303t-262 -90q-145 0 -230 45l39 225q73 -32 148 -32q78 0 122 35t58 124l203 1147h260z" />
    <glyph glyph-name="Kcedilla" unicode="&#x136;" horiz-adv-x="1490" 
d="M113 0l254 1434h290l-108 -611l680 611h379l-686 -611l432 -823h-338l-318 627l-219 -197l-76 -430h-290zM528 -504h-258l265 340h292z" />
    <glyph glyph-name="kcedilla" unicode="&#x137;" horiz-adv-x="1107" 
d="M61 0l271 1536h262l-156 -889l410 385h342l-483 -446l297 -586h-293l-201 401l-139 -129l-47 -272h-263zM354 -504h-258l264 340h293z" />
    <glyph glyph-name="kra" unicode="&#x138;" horiz-adv-x="1107" 
d="M61 0l183 1032h262l-68 -385l412 385h340l-483 -448l297 -584h-293l-201 401l-137 -127l-49 -274h-263z" />
    <glyph glyph-name="Lacute" unicode="&#x139;" horiz-adv-x="1081" 
d="M668 1556h-273l273 277h307zM113 0l254 1434h290l-206 -1170h524l-45 -264h-817z" />
    <glyph glyph-name="lacute" unicode="&#x13a;" horiz-adv-x="557" 
d="M616 1659h-272l272 276h308zM57 0l271 1536h262l-273 -1536h-260z" />
    <glyph glyph-name="Lcedilla" unicode="&#x13b;" horiz-adv-x="1081" 
d="M113 0l254 1434h290l-206 -1170h524l-45 -264h-817zM377 -504h-258l264 340h293z" />
    <glyph glyph-name="lcedilla" unicode="&#x13c;" horiz-adv-x="557" 
d="M57 0l271 1536h262l-273 -1536h-260zM14 -504h-258l264 340h293z" />
    <glyph glyph-name="Lcaron" unicode="&#x13d;" horiz-adv-x="1081" 
d="M113 0l254 1434h290l-206 -1170h524l-45 -264h-817zM864 1053h-219l236 381h268z" />
    <glyph glyph-name="lcaron" unicode="&#x13e;" horiz-adv-x="557" 
d="M57 0l271 1536h262l-273 -1536h-260zM795 1155h-220l236 381h268z" />
    <glyph glyph-name="Ldot" unicode="&#x13f;" horiz-adv-x="1081" 
d="M113 0l254 1434h290l-206 -1170h524l-45 -264h-817zM938 586q-75 0 -127.5 52t-52.5 126q0 72 53 125t127 53q72 0 125 -53t53 -125q0 -73 -53 -125.5t-125 -52.5z" />
    <glyph glyph-name="ldot" unicode="&#x140;" horiz-adv-x="884" 
d="M57 0l271 1536h262l-273 -1536h-260zM725 342q-75 0 -127.5 52t-52.5 126q0 72 52.5 125t127.5 53q72 0 125 -53t53 -125q0 -73 -53 -125.5t-125 -52.5z" />
    <glyph glyph-name="Lslash" unicode="&#x141;" horiz-adv-x="1081" 
d="M113 0l88 500l-221 -111l40 227l222 111l125 707h290l-96 -547l273 137l-39 -227l-275 -138l-69 -395h524l-45 -264h-817z" />
    <glyph glyph-name="lslash" unicode="&#x142;" horiz-adv-x="557" 
d="M57 0l105 596l-162 -82l39 211l160 80l129 731h262l-105 -586l164 82l-39 -211l-161 -82l-132 -739h-260z" />
    <glyph glyph-name="Nacute" unicode="&#x143;" horiz-adv-x="1675" 
d="M1157 1556h-272l272 277h307zM113 0l254 1434h368l424 -1051l187 1051h290l-254 -1434h-370l-422 1049l-187 -1049h-290z" />
    <glyph glyph-name="nacute" unicode="&#x144;" horiz-adv-x="1224" 
d="M860 1196h-258l264 340h293zM57 0l183 1032h260l-13 -76q131 117 291 117q181 0 273.5 -119t54.5 -340l-107 -614h-262l107 604q19 104 -22 163.5t-134 59.5q-82 0 -145.5 -45t-104.5 -108l-2 2l-119 -676h-260z" />
    <glyph glyph-name="Ncedilla" unicode="&#x145;" horiz-adv-x="1675" 
d="M113 0l254 1434h368l424 -1051l187 1051h290l-254 -1434h-370l-422 1049l-187 -1049h-290zM588 -504h-258l264 340h293z" />
    <glyph glyph-name="ncedilla" unicode="&#x146;" horiz-adv-x="1224" 
d="M57 0l183 1032h260l-13 -76q131 117 291 117q181 0 273.5 -119t54.5 -340l-107 -614h-262l107 604q19 104 -22 163.5t-134 59.5q-82 0 -145.5 -45t-104.5 -108l-2 2l-119 -676h-260zM369 -504h-258l264 340h293z" />
    <glyph glyph-name="Ncaron" unicode="&#x147;" horiz-adv-x="1675" 
d="M915 1833l115 -152l168 152h244l-271 -277h-297l-176 277h217zM113 0l254 1434h368l424 -1051l187 1051h290l-254 -1434h-370l-422 1049l-187 -1049h-290z" />
    <glyph glyph-name="ncaron" unicode="&#x148;" horiz-adv-x="1224" 
d="M653 1536l101 -215l178 215h242l-265 -340h-334l-143 340h221zM57 0l183 1032h260l-13 -76q131 117 291 117q181 0 273.5 -119t54.5 -340l-107 -614h-262l107 604q19 104 -22 163.5t-134 59.5q-82 0 -145.5 -45t-104.5 -108l-2 2l-119 -676h-260z" />
    <glyph glyph-name="napostrophe" unicode="&#x149;" horiz-adv-x="1777" 
d="M344 844h-252l285 590h303zM610 0l183 1032h260l-13 -76q131 117 291 117q181 0 273.5 -119t54.5 -340l-107 -614h-262l107 604q19 104 -22 163.5t-134 59.5q-82 0 -145.5 -45t-104.5 -108l-2 2l-119 -676h-260z" />
    <glyph glyph-name="Eng" unicode="&#x14a;" horiz-adv-x="1675" 
d="M113 0l254 1434h368l449 -918l164 918h290l-249 -1411q-70 -390 -431 -390q-49 0 -102.5 8.5t-81.5 20.5l45 246q47 -19 105 -19q76 0 117 33.5t61 132.5l-504 1041l-195 -1096h-290z" />
    <glyph glyph-name="eng" unicode="&#x14b;" horiz-adv-x="1224" 
d="M57 0l183 1032h260l-13 -76q131 117 291 117q181 0 273.5 -119t54.5 -340l-127 -733q-38 -213 -135.5 -303t-261.5 -90q-147 0 -232 45l39 225q73 -32 150 -32t120.5 35t57.5 124l127 719q19 103 -22.5 163t-133.5 60q-82 0 -145.5 -45t-104.5 -108l-2 2l-119 -676h-260z
" />
    <glyph glyph-name="Omacron" unicode="&#x14c;" horiz-adv-x="1644" 
d="M659 1606l33 190h703l-33 -190h-703zM926 1475q198 0 353 -80.5t243 -233t88 -352.5q0 -136 -38 -263.5t-111 -233.5t-172 -185.5t-228 -123.5t-273 -44q-197 0 -351.5 80.5t-242.5 233t-88 352.5q0 170 60.5 325.5t166.5 271.5t260.5 184.5t332.5 68.5zM799 231
q222 0 365 158t143 395q0 117 -44 210.5t-133.5 150.5t-211.5 57q-222 0 -365 -158t-143 -395q0 -117 44 -210.5t133.5 -150.5t211.5 -57z" />
    <glyph glyph-name="omacron" unicode="&#x14d;" horiz-adv-x="1253" 
d="M410 1270l32 192h703l-33 -192h-702zM680 1073q233 0 370.5 -138.5t137.5 -356.5q0 -122 -43 -234t-120.5 -197.5t-193.5 -136.5t-253 -51q-235 0 -372.5 139t-137.5 357q0 122 43.5 234t120.5 197.5t194 136t254 50.5zM584 205q148 0 238.5 109.5t90.5 263.5
q0 110 -68 179.5t-175 69.5q-148 0 -238 -109t-90 -263q0 -110 67.5 -180t174.5 -70z" />
    <glyph glyph-name="Obreve" unicode="&#x14e;" horiz-adv-x="1644" 
d="M1032 1712q140 0 172 121h219q-25 -147 -126 -222t-269 -75q-177 0 -275 79.5t-75 217.5h205q-5 -59 30.5 -90t118.5 -31zM926 1475q198 0 353 -80.5t243 -233t88 -352.5q0 -136 -38 -263.5t-111 -233.5t-172 -185.5t-228 -123.5t-273 -44q-197 0 -351.5 80.5t-242.5 233
t-88 352.5q0 170 60.5 325.5t166.5 271.5t260.5 184.5t332.5 68.5zM799 231q222 0 365 158t143 395q0 117 -44 210.5t-133.5 150.5t-211.5 57q-222 0 -365 -158t-143 -395q0 -117 44 -210.5t133.5 -150.5t211.5 -57z" />
    <glyph glyph-name="obreve" unicode="&#x14f;" horiz-adv-x="1253" 
d="M797 1372q142 0 170 164h217q-26 -169 -127.5 -254.5t-274.5 -85.5q-165 0 -257.5 92t-65.5 248h205q-20 -164 133 -164zM680 1073q233 0 370.5 -138.5t137.5 -356.5q0 -122 -43 -234t-120.5 -197.5t-193.5 -136.5t-253 -51q-235 0 -372.5 139t-137.5 357q0 122 43.5 234
t120.5 197.5t194 136t254 50.5zM584 205q148 0 238.5 109.5t90.5 263.5q0 110 -68 179.5t-175 69.5q-148 0 -238 -109t-90 -263q0 -110 67.5 -180t174.5 -70z" />
    <glyph glyph-name="Ohungarumlaut" unicode="&#x150;" horiz-adv-x="1644" 
d="M911 1556h-274l274 277h310zM1358 1556h-275l273 277h309zM926 1475q198 0 353 -80.5t243 -233t88 -352.5q0 -136 -38 -263.5t-111 -233.5t-172 -185.5t-228 -123.5t-273 -44q-197 0 -351.5 80.5t-242.5 233t-88 352.5q0 170 60.5 325.5t166.5 271.5t260.5 184.5
t332.5 68.5zM799 231q222 0 365 158t143 395q0 117 -44 210.5t-133.5 150.5t-211.5 57q-222 0 -365 -158t-143 -395q0 -117 44 -210.5t133.5 -150.5t211.5 -57z" />
    <glyph glyph-name="ohungarumlaut" unicode="&#x151;" horiz-adv-x="1253" 
d="M676 1196h-258l268 340h289zM1065 1196h-254l264 340h289zM680 1073q233 0 370.5 -138.5t137.5 -356.5q0 -122 -43 -234t-120.5 -197.5t-193.5 -136.5t-253 -51q-235 0 -372.5 139t-137.5 357q0 122 43.5 234t120.5 197.5t194 136t254 50.5zM584 205q148 0 238.5 109.5
t90.5 263.5q0 110 -68 179.5t-175 69.5q-148 0 -238 -109t-90 -263q0 -110 67.5 -180t174.5 -70z" />
    <glyph glyph-name="OE" unicode="&#x152;" horiz-adv-x="2039" 
d="M111 653q0 171 60.5 315.5t170 247t267 160.5t345.5 58h1106l-43 -242h-526l-59 -340h446l-43 -242h-446l-64 -368h524l-41 -242h-942q-225 0 -394.5 76.5t-265 225t-95.5 351.5zM866 242h168l166 950h-246q-243 0 -391.5 -148.5t-148.5 -375.5q0 -197 119.5 -311.5
t332.5 -114.5z" />
    <glyph glyph-name="oe" unicode="&#x153;" horiz-adv-x="1961" 
d="M672 1073q257 0 391 -180q74 85 179 132.5t233 47.5q188 0 308 -112.5t120 -290.5q0 -50 -12.5 -109.5t-30.5 -97.5h-707v-8q0 -132 65.5 -197t190.5 -65q170 0 279 135l172 -168q-84 -94 -202 -147.5t-255 -53.5q-135 0 -238 50.5t-168 142.5q-80 -90 -190.5 -141.5
t-239.5 -51.5q-231 0 -366 138.5t-135 357.5q0 122 45 234t123 197t192.5 136t245.5 51zM1462 860q-99 0 -169 -55t-105 -150l461 -4q12 83 -36.5 146t-150.5 63zM582 205q143 0 234 110t91 263q0 111 -65.5 180t-173.5 69q-145 0 -236.5 -109.5t-91.5 -262.5
q0 -111 66.5 -180.5t175.5 -69.5z" />
    <glyph glyph-name="Racute" unicode="&#x154;" horiz-adv-x="1333" 
d="M987 1556h-272l272 277h307zM113 0l254 1434h399q216 0 339.5 -104.5t123.5 -293.5q0 -141 -81.5 -253.5t-225.5 -166.5l333 -616h-321l-281 580h-147l-103 -580h-290zM745 1192h-131l-65 -371h151q101 0 161.5 57t60.5 148q0 79 -46 122.5t-131 43.5z" />
    <glyph glyph-name="racute" unicode="&#x155;" horiz-adv-x="806" 
d="M678 1196h-258l264 340h293zM57 0l183 1032h260l-19 -108q58 63 124 96t157 33q52 0 90 -15l-45 -256q-54 15 -98 15q-158 0 -279 -164l-113 -633h-260z" />
    <glyph glyph-name="Rcedilla" unicode="&#x156;" horiz-adv-x="1333" 
d="M113 0l254 1434h399q216 0 339.5 -104.5t123.5 -293.5q0 -141 -81.5 -253.5t-225.5 -166.5l333 -616h-321l-281 580h-147l-103 -580h-290zM745 1192h-131l-65 -371h151q101 0 161.5 57t60.5 148q0 79 -46 122.5t-131 43.5zM479 -504h-258l264 340h293z" />
    <glyph glyph-name="rcedilla" unicode="&#x157;" horiz-adv-x="806" 
d="M57 0l183 1032h260l-19 -108q58 63 124 96t157 33q52 0 90 -15l-45 -256q-54 15 -98 15q-158 0 -279 -164l-113 -633h-260zM14 -504h-258l264 340h293z" />
    <glyph glyph-name="Rcaron" unicode="&#x158;" horiz-adv-x="1333" 
d="M745 1833l115 -152l168 152h244l-271 -277h-296l-177 277h217zM113 0l254 1434h399q216 0 339.5 -104.5t123.5 -293.5q0 -141 -81.5 -253.5t-225.5 -166.5l333 -616h-321l-281 580h-147l-103 -580h-290zM745 1192h-131l-65 -371h151q101 0 161.5 57t60.5 148
q0 79 -46 122.5t-131 43.5z" />
    <glyph glyph-name="rcaron" unicode="&#x159;" horiz-adv-x="806" 
d="M471 1536l100 -215l179 215h241l-264 -340h-334l-143 340h221zM57 0l183 1032h260l-19 -108q58 63 124 96t157 33q52 0 90 -15l-45 -256q-54 15 -98 15q-158 0 -279 -164l-113 -633h-260z" />
    <glyph glyph-name="Sacute" unicode="&#x15a;" horiz-adv-x="1167" 
d="M903 1556h-272l272 277h307zM537 1073q0 -50 28 -93t72.5 -75.5t98.5 -65.5t108.5 -72.5t99 -86t72.5 -115.5t28 -153q0 -194 -138 -323.5t-357 -129.5q-333 0 -504 258l221 174q127 -176 287 -176q84 0 138 48.5t54 121.5q0 51 -28 94t-73 76.5t-99.5 66.5t-108.5 72.5
t-99 86t-73 115.5t-28 153t35.5 161.5t97 136t152.5 93.5t196 35q305 0 473 -258l-223 -173q-119 177 -265 177q-72 0 -118.5 -43.5t-46.5 -104.5z" />
    <glyph glyph-name="sacute" unicode="&#x15b;" horiz-adv-x="903" 
d="M698 1196h-258l265 340h292zM397 758q0 -33 21.5 -60t56.5 -47.5t77 -41.5t84 -48t77 -60.5t56.5 -85.5t21.5 -116t-26 -124t-74 -108.5t-123.5 -78t-166.5 -29.5q-129 0 -229.5 55t-165.5 154l187 143q89 -143 221 -143q57 0 91 33.5t34 85.5q0 33 -21.5 60t-56 47
t-76.5 41t-84 47.5t-76.5 59.5t-56 85t-21.5 116q0 135 105 232.5t280 97.5q119 0 216.5 -53t142.5 -137l-186 -142q-71 123 -181 123q-55 0 -91 -32t-36 -74z" />
    <glyph glyph-name="Scircumflex" unicode="&#x15c;" horiz-adv-x="1167" 
d="M637 1556h-242l275 277h295l174 -277h-217l-115 152zM537 1073q0 -50 28 -93t72.5 -75.5t98.5 -65.5t108.5 -72.5t99 -86t72.5 -115.5t28 -153q0 -194 -138 -323.5t-357 -129.5q-333 0 -504 258l221 174q127 -176 287 -176q84 0 138 48.5t54 121.5q0 51 -28 94t-73 76.5
t-99.5 66.5t-108.5 72.5t-99 86t-73 115.5t-28 153t35.5 161.5t97 136t152.5 93.5t196 35q305 0 473 -258l-223 -173q-119 177 -265 177q-72 0 -118.5 -43.5t-46.5 -104.5z" />
    <glyph glyph-name="scircumflex" unicode="&#x15d;" horiz-adv-x="903" 
d="M432 1196h-239l264 340h331l144 -340h-219l-103 215zM397 758q0 -33 21.5 -60t56.5 -47.5t77 -41.5t84 -48t77 -60.5t56.5 -85.5t21.5 -116t-26 -124t-74 -108.5t-123.5 -78t-166.5 -29.5q-129 0 -229.5 55t-165.5 154l187 143q89 -143 221 -143q57 0 91 33.5t34 85.5
q0 33 -21.5 60t-56 47t-76.5 41t-84 47.5t-76.5 59.5t-56 85t-21.5 116q0 135 105 232.5t280 97.5q119 0 216.5 -53t142.5 -137l-186 -142q-71 123 -181 123q-55 0 -91 -32t-36 -74z" />
    <glyph glyph-name="Scedilla" unicode="&#x15e;" horiz-adv-x="1167" 
d="M537 1073q0 -50 28 -93t72.5 -75.5t98.5 -65.5t108.5 -72.5t99 -86t72.5 -115.5t28 -153q0 -183 -124.5 -310.5t-323.5 -140.5l-70 -74q76 -9 125 -59t49 -115q0 -99 -72.5 -162t-191.5 -63q-144 0 -227 86l104 121q49 -60 115 -60q37 0 58.5 18.5t21.5 51.5q0 28 -21 46
t-55 18q-33 0 -80 -21l-59 96l119 127q-233 45 -367 246l221 174q127 -176 287 -176q84 0 138 48.5t54 121.5q0 51 -28 94t-73 76.5t-99.5 66.5t-108.5 72.5t-99 86t-73 115.5t-28 153t35.5 161.5t97 136t152.5 93.5t196 35q305 0 473 -258l-223 -173q-119 177 -265 177
q-72 0 -118.5 -43.5t-46.5 -104.5z" />
    <glyph glyph-name="scedilla" unicode="&#x15f;" horiz-adv-x="903" 
d="M397 758q0 -33 21.5 -60t56.5 -47.5t77 -41.5t84 -48t77 -60.5t56.5 -85.5t21.5 -116q0 -122 -87.5 -219.5t-238.5 -116.5l-72 -76q76 -9 125 -59t49 -115q0 -99 -72.5 -162t-191.5 -63q-144 0 -227 86l104 121q49 -60 115 -60q37 0 58.5 18.5t21.5 51.5q0 28 -21 46
t-55 18q-33 0 -80 -21l-59 96l121 129q-175 40 -275 195l187 143q89 -143 221 -143q57 0 91 33.5t34 85.5q0 33 -21.5 60t-56 47t-76.5 41t-84 47.5t-76.5 59.5t-56 85t-21.5 116q0 135 105 232.5t280 97.5q119 0 216.5 -53t142.5 -137l-186 -142q-71 123 -181 123
q-55 0 -91 -32t-36 -74z" />
    <glyph glyph-name="Scaron" unicode="&#x160;" horiz-adv-x="1167" 
d="M662 1833l114 -152l168 152h244l-270 -277h-297l-177 277h218zM537 1073q0 -50 28 -93t72.5 -75.5t98.5 -65.5t108.5 -72.5t99 -86t72.5 -115.5t28 -153q0 -194 -138 -323.5t-357 -129.5q-333 0 -504 258l221 174q127 -176 287 -176q84 0 138 48.5t54 121.5q0 51 -28 94
t-73 76.5t-99.5 66.5t-108.5 72.5t-99 86t-73 115.5t-28 153t35.5 161.5t97 136t152.5 93.5t196 35q305 0 473 -258l-223 -173q-119 177 -265 177q-72 0 -118.5 -43.5t-46.5 -104.5z" />
    <glyph glyph-name="scaron" unicode="&#x161;" horiz-adv-x="903" 
d="M492 1536l100 -215l178 215h242l-264 -340h-334l-144 340h222zM397 758q0 -33 21.5 -60t56.5 -47.5t77 -41.5t84 -48t77 -60.5t56.5 -85.5t21.5 -116t-26 -124t-74 -108.5t-123.5 -78t-166.5 -29.5q-129 0 -229.5 55t-165.5 154l187 143q89 -143 221 -143q57 0 91 33.5
t34 85.5q0 33 -21.5 60t-56 47t-76.5 41t-84 47.5t-76.5 59.5t-56 85t-21.5 116q0 135 105 232.5t280 97.5q119 0 216.5 -53t142.5 -137l-186 -142q-71 123 -181 123q-55 0 -91 -32t-36 -74z" />
    <glyph glyph-name="Tcedilla" unicode="&#x162;" horiz-adv-x="1267" 
d="M176 1169l47 265h1143l-45 -265h-428l-205 -1169h-39l-106 -113q76 -9 125 -59t49 -115q0 -99 -72.5 -162t-191.5 -63q-145 0 -228 86l105 121q49 -60 114 -60q37 0 58.5 18.5t21.5 51.5q0 28 -21 46t-54 18t-80 -21l-60 96l146 156h-58l205 1169h-426z" />
    <glyph glyph-name="tcedilla" unicode="&#x163;" horiz-adv-x="851" 
d="M195 416l67 383h-186l43 233h186l45 258h262l-45 -258h301l-41 -233h-301l-71 -406q-18 -95 15 -135.5t114 -40.5q74 0 147 25l-39 -228q-77 -31 -164 -34l-88 -93q76 -9 125 -59t49 -115q0 -99 -72.5 -162t-191.5 -63q-144 0 -227 86l104 121q49 -60 115 -60
q37 0 58.5 18.5t21.5 51.5q0 28 -21 46t-55 18q-33 0 -80 -21l-59 96l149 158q-219 77 -161 414z" />
    <glyph glyph-name="Tcaron" unicode="&#x164;" horiz-adv-x="1267" 
d="M713 1833l114 -152l168 152h244l-270 -277h-297l-176 277h217zM176 1169l47 265h1143l-45 -265h-428l-205 -1169h-291l205 1169h-426z" />
    <glyph glyph-name="tcaron" unicode="&#x165;" horiz-adv-x="851" 
d="M862 1155h-219l236 381h268zM195 416l67 383h-186l43 233h186l45 258h262l-45 -258h301l-41 -233h-301l-71 -406q-18 -95 15 -135.5t114 -40.5q74 0 147 25l-39 -228q-78 -34 -186 -34q-190 0 -269.5 109.5t-41.5 326.5z" />
    <glyph glyph-name="Tbar" unicode="&#x166;" horiz-adv-x="1267" 
d="M233 553l35 192h260l74 424h-426l47 265h1143l-45 -265h-428l-74 -424h262l-32 -192h-265l-96 -553h-291l97 553h-261z" />
    <glyph glyph-name="tbar" unicode="&#x167;" horiz-adv-x="851" 
d="M195 416l8 51h-187l35 192h187l24 140h-186l43 233h186l45 258h262l-45 -258h301l-41 -233h-301l-24 -140h305l-35 -192h-305l-12 -74q-18 -95 15 -135.5t114 -40.5q74 0 147 25l-39 -228q-78 -34 -186 -34q-190 0 -269.5 109.5t-41.5 326.5z" />
    <glyph glyph-name="Utilde" unicode="&#x168;" horiz-adv-x="1458" 
d="M547 1563l10 63q13 107 75 164t146 57q55 0 104 -20.5t77.5 -45t58.5 -45t51 -20.5q44 0 57 62l9 49h192l-8 -64q-14 -108 -75.5 -164.5t-145.5 -56.5q-56 0 -106 20.5t-79 45t-58.5 45t-49.5 20.5q-42 0 -55 -61l-9 -49h-194zM1008 537l157 897h291l-158 -904
q-104 -571 -630 -571q-128 0 -230 40.5t-171 116t-95 192t0 261.5l154 865h290l-157 -889q-26 -150 35.5 -232t199.5 -82q130 0 208.5 78.5t105.5 227.5z" />
    <glyph glyph-name="utilde" unicode="&#x169;" horiz-adv-x="1193" 
d="M524 1206h-184l8 72q15 129 76.5 195.5t155.5 66.5q47 0 89.5 -16.5t72.5 -39.5t56 -46t50.5 -39.5t46.5 -16.5q56 0 66 66l8 78h184l-8 -72q-15 -128 -76.5 -195t-153.5 -67q-48 0 -90.5 16.5t-73 39.5t-56.5 46t-50.5 39.5t-46.5 16.5q-53 0 -63 -66zM793 446l102 586
h264l-104 -588q-86 -485 -516 -485q-229 0 -344.5 137t-73.5 381l98 555h262l-104 -586q-20 -116 27.5 -178.5t156.5 -62.5q93 0 152.5 61.5t79.5 179.5z" />
    <glyph glyph-name="Umacron" unicode="&#x16a;" horiz-adv-x="1458" 
d="M571 1606l33 190h703l-33 -190h-703zM1008 537l157 897h291l-158 -904q-104 -571 -630 -571q-128 0 -230 40.5t-171 116t-95 192t0 261.5l154 865h290l-157 -889q-26 -150 35.5 -232t199.5 -82q130 0 208.5 78.5t105.5 227.5z" />
    <glyph glyph-name="umacron" unicode="&#x16b;" horiz-adv-x="1193" 
d="M381 1270l33 192h702l-33 -192h-702zM793 446l102 586h264l-104 -588q-86 -485 -516 -485q-229 0 -344.5 137t-73.5 381l98 555h262l-104 -586q-20 -116 27.5 -178.5t156.5 -62.5q93 0 152.5 61.5t79.5 179.5z" />
    <glyph glyph-name="Ubreve" unicode="&#x16c;" horiz-adv-x="1458" 
d="M944 1712q140 0 172 121h219q-25 -147 -126 -222t-269 -75q-177 0 -275 79.5t-75 217.5h205q-5 -59 30.5 -90t118.5 -31zM1008 537l157 897h291l-158 -904q-104 -571 -630 -571q-128 0 -230 40.5t-171 116t-95 192t0 261.5l154 865h290l-157 -889q-26 -150 35.5 -232
t199.5 -82q130 0 208.5 78.5t105.5 227.5z" />
    <glyph glyph-name="ubreve" unicode="&#x16d;" horiz-adv-x="1193" 
d="M768 1372q142 0 170 164h217q-52 -340 -401 -340q-165 0 -258 92t-66 248h205q-20 -164 133 -164zM793 446l102 586h264l-104 -588q-86 -485 -516 -485q-229 0 -344.5 137t-73.5 381l98 555h262l-104 -586q-20 -116 27.5 -178.5t156.5 -62.5q93 0 152.5 61.5t79.5 179.5z
" />
    <glyph glyph-name="Uring" unicode="&#x16e;" horiz-adv-x="1458" 
d="M963 1978q107 0 178 -57t71 -156q0 -123 -79.5 -186t-204.5 -63q-107 0 -177.5 55.5t-70.5 154.5q0 124 79 188t204 64zM956 1841q-56 0 -88 -26.5t-32 -77.5q0 -39 27.5 -61.5t72.5 -22.5q56 0 88.5 26.5t32.5 77.5q0 39 -28.5 61.5t-72.5 22.5zM1008 537l157 897h291
l-158 -904q-104 -571 -630 -571q-128 0 -230 40.5t-171 116t-95 192t0 261.5l154 865h290l-157 -889q-26 -150 35.5 -232t199.5 -82q130 0 208.5 78.5t105.5 227.5z" />
    <glyph glyph-name="uring" unicode="&#x16f;" horiz-adv-x="1193" 
d="M733 1139q-103 0 -175.5 64t-72.5 163q0 122 81 196t206 74q103 0 175.5 -64t72.5 -163q0 -122 -81 -196t-206 -74zM745 1274q54 0 86.5 36t32.5 89q0 45 -27.5 72.5t-76.5 27.5q-54 0 -86.5 -36t-32.5 -89q0 -45 27.5 -72.5t76.5 -27.5zM793 446l102 586h264l-104 -588
q-86 -485 -516 -485q-229 0 -344.5 137t-73.5 381l98 555h262l-104 -586q-20 -116 27.5 -178.5t156.5 -62.5q93 0 152.5 61.5t79.5 179.5z" />
    <glyph glyph-name="Uhungarumlaut" unicode="&#x170;" horiz-adv-x="1458" 
d="M823 1556h-274l274 277h310zM1270 1556h-275l273 277h309zM1008 537l157 897h291l-158 -904q-104 -571 -630 -571q-128 0 -230 40.5t-171 116t-95 192t0 261.5l154 865h290l-157 -889q-26 -150 35.5 -232t199.5 -82q130 0 208.5 78.5t105.5 227.5z" />
    <glyph glyph-name="uhungarumlaut" unicode="&#x171;" horiz-adv-x="1193" 
d="M647 1196h-258l268 340h289zM1036 1196h-254l265 340h288zM793 446l102 586h264l-104 -588q-86 -485 -516 -485q-229 0 -344.5 137t-73.5 381l98 555h262l-104 -586q-20 -116 27.5 -178.5t156.5 -62.5q93 0 152.5 61.5t79.5 179.5z" />
    <glyph glyph-name="Uogonek" unicode="&#x172;" horiz-adv-x="1458" 
d="M399 -285q0 144 168 250q-106 15 -189 61t-137.5 122.5t-73 182t4.5 238.5l154 865h290l-157 -889q-26 -150 35.5 -232t199.5 -82q130 0 208.5 78.5t105.5 227.5l157 897h291l-158 -904q-83 -451 -428 -546l-102 -60q-88 -56 -120 -93.5t-32 -76.5t27.5 -60.5t75.5 -21.5
q59 0 127 33l-33 -184q-66 -25 -141 -25q-128 0 -200.5 64t-72.5 155z" />
    <glyph glyph-name="uogonek" unicode="&#x173;" horiz-adv-x="1193" 
d="M258 -285q0 147 172 252q-177 31 -261 164t-48 346l98 555h262l-104 -586q-20 -116 27.5 -178.5t156.5 -62.5q93 0 152.5 61.5t79.5 179.5l102 586h264l-104 -588q-64 -352 -307 -448l-121 -72q-88 -56 -120 -93.5t-32 -76.5t27.5 -60.5t75.5 -21.5q59 0 127 33l-33 -184
q-66 -25 -142 -25q-128 0 -200 64t-72 155z" />
    <glyph glyph-name="Wcircumflex" unicode="&#x174;" horiz-adv-x="2136" 
d="M1122 1556h-241l274 277h295l174 -277h-217l-115 152zM213 1434h291l55 -1076l473 1076h381l92 -1072l437 1072h307l-594 -1434h-393l-95 1096l-481 -1096h-383z" />
    <glyph glyph-name="wcircumflex" unicode="&#x175;" horiz-adv-x="1669" 
d="M817 1196h-239l264 340h332l143 -340h-219l-103 215zM141 1032h248l41 -756l311 756h353l45 -751l307 751h266l-420 -1032h-364l-47 791l-328 -791h-354z" />
    <glyph glyph-name="Ycircumflex" unicode="&#x176;" horiz-adv-x="1417" 
d="M731 1556h-242l275 277h295l174 -277h-217l-115 152zM1591 1434l-723 -832l-106 -602h-291l109 621l-428 813h329l281 -549l467 549h362z" />
    <glyph glyph-name="ycircumflex" unicode="&#x177;" horiz-adv-x="1114" 
d="M539 1196h-240l264 340h332l143 -340h-219l-102 215zM473 -236q-83 -147 -172 -211.5t-217 -64.5q-136 0 -207 45l39 221q66 -28 133 -28q64 0 110.5 32t88.5 107l80 139l-230 1028h275l145 -696l397 696h285z" />
    <glyph glyph-name="Ydieresis" unicode="&#x178;" horiz-adv-x="1417" 
d="M668 1559q-60 0 -103 42.5t-43 102.5q0 59 43 101t103 42t103.5 -42.5t43.5 -100.5q0 -60 -43.5 -102.5t-103.5 -42.5zM1108 1559q-61 0 -104 42.5t-43 102.5q0 59 43 101t104 42q59 0 102 -42.5t43 -100.5q0 -60 -43 -102.5t-102 -42.5zM1591 1434l-723 -832l-106 -602
h-291l109 621l-428 813h329l281 -549l467 549h362z" />
    <glyph glyph-name="Zacute" unicode="&#x179;" horiz-adv-x="1384" 
d="M1012 1556h-273l273 277h307zM31 0l45 264l905 905h-725l47 265h1104l-47 -265l-901 -905h762l-47 -264h-1143z" />
    <glyph glyph-name="zacute" unicode="&#x17a;" horiz-adv-x="1064" 
d="M780 1196h-258l264 340h293zM23 0l43 233l596 566h-484l41 233h813l-41 -233l-598 -566h512l-41 -233h-841z" />
    <glyph glyph-name="Zdotaccent" unicode="&#x17b;" horiz-adv-x="1384" 
d="M901 1559q-59 0 -102 42.5t-43 102.5q0 58 43 100.5t102 42.5q60 0 104 -42.5t44 -100.5q0 -60 -44 -102.5t-104 -42.5zM31 0l45 264l905 905h-725l47 265h1104l-47 -265l-901 -905h762l-47 -264h-1143z" />
    <glyph glyph-name="zdotaccent" unicode="&#x17c;" horiz-adv-x="1064" 
d="M700 1212q-70 0 -122 50t-52 118q0 69 52 120.5t122 51.5q68 0 119 -51.5t51 -120.5q0 -67 -51 -117.5t-119 -50.5zM23 0l43 233l596 566h-484l41 233h813l-41 -233l-598 -566h512l-41 -233h-841z" />
    <glyph glyph-name="Zcaron" unicode="&#x17d;" horiz-adv-x="1384" 
d="M770 1833l115 -152l168 152h243l-270 -277h-297l-176 277h217zM31 0l45 264l905 905h-725l47 265h1104l-47 -265l-901 -905h762l-47 -264h-1143z" />
    <glyph glyph-name="zcaron" unicode="&#x17e;" horiz-adv-x="1064" 
d="M573 1536l101 -215l178 215h242l-265 -340h-333l-144 340h221zM23 0l43 233l596 566h-484l41 233h813l-41 -233l-598 -566h512l-41 -233h-841z" />
    <glyph glyph-name="Schwa" unicode="&#x18f;" horiz-adv-x="1548" 
d="M848 1475q202 0 353.5 -88t230.5 -240t79 -346q0 -138 -35.5 -264.5t-104 -230.5t-163 -181.5t-219.5 -120.5t-266 -43q-273 0 -432.5 151t-159.5 398q0 63 14.5 140.5t34.5 131.5h1030v21q0 188 -101.5 293.5t-277.5 105.5q-128 0 -241 -49t-195 -139l-205 186
q118 127 286 201t372 74zM741 217q164 0 273 87.5t157 238.5h-745q-10 -60 3.5 -117t50 -104t104.5 -76t157 -29z" />
    <glyph glyph-name="Eopen" unicode="&#x190;" horiz-adv-x="1224" 
d="M575 -41q-147 0 -260.5 46.5t-180 141t-66.5 226.5q0 135 70.5 243t217.5 170q-61 56 -85.5 116t-24.5 149q0 184 142.5 304t359.5 120q375 0 501 -271l-237 -131q-70 150 -248 150q-98 0 -157.5 -49t-59.5 -136q0 -75 44.5 -117t115.5 -42h237l-43 -242h-233
q-133 0 -216 -65.5t-83 -170.5q0 -91 59.5 -141.5t163.5 -50.5q100 0 184 54.5t166 172.5l215 -151q-110 -164 -245 -245t-337 -81z" />
    <glyph glyph-name="ltGamma" unicode="&#x194;" horiz-adv-x="1521" 
d="M1032 -102q0 -79 -27.5 -151.5t-78 -130.5t-130.5 -93t-178 -35q-175 0 -269.5 86.5t-94.5 235.5q0 100 47 199t156 249l110 152l-379 1024h316l272 -738l537 738h344l-766 -1047l47 -129q38 -102 52 -141.5t28 -102t14 -116.5zM635 -268q53 0 79.5 36.5t26.5 98.5
q0 74 -53 219l-6 16l-4 -6q-77 -106 -108 -166t-31 -102q0 -43 24 -69.5t72 -26.5z" />
    <glyph glyph-name="Nhookleft" unicode="&#x19d;" horiz-adv-x="1675" 
d="M410 33q-70 -389 -430 -389q-120 0 -185 28l45 246q50 -16 107 -16q80 0 122 37.5t62 154.5l236 1340h368l424 -1051l187 1051h290l-254 -1434h-370l-422 1049z" />
    <glyph glyph-name="Ohorn" unicode="&#x1a0;" horiz-adv-x="1644" 
d="M926 1475q140 0 258 -41h94q81 0 118.5 39.5t37.5 97.5q0 48 -45 100l147 115q42 -37 71 -91t29 -116q0 -102 -58.5 -178t-160.5 -107q193 -183 193 -485q0 -136 -38 -263.5t-111 -233.5t-172 -185.5t-228 -123.5t-273 -44q-197 0 -351.5 80.5t-242.5 233t-88 352.5
q0 170 60.5 325.5t166.5 271.5t260.5 184.5t332.5 68.5zM799 231q222 0 365 158t143 395q0 117 -44 210.5t-133.5 150.5t-211.5 57q-222 0 -365 -158t-143 -395q0 -117 44 -210.5t133.5 -150.5t211.5 -57z" />
    <glyph glyph-name="ohorn" unicode="&#x1a1;" horiz-adv-x="1253" 
d="M680 1073q125 0 221 -41h70q83 0 121 39.5t38 97.5q0 53 -45 101l150 114q42 -37 70 -90.5t28 -115.5q0 -107 -65.5 -185t-175.5 -104q96 -132 96 -311q0 -122 -43 -234t-120.5 -197.5t-193.5 -136.5t-253 -51q-235 0 -372.5 139t-137.5 357q0 122 43.5 234t120.5 197.5
t194 136t254 50.5zM584 205q148 0 238.5 109.5t90.5 263.5q0 110 -68 179.5t-175 69.5q-148 0 -238 -109t-90 -263q0 -110 67.5 -180t174.5 -70z" />
    <glyph glyph-name="Uhorn" unicode="&#x1af;" horiz-adv-x="1458" 
d="M1008 537l157 897h178q81 0 118.5 39.5t37.5 97.5q0 48 -45 100l148 115q42 -37 71 -91t29 -116q0 -116 -74 -196t-198 -99l-132 -754q-104 -571 -630 -571q-128 0 -230 40.5t-171 116t-95 192t0 261.5l154 865h290l-157 -889q-26 -150 35.5 -232t199.5 -82
q130 0 208.5 78.5t105.5 227.5z" />
    <glyph glyph-name="uhorn" unicode="&#x1b0;" horiz-adv-x="1224" 
d="M793 446l102 586h164q83 0 121.5 39.5t38.5 97.5q0 53 -45 101l149 114q42 -37 70 -90.5t28 -115.5q0 -118 -79.5 -200t-208.5 -97l-78 -437q-86 -485 -516 -485q-229 0 -344.5 137t-73.5 381l98 555h262l-104 -586q-20 -116 27.5 -178.5t156.5 -62.5q93 0 152.5 61.5
t79.5 179.5z" />
    <glyph glyph-name="Acaron" unicode="&#x1cd;" horiz-adv-x="1482" 
d="M819 1833l115 -152l168 152h244l-271 -277h-297l-176 277h217zM-63 0l778 1434h381l270 -1434h-301l-66 373h-548l-197 -373h-317zM584 621h372l-94 528z" />
    <glyph glyph-name="acaron" unicode="&#x1ce;" horiz-adv-x="1120" 
d="M602 1536l100 -215l179 215h241l-264 -340h-334l-143 340h221zM369 -31q-145 0 -235.5 72.5t-90.5 204.5q0 127 90.5 218t272.5 122l342 59l4 23q14 81 -27.5 129.5t-128.5 48.5q-128 0 -240 -125l-184 153q71 87 186 143t254 56q154 0 252 -60.5t131.5 -164t8.5 -240.5
l-109 -608h-260l14 78q-106 -109 -280 -109zM307 279q0 -48 34 -75.5t97 -27.5q74 0 140 32t108 85l29 166l-256 -45q-77 -13 -114.5 -49.5t-37.5 -85.5z" />
    <glyph glyph-name="Icaron" unicode="&#x1cf;" horiz-adv-x="696" 
d="M426 1833l115 -152l168 152h243l-270 -277h-297l-176 277h217zM113 0l254 1434h290l-254 -1434h-290z" />
    <glyph glyph-name="icaron" unicode="&#x1d0;" horiz-adv-x="557" 
d="M319 1536l101 -215l178 215h242l-265 -340h-333l-144 340h221zM57 0l183 1032h260l-183 -1032h-260z" />
    <glyph glyph-name="Ocaron" unicode="&#x1d1;" horiz-adv-x="1644" 
d="M895 1833l115 -152l168 152h243l-270 -277h-297l-176 277h217zM926 1475q198 0 353 -80.5t243 -233t88 -352.5q0 -136 -38 -263.5t-111 -233.5t-172 -185.5t-228 -123.5t-273 -44q-197 0 -351.5 80.5t-242.5 233t-88 352.5q0 170 60.5 325.5t166.5 271.5t260.5 184.5
t332.5 68.5zM799 231q222 0 365 158t143 395q0 117 -44 210.5t-133.5 150.5t-211.5 57q-222 0 -365 -158t-143 -395q0 -117 44 -210.5t133.5 -150.5t211.5 -57z" />
    <glyph glyph-name="ocaron" unicode="&#x1d2;" horiz-adv-x="1253" 
d="M668 1536l100 -215l178 215h242l-264 -340h-334l-144 340h222zM680 1073q233 0 370.5 -138.5t137.5 -356.5q0 -122 -43 -234t-120.5 -197.5t-193.5 -136.5t-253 -51q-235 0 -372.5 139t-137.5 357q0 122 43.5 234t120.5 197.5t194 136t254 50.5zM584 205
q148 0 238.5 109.5t90.5 263.5q0 110 -68 179.5t-175 69.5q-148 0 -238 -109t-90 -263q0 -110 67.5 -180t174.5 -70z" />
    <glyph glyph-name="Ucaron" unicode="&#x1d3;" horiz-adv-x="1458" 
d="M807 1833l115 -152l168 152h243l-270 -277h-297l-176 277h217zM1008 537l157 897h291l-158 -904q-104 -571 -630 -571q-128 0 -230 40.5t-171 116t-95 192t0 261.5l154 865h290l-157 -889q-26 -150 35.5 -232t199.5 -82q130 0 208.5 78.5t105.5 227.5z" />
    <glyph glyph-name="ucaron" unicode="&#x1d4;" horiz-adv-x="1193" 
d="M639 1536l100 -215l179 215h241l-264 -340h-334l-143 340h221zM793 446l102 586h264l-104 -588q-86 -485 -516 -485q-229 0 -344.5 137t-73.5 381l98 555h262l-104 -586q-20 -116 27.5 -178.5t156.5 -62.5q93 0 152.5 61.5t79.5 179.5z" />
    <glyph glyph-name="Udieresismacron" unicode="&#x1d5;" horiz-adv-x="1458" 
d="M633 1958l33 190h702l-33 -190h-702zM719 1559q-60 0 -103 42.5t-43 102.5q0 59 43 101t103 42t103.5 -42.5t43.5 -100.5q0 -60 -43.5 -102.5t-103.5 -42.5zM1159 1559q-61 0 -104 42.5t-43 102.5q0 59 43 101t104 42q59 0 102.5 -42.5t43.5 -100.5q0 -60 -43.5 -102.5
t-102.5 -42.5zM1008 537l157 897h291l-158 -904q-104 -571 -630 -571q-128 0 -230 40.5t-171 116t-95 192t0 261.5l154 865h290l-157 -889q-26 -150 35.5 -232t199.5 -82q130 0 208.5 78.5t105.5 227.5z" />
    <glyph glyph-name="udieresismacron" unicode="&#x1d6;" horiz-adv-x="1193" 
d="M432 1556l33 191h702l-32 -191h-703zM518 1157q-60 0 -102.5 43t-42.5 103q0 59 42.5 101t102.5 42t104 -42.5t44 -100.5q0 -60 -44 -103t-104 -43zM958 1157q-61 0 -104 43t-43 103q0 59 43 101t104 42q59 0 102.5 -42.5t43.5 -100.5q0 -60 -43.5 -103t-102.5 -43z
M793 446l102 586h264l-104 -588q-86 -485 -516 -485q-229 0 -344.5 137t-73.5 381l98 555h262l-104 -586q-20 -116 27.5 -178.5t156.5 -62.5q93 0 152.5 61.5t79.5 179.5z" />
    <glyph glyph-name="Udieresisacute" unicode="&#x1d7;" horiz-adv-x="1458" 
d="M1110 1909h-272l272 276h307zM719 1559q-60 0 -103 42.5t-43 102.5q0 59 43 101t103 42t103.5 -42.5t43.5 -100.5q0 -60 -43.5 -102.5t-103.5 -42.5zM1159 1559q-61 0 -104 42.5t-43 102.5q0 59 43 101t104 42q59 0 102.5 -42.5t43.5 -100.5q0 -60 -43.5 -102.5
t-102.5 -42.5zM1008 537l157 897h291l-158 -904q-104 -571 -630 -571q-128 0 -230 40.5t-171 116t-95 192t0 261.5l154 865h290l-157 -889q-26 -150 35.5 -232t199.5 -82q130 0 208.5 78.5t105.5 227.5z" />
    <glyph glyph-name="udieresisacute" unicode="&#x1d8;" horiz-adv-x="1193" 
d="M909 1507h-272l272 277h308zM518 1157q-60 0 -102.5 43t-42.5 103q0 59 42.5 101t102.5 42t104 -42.5t44 -100.5q0 -60 -44 -103t-104 -43zM958 1157q-61 0 -104 43t-43 103q0 59 43 101t104 42q59 0 102.5 -42.5t43.5 -100.5q0 -60 -43.5 -103t-102.5 -43zM793 446
l102 586h264l-104 -588q-86 -485 -516 -485q-229 0 -344.5 137t-73.5 381l98 555h262l-104 -586q-20 -116 27.5 -178.5t156.5 -62.5q93 0 152.5 61.5t79.5 179.5z" />
    <glyph glyph-name="Udieresiscaron" unicode="&#x1d9;" horiz-adv-x="1458" 
d="M868 2185l115 -151l168 151h244l-271 -276h-297l-176 276h217zM719 1559q-60 0 -103 42.5t-43 102.5q0 59 43 101t103 42t103.5 -42.5t43.5 -100.5q0 -60 -43.5 -102.5t-103.5 -42.5zM1159 1559q-61 0 -104 42.5t-43 102.5q0 59 43 101t104 42q59 0 102.5 -42.5
t43.5 -100.5q0 -60 -43.5 -102.5t-102.5 -42.5zM1008 537l157 897h291l-158 -904q-104 -571 -630 -571q-128 0 -230 40.5t-171 116t-95 192t0 261.5l154 865h290l-157 -889q-26 -150 35.5 -232t199.5 -82q130 0 208.5 78.5t105.5 227.5z" />
    <glyph glyph-name="udieresiscaron" unicode="&#x1da;" horiz-adv-x="1193" 
d="M668 1784l114 -152l168 152h244l-270 -277h-297l-176 277h217zM518 1157q-60 0 -102.5 43t-42.5 103q0 59 42.5 101t102.5 42t104 -42.5t44 -100.5q0 -60 -44 -103t-104 -43zM958 1157q-61 0 -104 43t-43 103q0 59 43 101t104 42q59 0 102.5 -42.5t43.5 -100.5
q0 -60 -43.5 -103t-102.5 -43zM793 446l102 586h264l-104 -588q-86 -485 -516 -485q-229 0 -344.5 137t-73.5 381l98 555h262l-104 -586q-20 -116 27.5 -178.5t156.5 -62.5q93 0 152.5 61.5t79.5 179.5z" />
    <glyph glyph-name="Udieresisgrave" unicode="&#x1db;" horiz-adv-x="1458" 
d="M852 1909l-207 276h289l176 -276h-258zM719 1559q-60 0 -103 42.5t-43 102.5q0 59 43 101t103 42t103.5 -42.5t43.5 -100.5q0 -60 -43.5 -102.5t-103.5 -42.5zM1159 1559q-61 0 -104 42.5t-43 102.5q0 59 43 101t104 42q59 0 102.5 -42.5t43.5 -100.5q0 -60 -43.5 -102.5
t-102.5 -42.5zM1008 537l157 897h291l-158 -904q-104 -571 -630 -571q-128 0 -230 40.5t-171 116t-95 192t0 261.5l154 865h290l-157 -889q-26 -150 35.5 -232t199.5 -82q130 0 208.5 78.5t105.5 227.5z" />
    <glyph glyph-name="udieresisgrave" unicode="&#x1dc;" horiz-adv-x="1193" 
d="M651 1507l-207 277h289l176 -277h-258zM518 1157q-60 0 -102.5 43t-42.5 103q0 59 42.5 101t102.5 42t104 -42.5t44 -100.5q0 -60 -44 -103t-104 -43zM958 1157q-61 0 -104 43t-43 103q0 59 43 101t104 42q59 0 102.5 -42.5t43.5 -100.5q0 -60 -43.5 -103t-102.5 -43z
M793 446l102 586h264l-104 -588q-86 -485 -516 -485q-229 0 -344.5 137t-73.5 381l98 555h262l-104 -586q-20 -116 27.5 -178.5t156.5 -62.5q93 0 152.5 61.5t79.5 179.5z" />
    <glyph glyph-name="Gcaron" unicode="&#x1e6;" horiz-adv-x="1576" 
d="M846 1833l115 -152l167 152h244l-270 -277h-297l-176 277h217zM774 -41q-296 0 -479.5 181.5t-183.5 484.5q0 136 38 263.5t110.5 233.5t171.5 185.5t228 123.5t273 44q203 0 348.5 -87t235.5 -229l-250 -166q-54 92 -145.5 149.5t-207.5 57.5q-219 0 -360 -157
t-141 -394q0 -180 101.5 -299t279.5 -119q194 0 342 119l43 254h-351l43 250h643l-110 -627q-109 -122 -275.5 -195t-353.5 -73z" />
    <glyph glyph-name="gcaron" unicode="&#x1e7;" horiz-adv-x="1110" 
d="M524 1536l101 -215l178 215h241l-264 -340h-334l-143 340h221zM-76 -193q0 175 195 277q-45 58 -45 121q0 71 39.5 126t122.5 103q-105 92 -105 246q0 79 29.5 149.5t83.5 125t137.5 86.5t185.5 32q124 0 211 -41h387l-39 -221h-174q6 -35 6 -70q0 -79 -29 -150.5
t-83 -126.5t-137 -87.5t-185 -32.5q-76 0 -131 14q-67 -42 -67 -84q0 -49 57 -49h207q194 0 293.5 -87t99.5 -232q0 -86 -38 -161t-108.5 -133t-181.5 -91t-249 -33q-237 0 -359.5 84t-122.5 235zM721 735q0 63 -42 103.5t-114 40.5q-87 0 -140.5 -55.5t-53.5 -139.5
q0 -63 40.5 -103t112.5 -40q88 0 142.5 55.5t54.5 138.5zM182 -156q0 -147 236 -147q153 0 226 50.5t73 129.5q0 125 -152 125h-272q-58 -30 -84.5 -72t-26.5 -86z" />
    <glyph glyph-name="Aringacute" unicode="&#x1fa;" horiz-adv-x="1482" 
d="M1145 2040h-273l273 276h307zM975 1978q107 0 178.5 -57t71.5 -156q0 -123 -80 -186t-205 -63q-107 0 -177.5 55.5t-70.5 154.5q0 124 79 188t204 64zM969 1841q-56 0 -88.5 -26.5t-32.5 -77.5q0 -39 27.5 -61.5t72.5 -22.5q56 0 88.5 26.5t32.5 77.5q0 39 -28 61.5
t-72 22.5zM-63 0l778 1434h381l270 -1434h-301l-66 373h-548l-197 -373h-317zM584 621h372l-94 528z" />
    <glyph glyph-name="aringacute" unicode="&#x1fb;" horiz-adv-x="1120" 
d="M895 1638h-272l272 277h307zM725 1577q107 0 178.5 -57t71.5 -156q0 -123 -80 -186.5t-205 -63.5q-107 0 -177.5 56t-70.5 155q0 124 79 188t204 64zM719 1440q-56 0 -88.5 -27t-32.5 -78q0 -39 27.5 -61.5t72.5 -22.5q56 0 88.5 27t32.5 78q0 39 -28 61.5t-72 22.5z
M369 -31q-145 0 -235.5 72.5t-90.5 204.5q0 127 90.5 218t272.5 122l342 59l4 23q14 81 -27.5 129.5t-128.5 48.5q-128 0 -240 -125l-184 153q71 87 186 143t254 56q154 0 252 -60.5t131.5 -164t8.5 -240.5l-109 -608h-260l14 78q-106 -109 -280 -109zM307 279
q0 -48 34 -75.5t97 -27.5q74 0 140 32t108 85l29 166l-256 -45q-77 -13 -114.5 -49.5t-37.5 -85.5z" />
    <glyph glyph-name="AEacute" unicode="&#x1fc;" horiz-adv-x="1974" 
d="M1489 1556h-272l272 277h307zM-74 0l1041 1434h1030l-43 -242h-527l-59 -340h449l-48 -242h-444l-63 -368h524l-41 -242h-817l65 373h-450l-269 -373h-348zM719 621h317l105 585z" />
    <glyph glyph-name="aeacute" unicode="&#x1fd;" horiz-adv-x="1802" 
d="M1130 1196h-258l265 340h293zM391 -29q-148 0 -245 74.5t-97 212.5q0 120 90.5 208.5t272.5 119.5l342 59l4 23q14 80 -28 129t-128 49q-128 0 -240 -125l-184 153q71 88 185.5 143.5t254.5 55.5q223 0 324 -131q153 131 375 131q183 0 304.5 -113t121.5 -290
q0 -48 -13 -107t-30 -100h-707v-8q0 -132 65.5 -197t190.5 -65q175 0 279 135l172 -168q-84 -95 -205 -148t-262 -53q-135 0 -239.5 49t-168.5 137q-75 -79 -188.5 -126.5t-245.5 -47.5zM1303 860q-97 0 -167.5 -55.5t-107.5 -149.5l459 -4q7 52 -8.5 98.5t-61 78.5
t-114.5 32zM313 283q0 -49 34 -78t97 -29q165 0 297 162q-10 62 -10 117v4l-266 -45q-78 -13 -115 -48t-37 -83z" />
    <glyph glyph-name="Oslashacute" unicode="&#x1fe;" horiz-adv-x="1644" 
d="M1137 1556h-273l273 277h307zM254 -41h-268l245 258q-125 166 -125 408q0 170 60.5 325.5t166.5 271.5t260.5 184.5t332.5 68.5q245 0 422 -123l116 123h267l-246 -258q125 -170 125 -408q0 -136 -38 -263.5t-111 -233.5t-172 -185.5t-228 -123.5t-273 -44
q-243 0 -417 123zM410 649q0 -121 47 -217l673 713q-88 57 -212 57q-222 0 -365 -158t-143 -395zM799 231q222 0 365 158t143 395q0 119 -47 215l-674 -710q89 -58 213 -58z" />
    <glyph glyph-name="oslashacute" unicode="&#x1ff;" horiz-adv-x="1253" 
d="M874 1196h-258l265 340h293zM242 -41h-260l176 195q-90 125 -90 301q0 122 43.5 234t120.5 197.5t194 136t254 50.5q154 0 274 -65l60 65h262l-178 -194q90 -125 90 -301q0 -122 -43 -234t-120.5 -197.5t-193.5 -136.5t-253 -51q-155 0 -277 66zM342 455q0 -51 16 -97
l406 453q-46 16 -94 16q-148 0 -238 -109t-90 -263zM584 205q148 0 238.5 109.5t90.5 263.5q0 48 -16 94l-403 -453q51 -14 90 -14z" />
    <glyph glyph-name="Scommaaccent" unicode="&#x218;" horiz-adv-x="1167" 
d="M537 1073q0 -50 28 -93t72.5 -75.5t98.5 -65.5t108.5 -72.5t99 -86t72.5 -115.5t28 -153q0 -194 -138 -323.5t-357 -129.5q-333 0 -504 258l221 174q127 -176 287 -176q84 0 138 48.5t54 121.5q0 51 -28 94t-73 76.5t-99.5 66.5t-108.5 72.5t-99 86t-73 115.5t-28 153
t35.5 161.5t97 136t152.5 93.5t196 35q305 0 473 -258l-223 -173q-119 177 -265 177q-72 0 -118.5 -43.5t-46.5 -104.5zM326 -504h-258l264 340h293z" />
    <glyph glyph-name="scommaaccent" unicode="&#x219;" horiz-adv-x="903" 
d="M397 758q0 -33 21.5 -60t56.5 -47.5t77 -41.5t84 -48t77 -60.5t56.5 -85.5t21.5 -116t-26 -124t-74 -108.5t-123.5 -78t-166.5 -29.5q-129 0 -229.5 55t-165.5 154l187 143q89 -143 221 -143q57 0 91 33.5t34 85.5q0 33 -21.5 60t-56 47t-76.5 41t-84 47.5t-76.5 59.5
t-56 85t-21.5 116q0 135 105 232.5t280 97.5q119 0 216.5 -53t142.5 -137l-186 -142q-71 123 -181 123q-55 0 -91 -32t-36 -74zM193 -504h-259l265 340h293z" />
    <glyph glyph-name="Tcommaaccent" unicode="&#x21a;" horiz-adv-x="1267" 
d="M176 1169l47 265h1143l-45 -265h-428l-205 -1169h-291l205 1169h-426zM367 -504h-258l264 340h293z" />
    <glyph glyph-name="tcommaaccent" unicode="&#x21b;" horiz-adv-x="851" 
d="M195 416l67 383h-186l43 233h186l45 258h262l-45 -258h301l-41 -233h-301l-71 -406q-18 -95 15 -135.5t114 -40.5q74 0 147 25l-39 -228q-78 -34 -186 -34q-190 0 -269.5 109.5t-41.5 326.5zM240 -504h-258l264 340h293z" />
    <glyph glyph-name="Ymacron" unicode="&#x232;" horiz-adv-x="1417" 
d="M520 1606l33 190h702l-32 -190h-703zM1591 1434l-723 -832l-106 -602h-291l109 621l-428 813h329l281 -549l467 549h362z" />
    <glyph glyph-name="ymacron" unicode="&#x233;" horiz-adv-x="1114" 
d="M340 1270l33 192h702l-33 -192h-702zM473 -236q-83 -147 -172 -211.5t-217 -64.5q-136 0 -207 45l39 221q66 -28 133 -28q64 0 110.5 32t88.5 107l80 139l-230 1028h275l145 -696l397 696h285z" />
    <glyph glyph-name="dotlessj" unicode="&#x237;" horiz-adv-x="557" 
d="M297 -119q-37 -213 -135 -303t-262 -90q-145 0 -230 45l39 225q73 -32 148 -32q78 0 122 35t58 124l203 1147h260z" />
    <glyph glyph-name="schwa" unicode="&#x259;" horiz-adv-x="1146" 
d="M575 1073q234 0 370 -138t136 -357q0 -171 -68 -311t-200 -224t-305 -84q-192 0 -317 113t-125 290q0 49 12 108.5t28 98.5h707v9q0 132 -65.5 197t-190.5 65q-169 0 -278 -135l-170 167q83 95 204 148t262 53zM510 172q103 0 171.5 56t102.5 153h-465q-11 -82 39 -145.5
t152 -63.5z" />
    <glyph glyph-name="eopen" unicode="&#x25b;" horiz-adv-x="1056" 
d="M492 193q91 0 175 40.5t146 106.5l170 -166q-197 -215 -526 -215q-194 0 -310 79t-116 224q0 92 57.5 171.5t161.5 119.5q-88 74 -88 186q0 148 114.5 241t323.5 93q280 0 440 -188l-213 -154q-88 109 -229 109q-86 0 -129 -32t-43 -89q0 -38 26 -60t68 -22h232l-35 -207
h-271q-64 0 -101.5 -34t-37.5 -87q0 -116 185 -116z" />
    <glyph glyph-name="ipagamma" unicode="&#x263;" horiz-adv-x="1136" 
d="M797 -188q0 -47 -13.5 -92.5t-43 -88t-71.5 -74.5t-103.5 -51.5t-133.5 -19.5q-151 0 -244.5 81t-93.5 208q0 72 31 147t104 172l154 209l-285 729h277l184 -489l361 489h303l-566 -749l74 -193q38 -100 52 -158.5t14 -119.5zM436 -303q50 0 76.5 38t26.5 93
q0 73 -39 180l-17 43l-28 -39q-60 -82 -83.5 -131.5t-23.5 -93.5q0 -90 88 -90z" />
    <glyph glyph-name="nhookleft" unicode="&#x272;" horiz-adv-x="1224" 
d="M297 -119q-37 -213 -135 -303t-262 -90q-145 0 -230 45l39 225q73 -32 148 -32q78 0 122 35t58 124l203 1147h260l-13 -76q131 117 291 117q181 0 273.5 -119t54.5 -340l-107 -614h-262l107 604q19 104 -22 163.5t-134 59.5q-82 0 -145.5 -45t-104.5 -108l-2 2z" />
    <glyph glyph-name="ringhalfrightmod" unicode="&#x2be;" 
d="M590 1139l24 139q62 -1 96.5 33t34.5 86q0 44 -23.5 72t-66.5 34l23 135q95 -11 160 -73.5t65 -163.5q0 -121 -83.5 -191.5t-229.5 -70.5z" />
    <glyph glyph-name="ringhalfleftmod" unicode="&#x2bf;" 
d="M948 1636l-24 -137q-62 0 -96.5 -34t-34.5 -87q0 -45 24 -72.5t68 -31.5l-25 -135q-95 10 -160 72t-65 163q0 121 84 192t229 70z" />
    <glyph glyph-name="circumflex" unicode="&#x2c6;" horiz-adv-x="688" 
d="M334 1196h-240l264 340h332l144 -340h-220l-102 215z" />
    <glyph glyph-name="caron" unicode="&#x2c7;" horiz-adv-x="688" 
d="M377 1536l100 -215l178 215h242l-264 -340h-334l-143 340h221z" />
    <glyph glyph-name="verticallinemod" unicode="&#x2c8;" 
d="M698 1536h193l-60 -340h-192z" />
    <glyph glyph-name="verticallinelowmod" unicode="&#x2cc;" 
d="M399 -164h193l-60 -340h-192z" />
    <glyph glyph-name="breve" unicode="&#x2d8;" horiz-adv-x="688" 
d="M500 1372q142 0 170 164h217q-26 -169 -127.5 -254.5t-274.5 -85.5q-165 0 -257.5 92t-65.5 248h205q-20 -164 133 -164z" />
    <glyph glyph-name="dotaccent" unicode="&#x2d9;" horiz-adv-x="688" 
d="M498 1212q-70 0 -122 50t-52 118q0 69 52 120.5t122 51.5q68 0 119 -51.5t51 -120.5q0 -67 -51 -117.5t-119 -50.5z" />
    <glyph glyph-name="ring" unicode="&#x2da;" horiz-adv-x="688" 
d="M479 1139q-103 0 -175.5 64t-72.5 163q0 122 81 196t206 74q103 0 175.5 -64t72.5 -163q0 -122 -81 -196t-206 -74zM492 1274q54 0 86 36t32 89q0 45 -27.5 72.5t-76.5 27.5q-54 0 -86.5 -36t-32.5 -89q0 -45 28 -72.5t77 -27.5z" />
    <glyph glyph-name="ogonek" unicode="&#x2db;" horiz-adv-x="688" 
d="M-20 -285q0 171 233 287l53 27l211 -29l-129 -76q-88 -56 -119.5 -93.5t-31.5 -76.5t27 -60.5t75 -21.5q59 0 127 33l-33 -184q-66 -25 -141 -25q-128 0 -200 64t-72 155z" />
    <glyph glyph-name="tilde" unicode="&#x2dc;" horiz-adv-x="688" 
d="M272 1206h-184l8 72q15 129 76.5 195.5t155.5 66.5q47 0 89.5 -16.5t72.5 -39.5t56 -46t50.5 -39.5t46.5 -16.5q56 0 66 66l8 78h184l-8 -72q-15 -129 -76 -195.5t-153 -66.5q-48 0 -91 16.5t-73 39.5t-56 46t-51 39.5t-47 16.5q-53 0 -63 -66z" />
    <glyph glyph-name="hungarumlaut" unicode="&#x2dd;" horiz-adv-x="688" 
d="M281 1196h-258l268 340h289zM670 1196h-254l264 340h289z" />
    <glyph glyph-name="gravecmb" unicode="&#x300;" horiz-adv-x="0" 
d="M0 1196l-180 340h274l144 -340h-238z" />
    <glyph glyph-name="acutecmb" unicode="&#x301;" horiz-adv-x="0" 
d="M248 1196h-258l264 340h293z" />
    <glyph glyph-name="circumflexcmb" unicode="&#x302;" horiz-adv-x="0" 
d="M-18 1196h-240l264 340h332l143 -340h-219l-102 215z" />
    <glyph glyph-name="tildecmb" unicode="&#x303;" horiz-adv-x="0" 
d="M-72 1206h-184l8 72q15 129 76.5 195.5t155.5 66.5q47 0 89.5 -16.5t72.5 -39.5t56 -46t50.5 -39.5t46.5 -16.5q56 0 66 66l8 78h184l-8 -72q-15 -128 -76.5 -195t-153.5 -67q-48 0 -90.5 16.5t-73 39.5t-56.5 46t-50.5 39.5t-46.5 16.5q-53 0 -63 -66z" />
    <glyph glyph-name="macroncmb" unicode="&#x304;" horiz-adv-x="0" 
d="M-217 1270l33 192h702l-33 -192h-702z" />
    <glyph glyph-name="brevecmb" unicode="&#x306;" horiz-adv-x="0" 
d="M170 1372q142 0 170 164h217q-52 -340 -401 -340q-165 0 -258 92t-66 248h205q-20 -164 133 -164z" />
    <glyph glyph-name="dotaccentcmb" unicode="&#x307;" horiz-adv-x="0" 
d="M168 1212q-70 0 -122 50t-52 118q0 69 52 120.5t122 51.5q68 0 119 -51.5t51 -120.5q0 -67 -51 -117.5t-119 -50.5z" />
    <glyph glyph-name="dieresiscmb" unicode="&#x308;" horiz-adv-x="0" 
d="M-66 1237q-64 0 -111.5 47.5t-47.5 110.5t47.5 110t111.5 47q63 0 110.5 -47t47.5 -110t-47.5 -110.5t-110.5 -47.5zM379 1237q-64 0 -112 47.5t-48 110.5t48 110t112 47q63 0 110.5 -47t47.5 -110t-47.5 -110.5t-110.5 -47.5z" />
    <glyph glyph-name="hookabovecmb" unicode="&#x309;" horiz-adv-x="0" 
d="M66 1135l-9 157q95 13 132.5 36.5t37.5 64.5q0 26 -18 41.5t-53 15.5q-69 0 -148 -61l-80 135q112 94 252 94q99 0 165 -54t69 -149q0 -241 -348 -280z" />
    <glyph glyph-name="ringabovecmb" unicode="&#x30a;" horiz-adv-x="0" 
d="M135 1139q-103 0 -175.5 64t-72.5 163q0 122 81 196t206 74q103 0 175.5 -64t72.5 -163q0 -122 -81 -196t-206 -74zM147 1274q54 0 86.5 36t32.5 89q0 45 -27.5 72.5t-76.5 27.5q-54 0 -86.5 -36t-32.5 -89q0 -45 27.5 -72.5t76.5 -27.5z" />
    <glyph glyph-name="hungarumlautcmb" unicode="&#x30b;" horiz-adv-x="0" 
d="M49 1196h-258l268 340h289zM438 1196h-254l265 340h288z" />
    <glyph glyph-name="caroncmb" unicode="&#x30c;" horiz-adv-x="0" 
d="M41 1536l100 -215l178 215h242l-264 -340h-334l-143 340h221z" />
    <glyph glyph-name="verticallineabovecmb" unicode="&#x30d;" horiz-adv-x="0" 
d="M84 1536h192l-59 -340h-192z" />
    <glyph glyph-name="commaturnedabovecmb" unicode="&#x312;" horiz-adv-x="0" 
d="M270 1536h258l-266 -340h-291z" />
    <glyph glyph-name="horncmb" unicode="&#x31b;" horiz-adv-x="0" 
d="M39 877h-129l-51 155h161q83 0 121.5 39.5t38.5 97.5q0 53 -45 101l150 114q42 -37 70 -90.5t28 -115.5q0 -131 -96 -216t-248 -85z" />
    <glyph glyph-name="dotbelowcmb" unicode="&#x323;" horiz-adv-x="0" 
d="M-152 -520q-70 0 -121 51.5t-51 120.5q0 68 51 118t121 50q69 0 119.5 -50t50.5 -118q0 -69 -50.5 -120.5t-119.5 -51.5z" />
    <glyph glyph-name="commaaccentbelowcmb" unicode="&#x326;" horiz-adv-x="0" 
d="M-264 -504h-258l264 340h293z" />
    <glyph glyph-name="cedillacmb" unicode="&#x327;" horiz-adv-x="0" 
d="M-135 16l190 -4l-118 -125q76 -9 125 -59t49 -115q0 -99 -73 -162t-192 -63q-144 0 -227 86l105 121q49 -60 114 -60q37 0 58.5 18.5t21.5 51.5q0 28 -21 46t-55 18q-33 0 -80 -21l-59 96z" />
    <glyph glyph-name="ogonekcmb" unicode="&#x328;" horiz-adv-x="0" 
d="M-586 -285q0 170 234 287l53 27l211 -29l-129 -76q-88 -56 -120 -93.5t-32 -76.5t27.5 -60.5t75.5 -21.5q59 0 127 33l-33 -184q-66 -25 -141 -25q-128 0 -200.5 64t-72.5 155z" />
    <glyph glyph-name="verticallinebelowcmb" unicode="&#x329;" horiz-adv-x="0" 
d="M-215 -164h192l-59 -340h-192z" />
    <glyph glyph-name="belowbrevecmb" unicode="&#x32e;" horiz-adv-x="0" 
d="M-143 -328q142 0 170 164h217q-52 -340 -402 -340q-163 0 -256.5 92.5t-66.5 247.5h207q-23 -164 131 -164z" />
    <glyph glyph-name="macronbelowcmb" unicode="&#x331;" horiz-adv-x="0" 
d="M-514 -469l35 193h700l-33 -193h-702z" />
    <glyph glyph-name="halfleftringabovecmb" unicode="&#x351;" horiz-adv-x="0" 
d="M334 1636l-25 -137q-62 0 -96.5 -34t-34.5 -87q0 -45 24 -72.5t68 -31.5l-24 -135q-95 10 -160.5 72t-65.5 163q0 121 84.5 192t229.5 70z" />
    <glyph glyph-name="halfrightringabovecmb" unicode="&#x357;" horiz-adv-x="0" 
d="M20 1139l25 139q62 -1 96.5 33t34.5 86q0 44 -23.5 72t-66.5 34l23 135q95 -11 160 -73.5t65 -163.5q0 -120 -84 -191t-230 -71z" />
    <glyph glyph-name="Ddotbelow" unicode="&#x1e0c;" horiz-adv-x="1576" 
d="M113 0l254 1434h415q225 0 395 -77t265.5 -225.5t95.5 -351.5q0 -155 -59.5 -296t-166 -248.5t-268 -171.5t-352.5 -64h-579zM782 1169h-172l-159 -905h241q122 0 224 38.5t171 105.5t107.5 159.5t38.5 198.5q0 186 -119 294.5t-332 108.5zM637 -520q-70 0 -121 51.5
t-51 120.5q0 68 51 118t121 50q69 0 119.5 -50t50.5 -118q0 -69 -50.5 -120.5t-119.5 -51.5z" />
    <glyph glyph-name="ddotbelow" unicode="&#x1e0d;" horiz-adv-x="1302" 
d="M68 446q0 121 41 234.5t114 201t181.5 140t234.5 51.5q201 0 330 -129l104 592h262l-270 -1536h-262l12 76q-135 -117 -303 -117q-216 0 -330 132t-114 355zM342 463q0 -115 67 -186.5t183 -71.5q168 0 270 135l56 315q-75 172 -259 172q-141 0 -229 -105.5t-88 -258.5z
M500 -520q-70 0 -121 51.5t-51 120.5q0 68 51 118t121 50q69 0 119.5 -50t50.5 -118q0 -69 -50.5 -120.5t-119.5 -51.5z" />
    <glyph glyph-name="Dlinebelow" unicode="&#x1e0e;" horiz-adv-x="1576" 
d="M113 0l254 1434h415q225 0 395 -77t265.5 -225.5t95.5 -351.5q0 -155 -59.5 -296t-166 -248.5t-268 -171.5t-352.5 -64h-579zM782 1169h-172l-159 -905h241q122 0 224 38.5t171 105.5t107.5 159.5t38.5 198.5q0 186 -119 294.5t-332 108.5zM274 -469l35 193h701l-33 -193
h-703z" />
    <glyph glyph-name="dlinebelow" unicode="&#x1e0f;" horiz-adv-x="1302" 
d="M68 446q0 121 41 234.5t114 201t181.5 140t234.5 51.5q201 0 330 -129l104 592h262l-270 -1536h-262l12 76q-135 -117 -303 -117q-216 0 -330 132t-114 355zM342 463q0 -115 67 -186.5t183 -71.5q168 0 270 135l56 315q-75 172 -259 172q-141 0 -229 -105.5t-88 -258.5z
M137 -469l35 193h700l-32 -193h-703z" />
    <glyph glyph-name="Dcedilla" unicode="&#x1e10;" horiz-adv-x="1576" 
d="M113 0l254 1434h415q225 0 395 -77t265.5 -225.5t95.5 -351.5q0 -155 -59.5 -296t-166 -248.5t-268 -171.5t-352.5 -64h-579zM782 1169h-172l-159 -905h241q122 0 224 38.5t171 105.5t107.5 159.5t38.5 198.5q0 186 -119 294.5t-332 108.5zM524 -504h-258l264 340h293z
" />
    <glyph glyph-name="dcedilla" unicode="&#x1e11;" horiz-adv-x="1302" 
d="M68 446q0 121 41 234.5t114 201t181.5 140t234.5 51.5q201 0 330 -129l104 592h262l-270 -1536h-262l12 76q-135 -117 -303 -117q-216 0 -330 132t-114 355zM342 463q0 -115 67 -186.5t183 -71.5q168 0 270 135l56 315q-75 172 -259 172q-141 0 -229 -105.5t-88 -258.5z
M387 -504h-258l264 340h293z" />
    <glyph glyph-name="Gmacron" unicode="&#x1e20;" horiz-adv-x="1576" 
d="M610 1606l33 190h703l-33 -190h-703zM774 -41q-296 0 -479.5 181.5t-183.5 484.5q0 136 38 263.5t110.5 233.5t171.5 185.5t228 123.5t273 44q203 0 348.5 -87t235.5 -229l-250 -166q-54 92 -145.5 149.5t-207.5 57.5q-219 0 -360 -157t-141 -394q0 -180 101.5 -299
t279.5 -119q194 0 342 119l43 254h-351l43 250h643l-110 -627q-109 -122 -275.5 -195t-353.5 -73z" />
    <glyph glyph-name="gmacron" unicode="&#x1e21;" horiz-adv-x="1110" 
d="M266 1270l33 192h702l-32 -192h-703zM-76 -193q0 175 195 277q-45 58 -45 121q0 71 39.5 126t122.5 103q-105 92 -105 246q0 79 29.5 149.5t83.5 125t137.5 86.5t185.5 32q124 0 211 -41h387l-39 -221h-174q6 -35 6 -70q0 -79 -29 -150.5t-83 -126.5t-137 -87.5
t-185 -32.5q-76 0 -131 14q-67 -42 -67 -84q0 -49 57 -49h207q194 0 293.5 -87t99.5 -232q0 -86 -38 -161t-108.5 -133t-181.5 -91t-249 -33q-237 0 -359.5 84t-122.5 235zM721 735q0 63 -42 103.5t-114 40.5q-87 0 -140.5 -55.5t-53.5 -139.5q0 -63 40.5 -103t112.5 -40
q88 0 142.5 55.5t54.5 138.5zM182 -156q0 -147 236 -147q153 0 226 50.5t73 129.5q0 125 -152 125h-272q-58 -30 -84.5 -72t-26.5 -86z" />
    <glyph glyph-name="Hdotbelow" unicode="&#x1e24;" horiz-adv-x="1675" 
d="M113 0l254 1434h290l-100 -572h688l101 572h290l-254 -1434h-290l106 598h-688l-107 -598h-290zM686 -520q-70 0 -121 51.5t-51 120.5q0 68 51 118t121 50q69 0 119.5 -50t50.5 -118q0 -69 -50.5 -120.5t-119.5 -51.5z" />
    <glyph glyph-name="hdotbelow" unicode="&#x1e25;" horiz-adv-x="1224" 
d="M57 0l271 1536h262l-103 -578q132 115 291 115q181 0 273.5 -119t54.5 -340l-107 -614h-262l107 604q19 103 -22.5 163t-133.5 60q-82 0 -145.5 -45t-104.5 -108l-2 2l-119 -676h-260zM465 -520q-70 0 -121 51.5t-51 120.5q0 68 51 118t121 50q69 0 119.5 -50t50.5 -118
q0 -69 -50.5 -120.5t-119.5 -51.5z" />
    <glyph glyph-name="Hcedilla" unicode="&#x1e28;" horiz-adv-x="1675" 
d="M113 0l254 1434h290l-100 -572h688l101 572h290l-254 -1434h-290l106 598h-688l-107 -598h-290zM573 -504h-258l265 340h292z" />
    <glyph glyph-name="hcedilla" unicode="&#x1e29;" horiz-adv-x="1224" 
d="M57 0l271 1536h262l-103 -578q132 115 291 115q181 0 273.5 -119t54.5 -340l-107 -614h-262l107 604q19 103 -22.5 163t-133.5 60q-82 0 -145.5 -45t-104.5 -108l-2 2l-119 -676h-260zM352 -504h-258l264 340h293z" />
    <glyph glyph-name="Hbrevebelow" unicode="&#x1e2a;" horiz-adv-x="1675" 
d="M113 0l254 1434h290l-100 -572h688l101 572h290l-254 -1434h-290l106 598h-688l-107 -598h-290zM694 -328q142 0 170 164h217q-52 -340 -401 -340q-164 0 -257.5 92.5t-66.5 247.5h207q-23 -164 131 -164z" />
    <glyph glyph-name="hbrevebelow" unicode="&#x1e2b;" horiz-adv-x="1224" 
d="M57 0l271 1536h262l-103 -578q132 115 291 115q181 0 273.5 -119t54.5 -340l-107 -614h-262l107 604q19 103 -22.5 163t-133.5 60q-82 0 -145.5 -45t-104.5 -108l-2 2l-119 -676h-260zM473 -328q142 0 170 164h217q-52 -340 -401 -340q-164 0 -257.5 92.5t-66.5 247.5
h207q-23 -164 131 -164z" />
    <glyph glyph-name="Kdotbelow" unicode="&#x1e32;" horiz-adv-x="1490" 
d="M113 0l254 1434h290l-108 -611l680 611h379l-686 -611l432 -823h-338l-318 627l-219 -197l-76 -430h-290zM641 -520q-70 0 -121 51.5t-51 120.5q0 68 51 118t121 50q69 0 119.5 -50t50.5 -118q0 -69 -50.5 -120.5t-119.5 -51.5z" />
    <glyph glyph-name="kdotbelow" unicode="&#x1e33;" horiz-adv-x="1107" 
d="M61 0l271 1536h262l-156 -889l410 385h342l-483 -446l297 -586h-293l-201 401l-139 -129l-47 -272h-263zM467 -520q-70 0 -121 51.5t-51 120.5q0 68 51 118t121 50q69 0 119.5 -50t50.5 -118q0 -69 -50.5 -120.5t-119.5 -51.5z" />
    <glyph glyph-name="Klinebelow" unicode="&#x1e34;" horiz-adv-x="1490" 
d="M113 0l254 1434h290l-108 -611l680 611h379l-686 -611l432 -823h-338l-318 627l-219 -197l-76 -430h-290zM279 -469l34 193h701l-33 -193h-702z" />
    <glyph glyph-name="klinebelow" unicode="&#x1e35;" horiz-adv-x="1107" 
d="M61 0l271 1536h262l-156 -889l410 385h342l-483 -446l297 -586h-293l-201 401l-139 -129l-47 -272h-263zM104 -469l35 193h701l-33 -193h-703z" />
    <glyph glyph-name="Mdotbelow" unicode="&#x1e42;" horiz-adv-x="1792" 
d="M113 0l254 1434h350l225 -586l434 586h377l-252 -1434h-291l181 1020l-396 -528h-202l-209 530l-181 -1022h-290zM760 -520q-70 0 -121 51.5t-51 120.5q0 68 51 118t121 50q69 0 119.5 -50t50.5 -118q0 -69 -50.5 -120.5t-119.5 -51.5z" />
    <glyph glyph-name="mdotbelow" unicode="&#x1e43;" horiz-adv-x="1820" 
d="M57 0l183 1032h260l-13 -69q126 110 271 110q99 0 173.5 -41.5t112.5 -120.5q158 162 353 162q170 0 259.5 -116.5t51.5 -325.5l-111 -631h-262l109 618q18 102 -19.5 155.5t-117.5 53.5q-123 0 -232 -153q-1 -7 -3 -21.5t-3 -21.5l-111 -631h-262l109 618
q18 102 -19.5 155.5t-117.5 53.5q-129 0 -230 -153l-2 2l-119 -676h-260zM760 -520q-70 0 -121 51.5t-51 120.5q0 68 51 118t121 50q69 0 119.5 -50t50.5 -118q0 -69 -50.5 -120.5t-119.5 -51.5z" />
    <glyph glyph-name="Ndotbelow" unicode="&#x1e46;" horiz-adv-x="1675" 
d="M113 0l254 1434h368l424 -1051l187 1051h290l-254 -1434h-370l-422 1049l-187 -1049h-290zM700 -520q-70 0 -121 51.5t-51 120.5q0 68 51 118t121 50q69 0 119.5 -50t50.5 -118q0 -69 -50.5 -120.5t-119.5 -51.5z" />
    <glyph glyph-name="ndotbelow" unicode="&#x1e47;" horiz-adv-x="1224" 
d="M57 0l183 1032h260l-13 -76q131 117 291 117q181 0 273.5 -119t54.5 -340l-107 -614h-262l107 604q19 104 -22 163.5t-134 59.5q-82 0 -145.5 -45t-104.5 -108l-2 2l-119 -676h-260zM481 -520q-70 0 -121 51.5t-51 120.5q0 68 51 118t121 50q69 0 119.5 -50t50.5 -118
q0 -69 -50.5 -120.5t-119.5 -51.5z" />
    <glyph glyph-name="Rdotbelow" unicode="&#x1e5a;" horiz-adv-x="1333" 
d="M113 0l254 1434h399q216 0 339.5 -104.5t123.5 -293.5q0 -141 -81.5 -253.5t-225.5 -166.5l333 -616h-321l-281 580h-147l-103 -580h-290zM745 1192h-131l-65 -371h151q101 0 161.5 57t60.5 148q0 79 -46 122.5t-131 43.5zM592 -520q-70 0 -121 51.5t-51 120.5
q0 68 51 118t121 50q69 0 119.5 -50t50.5 -118q0 -69 -50.5 -120.5t-119.5 -51.5z" />
    <glyph glyph-name="rdotbelow" unicode="&#x1e5b;" horiz-adv-x="806" 
d="M57 0l183 1032h260l-19 -108q58 63 124 96t157 33q52 0 90 -15l-45 -256q-54 15 -98 15q-158 0 -279 -164l-113 -633h-260zM127 -520q-70 0 -121 51.5t-51 120.5q0 68 51 118t121 50q69 0 119.5 -50t50.5 -118q0 -69 -50.5 -120.5t-119.5 -51.5z" />
    <glyph glyph-name="Sdotbelow" unicode="&#x1e62;" horiz-adv-x="1167" 
d="M537 1073q0 -50 28 -93t72.5 -75.5t98.5 -65.5t108.5 -72.5t99 -86t72.5 -115.5t28 -153q0 -194 -138 -323.5t-357 -129.5q-333 0 -504 258l221 174q127 -176 287 -176q84 0 138 48.5t54 121.5q0 51 -28 94t-73 76.5t-99.5 66.5t-108.5 72.5t-99 86t-73 115.5t-28 153
t35.5 161.5t97 136t152.5 93.5t196 35q305 0 473 -258l-223 -173q-119 177 -265 177q-72 0 -118.5 -43.5t-46.5 -104.5zM438 -520q-70 0 -121 51.5t-51 120.5q0 68 51 118t121 50q69 0 119.5 -50t50.5 -118q0 -69 -50.5 -120.5t-119.5 -51.5z" />
    <glyph glyph-name="sdotbelow" unicode="&#x1e63;" horiz-adv-x="903" 
d="M397 758q0 -33 21.5 -60t56.5 -47.5t77 -41.5t84 -48t77 -60.5t56.5 -85.5t21.5 -116t-26 -124t-74 -108.5t-123.5 -78t-166.5 -29.5q-129 0 -229.5 55t-165.5 154l187 143q89 -143 221 -143q57 0 91 33.5t34 85.5q0 33 -21.5 60t-56 47t-76.5 41t-84 47.5t-76.5 59.5
t-56 85t-21.5 116q0 135 105 232.5t280 97.5q119 0 216.5 -53t142.5 -137l-186 -142q-71 123 -181 123q-55 0 -91 -32t-36 -74zM305 -520q-70 0 -121 51.5t-51 120.5q0 68 51 118t121 50q69 0 119.5 -50t50.5 -118q0 -69 -50.5 -120.5t-119.5 -51.5z" />
    <glyph glyph-name="Tdotbelow" unicode="&#x1e6c;" horiz-adv-x="1267" 
d="M176 1169l47 265h1143l-45 -265h-428l-205 -1169h-291l205 1169h-426zM479 -520q-70 0 -121 51.5t-51 120.5q0 68 51 118t121 50q69 0 119.5 -50t50.5 -118q0 -69 -50.5 -120.5t-119.5 -51.5z" />
    <glyph glyph-name="tdotbelow" unicode="&#x1e6d;" horiz-adv-x="851" 
d="M195 416l67 383h-186l43 233h186l45 258h262l-45 -258h301l-41 -233h-301l-71 -406q-18 -95 15 -135.5t114 -40.5q74 0 147 25l-39 -228q-78 -34 -186 -34q-190 0 -269.5 109.5t-41.5 326.5zM352 -520q-70 0 -121 51.5t-51 120.5q0 68 51 118t121 50q69 0 119.5 -50
t50.5 -118q0 -69 -50.5 -120.5t-119.5 -51.5z" />
    <glyph glyph-name="Tlinebelow" unicode="&#x1e6e;" horiz-adv-x="1267" 
d="M176 1169l47 265h1143l-45 -265h-428l-205 -1169h-291l205 1169h-426zM117 -469l35 193h700l-33 -193h-702z" />
    <glyph glyph-name="tlinebelow" unicode="&#x1e6f;" horiz-adv-x="851" 
d="M195 416l67 383h-186l43 233h186l45 258h262l-45 -258h301l-41 -233h-301l-71 -406q-18 -95 15 -135.5t114 -40.5q74 0 147 25l-39 -228q-78 -34 -186 -34q-190 0 -269.5 109.5t-41.5 326.5zM-10 -469l35 193h700l-33 -193h-702z" />
    <glyph glyph-name="Wgrave" unicode="&#x1e80;" horiz-adv-x="2136" 
d="M1130 1556l-206 277h288l177 -277h-259zM213 1434h291l55 -1076l473 1076h381l92 -1072l437 1072h307l-594 -1434h-393l-95 1096l-481 -1096h-383z" />
    <glyph glyph-name="wgrave" unicode="&#x1e81;" horiz-adv-x="1669" 
d="M836 1196l-181 340h275l143 -340h-237zM141 1032h248l41 -756l311 756h353l45 -751l307 751h266l-420 -1032h-364l-47 791l-328 -791h-354z" />
    <glyph glyph-name="Wacute" unicode="&#x1e82;" horiz-adv-x="2136" 
d="M1389 1556h-273l273 277h307zM213 1434h291l55 -1076l473 1076h381l92 -1072l437 1072h307l-594 -1434h-393l-95 1096l-481 -1096h-383z" />
    <glyph glyph-name="wacute" unicode="&#x1e83;" horiz-adv-x="1669" 
d="M1083 1196h-258l265 340h292zM141 1032h248l41 -756l311 756h353l45 -751l307 751h266l-420 -1032h-364l-47 791l-328 -791h-354z" />
    <glyph glyph-name="Wdieresis" unicode="&#x1e84;" horiz-adv-x="2136" 
d="M1059 1559q-60 0 -103 42.5t-43 102.5q0 59 43 101t103 42t103.5 -42.5t43.5 -100.5q0 -60 -43.5 -102.5t-103.5 -42.5zM1499 1559q-61 0 -104 42.5t-43 102.5q0 59 43 101t104 42q59 0 102.5 -42.5t43.5 -100.5q0 -60 -43.5 -102.5t-102.5 -42.5zM213 1434h291l55 -1076
l473 1076h381l92 -1072l437 1072h307l-594 -1434h-393l-95 1096l-481 -1096h-383z" />
    <glyph glyph-name="wdieresis" unicode="&#x1e85;" horiz-adv-x="1669" 
d="M770 1237q-64 0 -112 47.5t-48 110.5t48 110t112 47q63 0 110.5 -47t47.5 -110t-47.5 -110.5t-110.5 -47.5zM1214 1237q-64 0 -111.5 47.5t-47.5 110.5t47.5 110t111.5 47q63 0 110.5 -47t47.5 -110t-47.5 -110.5t-110.5 -47.5zM141 1032h248l41 -756l311 756h353
l45 -751l307 751h266l-420 -1032h-364l-47 791l-328 -791h-354z" />
    <glyph glyph-name="Zdotbelow" unicode="&#x1e92;" horiz-adv-x="1384" 
d="M31 0l45 264l905 905h-725l47 265h1104l-47 -265l-901 -905h762l-47 -264h-1143zM545 -520q-70 0 -121 51.5t-51 120.5q0 68 51 118t121 50q69 0 119.5 -50t50.5 -118q0 -69 -50.5 -120.5t-119.5 -51.5z" />
    <glyph glyph-name="zdotbelow" unicode="&#x1e93;" horiz-adv-x="1064" 
d="M23 0l43 233l596 566h-484l41 233h813l-41 -233l-598 -566h512l-41 -233h-841zM381 -520q-70 0 -121 51.5t-51 120.5q0 68 51 118t121 50q69 0 119.5 -50t50.5 -118q0 -69 -50.5 -120.5t-119.5 -51.5z" />
    <glyph glyph-name="hlinebelow" unicode="&#x1e96;" horiz-adv-x="1224" 
d="M57 0l271 1536h262l-103 -578q132 115 291 115q181 0 273.5 -119t54.5 -340l-107 -614h-262l107 604q19 103 -22.5 163t-133.5 60q-82 0 -145.5 -45t-104.5 -108l-2 2l-119 -676h-260zM102 -469l35 193h701l-33 -193h-703z" />
    <glyph glyph-name="tdieresis" unicode="&#x1e97;" horiz-adv-x="851" 
d="M313 1434q-64 0 -111.5 47t-47.5 110t47.5 110.5t111.5 47.5q63 0 110.5 -47.5t47.5 -110.5t-47.5 -110t-110.5 -47zM758 1434q-64 0 -112 47t-48 110t48 110.5t112 47.5q63 0 110 -47.5t47 -110.5t-47 -110t-110 -47zM195 416l67 383h-186l43 233h186l45 258h262
l-45 -258h301l-41 -233h-301l-71 -406q-18 -95 15 -135.5t114 -40.5q74 0 147 25l-39 -228q-78 -34 -186 -34q-190 0 -269.5 109.5t-41.5 326.5z" />
    <glyph glyph-name="Germandbls" unicode="&#x1e9e;" horiz-adv-x="1634" 
d="M113 0l254 1434h1243l-47 -265l-371 -352q155 -31 249.5 -129t94.5 -256q0 -98 -36 -184.5t-100.5 -150.5t-159.5 -101t-206 -37q-164 0 -287.5 56.5t-197.5 164.5l211 185q51 -74 121.5 -112t146.5 -38q98 0 153.5 55.5t55.5 141.5q0 90 -61 135t-160 45h-225l40 239
l361 338h-582l-207 -1169h-290z" />
    <glyph glyph-name="Adotbelow" unicode="&#x1ea0;" horiz-adv-x="1482" 
d="M-63 0l778 1434h381l270 -1434h-301l-66 373h-548l-197 -373h-317zM584 621h372l-94 528zM621 -520q-70 0 -121 51.5t-51 120.5q0 68 51 118t121 50q69 0 119.5 -50t50.5 -118q0 -69 -50.5 -120.5t-119.5 -51.5z" />
    <glyph glyph-name="adotbelow" unicode="&#x1ea1;" horiz-adv-x="1120" 
d="M369 -31q-145 0 -235.5 72.5t-90.5 204.5q0 127 90.5 218t272.5 122l342 59l4 23q14 81 -27.5 129.5t-128.5 48.5q-128 0 -240 -125l-184 153q71 87 186 143t254 56q154 0 252 -60.5t131.5 -164t8.5 -240.5l-109 -608h-260l14 78q-106 -109 -280 -109zM307 279
q0 -48 34 -75.5t97 -27.5q74 0 140 32t108 85l29 166l-256 -45q-77 -13 -114.5 -49.5t-37.5 -85.5zM410 -520q-70 0 -121 51.5t-51 120.5q0 68 51 118t121 50q69 0 119.5 -50t50.5 -118q0 -69 -50.5 -120.5t-119.5 -51.5z" />
    <glyph glyph-name="Ahoi" unicode="&#x1ea2;" horiz-adv-x="1482" 
d="M862 1497l-8 160q91 13 125.5 32.5t34.5 53.5q0 47 -66 47q-72 0 -151 -61l-80 135q112 94 252 94q100 0 165.5 -53.5t65.5 -145.5q0 -115 -86 -178t-252 -84zM-63 0l778 1434h381l270 -1434h-301l-66 373h-548l-197 -373h-317zM584 621h372l-94 528z" />
    <glyph glyph-name="ahoi" unicode="&#x1ea3;" horiz-adv-x="1120" 
d="M627 1135l-9 157q95 13 132.5 36.5t37.5 64.5q0 26 -18 41.5t-53 15.5q-69 0 -148 -61l-80 135q112 94 252 94q99 0 165 -54t69 -149q0 -241 -348 -280zM369 -31q-145 0 -235.5 72.5t-90.5 204.5q0 127 90.5 218t272.5 122l342 59l4 23q14 81 -27.5 129.5t-128.5 48.5
q-128 0 -240 -125l-184 153q71 87 186 143t254 56q154 0 252 -60.5t131.5 -164t8.5 -240.5l-109 -608h-260l14 78q-106 -109 -280 -109zM307 279q0 -48 34 -75.5t97 -27.5q74 0 140 32t108 85l29 166l-256 -45q-77 -13 -114.5 -49.5t-37.5 -85.5z" />
    <glyph glyph-name="Acircumflexacute" unicode="&#x1ea4;" horiz-adv-x="1482" 
d="M1468 1765h-258l279 277h295zM795 1556h-242l274 277h295l174 -277h-217l-114 152zM-63 0l778 1434h381l270 -1434h-301l-66 373h-548l-197 -373h-317zM584 621h372l-94 528z" />
    <glyph glyph-name="acircumflexacute" unicode="&#x1ea5;" horiz-adv-x="1120" 
d="M1219 1364h-258l278 276h295zM545 1155h-242l275 277h294l175 -277h-218l-114 152zM369 -31q-145 0 -235.5 72.5t-90.5 204.5q0 127 90.5 218t272.5 122l342 59l4 23q14 81 -27.5 129.5t-128.5 48.5q-128 0 -240 -125l-184 153q71 87 186 143t254 56q154 0 252 -60.5
t131.5 -164t8.5 -240.5l-109 -608h-260l14 78q-106 -109 -280 -109zM307 279q0 -48 34 -75.5t97 -27.5q74 0 140 32t108 85l29 166l-256 -45q-77 -13 -114.5 -49.5t-37.5 -85.5z" />
    <glyph glyph-name="Acircumflexgrave" unicode="&#x1ea6;" horiz-adv-x="1482" 
d="M1282 1765l-217 277h276l183 -277h-242zM795 1556h-242l274 277h295l174 -277h-217l-114 152zM-63 0l778 1434h381l270 -1434h-301l-66 373h-548l-197 -373h-317zM584 621h372l-94 528z" />
    <glyph glyph-name="acircumflexgrave" unicode="&#x1ea7;" horiz-adv-x="1120" 
d="M1032 1364l-217 276h277l182 -276h-242zM545 1155h-242l275 277h294l175 -277h-218l-114 152zM369 -31q-145 0 -235.5 72.5t-90.5 204.5q0 127 90.5 218t272.5 122l342 59l4 23q14 81 -27.5 129.5t-128.5 48.5q-128 0 -240 -125l-184 153q71 87 186 143t254 56
q154 0 252 -60.5t131.5 -164t8.5 -240.5l-109 -608h-260l14 78q-106 -109 -280 -109zM307 279q0 -48 34 -75.5t97 -27.5q74 0 140 32t108 85l29 166l-256 -45q-77 -13 -114.5 -49.5t-37.5 -85.5z" />
    <glyph glyph-name="Acircumflexhoi" unicode="&#x1ea8;" horiz-adv-x="1482" 
d="M1280 1710l-8 135q72 10 100.5 26.5t28.5 43.5q0 16 -15 26.5t-43 10.5q-65 0 -129 -49l-69 112q41 36 99 58t118 22q86 0 142.5 -44t56.5 -124q0 -181 -281 -217zM795 1556h-242l274 277h295l174 -277h-217l-114 152zM-63 0l778 1434h381l270 -1434h-301l-66 373h-548
l-197 -373h-317zM584 621h372l-94 528z" />
    <glyph glyph-name="acircumflexhoi" unicode="&#x1ea9;" horiz-adv-x="1120" 
d="M1030 1309l-8 135q72 10 100.5 26t28.5 43q0 16 -14.5 26.5t-42.5 10.5q-65 0 -129 -49l-70 113q41 36 99 58t118 22q86 0 142.5 -44t56.5 -124q0 -181 -281 -217zM545 1155h-242l275 277h294l175 -277h-218l-114 152zM369 -31q-145 0 -235.5 72.5t-90.5 204.5
q0 127 90.5 218t272.5 122l342 59l4 23q14 81 -27.5 129.5t-128.5 48.5q-128 0 -240 -125l-184 153q71 87 186 143t254 56q154 0 252 -60.5t131.5 -164t8.5 -240.5l-109 -608h-260l14 78q-106 -109 -280 -109zM307 279q0 -48 34 -75.5t97 -27.5q74 0 140 32t108 85l29 166
l-256 -45q-77 -13 -114.5 -49.5t-37.5 -85.5z" />
    <glyph glyph-name="Acircumflextilde" unicode="&#x1eaa;" horiz-adv-x="1482" 
d="M618 1901l11 63q13 107 75 164t146 57q55 0 104 -20.5t77.5 -45t58.5 -45t51 -20.5q44 0 57 62l8 49h193l-8 -64q-14 -108 -76 -164.5t-146 -56.5q-56 0 -105.5 20.5t-78.5 45t-58.5 45t-49.5 20.5q-43 0 -56 -61l-8 -49h-195zM795 1556h-242l274 277h295l174 -277h-217
l-114 152zM-63 0l778 1434h381l270 -1434h-301l-66 373h-548l-197 -373h-317zM584 621h372l-94 528z" />
    <glyph glyph-name="acircumflextilde" unicode="&#x1eab;" horiz-adv-x="1120" 
d="M369 1499l10 64q13 107 75 164t146 57q55 0 104 -20.5t77.5 -45t58.5 -45t51 -20.5q44 0 57 61l8 49h193l-8 -63q-14 -108 -75.5 -164.5t-145.5 -56.5q-56 0 -106 20.5t-79 45t-58.5 45t-49.5 20.5q-43 0 -56 -62l-8 -49h-194zM545 1155h-242l275 277h294l175 -277h-218
l-114 152zM369 -31q-145 0 -235.5 72.5t-90.5 204.5q0 127 90.5 218t272.5 122l342 59l4 23q14 81 -27.5 129.5t-128.5 48.5q-128 0 -240 -125l-184 153q71 87 186 143t254 56q154 0 252 -60.5t131.5 -164t8.5 -240.5l-109 -608h-260l14 78q-106 -109 -280 -109zM307 279
q0 -48 34 -75.5t97 -27.5q74 0 140 32t108 85l29 166l-256 -45q-77 -13 -114.5 -49.5t-37.5 -85.5z" />
    <glyph glyph-name="Acircumflexdotbelow" unicode="&#x1eac;" horiz-adv-x="1482" 
d="M795 1556h-242l274 277h295l174 -277h-217l-114 152zM-63 0l778 1434h381l270 -1434h-301l-66 373h-548l-197 -373h-317zM584 621h372l-94 528zM621 -520q-70 0 -121 51.5t-51 120.5q0 68 51 118t121 50q69 0 119.5 -50t50.5 -118q0 -69 -50.5 -120.5t-119.5 -51.5z" />
    <glyph glyph-name="acircumflexdotbelow" unicode="&#x1ead;" horiz-adv-x="1120" 
d="M543 1196h-240l264 340h332l143 -340h-219l-102 215zM369 -31q-145 0 -235.5 72.5t-90.5 204.5q0 127 90.5 218t272.5 122l342 59l4 23q14 81 -27.5 129.5t-128.5 48.5q-128 0 -240 -125l-184 153q71 87 186 143t254 56q154 0 252 -60.5t131.5 -164t8.5 -240.5l-109 -608
h-260l14 78q-106 -109 -280 -109zM307 279q0 -48 34 -75.5t97 -27.5q74 0 140 32t108 85l29 166l-256 -45q-77 -13 -114.5 -49.5t-37.5 -85.5zM410 -520q-70 0 -121 51.5t-51 120.5q0 68 51 118t121 50q69 0 119.5 -50t50.5 -118q0 -69 -50.5 -120.5t-119.5 -51.5z" />
    <glyph glyph-name="Abreveacute" unicode="&#x1eae;" horiz-adv-x="1482" 
d="M1120 1894h-272l272 277h307zM956 1712q140 0 172 121h220q-25 -147 -126.5 -222t-269.5 -75q-177 0 -275 79.5t-75 217.5h205q-5 -59 30.5 -90t118.5 -31zM-63 0l778 1434h381l270 -1434h-301l-66 373h-548l-197 -373h-317zM584 621h372l-94 528z" />
    <glyph glyph-name="abreveacute" unicode="&#x1eaf;" horiz-adv-x="1120" 
d="M870 1493h-272l272 276h308zM707 1311q140 0 172 121h219q-25 -147 -126.5 -222t-269.5 -75q-177 0 -275 79.5t-75 217.5h205q-5 -59 30.5 -90t119.5 -31zM369 -31q-145 0 -235.5 72.5t-90.5 204.5q0 127 90.5 218t272.5 122l342 59l4 23q14 81 -27.5 129.5t-128.5 48.5
q-128 0 -240 -125l-184 153q71 87 186 143t254 56q154 0 252 -60.5t131.5 -164t8.5 -240.5l-109 -608h-260l14 78q-106 -109 -280 -109zM307 279q0 -48 34 -75.5t97 -27.5q74 0 140 32t108 85l29 166l-256 -45q-77 -13 -114.5 -49.5t-37.5 -85.5z" />
    <glyph glyph-name="Abrevegrave" unicode="&#x1eb0;" horiz-adv-x="1482" 
d="M862 1894l-207 277h289l176 -277h-258zM956 1712q140 0 172 121h220q-25 -147 -126.5 -222t-269.5 -75q-177 0 -275 79.5t-75 217.5h205q-5 -59 30.5 -90t118.5 -31zM-63 0l778 1434h381l270 -1434h-301l-66 373h-548l-197 -373h-317zM584 621h372l-94 528z" />
    <glyph glyph-name="abrevegrave" unicode="&#x1eb1;" horiz-adv-x="1120" 
d="M612 1493l-206 276h288l176 -276h-258zM707 1311q140 0 172 121h219q-25 -147 -126.5 -222t-269.5 -75q-177 0 -275 79.5t-75 217.5h205q-5 -59 30.5 -90t119.5 -31zM369 -31q-145 0 -235.5 72.5t-90.5 204.5q0 127 90.5 218t272.5 122l342 59l4 23q14 81 -27.5 129.5
t-128.5 48.5q-128 0 -240 -125l-184 153q71 87 186 143t254 56q154 0 252 -60.5t131.5 -164t8.5 -240.5l-109 -608h-260l14 78q-106 -109 -280 -109zM307 279q0 -48 34 -75.5t97 -27.5q74 0 140 32t108 85l29 166l-256 -45q-77 -13 -114.5 -49.5t-37.5 -85.5z" />
    <glyph glyph-name="Abrevehoi" unicode="&#x1eb2;" horiz-adv-x="1482" 
d="M922 1835l-9 160q91 13 125.5 32.5t34.5 53.5q0 47 -65 47q-71 0 -152 -62l-80 136q112 94 252 94q100 0 166 -53.5t66 -145.5q0 -115 -86 -178t-252 -84zM956 1712q140 0 172 121h220q-25 -147 -126.5 -222t-269.5 -75q-177 0 -275 79.5t-75 217.5h205q-5 -59 30.5 -90
t118.5 -31zM-63 0l778 1434h381l270 -1434h-301l-66 373h-548l-197 -373h-317zM584 621h372l-94 528z" />
    <glyph glyph-name="abrevehoi" unicode="&#x1eb3;" horiz-adv-x="1120" 
d="M672 1434l-8 159q91 13 125 32.5t34 53.5q0 47 -65 47q-73 0 -152 -61l-80 135q112 94 252 94q100 0 166 -53t66 -145q0 -115 -86 -178t-252 -84zM707 1311q140 0 172 121h219q-25 -147 -126.5 -222t-269.5 -75q-177 0 -275 79.5t-75 217.5h205q-5 -59 30.5 -90
t119.5 -31zM369 -31q-145 0 -235.5 72.5t-90.5 204.5q0 127 90.5 218t272.5 122l342 59l4 23q14 81 -27.5 129.5t-128.5 48.5q-128 0 -240 -125l-184 153q71 87 186 143t254 56q154 0 252 -60.5t131.5 -164t8.5 -240.5l-109 -608h-260l14 78q-106 -109 -280 -109zM307 279
q0 -48 34 -75.5t97 -27.5q74 0 140 32t108 85l29 166l-256 -45q-77 -13 -114.5 -49.5t-37.5 -85.5z" />
    <glyph glyph-name="Abrevetilde" unicode="&#x1eb4;" horiz-adv-x="1482" 
d="M618 1901l11 63q13 107 75 164t146 57q55 0 104 -20.5t77.5 -45t58.5 -45t51 -20.5q44 0 57 62l8 49h193l-8 -64q-14 -108 -76 -164.5t-146 -56.5q-56 0 -105.5 20.5t-78.5 45t-58.5 45t-49.5 20.5q-43 0 -56 -61l-8 -49h-195zM956 1712q140 0 172 121h220
q-25 -147 -126.5 -222t-269.5 -75q-177 0 -275 79.5t-75 217.5h205q-5 -59 30.5 -90t118.5 -31zM-63 0l778 1434h381l270 -1434h-301l-66 373h-548l-197 -373h-317zM584 621h372l-94 528z" />
    <glyph glyph-name="abrevetilde" unicode="&#x1eb5;" horiz-adv-x="1120" 
d="M369 1499l10 64q13 107 75 164t146 57q55 0 104 -20.5t77.5 -45t58.5 -45t51 -20.5q44 0 57 61l8 49h193l-8 -63q-14 -108 -75.5 -164.5t-145.5 -56.5q-56 0 -106 20.5t-79 45t-58.5 45t-49.5 20.5q-43 0 -56 -62l-8 -49h-194zM707 1311q140 0 172 121h219
q-25 -147 -126.5 -222t-269.5 -75q-177 0 -275 79.5t-75 217.5h205q-5 -59 30.5 -90t119.5 -31zM369 -31q-145 0 -235.5 72.5t-90.5 204.5q0 127 90.5 218t272.5 122l342 59l4 23q14 81 -27.5 129.5t-128.5 48.5q-128 0 -240 -125l-184 153q71 87 186 143t254 56
q154 0 252 -60.5t131.5 -164t8.5 -240.5l-109 -608h-260l14 78q-106 -109 -280 -109zM307 279q0 -48 34 -75.5t97 -27.5q74 0 140 32t108 85l29 166l-256 -45q-77 -13 -114.5 -49.5t-37.5 -85.5z" />
    <glyph glyph-name="Abrevedotbelow" unicode="&#x1eb6;" horiz-adv-x="1482" 
d="M956 1712q140 0 172 121h220q-25 -147 -126.5 -222t-269.5 -75q-177 0 -275 79.5t-75 217.5h205q-5 -59 30.5 -90t118.5 -31zM-63 0l778 1434h381l270 -1434h-301l-66 373h-548l-197 -373h-317zM584 621h372l-94 528zM621 -520q-70 0 -121 51.5t-51 120.5q0 68 51 118
t121 50q69 0 119.5 -50t50.5 -118q0 -69 -50.5 -120.5t-119.5 -51.5z" />
    <glyph glyph-name="abrevedotbelow" unicode="&#x1eb7;" horiz-adv-x="1120" 
d="M731 1372q142 0 170 164h217q-52 -340 -401 -340q-165 0 -258 92t-66 248h205q-20 -164 133 -164zM369 -31q-145 0 -235.5 72.5t-90.5 204.5q0 127 90.5 218t272.5 122l342 59l4 23q14 81 -27.5 129.5t-128.5 48.5q-128 0 -240 -125l-184 153q71 87 186 143t254 56
q154 0 252 -60.5t131.5 -164t8.5 -240.5l-109 -608h-260l14 78q-106 -109 -280 -109zM307 279q0 -48 34 -75.5t97 -27.5q74 0 140 32t108 85l29 166l-256 -45q-77 -13 -114.5 -49.5t-37.5 -85.5zM410 -520q-70 0 -121 51.5t-51 120.5q0 68 51 118t121 50q69 0 119.5 -50
t50.5 -118q0 -69 -50.5 -120.5t-119.5 -51.5z" />
    <glyph glyph-name="Edotbelow" unicode="&#x1eb8;" horiz-adv-x="1161" 
d="M113 0l254 1434h815l-41 -242h-527l-59 -340h444l-41 -242h-446l-66 -368h525l-41 -242h-817zM494 -520q-70 0 -121 51.5t-51 120.5q0 68 51 118t121 50q69 0 119.5 -50t50.5 -118q0 -69 -50.5 -120.5t-119.5 -51.5z" />
    <glyph glyph-name="edotbelow" unicode="&#x1eb9;" horiz-adv-x="1146" 
d="M573 -41q-234 0 -368.5 138.5t-134.5 357.5q0 171 67.5 310.5t199.5 223.5t306 84q191 0 316.5 -113t125.5 -290q0 -50 -12.5 -109.5t-30.5 -97.5h-706v-8q0 -132 65.5 -197t190.5 -65q169 0 278 135l170 -168q-83 -95 -204.5 -148t-262.5 -53zM639 860
q-103 0 -171.5 -56t-102.5 -153h464q11 82 -38.5 145.5t-151.5 63.5zM479 -520q-70 0 -121 51.5t-51 120.5q0 68 51 118t121 50q69 0 119.5 -50t50.5 -118q0 -69 -50.5 -120.5t-119.5 -51.5z" />
    <glyph glyph-name="Ehoi" unicode="&#x1eba;" horiz-adv-x="1161" 
d="M715 1497l-8 160q91 13 125 32.5t34 53.5q0 47 -65 47q-73 0 -152 -61l-80 135q112 94 252 94q100 0 166 -53.5t66 -145.5q0 -115 -86 -178t-252 -84zM113 0l254 1434h815l-41 -242h-527l-59 -340h444l-41 -242h-446l-66 -368h525l-41 -242h-817z" />
    <glyph glyph-name="ehoi" unicode="&#x1ebb;" horiz-adv-x="1146" 
d="M641 1135l-8 157q95 13 132.5 36.5t37.5 64.5q0 26 -18.5 41.5t-53.5 15.5q-68 0 -147 -61l-80 135q112 94 252 94q99 0 164.5 -54t68.5 -149q0 -241 -348 -280zM573 -41q-234 0 -368.5 138.5t-134.5 357.5q0 171 67.5 310.5t199.5 223.5t306 84q191 0 316.5 -113
t125.5 -290q0 -50 -12.5 -109.5t-30.5 -97.5h-706v-8q0 -132 65.5 -197t190.5 -65q169 0 278 135l170 -168q-83 -95 -204.5 -148t-262.5 -53zM639 860q-103 0 -171.5 -56t-102.5 -153h464q11 82 -38.5 145.5t-151.5 63.5z" />
    <glyph glyph-name="Etilde" unicode="&#x1ebc;" horiz-adv-x="1161" 
d="M412 1563l10 63q13 107 75 164t146 57q55 0 104 -20.5t77.5 -45t58.5 -45t51 -20.5q44 0 57 62l8 49h193l-8 -64q-14 -108 -75.5 -164.5t-145.5 -56.5q-56 0 -106 20.5t-79 45t-58.5 45t-49.5 20.5q-43 0 -56 -61l-8 -49h-194zM113 0l254 1434h815l-41 -242h-527
l-59 -340h444l-41 -242h-446l-66 -368h525l-41 -242h-817z" />
    <glyph glyph-name="etilde" unicode="&#x1ebd;" horiz-adv-x="1146" 
d="M504 1206h-185l9 72q15 129 76.5 195.5t154.5 66.5q47 0 89.5 -16.5t72.5 -39.5t56 -46t50.5 -39.5t46.5 -16.5q56 0 66 66l8 78h185l-9 -72q-15 -129 -76 -195.5t-153 -66.5q-48 0 -90.5 16.5t-73 39.5t-56.5 46t-50.5 39.5t-46.5 16.5q-54 0 -64 -66zM573 -41
q-234 0 -368.5 138.5t-134.5 357.5q0 171 67.5 310.5t199.5 223.5t306 84q191 0 316.5 -113t125.5 -290q0 -50 -12.5 -109.5t-30.5 -97.5h-706v-8q0 -132 65.5 -197t190.5 -65q169 0 278 135l170 -168q-83 -95 -204.5 -148t-262.5 -53zM639 860q-103 0 -171.5 -56
t-102.5 -153h464q11 82 -38.5 145.5t-151.5 63.5z" />
    <glyph glyph-name="Ecircumflexacute" unicode="&#x1ebe;" horiz-adv-x="1161" 
d="M1319 1765h-258l278 277h295zM647 1556h-241l274 277h295l174 -277h-217l-115 152zM113 0l254 1434h815l-41 -242h-527l-59 -340h444l-41 -242h-446l-66 -368h525l-41 -242h-817z" />
    <glyph glyph-name="ecircumflexacute" unicode="&#x1ebf;" horiz-adv-x="1146" 
d="M1233 1364h-258l278 276h295zM559 1155h-242l275 277h295l174 -277h-217l-115 152zM573 -41q-234 0 -368.5 138.5t-134.5 357.5q0 171 67.5 310.5t199.5 223.5t306 84q191 0 316.5 -113t125.5 -290q0 -50 -12.5 -109.5t-30.5 -97.5h-706v-8q0 -132 65.5 -197t190.5 -65
q169 0 278 135l170 -168q-83 -95 -204.5 -148t-262.5 -53zM639 860q-103 0 -171.5 -56t-102.5 -153h464q11 82 -38.5 145.5t-151.5 63.5z" />
    <glyph glyph-name="Ecircumflexgrave" unicode="&#x1ec0;" horiz-adv-x="1161" 
d="M1133 1765l-218 277h277l182 -277h-241zM647 1556h-241l274 277h295l174 -277h-217l-115 152zM113 0l254 1434h815l-41 -242h-527l-59 -340h444l-41 -242h-446l-66 -368h525l-41 -242h-817z" />
    <glyph glyph-name="ecircumflexgrave" unicode="&#x1ec1;" horiz-adv-x="1146" 
d="M1047 1364l-218 276h277l182 -276h-241zM559 1155h-242l275 277h295l174 -277h-217l-115 152zM573 -41q-234 0 -368.5 138.5t-134.5 357.5q0 171 67.5 310.5t199.5 223.5t306 84q191 0 316.5 -113t125.5 -290q0 -50 -12.5 -109.5t-30.5 -97.5h-706v-8q0 -132 65.5 -197
t190.5 -65q169 0 278 135l170 -168q-83 -95 -204.5 -148t-262.5 -53zM639 860q-103 0 -171.5 -56t-102.5 -153h464q11 82 -38.5 145.5t-151.5 63.5z" />
    <glyph glyph-name="Ecircumflexhoi" unicode="&#x1ec2;" horiz-adv-x="1161" 
d="M1130 1710l-8 135q72 10 100.5 26.5t28.5 43.5q0 16 -14.5 26.5t-42.5 10.5q-65 0 -129 -49l-70 112q41 36 99 58t118 22q86 0 142.5 -44t56.5 -124q0 -181 -281 -217zM647 1556h-241l274 277h295l174 -277h-217l-115 152zM113 0l254 1434h815l-41 -242h-527l-59 -340
h444l-41 -242h-446l-66 -368h525l-41 -242h-817z" />
    <glyph glyph-name="ecircumflexhoi" unicode="&#x1ec3;" horiz-adv-x="1146" 
d="M1044 1309l-8 135q72 10 100.5 26t28.5 43q0 16 -14.5 26.5t-42.5 10.5q-65 0 -129 -49l-70 113q41 36 99 58t118 22q86 0 142.5 -44t56.5 -124q0 -181 -281 -217zM559 1155h-242l275 277h295l174 -277h-217l-115 152zM573 -41q-234 0 -368.5 138.5t-134.5 357.5
q0 171 67.5 310.5t199.5 223.5t306 84q191 0 316.5 -113t125.5 -290q0 -50 -12.5 -109.5t-30.5 -97.5h-706v-8q0 -132 65.5 -197t190.5 -65q169 0 278 135l170 -168q-83 -95 -204.5 -148t-262.5 -53zM639 860q-103 0 -171.5 -56t-102.5 -153h464q11 82 -38.5 145.5
t-151.5 63.5z" />
    <glyph glyph-name="Ecircumflextilde" unicode="&#x1ec4;" horiz-adv-x="1161" 
d="M469 1901l10 63q13 107 75 164t146 57q55 0 104 -20.5t77.5 -45t58.5 -45t51 -20.5q45 0 58 62l8 49h192l-8 -64q-14 -108 -75.5 -164.5t-145.5 -56.5q-56 0 -106 20.5t-79 45t-58.5 45t-49.5 20.5q-42 0 -55 -61l-8 -49h-195zM647 1556h-241l274 277h295l174 -277h-217
l-115 152zM113 0l254 1434h815l-41 -242h-527l-59 -340h444l-41 -242h-446l-66 -368h525l-41 -242h-817z" />
    <glyph glyph-name="ecircumflextilde" unicode="&#x1ec5;" horiz-adv-x="1146" 
d="M383 1499l10 64q13 107 75 164t146 57q55 0 104 -20.5t77.5 -45t58.5 -45t51 -20.5q45 0 58 61l8 49h192l-8 -63q-14 -108 -75.5 -164.5t-145.5 -56.5q-56 0 -106 20.5t-79 45t-58.5 45t-49.5 20.5q-42 0 -55 -62l-8 -49h-195zM559 1155h-242l275 277h295l174 -277h-217
l-115 152zM573 -41q-234 0 -368.5 138.5t-134.5 357.5q0 171 67.5 310.5t199.5 223.5t306 84q191 0 316.5 -113t125.5 -290q0 -50 -12.5 -109.5t-30.5 -97.5h-706v-8q0 -132 65.5 -197t190.5 -65q169 0 278 135l170 -168q-83 -95 -204.5 -148t-262.5 -53zM639 860
q-103 0 -171.5 -56t-102.5 -153h464q11 82 -38.5 145.5t-151.5 63.5z" />
    <glyph glyph-name="Ecircumflexdotbelow" unicode="&#x1ec6;" horiz-adv-x="1161" 
d="M647 1556h-241l274 277h295l174 -277h-217l-115 152zM113 0l254 1434h815l-41 -242h-527l-59 -340h444l-41 -242h-446l-66 -368h525l-41 -242h-817zM494 -520q-70 0 -121 51.5t-51 120.5q0 68 51 118t121 50q69 0 119.5 -50t50.5 -118q0 -69 -50.5 -120.5t-119.5 -51.5z
" />
    <glyph glyph-name="ecircumflexdotbelow" unicode="&#x1ec7;" horiz-adv-x="1146" 
d="M557 1196h-240l265 340h331l144 -340h-219l-103 215zM573 -41q-234 0 -368.5 138.5t-134.5 357.5q0 171 67.5 310.5t199.5 223.5t306 84q191 0 316.5 -113t125.5 -290q0 -50 -12.5 -109.5t-30.5 -97.5h-706v-8q0 -132 65.5 -197t190.5 -65q169 0 278 135l170 -168
q-83 -95 -204.5 -148t-262.5 -53zM639 860q-103 0 -171.5 -56t-102.5 -153h464q11 82 -38.5 145.5t-151.5 63.5zM479 -520q-70 0 -121 51.5t-51 120.5q0 68 51 118t121 50q69 0 119.5 -50t50.5 -118q0 -69 -50.5 -120.5t-119.5 -51.5z" />
    <glyph glyph-name="Ihoi" unicode="&#x1ec8;" horiz-adv-x="696" 
d="M469 1497l-8 160q91 13 125.5 32.5t34.5 53.5q0 47 -66 47q-73 0 -152 -61l-79 135q112 94 251 94q100 0 166 -53.5t66 -145.5q0 -115 -86 -178t-252 -84zM113 0l254 1434h290l-254 -1434h-290z" />
    <glyph glyph-name="ihoi" unicode="&#x1ec9;" horiz-adv-x="557" 
d="M344 1135l-8 157q95 13 132.5 36.5t37.5 64.5q0 26 -18.5 41.5t-53.5 15.5q-68 0 -147 -61l-80 135q112 94 252 94q99 0 164.5 -54t68.5 -149q0 -241 -348 -280zM57 0l183 1032h260l-183 -1032h-260z" />
    <glyph glyph-name="Idotbelow" unicode="&#x1eca;" horiz-adv-x="696" 
d="M113 0l254 1434h290l-254 -1434h-290zM197 -520q-70 0 -121 51.5t-51 120.5q0 68 51 118t121 50q69 0 119.5 -50t50.5 -118q0 -69 -50.5 -120.5t-119.5 -51.5z" />
    <glyph glyph-name="idotbelow" unicode="&#x1ecb;" horiz-adv-x="557" 
d="M430 1212q-69 0 -119.5 50.5t-50.5 119.5t50.5 119.5t119.5 50.5t118.5 -50.5t49.5 -119.5t-49.5 -119.5t-118.5 -50.5zM57 0l183 1032h260l-183 -1032h-260zM127 -520q-70 0 -121 51.5t-51 120.5q0 68 51 118t121 50q69 0 119.5 -50t50.5 -118q0 -69 -50.5 -120.5
t-119.5 -51.5z" />
    <glyph glyph-name="Odotbelow" unicode="&#x1ecc;" horiz-adv-x="1644" 
d="M926 1475q198 0 353 -80.5t243 -233t88 -352.5q0 -136 -38 -263.5t-111 -233.5t-172 -185.5t-228 -123.5t-273 -44q-197 0 -351.5 80.5t-242.5 233t-88 352.5q0 170 60.5 325.5t166.5 271.5t260.5 184.5t332.5 68.5zM799 231q222 0 365 158t143 395q0 117 -44 210.5
t-133.5 150.5t-211.5 57q-222 0 -365 -158t-143 -395q0 -117 44 -210.5t133.5 -150.5t211.5 -57zM672 -520q-70 0 -121 51.5t-51 120.5q0 68 51 118t121 50q69 0 119.5 -50t50.5 -118q0 -69 -50.5 -120.5t-119.5 -51.5z" />
    <glyph glyph-name="odotbelow" unicode="&#x1ecd;" horiz-adv-x="1253" 
d="M680 1073q233 0 370.5 -138.5t137.5 -356.5q0 -122 -43 -234t-120.5 -197.5t-193.5 -136.5t-253 -51q-235 0 -372.5 139t-137.5 357q0 122 43.5 234t120.5 197.5t194 136t254 50.5zM584 205q148 0 238.5 109.5t90.5 263.5q0 110 -68 179.5t-175 69.5q-148 0 -238 -109
t-90 -263q0 -110 67.5 -180t174.5 -70zM475 -520q-70 0 -121 51.5t-51 120.5q0 68 51 118t121 50q69 0 119.5 -50t50.5 -118q0 -69 -50.5 -120.5t-119.5 -51.5z" />
    <glyph glyph-name="Ohoi" unicode="&#x1ece;" horiz-adv-x="1644" 
d="M938 1497l-8 160q91 13 125.5 32.5t34.5 53.5q0 47 -66 47q-73 0 -152 -61l-79 135q112 94 251 94q100 0 166 -53.5t66 -145.5q0 -115 -86 -178t-252 -84zM926 1475q198 0 353 -80.5t243 -233t88 -352.5q0 -136 -38 -263.5t-111 -233.5t-172 -185.5t-228 -123.5t-273 -44
q-197 0 -351.5 80.5t-242.5 233t-88 352.5q0 170 60.5 325.5t166.5 271.5t260.5 184.5t332.5 68.5zM799 231q222 0 365 158t143 395q0 117 -44 210.5t-133.5 150.5t-211.5 57q-222 0 -365 -158t-143 -395q0 -117 44 -210.5t133.5 -150.5t211.5 -57z" />
    <glyph glyph-name="ohoi" unicode="&#x1ecf;" horiz-adv-x="1253" 
d="M692 1135l-8 157q95 13 132.5 36.5t37.5 64.5q0 26 -18.5 41.5t-53.5 15.5q-68 0 -147 -61l-80 135q112 94 252 94q99 0 164.5 -54t68.5 -149q0 -241 -348 -280zM680 1073q233 0 370.5 -138.5t137.5 -356.5q0 -122 -43 -234t-120.5 -197.5t-193.5 -136.5t-253 -51
q-235 0 -372.5 139t-137.5 357q0 122 43.5 234t120.5 197.5t194 136t254 50.5zM584 205q148 0 238.5 109.5t90.5 263.5q0 110 -68 179.5t-175 69.5q-148 0 -238 -109t-90 -263q0 -110 67.5 -180t174.5 -70z" />
    <glyph glyph-name="Ocircumflexacute" unicode="&#x1ed0;" horiz-adv-x="1644" 
d="M1544 1765h-258l279 277h295zM870 1556h-241l274 277h295l174 -277h-217l-115 152zM926 1475q198 0 353 -80.5t243 -233t88 -352.5q0 -136 -38 -263.5t-111 -233.5t-172 -185.5t-228 -123.5t-273 -44q-197 0 -351.5 80.5t-242.5 233t-88 352.5q0 170 60.5 325.5
t166.5 271.5t260.5 184.5t332.5 68.5zM799 231q222 0 365 158t143 395q0 117 -44 210.5t-133.5 150.5t-211.5 57q-222 0 -365 -158t-143 -395q0 -117 44 -210.5t133.5 -150.5t211.5 -57z" />
    <glyph glyph-name="ocircumflexacute" unicode="&#x1ed1;" horiz-adv-x="1253" 
d="M1284 1364h-258l279 276h294zM610 1155h-241l274 277h295l174 -277h-217l-115 152zM680 1073q233 0 370.5 -138.5t137.5 -356.5q0 -122 -43 -234t-120.5 -197.5t-193.5 -136.5t-253 -51q-235 0 -372.5 139t-137.5 357q0 122 43.5 234t120.5 197.5t194 136t254 50.5z
M584 205q148 0 238.5 109.5t90.5 263.5q0 110 -68 179.5t-175 69.5q-148 0 -238 -109t-90 -263q0 -110 67.5 -180t174.5 -70z" />
    <glyph glyph-name="Ocircumflexgrave" unicode="&#x1ed2;" horiz-adv-x="1644" 
d="M1358 1765l-217 277h276l182 -277h-241zM870 1556h-241l274 277h295l174 -277h-217l-115 152zM926 1475q198 0 353 -80.5t243 -233t88 -352.5q0 -136 -38 -263.5t-111 -233.5t-172 -185.5t-228 -123.5t-273 -44q-197 0 -351.5 80.5t-242.5 233t-88 352.5
q0 170 60.5 325.5t166.5 271.5t260.5 184.5t332.5 68.5zM799 231q222 0 365 158t143 395q0 117 -44 210.5t-133.5 150.5t-211.5 57q-222 0 -365 -158t-143 -395q0 -117 44 -210.5t133.5 -150.5t211.5 -57z" />
    <glyph glyph-name="ocircumflexgrave" unicode="&#x1ed3;" horiz-adv-x="1253" 
d="M1098 1364l-217 276h276l182 -276h-241zM610 1155h-241l274 277h295l174 -277h-217l-115 152zM680 1073q233 0 370.5 -138.5t137.5 -356.5q0 -122 -43 -234t-120.5 -197.5t-193.5 -136.5t-253 -51q-235 0 -372.5 139t-137.5 357q0 122 43.5 234t120.5 197.5t194 136
t254 50.5zM584 205q148 0 238.5 109.5t90.5 263.5q0 110 -68 179.5t-175 69.5q-148 0 -238 -109t-90 -263q0 -110 67.5 -180t174.5 -70z" />
    <glyph glyph-name="Ocircumflexhoi" unicode="&#x1ed4;" horiz-adv-x="1644" 
d="M1356 1710l-8 135q72 10 100.5 26.5t28.5 43.5q0 16 -15 26.5t-43 10.5q-65 0 -129 -49l-69 112q41 36 99 58t118 22q86 0 142 -44t56 -124q0 -181 -280 -217zM870 1556h-241l274 277h295l174 -277h-217l-115 152zM926 1475q198 0 353 -80.5t243 -233t88 -352.5
q0 -136 -38 -263.5t-111 -233.5t-172 -185.5t-228 -123.5t-273 -44q-197 0 -351.5 80.5t-242.5 233t-88 352.5q0 170 60.5 325.5t166.5 271.5t260.5 184.5t332.5 68.5zM799 231q222 0 365 158t143 395q0 117 -44 210.5t-133.5 150.5t-211.5 57q-222 0 -365 -158t-143 -395
q0 -117 44 -210.5t133.5 -150.5t211.5 -57z" />
    <glyph glyph-name="ocircumflexhoi" unicode="&#x1ed5;" horiz-adv-x="1253" 
d="M1096 1309l-9 135q72 10 101 26t29 43q0 16 -15 26.5t-43 10.5q-65 0 -129 -49l-69 113q41 36 99 58t118 22q86 0 142 -44t56 -124q0 -181 -280 -217zM610 1155h-241l274 277h295l174 -277h-217l-115 152zM680 1073q233 0 370.5 -138.5t137.5 -356.5q0 -122 -43 -234
t-120.5 -197.5t-193.5 -136.5t-253 -51q-235 0 -372.5 139t-137.5 357q0 122 43.5 234t120.5 197.5t194 136t254 50.5zM584 205q148 0 238.5 109.5t90.5 263.5q0 110 -68 179.5t-175 69.5q-148 0 -238 -109t-90 -263q0 -110 67.5 -180t174.5 -70z" />
    <glyph glyph-name="Ocircumflextilde" unicode="&#x1ed6;" horiz-adv-x="1644" 
d="M694 1901l11 63q13 107 75 164t146 57q55 0 104 -20.5t77.5 -45t58.5 -45t51 -20.5q44 0 57 62l8 49h193l-9 -64q-14 -108 -75.5 -164.5t-145.5 -56.5q-56 0 -106 20.5t-79 45t-58.5 45t-49.5 20.5q-42 0 -55 -61l-8 -49h-195zM870 1556h-241l274 277h295l174 -277h-217
l-115 152zM926 1475q198 0 353 -80.5t243 -233t88 -352.5q0 -136 -38 -263.5t-111 -233.5t-172 -185.5t-228 -123.5t-273 -44q-197 0 -351.5 80.5t-242.5 233t-88 352.5q0 170 60.5 325.5t166.5 271.5t260.5 184.5t332.5 68.5zM799 231q222 0 365 158t143 395
q0 117 -44 210.5t-133.5 150.5t-211.5 57q-222 0 -365 -158t-143 -395q0 -117 44 -210.5t133.5 -150.5t211.5 -57z" />
    <glyph glyph-name="ocircumflextilde" unicode="&#x1ed7;" horiz-adv-x="1253" 
d="M434 1499l10 64q13 107 75 164t147 57q55 0 104 -20.5t77.5 -45t58 -45t50.5 -20.5q45 0 58 61l8 49h192l-8 -63q-14 -108 -75.5 -164.5t-145.5 -56.5q-56 0 -106 20.5t-79 45t-58.5 45t-49.5 20.5q-42 0 -55 -62l-8 -49h-195zM610 1155h-241l274 277h295l174 -277h-217
l-115 152zM680 1073q233 0 370.5 -138.5t137.5 -356.5q0 -122 -43 -234t-120.5 -197.5t-193.5 -136.5t-253 -51q-235 0 -372.5 139t-137.5 357q0 122 43.5 234t120.5 197.5t194 136t254 50.5zM584 205q148 0 238.5 109.5t90.5 263.5q0 110 -68 179.5t-175 69.5
q-148 0 -238 -109t-90 -263q0 -110 67.5 -180t174.5 -70z" />
    <glyph glyph-name="Ocircumflexdotbelow" unicode="&#x1ed8;" horiz-adv-x="1644" 
d="M870 1556h-241l274 277h295l174 -277h-217l-115 152zM926 1475q198 0 353 -80.5t243 -233t88 -352.5q0 -136 -38 -263.5t-111 -233.5t-172 -185.5t-228 -123.5t-273 -44q-197 0 -351.5 80.5t-242.5 233t-88 352.5q0 170 60.5 325.5t166.5 271.5t260.5 184.5t332.5 68.5z
M799 231q222 0 365 158t143 395q0 117 -44 210.5t-133.5 150.5t-211.5 57q-222 0 -365 -158t-143 -395q0 -117 44 -210.5t133.5 -150.5t211.5 -57zM672 -520q-70 0 -121 51.5t-51 120.5q0 68 51 118t121 50q69 0 119.5 -50t50.5 -118q0 -69 -50.5 -120.5t-119.5 -51.5z" />
    <glyph glyph-name="ocircumflexdotbelow" unicode="&#x1ed9;" horiz-adv-x="1253" 
d="M608 1196h-239l264 340h332l143 -340h-219l-103 215zM680 1073q233 0 370.5 -138.5t137.5 -356.5q0 -122 -43 -234t-120.5 -197.5t-193.5 -136.5t-253 -51q-235 0 -372.5 139t-137.5 357q0 122 43.5 234t120.5 197.5t194 136t254 50.5zM584 205q148 0 238.5 109.5
t90.5 263.5q0 110 -68 179.5t-175 69.5q-148 0 -238 -109t-90 -263q0 -110 67.5 -180t174.5 -70zM475 -520q-70 0 -121 51.5t-51 120.5q0 68 51 118t121 50q69 0 119.5 -50t50.5 -118q0 -69 -50.5 -120.5t-119.5 -51.5z" />
    <glyph glyph-name="Ohornacute" unicode="&#x1eda;" horiz-adv-x="1644" 
d="M1137 1556h-273l273 277h307zM926 1475q140 0 258 -41h94q81 0 118.5 39.5t37.5 97.5q0 48 -45 100l147 115q42 -37 71 -91t29 -116q0 -102 -58.5 -178t-160.5 -107q193 -183 193 -485q0 -136 -38 -263.5t-111 -233.5t-172 -185.5t-228 -123.5t-273 -44
q-197 0 -351.5 80.5t-242.5 233t-88 352.5q0 170 60.5 325.5t166.5 271.5t260.5 184.5t332.5 68.5zM799 231q222 0 365 158t143 395q0 117 -44 210.5t-133.5 150.5t-211.5 57q-222 0 -365 -158t-143 -395q0 -117 44 -210.5t133.5 -150.5t211.5 -57z" />
    <glyph glyph-name="ohornacute" unicode="&#x1edb;" horiz-adv-x="1253" 
d="M874 1196h-258l265 340h293zM680 1073q125 0 221 -41h70q83 0 121 39.5t38 97.5q0 53 -45 101l150 114q42 -37 70 -90.5t28 -115.5q0 -107 -65.5 -185t-175.5 -104q96 -132 96 -311q0 -122 -43 -234t-120.5 -197.5t-193.5 -136.5t-253 -51q-235 0 -372.5 139t-137.5 357
q0 122 43.5 234t120.5 197.5t194 136t254 50.5zM584 205q148 0 238.5 109.5t90.5 263.5q0 110 -68 179.5t-175 69.5q-148 0 -238 -109t-90 -263q0 -110 67.5 -180t174.5 -70z" />
    <glyph glyph-name="Ohorngrave" unicode="&#x1edc;" horiz-adv-x="1644" 
d="M879 1556l-207 277h289l176 -277h-258zM926 1475q140 0 258 -41h94q81 0 118.5 39.5t37.5 97.5q0 48 -45 100l147 115q42 -37 71 -91t29 -116q0 -102 -58.5 -178t-160.5 -107q193 -183 193 -485q0 -136 -38 -263.5t-111 -233.5t-172 -185.5t-228 -123.5t-273 -44
q-197 0 -351.5 80.5t-242.5 233t-88 352.5q0 170 60.5 325.5t166.5 271.5t260.5 184.5t332.5 68.5zM799 231q222 0 365 158t143 395q0 117 -44 210.5t-133.5 150.5t-211.5 57q-222 0 -365 -158t-143 -395q0 -117 44 -210.5t133.5 -150.5t211.5 -57z" />
    <glyph glyph-name="ohorngrave" unicode="&#x1edd;" horiz-adv-x="1253" 
d="M627 1196l-181 340h275l143 -340h-237zM680 1073q125 0 221 -41h70q83 0 121 39.5t38 97.5q0 53 -45 101l150 114q42 -37 70 -90.5t28 -115.5q0 -107 -65.5 -185t-175.5 -104q96 -132 96 -311q0 -122 -43 -234t-120.5 -197.5t-193.5 -136.5t-253 -51q-235 0 -372.5 139
t-137.5 357q0 122 43.5 234t120.5 197.5t194 136t254 50.5zM584 205q148 0 238.5 109.5t90.5 263.5q0 110 -68 179.5t-175 69.5q-148 0 -238 -109t-90 -263q0 -110 67.5 -180t174.5 -70z" />
    <glyph glyph-name="Ohornhoi" unicode="&#x1ede;" horiz-adv-x="1644" 
d="M938 1497l-8 160q91 13 125.5 32.5t34.5 53.5q0 47 -66 47q-73 0 -152 -61l-79 135q112 94 251 94q100 0 166 -53.5t66 -145.5q0 -115 -86 -178t-252 -84zM926 1475q140 0 258 -41h94q81 0 118.5 39.5t37.5 97.5q0 48 -45 100l147 115q42 -37 71 -91t29 -116
q0 -102 -58.5 -178t-160.5 -107q193 -183 193 -485q0 -136 -38 -263.5t-111 -233.5t-172 -185.5t-228 -123.5t-273 -44q-197 0 -351.5 80.5t-242.5 233t-88 352.5q0 170 60.5 325.5t166.5 271.5t260.5 184.5t332.5 68.5zM799 231q222 0 365 158t143 395q0 117 -44 210.5
t-133.5 150.5t-211.5 57q-222 0 -365 -158t-143 -395q0 -117 44 -210.5t133.5 -150.5t211.5 -57z" />
    <glyph glyph-name="ohornhoi" unicode="&#x1edf;" horiz-adv-x="1253" 
d="M692 1135l-8 157q95 13 132.5 36.5t37.5 64.5q0 26 -18.5 41.5t-53.5 15.5q-68 0 -147 -61l-80 135q112 94 252 94q99 0 164.5 -54t68.5 -149q0 -241 -348 -280zM680 1073q125 0 221 -41h70q83 0 121 39.5t38 97.5q0 53 -45 101l150 114q42 -37 70 -90.5t28 -115.5
q0 -107 -65.5 -185t-175.5 -104q96 -132 96 -311q0 -122 -43 -234t-120.5 -197.5t-193.5 -136.5t-253 -51q-235 0 -372.5 139t-137.5 357q0 122 43.5 234t120.5 197.5t194 136t254 50.5zM584 205q148 0 238.5 109.5t90.5 263.5q0 110 -68 179.5t-175 69.5q-148 0 -238 -109
t-90 -263q0 -110 67.5 -180t174.5 -70z" />
    <glyph glyph-name="Ohorntilde" unicode="&#x1ee0;" horiz-adv-x="1644" 
d="M635 1563l10 63q13 107 75 164t146 57q55 0 104 -20.5t77.5 -45t58.5 -45t51 -20.5q44 0 57 62l9 49h192l-8 -64q-14 -108 -75.5 -164.5t-145.5 -56.5q-56 0 -106 20.5t-79 45t-58.5 45t-49.5 20.5q-42 0 -55 -61l-9 -49h-194zM926 1475q140 0 258 -41h94
q81 0 118.5 39.5t37.5 97.5q0 48 -45 100l147 115q42 -37 71 -91t29 -116q0 -102 -58.5 -178t-160.5 -107q193 -183 193 -485q0 -136 -38 -263.5t-111 -233.5t-172 -185.5t-228 -123.5t-273 -44q-197 0 -351.5 80.5t-242.5 233t-88 352.5q0 170 60.5 325.5t166.5 271.5
t260.5 184.5t332.5 68.5zM799 231q222 0 365 158t143 395q0 117 -44 210.5t-133.5 150.5t-211.5 57q-222 0 -365 -158t-143 -395q0 -117 44 -210.5t133.5 -150.5t211.5 -57z" />
    <glyph glyph-name="ohorntilde" unicode="&#x1ee1;" horiz-adv-x="1253" 
d="M680 1073q125 0 221 -41h70q83 0 121 39.5t38 97.5q0 46 -32 86q-60 -63 -152 -63q-48 0 -90.5 16.5t-73 39.5t-56.5 46t-50.5 39.5t-46.5 16.5q-54 0 -64 -66l-10 -78h-184l8 72q15 129 76.5 195.5t154.5 66.5q58 0 109.5 -24.5t82.5 -54.5t64.5 -54.5t59.5 -24.5
q55 0 65 66l8 78h185l-8 -72q-8 -77 -43 -149l102 79q42 -37 70 -90.5t28 -115.5q0 -107 -65.5 -185t-175.5 -104q96 -132 96 -311q0 -122 -43 -234t-120.5 -197.5t-193.5 -136.5t-253 -51q-235 0 -372.5 139t-137.5 357q0 122 43.5 234t120.5 197.5t194 136t254 50.5z
M584 205q148 0 238.5 109.5t90.5 263.5q0 110 -68 179.5t-175 69.5q-148 0 -238 -109t-90 -263q0 -110 67.5 -180t174.5 -70z" />
    <glyph glyph-name="Ohorndotbelow" unicode="&#x1ee2;" horiz-adv-x="1644" 
d="M926 1475q140 0 258 -41h94q81 0 118.5 39.5t37.5 97.5q0 48 -45 100l147 115q42 -37 71 -91t29 -116q0 -102 -58.5 -178t-160.5 -107q193 -183 193 -485q0 -136 -38 -263.5t-111 -233.5t-172 -185.5t-228 -123.5t-273 -44q-197 0 -351.5 80.5t-242.5 233t-88 352.5
q0 170 60.5 325.5t166.5 271.5t260.5 184.5t332.5 68.5zM799 231q222 0 365 158t143 395q0 117 -44 210.5t-133.5 150.5t-211.5 57q-222 0 -365 -158t-143 -395q0 -117 44 -210.5t133.5 -150.5t211.5 -57zM672 -520q-70 0 -121 51.5t-51 120.5q0 68 51 118t121 50
q69 0 119.5 -50t50.5 -118q0 -69 -50.5 -120.5t-119.5 -51.5z" />
    <glyph glyph-name="ohorndotbelow" unicode="&#x1ee3;" horiz-adv-x="1253" 
d="M680 1073q125 0 221 -41h70q83 0 121 39.5t38 97.5q0 53 -45 101l150 114q42 -37 70 -90.5t28 -115.5q0 -107 -65.5 -185t-175.5 -104q96 -132 96 -311q0 -122 -43 -234t-120.5 -197.5t-193.5 -136.5t-253 -51q-235 0 -372.5 139t-137.5 357q0 122 43.5 234t120.5 197.5
t194 136t254 50.5zM584 205q148 0 238.5 109.5t90.5 263.5q0 110 -68 179.5t-175 69.5q-148 0 -238 -109t-90 -263q0 -110 67.5 -180t174.5 -70zM475 -520q-70 0 -121 51.5t-51 120.5q0 68 51 118t121 50q69 0 119.5 -50t50.5 -118q0 -69 -50.5 -120.5t-119.5 -51.5z" />
    <glyph glyph-name="Udotbelow" unicode="&#x1ee4;" horiz-adv-x="1458" 
d="M1008 537l157 897h291l-158 -904q-104 -571 -630 -571q-128 0 -230 40.5t-171 116t-95 192t0 261.5l154 865h290l-157 -889q-26 -150 35.5 -232t199.5 -82q130 0 208.5 78.5t105.5 227.5zM592 -520q-70 0 -121 51.5t-51 120.5q0 68 51 118t121 50q69 0 119.5 -50
t50.5 -118q0 -69 -50.5 -120.5t-119.5 -51.5z" />
    <glyph glyph-name="udotbelow" unicode="&#x1ee5;" horiz-adv-x="1193" 
d="M793 446l102 586h264l-104 -588q-86 -485 -516 -485q-229 0 -344.5 137t-73.5 381l98 555h262l-104 -586q-20 -116 27.5 -178.5t156.5 -62.5q93 0 152.5 61.5t79.5 179.5zM455 -520q-70 0 -121 51.5t-51 120.5q0 68 51 118t121 50q69 0 119.5 -50t50.5 -118
q0 -69 -50.5 -120.5t-119.5 -51.5z" />
    <glyph glyph-name="Uhoi" unicode="&#x1ee6;" horiz-adv-x="1458" 
d="M850 1497l-8 160q91 13 125 32.5t34 53.5q0 47 -65 47q-73 0 -152 -61l-79 135q112 94 251 94q100 0 166 -53.5t66 -145.5q0 -115 -86 -178t-252 -84zM1008 537l157 897h291l-158 -904q-104 -571 -630 -571q-128 0 -230 40.5t-171 116t-95 192t0 261.5l154 865h290
l-157 -889q-26 -150 35.5 -232t199.5 -82q130 0 208.5 78.5t105.5 227.5z" />
    <glyph glyph-name="uhoi" unicode="&#x1ee7;" horiz-adv-x="1193" 
d="M664 1135l-9 157q95 13 132.5 36.5t37.5 64.5q0 26 -18 41.5t-53 15.5q-69 0 -148 -61l-80 135q112 94 252 94q99 0 165 -54t69 -149q0 -241 -348 -280zM793 446l102 586h264l-104 -588q-86 -485 -516 -485q-229 0 -344.5 137t-73.5 381l98 555h262l-104 -586
q-20 -116 27.5 -178.5t156.5 -62.5q93 0 152.5 61.5t79.5 179.5z" />
    <glyph glyph-name="Uhornacute" unicode="&#x1ee8;" horiz-adv-x="1458" 
d="M1049 1556h-273l273 277h307zM1008 537l157 897h178q81 0 118.5 39.5t37.5 97.5q0 48 -45 100l148 115q42 -37 71 -91t29 -116q0 -116 -74 -196t-198 -99l-132 -754q-104 -571 -630 -571q-128 0 -230 40.5t-171 116t-95 192t0 261.5l154 865h290l-157 -889
q-26 -150 35.5 -232t199.5 -82q130 0 208.5 78.5t105.5 227.5z" />
    <glyph glyph-name="uhornacute" unicode="&#x1ee9;" horiz-adv-x="1224" 
d="M846 1196h-258l264 340h293zM793 446l102 586h164q83 0 121.5 39.5t38.5 97.5q0 53 -45 101l149 114q42 -37 70 -90.5t28 -115.5q0 -118 -79.5 -200t-208.5 -97l-78 -437q-86 -485 -516 -485q-229 0 -344.5 137t-73.5 381l98 555h262l-104 -586q-20 -116 27.5 -178.5
t156.5 -62.5q93 0 152.5 61.5t79.5 179.5z" />
    <glyph glyph-name="Uhorngrave" unicode="&#x1eea;" horiz-adv-x="1458" 
d="M791 1556l-207 277h288l177 -277h-258zM1008 537l157 897h178q81 0 118.5 39.5t37.5 97.5q0 48 -45 100l148 115q42 -37 71 -91t29 -116q0 -116 -74 -196t-198 -99l-132 -754q-104 -571 -630 -571q-128 0 -230 40.5t-171 116t-95 192t0 261.5l154 865h290l-157 -889
q-26 -150 35.5 -232t199.5 -82q130 0 208.5 78.5t105.5 227.5z" />
    <glyph glyph-name="uhorngrave" unicode="&#x1eeb;" horiz-adv-x="1224" 
d="M598 1196l-180 340h274l144 -340h-238zM793 446l102 586h164q83 0 121.5 39.5t38.5 97.5q0 53 -45 101l149 114q42 -37 70 -90.5t28 -115.5q0 -118 -79.5 -200t-208.5 -97l-78 -437q-86 -485 -516 -485q-229 0 -344.5 137t-73.5 381l98 555h262l-104 -586
q-20 -116 27.5 -178.5t156.5 -62.5q93 0 152.5 61.5t79.5 179.5z" />
    <glyph glyph-name="Uhornhoi" unicode="&#x1eec;" horiz-adv-x="1458" 
d="M850 1497l-8 160q91 13 125 32.5t34 53.5q0 47 -65 47q-73 0 -152 -61l-79 135q112 94 251 94q100 0 166 -53.5t66 -145.5q0 -115 -86 -178t-252 -84zM1008 537l157 897h178q81 0 118.5 39.5t37.5 97.5q0 48 -45 100l148 115q42 -37 71 -91t29 -116q0 -116 -74 -196
t-198 -99l-132 -754q-104 -571 -630 -571q-128 0 -230 40.5t-171 116t-95 192t0 261.5l154 865h290l-157 -889q-26 -150 35.5 -232t199.5 -82q130 0 208.5 78.5t105.5 227.5z" />
    <glyph glyph-name="uhornhoi" unicode="&#x1eed;" horiz-adv-x="1224" 
d="M664 1135l-9 157q95 13 132.5 36.5t37.5 64.5q0 26 -18 41.5t-53 15.5q-69 0 -148 -61l-80 135q112 94 252 94q99 0 165 -54t69 -149q0 -241 -348 -280zM793 446l102 586h164q83 0 121.5 39.5t38.5 97.5q0 53 -45 101l149 114q42 -37 70 -90.5t28 -115.5
q0 -118 -79.5 -200t-208.5 -97l-78 -437q-86 -485 -516 -485q-229 0 -344.5 137t-73.5 381l98 555h262l-104 -586q-20 -116 27.5 -178.5t156.5 -62.5q93 0 152.5 61.5t79.5 179.5z" />
    <glyph glyph-name="Uhorntilde" unicode="&#x1eee;" horiz-adv-x="1458" 
d="M547 1563l10 63q13 107 75 164t146 57q55 0 104 -20.5t77.5 -45t58.5 -45t51 -20.5q44 0 57 62l9 49h192l-8 -64q-14 -108 -75.5 -164.5t-145.5 -56.5q-56 0 -106 20.5t-79 45t-58.5 45t-49.5 20.5q-42 0 -55 -61l-9 -49h-194zM1008 537l157 897h178q81 0 118.5 39.5
t37.5 97.5q0 48 -45 100l148 115q42 -37 71 -91t29 -116q0 -116 -74 -196t-198 -99l-132 -754q-104 -571 -630 -571q-128 0 -230 40.5t-171 116t-95 192t0 261.5l154 865h290l-157 -889q-26 -150 35.5 -232t199.5 -82q130 0 208.5 78.5t105.5 227.5z" />
    <glyph glyph-name="uhorntilde" unicode="&#x1eef;" horiz-adv-x="1224" 
d="M524 1206h-184l8 72q15 129 76.5 195.5t155.5 66.5q47 0 89.5 -16.5t72.5 -39.5t56 -46t50.5 -39.5t46.5 -16.5q56 0 66 66l8 78h184l-8 -72q-15 -128 -76.5 -195t-153.5 -67q-48 0 -90.5 16.5t-73 39.5t-56.5 46t-50.5 39.5t-46.5 16.5q-53 0 -63 -66zM793 446l102 586
h164q83 0 121.5 39.5t38.5 97.5q0 53 -45 101l149 114q42 -37 70 -90.5t28 -115.5q0 -118 -79.5 -200t-208.5 -97l-78 -437q-86 -485 -516 -485q-229 0 -344.5 137t-73.5 381l98 555h262l-104 -586q-20 -116 27.5 -178.5t156.5 -62.5q93 0 152.5 61.5t79.5 179.5z" />
    <glyph glyph-name="Uhorndotbelow" unicode="&#x1ef0;" horiz-adv-x="1458" 
d="M1008 537l157 897h178q81 0 118.5 39.5t37.5 97.5q0 48 -45 100l148 115q42 -37 71 -91t29 -116q0 -116 -74 -196t-198 -99l-132 -754q-104 -571 -630 -571q-128 0 -230 40.5t-171 116t-95 192t0 261.5l154 865h290l-157 -889q-26 -150 35.5 -232t199.5 -82
q130 0 208.5 78.5t105.5 227.5zM592 -520q-70 0 -121 51.5t-51 120.5q0 68 51 118t121 50q69 0 119.5 -50t50.5 -118q0 -69 -50.5 -120.5t-119.5 -51.5z" />
    <glyph glyph-name="uhorndotbelow" unicode="&#x1ef1;" horiz-adv-x="1224" 
d="M793 446l102 586h164q83 0 121.5 39.5t38.5 97.5q0 53 -45 101l149 114q42 -37 70 -90.5t28 -115.5q0 -118 -79.5 -200t-208.5 -97l-78 -437q-86 -485 -516 -485q-229 0 -344.5 137t-73.5 381l98 555h262l-104 -586q-20 -116 27.5 -178.5t156.5 -62.5q93 0 152.5 61.5
t79.5 179.5zM455 -520q-70 0 -121 51.5t-51 120.5q0 68 51 118t121 50q69 0 119.5 -50t50.5 -118q0 -69 -50.5 -120.5t-119.5 -51.5z" />
    <glyph glyph-name="Ygrave" unicode="&#x1ef2;" horiz-adv-x="1417" 
d="M739 1556l-207 277h289l176 -277h-258zM1591 1434l-723 -832l-106 -602h-291l109 621l-428 813h329l281 -549l467 549h362z" />
    <glyph glyph-name="ygrave" unicode="&#x1ef3;" horiz-adv-x="1114" 
d="M557 1196l-180 340h274l144 -340h-238zM473 -236q-83 -147 -172 -211.5t-217 -64.5q-136 0 -207 45l39 221q66 -28 133 -28q64 0 110.5 32t88.5 107l80 139l-230 1028h275l145 -696l397 696h285z" />
    <glyph glyph-name="Ydotbelow" unicode="&#x1ef4;" horiz-adv-x="1417" 
d="M1591 1434l-723 -832l-106 -602h-291l109 621l-428 813h329l281 -549l467 549h362zM557 -520q-70 0 -121 51.5t-51 120.5q0 68 51 118t121 50q69 0 119.5 -50t50.5 -118q0 -69 -50.5 -120.5t-119.5 -51.5z" />
    <glyph glyph-name="ydotbelow" unicode="&#x1ef5;" horiz-adv-x="1114" 
d="M473 -236q-83 -147 -172 -211.5t-217 -64.5q-136 0 -207 45l39 221q66 -28 133 -28q64 0 110.5 32t88.5 107l80 139l-230 1028h275l145 -696l397 696h285zM729 -520q-70 0 -121 51.5t-51 120.5q0 68 51 118t121 50q69 0 119.5 -50t50.5 -118q0 -69 -50.5 -120.5
t-119.5 -51.5z" />
    <glyph glyph-name="Yhoi" unicode="&#x1ef6;" horiz-adv-x="1417" 
d="M799 1497l-8 160q91 13 125 32.5t34 53.5q0 47 -65 47q-73 0 -152 -61l-80 135q112 94 252 94q100 0 166 -53.5t66 -145.5q0 -115 -86 -178t-252 -84zM1591 1434l-723 -832l-106 -602h-291l109 621l-428 813h329l281 -549l467 549h362z" />
    <glyph glyph-name="yhoi" unicode="&#x1ef7;" horiz-adv-x="1114" 
d="M623 1135l-9 157q95 13 132.5 36.5t37.5 64.5q0 26 -18 41.5t-53 15.5q-69 0 -148 -61l-80 135q112 94 252 94q99 0 165 -54t69 -149q0 -241 -348 -280zM473 -236q-83 -147 -172 -211.5t-217 -64.5q-136 0 -207 45l39 221q66 -28 133 -28q64 0 110.5 32t88.5 107l80 139
l-230 1028h275l145 -696l397 696h285z" />
    <glyph glyph-name="Ytilde" unicode="&#x1ef8;" horiz-adv-x="1417" 
d="M496 1563l10 63q13 107 75 164t146 57q55 0 104 -20.5t77.5 -45t58.5 -45t51 -20.5q44 0 57 62l8 49h193l-8 -64q-14 -108 -75.5 -164.5t-145.5 -56.5q-56 0 -106 20.5t-79 45t-58.5 45t-49.5 20.5q-43 0 -56 -61l-8 -49h-194zM1591 1434l-723 -832l-106 -602h-291
l109 621l-428 813h329l281 -549l467 549h362z" />
    <glyph glyph-name="ytilde" unicode="&#x1ef9;" horiz-adv-x="1114" 
d="M485 1206h-184l8 72q15 129 76.5 195.5t155.5 66.5q47 0 89.5 -16.5t72.5 -39.5t56 -46t50.5 -39.5t46.5 -16.5q56 0 66 66l8 78h184l-8 -72q-15 -129 -76 -195.5t-153 -66.5q-48 0 -91 16.5t-73 39.5t-56 46t-51 39.5t-47 16.5q-53 0 -63 -66zM473 -236
q-83 -147 -172 -211.5t-217 -64.5q-136 0 -207 45l39 221q66 -28 133 -28q64 0 110.5 32t88.5 107l80 139l-230 1028h275l145 -696l397 696h285z" />
    <glyph glyph-name="enquad" unicode="&#x2000;" horiz-adv-x="1073" 
 />
    <glyph glyph-name="emquad" unicode="&#x2001;" horiz-adv-x="2146" 
 />
    <glyph glyph-name="enspace" unicode="&#x2002;" horiz-adv-x="1073" 
 />
    <glyph glyph-name="emspace" unicode="&#x2003;" horiz-adv-x="2146" 
 />
    <glyph glyph-name="threeperemspace" unicode="&#x2004;" horiz-adv-x="714" 
 />
    <glyph glyph-name="fourperemspace" unicode="&#x2005;" horiz-adv-x="536" 
 />
    <glyph glyph-name="sixperemspace" unicode="&#x2006;" horiz-adv-x="358" 
 />
    <glyph glyph-name="figurespace" unicode="&#x2007;" 
 />
    <glyph glyph-name="punctuationspace" unicode="&#x2008;" horiz-adv-x="552" 
 />
    <glyph glyph-name="thinspace" unicode="&#x2009;" horiz-adv-x="268" 
 />
    <glyph glyph-name="hairspace" unicode="&#x200a;" horiz-adv-x="215" 
 />
    <glyph glyph-name="zerowidthspace" unicode="&#x200b;" horiz-adv-x="0" 
 />
    <glyph glyph-name="zerowidthnonjoiner" unicode="&#x200c;" horiz-adv-x="0" 
 />
    <glyph glyph-name="zerowidthjoiner" unicode="&#x200d;" horiz-adv-x="0" 
 />
    <glyph glyph-name="endash" unicode="&#x2013;" horiz-adv-x="1073" 
d="M66 635h985l-39 -223h-985z" />
    <glyph glyph-name="emdash" unicode="&#x2014;" horiz-adv-x="2146" 
d="M66 635h2058l-39 -223h-2058z" />
    <glyph glyph-name="quoteleft" unicode="&#x2018;" horiz-adv-x="555" 
d="M430 1434h252l-285 -590h-303z" />
    <glyph glyph-name="quoteright" unicode="&#x2019;" horiz-adv-x="552" 
d="M344 844h-252l285 590h303z" />
    <glyph glyph-name="quotesinglbase" unicode="&#x201a;" horiz-adv-x="555" 
d="M139 -328h-252l289 613h305z" />
    <glyph glyph-name="quotedblleft" unicode="&#x201c;" horiz-adv-x="1007" 
d="M430 1434h252l-285 -590h-303zM883 1434h252l-285 -590h-303z" />
    <glyph glyph-name="quotedblright" unicode="&#x201d;" horiz-adv-x="1007" 
d="M346 844h-252l285 590h303zM799 844h-252l284 590h304z" />
    <glyph glyph-name="quotedblbase" unicode="&#x201e;" horiz-adv-x="1007" 
d="M137 -328h-252l289 613h305zM592 -328h-252l289 613h305z" />
    <glyph glyph-name="dagger" unicode="&#x2020;" horiz-adv-x="935" 
d="M295 225l137 774h-309l41 222h307l55 315h244l-55 -315h309l-39 -222h-309l-137 -774h-244z" />
    <glyph glyph-name="daggerdbl" unicode="&#x2021;" horiz-adv-x="935" 
d="M295 225l55 316h-307l39 221h307l43 237h-309l41 222h307l55 315h244l-55 -315h309l-39 -222h-309l-43 -237h311l-39 -221h-311l-55 -316h-244z" />
    <glyph glyph-name="bullet" unicode="&#x2022;" horiz-adv-x="856" 
d="M434 205q-138 0 -237 96t-99 229q0 131 99 224.5t237 93.5q140 0 237 -93.5t97 -224.5q0 -134 -97 -229.5t-237 -95.5z" />
    <glyph glyph-name="ellipsis" unicode="&#x2026;" horiz-adv-x="1505" 
d="M207 -25q-75 0 -127.5 52.5t-52.5 126.5q0 72 52.5 125t127.5 53q72 0 125 -53t53 -125q0 -73 -53 -126t-125 -53zM690 -25q-75 0 -127.5 52.5t-52.5 126.5q0 72 53 125t127 53q72 0 125 -53t53 -125q0 -73 -53 -126t-125 -53zM1174 -25q-75 0 -128 52.5t-53 126.5
q0 72 53 125t128 53q72 0 125 -53t53 -125q0 -73 -53 -126t-125 -53z" />
    <glyph glyph-name="perthousand" unicode="&#x2030;" horiz-adv-x="2484" 
d="M545 1473q145 0 231 -85.5t86 -220.5q0 -155 -107 -268t-270 -113q-146 0 -231.5 86t-85.5 222q0 154 107 266.5t270 112.5zM127 0l1257 1434h281l-1255 -1434h-283zM489 958q80 0 129.5 62t49.5 147q0 60 -35.5 96.5t-93.5 36.5q-80 0 -129.5 -61.5t-49.5 -146.5
q0 -60 35.5 -97t93.5 -37zM1305 641q145 0 231 -85.5t86 -219.5q0 -155 -107 -268t-270 -113q-147 0 -232 85.5t-85 221.5q0 154 107 266.5t270 112.5zM2073 641q145 0 231 -85.5t86 -219.5q0 -155 -107 -268t-270 -113q-147 0 -232 85.5t-85 221.5q0 154 107 266.5
t270 112.5zM1249 127q80 0 129 61.5t49 147.5q0 60 -35.5 96.5t-93.5 36.5q-80 0 -129 -61.5t-49 -147.5q0 -60 35.5 -96.5t93.5 -36.5zM2017 127q80 0 129 61.5t49 147.5q0 60 -35.5 96.5t-93.5 36.5q-80 0 -129 -61.5t-49 -147.5q0 -60 35.5 -96.5t93.5 -36.5z" />
    <glyph glyph-name="guilsinglleft" unicode="&#x2039;" horiz-adv-x="677" 
d="M516 98h-262l-182 410l325 410h295l-344 -439z" />
    <glyph glyph-name="guilsinglright" unicode="&#x203a;" horiz-adv-x="677" 
d="M162 918h262l182 -410l-327 -410h-295l344 437z" />
    <glyph glyph-name="fraction" unicode="&#x2044;" horiz-adv-x="538" 
d="M-471 0l1257 1434h281l-1255 -1434h-283z" />
    <glyph glyph-name="wordjoiner" unicode="&#x2060;" horiz-adv-x="0" 
 />
    <glyph glyph-name="zerosuperior" unicode="&#x2070;" horiz-adv-x="772" 
d="M563 1737q303 0 303 -361q0 -109 -25.5 -210t-73 -182t-124.5 -130t-172 -49q-303 0 -303 358q0 110 25.5 211t73 183t124.5 131t172 49zM469 985q57 0 103.5 59t71 151.5t24.5 195.5q0 82 -24 123.5t-79 41.5q-57 0 -103.5 -59t-70.5 -151t-24 -195q0 -166 102 -166z
" />
    <glyph glyph-name="i.superior" unicode="&#x2071;" horiz-adv-x="348" 
d="M397 1550q-47 0 -81.5 35.5t-34.5 81.5q0 47 34.5 82t81.5 35t82 -35t35 -82q0 -46 -35 -81.5t-82 -35.5zM158 829l112 635h185l-113 -635h-184z" />
    <glyph glyph-name="foursuperior" unicode="&#x2074;" horiz-adv-x="772" 
d="M492 829l38 226h-376l32 176l420 479h236l-84 -479h80l-31 -176h-82l-39 -226h-194zM389 1231h174l43 250z" />
    <glyph glyph-name="fivesuperior" unicode="&#x2075;" horiz-adv-x="772" 
d="M242 1208l112 502h533l-33 -174h-344l-35 -154h17q164 0 240.5 -71.5t76.5 -196.5q0 -135 -93.5 -222t-242.5 -87q-121 0 -210 54t-130 153l168 92q58 -127 176 -127q56 0 92.5 32.5t36.5 90.5q0 108 -141 108h-223z" />
    <glyph glyph-name="sixsuperior" unicode="&#x2076;" horiz-adv-x="772" 
d="M616 1737q96 0 178 -43t119 -99l-155 -112q-60 78 -154 78q-84 0 -140.5 -59.5t-80.5 -168.5q81 68 180 68q122 0 197.5 -77.5t75.5 -199.5q0 -132 -93.5 -225.5t-244.5 -93.5q-157 0 -244.5 97.5t-87.5 252.5q0 169 49 298.5t152.5 206.5t248.5 77zM518 1229
q-44 0 -84.5 -20t-66.5 -56q3 -91 35.5 -132.5t99.5 -41.5q57 0 93 37t36 104q0 51 -30 80t-83 29z" />
    <glyph glyph-name="sevensuperior" unicode="&#x2077;" horiz-adv-x="772" 
d="M381 829h-238l531 707h-408l31 174h627l-31 -174z" />
    <glyph glyph-name="eightsuperior" unicode="&#x2078;" horiz-adv-x="772" 
d="M823 1087q0 -121 -90.5 -201.5t-261.5 -80.5q-154 0 -242 71.5t-88 186.5q0 85 50.5 152.5t148.5 97.5q-92 63 -92 164q0 110 82.5 185t236.5 75q138 0 217.5 -67.5t79.5 -172.5q0 -71 -39.5 -125.5t-117.5 -83.5q116 -60 116 -201zM453 1468q0 -90 100 -90q51 0 77.5 30
t26.5 75q0 92 -98 92q-51 0 -78.5 -30.5t-27.5 -76.5zM621 1100q0 52 -35 81t-101 29q-67 0 -103 -36.5t-36 -90.5q0 -52 33.5 -81t99.5 -29q69 0 105.5 36t36.5 91z" />
    <glyph glyph-name="ninesuperior" unicode="&#x2079;" horiz-adv-x="772" 
d="M412 805q-98 0 -179 41.5t-120 97.5l155 115q62 -80 156 -80q84 0 139.5 59t79.5 168q-79 -67 -180 -67q-121 0 -195.5 77t-74.5 199q0 134 92.5 228t242.5 94q158 0 245 -98.5t87 -254.5q0 -169 -49 -297.5t-151.5 -205t-247.5 -76.5zM395 1421q0 -51 30.5 -80.5
t84.5 -29.5q42 0 82.5 19.5t66.5 53.5q-3 93 -35 135t-100 42q-57 0 -93 -37t-36 -103z" />
    <glyph glyph-name="n.superior" unicode="&#x207f;" horiz-adv-x="749" 
d="M158 829l112 635h185l-6 -37q76 62 165 62q111 0 168 -74t33 -211l-65 -375h-185l64 367q11 56 -10.5 88.5t-71.5 32.5q-79 0 -133 -84l-72 -404h-184z" />
    <glyph glyph-name="zeroinferior" unicode="&#x2080;" horiz-adv-x="772" 
d="M371 631q303 0 303 -361q0 -109 -25.5 -210t-73 -182t-124.5 -130t-172 -49q-304 0 -304 358q0 110 25.5 211.5t73.5 183t125 130.5t172 49zM276 -121q57 0 103.5 59t71 151.5t24.5 195.5q0 82 -23.5 124t-78.5 42q-57 0 -103.5 -59t-71 -151.5t-24.5 -195.5
q0 -166 102 -166z" />
    <glyph glyph-name="oneinferior" unicode="&#x2081;" horiz-adv-x="772" 
d="M-57 -276l30 176h217l86 479l-157 -84l-78 156l283 155h186l-125 -706h195l-31 -176h-606z" />
    <glyph glyph-name="twoinferior" unicode="&#x2082;" horiz-adv-x="772" 
d="M-55 -276l30 176l363 305q56 47 80 84t24 80q0 38 -25 63t-65 25q-51 0 -91.5 -34t-80.5 -101l-149 104q118 205 340 205q118 0 195 -67.5t77 -176.5q0 -87 -47 -153.5t-158 -161.5l-209 -172h349l-31 -176h-602z" />
    <glyph glyph-name="threeinferior" unicode="&#x2083;" horiz-adv-x="772" 
d="M641 387q0 -65 -37.5 -119t-107.5 -84q114 -68 114 -198q0 -123 -92.5 -205t-241.5 -82q-121 0 -209.5 54t-129.5 153l167 92q58 -127 177 -127q56 0 92.5 32.5t36.5 90.5q0 108 -134 108h-120l30 172h113q73 0 107 27.5t34 71.5q0 37 -25 60.5t-65 23.5q-83 0 -141 -95
l-150 105q51 78 132.5 121t179.5 43q117 0 193.5 -67.5t76.5 -176.5z" />
    <glyph glyph-name="fourinferior" unicode="&#x2084;" horiz-adv-x="772" 
d="M-39 -51l33 176l420 479h235l-84 -479h80l-31 -176h-82l-38 -225h-195l39 225h-377zM197 125h174l43 250z" />
    <glyph glyph-name="fiveinferior" unicode="&#x2085;" horiz-adv-x="772" 
d="M49 102l113 502h532l-32 -174h-345l-34 -154h16q164 0 240.5 -71.5t76.5 -196.5q0 -135 -93 -222t-242 -87q-121 0 -210 54t-130 153l168 92q58 -127 176 -127q56 0 92.5 32.5t36.5 90.5q0 108 -142 108h-223z" />
    <glyph glyph-name="sixinferior" unicode="&#x2086;" horiz-adv-x="772" 
d="M424 631q96 0 178 -43t119 -99l-156 -112q-60 78 -153 78q-84 0 -141 -60t-81 -168q81 68 181 68q122 0 197 -77.5t75 -199.5q0 -132 -93.5 -225.5t-244.5 -93.5q-157 0 -244.5 97.5t-87.5 252.5q0 169 49.5 298.5t153 206.5t248.5 77zM326 123q-44 0 -85 -20t-67 -56
q3 -91 35.5 -132.5t99.5 -41.5q57 0 93 37t36 104q0 51 -30 80t-82 29z" />
    <glyph glyph-name="seveninferior" unicode="&#x2087;" horiz-adv-x="772" 
d="M188 -276h-237l530 706h-407l30 174h627l-31 -174z" />
    <glyph glyph-name="eightinferior" unicode="&#x2088;" horiz-adv-x="772" 
d="M55 371q0 110 82.5 185t237.5 75q138 0 217.5 -67.5t79.5 -172.5q0 -71 -40 -125.5t-118 -83.5q117 -60 117 -200q0 -121 -90.5 -202t-261.5 -81q-154 0 -242 71.5t-88 186.5q0 86 50 153t148 97q-92 63 -92 164zM260 362q0 -90 100 -90q51 0 78 30.5t27 74.5
q0 92 -98 92q-51 0 -79 -30.5t-28 -76.5zM428 -6q0 52 -34.5 81t-100.5 29q-67 0 -103 -36.5t-36 -90.5q0 -52 33.5 -81t99.5 -29q69 0 105 35.5t36 91.5z" />
    <glyph glyph-name="nineinferior" unicode="&#x2089;" horiz-adv-x="772" 
d="M219 -301q-98 0 -179 41.5t-120 97.5l156 115q62 -80 155 -80q84 0 140 59t80 168q-79 -67 -181 -67q-121 0 -195.5 77t-74.5 199q0 134 92.5 228t243.5 94q158 0 245 -98t87 -254q0 -169 -49.5 -298t-152 -205.5t-247.5 -76.5zM203 315q0 -51 30 -80.5t84 -29.5
q42 0 83 19.5t67 54.5q-3 93 -35 134.5t-100 41.5q-57 0 -93 -37t-36 -103z" />
    <glyph glyph-name="Euro" unicode="&#x20ac;" 
d="M47 444l39 218h152q2 37 14 116h-146l37 217h164q77 221 223.5 351.5t358.5 130.5q274 0 397 -224l-221 -141q-53 123 -184 123q-87 0 -156.5 -65.5t-116.5 -174.5h469l-41 -217h-497q-13 -61 -21 -116h500l-39 -218h-469q9 -132 59.5 -187.5t141.5 -55.5q118 0 215 123
l184 -170q-174 -195 -416 -195q-205 0 -325.5 120.5t-137.5 364.5h-184z" />
    <glyph glyph-name="numero" unicode="&#x2116;" horiz-adv-x="2404" 
d="M2142 1489q145 0 231.5 -85.5t86.5 -219.5q0 -155 -107 -268t-270 -113q-147 0 -232.5 85.5t-85.5 221.5q0 154 107 266.5t270 112.5zM113 0l254 1434h368l424 -1051l187 1051h290l-254 -1434h-370l-422 1049l-187 -1049h-290zM2087 975q80 0 129 61.5t49 147.5
q0 60 -35.5 96.5t-93.5 36.5q-80 0 -129 -61.5t-49 -147.5q0 -60 35.5 -96.5t93.5 -36.5zM1706 508l33 176h588l-31 -176h-590z" />
    <glyph glyph-name="trademark" unicode="&#x2122;" horiz-adv-x="1912" 
d="M184 1249l33 185h713l-33 -185h-254l-123 -696h-205l123 696h-254zM907 553l156 881h246l121 -326l237 326h264l-155 -881h-205l102 588l-209 -285h-139l-111 285l-102 -588h-205z" />
    <glyph glyph-name="arrowleft" unicode="&#x2190;" horiz-adv-x="1634" 
d="M719 98l-639 639l639 641l158 -157l-385 -373h1062v-221h-1062l385 -371z" />
    <glyph glyph-name="arrowup" unicode="&#x2191;" horiz-adv-x="1634" 
d="M705 0v1051l-371 -373l-158 158l639 639l641 -639l-158 -158l-372 373v-1051h-221z" />
    <glyph glyph-name="arrowright" unicode="&#x2192;" horiz-adv-x="1634" 
d="M80 850h1048l-370 371l157 155l639 -637l-641 -641l-155 156l372 373h-1050v223z" />
    <glyph glyph-name="arrowdown" unicode="&#x2193;" horiz-adv-x="1634" 
d="M1456 598l-641 -639l-639 639l158 158l373 -373v1051h221v-1051l370 373z" />
    <glyph glyph-name="arrowNW" unicode="&#x2196;" horiz-adv-x="1634" 
d="M295 354v903h905v-221h-526l741 -741l-158 -158l-741 746v-529h-221z" />
    <glyph glyph-name="arrowNE" unicode="&#x2197;" horiz-adv-x="1634" 
d="M451 137l-156 158l741 741h-526v221h905v-903h-223v527z" />
    <glyph glyph-name="arrowSE" unicode="&#x2198;" horiz-adv-x="1634" 
d="M451 1257l741 -741v524h223v-903h-905v223h526l-741 742z" />
    <glyph glyph-name="arrowSW" unicode="&#x2199;" horiz-adv-x="1634" 
d="M295 1040h221v-526l741 743l158 -155l-741 -742h526v-223h-905v903z" />
    <glyph glyph-name="minus" unicode="&#x2212;" 
d="M1094 406h-1000l41 221h1000z" />
    <glyph glyph-name="radical" unicode="&#x221a;" 
d="M373 846l94 -604l590 1192h250l-715 -1434h-316l-133 846h230z" />
    <glyph glyph-name="integral" unicode="&#x222b;" horiz-adv-x="806" 
d="M385 1151q34 187 140 286t274 99q146 0 260 -74l-139 -205q-57 46 -117 46q-62 0 -103 -39.5t-53 -112.5l-225 -1276q-34 -187 -139.5 -286t-272.5 -99q-155 0 -260 74l137 205q52 -45 117 -45q62 0 103 39t53 112z" />
    <glyph glyph-name="approxequal" unicode="&#x2248;" 
d="M127 573l10 66q20 142 95 217.5t194 75.5q57 0 111.5 -17.5t96 -42.5t78.5 -50t74.5 -42.5t69.5 -17.5q81 0 98 96l9 49h221l-10 -63q-22 -143 -96.5 -218t-194.5 -75q-57 0 -111.5 17.5t-96 42.5t-78.5 50t-74.5 42.5t-69.5 17.5q-83 0 -97 -96l-8 -52h-221zM53 164
l10 63q22 142 97 217.5t194 75.5q57 0 111.5 -17.5t96 -42t78.5 -49t74.5 -42t69.5 -17.5q83 0 97 94l8 52h223l-10 -64q-23 -144 -97.5 -218.5t-193.5 -74.5q-70 0 -137.5 26.5t-111 57.5t-93 57.5t-88.5 26.5q-82 0 -96 -94l-9 -51h-223z" />
    <glyph glyph-name="notequal" unicode="&#x2260;" 
d="M1057 188h-619l-170 -188h-243l170 188h-138l37 222h301l195 213h-455l37 221h619l170 188h243l-170 -188h137l-38 -221h-299l-195 -213h457z" />
    <glyph glyph-name="lessequal" unicode="&#x2264;" 
d="M1069 256l-932 389l45 254l1067 389l-41 -248l-774 -276l676 -279zM1022 0h-997l36 221h1002z" />
    <glyph glyph-name="greaterequal" unicode="&#x2265;" 
d="M113 504l772 276l-674 279l39 229l932 -389l-45 -254l-1067 -389zM25 0l36 221h1002l-41 -221h-997z" />
    <glyph glyph-name="lozenge" unicode="&#x25ca;" 
d="M395 0l-223 717l477 717h252l223 -717l-473 -717h-256zM401 696l150 -481l344 518l-147 488z" />
    <glyph glyph-name="circledotted" unicode="&#x25cc;" horiz-adv-x="1236" 
d="M618 -20q-145 0 -268.5 72t-195.5 195.5t-72 268.5t72 269t195.5 196t268.5 72q109 0 208 -43t171 -115t115 -171t43 -208q0 -145 -72 -268.5t-196 -195.5t-269 -72zM618 1032q-140 0 -259 -69t-188 -188t-69 -259t69 -259t188 -188t259 -69t259 69t188.5 188t69.5 259
t-69.5 259t-188.5 188t-259 69z" />
    <glyph glyph-name="zerowidthnobreakspace" unicode="&#xfeff;" horiz-adv-x="0" 
 />
    <glyph glyph-name="Ccedilla.1" horiz-adv-x="1466" 
d="M918 1475q203 0 351.5 -88t237.5 -230l-250 -166q-54 93 -145.5 151t-204.5 58q-144 0 -258 -72t-176.5 -198t-62.5 -281q0 -117 42.5 -210.5t130.5 -150.5t208 -57q205 0 372 181l205 -187q-86 -108 -218.5 -176.5t-283.5 -83.5l-73 -78q76 -9 125 -59t49 -115
q0 -99 -73 -162t-192 -63q-144 0 -227 86l105 121q49 -60 114 -60q37 0 58.5 18.5t21.5 51.5q0 28 -21 46t-55 18q-33 0 -80 -21l-59 96l113 121q-256 31 -411 207.5t-155 452.5q0 136 37.5 263.5t109.5 233.5t170 185.5t225.5 123.5t269.5 44z" />
    <glyph glyph-name="Q.1" horiz-adv-x="1646" 
d="M109 635q0 132 37 257t109 230t171 184.5t231 124t281 44.5q203 0 357 -88t234.5 -240.5t80.5 -345.5q0 -195 -78.5 -368.5t-222.5 -291.5l323 -393h-372l-201 256q-130 -45 -279 -45q-204 0 -357.5 88t-233.5 240.5t-80 347.5zM1307 803q0 173 -102.5 286t-278.5 113
q-116 0 -214 -48t-163 -128t-101 -184.5t-36 -218.5q0 -109 43.5 -197t131 -141.5t204.5 -53.5q116 0 214.5 48t163.5 127.5t101.5 182.5t36.5 214z" />
    <glyph glyph-name="Q.2" horiz-adv-x="1646" 
d="M109 635q0 132 37 257t109 230t171 184.5t231 124t281 44.5q203 0 357 -88t234.5 -240.5t80.5 -345.5q0 -195 -78.5 -368.5t-222.5 -291.5l188 -174q132 -121 255.5 -173t287.5 -52q115 0 241 37l-45 -250q-90 -41 -256 -41q-171 0 -350 66.5t-336 216.5l-239 231
q-125 -43 -275 -43q-204 0 -357.5 88t-233.5 240.5t-80 347.5zM1307 803q0 173 -102.5 286t-278.5 113q-116 0 -214 -48t-163 -128t-101 -184.5t-36 -218.5q0 -109 43.5 -197t131 -141.5t204.5 -53.5q116 0 214.5 48t163.5 127.5t101.5 182.5t36.5 214z" />
    <glyph glyph-name="Scedilla.1" horiz-adv-x="1167" 
d="M537 1073q0 -50 28 -93t72.5 -75.5t98.5 -65.5t108.5 -72.5t99 -86t72.5 -115.5t28 -153q0 -171 -110 -294.5t-291 -152.5l-225 -293h-262l229 305q-212 48 -340 240l221 174q127 -176 287 -176q84 0 138 48.5t54 121.5q0 51 -28 94t-73 76.5t-99.5 66.5t-108.5 72.5
t-99 86t-73 115.5t-28 153t35.5 161.5t97 136t152.5 93.5t196 35q305 0 473 -258l-223 -173q-119 177 -265 177q-72 0 -118.5 -43.5t-46.5 -104.5z" />
    <glyph glyph-name="germandbls.cap" horiz-adv-x="2322" 
d="M1692 1073q0 -50 28 -93t73 -75.5t99 -65.5t108 -72.5t99 -86t73 -115.5t28 -153q0 -194 -138.5 -323.5t-357.5 -129.5q-333 0 -504 258l221 174q127 -176 287 -176q84 0 138.5 48.5t54.5 121.5q0 51 -28 94t-73 76.5t-99.5 66.5t-109 72.5t-99.5 86t-73 115.5t-28 153
t35.5 161.5t97 136t152.5 93.5t196 35q305 0 473 -258l-223 -173q-119 177 -264 177q-72 0 -119 -43.5t-47 -104.5zM537 1073q0 -50 28 -93t72.5 -75.5t98.5 -65.5t108.5 -72.5t99 -86t72.5 -115.5t28 -153q0 -194 -138 -323.5t-357 -129.5q-333 0 -504 258l221 174
q127 -176 287 -176q84 0 138 48.5t54 121.5q0 51 -28 94t-73 76.5t-99.5 66.5t-108.5 72.5t-99 86t-73 115.5t-28 153t35.5 161.5t97 136t152.5 93.5t196 35q305 0 473 -258l-223 -173q-119 177 -265 177q-72 0 -118.5 -43.5t-46.5 -104.5z" />
    <glyph glyph-name="Tcedilla.1" horiz-adv-x="1267" 
d="M176 1169l47 265h1143l-45 -265h-428l-205 -1169h-29l-251 -330h-263l252 334l205 1165h-426z" />
    <glyph glyph-name="a.1" horiz-adv-x="1269" 
d="M68 446q0 122 40 235t111 200.5t177.5 140t230.5 51.5q187 0 311 -127l14 86h262l-182 -1032h-260l12 74q-127 -115 -284 -115q-200 0 -316 133.5t-116 353.5zM342 463q0 -115 64 -186.5t176 -71.5q148 0 249 137l56 315q-76 170 -240 170q-135 0 -220 -105.5t-85 -258.5
z" />
    <glyph glyph-name="agrave.1" horiz-adv-x="1269" 
d="M610 1196l-180 340h275l143 -340h-238zM68 446q0 122 40 235t111 200.5t177.5 140t230.5 51.5q187 0 311 -127l14 86h262l-182 -1032h-260l12 74q-127 -115 -284 -115q-200 0 -316 133.5t-116 353.5zM342 463q0 -115 64 -186.5t176 -71.5q148 0 249 137l56 315
q-76 170 -240 170q-135 0 -220 -105.5t-85 -258.5z" />
    <glyph glyph-name="aacute.1" horiz-adv-x="1269" 
d="M858 1196h-258l264 340h293zM68 446q0 122 40 235t111 200.5t177.5 140t230.5 51.5q187 0 311 -127l14 86h262l-182 -1032h-260l12 74q-127 -115 -284 -115q-200 0 -316 133.5t-116 353.5zM342 463q0 -115 64 -186.5t176 -71.5q148 0 249 137l56 315q-76 170 -240 170
q-135 0 -220 -105.5t-85 -258.5z" />
    <glyph glyph-name="acircumflex.1" horiz-adv-x="1269" 
d="M592 1196h-240l264 340h332l144 -340h-220l-102 215zM68 446q0 122 40 235t111 200.5t177.5 140t230.5 51.5q187 0 311 -127l14 86h262l-182 -1032h-260l12 74q-127 -115 -284 -115q-200 0 -316 133.5t-116 353.5zM342 463q0 -115 64 -186.5t176 -71.5q148 0 249 137
l56 315q-76 170 -240 170q-135 0 -220 -105.5t-85 -258.5z" />
    <glyph glyph-name="acaron.1" horiz-adv-x="1269" 
d="M651 1536l101 -215l178 215h241l-264 -340h-334l-143 340h221zM68 446q0 122 40 235t111 200.5t177.5 140t230.5 51.5q187 0 311 -127l14 86h262l-182 -1032h-260l12 74q-127 -115 -284 -115q-200 0 -316 133.5t-116 353.5zM342 463q0 -115 64 -186.5t176 -71.5
q148 0 249 137l56 315q-76 170 -240 170q-135 0 -220 -105.5t-85 -258.5z" />
    <glyph glyph-name="abreve.1" horiz-adv-x="1269" 
d="M780 1372q142 0 170 164h217q-52 -340 -401 -340q-165 0 -258 92t-66 248h205q-20 -164 133 -164zM68 446q0 122 40 235t111 200.5t177.5 140t230.5 51.5q187 0 311 -127l14 86h262l-182 -1032h-260l12 74q-127 -115 -284 -115q-200 0 -316 133.5t-116 353.5zM342 463
q0 -115 64 -186.5t176 -71.5q148 0 249 137l56 315q-76 170 -240 170q-135 0 -220 -105.5t-85 -258.5z" />
    </font>
</defs>
</svg>
