<?xml version="1.0" standalone="no"?>
<!DOCTYPE svg PUBLIC "-//W3C//DTD SVG 1.1//EN" "http://www.w3.org/Graphics/SVG/1.1/DTD/svg11.dtd" >
<svg xmlns="http://www.w3.org/2000/svg" xmlns:xlink="http://www.w3.org/1999/xlink" version="1.1">
<metadata>
Created by FontForge 20170731 at Wed Jun  1 11:19:27 2022
 By Aleksey,,,
Service d'Information du Gouvernement
</metadata>
<defs>
<font id="Marianne-LightItalic" horiz-adv-x="1228" >
  <font-face 
    font-family="Marianne Light"
    font-weight="300"
    font-style="italic"
    font-stretch="normal"
    units-per-em="2048"
    panose-1="2 0 0 0 0 0 0 0 0 0"
    ascent="1536"
    descent="-512"
    x-height="1032"
    cap-height="1434"
    bbox="-508.016 -512 2445 2316"
    underline-thickness="106"
    underline-position="-368"
    slope="-10"
    unicode-range="U+0020-FEFF"
  />
<missing-glyph horiz-adv-x="1191" 
d="M-176 -504l358 2040h1190l-358 -2040h-1190zM406 287h194l35 129q183 32 307 137.5t154 269.5q16 91 -6 168t-72 127.5t-121.5 78.5t-155.5 28q-149 0 -271.5 -67.5t-229.5 -205.5l202 -143q66 82 121 119t121 37q63 0 99 -40t26 -102q-8 -46 -30.5 -80t-54 -56.5
t-80 -37.5t-97.5 -23t-117 -14zM420 -186q72 0 135 54.5t76 129.5q12 73 -31.5 127.5t-114.5 54.5q-74 0 -136.5 -54t-76.5 -128q-13 -75 30.5 -129.5t117.5 -54.5z" />
    <glyph glyph-name=".notdef" horiz-adv-x="1191" 
d="M-176 -504l358 2040h1190l-358 -2040h-1190zM406 287h194l35 129q183 32 307 137.5t154 269.5q16 91 -6 168t-72 127.5t-121.5 78.5t-155.5 28q-149 0 -271.5 -67.5t-229.5 -205.5l202 -143q66 82 121 119t121 37q63 0 99 -40t26 -102q-8 -46 -30.5 -80t-54 -56.5
t-80 -37.5t-97.5 -23t-117 -14zM420 -186q72 0 135 54.5t76 129.5q12 73 -31.5 127.5t-114.5 54.5q-74 0 -136.5 -54t-76.5 -128q-13 -75 30.5 -129.5t117.5 -54.5z" />
    <glyph glyph-name=".null" horiz-adv-x="0" 
 />
    <glyph glyph-name="nonmarkingreturn" horiz-adv-x="682" 
 />
    <glyph glyph-name="space" unicode=" " horiz-adv-x="552" 
 />
    <glyph glyph-name="exclam" unicode="!" horiz-adv-x="573" 
d="M217 389l164 1045h135l-203 -1045h-96zM211 -23q-44 0 -73 29t-29 72t29 71.5t73 28.5q43 0 72.5 -28.5t29.5 -71.5t-29.5 -72t-72.5 -29z" />
    <glyph glyph-name="quotedbl" unicode="&#x22;" horiz-adv-x="911" 
d="M399 909h-104l74 525h139zM758 909h-105l74 525h139z" />
    <glyph glyph-name="numbersign" unicode="#" horiz-adv-x="1275" 
d="M51 498h205l193 438h-322l18 104h351l174 394h123l-175 -394h400l174 394h119l-174 -394h180l-19 -104h-206l-195 -438h324l-19 -105h-350l-174 -393h-121l174 393h-399l-174 -393h-123l174 393h-176zM379 498h399l193 438h-400z" />
    <glyph glyph-name="dollar" unicode="$" 
d="M94 236l96 71q108 -159 293 -190l103 581q-64 36 -104 64t-84.5 72.5t-66.5 102.5t-22 130q0 153 113 257t295 110l24 143h113l-27 -150q115 -18 198.5 -77.5t129.5 -141.5l-98 -67q-35 70 -98.5 117.5t-149.5 60.5l-96 -545q57 -32 89.5 -52t78.5 -57t71 -72.5t43.5 -89
t18.5 -114.5q0 -170 -119 -279.5t-320 -109.5l-24 -143h-113l27 149q-244 32 -371 230zM434 1075q0 -81 45.5 -137t130.5 -107l86 492q-123 -10 -192.5 -79.5t-69.5 -168.5zM891 381q0 88 -52 147t-149 115l-94 -532q144 9 219.5 81t75.5 189z" />
    <glyph glyph-name="percent" unicode="%" horiz-adv-x="1693" 
d="M559 1475q139 0 221 -86.5t82 -217.5q0 -155 -107.5 -269t-267.5 -114q-140 0 -221.5 86.5t-81.5 217.5q0 156 107 269.5t268 113.5zM174 0l1264 1434h139l-1264 -1434h-139zM489 879q117 0 194 87.5t77 207.5q0 90 -56 150t-149 60q-116 0 -193 -87t-77 -205
q0 -92 55.5 -152.5t148.5 -60.5zM1280 643q139 0 221 -86t82 -217q0 -155 -107.5 -269t-267.5 -114q-140 0 -221.5 86t-81.5 217q0 156 107 269.5t268 113.5zM1210 47q117 0 194 87.5t77 207.5q0 90 -56 150.5t-149 60.5q-116 0 -193 -87t-77 -206q0 -92 55.5 -152.5
t148.5 -60.5z" />
    <glyph glyph-name="ampersand" unicode="&#x26;" horiz-adv-x="1484" 
d="M1313 0h-154l-133 162q-198 -201 -461 -201q-201 0 -325.5 107.5t-124.5 279.5q0 321 395 451q-71 93 -104 166t-33 155q0 149 105.5 252t269.5 103q154 0 248 -89t94 -231q0 -137 -111 -242t-283 -155l336 -412q121 170 215 422h129q-132 -335 -270 -514zM500 1118
q0 -68 30 -128.5t103 -151.5q156 42 246 124t90 187q0 92 -59.5 152.5t-164.5 60.5q-114 0 -179.5 -69t-65.5 -175zM246 358q0 -127 91 -206.5t232 -79.5q214 0 385 180l-360 440q-3 4 -10.5 12.5t-10.5 12.5q-327 -109 -327 -359z" />
    <glyph glyph-name="quotesingle" unicode="'" horiz-adv-x="555" 
d="M399 909h-104l74 525h139z" />
    <glyph glyph-name="parenleft" unicode="(" horiz-adv-x="591" 
d="M725 1456q-545 -447 -545 -1069q0 -231 59 -400.5t181 -330.5l-96 -66q-269 326 -269 795q0 685 594 1151z" />
    <glyph glyph-name="parenright" unicode=")" horiz-adv-x="591" 
d="M-121 -330q545 447 545 1069q0 232 -58.5 401.5t-181.5 329.5l97 66q268 -320 268 -795q0 -684 -592 -1151z" />
    <glyph glyph-name="asterisk" unicode="*" horiz-adv-x="808" 
d="M715 780l-97 -59l-122 266l-217 -266l-86 67l241 252l-280 88l43 97l274 -111l41 320h113l-72 -322l309 113l15 -105l-316 -86z" />
    <glyph glyph-name="plus" unicode="+" 
d="M1106 463h-447l-81 -463h-109l82 463h-447l21 108h444l82 461h109l-82 -461h448z" />
    <glyph glyph-name="comma" unicode="," horiz-adv-x="552" 
d="M92 -328h-117l250 498h146z" />
    <glyph glyph-name="hyphen" unicode="-" horiz-adv-x="616" 
d="M53 582h535l-21 -115h-534z" />
    <glyph glyph-name="period" unicode="." horiz-adv-x="552" 
d="M201 -23q-43 0 -72 29t-29 72t29 71.5t72 28.5q44 0 73 -28.5t29 -71.5t-29 -72t-73 -29z" />
    <glyph glyph-name="slash" unicode="/" horiz-adv-x="684" 
d="M-129 -403l838 1939h125l-840 -1939h-123z" />
    <glyph glyph-name="zero" unicode="0" 
d="M743 1475q217 0 328 -156.5t111 -425.5q0 -145 -26.5 -282t-80 -255t-127.5 -206.5t-176 -139.5t-219 -51q-216 0 -326 156.5t-110 425.5q0 145 26.5 282t79.5 255t127 206.5t175 139.5t218 51zM553 80q112 0 207.5 68.5t158 182.5t97.5 260.5t35 303.5
q0 138 -32.5 239.5t-102 160.5t-171.5 59q-112 0 -207.5 -68.5t-157.5 -182.5t-97 -260.5t-35 -303.5q0 -138 32 -239.5t101.5 -160.5t171.5 -59z" />
    <glyph glyph-name="one" unicode="1" horiz-adv-x="917" 
d="M408 0l225 1292l-443 -223l-57 102l520 263h131l-252 -1434h-124z" />
    <glyph glyph-name="two" unicode="2" 
d="M76 0l20 115l588 516q199 175 267.5 269.5t68.5 207.5q0 111 -75.5 180.5t-190.5 69.5q-104 0 -190.5 -51t-166.5 -170l-100 69q176 269 465 269q167 0 278 -102t111 -257q0 -60 -15.5 -113.5t-42.5 -101.5t-78.5 -106.5t-108.5 -112.5t-148 -135l-496 -432h746l-21 -115
h-911z" />
    <glyph glyph-name="three" unicode="3" 
d="M1128 1116q0 -122 -76.5 -220.5t-222.5 -139.5q126 -50 185 -143.5t59 -209.5q0 -192 -133.5 -318t-361.5 -126q-351 0 -502 270l112 64q132 -217 390 -217q168 0 266 93.5t98 233.5q0 135 -87 219.5t-265 84.5h-168l20 112h201q169 0 261.5 82t92.5 209q0 108 -73 178
t-179 70q-104 0 -185.5 -46t-156.5 -159l-100 70q172 252 451 252q160 0 267 -102t107 -257z" />
    <glyph glyph-name="four" unicode="4" 
d="M88 434l21 115l835 885h168l-156 -885h172l-20 -115h-172l-76 -434h-125l76 434h-723zM254 549h577l134 751z" />
    <glyph glyph-name="five" unicode="5" 
d="M274 709l168 725h727l-18 -115h-608l-115 -496h168q126 0 220.5 -32.5t149 -90t81 -129.5t26.5 -159q0 -93 -34 -175.5t-96.5 -144t-157.5 -97.5t-210 -36q-351 0 -499 270l112 64q129 -217 387 -217q169 0 268 93.5t99 233.5q0 137 -87.5 221.5t-268.5 84.5h-312z" />
    <glyph glyph-name="six" unicode="6" 
d="M784 1475q152 0 267.5 -69t171.5 -189l-113 -64q-43 97 -132 151t-196 54q-109 0 -200 -53.5t-154 -146.5t-103.5 -211.5t-56.5 -254.5q173 189 404 189q188 0 303 -113t115 -305q0 -219 -141 -361.5t-365 -142.5q-97 0 -179.5 36t-145 105t-97.5 178t-35 246
q0 120 18.5 235t53.5 221.5t91 196.5t127 156.5t165 104t202 37.5zM258 526q0 -224 93 -337t235 -113q167 0 268.5 110t101.5 275q0 142 -83 222.5t-218 80.5q-122 0 -223 -60t-174 -161v-17z" />
    <glyph glyph-name="seven" unicode="7" 
d="M279 0h-154l981 1319h-801l19 115h946l-19 -115z" />
    <glyph glyph-name="eight" unicode="8" 
d="M287 1083q0 71 29.5 140t83.5 125.5t140.5 91.5t190.5 35q191 0 304.5 -97t113.5 -250q0 -118 -74.5 -217t-216.5 -137q116 -45 177 -136.5t61 -215.5q0 -68 -19.5 -133t-61 -125t-101 -105.5t-146.5 -72.5t-190 -27q-232 0 -360 112.5t-128 297.5q0 69 23 136.5t68 127
t118 104.5t166 64q-87 41 -132.5 114t-45.5 168zM422 1081q0 -113 73 -178t212 -65q78 0 138.5 24.5t97 65t55 90t18.5 104.5q0 108 -78 175t-209 67q-140 0 -223.5 -85t-83.5 -198zM965 426q0 139 -92 221t-267 82q-95 0 -170.5 -30t-120.5 -80.5t-68.5 -112.5t-23.5 -131
q0 -139 91.5 -220t265.5 -81q96 0 171.5 29.5t121 80t69 112t23.5 130.5z" />
    <glyph glyph-name="nine" unicode="9" 
d="M506 -41q-152 0 -268 69t-172 189l112 64q43 -98 132.5 -151.5t197.5 -53.5q109 0 200 53t154 145.5t103 211t55 255.5q-172 -188 -404 -188q-186 0 -300.5 113t-114.5 305q0 219 141 361.5t363 142.5q98 0 180.5 -36.5t144 -105.5t96.5 -178t35 -246
q0 -144 -25.5 -280.5t-79 -258.5t-129.5 -213t-184.5 -144.5t-236.5 -53.5zM332 973q0 -142 83 -222.5t218 -80.5q232 0 397 219v18q0 114 -26 202.5t-71.5 141.5t-103 80t-124.5 27q-169 0 -271 -110t-102 -275z" />
    <glyph glyph-name="colon" unicode=":" horiz-adv-x="552" 
d="M354 854q-43 0 -71.5 28.5t-28.5 71.5t28.5 72t71.5 29q44 0 73.5 -29t29.5 -72t-29.5 -71.5t-73.5 -28.5zM203 -23q-44 0 -73.5 29t-29.5 72t29.5 71.5t73.5 28.5q43 0 71.5 -28.5t28.5 -71.5t-28.5 -72t-71.5 -29z" />
    <glyph glyph-name="semicolon" unicode=";" horiz-adv-x="552" 
d="M354 854q-44 0 -73 28.5t-29 71.5t29 72t73 29q43 0 72 -29t29 -72t-29 -71.5t-72 -28.5zM74 -328h-117l248 498h147z" />
    <glyph glyph-name="less" unicode="&#x3c;" 
d="M1044 111l-20 -111l-920 455l21 123l1081 454l-20 -123l-946 -399z" />
    <glyph glyph-name="equal" unicode="=" 
d="M1147 686h-1002l19 107h999zM1067 240h-1001l18 108h1001z" />
    <glyph glyph-name="greater" unicode="&#x3e;" 
d="M45 123l944 399l-805 400l21 110l921 -454l-20 -123l-1081 -455z" />
    <glyph glyph-name="question" unicode="?" horiz-adv-x="1001" 
d="M342 389l31 324q532 43 532 374q0 115 -77.5 196t-209.5 81q-183 0 -311 -168l-96 68q78 105 185 158t231 53q182 0 295.5 -108.5t113.5 -274.5q0 -197 -146.5 -318t-402.5 -149l-49 -236h-96zM338 -23q-44 0 -73 29t-29 72t29 71.5t73 28.5q43 0 71.5 -28.5t28.5 -71.5
t-28.5 -72t-71.5 -29z" />
    <glyph glyph-name="at" unicode="@" horiz-adv-x="1673" 
d="M487 463q0 173 105.5 290t267.5 117q80 0 146.5 -34.5t105.5 -98.5l18 109h105l-84 -479q-9 -57 17 -91t85 -34q99 0 168.5 112t69.5 285q0 152 -77 277t-213.5 197.5t-303.5 72.5q-151 0 -282.5 -59t-222.5 -157.5t-143 -230t-52 -274.5q0 -137 51 -255t135.5 -197.5
t195.5 -125t230 -45.5q167 0 292 50.5t232 160.5l58 -71q-118 -118 -257 -172t-323 -54q-148 0 -279.5 51.5t-227.5 143t-152 224.5t-56 288q0 163 60.5 311t165 258t255 175t320.5 65q147 0 276 -49t220 -133t143.5 -200.5t52.5 -248.5q0 -207 -100 -347t-236 -140
q-77 0 -126.5 36t-63.5 97q-109 -133 -264 -133q-139 0 -225.5 88t-86.5 221zM598 467q0 -94 57 -156.5t156 -62.5q145 0 238 127l43 254q-31 69 -89.5 108t-136.5 39q-116 0 -192 -87t-76 -222z" />
    <glyph glyph-name="A" unicode="A" horiz-adv-x="1456" 
d="M-23 0l824 1434h180l317 -1434h-133l-98 451h-688l-258 -451h-144zM444 567h598l-163 758z" />
    <glyph glyph-name="B" unicode="B" horiz-adv-x="1150" 
d="M139 0l254 1434h252q195 0 298.5 -86.5t103.5 -239.5q0 -119 -67.5 -212.5t-188.5 -135.5q110 -40 166.5 -124.5t56.5 -193.5q0 -197 -146.5 -319.5t-380.5 -122.5h-348zM641 1319h-137l-88 -502h176q143 0 229 80t86 201q0 106 -69.5 163.5t-196.5 57.5zM594 702h-199
l-104 -587h203q173 0 278 89t105 234q0 119 -74 191.5t-209 72.5z" />
    <glyph glyph-name="C" unicode="C" horiz-adv-x="1523" 
d="M946 1475q186 0 336.5 -86t228.5 -224l-114 -73q-60 116 -185 188t-270 72q-191 0 -346 -99.5t-240.5 -264t-85.5 -357.5q0 -150 64 -274.5t185 -199.5t274 -75q159 0 280 59.5t223 177.5l95 -88q-227 -272 -603 -272q-192 0 -342 88t-231.5 239.5t-81.5 338.5
q0 112 27 219.5t76.5 201.5t122.5 173t161.5 136t198 88.5t227.5 31.5z" />
    <glyph glyph-name="D" unicode="D" horiz-adv-x="1595" 
d="M139 0l254 1434h438q321 0 511 -174t190 -461q0 -125 -37 -242.5t-111 -218.5t-176 -176.5t-240 -118.5t-296 -43h-533zM831 1313h-327l-213 -1192h381q131 0 247 36t202 99t148.5 147.5t94 184t31.5 205.5q0 234 -152.5 377t-411.5 143z" />
    <glyph glyph-name="E" unicode="E" horiz-adv-x="1093" 
d="M139 0l254 1434h709l-21 -115h-577l-94 -533h499l-20 -112h-500l-98 -559h579l-20 -115h-711z" />
    <glyph glyph-name="F" unicode="F" horiz-adv-x="1015" 
d="M139 0l254 1434h709l-21 -115h-577l-94 -533h499l-20 -112h-500l-119 -674h-131z" />
    <glyph glyph-name="G" unicode="G" horiz-adv-x="1624" 
d="M788 -41q-192 0 -342 88t-231.5 239.5t-81.5 338.5q0 168 61 323t167.5 271.5t262 186t334.5 69.5q197 0 344 -83.5t226 -222.5l-115 -73q-60 116 -182 186t-277 70q-146 0 -274.5 -58.5t-217.5 -156.5t-140.5 -230t-51.5 -276q0 -149 64.5 -274t185.5 -200t273 -75
q282 0 493 194l70 396h-432l20 114h563l-102 -571q-116 -117 -273 -186.5t-344 -69.5z" />
    <glyph glyph-name="H" unicode="H" horiz-adv-x="1648" 
d="M139 0l254 1434h131l-114 -643h927l115 643h131l-254 -1434h-131l119 670h-928l-119 -670h-131z" />
    <glyph glyph-name="I" unicode="I" horiz-adv-x="589" 
d="M139 0l254 1434h131l-254 -1434h-131z" />
    <glyph glyph-name="J" unicode="J" horiz-adv-x="614" 
d="M305 39q-34 -194 -126 -277.5t-245 -83.5q-92 0 -147 25l20 113q55 -19 119 -19q51 0 88 10.5t70 37.5t55.5 79t36.5 131l244 1379h131z" />
    <glyph glyph-name="K" unicode="K" horiz-adv-x="1400" 
d="M139 0l254 1434h131l-137 -775l918 775h176l-697 -588l469 -846h-155l-414 762l-328 -277l-86 -485h-131z" />
    <glyph glyph-name="L" unicode="L" horiz-adv-x="1015" 
d="M139 0l254 1434h131l-233 -1313h579l-20 -121h-711z" />
    <glyph glyph-name="M" unicode="M" horiz-adv-x="1753" 
d="M139 0l254 1434h166l334 -795l614 795h181l-254 -1434h-131l223 1260l-596 -768h-111l-325 768l-224 -1260h-131z" />
    <glyph glyph-name="N" unicode="N" horiz-adv-x="1648" 
d="M139 0l254 1434h170l662 -1289l227 1289h131l-254 -1434h-170l-661 1286l-228 -1286h-131z" />
    <glyph glyph-name="O" unicode="O" horiz-adv-x="1671" 
d="M950 1475q145 0 268.5 -51.5t209 -140.5t134 -212t48.5 -262q0 -168 -60 -323t-165 -271.5t-259 -186t-331 -69.5q-145 0 -268.5 51.5t-209 140.5t-134 212t-48.5 262q0 168 60 323t165 271.5t259 186t331 69.5zM797 82q192 0 348.5 99.5t242 264t85.5 357.5
q0 112 -38 212t-106 174.5t-167.5 118.5t-215.5 44q-191 0 -347 -99.5t-241.5 -264t-85.5 -357.5q0 -112 38 -212t105 -174.5t166.5 -118.5t215.5 -44z" />
    <glyph glyph-name="P" unicode="P" horiz-adv-x="1105" 
d="M139 0l254 1434h332q189 0 299.5 -92.5t110.5 -258.5q0 -188 -135 -306t-363 -118h-250l-117 -659h-131zM719 1319h-215l-96 -545h229q167 0 262.5 83.5t95.5 221.5q0 120 -71.5 180t-204.5 60z" />
    <glyph glyph-name="Q" unicode="Q" horiz-adv-x="1671" 
d="M135 627q0 167 59.5 320.5t164.5 270.5t260 187t333 70q146 0 270 -52.5t208.5 -143t132 -212.5t47.5 -260q0 -240 -119.5 -445.5t-323.5 -312.5l111 -112q138 -138 278 -138q59 0 109 13l-23 -117q-49 -17 -106 -17q-194 0 -352 158l-156 156q-122 -33 -235 -33
q-146 0 -270.5 52.5t-208.5 143t-131.5 212.5t-47.5 260zM1473 809q0 147 -64.5 270.5t-185.5 198t-273 74.5q-146 0 -273.5 -60t-215.5 -160t-138.5 -233t-50.5 -276q0 -146 64.5 -269.5t185 -197.5t271.5 -74q146 0 274.5 60t216.5 160t138.5 232t50.5 275z" />
    <glyph glyph-name="R" unicode="R" horiz-adv-x="1241" 
d="M139 0l254 1434h295q192 0 301 -92t109 -259q0 -146 -86.5 -253.5t-237.5 -147.5l348 -682h-149l-324 662q-24 -3 -49 -3h-213l-117 -659h-131zM682 1319h-178l-96 -545h192q167 0 262.5 83.5t95.5 221.5q0 120 -71.5 180t-204.5 60z" />
    <glyph glyph-name="S" unicode="S" horiz-adv-x="1167" 
d="M449 1096q0 -65 29.5 -120t76.5 -95t103.5 -78t113 -79.5t103.5 -88.5t76.5 -114.5t29.5 -149.5q0 -176 -123.5 -294t-320.5 -118q-292 0 -445 240l105 77q133 -196 342 -196q139 0 223 81.5t84 200.5q0 66 -29.5 122t-76.5 96.5t-103.5 79.5t-113.5 80t-104 88
t-76.5 114t-29.5 148q0 159 121 272t299 113q274 0 393 -230l-106 -76q-88 187 -291 187q-119 0 -199.5 -76.5t-80.5 -183.5z" />
    <glyph glyph-name="T" unicode="T" horiz-adv-x="1241" 
d="M215 1313l23 121h1089l-22 -121h-478l-233 -1313h-131l233 1313h-481z" />
    <glyph glyph-name="U" unicode="U" horiz-adv-x="1431" 
d="M1112 524l160 910h131l-162 -914q-96 -561 -582 -561q-124 0 -220.5 38.5t-159.5 113.5t-85.5 186.5t3.5 257.5l155 879h131l-153 -883q-41 -230 48.5 -349.5t287.5 -119.5q182 0 295 111.5t151 330.5z" />
    <glyph glyph-name="V" unicode="V" horiz-adv-x="1456" 
d="M229 1434h136l290 -1309l752 1309h145l-827 -1434h-174z" />
    <glyph glyph-name="W" unicode="W" horiz-adv-x="2027" 
d="M236 1434h133l98 -1293l614 1293h181l159 -1293l555 1293h140l-619 -1434h-184l-162 1292l-621 -1292h-180z" />
    <glyph glyph-name="X" unicode="X" horiz-adv-x="1394" 
d="M143 0h-161l671 758l-372 676h147l328 -590l522 590h164l-619 -697l408 -737h-146l-362 655z" />
    <glyph glyph-name="Y" unicode="Y" horiz-adv-x="1302" 
d="M1438 1434l-695 -766l-116 -668h-131l118 674l-424 760h146l358 -646l582 646h162z" />
    <glyph glyph-name="Z" unicode="Z" horiz-adv-x="1296" 
d="M12 0l21 121l1114 1192h-883l21 121h1050l-20 -121l-1114 -1192h923l-22 -121h-1090z" />
    <glyph glyph-name="bracketleft" unicode="[" horiz-adv-x="573" 
d="M313 1536h418l-20 -106h-299l-306 -1727h302l-19 -106h-418z" />
    <glyph glyph-name="backslash" unicode="\" horiz-adv-x="684" 
d="M492 -403h-117l-162 1939h115z" />
    <glyph glyph-name="bracketright" unicode="]" horiz-adv-x="573" 
d="M281 -403h-416l18 106h299l305 1727h-301l21 106h416l-19 -106z" />
    <glyph glyph-name="asciicircum" unicode="^" 
d="M346 315h-121l350 463h175l188 -463h-107l-174 392z" />
    <glyph glyph-name="underscore" unicode="_" horiz-adv-x="1073" 
d="M-96 -209h1011l-20 -106h-1010z" />
    <glyph glyph-name="grave" unicode="`" horiz-adv-x="688" 
d="M520 1196l-170 340h135l148 -340h-113z" />
    <glyph glyph-name="a" unicode="a" horiz-adv-x="1112" 
d="M391 -29q-140 0 -224.5 68t-84.5 188q0 128 93.5 209.5t273.5 110.5l387 65l14 82q23 128 -39 198.5t-188 70.5q-91 0 -175 -42.5t-151 -117.5l-90 76q79 89 187.5 141.5t232.5 52.5q189 0 281.5 -107t60.5 -288l-123 -678h-117l25 137q-150 -166 -363 -166zM209 238
q0 -72 54 -117t147 -45q215 0 366 198l43 242l-346 -59q-264 -44 -264 -219z" />
    <glyph glyph-name="b" unicode="b" horiz-adv-x="1318" 
d="M1225 592q0 -173 -73 -317.5t-207 -230t-302 -85.5q-126 0 -227.5 52t-161.5 147l-29 -158h-121l273 1536h119l-109 -614q157 151 363 151q219 0 347 -135t128 -346zM729 958q-107 0 -204 -49t-165 -145l-81 -459q51 -108 143 -169.5t215 -61.5q131 0 236 67t164 184.5
t59 262.5q0 162 -99.5 266t-267.5 104z" />
    <glyph glyph-name="c" unicode="c" horiz-adv-x="1124" 
d="M702 1073q144 0 252 -60.5t162 -162.5l-104 -76q-43 85 -125 134.5t-193 49.5q-134 0 -243.5 -71t-169.5 -187t-60 -251q0 -160 101 -267.5t268 -107.5q107 0 194 45.5t146 124.5l84 -84q-163 -201 -424 -201q-229 0 -363.5 140.5t-134.5 351.5q0 123 46 237t125 199
t194 135.5t245 50.5z" />
    <glyph glyph-name="d" unicode="d" horiz-adv-x="1312" 
d="M94 440q0 129 43.5 245.5t119 202t184 135.5t233.5 50q126 0 229 -52.5t164 -148.5l117 664h119l-271 -1536h-121l21 119q-160 -160 -367 -160q-219 0 -345 135t-126 346zM221 444q0 -162 100 -266t269 -104q107 0 203.5 48.5t164.5 143.5l82 457q-48 110 -140.5 172.5
t-217.5 62.5q-199 0 -330 -147t-131 -367z" />
    <glyph glyph-name="e" unicode="e" horiz-adv-x="1155" 
d="M573 -41q-153 0 -263.5 67t-164 177t-53.5 248q0 125 39 237.5t110 198t180 136t241 50.5q182 0 298.5 -107.5t116.5 -267.5q0 -78 -22 -151h-830q-6 -49 -6 -98q0 -168 94.5 -273.5t264.5 -105.5q117 0 215.5 46.5t160.5 129.5l84 -78q-79 -99 -199.5 -154t-265.5 -55z
M659 969q-156 0 -262 -89.5t-151 -236.5h706q13 84 -17.5 158t-103 121t-172.5 47z" />
    <glyph glyph-name="f" unicode="f" horiz-adv-x="747" 
d="M152 1032h188l27 152q31 176 129 264t239 88q125 0 226 -68l-66 -96q-69 53 -160 53q-93 0 -160 -60t-88 -181l-26 -152h375l-19 -108h-375l-247 -1428h-123l250 1428h-191z" />
    <glyph glyph-name="g" unicode="g" horiz-adv-x="1101" 
d="M-57 -223q0 91 55.5 169t159.5 136q-60 45 -60 125q0 68 48 124t128 95q-108 94 -108 246q0 78 28.5 149.5t81 128.5t135 91t181.5 34q101 0 182 -43h397l-20 -106h-262q51 -79 51 -178q0 -105 -48.5 -196t-147 -150.5t-228.5 -59.5q-98 0 -168 37q-63 -30 -98 -70.5
t-35 -81.5q0 -69 84 -69h285q182 0 270 -77.5t88 -207.5q0 -166 -145.5 -275.5t-399.5 -109.5q-227 0 -340.5 77t-113.5 212zM819 743q0 98 -62 164t-167 66q-144 0 -224.5 -88t-80.5 -211q0 -97 61.5 -163.5t169.5 -66.5q141 0 222 89t81 210zM68 -207q0 -201 331 -201
q202 0 310 76.5t108 198.5q0 180 -239 180h-310q-95 -44 -147.5 -114.5t-52.5 -139.5z" />
    <glyph glyph-name="h" unicode="h" horiz-adv-x="1239" 
d="M104 0l271 1536h121l-113 -635q161 172 367 172q186 0 279 -115.5t56 -324.5l-110 -633h-121l111 629q29 157 -36.5 243t-203.5 86q-220 0 -369 -215l-131 -743h-121z" />
    <glyph glyph-name="i" unicode="i" horiz-adv-x="512" 
d="M420 1358q-39 0 -65.5 26.5t-26.5 65.5q0 37 27 63.5t65 26.5t65 -26.5t27 -63.5q0 -39 -26.5 -65.5t-65.5 -26.5zM106 0l181 1032h121l-183 -1032h-119z" />
    <glyph glyph-name="j" unicode="j" horiz-adv-x="512" 
d="M420 1358q-39 0 -66.5 26.5t-27.5 65.5q0 37 28 63.5t66 26.5t65 -26.5t27 -63.5q0 -39 -26.5 -65.5t-65.5 -26.5zM195 -170q-17 -100 -50.5 -168.5t-82.5 -105.5t-105.5 -52.5t-130.5 -15.5q-104 0 -180 37l18 108q69 -32 150 -32q43 0 74 4.5t63.5 18.5t55 39.5
t41.5 70t30 106.5l209 1192h119z" />
    <glyph glyph-name="k" unicode="k" horiz-adv-x="1069" 
d="M106 0l271 1536h119l-181 -1034l621 530h162l-498 -426l332 -606h-135l-287 526l-223 -192l-60 -334h-121z" />
    <glyph glyph-name="l" unicode="l" horiz-adv-x="512" 
d="M106 0l271 1536h119l-271 -1536h-119z" />
    <glyph glyph-name="m" unicode="m" horiz-adv-x="1906" 
d="M106 0l181 1032h121l-23 -129q156 170 344 170q121 0 203 -57.5t110 -163.5q183 221 398 221q174 0 263 -115.5t52 -320.5l-113 -637h-118l110 633q28 156 -33 240.5t-186 84.5q-204 0 -358 -231q-4 -60 -10 -90l-113 -637h-121l113 633q27 156 -34.5 240.5t-186.5 84.5
q-200 0 -349 -213l-131 -745h-119z" />
    <glyph glyph-name="n" unicode="n" horiz-adv-x="1239" 
d="M104 0l183 1032h119l-23 -133q160 174 367 174q186 0 279 -115.5t56 -324.5l-110 -633h-121l111 629q29 157 -36.5 243t-203.5 86q-219 0 -371 -217l-129 -741h-121z" />
    <glyph glyph-name="o" unicode="o" horiz-adv-x="1277" 
d="M702 1073q149 0 261 -66.5t168.5 -177t56.5 -247.5q0 -122 -45 -235.5t-123.5 -199t-193.5 -137t-246 -51.5q-150 0 -262.5 66.5t-169 177.5t-56.5 248q0 164 76 306t217 229t317 87zM582 74q103 0 193 42t152 112t98 162.5t36 193.5q0 159 -100.5 266.5t-262.5 107.5
q-103 0 -193 -41.5t-151.5 -111.5t-97 -162.5t-35.5 -193.5q0 -159 99.5 -267t261.5 -108z" />
    <glyph glyph-name="p" unicode="p" horiz-adv-x="1316" 
d="M16 -504l271 1536h119l-21 -121q159 162 367 162q219 0 345 -135t126 -346q0 -129 -43.5 -245.5t-119 -202t-184 -135.5t-233.5 -50q-127 0 -229 52.5t-162 148.5l-117 -664h-119zM729 958q-108 0 -205.5 -48.5t-165.5 -143.5l-79 -459q48 -109 140.5 -171t215.5 -62
q199 0 330 147t131 367q0 161 -100 265.5t-267 104.5z" />
    <glyph glyph-name="q" unicode="q" horiz-adv-x="1316" 
d="M94 440q0 129 43.5 245.5t119 202t184 135.5t233.5 50q126 0 228 -52t163 -149l29 160h118l-270 -1536h-119l109 615q-158 -152 -365 -152q-220 0 -346.5 135t-126.5 346zM221 444q0 -162 100 -266t269 -104q107 0 203.5 48.5t164.5 145.5l80 455q-47 111 -139 173
t-217 62q-199 0 -330 -147t-131 -367z" />
    <glyph glyph-name="r" unicode="r" horiz-adv-x="778" 
d="M104 0l183 1032h121l-27 -153q76 88 152.5 131t173.5 43q56 0 94 -13l-21 -116q-51 14 -90 14q-98 0 -177 -52t-159 -157l-129 -729h-121z" />
    <glyph glyph-name="s" unicode="s" horiz-adv-x="862" 
d="M301 784q0 -47 23 -85t60 -65.5t81.5 -52.5t89 -53.5t81.5 -61.5t60 -83.5t23 -112.5q0 -126 -96 -218.5t-244 -92.5q-114 0 -209.5 51t-151.5 146l95 67q101 -160 270 -160q96 0 155.5 58t59.5 147q0 47 -23 84.5t-59.5 64.5t-81 52t-89 53t-81 61.5t-59.5 83.5t-23 113
q0 122 95.5 207.5t236.5 85.5q105 0 187.5 -51.5t123.5 -134.5l-98 -64q-67 146 -215 146q-90 0 -150.5 -56t-60.5 -129z" />
    <glyph glyph-name="t" unicode="t" horiz-adv-x="825" 
d="M219 344l103 580h-191l21 108h188l45 258h123l-45 -258h373l-19 -108h-375l-102 -586q-13 -60 -8 -103t17.5 -70.5t40 -43.5t58 -22.5t72.5 -6.5q69 0 156 27l-21 -111q-70 -28 -157 -28q-345 0 -279 364z" />
    <glyph glyph-name="u" unicode="u" horiz-adv-x="1204" 
d="M899 438l105 594h120l-104 -596q-42 -231 -161.5 -354t-311.5 -123q-214 0 -319.5 127.5t-65.5 359.5l102 586h121l-104 -594q-32 -175 40.5 -269.5t231.5 -94.5q139 0 227 93t119 271z" />
    <glyph glyph-name="v" unicode="v" horiz-adv-x="1052" 
d="M131 1032h127l195 -911l516 911h135l-588 -1032h-160z" />
    <glyph glyph-name="w" unicode="w" horiz-adv-x="1550" 
d="M170 1032h119l67 -909l422 909h168l101 -911l391 911h125l-441 -1032h-172l-104 915l-430 -915h-168z" />
    <glyph glyph-name="x" unicode="x" horiz-adv-x="1019" 
d="M102 0h-143l477 547l-264 485h131l223 -411l361 411h145l-440 -504l289 -528h-131l-248 457z" />
    <glyph glyph-name="y" unicode="y" horiz-adv-x="1077" 
d="M362 -260q-78 -133 -162.5 -192.5t-195.5 -59.5q-113 0 -174 37l18 110q56 -34 146 -34q157 0 264 182l129 219l-256 1030h129l213 -885l520 885h135z" />
    <glyph glyph-name="z" unicode="z" horiz-adv-x="970" 
d="M0 0l18 109l775 815h-617l19 108h766l-19 -108l-776 -815h645l-18 -109h-793z" />
    <glyph glyph-name="braceleft" unicode="{" horiz-adv-x="573" 
d="M344 395q0 -59 -21.5 -121t-52 -115.5t-60.5 -105.5t-51.5 -108.5t-21.5 -106.5q0 -64 50 -99.5t137 -35.5h84l-19 -106h-74q-140 0 -217.5 61.5t-77.5 175.5q0 56 21.5 115.5t52 112t60.5 105t51.5 112t21.5 114.5q0 121 -98 121h-121l21 109h121q74 0 112.5 59
t38.5 154q0 66 -22.5 192.5t-22.5 196.5q0 147 92 229t250 82h133l-20 -106h-113q-107 0 -166 -54t-59 -159q0 -66 22.5 -187t22.5 -190q0 -89 -40 -168t-114 -115q80 -53 80 -162z" />
    <glyph glyph-name="bar" unicode="|" horiz-adv-x="684" 
d="M123 -403l342 1939h117l-342 -1939h-117z" />
    <glyph glyph-name="braceright" unicode="}" horiz-adv-x="573" 
d="M250 737q0 59 21 121t51 115.5t60.5 105.5t51.5 108.5t21 106.5q0 64 -49.5 100t-137.5 36h-82l19 106h74q140 0 217 -62t77 -176q0 -56 -21.5 -115.5t-52 -112l-61 -105t-52 -112t-21.5 -114.5q0 -121 100 -121h119l-19 -108h-121q-74 0 -112.5 -59t-38.5 -154
q0 -66 22.5 -192.5t22.5 -196.5q0 -146 -92 -228.5t-250 -82.5h-133l20 106h113q107 0 166 54t59 159q0 66 -22.5 187t-22.5 190q0 89 39.5 167.5t114.5 114.5q-80 53 -80 162z" />
    <glyph glyph-name="asciitilde" unicode="~" 
d="M188 340l37 205q41 221 209 221q59 0 102.5 -25.5t67 -63.5t46 -83t39 -83t45.5 -63.5t67 -25.5q52 0 80.5 37t42.5 114l30 181h97l-37 -205q-20 -109 -73.5 -165t-133.5 -56q-69 0 -117.5 35.5t-74 86t-47.5 101t-53.5 86t-76.5 35.5q-98 0 -123 -152l-30 -180h-97z" />
    <glyph glyph-name="nbspace" unicode="&#xa0;" horiz-adv-x="552" 
 />
    <glyph glyph-name="exclamdown" unicode="&#xa1;" horiz-adv-x="573" 
d="M367 1073q44 0 73 -28.5t29 -71.5q0 -42 -29 -70.5t-73 -28.5q-43 0 -72 29t-29 70q0 43 29 71.5t72 28.5zM362 662l-165 -1045h-136l205 1045h96z" />
    <glyph glyph-name="cent" unicode="&#xa2;" 
d="M772 1434h111l-29 -162q117 -15 205 -73t135 -146l-102 -74q-36 73 -102.5 119.5t-155.5 58.5l-154 -878q206 6 328 170l84 -84q-75 -96 -182.5 -149.5t-241.5 -53.5h-9l-28 -162h-113l31 174q-177 34 -278 167t-101 312q0 159 72 297.5t204.5 227t296.5 98.5zM301 651
q0 -132 72 -231t196 -129l154 868q-122 -14 -219.5 -87t-150 -184t-52.5 -237z" />
    <glyph glyph-name="sterling" unicode="&#xa3;" 
d="M78 0l20 115h2l140 108q156 122 209 187.5t53 150.5q0 43 -13 90h-296l20 109h236q-4 8 -26.5 56t-29.5 65.5t-21 55.5t-19 69.5t-5 64.5q0 179 117.5 291.5t300.5 112.5q130 0 228 -61.5t159 -170.5l-104 -65q-95 180 -279 180q-135 0 -214 -80t-79 -213q0 -39 11 -83
t22 -71t35.5 -79t32.5 -72h446l-18 -109h-390q11 -53 11 -88q0 -70 -32.5 -132.5t-92 -123t-168.5 -147.5l-60 -45h736l-21 -115h-911z" />
    <glyph glyph-name="currency" unicode="&#xa4;" 
d="M952 0l-182 229q-85 -53 -190 -53q-120 0 -199 66l-275 -242l-69 76l276 246q-37 67 -37 155q0 149 97 260l-178 228l88 67l174 -223q82 51 186 51q122 0 205 -67l272 239l72 -76l-279 -245q35 -68 35 -152q0 -146 -94 -258l184 -233zM582 266q114 0 189 86t75 205
q0 90 -56 150.5t-149 60.5q-112 0 -188 -85.5t-76 -203.5q0 -90 56 -151.5t149 -61.5z" />
    <glyph glyph-name="yen" unicode="&#xa5;" 
d="M150 496l18 108h401l35 205h-401l20 109h324l-273 518h144l264 -514l444 512h154l-453 -516h324l-18 -109h-402l-35 -205h400l-19 -108h-399l-88 -496h-127l88 496h-401z" />
    <glyph glyph-name="brokenbar" unicode="&#xa6;" horiz-adv-x="684" 
d="M455 817h-117l127 719h117zM240 -403h-117l127 718h117z" />
    <glyph glyph-name="section" unicode="&#xa7;" horiz-adv-x="1040" 
d="M397 -291q106 0 179 57t73 166q0 60 -29 108t-75 80.5t-102 62.5t-112 63t-102 72t-75 99t-29 136q0 114 80 194t213 117q-158 106 -158 277q0 80 30.5 144.5t83 105t119.5 62.5t142 22q219 0 385 -181l-86 -75q-143 149 -301 149q-105 0 -178.5 -57t-73.5 -164
q0 -60 29 -108t75.5 -81t102.5 -63t112 -63t102.5 -72t75.5 -99t29 -135q0 -116 -81 -195.5t-216 -115.5q76 -51 118 -116.5t42 -161.5q0 -105 -53 -181.5t-136.5 -113.5t-185.5 -37q-219 0 -389 182l88 78q150 -156 303 -156zM246 557q0 -51 16.5 -90.5t61 -76t69.5 -52
t94 -52.5q5 -3 8 -5t8 -4.5l9 -4.5q123 22 197.5 91t74.5 159q0 41 -14.5 76.5t-33 59t-56.5 51t-62.5 42t-73.5 40.5q-17 9 -26 14q-122 -22 -197 -91t-75 -157z" />
    <glyph glyph-name="dieresis" unicode="&#xa8;" horiz-adv-x="688" 
d="M330 1364q-37 0 -64.5 25.5t-27.5 60.5q0 38 27.5 64t64.5 26t63.5 -26t26.5 -64q0 -35 -26.5 -60.5t-63.5 -25.5zM690 1364q-38 0 -65 25.5t-27 60.5q0 38 27 64t65 26q37 0 63.5 -26t26.5 -64q0 -35 -26.5 -60.5t-63.5 -25.5z" />
    <glyph glyph-name="copyright" unicode="&#xa9;" horiz-adv-x="1705" 
d="M952 1475q162 0 293.5 -52t217.5 -142.5t132.5 -212t46.5 -261.5q0 -173 -64 -330t-172.5 -270.5t-260.5 -180.5t-320 -67q-162 0 -294 52t-218.5 142.5t-133 212t-46.5 261.5q0 173 64 330t173 270.5t261 180.5t321 67zM823 43q150 0 284.5 61t230.5 164.5t152 244
t56 294.5q0 123 -40 229.5t-114 185.5t-187 124t-251 45q-201 0 -368 -104t-262 -279t-95 -381q0 -123 40.5 -229.5t115 -185.5t187.5 -124t251 -45zM944 1182q118 0 210 -52.5t142 -138.5l-92 -59q-36 67 -106.5 108t-155.5 41q-167 0 -277 -121.5t-110 -295.5
q0 -133 83 -224.5t216 -91.5q170 0 291 137l74 -67q-136 -168 -371 -168q-179 0 -291.5 115t-112.5 294q0 104 37 199.5t101.5 167t158.5 114t203 42.5z" />
    <glyph glyph-name="ordfeminine" unicode="&#xaa;" horiz-adv-x="712" 
d="M369 803q-87 0 -140 44.5t-53 121.5q0 79 56.5 131.5t168.5 70.5l230 39l8 41q12 71 -23 111.5t-106 40.5q-104 0 -186 -92l-70 57q46 55 113.5 88t146.5 33q124 0 181.5 -69t35.5 -185l-72 -406h-94l13 74q-84 -100 -209 -100zM274 979q0 -42 30 -69t83 -27
q120 0 209 116l22 140l-198 -35q-146 -27 -146 -125zM129 541l16 92h471l-16 -92h-471z" />
    <glyph glyph-name="guillemetleft" unicode="&#xab;" horiz-adv-x="1013" 
d="M434 98h-125l-196 410l342 410h141l-350 -424zM825 98h-125l-196 410l342 410h141l-350 -424z" />
    <glyph glyph-name="logicalnot" unicode="&#xac;" 
d="M1163 793l-96 -553h-106l77 446h-893l19 107h999z" />
    <glyph glyph-name="registered" unicode="&#xae;" horiz-adv-x="1024" 
d="M641 1475q192 0 303 -113.5t111 -286.5q0 -139 -65 -256.5t-177.5 -185.5t-247.5 -68q-193 0 -304 113.5t-111 286.5q0 213 142.5 361.5t348.5 148.5zM565 629q113 0 209 60t151.5 163t55.5 223q0 146 -91 241t-249 95q-176 0 -297 -131t-121 -315q0 -146 91.5 -241
t250.5 -95zM408 760l92 528h127q76 0 120 -34.5t44 -98.5q0 -53 -32 -92.5t-89 -56.5l118 -246h-88l-102 235h-70l-43 -235h-77zM623 1223h-56l-28 -162h57q51 0 81 25.5t30 66.5q0 70 -84 70z" />
    <glyph glyph-name="macron" unicode="&#xaf;" horiz-adv-x="688" 
d="M215 1401l16 94h570l-17 -94h-569z" />
    <glyph glyph-name="degree" unicode="&#xb0;" horiz-adv-x="821" 
d="M551 1475q141 0 224 -86t83 -215q0 -157 -104.5 -270t-264.5 -113q-139 0 -222 86.5t-83 214.5q0 156 104 269.5t263 113.5zM492 881q115 0 189.5 85t74.5 203q0 91 -57 152t-150 61q-113 0 -187.5 -84.5t-74.5 -201.5q0 -91 56.5 -153t148.5 -62z" />
    <glyph glyph-name="plusminus" unicode="&#xb1;" 
d="M1130 596h-448l-57 -328h-109l57 328h-444l18 109h447l57 327h109l-58 -327h447zM1024 0h-999l18 106h1001z" />
    <glyph glyph-name="twosuperior" unicode="&#xb2;" horiz-adv-x="772" 
d="M158 829l16 93l361 313q111 98 149.5 151t38.5 117q0 62 -43 102t-107 40q-118 0 -211 -136l-77 56q110 172 295 172q106 0 176.5 -64t70.5 -162q0 -87 -51 -157.5t-184 -186.5l-285 -245h436l-16 -93h-569z" />
    <glyph glyph-name="threesuperior" unicode="&#xb3;" horiz-adv-x="772" 
d="M815 1511q0 -72 -46 -131.5t-132 -87.5q74 -29 109.5 -85.5t35.5 -127.5q0 -116 -84.5 -195t-226.5 -79q-224 0 -315 174l90 49q76 -133 225 -133q94 0 150.5 53t56.5 133q0 78 -50 125t-151 47h-106l16 90h121q99 0 151 45.5t52 116.5q0 62 -41 101t-101 39t-107 -27.5
t-89 -91.5l-80 53q107 158 282 158q103 0 171.5 -64t68.5 -162z" />
    <glyph glyph-name="acute" unicode="&#xb4;" horiz-adv-x="688" 
d="M412 1196h-125l266 340h147z" />
    <glyph glyph-name="paragraph" unicode="&#xb6;" horiz-adv-x="1253" 
d="M520 -403h-121l187 1062h-23q-174 0 -288.5 95t-114.5 268q0 82 32 156t92 131.5t155 91t212 33.5h195zM748 -403l323 1837h117l-326 -1837h-114z" />
    <glyph glyph-name="periodcentered" unicode="&#xb7;" horiz-adv-x="552" 
d="M287 424q-43 0 -72 28.5t-29 71.5t29 72t72 29q44 0 73 -29t29 -72t-29 -71.5t-73 -28.5z" />
    <glyph glyph-name="cedilla" unicode="&#xb8;" horiz-adv-x="688" 
d="M248 18l94 -14l-137 -151h8q81 0 133.5 -47.5t52.5 -116.5q0 -85 -61 -140t-162 -55q-61 0 -115 21t-90 57l62 72q62 -66 143 -66q53 0 86 27.5t33 77.5q0 39 -28.5 66.5t-78.5 27.5q-44 0 -79 -21l-46 60z" />
    <glyph glyph-name="onesuperior" unicode="&#xb9;" horiz-adv-x="772" 
d="M143 829l15 93h268l119 677l-258 -129l-43 80l319 162h103l-140 -790h232l-17 -93h-598z" />
    <glyph glyph-name="ordmasculine" unicode="&#xba;" horiz-adv-x="821" 
d="M559 1489q139 0 221 -86t82 -217q0 -155 -107.5 -269t-267.5 -114q-140 0 -221.5 86t-81.5 217q0 156 107 269.5t268 113.5zM489 893q117 0 194 87.5t77 207.5q0 90 -56 150.5t-149 60.5q-116 0 -193 -87t-77 -206q0 -92 55.5 -152.5t148.5 -60.5zM131 541l16 92h570
l-17 -92h-569z" />
    <glyph glyph-name="guillemetright" unicode="&#xbb;" horiz-adv-x="1013" 
d="M197 918h122l199 -410l-344 -410h-139l348 422zM588 918h123l198 -410l-344 -410h-139l348 422z" />
    <glyph glyph-name="onequarter" unicode="&#xbc;" horiz-adv-x="1781" 
d="M96 553l15 92h268l119 678l-258 -129l-43 80l319 162h102l-139 -791h232l-17 -92h-598zM344 0l1264 1434h139l-1264 -1434h-139zM1034 258l17 92l495 531h129l-94 -531h100l-16 -92h-100l-45 -258h-101l45 258h-430zM1163 350h318l75 422z" />
    <glyph glyph-name="onehalf" unicode="&#xbd;" horiz-adv-x="1961" 
d="M96 553l15 92h268l119 678l-258 -129l-43 80l319 162h102l-139 -791h232l-17 -92h-598zM344 0l1264 1434h139l-1264 -1434h-139zM1204 0l17 92l360 314q111 98 149.5 151t38.5 117q0 62 -42.5 101.5t-106.5 39.5q-61 0 -111.5 -32t-99.5 -103l-78 55q110 172 295 172
q106 0 177 -63.5t71 -161.5q0 -87 -51.5 -157.5t-184.5 -186.5l-284 -246h436l-16 -92h-570z" />
    <glyph glyph-name="threequarters" unicode="&#xbe;" horiz-adv-x="1718" 
d="M768 1235q0 -72 -46 -131.5t-132 -87.5q74 -29 109.5 -85.5t35.5 -127.5q0 -117 -84.5 -196t-226.5 -79q-224 0 -315 174l90 50q76 -134 225 -134q94 0 150.5 53.5t56.5 133.5q0 78 -50 125t-151 47h-106l16 90h121q99 0 151 45.5t52 116.5q0 62 -41 100.5t-101 38.5
t-107 -27.5t-89 -91.5l-80 54q107 157 282 157q103 0 171.5 -63.5t68.5 -161.5zM281 0l1263 1434h139l-1263 -1434h-139zM971 258l16 92l496 531h129l-94 -531h100l-16 -92h-101l-45 -258h-100l45 258h-430zM1100 350h317l76 422z" />
    <glyph glyph-name="questiondown" unicode="&#xbf;" horiz-adv-x="1001" 
d="M670 1073q44 0 73 -28.5t29 -71.5q0 -42 -29 -70.5t-73 -28.5q-43 0 -72 29t-29 70q0 43 29 71.5t72 28.5zM666 662l-31 -324q-256 -21 -394.5 -118.5t-138.5 -270.5q0 -113 76 -186.5t209 -73.5q184 0 313 166l97 -68q-78 -105 -185 -158t-231 -53q-185 0 -297.5 102
t-112.5 267q0 199 148 326t401 155l49 236h97z" />
    <glyph glyph-name="Agrave" unicode="&#xc0;" horiz-adv-x="1456" 
d="M860 1556l-203 277h144l176 -277h-117zM-23 0l824 1434h180l317 -1434h-133l-98 451h-688l-258 -451h-144zM444 567h598l-163 758z" />
    <glyph glyph-name="Aacute" unicode="&#xc1;" horiz-adv-x="1456" 
d="M981 1556h-129l274 277h156zM-23 0l824 1434h180l317 -1434h-133l-98 451h-688l-258 -451h-144zM444 567h598l-163 758z" />
    <glyph glyph-name="Acircumflex" unicode="&#xc2;" horiz-adv-x="1456" 
d="M729 1556h-119l273 277h161l175 -277h-107l-154 211zM-23 0l824 1434h180l317 -1434h-133l-98 451h-688l-258 -451h-144zM444 567h598l-163 758z" />
    <glyph glyph-name="Atilde" unicode="&#xc3;" horiz-adv-x="1456" 
d="M610 1573l17 90q12 79 57.5 126.5t114.5 47.5q47 0 82.5 -20t57.5 -48.5t40.5 -57.5t40.5 -49t49 -20q67 0 80 89l16 86h97l-15 -91q-12 -78 -58.5 -126t-115.5 -48q-47 0 -83.5 20t-59 49t-41.5 57.5t-41 48.5t-47 20q-62 0 -78 -88l-16 -86h-97zM-23 0l824 1434h180
l317 -1434h-133l-98 451h-688l-258 -451h-144zM444 567h598l-163 758z" />
    <glyph glyph-name="Adieresis" unicode="&#xc4;" horiz-adv-x="1456" 
d="M764 1651q-36 0 -62 25t-26 61q0 35 26.5 60.5t61.5 25.5q37 0 62.5 -25.5t25.5 -60.5q0 -37 -25.5 -61.5t-62.5 -24.5zM1124 1651q-37 0 -62.5 24.5t-25.5 61.5q0 35 25.5 60.5t62.5 25.5t62.5 -25.5t25.5 -60.5q0 -37 -25.5 -61.5t-62.5 -24.5zM-23 0l824 1434h180
l317 -1434h-133l-98 451h-688l-258 -451h-144zM444 567h598l-163 758z" />
    <glyph glyph-name="Aring" unicode="&#xc5;" horiz-adv-x="1456" 
d="M965 1978q93 0 157 -58t64 -151q0 -112 -75.5 -182.5t-182.5 -70.5q-93 0 -157 57.5t-64 150.5q0 113 75.5 183.5t182.5 70.5zM961 1894q-72 0 -117 -47.5t-45 -117.5q0 -58 37 -94t96 -36q72 0 117 47t45 117q0 58 -37 94.5t-96 36.5zM-23 0l824 1434h180l317 -1434
h-133l-98 451h-688l-258 -451h-144zM444 567h598l-163 758z" />
    <glyph glyph-name="AE" unicode="&#xc6;" horiz-adv-x="1925" 
d="M-33 0l1168 1434h798l-20 -115h-580l-94 -533h500l-21 -112h-497l-99 -559h578l-21 -115h-708l80 451h-557l-365 -451h-162zM588 567h483l133 760z" />
    <glyph glyph-name="Ccedilla" unicode="&#xc7;" horiz-adv-x="1523" 
d="M946 1475q186 0 336.5 -86t228.5 -224l-114 -73q-60 116 -185 188t-270 72q-191 0 -346 -99.5t-240.5 -264t-85.5 -357.5q0 -150 64 -274.5t185 -199.5t274 -75q159 0 280 59.5t223 177.5l95 -88q-208 -249 -545 -270l-230 -289h-135l238 291q-173 15 -307 106
t-206.5 236t-72.5 320q0 112 27 219.5t76.5 201.5t122.5 173t161.5 136t198 88.5t227.5 31.5z" />
    <glyph glyph-name="Egrave" unicode="&#xc8;" horiz-adv-x="1093" 
d="M682 1556l-203 277h144l176 -277h-117zM139 0l254 1434h709l-21 -115h-577l-94 -533h499l-20 -112h-500l-98 -559h579l-20 -115h-711z" />
    <glyph glyph-name="Eacute" unicode="&#xc9;" horiz-adv-x="1093" 
d="M803 1556h-129l274 277h156zM139 0l254 1434h709l-21 -115h-577l-94 -533h499l-20 -112h-500l-98 -559h579l-20 -115h-711z" />
    <glyph glyph-name="Ecircumflex" unicode="&#xca;" horiz-adv-x="1093" 
d="M551 1556h-119l273 277h161l174 -277h-106l-154 211zM139 0l254 1434h709l-21 -115h-577l-94 -533h499l-20 -112h-500l-98 -559h579l-20 -115h-711z" />
    <glyph glyph-name="Edieresis" unicode="&#xcb;" horiz-adv-x="1093" 
d="M586 1651q-36 0 -62 25t-26 61q0 35 26.5 60.5t61.5 25.5q37 0 62.5 -25.5t25.5 -60.5q0 -37 -25.5 -61.5t-62.5 -24.5zM946 1651q-37 0 -62.5 24.5t-25.5 61.5q0 35 25.5 60.5t62.5 25.5t62.5 -25.5t25.5 -60.5q0 -37 -25.5 -61.5t-62.5 -24.5zM139 0l254 1434h709
l-21 -115h-577l-94 -533h499l-20 -112h-500l-98 -559h579l-20 -115h-711z" />
    <glyph glyph-name="Igrave" unicode="&#xcc;" horiz-adv-x="589" 
d="M426 1556l-203 277h144l176 -277h-117zM139 0l254 1434h131l-254 -1434h-131z" />
    <glyph glyph-name="Iacute" unicode="&#xcd;" horiz-adv-x="589" 
d="M547 1556h-129l274 277h156zM139 0l254 1434h131l-254 -1434h-131z" />
    <glyph glyph-name="Icircumflex" unicode="&#xce;" horiz-adv-x="589" 
d="M295 1556h-119l273 277h161l174 -277h-106l-154 211zM139 0l254 1434h131l-254 -1434h-131z" />
    <glyph glyph-name="Idieresis" unicode="&#xcf;" horiz-adv-x="589" 
d="M330 1651q-36 0 -62 25t-26 61q0 35 26.5 60.5t61.5 25.5q37 0 62.5 -25.5t25.5 -60.5q0 -37 -25.5 -61.5t-62.5 -24.5zM690 1651q-37 0 -62.5 24.5t-25.5 61.5q0 35 25.5 60.5t62.5 25.5t62.5 -25.5t25.5 -60.5q0 -37 -25.5 -61.5t-62.5 -24.5zM139 0l254 1434h131
l-254 -1434h-131z" />
    <glyph glyph-name="Eth" unicode="&#xd0;" horiz-adv-x="1595" 
d="M139 0l121 686h-229l16 96h232l114 652h438q321 0 511 -174t190 -461q0 -125 -37 -242.5t-111 -218.5t-176 -176.5t-240 -118.5t-296 -43h-533zM831 1313h-327l-94 -531h387l-17 -96h-389l-100 -565h381q131 0 247 36t202 99t148.5 147.5t94 184t31.5 205.5
q0 234 -152.5 377t-411.5 143z" />
    <glyph glyph-name="Ntilde" unicode="&#xd1;" horiz-adv-x="1648" 
d="M705 1573l16 90q12 79 57.5 126.5t114.5 47.5q47 0 82.5 -20t57.5 -48.5t40.5 -57.5t40.5 -49t49 -20q67 0 80 89l17 86h96l-15 -91q-12 -78 -58.5 -126t-115.5 -48q-47 0 -83.5 20t-59 49t-41.5 57.5t-41 48.5t-47 20q-62 0 -78 -88l-16 -86h-96zM139 0l254 1434h170
l662 -1289l227 1289h131l-254 -1434h-170l-661 1286l-228 -1286h-131z" />
    <glyph glyph-name="Ograve" unicode="&#xd2;" horiz-adv-x="1671" 
d="M950 1556l-202 277h143l176 -277h-117zM950 1475q145 0 268.5 -51.5t209 -140.5t134 -212t48.5 -262q0 -168 -60 -323t-165 -271.5t-259 -186t-331 -69.5q-145 0 -268.5 51.5t-209 140.5t-134 212t-48.5 262q0 168 60 323t165 271.5t259 186t331 69.5zM797 82
q192 0 348.5 99.5t242 264t85.5 357.5q0 112 -38 212t-106 174.5t-167.5 118.5t-215.5 44q-191 0 -347 -99.5t-241.5 -264t-85.5 -357.5q0 -112 38 -212t105 -174.5t166.5 -118.5t215.5 -44z" />
    <glyph glyph-name="Oacute" unicode="&#xd3;" horiz-adv-x="1671" 
d="M1071 1556h-129l275 277h155zM950 1475q145 0 268.5 -51.5t209 -140.5t134 -212t48.5 -262q0 -168 -60 -323t-165 -271.5t-259 -186t-331 -69.5q-145 0 -268.5 51.5t-209 140.5t-134 212t-48.5 262q0 168 60 323t165 271.5t259 186t331 69.5zM797 82q192 0 348.5 99.5
t242 264t85.5 357.5q0 112 -38 212t-106 174.5t-167.5 118.5t-215.5 44q-191 0 -347 -99.5t-241.5 -264t-85.5 -357.5q0 -112 38 -212t105 -174.5t166.5 -118.5t215.5 -44z" />
    <glyph glyph-name="Ocircumflex" unicode="&#xd4;" horiz-adv-x="1671" 
d="M819 1556h-119l273 277h162l174 -277h-107l-153 211zM950 1475q145 0 268.5 -51.5t209 -140.5t134 -212t48.5 -262q0 -168 -60 -323t-165 -271.5t-259 -186t-331 -69.5q-145 0 -268.5 51.5t-209 140.5t-134 212t-48.5 262q0 168 60 323t165 271.5t259 186t331 69.5z
M797 82q192 0 348.5 99.5t242 264t85.5 357.5q0 112 -38 212t-106 174.5t-167.5 118.5t-215.5 44q-191 0 -347 -99.5t-241.5 -264t-85.5 -357.5q0 -112 38 -212t105 -174.5t166.5 -118.5t215.5 -44z" />
    <glyph glyph-name="Otilde" unicode="&#xd5;" horiz-adv-x="1671" 
d="M700 1573l17 90q12 79 57.5 126.5t114.5 47.5q47 0 82.5 -20t57.5 -48.5t40.5 -57.5t40.5 -49t49 -20q67 0 80 89l16 86h97l-15 -91q-12 -78 -58.5 -126t-115.5 -48q-47 0 -83.5 20t-59 49t-41.5 57.5t-41 48.5t-47 20q-62 0 -78 -88l-16 -86h-97zM950 1475
q145 0 268.5 -51.5t209 -140.5t134 -212t48.5 -262q0 -168 -60 -323t-165 -271.5t-259 -186t-331 -69.5q-145 0 -268.5 51.5t-209 140.5t-134 212t-48.5 262q0 168 60 323t165 271.5t259 186t331 69.5zM797 82q192 0 348.5 99.5t242 264t85.5 357.5q0 112 -38 212
t-106 174.5t-167.5 118.5t-215.5 44q-191 0 -347 -99.5t-241.5 -264t-85.5 -357.5q0 -112 38 -212t105 -174.5t166.5 -118.5t215.5 -44z" />
    <glyph glyph-name="Odieresis" unicode="&#xd6;" horiz-adv-x="1671" 
d="M854 1651q-36 0 -62 25t-26 61q0 35 26.5 60.5t61.5 25.5q37 0 62.5 -25.5t25.5 -60.5q0 -37 -25.5 -61.5t-62.5 -24.5zM1214 1651q-37 0 -62.5 24.5t-25.5 61.5q0 35 25.5 60.5t62.5 25.5t63 -25.5t26 -60.5q0 -36 -26 -61t-63 -25zM950 1475q145 0 268.5 -51.5
t209 -140.5t134 -212t48.5 -262q0 -168 -60 -323t-165 -271.5t-259 -186t-331 -69.5q-145 0 -268.5 51.5t-209 140.5t-134 212t-48.5 262q0 168 60 323t165 271.5t259 186t331 69.5zM797 82q192 0 348.5 99.5t242 264t85.5 357.5q0 112 -38 212t-106 174.5t-167.5 118.5
t-215.5 44q-191 0 -347 -99.5t-241.5 -264t-85.5 -357.5q0 -112 38 -212t105 -174.5t166.5 -118.5t215.5 -44z" />
    <glyph glyph-name="multiply" unicode="&#xd7;" 
d="M952 0l-346 440l-500 -440l-69 76l506 446l-348 443l88 67l342 -436l495 436l72 -76l-504 -442l350 -446z" />
    <glyph glyph-name="Oslash" unicode="&#xd8;" horiz-adv-x="1671" 
d="M147 -41h-135l250 240h4l6 6q-137 176 -137 420q0 168 60 323t165 271.5t259 186t331 69.5q138 0 256.5 -47t206.5 -132l184 179h134l-248 -240h-4l-6 -6q137 -176 137 -420q0 -168 -60 -323t-165 -271.5t-259 -186t-331 -69.5q-279 0 -463 178zM272 631q0 -184 99 -332
l942 907q-146 146 -367 146q-191 0 -347 -99.5t-241.5 -264t-85.5 -357.5zM797 82q192 0 348.5 99.5t242 264t85.5 357.5q0 189 -101 330l-940 -906q145 -145 365 -145z" />
    <glyph glyph-name="Ugrave" unicode="&#xd9;" horiz-adv-x="1431" 
d="M848 1556l-203 277h143l177 -277h-117zM1112 524l160 910h131l-162 -914q-96 -561 -582 -561q-124 0 -220.5 38.5t-159.5 113.5t-85.5 186.5t3.5 257.5l155 879h131l-153 -883q-41 -230 48.5 -349.5t287.5 -119.5q182 0 295 111.5t151 330.5z" />
    <glyph glyph-name="Uacute" unicode="&#xda;" horiz-adv-x="1431" 
d="M969 1556h-129l274 277h156zM1112 524l160 910h131l-162 -914q-96 -561 -582 -561q-124 0 -220.5 38.5t-159.5 113.5t-85.5 186.5t3.5 257.5l155 879h131l-153 -883q-41 -230 48.5 -349.5t287.5 -119.5q182 0 295 111.5t151 330.5z" />
    <glyph glyph-name="Ucircumflex" unicode="&#xdb;" horiz-adv-x="1431" 
d="M717 1556h-119l272 277h162l174 -277h-106l-154 211zM1112 524l160 910h131l-162 -914q-96 -561 -582 -561q-124 0 -220.5 38.5t-159.5 113.5t-85.5 186.5t3.5 257.5l155 879h131l-153 -883q-41 -230 48.5 -349.5t287.5 -119.5q182 0 295 111.5t151 330.5z" />
    <glyph glyph-name="Udieresis" unicode="&#xdc;" horiz-adv-x="1431" 
d="M752 1651q-36 0 -62 25t-26 61q0 35 26.5 60.5t61.5 25.5q37 0 62.5 -25.5t25.5 -60.5q0 -37 -25.5 -61.5t-62.5 -24.5zM1112 1651q-37 0 -62.5 24.5t-25.5 61.5q0 35 25.5 60.5t62.5 25.5t62.5 -25.5t25.5 -60.5q0 -37 -25.5 -61.5t-62.5 -24.5zM1112 524l160 910h131
l-162 -914q-96 -561 -582 -561q-124 0 -220.5 38.5t-159.5 113.5t-85.5 186.5t3.5 257.5l155 879h131l-153 -883q-41 -230 48.5 -349.5t287.5 -119.5q182 0 295 111.5t151 330.5z" />
    <glyph glyph-name="Yacute" unicode="&#xdd;" horiz-adv-x="1302" 
d="M895 1556h-129l274 277h156zM1438 1434l-695 -766l-116 -668h-131l118 674l-424 760h146l358 -646l582 646h162z" />
    <glyph glyph-name="Thorn" unicode="&#xde;" horiz-adv-x="1105" 
d="M139 0l254 1434h131l-55 -316h199q189 0 299 -92t110 -258q0 -188 -133.5 -306t-361.5 -118h-250l-62 -344h-131zM662 1004h-213l-97 -545h228q168 0 264 83.5t96 221.5q0 120 -72 180t-206 60z" />
    <glyph glyph-name="germandbls" unicode="&#xdf;" horiz-adv-x="1140" 
d="M528 -6q-79 0 -137 20l19 111q63 -19 112 -19q179 0 278 88.5t99 245.5q0 123 -76 207t-200 84h-88l20 113h88q144 0 240 83t96 228q0 121 -65.5 194.5t-192.5 73.5q-120 0 -195 -70.5t-96 -189.5l-205 -1163h-121l207 1167q29 167 136.5 268t279.5 101q177 0 279 -103.5
t102 -269.5q0 -139 -85.5 -244t-221.5 -137q73 -26 125 -82t76 -122t24 -138q0 -208 -138 -327t-360 -119z" />
    <glyph glyph-name="agrave" unicode="&#xe0;" horiz-adv-x="1112" 
d="M621 1196l-170 340h135l147 -340h-112zM391 -29q-140 0 -224.5 68t-84.5 188q0 128 93.5 209.5t273.5 110.5l387 65l14 82q23 128 -39 198.5t-188 70.5q-91 0 -175 -42.5t-151 -117.5l-90 76q79 89 187.5 141.5t232.5 52.5q189 0 281.5 -107t60.5 -288l-123 -678h-117
l25 137q-150 -166 -363 -166zM209 238q0 -72 54 -117t147 -45q215 0 366 198l43 242l-346 -59q-264 -44 -264 -219z" />
    <glyph glyph-name="aacute" unicode="&#xe1;" horiz-adv-x="1112" 
d="M737 1196h-125l267 340h147zM391 -29q-140 0 -224.5 68t-84.5 188q0 128 93.5 209.5t273.5 110.5l387 65l14 82q23 128 -39 198.5t-188 70.5q-91 0 -175 -42.5t-151 -117.5l-90 76q79 89 187.5 141.5t232.5 52.5q189 0 281.5 -107t60.5 -288l-123 -678h-117l25 137
q-150 -166 -363 -166zM209 238q0 -72 54 -117t147 -45q215 0 366 198l43 242l-346 -59q-264 -44 -264 -219z" />
    <glyph glyph-name="acircumflex" unicode="&#xe2;" horiz-adv-x="1112" 
d="M500 1196h-121l270 340h172l150 -340h-105l-135 279zM391 -29q-140 0 -224.5 68t-84.5 188q0 128 93.5 209.5t273.5 110.5l387 65l14 82q23 128 -39 198.5t-188 70.5q-91 0 -175 -42.5t-151 -117.5l-90 76q79 89 187.5 141.5t232.5 52.5q189 0 281.5 -107t60.5 -288
l-123 -678h-117l25 137q-150 -166 -363 -166zM209 238q0 -72 54 -117t147 -45q215 0 366 198l43 242l-346 -59q-264 -44 -264 -219z" />
    <glyph glyph-name="atilde" unicode="&#xe3;" horiz-adv-x="1112" 
d="M436 1229h-94l14 94q12 87 63.5 141t129.5 54q47 0 86.5 -21.5t66 -52t50 -61.5t51 -52.5t57.5 -21.5q43 0 69 26t34 70l14 98h94l-14 -94q-14 -87 -65 -141t-128 -54q-48 0 -87.5 21.5t-66 52t-50 61.5t-51.5 52.5t-58 21.5q-39 0 -65.5 -26.5t-32.5 -69.5zM391 -29
q-140 0 -224.5 68t-84.5 188q0 128 93.5 209.5t273.5 110.5l387 65l14 82q23 128 -39 198.5t-188 70.5q-91 0 -175 -42.5t-151 -117.5l-90 76q79 89 187.5 141.5t232.5 52.5q189 0 281.5 -107t60.5 -288l-123 -678h-117l25 137q-150 -166 -363 -166zM209 238q0 -72 54 -117
t147 -45q215 0 366 198l43 242l-346 -59q-264 -44 -264 -219z" />
    <glyph glyph-name="adieresis" unicode="&#xe4;" horiz-adv-x="1112" 
d="M543 1364q-37 0 -64.5 25.5t-27.5 60.5q0 38 27.5 64t64.5 26t63.5 -26t26.5 -64q0 -35 -26.5 -60.5t-63.5 -25.5zM903 1364q-38 0 -65 25.5t-27 60.5q0 38 27 64t65 26q37 0 63.5 -26t26.5 -64q0 -35 -26.5 -60.5t-63.5 -25.5zM391 -29q-140 0 -224.5 68t-84.5 188
q0 128 93.5 209.5t273.5 110.5l387 65l14 82q23 128 -39 198.5t-188 70.5q-91 0 -175 -42.5t-151 -117.5l-90 76q79 89 187.5 141.5t232.5 52.5q189 0 281.5 -107t60.5 -288l-123 -678h-117l25 137q-150 -166 -363 -166zM209 238q0 -72 54 -117t147 -45q215 0 366 198
l43 242l-346 -59q-264 -44 -264 -219z" />
    <glyph glyph-name="aring" unicode="&#xe5;" horiz-adv-x="1112" 
d="M690 1139q-93 0 -157 60t-64 153q0 112 76 186t184 74q91 0 156 -61t65 -154q0 -112 -76 -185t-184 -73zM696 1223q72 0 117 49t45 119q0 60 -37.5 98.5t-97.5 38.5q-72 0 -117 -50.5t-45 -121.5q0 -60 37 -96.5t98 -36.5zM391 -29q-140 0 -224.5 68t-84.5 188
q0 128 93.5 209.5t273.5 110.5l387 65l14 82q23 128 -39 198.5t-188 70.5q-91 0 -175 -42.5t-151 -117.5l-90 76q79 89 187.5 141.5t232.5 52.5q189 0 281.5 -107t60.5 -288l-123 -678h-117l25 137q-150 -166 -363 -166zM209 238q0 -72 54 -117t147 -45q215 0 366 198
l43 242l-346 -59q-264 -44 -264 -219z" />
    <glyph glyph-name="ae" unicode="&#xe6;" horiz-adv-x="1875" 
d="M395 -29q-140 0 -225.5 69.5t-85.5 192.5q0 125 92.5 205t272.5 109l387 65l16 82q23 128 -40 198.5t-189 70.5q-183 0 -326 -160l-90 76q79 89 187.5 141.5t232.5 52.5q133 0 219 -55.5t112 -155.5q80 98 195.5 154.5t251.5 56.5q178 0 286.5 -106.5t108.5 -268.5
q0 -68 -22 -151h-828q-8 -44 -8 -98q0 -168 94 -273.5t264 -105.5q117 0 216 46.5t161 129.5l84 -78q-79 -99 -199.5 -154t-265.5 -55q-156 0 -267 69t-165 189q-96 -119 -210 -182.5t-259 -63.5zM1399 969q-148 0 -260.5 -90t-163.5 -234l700 -2q20 132 -54 229t-222 97z
M209 242q0 -74 54 -120t147 -46q126 0 225.5 65t193.5 185q-12 62 -12 125q0 25 4 65l-348 -59q-264 -44 -264 -215z" />
    <glyph glyph-name="ccedilla" unicode="&#xe7;" horiz-adv-x="1124" 
d="M702 1073q144 0 252 -60.5t162 -162.5l-104 -76q-43 85 -125 134.5t-193 49.5q-134 0 -243.5 -71t-169.5 -187t-60 -251q0 -160 101 -267.5t268 -107.5q107 0 194 45.5t146 124.5l84 -84q-145 -179 -369 -199l-231 -289h-135l239 291q-199 23 -312.5 159t-113.5 329
q0 123 46 237t125 199t194 135.5t245 50.5z" />
    <glyph glyph-name="egrave" unicode="&#xe8;" horiz-adv-x="1155" 
d="M649 1196l-170 340h135l148 -340h-113zM573 -41q-153 0 -263.5 67t-164 177t-53.5 248q0 125 39 237.5t110 198t180 136t241 50.5q182 0 298.5 -107.5t116.5 -267.5q0 -78 -22 -151h-830q-6 -49 -6 -98q0 -168 94.5 -273.5t264.5 -105.5q117 0 215.5 46.5t160.5 129.5
l84 -78q-79 -99 -199.5 -154t-265.5 -55zM659 969q-156 0 -262 -89.5t-151 -236.5h706q13 84 -17.5 158t-103 121t-172.5 47z" />
    <glyph glyph-name="eacute" unicode="&#xe9;" horiz-adv-x="1155" 
d="M766 1196h-125l266 340h148zM573 -41q-153 0 -263.5 67t-164 177t-53.5 248q0 125 39 237.5t110 198t180 136t241 50.5q182 0 298.5 -107.5t116.5 -267.5q0 -78 -22 -151h-830q-6 -49 -6 -98q0 -168 94.5 -273.5t264.5 -105.5q117 0 215.5 46.5t160.5 129.5l84 -78
q-79 -99 -199.5 -154t-265.5 -55zM659 969q-156 0 -262 -89.5t-151 -236.5h706q13 84 -17.5 158t-103 121t-172.5 47z" />
    <glyph glyph-name="ecircumflex" unicode="&#xea;" horiz-adv-x="1155" 
d="M528 1196h-120l270 340h172l149 -340h-104l-135 279zM573 -41q-153 0 -263.5 67t-164 177t-53.5 248q0 125 39 237.5t110 198t180 136t241 50.5q182 0 298.5 -107.5t116.5 -267.5q0 -78 -22 -151h-830q-6 -49 -6 -98q0 -168 94.5 -273.5t264.5 -105.5q117 0 215.5 46.5
t160.5 129.5l84 -78q-79 -99 -199.5 -154t-265.5 -55zM659 969q-156 0 -262 -89.5t-151 -236.5h706q13 84 -17.5 158t-103 121t-172.5 47z" />
    <glyph glyph-name="edieresis" unicode="&#xeb;" horiz-adv-x="1155" 
d="M571 1364q-37 0 -64.5 25.5t-27.5 60.5q0 38 27.5 64t64.5 26t64 -26t27 -64q0 -35 -27 -60.5t-64 -25.5zM932 1364q-38 0 -65 25.5t-27 60.5q0 38 27 64t65 26q37 0 63.5 -26t26.5 -64q0 -35 -26.5 -60.5t-63.5 -25.5zM573 -41q-153 0 -263.5 67t-164 177t-53.5 248
q0 125 39 237.5t110 198t180 136t241 50.5q182 0 298.5 -107.5t116.5 -267.5q0 -78 -22 -151h-830q-6 -49 -6 -98q0 -168 94.5 -273.5t264.5 -105.5q117 0 215.5 46.5t160.5 129.5l84 -78q-79 -99 -199.5 -154t-265.5 -55zM659 969q-156 0 -262 -89.5t-151 -236.5h706
q13 84 -17.5 158t-103 121t-172.5 47z" />
    <glyph glyph-name="igrave" unicode="&#xec;" horiz-adv-x="512" 
d="M319 1196l-169 340h135l147 -340h-113zM104 0l183 1032h121l-183 -1032h-121z" />
    <glyph glyph-name="iacute" unicode="&#xed;" horiz-adv-x="512" 
d="M436 1196h-125l267 340h147zM104 0l183 1032h121l-183 -1032h-121z" />
    <glyph glyph-name="icircumflex" unicode="&#xee;" horiz-adv-x="512" 
d="M199 1196h-121l270 340h172l150 -340h-105l-135 279zM104 0l183 1032h121l-183 -1032h-121z" />
    <glyph glyph-name="idieresis" unicode="&#xef;" horiz-adv-x="512" 
d="M242 1364q-37 0 -64.5 25.5t-27.5 60.5q0 38 27.5 64t64.5 26t63.5 -26t26.5 -64q0 -35 -26.5 -60.5t-63.5 -25.5zM602 1364q-38 0 -65 25.5t-27 60.5q0 38 27 64t65 26q37 0 63.5 -26t26.5 -64q0 -35 -26.5 -60.5t-63.5 -25.5zM104 0l183 1032h121l-183 -1032h-121z" />
    <glyph glyph-name="eth" unicode="&#xf0;" horiz-adv-x="1257" 
d="M432 1174l19 104l270 90q-105 86 -252 168h176q113 -64 191 -131l387 129l-19 -102l-293 -99q269 -275 269 -690q0 -149 -44.5 -276.5t-122 -217t-185 -140t-230.5 -50.5q-232 0 -369 138t-137 364q0 164 70 300.5t203.5 220t304.5 83.5q220 0 358 -166q-55 223 -229 397
zM221 461q0 -175 103 -282t272 -107q199 0 329 162.5t130 416.5q0 41 -2 64q-48 98 -148.5 165.5t-228.5 67.5q-207 0 -331 -139.5t-124 -347.5z" />
    <glyph glyph-name="ntilde" unicode="&#xf1;" horiz-adv-x="1239" 
d="M500 1229h-94l14 94q12 87 63 141t129 54q47 0 86.5 -21.5t66 -52t50.5 -61.5t51.5 -52.5t57.5 -21.5q85 0 102 96l14 98h95l-15 -94q-14 -88 -64.5 -141.5t-127.5 -53.5q-48 0 -87.5 21.5t-66 52t-50.5 61.5t-52 52.5t-58 21.5q-39 0 -65.5 -26.5t-32.5 -69.5zM104 0
l183 1032h119l-23 -133q160 174 367 174q186 0 279 -115.5t56 -324.5l-110 -633h-121l111 629q29 157 -36.5 243t-203.5 86q-219 0 -371 -217l-129 -741h-121z" />
    <glyph glyph-name="ograve" unicode="&#xf2;" horiz-adv-x="1277" 
d="M702 1196l-170 340h136l147 -340h-113zM702 1073q149 0 261 -66.5t168.5 -177t56.5 -247.5q0 -122 -45 -235.5t-123.5 -199t-193.5 -137t-246 -51.5q-150 0 -262.5 66.5t-169 177.5t-56.5 248q0 164 76 306t217 229t317 87zM582 74q103 0 193 42t152 112t98 162.5
t36 193.5q0 159 -100.5 266.5t-262.5 107.5q-103 0 -193 -41.5t-151.5 -111.5t-97 -162.5t-35.5 -193.5q0 -159 99.5 -267t261.5 -108z" />
    <glyph glyph-name="oacute" unicode="&#xf3;" horiz-adv-x="1277" 
d="M819 1196h-125l267 340h147zM702 1073q149 0 261 -66.5t168.5 -177t56.5 -247.5q0 -122 -45 -235.5t-123.5 -199t-193.5 -137t-246 -51.5q-150 0 -262.5 66.5t-169 177.5t-56.5 248q0 164 76 306t217 229t317 87zM582 74q103 0 193 42t152 112t98 162.5t36 193.5
q0 159 -100.5 266.5t-262.5 107.5q-103 0 -193 -41.5t-151.5 -111.5t-97 -162.5t-35.5 -193.5q0 -159 99.5 -267t261.5 -108z" />
    <glyph glyph-name="ocircumflex" unicode="&#xf4;" horiz-adv-x="1277" 
d="M582 1196h-121l270 340h172l150 -340h-105l-135 279zM702 1073q149 0 261 -66.5t168.5 -177t56.5 -247.5q0 -122 -45 -235.5t-123.5 -199t-193.5 -137t-246 -51.5q-150 0 -262.5 66.5t-169 177.5t-56.5 248q0 164 76 306t217 229t317 87zM582 74q103 0 193 42t152 112
t98 162.5t36 193.5q0 159 -100.5 266.5t-262.5 107.5q-103 0 -193 -41.5t-151.5 -111.5t-97 -162.5t-35.5 -193.5q0 -159 99.5 -267t261.5 -108z" />
    <glyph glyph-name="otilde" unicode="&#xf5;" horiz-adv-x="1277" 
d="M518 1229h-94l14 94q12 87 63.5 141t129.5 54q47 0 86.5 -21.5t66 -52t50 -61.5t51 -52.5t57.5 -21.5q85 0 102 96l15 98h94l-14 -94q-14 -87 -65 -141t-128 -54q-48 0 -87.5 21.5t-66 52t-50 61.5t-51.5 52.5t-58 21.5q-39 0 -65.5 -26.5t-32.5 -69.5zM702 1073
q149 0 261 -66.5t168.5 -177t56.5 -247.5q0 -122 -45 -235.5t-123.5 -199t-193.5 -137t-246 -51.5q-150 0 -262.5 66.5t-169 177.5t-56.5 248q0 164 76 306t217 229t317 87zM582 74q103 0 193 42t152 112t98 162.5t36 193.5q0 159 -100.5 266.5t-262.5 107.5
q-103 0 -193 -41.5t-151.5 -111.5t-97 -162.5t-35.5 -193.5q0 -159 99.5 -267t261.5 -108z" />
    <glyph glyph-name="odieresis" unicode="&#xf6;" horiz-adv-x="1277" 
d="M625 1364q-37 0 -65 25.5t-28 60.5q0 38 28 64t65 26t63.5 -26t26.5 -64q0 -35 -26.5 -60.5t-63.5 -25.5zM985 1364q-38 0 -65 25.5t-27 60.5q0 38 27 64t65 26q37 0 63.5 -26t26.5 -64q0 -35 -26.5 -60.5t-63.5 -25.5zM702 1073q149 0 261 -66.5t168.5 -177t56.5 -247.5
q0 -122 -45 -235.5t-123.5 -199t-193.5 -137t-246 -51.5q-150 0 -262.5 66.5t-169 177.5t-56.5 248q0 164 76 306t217 229t317 87zM582 74q103 0 193 42t152 112t98 162.5t36 193.5q0 159 -100.5 266.5t-262.5 107.5q-103 0 -193 -41.5t-151.5 -111.5t-97 -162.5
t-35.5 -193.5q0 -159 99.5 -267t261.5 -108z" />
    <glyph glyph-name="divide" unicode="&#xf7;" 
d="M694 887q-36 0 -62 25t-26 61q0 35 26 59.5t62 24.5q35 0 60.5 -24.5t25.5 -59.5q0 -36 -25 -61t-61 -25zM1106 463h-1002l21 108h1001zM532 -25q-35 0 -60.5 24.5t-25.5 59.5t25.5 60.5t60.5 25.5q37 0 63 -25.5t26 -60.5t-26 -59.5t-63 -24.5z" />
    <glyph glyph-name="oslash" unicode="&#xf8;" horiz-adv-x="1277" 
d="M135 -41h-131l184 182q-96 128 -96 310q0 164 76 306t217 229t317 87q197 0 328 -115l115 115h131l-182 -182h-2q96 -128 96 -309q0 -122 -45 -235.5t-123.5 -199t-193.5 -137t-246 -51.5q-199 0 -330 115zM221 449q0 -123 62 -220l655 643q-96 86 -240 86
q-103 0 -193 -41.5t-151.5 -111.5t-97 -162.5t-35.5 -193.5zM582 74q103 0 193 42t152 112t98 162.5t36 193.5q0 124 -64 219l-655 -643q99 -86 240 -86z" />
    <glyph glyph-name="ugrave" unicode="&#xf9;" horiz-adv-x="1204" 
d="M666 1196l-170 340h135l147 -340h-112zM899 438l105 594h120l-104 -596q-42 -231 -161.5 -354t-311.5 -123q-214 0 -319.5 127.5t-65.5 359.5l102 586h121l-104 -594q-32 -175 40.5 -269.5t231.5 -94.5q139 0 227 93t119 271z" />
    <glyph glyph-name="uacute" unicode="&#xfa;" horiz-adv-x="1204" 
d="M782 1196h-125l267 340h147zM899 438l105 594h120l-104 -596q-42 -231 -161.5 -354t-311.5 -123q-214 0 -319.5 127.5t-65.5 359.5l102 586h121l-104 -594q-32 -175 40.5 -269.5t231.5 -94.5q139 0 227 93t119 271z" />
    <glyph glyph-name="ucircumflex" unicode="&#xfb;" horiz-adv-x="1204" 
d="M545 1196h-121l270 340h172l150 -340h-105l-135 279zM899 438l105 594h120l-104 -596q-42 -231 -161.5 -354t-311.5 -123q-214 0 -319.5 127.5t-65.5 359.5l102 586h121l-104 -594q-32 -175 40.5 -269.5t231.5 -94.5q139 0 227 93t119 271z" />
    <glyph glyph-name="udieresis" unicode="&#xfc;" horiz-adv-x="1204" 
d="M588 1364q-37 0 -64.5 25.5t-27.5 60.5q0 38 27.5 64t64.5 26t63.5 -26t26.5 -64q0 -35 -26.5 -60.5t-63.5 -25.5zM948 1364q-38 0 -65 25.5t-27 60.5q0 38 27 64t65 26q37 0 63.5 -26t26.5 -64q0 -35 -26.5 -60.5t-63.5 -25.5zM899 438l105 594h120l-104 -596
q-42 -231 -161.5 -354t-311.5 -123q-214 0 -319.5 127.5t-65.5 359.5l102 586h121l-104 -594q-32 -175 40.5 -269.5t231.5 -94.5q139 0 227 93t119 271z" />
    <glyph glyph-name="yacute" unicode="&#xfd;" horiz-adv-x="1077" 
d="M719 1196h-125l266 340h148zM362 -260q-78 -133 -162.5 -192.5t-195.5 -59.5q-113 0 -174 37l18 110q56 -34 146 -34q157 0 264 182l129 219l-256 1030h129l213 -885l520 885h135z" />
    <glyph glyph-name="thorn" unicode="&#xfe;" horiz-adv-x="1316" 
d="M16 -504l359 2040h121l-109 -618q155 155 363 155q218 0 345.5 -135.5t127.5 -349.5q0 -172 -73 -315.5t-207 -228.5t-300 -85q-127 0 -229 52.5t-162 148.5l-117 -664h-119zM729 958q-108 0 -205 -48t-164 -142l-81 -461q48 -109 140.5 -171t215.5 -62q199 0 330 147
t131 367q0 161 -100 265.5t-267 104.5z" />
    <glyph glyph-name="ydieresis" unicode="&#xff;" horiz-adv-x="1077" 
d="M524 1364q-37 0 -64.5 25.5t-27.5 60.5q0 38 27.5 64t64.5 26t63.5 -26t26.5 -64q0 -35 -26.5 -60.5t-63.5 -25.5zM885 1364q-38 0 -65 25.5t-27 60.5q0 38 27 64t65 26q37 0 63.5 -26t26.5 -64q0 -35 -26.5 -60.5t-63.5 -25.5zM362 -260q-78 -133 -162.5 -192.5
t-195.5 -59.5q-113 0 -174 37l18 110q56 -34 146 -34q157 0 264 182l129 219l-256 1030h129l213 -885l520 885h135z" />
    <glyph glyph-name="Amacron" unicode="&#x100;" horiz-adv-x="1456" 
d="M651 1688l17 94h571l-18 -94h-570zM-23 0l824 1434h180l317 -1434h-133l-98 451h-688l-258 -451h-144zM444 567h598l-163 758z" />
    <glyph glyph-name="amacron" unicode="&#x101;" horiz-adv-x="1112" 
d="M428 1401l16 94h570l-17 -94h-569zM391 -29q-140 0 -224.5 68t-84.5 188q0 128 93.5 209.5t273.5 110.5l387 65l14 82q23 128 -39 198.5t-188 70.5q-91 0 -175 -42.5t-151 -117.5l-90 76q79 89 187.5 141.5t232.5 52.5q189 0 281.5 -107t60.5 -288l-123 -678h-117l25 137
q-150 -166 -363 -166zM209 238q0 -72 54 -117t147 -45q215 0 366 198l43 242l-346 -59q-264 -44 -264 -219z" />
    <glyph glyph-name="Abreve" unicode="&#x102;" horiz-adv-x="1456" 
d="M936 1628q181 0 227 205h111q-26 -144 -118 -220.5t-222 -76.5q-141 0 -221 78t-58 219h99q-12 -100 37 -152.5t145 -52.5zM-23 0l824 1434h180l317 -1434h-133l-98 451h-688l-258 -451h-144zM444 567h598l-163 758z" />
    <glyph glyph-name="abreve" unicode="&#x103;" horiz-adv-x="1112" 
d="M709 1288q97 0 153 61t78 187h109q-24 -166 -114.5 -253t-229.5 -87q-140 0 -217.5 90t-53.5 250h98q-13 -123 32.5 -185.5t144.5 -62.5zM391 -29q-140 0 -224.5 68t-84.5 188q0 128 93.5 209.5t273.5 110.5l387 65l14 82q23 128 -39 198.5t-188 70.5q-91 0 -175 -42.5
t-151 -117.5l-90 76q79 89 187.5 141.5t232.5 52.5q189 0 281.5 -107t60.5 -288l-123 -678h-117l25 137q-150 -166 -363 -166zM209 238q0 -72 54 -117t147 -45q215 0 366 198l43 242l-346 -59q-264 -44 -264 -219z" />
    <glyph glyph-name="Aogonek" unicode="&#x104;" horiz-adv-x="1456" 
d="M-23 0l824 1434h180l317 -1434h-12l-84 -55q-142 -100 -186.5 -148t-44.5 -104q0 -50 34.5 -76.5t88.5 -26.5t127 31l-19 -98q-56 -27 -123 -27q-102 0 -157.5 52.5t-55.5 132.5q-1 79 60 147t211 166l26 18l-96 439h-688l-258 -451h-144zM444 567h598l-163 758z" />
    <glyph glyph-name="aogonek" unicode="&#x105;" horiz-adv-x="1112" 
d="M391 -29q-140 0 -224.5 68t-84.5 188q0 128 93.5 209.5t273.5 110.5l387 65l14 82q23 128 -39 198.5t-188 70.5q-91 0 -175 -42.5t-151 -117.5l-90 76q79 89 187.5 141.5t232.5 52.5q189 0 281.5 -107t60.5 -288l-123 -678l-84 -55q-143 -100 -187.5 -148.5t-44.5 -103.5
q0 -50 34.5 -76.5t88.5 -26.5t127 31l-18 -98q-56 -27 -123 -27q-102 0 -157.5 52.5t-55.5 132.5q-1 79 60 147t210 166l37 24l21 119q-150 -166 -363 -166zM209 238q0 -72 54 -117t147 -45q215 0 366 198l43 242l-346 -59q-264 -44 -264 -219z" />
    <glyph glyph-name="Cacute" unicode="&#x106;" horiz-adv-x="1523" 
d="M1028 1556h-129l275 277h155zM946 1475q186 0 336.5 -86t228.5 -224l-114 -73q-60 116 -185 188t-270 72q-191 0 -346 -99.5t-240.5 -264t-85.5 -357.5q0 -150 64 -274.5t185 -199.5t274 -75q159 0 280 59.5t223 177.5l95 -88q-227 -272 -603 -272q-192 0 -342 88
t-231.5 239.5t-81.5 338.5q0 112 27 219.5t76.5 201.5t122.5 173t161.5 136t198 88.5t227.5 31.5z" />
    <glyph glyph-name="cacute" unicode="&#x107;" horiz-adv-x="1124" 
d="M772 1196h-125l266 340h148zM702 1073q144 0 252 -60.5t162 -162.5l-104 -76q-43 85 -125 134.5t-193 49.5q-134 0 -243.5 -71t-169.5 -187t-60 -251q0 -160 101 -267.5t268 -107.5q107 0 194 45.5t146 124.5l84 -84q-163 -201 -424 -201q-229 0 -363.5 140.5
t-134.5 351.5q0 123 46 237t125 199t194 135.5t245 50.5z" />
    <glyph glyph-name="Ccircumflex" unicode="&#x108;" horiz-adv-x="1523" 
d="M776 1556h-119l273 277h162l174 -277h-107l-153 211zM946 1475q186 0 336.5 -86t228.5 -224l-114 -73q-60 116 -185 188t-270 72q-191 0 -346 -99.5t-240.5 -264t-85.5 -357.5q0 -150 64 -274.5t185 -199.5t274 -75q159 0 280 59.5t223 177.5l95 -88q-227 -272 -603 -272
q-192 0 -342 88t-231.5 239.5t-81.5 338.5q0 112 27 219.5t76.5 201.5t122.5 173t161.5 136t198 88.5t227.5 31.5z" />
    <glyph glyph-name="ccircumflex" unicode="&#x109;" horiz-adv-x="1124" 
d="M535 1196h-121l270 340h172l150 -340h-105l-135 279zM702 1073q144 0 252 -60.5t162 -162.5l-104 -76q-43 85 -125 134.5t-193 49.5q-134 0 -243.5 -71t-169.5 -187t-60 -251q0 -160 101 -267.5t268 -107.5q107 0 194 45.5t146 124.5l84 -84q-163 -201 -424 -201
q-229 0 -363.5 140.5t-134.5 351.5q0 123 46 237t125 199t194 135.5t245 50.5z" />
    <glyph glyph-name="Cdotaccent" unicode="&#x10a;" horiz-adv-x="1523" 
d="M993 1651q-37 0 -62.5 24.5t-25.5 61.5q0 35 25.5 60.5t62.5 25.5q35 0 61.5 -25.5t26.5 -60.5q0 -36 -26 -61t-62 -25zM946 1475q186 0 336.5 -86t228.5 -224l-114 -73q-60 116 -185 188t-270 72q-191 0 -346 -99.5t-240.5 -264t-85.5 -357.5q0 -150 64 -274.5
t185 -199.5t274 -75q159 0 280 59.5t223 177.5l95 -88q-227 -272 -603 -272q-192 0 -342 88t-231.5 239.5t-81.5 338.5q0 112 27 219.5t76.5 201.5t122.5 173t161.5 136t198 88.5t227.5 31.5z" />
    <glyph glyph-name="cdotaccent" unicode="&#x10b;" horiz-adv-x="1124" 
d="M762 1358q-40 0 -68 25.5t-28 62.5q0 40 28 67t68 27q37 0 64.5 -27.5t27.5 -66.5q0 -36 -27.5 -62t-64.5 -26zM702 1073q144 0 252 -60.5t162 -162.5l-104 -76q-43 85 -125 134.5t-193 49.5q-134 0 -243.5 -71t-169.5 -187t-60 -251q0 -160 101 -267.5t268 -107.5
q107 0 194 45.5t146 124.5l84 -84q-163 -201 -424 -201q-229 0 -363.5 140.5t-134.5 351.5q0 123 46 237t125 199t194 135.5t245 50.5z" />
    <glyph glyph-name="Ccaron" unicode="&#x10c;" horiz-adv-x="1523" 
d="M811 1833l154 -211l229 211h121l-273 -277h-161l-174 277h104zM946 1475q186 0 336.5 -86t228.5 -224l-114 -73q-60 116 -185 188t-270 72q-191 0 -346 -99.5t-240.5 -264t-85.5 -357.5q0 -150 64 -274.5t185 -199.5t274 -75q159 0 280 59.5t223 177.5l95 -88
q-227 -272 -603 -272q-192 0 -342 88t-231.5 239.5t-81.5 338.5q0 112 27 219.5t76.5 201.5t122.5 173t161.5 136t198 88.5t227.5 31.5z" />
    <glyph glyph-name="ccaron" unicode="&#x10d;" horiz-adv-x="1124" 
d="M586 1536l133 -279l231 279h123l-270 -340h-174l-150 340h107zM702 1073q144 0 252 -60.5t162 -162.5l-104 -76q-43 85 -125 134.5t-193 49.5q-134 0 -243.5 -71t-169.5 -187t-60 -251q0 -160 101 -267.5t268 -107.5q107 0 194 45.5t146 124.5l84 -84
q-163 -201 -424 -201q-229 0 -363.5 140.5t-134.5 351.5q0 123 46 237t125 199t194 135.5t245 50.5z" />
    <glyph glyph-name="Dcaron" unicode="&#x10e;" horiz-adv-x="1595" 
d="M834 1833l153 -211l230 211h120l-272 -277h-162l-174 277h105zM139 0l254 1434h438q321 0 511 -174t190 -461q0 -125 -37 -242.5t-111 -218.5t-176 -176.5t-240 -118.5t-296 -43h-533zM831 1313h-327l-213 -1192h381q131 0 247 36t202 99t148.5 147.5t94 184t31.5 205.5
q0 234 -152.5 377t-411.5 143z" />
    <glyph glyph-name="dcaron" unicode="&#x10f;" horiz-adv-x="1312" 
d="M94 440q0 129 43.5 245.5t119 202t184 135.5t233.5 50q126 0 229 -52.5t164 -148.5l117 664h119l-271 -1536h-121l21 119q-160 -160 -367 -160q-219 0 -345 135t-126 346zM1436 1155h-111l244 381h135zM221 444q0 -162 100 -266t269 -104q107 0 203.5 48.5t164.5 143.5
l82 457q-48 110 -140.5 172.5t-217.5 62.5q-199 0 -330 -147t-131 -367z" />
    <glyph glyph-name="Dcroat" unicode="&#x110;" horiz-adv-x="1595" 
d="M139 0l121 686h-229l16 96h232l114 652h438q321 0 511 -174t190 -461q0 -125 -37 -242.5t-111 -218.5t-176 -176.5t-240 -118.5t-296 -43h-533zM831 1313h-327l-94 -531h387l-17 -96h-389l-100 -565h381q131 0 247 36t202 99t148.5 147.5t94 184t31.5 205.5
q0 234 -152.5 377t-411.5 143z" />
    <glyph glyph-name="dcroat" unicode="&#x111;" horiz-adv-x="1312" 
d="M94 440q0 129 43.5 245.5t119 202t184 135.5t233.5 50q126 0 229 -52.5t164 -148.5l61 349h-415l16 94h416l39 221h119l-39 -221h190l-16 -94h-191l-215 -1221h-121l21 119q-160 -160 -367 -160q-219 0 -345 135t-126 346zM221 444q0 -162 100 -266t269 -104
q107 0 203.5 48.5t164.5 143.5l82 457q-48 110 -140.5 172.5t-217.5 62.5q-199 0 -330 -147t-131 -367z" />
    <glyph glyph-name="Emacron" unicode="&#x112;" horiz-adv-x="1093" 
d="M473 1688l16 94h572l-19 -94h-569zM139 0l254 1434h709l-21 -115h-577l-94 -533h499l-20 -112h-500l-98 -559h579l-20 -115h-711z" />
    <glyph glyph-name="emacron" unicode="&#x113;" horiz-adv-x="1155" 
d="M457 1401l16 94h569l-16 -94h-569zM573 -41q-153 0 -263.5 67t-164 177t-53.5 248q0 125 39 237.5t110 198t180 136t241 50.5q182 0 298.5 -107.5t116.5 -267.5q0 -78 -22 -151h-830q-6 -49 -6 -98q0 -168 94.5 -273.5t264.5 -105.5q117 0 215.5 46.5t160.5 129.5l84 -78
q-79 -99 -199.5 -154t-265.5 -55zM659 969q-156 0 -262 -89.5t-151 -236.5h706q13 84 -17.5 158t-103 121t-172.5 47z" />
    <glyph glyph-name="Ebreve" unicode="&#x114;" horiz-adv-x="1093" 
d="M758 1628q181 0 227 205h111q-26 -144 -118 -220.5t-222 -76.5q-141 0 -221 78t-58 219h98q-12 -100 37.5 -152.5t145.5 -52.5zM139 0l254 1434h709l-21 -115h-577l-94 -533h499l-20 -112h-500l-98 -559h579l-20 -115h-711z" />
    <glyph glyph-name="ebreve" unicode="&#x115;" horiz-adv-x="1155" 
d="M737 1288q97 0 153.5 61t78.5 187h108q-24 -166 -114.5 -253t-229.5 -87q-140 0 -217 89.5t-53 250.5h98q-13 -123 32 -185.5t144 -62.5zM573 -41q-153 0 -263.5 67t-164 177t-53.5 248q0 125 39 237.5t110 198t180 136t241 50.5q182 0 298.5 -107.5t116.5 -267.5
q0 -78 -22 -151h-830q-6 -49 -6 -98q0 -168 94.5 -273.5t264.5 -105.5q117 0 215.5 46.5t160.5 129.5l84 -78q-79 -99 -199.5 -154t-265.5 -55zM659 969q-156 0 -262 -89.5t-151 -236.5h706q13 84 -17.5 158t-103 121t-172.5 47z" />
    <glyph glyph-name="Edotaccent" unicode="&#x116;" horiz-adv-x="1093" 
d="M768 1651q-37 0 -62.5 24.5t-25.5 61.5q0 35 25.5 60.5t62.5 25.5q35 0 61.5 -25.5t26.5 -60.5q0 -36 -26 -61t-62 -25zM139 0l254 1434h709l-21 -115h-577l-94 -533h499l-20 -112h-500l-98 -559h579l-20 -115h-711z" />
    <glyph glyph-name="edotaccent" unicode="&#x117;" horiz-adv-x="1155" 
d="M756 1358q-40 0 -68.5 25.5t-28.5 62.5q0 39 28.5 66.5t68.5 27.5q37 0 64.5 -27.5t27.5 -66.5q0 -36 -27.5 -62t-64.5 -26zM573 -41q-153 0 -263.5 67t-164 177t-53.5 248q0 125 39 237.5t110 198t180 136t241 50.5q182 0 298.5 -107.5t116.5 -267.5q0 -78 -22 -151
h-830q-6 -49 -6 -98q0 -168 94.5 -273.5t264.5 -105.5q117 0 215.5 46.5t160.5 129.5l84 -78q-79 -99 -199.5 -154t-265.5 -55zM659 969q-156 0 -262 -89.5t-151 -236.5h706q13 84 -17.5 158t-103 121t-172.5 47z" />
    <glyph glyph-name="Eogonek" unicode="&#x118;" horiz-adv-x="1093" 
d="M139 0l254 1434h709l-21 -115h-577l-94 -533h499l-20 -112h-500l-98 -559h579l-20 -115h-2l-84 -55q-143 -100 -187.5 -148.5t-44.5 -103.5q0 -50 34.5 -76.5t88.5 -26.5t127 31l-18 -98q-56 -27 -123 -27q-102 0 -157.5 52.5t-55.5 132.5q-1 79 60 147t210 166l9 6h-568
z" />
    <glyph glyph-name="eogonek" unicode="&#x119;" horiz-adv-x="1155" 
d="M377 -319q-1 71 49.5 133.5t169.5 144.5h-23q-153 0 -263.5 67t-164 177t-53.5 248q0 125 39 237.5t110 198t180 136t241 50.5q182 0 298.5 -107.5t116.5 -267.5q0 -78 -22 -151h-830q-6 -49 -6 -98q0 -168 94.5 -273.5t264.5 -105.5q117 0 215.5 46.5t160.5 129.5
l84 -78q-98 -121 -252 -174l-73 -49q-143 -100 -187.5 -148.5t-44.5 -103.5q0 -50 34.5 -76.5t88.5 -26.5t127 31l-18 -98q-56 -27 -123 -27q-102 0 -157.5 52.5t-55.5 132.5zM659 969q-156 0 -262 -89.5t-151 -236.5h706q13 84 -17.5 158t-103 121t-172.5 47z" />
    <glyph glyph-name="Ecaron" unicode="&#x11a;" horiz-adv-x="1093" 
d="M586 1833l153 -211l230 211h121l-273 -277h-162l-174 277h105zM139 0l254 1434h709l-21 -115h-577l-94 -533h499l-20 -112h-500l-98 -559h579l-20 -115h-711z" />
    <glyph glyph-name="ecaron" unicode="&#x11b;" horiz-adv-x="1155" 
d="M580 1536l133 -279l231 279h123l-270 -340h-174l-150 340h107zM573 -41q-153 0 -263.5 67t-164 177t-53.5 248q0 125 39 237.5t110 198t180 136t241 50.5q182 0 298.5 -107.5t116.5 -267.5q0 -78 -22 -151h-830q-6 -49 -6 -98q0 -168 94.5 -273.5t264.5 -105.5
q117 0 215.5 46.5t160.5 129.5l84 -78q-79 -99 -199.5 -154t-265.5 -55zM659 969q-156 0 -262 -89.5t-151 -236.5h706q13 84 -17.5 158t-103 121t-172.5 47z" />
    <glyph glyph-name="Gcircumflex" unicode="&#x11c;" horiz-adv-x="1624" 
d="M795 1556h-119l272 277h162l174 -277h-106l-154 211zM788 -41q-192 0 -342 88t-231.5 239.5t-81.5 338.5q0 168 61 323t167.5 271.5t262 186t334.5 69.5q197 0 344 -83.5t226 -222.5l-115 -73q-60 116 -182 186t-277 70q-146 0 -274.5 -58.5t-217.5 -156.5t-140.5 -230
t-51.5 -276q0 -149 64.5 -274t185.5 -200t273 -75q282 0 493 194l70 396h-432l20 114h563l-102 -571q-116 -117 -273 -186.5t-344 -69.5z" />
    <glyph glyph-name="gcircumflex" unicode="&#x11d;" horiz-adv-x="1101" 
d="M440 1196h-121l271 340h172l149 -340h-104l-135 279zM-57 -223q0 91 55.5 169t159.5 136q-60 45 -60 125q0 68 48 124t128 95q-108 94 -108 246q0 78 28.5 149.5t81 128.5t135 91t181.5 34q101 0 182 -43h397l-20 -106h-262q51 -79 51 -178q0 -105 -48.5 -196
t-147 -150.5t-228.5 -59.5q-98 0 -168 37q-63 -30 -98 -70.5t-35 -81.5q0 -69 84 -69h285q182 0 270 -77.5t88 -207.5q0 -166 -145.5 -275.5t-399.5 -109.5q-227 0 -340.5 77t-113.5 212zM819 743q0 98 -62 164t-167 66q-144 0 -224.5 -88t-80.5 -211q0 -97 61.5 -163.5
t169.5 -66.5q141 0 222 89t81 210zM68 -207q0 -201 331 -201q202 0 310 76.5t108 198.5q0 180 -239 180h-310q-95 -44 -147.5 -114.5t-52.5 -139.5z" />
    <glyph glyph-name="Gbreve" unicode="&#x11e;" horiz-adv-x="1624" 
d="M1001 1628q89 0 147 51.5t81 153.5h110q-26 -144 -118 -220.5t-222 -76.5q-141 0 -220.5 78t-57.5 219h98q-12 -100 37 -152.5t145 -52.5zM788 -41q-192 0 -342 88t-231.5 239.5t-81.5 338.5q0 168 61 323t167.5 271.5t262 186t334.5 69.5q197 0 344 -83.5t226 -222.5
l-115 -73q-60 116 -182 186t-277 70q-146 0 -274.5 -58.5t-217.5 -156.5t-140.5 -230t-51.5 -276q0 -149 64.5 -274t185.5 -200t273 -75q282 0 493 194l70 396h-432l20 114h563l-102 -571q-116 -117 -273 -186.5t-344 -69.5z" />
    <glyph glyph-name="gbreve" unicode="&#x11f;" horiz-adv-x="1101" 
d="M649 1288q97 0 153.5 61t78.5 187h108q-24 -166 -114.5 -253t-229.5 -87q-140 0 -217 89.5t-53 250.5h98q-13 -123 32 -185.5t144 -62.5zM-57 -223q0 91 55.5 169t159.5 136q-60 45 -60 125q0 68 48 124t128 95q-108 94 -108 246q0 78 28.5 149.5t81 128.5t135 91
t181.5 34q101 0 182 -43h397l-20 -106h-262q51 -79 51 -178q0 -105 -48.5 -196t-147 -150.5t-228.5 -59.5q-98 0 -168 37q-63 -30 -98 -70.5t-35 -81.5q0 -69 84 -69h285q182 0 270 -77.5t88 -207.5q0 -166 -145.5 -275.5t-399.5 -109.5q-227 0 -340.5 77t-113.5 212z
M819 743q0 98 -62 164t-167 66q-144 0 -224.5 -88t-80.5 -211q0 -97 61.5 -163.5t169.5 -66.5q141 0 222 89t81 210zM68 -207q0 -201 331 -201q202 0 310 76.5t108 198.5q0 180 -239 180h-310q-95 -44 -147.5 -114.5t-52.5 -139.5z" />
    <glyph glyph-name="Gdotaccent" unicode="&#x120;" horiz-adv-x="1624" 
d="M1012 1651q-37 0 -62.5 24.5t-25.5 61.5q0 35 25.5 60.5t62.5 25.5q35 0 61.5 -25.5t26.5 -60.5q0 -36 -26 -61t-62 -25zM788 -41q-192 0 -342 88t-231.5 239.5t-81.5 338.5q0 168 61 323t167.5 271.5t262 186t334.5 69.5q197 0 344 -83.5t226 -222.5l-115 -73
q-60 116 -182 186t-277 70q-146 0 -274.5 -58.5t-217.5 -156.5t-140.5 -230t-51.5 -276q0 -149 64.5 -274t185.5 -200t273 -75q282 0 493 194l70 396h-432l20 114h563l-102 -571q-116 -117 -273 -186.5t-344 -69.5z" />
    <glyph glyph-name="gdotaccent" unicode="&#x121;" horiz-adv-x="1101" 
d="M668 1358q-40 0 -68.5 25.5t-28.5 62.5q0 39 28.5 66.5t68.5 27.5q37 0 64.5 -27.5t27.5 -66.5q0 -36 -27.5 -62t-64.5 -26zM-57 -223q0 91 55.5 169t159.5 136q-60 45 -60 125q0 68 48 124t128 95q-108 94 -108 246q0 78 28.5 149.5t81 128.5t135 91t181.5 34
q101 0 182 -43h397l-20 -106h-262q51 -79 51 -178q0 -105 -48.5 -196t-147 -150.5t-228.5 -59.5q-98 0 -168 37q-63 -30 -98 -70.5t-35 -81.5q0 -69 84 -69h285q182 0 270 -77.5t88 -207.5q0 -166 -145.5 -275.5t-399.5 -109.5q-227 0 -340.5 77t-113.5 212zM819 743
q0 98 -62 164t-167 66q-144 0 -224.5 -88t-80.5 -211q0 -97 61.5 -163.5t169.5 -66.5q141 0 222 89t81 210zM68 -207q0 -201 331 -201q202 0 310 76.5t108 198.5q0 180 -239 180h-310q-95 -44 -147.5 -114.5t-52.5 -139.5z" />
    <glyph glyph-name="Gcedilla" unicode="&#x122;" horiz-adv-x="1624" 
d="M788 -41q-192 0 -342 88t-231.5 239.5t-81.5 338.5q0 168 61 323t167.5 271.5t262 186t334.5 69.5q197 0 344 -83.5t226 -222.5l-115 -73q-60 116 -182 186t-277 70q-146 0 -274.5 -58.5t-217.5 -156.5t-140.5 -230t-51.5 -276q0 -149 64.5 -274t185.5 -200t273 -75
q282 0 493 194l70 396h-432l20 114h563l-102 -571q-116 -117 -273 -186.5t-344 -69.5zM549 -504h-125l266 340h150z" />
    <glyph glyph-name="gcedilla" unicode="&#x123;" horiz-adv-x="1101" 
d="M829 1536h125l-268 -340h-147zM-57 -223q0 91 55.5 169t159.5 136q-60 45 -60 125q0 68 48 124t128 95q-108 94 -108 246q0 78 28.5 149.5t81 128.5t135 91t181.5 34q101 0 182 -43h397l-20 -106h-262q51 -79 51 -178q0 -105 -48.5 -196t-147 -150.5t-228.5 -59.5
q-98 0 -168 37q-63 -30 -98 -70.5t-35 -81.5q0 -69 84 -69h285q182 0 270 -77.5t88 -207.5q0 -166 -145.5 -275.5t-399.5 -109.5q-227 0 -340.5 77t-113.5 212zM819 743q0 98 -62 164t-167 66q-144 0 -224.5 -88t-80.5 -211q0 -97 61.5 -163.5t169.5 -66.5q141 0 222 89
t81 210zM68 -207q0 -201 331 -201q202 0 310 76.5t108 198.5q0 180 -239 180h-310q-95 -44 -147.5 -114.5t-52.5 -139.5z" />
    <glyph glyph-name="Hcircumflex" unicode="&#x124;" horiz-adv-x="1648" 
d="M823 1556h-118l272 277h162l174 -277h-107l-153 211zM139 0l254 1434h131l-114 -643h927l115 643h131l-254 -1434h-131l119 670h-928l-119 -670h-131z" />
    <glyph glyph-name="hcircumflex" unicode="&#x125;" horiz-adv-x="1239" 
d="M639 1659h-119l273 276h161l174 -276h-106l-154 211zM104 0l271 1536h121l-113 -635q161 172 367 172q186 0 279 -115.5t56 -324.5l-110 -633h-121l111 629q29 157 -36.5 243t-203.5 86q-220 0 -369 -215l-131 -743h-121z" />
    <glyph glyph-name="Hbar" unicode="&#x126;" horiz-adv-x="1648" 
d="M139 0l191 1079h-230l17 97h231l45 258h131l-45 -258h928l45 258h131l-45 -258h229l-18 -97h-229l-191 -1079h-131l119 670h-928l-119 -670h-131zM410 791h927l52 288h-928z" />
    <glyph glyph-name="hbar" unicode="&#x127;" horiz-adv-x="1239" 
d="M104 0l215 1221h-194l16 94h195l39 221h121l-39 -221h403l-16 -94h-404l-57 -320q161 172 367 172q186 0 279 -115.5t56 -324.5l-110 -633h-121l111 629q29 157 -36.5 243t-203.5 86q-220 0 -369 -215l-131 -743h-121z" />
    <glyph glyph-name="Itilde" unicode="&#x128;" horiz-adv-x="589" 
d="M176 1573l17 90q12 79 57.5 126.5t114.5 47.5q47 0 82.5 -20t57.5 -48.5t40.5 -57.5t40.5 -49t49 -20q67 0 80 89l16 86h96l-14 -91q-12 -78 -58.5 -126t-115.5 -48q-47 0 -83.5 20t-59 49t-41.5 57.5t-41 48.5t-47 20q-62 0 -78 -88l-17 -86h-96zM139 0l254 1434h131
l-254 -1434h-131z" />
    <glyph glyph-name="itilde" unicode="&#x129;" horiz-adv-x="512" 
d="M135 1229h-94l14 94q12 87 63.5 141t129.5 54q47 0 86.5 -21.5t66 -52t50 -61.5t51 -52.5t57.5 -21.5q43 0 69 26t34 70l14 98h94l-14 -94q-14 -87 -65 -141t-128 -54q-48 0 -87.5 21.5t-66 52t-50 61.5t-51.5 52.5t-58 21.5q-39 0 -65.5 -26.5t-32.5 -69.5zM104 0
l183 1032h121l-183 -1032h-121z" />
    <glyph glyph-name="Imacron" unicode="&#x12a;" horiz-adv-x="589" 
d="M217 1688l16 94h572l-19 -94h-569zM139 0l254 1434h131l-254 -1434h-131z" />
    <glyph glyph-name="imacron" unicode="&#x12b;" horiz-adv-x="512" 
d="M127 1401l16 94h570l-17 -94h-569zM104 0l183 1032h121l-183 -1032h-121z" />
    <glyph glyph-name="Ibreve" unicode="&#x12c;" horiz-adv-x="589" 
d="M502 1628q181 0 227 205h111q-26 -144 -118 -220.5t-222 -76.5q-141 0 -221 78t-58 219h98q-12 -100 37.5 -152.5t145.5 -52.5zM139 0l254 1434h131l-254 -1434h-131z" />
    <glyph glyph-name="ibreve" unicode="&#x12d;" horiz-adv-x="512" 
d="M408 1288q97 0 153 61t78 187h109q-24 -166 -115 -253t-230 -87q-140 0 -217 89.5t-53 250.5h98q-13 -123 32.5 -185.5t144.5 -62.5zM104 0l183 1032h121l-183 -1032h-121z" />
    <glyph glyph-name="Iogonek" unicode="&#x12e;" horiz-adv-x="589" 
d="M-150 -319q-1 79 60 147t211 166l20 14l252 1426h131l-254 -1434l-84 -55q-142 -100 -186.5 -148t-44.5 -104q0 -50 34.5 -76.5t88.5 -26.5t127 31l-19 -98q-56 -27 -123 -27q-102 0 -157.5 52.5t-55.5 132.5z" />
    <glyph glyph-name="iogonek" unicode="&#x12f;" horiz-adv-x="512" 
d="M420 1358q-39 0 -65.5 26.5t-26.5 65.5q0 37 27 63.5t65 26.5t65 -26.5t27 -63.5q0 -39 -26.5 -65.5t-65.5 -26.5zM-197 -319q-1 79 60 147t211 166l37 24l176 1014h121l-183 -1032h-2l-84 -55q-142 -100 -186.5 -148t-44.5 -104q0 -50 34.5 -76.5t88.5 -26.5t127 31
l-19 -98q-56 -27 -123 -27q-102 0 -157.5 52.5t-55.5 132.5z" />
    <glyph glyph-name="Idotaccent" unicode="&#x130;" horiz-adv-x="589" 
d="M512 1651q-37 0 -62.5 24.5t-25.5 61.5q0 35 25.5 60.5t62.5 25.5q35 0 61.5 -25.5t26.5 -60.5q0 -36 -26 -61t-62 -25zM139 0l254 1434h131l-254 -1434h-131z" />
    <glyph glyph-name="dotlessi" unicode="&#x131;" horiz-adv-x="512" 
d="M104 0l183 1032h121l-183 -1032h-121z" />
    <glyph glyph-name="IJ" unicode="&#x132;" horiz-adv-x="1204" 
d="M139 0l254 1434h131l-254 -1434h-131zM895 39q-34 -194 -126 -277.5t-245 -83.5q-92 0 -147 25l20 113q55 -19 119 -19q51 0 88 10.5t70 37.5t55.5 79t36.5 131l244 1379h131z" />
    <glyph glyph-name="ij" unicode="&#x133;" horiz-adv-x="1021" 
d="M420 1358q-39 0 -65.5 26.5t-26.5 65.5q0 37 27 63.5t65 26.5t65 -26.5t27 -63.5q0 -39 -26.5 -65.5t-65.5 -26.5zM932 1358q-39 0 -66.5 26.5t-27.5 65.5q0 37 28 63.5t66 26.5t65 -26.5t27 -63.5q0 -39 -26.5 -65.5t-65.5 -26.5zM106 0l181 1032h121l-183 -1032h-119z
M707 -170q-17 -100 -50.5 -168.5t-82.5 -105.5t-105.5 -52.5t-130.5 -15.5q-104 0 -180 37l18 108q69 -32 150 -32q43 0 74 4.5t63.5 18.5t55 39.5t41.5 70t30 106.5l209 1192h119z" />
    <glyph glyph-name="Jcircumflex" unicode="&#x134;" horiz-adv-x="614" 
d="M322 1556h-119l272 277h162l174 -277h-106l-154 211zM305 39q-34 -194 -126 -277.5t-245 -83.5q-92 0 -147 25l20 113q55 -19 119 -19q51 0 88 10.5t70 37.5t55.5 79t36.5 131l244 1379h131z" />
    <glyph glyph-name="jcircumflex" unicode="&#x135;" horiz-adv-x="512" 
d="M199 1196h-121l270 340h172l150 -340h-105l-135 279zM195 -170q-17 -100 -50.5 -168.5t-82.5 -105.5t-105.5 -52.5t-130.5 -15.5q-104 0 -180 37l18 108q69 -32 150 -32q43 0 74 4.5t63.5 18.5t55 39.5t41.5 70t30 106.5l209 1192h119z" />
    <glyph glyph-name="Kcedilla" unicode="&#x136;" horiz-adv-x="1400" 
d="M139 0l254 1434h131l-137 -775l918 775h176l-697 -588l469 -846h-155l-414 762l-328 -277l-86 -485h-131zM430 -504h-125l266 340h150z" />
    <glyph glyph-name="kcedilla" unicode="&#x137;" horiz-adv-x="1069" 
d="M106 0l271 1536h119l-181 -1034l621 530h162l-498 -426l332 -606h-135l-287 526l-223 -192l-60 -334h-121zM279 -504h-125l266 340h149z" />
    <glyph glyph-name="kra" unicode="&#x138;" horiz-adv-x="1069" 
d="M106 0l183 1032h119l-95 -534l625 534h160l-498 -426l332 -606h-135l-287 526l-225 -192l-60 -334h-119z" />
    <glyph glyph-name="Lacute" unicode="&#x139;" horiz-adv-x="1015" 
d="M551 1556h-129l274 277h156zM139 0l254 1434h131l-233 -1313h579l-20 -121h-711z" />
    <glyph glyph-name="lacute" unicode="&#x13a;" horiz-adv-x="512" 
d="M526 1659h-129l275 276h155zM106 0l271 1536h119l-271 -1536h-119z" />
    <glyph glyph-name="Lcedilla" unicode="&#x13b;" horiz-adv-x="1015" 
d="M139 0l254 1434h131l-233 -1313h579l-20 -121h-711zM274 -504h-124l266 340h149z" />
    <glyph glyph-name="lcedilla" unicode="&#x13c;" horiz-adv-x="512" 
d="M106 0l271 1536h119l-271 -1536h-119zM-72 -504h-125l267 340h149z" />
    <glyph glyph-name="Lcaron" unicode="&#x13d;" horiz-adv-x="1015" 
d="M139 0l254 1434h131l-233 -1313h579l-20 -121h-711zM655 1053h-110l243 381h136z" />
    <glyph glyph-name="lcaron" unicode="&#x13e;" horiz-adv-x="512" 
d="M106 0l271 1536h119l-271 -1536h-119zM629 1155h-111l244 381h135z" />
    <glyph glyph-name="Ldot" unicode="&#x13f;" horiz-adv-x="1015" 
d="M139 0l254 1434h131l-233 -1313h579l-20 -121h-711zM852 662q-43 0 -71.5 28.5t-28.5 71.5t28.5 71.5t71.5 28.5q44 0 73 -28.5t29 -71.5t-29 -71.5t-73 -28.5z" />
    <glyph glyph-name="ldot" unicode="&#x140;" horiz-adv-x="602" 
d="M106 0l271 1536h119l-271 -1536h-119zM569 424q-43 0 -71.5 28.5t-28.5 71.5t28.5 72t71.5 29q44 0 73.5 -29t29.5 -72t-29.5 -71.5t-73.5 -28.5z" />
    <glyph glyph-name="Lslash" unicode="&#x141;" horiz-adv-x="1015" 
d="M139 0l103 573l-252 -122l18 110l252 123l133 750h131l-121 -678l408 198l-20 -112l-406 -199l-94 -522h579l-20 -121h-711z" />
    <glyph glyph-name="lslash" unicode="&#x142;" horiz-adv-x="512" 
d="M106 0l134 760l-215 -107l18 107l215 106l119 670h119l-107 -606l213 104l-18 -106l-213 -105l-146 -823h-119z" />
    <glyph glyph-name="Nacute" unicode="&#x143;" horiz-adv-x="1648" 
d="M1075 1556h-129l275 277h155zM139 0l254 1434h170l662 -1289l227 1289h131l-254 -1434h-170l-661 1286l-228 -1286h-131z" />
    <glyph glyph-name="nacute" unicode="&#x144;" horiz-adv-x="1239" 
d="M801 1196h-125l266 340h148zM104 0l183 1032h119l-23 -133q160 174 367 174q186 0 279 -115.5t56 -324.5l-110 -633h-121l111 629q29 157 -36.5 243t-203.5 86q-219 0 -371 -217l-129 -741h-121z" />
    <glyph glyph-name="Ncedilla" unicode="&#x145;" horiz-adv-x="1648" 
d="M139 0l254 1434h170l662 -1289l227 1289h131l-254 -1434h-170l-661 1286l-228 -1286h-131zM502 -504h-125l266 340h150z" />
    <glyph glyph-name="ncedilla" unicode="&#x146;" horiz-adv-x="1239" 
d="M104 0l183 1032h119l-23 -133q160 174 367 174q186 0 279 -115.5t56 -324.5l-110 -633h-121l111 629q29 157 -36.5 243t-203.5 86q-219 0 -371 -217l-129 -741h-121zM313 -504h-125l267 340h149z" />
    <glyph glyph-name="Ncaron" unicode="&#x147;" horiz-adv-x="1648" 
d="M858 1833l154 -211l229 211h121l-272 -277h-162l-174 277h104zM139 0l254 1434h170l662 -1289l227 1289h131l-254 -1434h-170l-661 1286l-228 -1286h-131z" />
    <glyph glyph-name="ncaron" unicode="&#x148;" horiz-adv-x="1239" 
d="M614 1536l134 -279l231 279h123l-271 -340h-174l-149 340h106zM104 0l183 1032h119l-23 -133q160 174 367 174q186 0 279 -115.5t56 -324.5l-110 -633h-121l111 629q29 157 -36.5 243t-203.5 86q-219 0 -371 -217l-129 -741h-121z" />
    <glyph glyph-name="napostrophe" unicode="&#x149;" horiz-adv-x="1792" 
d="M309 909h-114l254 525h143zM657 0l183 1032h118l-22 -133q160 174 367 174q186 0 279 -115.5t56 -324.5l-110 -633h-121l111 629q29 157 -36.5 243t-203.5 86q-219 0 -371 -217l-129 -741h-121z" />
    <glyph glyph-name="Eng" unicode="&#x14a;" horiz-adv-x="1648" 
d="M139 0l254 1434h166l676 -1227l215 1227h131l-250 -1428q-34 -193 -125 -275.5t-243 -82.5q-95 0 -150 22l21 113q55 -19 118 -19q104 0 163.5 52.5t84.5 197.5l-700 1278l-230 -1292h-131z" />
    <glyph glyph-name="eng" unicode="&#x14b;" horiz-adv-x="1239" 
d="M104 0l183 1032h119l-23 -133q160 174 367 174q186 0 279 -115.5t56 -324.5l-141 -803q-17 -100 -50.5 -168.5t-82.5 -105.5t-105.5 -52.5t-130.5 -15.5q-104 0 -180 37l19 108q69 -32 149 -32q43 0 74 4.5t63.5 18.5t55 39.5t41.5 70t30 106.5l138 789q29 157 -36.5 243
t-203.5 86q-219 0 -371 -217l-129 -741h-121z" />
    <glyph glyph-name="Omacron" unicode="&#x14c;" horiz-adv-x="1671" 
d="M741 1688l17 94h571l-18 -94h-570zM950 1475q145 0 268.5 -51.5t209 -140.5t134 -212t48.5 -262q0 -168 -60 -323t-165 -271.5t-259 -186t-331 -69.5q-145 0 -268.5 51.5t-209 140.5t-134 212t-48.5 262q0 168 60 323t165 271.5t259 186t331 69.5zM797 82
q192 0 348.5 99.5t242 264t85.5 357.5q0 112 -38 212t-106 174.5t-167.5 118.5t-215.5 44q-191 0 -347 -99.5t-241.5 -264t-85.5 -357.5q0 -112 38 -212t105 -174.5t166.5 -118.5t215.5 -44z" />
    <glyph glyph-name="omacron" unicode="&#x14d;" horiz-adv-x="1277" 
d="M510 1401l16 94h570l-17 -94h-569zM702 1073q149 0 261 -66.5t168.5 -177t56.5 -247.5q0 -122 -45 -235.5t-123.5 -199t-193.5 -137t-246 -51.5q-150 0 -262.5 66.5t-169 177.5t-56.5 248q0 164 76 306t217 229t317 87zM582 74q103 0 193 42t152 112t98 162.5t36 193.5
q0 159 -100.5 266.5t-262.5 107.5q-103 0 -193 -41.5t-151.5 -111.5t-97 -162.5t-35.5 -193.5q0 -159 99.5 -267t261.5 -108z" />
    <glyph glyph-name="Obreve" unicode="&#x14e;" horiz-adv-x="1671" 
d="M1026 1628q181 0 227 205h111q-26 -144 -118 -220.5t-222 -76.5q-141 0 -221 78t-58 219h99q-12 -100 37 -152.5t145 -52.5zM950 1475q145 0 268.5 -51.5t209 -140.5t134 -212t48.5 -262q0 -168 -60 -323t-165 -271.5t-259 -186t-331 -69.5q-145 0 -268.5 51.5
t-209 140.5t-134 212t-48.5 262q0 168 60 323t165 271.5t259 186t331 69.5zM797 82q192 0 348.5 99.5t242 264t85.5 357.5q0 112 -38 212t-106 174.5t-167.5 118.5t-215.5 44q-191 0 -347 -99.5t-241.5 -264t-85.5 -357.5q0 -112 38 -212t105 -174.5t166.5 -118.5t215.5 -44
z" />
    <glyph glyph-name="obreve" unicode="&#x14f;" horiz-adv-x="1277" 
d="M791 1288q97 0 153 61t78 187h108q-24 -166 -114.5 -253t-229.5 -87q-140 0 -217 89.5t-53 250.5h98q-13 -123 32.5 -185.5t144.5 -62.5zM702 1073q149 0 261 -66.5t168.5 -177t56.5 -247.5q0 -122 -45 -235.5t-123.5 -199t-193.5 -137t-246 -51.5q-150 0 -262.5 66.5
t-169 177.5t-56.5 248q0 164 76 306t217 229t317 87zM582 74q103 0 193 42t152 112t98 162.5t36 193.5q0 159 -100.5 266.5t-262.5 107.5q-103 0 -193 -41.5t-151.5 -111.5t-97 -162.5t-35.5 -193.5q0 -159 99.5 -267t261.5 -108z" />
    <glyph glyph-name="Ohungarumlaut" unicode="&#x150;" horiz-adv-x="1671" 
d="M879 1556h-127l274 277h154zM1253 1556h-127l273 277h155zM950 1475q145 0 268.5 -51.5t209 -140.5t134 -212t48.5 -262q0 -168 -60 -323t-165 -271.5t-259 -186t-331 -69.5q-145 0 -268.5 51.5t-209 140.5t-134 212t-48.5 262q0 168 60 323t165 271.5t259 186t331 69.5z
M797 82q192 0 348.5 99.5t242 264t85.5 357.5q0 112 -38 212t-106 174.5t-167.5 118.5t-215.5 44q-191 0 -347 -99.5t-241.5 -264t-85.5 -357.5q0 -112 38 -212t105 -174.5t166.5 -118.5t215.5 -44z" />
    <glyph glyph-name="ohungarumlaut" unicode="&#x151;" horiz-adv-x="1277" 
d="M627 1196h-125l270 340h146zM977 1196h-123l268 340h146zM702 1073q149 0 261 -66.5t168.5 -177t56.5 -247.5q0 -122 -45 -235.5t-123.5 -199t-193.5 -137t-246 -51.5q-150 0 -262.5 66.5t-169 177.5t-56.5 248q0 164 76 306t217 229t317 87zM582 74q103 0 193 42
t152 112t98 162.5t36 193.5q0 159 -100.5 266.5t-262.5 107.5q-103 0 -193 -41.5t-151.5 -111.5t-97 -162.5t-35.5 -193.5q0 -159 99.5 -267t261.5 -108z" />
    <glyph glyph-name="OE" unicode="&#x152;" horiz-adv-x="2099" 
d="M137 635q0 161 60 305.5t168.5 254.5t272.5 174.5t359 64.5h1110l-20 -115h-580l-94 -533h500l-21 -112h-497l-99 -559h578l-21 -115h-1015q-321 0 -511 174t-190 461zM838 115h327l211 1204h-379q-164 0 -302 -55.5t-229 -149.5t-141.5 -216t-50.5 -257
q0 -237 152.5 -381.5t411.5 -144.5z" />
    <glyph glyph-name="oe" unicode="&#x153;" horiz-adv-x="2105" 
d="M700 1073q161 0 275.5 -79t165.5 -212q76 134 204 212.5t287 78.5q180 0 289 -106.5t109 -268.5q0 -75 -23 -151h-827q-9 -49 -9 -98q0 -168 94.5 -273.5t264.5 -105.5q117 0 216 46.5t161 129.5l82 -78q-78 -99 -197 -154t-264 -55q-166 0 -280 80t-161 215
q-81 -135 -215 -215t-299 -80q-223 0 -353 140.5t-130 351.5q0 122 45.5 235.5t124.5 199t194 136.5t246 51zM1628 969q-149 0 -262 -90t-162 -234l701 -2q20 132 -54.5 229t-222.5 97zM578 74q102 0 192 42t152.5 112t98.5 163t36 193q0 159 -98.5 266.5t-260.5 107.5
q-103 0 -193 -41.5t-152 -111.5t-98 -162.5t-36 -193.5q0 -160 98.5 -267.5t260.5 -107.5z" />
    <glyph glyph-name="Racute" unicode="&#x154;" horiz-adv-x="1241" 
d="M872 1556h-129l275 277h156zM139 0l254 1434h295q192 0 301 -92t109 -259q0 -146 -86.5 -253.5t-237.5 -147.5l348 -682h-149l-324 662q-24 -3 -49 -3h-213l-117 -659h-131zM682 1319h-178l-96 -545h192q167 0 262.5 83.5t95.5 221.5q0 120 -71.5 180t-204.5 60z" />
    <glyph glyph-name="racute" unicode="&#x155;" horiz-adv-x="778" 
d="M608 1196h-125l267 340h147zM104 0l183 1032h121l-27 -153q76 88 152.5 131t173.5 43q56 0 94 -13l-21 -116q-51 14 -90 14q-98 0 -177 -52t-159 -157l-129 -729h-121z" />
    <glyph glyph-name="Rcedilla" unicode="&#x156;" horiz-adv-x="1241" 
d="M139 0l254 1434h295q192 0 301 -92t109 -259q0 -146 -86.5 -253.5t-237.5 -147.5l348 -682h-149l-324 662q-24 -3 -49 -3h-213l-117 -659h-131zM682 1319h-178l-96 -545h192q167 0 262.5 83.5t95.5 221.5q0 120 -71.5 180t-204.5 60zM358 -504h-125l267 340h149z" />
    <glyph glyph-name="rcedilla" unicode="&#x157;" horiz-adv-x="778" 
d="M104 0l183 1032h121l-27 -153q76 88 152.5 131t173.5 43q56 0 94 -13l-21 -116q-51 14 -90 14q-98 0 -177 -52t-159 -157l-129 -729h-121zM-74 -504h-125l267 340h149z" />
    <glyph glyph-name="Rcaron" unicode="&#x158;" horiz-adv-x="1241" 
d="M655 1833l154 -211l229 211h121l-272 -277h-162l-174 277h104zM139 0l254 1434h295q192 0 301 -92t109 -259q0 -146 -86.5 -253.5t-237.5 -147.5l348 -682h-149l-324 662q-24 -3 -49 -3h-213l-117 -659h-131zM682 1319h-178l-96 -545h192q167 0 262.5 83.5t95.5 221.5
q0 120 -71.5 180t-204.5 60z" />
    <glyph glyph-name="rcaron" unicode="&#x159;" horiz-adv-x="778" 
d="M422 1536l133 -279l231 279h123l-270 -340h-174l-150 340h107zM104 0l183 1032h121l-27 -153q76 88 152.5 131t173.5 43q56 0 94 -13l-21 -116q-51 14 -90 14q-98 0 -177 -52t-159 -157l-129 -729h-121z" />
    <glyph glyph-name="Sacute" unicode="&#x15a;" horiz-adv-x="1167" 
d="M836 1556h-129l274 277h156zM449 1096q0 -65 29.5 -120t76.5 -95t103.5 -78t113 -79.5t103.5 -88.5t76.5 -114.5t29.5 -149.5q0 -176 -123.5 -294t-320.5 -118q-292 0 -445 240l105 77q133 -196 342 -196q139 0 223 81.5t84 200.5q0 66 -29.5 122t-76.5 96.5t-103.5 79.5
t-113.5 80t-104 88t-76.5 114t-29.5 148q0 159 121 272t299 113q274 0 393 -230l-106 -76q-88 187 -291 187q-119 0 -199.5 -76.5t-80.5 -183.5z" />
    <glyph glyph-name="sacute" unicode="&#x15b;" horiz-adv-x="862" 
d="M610 1196h-125l267 340h147zM301 784q0 -47 23 -85t60 -65.5t81.5 -52.5t89 -53.5t81.5 -61.5t60 -83.5t23 -112.5q0 -126 -96 -218.5t-244 -92.5q-114 0 -209.5 51t-151.5 146l95 67q101 -160 270 -160q96 0 155.5 58t59.5 147q0 47 -23 84.5t-59.5 64.5t-81 52t-89 53
t-81 61.5t-59.5 83.5t-23 113q0 122 95.5 207.5t236.5 85.5q105 0 187.5 -51.5t123.5 -134.5l-98 -64q-67 146 -215 146q-90 0 -150.5 -56t-60.5 -129z" />
    <glyph glyph-name="Scircumflex" unicode="&#x15c;" horiz-adv-x="1167" 
d="M584 1556h-119l272 277h162l174 -277h-106l-154 211zM449 1096q0 -65 29.5 -120t76.5 -95t103.5 -78t113 -79.5t103.5 -88.5t76.5 -114.5t29.5 -149.5q0 -176 -123.5 -294t-320.5 -118q-292 0 -445 240l105 77q133 -196 342 -196q139 0 223 81.5t84 200.5q0 66 -29.5 122
t-76.5 96.5t-103.5 79.5t-113.5 80t-104 88t-76.5 114t-29.5 148q0 159 121 272t299 113q274 0 393 -230l-106 -76q-88 187 -291 187q-119 0 -199.5 -76.5t-80.5 -183.5z" />
    <glyph glyph-name="scircumflex" unicode="&#x15d;" horiz-adv-x="862" 
d="M373 1196h-121l270 340h172l150 -340h-105l-135 279zM301 784q0 -47 23 -85t60 -65.5t81.5 -52.5t89 -53.5t81.5 -61.5t60 -83.5t23 -112.5q0 -126 -96 -218.5t-244 -92.5q-114 0 -209.5 51t-151.5 146l95 67q101 -160 270 -160q96 0 155.5 58t59.5 147q0 47 -23 84.5
t-59.5 64.5t-81 52t-89 53t-81 61.5t-59.5 83.5t-23 113q0 122 95.5 207.5t236.5 85.5q105 0 187.5 -51.5t123.5 -134.5l-98 -64q-67 146 -215 146q-90 0 -150.5 -56t-60.5 -129z" />
    <glyph glyph-name="Scedilla" unicode="&#x15e;" horiz-adv-x="1167" 
d="M449 1096q0 -65 29.5 -120t76.5 -95t103.5 -78t113 -79.5t103.5 -88.5t76.5 -114.5t29.5 -149.5q0 -170 -115.5 -286.5t-302.5 -125.5l-96 -106h8q81 0 134 -48t53 -116q0 -85 -61.5 -140t-162.5 -55q-61 0 -115 21t-90 57l62 72q62 -66 143 -66q53 0 86 27.5t33 77.5
q0 39 -28 66.5t-78 27.5q-45 0 -80 -21l-45 60l135 147q-235 27 -369 236l105 77q133 -196 342 -196q139 0 223 81.5t84 200.5q0 66 -29.5 122t-76.5 96.5t-103.5 79.5t-113.5 80t-104 88t-76.5 114t-29.5 148q0 159 121 272t299 113q274 0 393 -230l-106 -76
q-88 187 -291 187q-119 0 -199.5 -76.5t-80.5 -183.5z" />
    <glyph glyph-name="scedilla" unicode="&#x15f;" horiz-adv-x="862" 
d="M301 784q0 -47 23 -85t60 -65.5t81.5 -52.5t89 -53.5t81.5 -61.5t60 -83.5t23 -112.5q0 -117 -86 -208t-219 -101l-99 -108h9q81 0 133.5 -47.5t52.5 -116.5q0 -85 -61 -140t-162 -55q-61 0 -115 21t-90 57l61 72q62 -66 144 -66q53 0 86 27.5t33 77.5q0 39 -28.5 66.5
t-78.5 27.5q-45 0 -80 -21l-45 60l135 147q-93 14 -169 63.5t-122 129.5l95 67q101 -160 270 -160q96 0 155.5 58t59.5 147q0 47 -23 84.5t-59.5 64.5t-81 52t-89 53t-81 61.5t-59.5 83.5t-23 113q0 122 95.5 207.5t236.5 85.5q105 0 187.5 -51.5t123.5 -134.5l-98 -64
q-67 146 -215 146q-90 0 -150.5 -56t-60.5 -129z" />
    <glyph glyph-name="Scaron" unicode="&#x160;" horiz-adv-x="1167" 
d="M618 1833l154 -211l229 211h121l-272 -277h-162l-174 277h104zM449 1096q0 -65 29.5 -120t76.5 -95t103.5 -78t113 -79.5t103.5 -88.5t76.5 -114.5t29.5 -149.5q0 -176 -123.5 -294t-320.5 -118q-292 0 -445 240l105 77q133 -196 342 -196q139 0 223 81.5t84 200.5
q0 66 -29.5 122t-76.5 96.5t-103.5 79.5t-113.5 80t-104 88t-76.5 114t-29.5 148q0 159 121 272t299 113q274 0 393 -230l-106 -76q-88 187 -291 187q-119 0 -199.5 -76.5t-80.5 -183.5z" />
    <glyph glyph-name="scaron" unicode="&#x161;" horiz-adv-x="862" 
d="M424 1536l133 -279l231 279h123l-270 -340h-174l-150 340h107zM301 784q0 -47 23 -85t60 -65.5t81.5 -52.5t89 -53.5t81.5 -61.5t60 -83.5t23 -112.5q0 -126 -96 -218.5t-244 -92.5q-114 0 -209.5 51t-151.5 146l95 67q101 -160 270 -160q96 0 155.5 58t59.5 147
q0 47 -23 84.5t-59.5 64.5t-81 52t-89 53t-81 61.5t-59.5 83.5t-23 113q0 122 95.5 207.5t236.5 85.5q105 0 187.5 -51.5t123.5 -134.5l-98 -64q-67 146 -215 146q-90 0 -150.5 -56t-60.5 -129z" />
    <glyph glyph-name="Tcedilla" unicode="&#x162;" horiz-adv-x="1241" 
d="M215 1313l23 121h1089l-22 -121h-478l-233 -1313h-10l-133 -147h8q81 0 133.5 -47.5t52.5 -116.5q0 -85 -61 -140t-162 -55q-61 0 -115 21t-90 57l62 72q62 -66 143 -66q53 0 86 27.5t33 77.5q0 39 -28.5 66.5t-78.5 27.5q-45 0 -80 -21l-45 60l168 184h-14l233 1313
h-481z" />
    <glyph glyph-name="tcedilla" unicode="&#x163;" horiz-adv-x="825" 
d="M219 344l103 580h-191l21 108h188l45 258h123l-45 -258h373l-19 -108h-375l-102 -586q-13 -60 -8 -103t17.5 -70.5t40 -43.5t58 -22.5t72.5 -6.5q69 0 156 27l-21 -111q-70 -28 -157 -28h-19l-114 -127h8q81 0 133.5 -47.5t52.5 -116.5q0 -85 -61 -140t-162 -55
q-61 0 -115 21t-90 57l62 72q62 -66 143 -66q53 0 86 27.5t33 77.5q0 39 -28.5 66.5t-78.5 27.5q-45 0 -80 -21l-45 60l160 176q-218 54 -164 352z" />
    <glyph glyph-name="Tcaron" unicode="&#x164;" horiz-adv-x="1241" 
d="M655 1833l154 -211l229 211h121l-272 -277h-162l-174 277h104zM215 1313l23 121h1089l-22 -121h-478l-233 -1313h-131l233 1313h-481z" />
    <glyph glyph-name="tcaron" unicode="&#x165;" horiz-adv-x="825" 
d="M684 1155h-111l244 381h135zM219 344l103 580h-191l21 108h188l45 258h123l-45 -258h373l-19 -108h-375l-102 -586q-13 -60 -8 -103t17.5 -70.5t40 -43.5t58 -22.5t72.5 -6.5q69 0 156 27l-21 -111q-70 -28 -157 -28q-345 0 -279 364z" />
    <glyph glyph-name="Tbar" unicode="&#x166;" horiz-adv-x="1241" 
d="M262 604l19 96h307l108 613h-481l23 121h1089l-22 -121h-478l-108 -613h309l-18 -96h-310l-106 -604h-131l106 604h-307z" />
    <glyph glyph-name="tbar" unicode="&#x167;" horiz-adv-x="825" 
d="M219 344l43 240h-192l16 96h193l43 244h-191l21 108h188l45 258h123l-45 -258h373l-19 -108h-375l-43 -244h375l-16 -96h-375l-43 -246q-13 -60 -8 -103t17.5 -70.5t40 -43.5t58 -22.5t72.5 -6.5q69 0 156 27l-21 -111q-70 -28 -157 -28q-345 0 -279 364z" />
    <glyph glyph-name="Utilde" unicode="&#x168;" horiz-adv-x="1431" 
d="M598 1573l16 90q12 79 57.5 126.5t114.5 47.5q39 0 71.5 -14.5t52 -36t38.5 -47t33 -47t33.5 -36t42.5 -14.5q67 0 80 89l16 86h96l-14 -91q-12 -78 -58.5 -126t-115.5 -48q-47 0 -83.5 20t-59.5 49t-42 57.5t-41 48.5t-47 20q-61 0 -77 -88l-17 -86h-96zM1112 524
l160 910h131l-162 -914q-96 -561 -582 -561q-124 0 -220.5 38.5t-159.5 113.5t-85.5 186.5t3.5 257.5l155 879h131l-153 -883q-41 -230 48.5 -349.5t287.5 -119.5q182 0 295 111.5t151 330.5z" />
    <glyph glyph-name="utilde" unicode="&#x169;" horiz-adv-x="1204" 
d="M481 1229h-94l14 94q12 87 63.5 141t129.5 54q47 0 86.5 -21.5t66 -52t50 -61.5t51 -52.5t57.5 -21.5q43 0 69 26t34 70l14 98h94l-14 -94q-14 -87 -65 -141t-128 -54q-48 0 -87.5 21.5t-66 52t-50 61.5t-51.5 52.5t-58 21.5q-39 0 -65.5 -26.5t-32.5 -69.5zM899 438
l105 594h120l-104 -596q-42 -231 -161.5 -354t-311.5 -123q-214 0 -319.5 127.5t-65.5 359.5l102 586h121l-104 -594q-32 -175 40.5 -269.5t231.5 -94.5q139 0 227 93t119 271z" />
    <glyph glyph-name="Umacron" unicode="&#x16a;" horiz-adv-x="1431" 
d="M639 1688l16 94h572l-19 -94h-569zM1112 524l160 910h131l-162 -914q-96 -561 -582 -561q-124 0 -220.5 38.5t-159.5 113.5t-85.5 186.5t3.5 257.5l155 879h131l-153 -883q-41 -230 48.5 -349.5t287.5 -119.5q182 0 295 111.5t151 330.5z" />
    <glyph glyph-name="umacron" unicode="&#x16b;" horiz-adv-x="1204" 
d="M473 1401l16 94h570l-17 -94h-569zM899 438l105 594h120l-104 -596q-42 -231 -161.5 -354t-311.5 -123q-214 0 -319.5 127.5t-65.5 359.5l102 586h121l-104 -594q-32 -175 40.5 -269.5t231.5 -94.5q139 0 227 93t119 271z" />
    <glyph glyph-name="Ubreve" unicode="&#x16c;" horiz-adv-x="1431" 
d="M924 1628q181 0 227 205h111q-26 -144 -118 -220.5t-222 -76.5q-141 0 -221 78t-58 219h98q-12 -100 37.5 -152.5t145.5 -52.5zM1112 524l160 910h131l-162 -914q-96 -561 -582 -561q-124 0 -220.5 38.5t-159.5 113.5t-85.5 186.5t3.5 257.5l155 879h131l-153 -883
q-41 -230 48.5 -349.5t287.5 -119.5q182 0 295 111.5t151 330.5z" />
    <glyph glyph-name="ubreve" unicode="&#x16d;" horiz-adv-x="1204" 
d="M754 1288q97 0 153 61t78 187h109q-24 -166 -114.5 -253t-229.5 -87q-140 0 -217.5 90t-53.5 250h99q-13 -123 32 -185.5t144 -62.5zM899 438l105 594h120l-104 -596q-42 -231 -161.5 -354t-311.5 -123q-214 0 -319.5 127.5t-65.5 359.5l102 586h121l-104 -594
q-32 -175 40.5 -269.5t231.5 -94.5q139 0 227 93t119 271z" />
    <glyph glyph-name="Uring" unicode="&#x16e;" horiz-adv-x="1431" 
d="M952 1978q93 0 157.5 -58t64.5 -151q0 -112 -75.5 -182.5t-183.5 -70.5q-93 0 -157 57.5t-64 150.5q0 113 75.5 183.5t182.5 70.5zM948 1894q-72 0 -117 -47.5t-45 -117.5q0 -58 37.5 -94t96.5 -36q72 0 116.5 47t44.5 117q0 58 -37 94.5t-96 36.5zM1112 524l160 910h131
l-162 -914q-96 -561 -582 -561q-124 0 -220.5 38.5t-159.5 113.5t-85.5 186.5t3.5 257.5l155 879h131l-153 -883q-41 -230 48.5 -349.5t287.5 -119.5q182 0 295 111.5t151 330.5z" />
    <glyph glyph-name="uring" unicode="&#x16f;" horiz-adv-x="1204" 
d="M735 1139q-93 0 -157 60t-64 153q0 112 76 186t184 74q91 0 156 -61t65 -154q0 -112 -76 -185t-184 -73zM741 1223q72 0 117 49t45 119q0 60 -37.5 98.5t-97.5 38.5q-72 0 -117 -50.5t-45 -121.5q0 -60 37 -96.5t98 -36.5zM899 438l105 594h120l-104 -596
q-42 -231 -161.5 -354t-311.5 -123q-214 0 -319.5 127.5t-65.5 359.5l102 586h121l-104 -594q-32 -175 40.5 -269.5t231.5 -94.5q139 0 227 93t119 271z" />
    <glyph glyph-name="Uhungarumlaut" unicode="&#x170;" horiz-adv-x="1431" 
d="M776 1556h-127l275 277h153zM1151 1556h-127l272 277h156zM1112 524l160 910h131l-162 -914q-96 -561 -582 -561q-124 0 -220.5 38.5t-159.5 113.5t-85.5 186.5t3.5 257.5l155 879h131l-153 -883q-41 -230 48.5 -349.5t287.5 -119.5q182 0 295 111.5t151 330.5z" />
    <glyph glyph-name="uhungarumlaut" unicode="&#x171;" horiz-adv-x="1204" 
d="M590 1196h-125l270 340h146zM940 1196h-123l268 340h146zM899 438l105 594h120l-104 -596q-42 -231 -161.5 -354t-311.5 -123q-214 0 -319.5 127.5t-65.5 359.5l102 586h121l-104 -594q-32 -175 40.5 -269.5t231.5 -94.5q139 0 227 93t119 271z" />
    <glyph glyph-name="Uogonek" unicode="&#x172;" horiz-adv-x="1431" 
d="M459 -319q-1 71 49.5 133.5t169.5 144.5h-19q-124 0 -220.5 38.5t-159.5 113.5t-85.5 186.5t3.5 257.5l155 879h131l-153 -883q-41 -230 48.5 -349.5t287.5 -119.5q182 0 295 111.5t151 330.5l160 910h131l-162 -914q-74 -432 -379 -530l-67 -45q-143 -100 -187.5 -148.5
t-44.5 -103.5q0 -50 34.5 -76.5t88.5 -26.5t127 31l-18 -98q-56 -27 -123 -27q-102 0 -157.5 52.5t-55.5 132.5z" />
    <glyph glyph-name="uogonek" unicode="&#x173;" horiz-adv-x="1204" 
d="M307 -319q-1 71 49.5 133.5t169.5 144.5q-204 6 -303.5 133.5t-60.5 353.5l102 586h121l-104 -594q-32 -175 40.5 -269.5t231.5 -94.5q139 0 227 93t119 271l105 594h120l-104 -596q-66 -366 -318 -452l-59 -39q-142 -100 -186.5 -148t-44.5 -104q0 -50 34.5 -76.5
t88.5 -26.5t127 31l-19 -98q-56 -27 -123 -27q-102 0 -157.5 52.5t-55.5 132.5z" />
    <glyph glyph-name="Wcircumflex" unicode="&#x174;" horiz-adv-x="2027" 
d="M1014 1556h-119l272 277h162l174 -277h-106l-154 211zM236 1434h133l98 -1293l614 1293h181l159 -1293l555 1293h140l-619 -1434h-184l-162 1292l-621 -1292h-180z" />
    <glyph glyph-name="wcircumflex" unicode="&#x175;" horiz-adv-x="1550" 
d="M719 1196h-121l270 340h172l150 -340h-105l-135 279zM170 1032h119l67 -909l422 909h168l101 -911l391 911h125l-441 -1032h-172l-104 915l-430 -915h-168z" />
    <glyph glyph-name="Ycircumflex" unicode="&#x176;" horiz-adv-x="1302" 
d="M643 1556h-119l273 277h161l175 -277h-107l-154 211zM1438 1434l-695 -766l-116 -668h-131l118 674l-424 760h146l358 -646l582 646h162z" />
    <glyph glyph-name="ycircumflex" unicode="&#x177;" horiz-adv-x="1077" 
d="M481 1196h-121l271 340h172l149 -340h-104l-135 279zM362 -260q-78 -133 -162.5 -192.5t-195.5 -59.5q-113 0 -174 37l18 110q56 -34 146 -34q157 0 264 182l129 219l-256 1030h129l213 -885l520 885h135z" />
    <glyph glyph-name="Ydieresis" unicode="&#x178;" horiz-adv-x="1302" 
d="M678 1651q-36 0 -62 25t-26 61q0 35 26.5 60.5t61.5 25.5q37 0 62.5 -25.5t25.5 -60.5q0 -37 -25.5 -61.5t-62.5 -24.5zM1038 1651q-37 0 -62.5 24.5t-25.5 61.5q0 35 25.5 60.5t62.5 25.5t62.5 -25.5t25.5 -60.5q0 -37 -25.5 -61.5t-62.5 -24.5zM1438 1434l-695 -766
l-116 -668h-131l118 674l-424 760h146l358 -646l582 646h162z" />
    <glyph glyph-name="Zacute" unicode="&#x179;" horiz-adv-x="1296" 
d="M899 1556h-129l274 277h156zM12 0l21 121l1114 1192h-883l21 121h1050l-20 -121l-1114 -1192h923l-22 -121h-1090z" />
    <glyph glyph-name="zacute" unicode="&#x17a;" horiz-adv-x="970" 
d="M666 1196h-125l266 340h147zM0 0l18 109l775 815h-617l19 108h766l-19 -108l-776 -815h645l-18 -109h-793z" />
    <glyph glyph-name="Zdotaccent" unicode="&#x17b;" horiz-adv-x="1296" 
d="M864 1651q-37 0 -62.5 24.5t-25.5 61.5q0 35 25.5 60.5t62.5 25.5q35 0 61.5 -25.5t26.5 -60.5q0 -36 -26 -61t-62 -25zM12 0l21 121l1114 1192h-883l21 121h1050l-20 -121l-1114 -1192h923l-22 -121h-1090z" />
    <glyph glyph-name="zdotaccent" unicode="&#x17c;" horiz-adv-x="970" 
d="M655 1358q-40 0 -68 25.5t-28 62.5q0 40 28 67t68 27q37 0 65 -27.5t28 -66.5q0 -36 -28 -62t-65 -26zM0 0l18 109l775 815h-617l19 108h766l-19 -108l-776 -815h645l-18 -109h-793z" />
    <glyph glyph-name="Zcaron" unicode="&#x17d;" horiz-adv-x="1296" 
d="M682 1833l154 -211l229 211h121l-273 -277h-161l-174 277h104zM12 0l21 121l1114 1192h-883l21 121h1050l-20 -121l-1114 -1192h923l-22 -121h-1090z" />
    <glyph glyph-name="zcaron" unicode="&#x17e;" horiz-adv-x="970" 
d="M479 1536l133 -279l232 279h123l-271 -340h-174l-149 340h106zM0 0l18 109l775 815h-617l19 108h766l-19 -108l-776 -815h645l-18 -109h-793z" />
    <glyph glyph-name="Schwa" unicode="&#x18f;" horiz-adv-x="1550" 
d="M842 1475q154 0 278.5 -52.5t204 -143.5t122 -211.5t42.5 -260.5q0 -170 -54.5 -323.5t-153 -270.5t-247 -185.5t-325.5 -68.5q-125 0 -230.5 39.5t-177 108t-111.5 162t-40 200.5q0 108 30 205h1161q11 79 11 135q0 116 -34 214.5t-97.5 172t-162 115t-220.5 41.5
q-162 0 -302.5 -66.5t-232.5 -183.5l-94 86q108 134 271 210.5t362 76.5zM715 78q228 0 385.5 133.5t218.5 349.5h-1028q-16 -96 4 -183t72.5 -154t142.5 -106.5t205 -39.5z" />
    <glyph glyph-name="Eopen" unicode="&#x190;" horiz-adv-x="1193" 
d="M549 -41q-206 0 -331.5 107t-125.5 288q0 144 90.5 260.5t261.5 163.5q-161 97 -161 287q0 175 124 291.5t322 116.5q163 0 276 -68.5t169 -187.5l-111 -66q-39 94 -125.5 148.5t-202.5 54.5q-148 0 -230.5 -78.5t-82.5 -212.5q0 -109 65.5 -176.5t176.5 -67.5h233
l-20 -114h-238q-185 0 -297.5 -95t-112.5 -245q0 -135 88 -210t236 -75q128 0 233 55.5t199 175.5l96 -78q-110 -140 -234.5 -207t-297.5 -67z" />
    <glyph glyph-name="ltGamma" unicode="&#x194;" horiz-adv-x="1499" 
d="M891 -201q0 -130 -78 -220.5t-213 -90.5q-119 0 -186.5 61t-67.5 166q0 78 38 162.5t132 218.5l111 160l-398 1178h138l354 -1043l721 1043h153l-825 -1188l51 -150q29 -87 39 -118t20.5 -82t10.5 -97zM604 -397q71 0 110.5 49.5t39.5 136.5q0 83 -52 244l-26 78l-51 -76
q-80 -114 -114 -185t-34 -122q0 -59 32 -92t95 -33z" />
    <glyph glyph-name="Nhookleft" unicode="&#x19d;" horiz-adv-x="1648" 
d="M279 39q-34 -194 -126 -277.5t-245 -83.5q-93 0 -148 25l21 113q55 -19 119 -19q51 0 88 10.5t70 37.5t55.5 79t36.5 131l243 1379h168l664 -1289l227 1289h131l-254 -1434h-170l-661 1286z" />
    <glyph glyph-name="Ohorn" unicode="&#x1a0;" horiz-adv-x="1671" 
d="M950 1475q130 0 242 -41h92q100 0 146.5 52t46.5 122q0 61 -41 108l82 58q65 -69 65 -164q0 -100 -61.5 -171t-175.5 -85q125 -90 194.5 -232.5t69.5 -312.5q0 -168 -60 -323t-165 -271.5t-259 -186t-331 -69.5q-145 0 -268.5 51.5t-209 140.5t-134 212t-48.5 262
q0 168 60 323t165 271.5t259 186t331 69.5zM797 82q192 0 348.5 99.5t242 264t85.5 357.5q0 112 -38 212t-106 174.5t-167.5 118.5t-215.5 44q-191 0 -347 -99.5t-241.5 -264t-85.5 -357.5q0 -112 38 -212t105 -174.5t166.5 -118.5t215.5 -44z" />
    <glyph glyph-name="ohorn" unicode="&#x1a1;" horiz-adv-x="1277" 
d="M702 1073q118 0 211 -41h88q100 0 146.5 52t46.5 122q0 62 -41 109l82 57q65 -69 65 -164q0 -105 -67.5 -177t-192.5 -81q148 -139 148 -368q0 -122 -45 -235.5t-123.5 -199t-193.5 -137t-246 -51.5q-150 0 -262.5 66.5t-169 177.5t-56.5 248q0 164 76 306t217 229
t317 87zM582 74q103 0 193 42t152 112t98 162.5t36 193.5q0 159 -100.5 266.5t-262.5 107.5q-103 0 -193 -41.5t-151.5 -111.5t-97 -162.5t-35.5 -193.5q0 -159 99.5 -267t261.5 -108z" />
    <glyph glyph-name="Uhorn" unicode="&#x1af;" horiz-adv-x="1431" 
d="M1112 524l160 910h119q100 0 146 52t46 122q0 61 -41 108l82 58q66 -70 66 -164q0 -112 -77 -186t-218 -74h-6l-148 -830q-96 -561 -582 -561q-124 0 -220.5 38.5t-159.5 113.5t-85.5 186.5t3.5 257.5l155 879h131l-153 -883q-41 -230 48.5 -349.5t287.5 -119.5
q182 0 295 111.5t151 330.5z" />
    <glyph glyph-name="uhorn" unicode="&#x1b0;" horiz-adv-x="1212" 
d="M899 438l105 594h118q100 0 146.5 52t46.5 122q0 62 -41 109l82 57q65 -69 65 -164q0 -112 -77 -186t-220 -74h-14l-90 -512q-42 -231 -161.5 -354t-311.5 -123q-214 0 -319.5 127.5t-65.5 359.5l102 586h121l-104 -594q-32 -175 40.5 -269.5t231.5 -94.5q139 0 227 93
t119 271z" />
    <glyph glyph-name="Acaron" unicode="&#x1cd;" horiz-adv-x="1456" 
d="M764 1833l154 -211l229 211h121l-273 -277h-161l-175 277h105zM-23 0l824 1434h180l317 -1434h-133l-98 451h-688l-258 -451h-144zM444 567h598l-163 758z" />
    <glyph glyph-name="acaron" unicode="&#x1ce;" horiz-adv-x="1112" 
d="M551 1536l133 -279l231 279h123l-270 -340h-174l-150 340h107zM391 -29q-140 0 -224.5 68t-84.5 188q0 128 93.5 209.5t273.5 110.5l387 65l14 82q23 128 -39 198.5t-188 70.5q-91 0 -175 -42.5t-151 -117.5l-90 76q79 89 187.5 141.5t232.5 52.5q189 0 281.5 -107
t60.5 -288l-123 -678h-117l25 137q-150 -166 -363 -166zM209 238q0 -72 54 -117t147 -45q215 0 366 198l43 242l-346 -59q-264 -44 -264 -219z" />
    <glyph glyph-name="Icaron" unicode="&#x1cf;" horiz-adv-x="589" 
d="M330 1833l153 -211l230 211h121l-273 -277h-162l-174 277h105zM139 0l254 1434h131l-254 -1434h-131z" />
    <glyph glyph-name="icaron" unicode="&#x1d0;" horiz-adv-x="512" 
d="M250 1536l133 -279l231 279h123l-270 -340h-174l-150 340h107zM104 0l183 1032h121l-183 -1032h-121z" />
    <glyph glyph-name="Ocaron" unicode="&#x1d1;" horiz-adv-x="1671" 
d="M854 1833l154 -211l229 211h121l-273 -277h-161l-174 277h104zM950 1475q145 0 268.5 -51.5t209 -140.5t134 -212t48.5 -262q0 -168 -60 -323t-165 -271.5t-259 -186t-331 -69.5q-145 0 -268.5 51.5t-209 140.5t-134 212t-48.5 262q0 168 60 323t165 271.5t259 186
t331 69.5zM797 82q192 0 348.5 99.5t242 264t85.5 357.5q0 112 -38 212t-106 174.5t-167.5 118.5t-215.5 44q-191 0 -347 -99.5t-241.5 -264t-85.5 -357.5q0 -112 38 -212t105 -174.5t166.5 -118.5t215.5 -44z" />
    <glyph glyph-name="ocaron" unicode="&#x1d2;" horiz-adv-x="1277" 
d="M633 1536l133 -279l231 279h123l-270 -340h-174l-150 340h107zM702 1073q149 0 261 -66.5t168.5 -177t56.5 -247.5q0 -122 -45 -235.5t-123.5 -199t-193.5 -137t-246 -51.5q-150 0 -262.5 66.5t-169 177.5t-56.5 248q0 164 76 306t217 229t317 87zM582 74q103 0 193 42
t152 112t98 162.5t36 193.5q0 159 -100.5 266.5t-262.5 107.5q-103 0 -193 -41.5t-151.5 -111.5t-97 -162.5t-35.5 -193.5q0 -159 99.5 -267t261.5 -108z" />
    <glyph glyph-name="Ucaron" unicode="&#x1d3;" horiz-adv-x="1431" 
d="M752 1833l153 -211l230 211h120l-272 -277h-162l-174 277h105zM1112 524l160 910h131l-162 -914q-96 -561 -582 -561q-124 0 -220.5 38.5t-159.5 113.5t-85.5 186.5t3.5 257.5l155 879h131l-153 -883q-41 -230 48.5 -349.5t287.5 -119.5q182 0 295 111.5t151 330.5z" />
    <glyph glyph-name="ucaron" unicode="&#x1d4;" horiz-adv-x="1204" 
d="M596 1536l133 -279l232 279h122l-270 -340h-174l-150 340h107zM899 438l105 594h120l-104 -596q-42 -231 -161.5 -354t-311.5 -123q-214 0 -319.5 127.5t-65.5 359.5l102 586h121l-104 -594q-32 -175 40.5 -269.5t231.5 -94.5q139 0 227 93t119 271z" />
    <glyph glyph-name="Udieresismacron" unicode="&#x1d5;" horiz-adv-x="1431" 
d="M694 2015l17 94h571l-18 -94h-570zM752 1651q-36 0 -62 25t-26 61q0 35 26.5 60.5t61.5 25.5q37 0 62.5 -25.5t25.5 -60.5q0 -37 -25.5 -61.5t-62.5 -24.5zM1112 1651q-37 0 -62.5 24.5t-25.5 61.5q0 35 25.5 60.5t62.5 25.5t62.5 -25.5t25.5 -60.5q0 -37 -25.5 -61.5
t-62.5 -24.5zM1112 524l160 910h131l-162 -914q-96 -561 -582 -561q-124 0 -220.5 38.5t-159.5 113.5t-85.5 186.5t3.5 257.5l155 879h131l-153 -883q-41 -230 48.5 -349.5t287.5 -119.5q182 0 295 111.5t151 330.5z" />
    <glyph glyph-name="udieresismacron" unicode="&#x1d6;" horiz-adv-x="1204" 
d="M512 1614l16 94h572l-19 -94h-569zM567 1249q-36 0 -62 25t-26 61q0 35 26.5 60.5t61.5 25.5q37 0 62.5 -25.5t25.5 -60.5q0 -37 -25.5 -61.5t-62.5 -24.5zM928 1249q-37 0 -62.5 24.5t-25.5 61.5q0 35 25.5 60.5t62.5 25.5t62.5 -25.5t25.5 -60.5q0 -37 -25.5 -61.5
t-62.5 -24.5zM899 438l105 594h120l-104 -596q-42 -231 -161.5 -354t-311.5 -123q-214 0 -319.5 127.5t-65.5 359.5l102 586h121l-104 -594q-32 -175 40.5 -269.5t231.5 -94.5q139 0 227 93t119 271z" />
    <glyph glyph-name="Udieresisacute" unicode="&#x1d7;" horiz-adv-x="1431" 
d="M1024 1884h-129l274 277h156zM752 1651q-36 0 -62 25t-26 61q0 35 26.5 60.5t61.5 25.5q37 0 62.5 -25.5t25.5 -60.5q0 -37 -25.5 -61.5t-62.5 -24.5zM1112 1651q-37 0 -62.5 24.5t-25.5 61.5q0 35 25.5 60.5t62.5 25.5t62.5 -25.5t25.5 -60.5q0 -37 -25.5 -61.5
t-62.5 -24.5zM1112 524l160 910h131l-162 -914q-96 -561 -582 -561q-124 0 -220.5 38.5t-159.5 113.5t-85.5 186.5t3.5 257.5l155 879h131l-153 -883q-41 -230 48.5 -349.5t287.5 -119.5q182 0 295 111.5t151 330.5z" />
    <glyph glyph-name="udieresisacute" unicode="&#x1d8;" horiz-adv-x="1204" 
d="M842 1483h-129l274 276h156zM567 1249q-36 0 -62 25t-26 61q0 35 26.5 60.5t61.5 25.5q37 0 62.5 -25.5t25.5 -60.5q0 -37 -25.5 -61.5t-62.5 -24.5zM928 1249q-37 0 -62.5 24.5t-25.5 61.5q0 35 25.5 60.5t62.5 25.5t62.5 -25.5t25.5 -60.5q0 -37 -25.5 -61.5
t-62.5 -24.5zM899 438l105 594h120l-104 -596q-42 -231 -161.5 -354t-311.5 -123q-214 0 -319.5 127.5t-65.5 359.5l102 586h121l-104 -594q-32 -175 40.5 -269.5t231.5 -94.5q139 0 227 93t119 271z" />
    <glyph glyph-name="Udieresiscaron" unicode="&#x1d9;" horiz-adv-x="1431" 
d="M807 2161l154 -211l229 211h121l-273 -277h-161l-175 277h105zM752 1651q-36 0 -62 25t-26 61q0 35 26.5 60.5t61.5 25.5q37 0 62.5 -25.5t25.5 -60.5q0 -37 -25.5 -61.5t-62.5 -24.5zM1112 1651q-37 0 -62.5 24.5t-25.5 61.5q0 35 25.5 60.5t62.5 25.5t62.5 -25.5
t25.5 -60.5q0 -37 -25.5 -61.5t-62.5 -24.5zM1112 524l160 910h131l-162 -914q-96 -561 -582 -561q-124 0 -220.5 38.5t-159.5 113.5t-85.5 186.5t3.5 257.5l155 879h131l-153 -883q-41 -230 48.5 -349.5t287.5 -119.5q182 0 295 111.5t151 330.5z" />
    <glyph glyph-name="udieresiscaron" unicode="&#x1da;" horiz-adv-x="1204" 
d="M625 1759l153 -211l230 211h120l-272 -276h-162l-174 276h105zM567 1249q-36 0 -62 25t-26 61q0 35 26.5 60.5t61.5 25.5q37 0 62.5 -25.5t25.5 -60.5q0 -37 -25.5 -61.5t-62.5 -24.5zM928 1249q-37 0 -62.5 24.5t-25.5 61.5q0 35 25.5 60.5t62.5 25.5t62.5 -25.5
t25.5 -60.5q0 -37 -25.5 -61.5t-62.5 -24.5zM899 438l105 594h120l-104 -596q-42 -231 -161.5 -354t-311.5 -123q-214 0 -319.5 127.5t-65.5 359.5l102 586h121l-104 -594q-32 -175 40.5 -269.5t231.5 -94.5q139 0 227 93t119 271z" />
    <glyph glyph-name="Udieresisgrave" unicode="&#x1db;" horiz-adv-x="1431" 
d="M903 1884l-203 277h144l176 -277h-117zM752 1651q-36 0 -62 25t-26 61q0 35 26.5 60.5t61.5 25.5q37 0 62.5 -25.5t25.5 -60.5q0 -37 -25.5 -61.5t-62.5 -24.5zM1112 1651q-37 0 -62.5 24.5t-25.5 61.5q0 35 25.5 60.5t62.5 25.5t62.5 -25.5t25.5 -60.5
q0 -37 -25.5 -61.5t-62.5 -24.5zM1112 524l160 910h131l-162 -914q-96 -561 -582 -561q-124 0 -220.5 38.5t-159.5 113.5t-85.5 186.5t3.5 257.5l155 879h131l-153 -883q-41 -230 48.5 -349.5t287.5 -119.5q182 0 295 111.5t151 330.5z" />
    <glyph glyph-name="udieresisgrave" unicode="&#x1dc;" horiz-adv-x="1204" 
d="M721 1483l-203 276h144l176 -276h-117zM567 1249q-36 0 -62 25t-26 61q0 35 26.5 60.5t61.5 25.5q37 0 62.5 -25.5t25.5 -60.5q0 -37 -25.5 -61.5t-62.5 -24.5zM928 1249q-37 0 -62.5 24.5t-25.5 61.5q0 35 25.5 60.5t62.5 25.5t62.5 -25.5t25.5 -60.5q0 -37 -25.5 -61.5
t-62.5 -24.5zM899 438l105 594h120l-104 -596q-42 -231 -161.5 -354t-311.5 -123q-214 0 -319.5 127.5t-65.5 359.5l102 586h121l-104 -594q-32 -175 40.5 -269.5t231.5 -94.5q139 0 227 93t119 271z" />
    <glyph glyph-name="Gcaron" unicode="&#x1e6;" horiz-adv-x="1624" 
d="M829 1833l154 -211l229 211h121l-272 -277h-162l-174 277h104zM788 -41q-192 0 -342 88t-231.5 239.5t-81.5 338.5q0 168 61 323t167.5 271.5t262 186t334.5 69.5q197 0 344 -83.5t226 -222.5l-115 -73q-60 116 -182 186t-277 70q-146 0 -274.5 -58.5t-217.5 -156.5
t-140.5 -230t-51.5 -276q0 -149 64.5 -274t185.5 -200t273 -75q282 0 493 194l70 396h-432l20 114h563l-102 -571q-116 -117 -273 -186.5t-344 -69.5z" />
    <glyph glyph-name="gcaron" unicode="&#x1e7;" horiz-adv-x="1101" 
d="M492 1536l133 -279l231 279h123l-270 -340h-174l-150 340h107zM-57 -223q0 91 55.5 169t159.5 136q-60 45 -60 125q0 68 48 124t128 95q-108 94 -108 246q0 78 28.5 149.5t81 128.5t135 91t181.5 34q101 0 182 -43h397l-20 -106h-262q51 -79 51 -178q0 -105 -48.5 -196
t-147 -150.5t-228.5 -59.5q-98 0 -168 37q-63 -30 -98 -70.5t-35 -81.5q0 -69 84 -69h285q182 0 270 -77.5t88 -207.5q0 -166 -145.5 -275.5t-399.5 -109.5q-227 0 -340.5 77t-113.5 212zM819 743q0 98 -62 164t-167 66q-144 0 -224.5 -88t-80.5 -211q0 -97 61.5 -163.5
t169.5 -66.5q141 0 222 89t81 210zM68 -207q0 -201 331 -201q202 0 310 76.5t108 198.5q0 180 -239 180h-310q-95 -44 -147.5 -114.5t-52.5 -139.5z" />
    <glyph glyph-name="Aringacute" unicode="&#x1fa;" horiz-adv-x="1456" 
d="M1063 2040h-129l274 276h156zM965 1978q93 0 157 -58t64 -151q0 -112 -75.5 -182.5t-182.5 -70.5q-93 0 -157 57.5t-64 150.5q0 113 75.5 183.5t182.5 70.5zM961 1894q-72 0 -117 -47.5t-45 -117.5q0 -58 37 -94t96 -36q72 0 117 47t45 117q0 58 -37 94.5t-96 36.5z
M-23 0l824 1434h180l317 -1434h-133l-98 451h-688l-258 -451h-144zM444 567h598l-163 758z" />
    <glyph glyph-name="aringacute" unicode="&#x1fb;" horiz-adv-x="1112" 
d="M823 1638h-129l275 277h155zM723 1577q93 0 157 -58t64 -151q0 -113 -75.5 -183.5t-182.5 -70.5q-93 0 -157 58t-64 151q0 113 75.5 183.5t182.5 70.5zM719 1493q-72 0 -117 -47.5t-45 -118.5q0 -58 37 -93.5t96 -35.5q72 0 117 47t45 117q0 58 -37 94.5t-96 36.5z
M391 -29q-140 0 -224.5 68t-84.5 188q0 128 93.5 209.5t273.5 110.5l387 65l14 82q23 128 -39 198.5t-188 70.5q-91 0 -175 -42.5t-151 -117.5l-90 76q79 89 187.5 141.5t232.5 52.5q189 0 281.5 -107t60.5 -288l-123 -678h-117l25 137q-150 -166 -363 -166zM209 238
q0 -72 54 -117t147 -45q215 0 366 198l43 242l-346 -59q-264 -44 -264 -219z" />
    <glyph glyph-name="AEacute" unicode="&#x1fc;" horiz-adv-x="1925" 
d="M1376 1556h-129l275 277h155zM-33 0l1168 1434h798l-20 -115h-580l-94 -533h500l-21 -112h-497l-99 -559h578l-21 -115h-708l80 451h-557l-365 -451h-162zM588 567h483l133 760z" />
    <glyph glyph-name="aeacute" unicode="&#x1fd;" horiz-adv-x="1875" 
d="M1063 1196h-125l266 340h148zM395 -29q-140 0 -225.5 69.5t-85.5 192.5q0 125 92.5 205t272.5 109l387 65l16 82q23 128 -40 198.5t-189 70.5q-183 0 -326 -160l-90 76q79 89 187.5 141.5t232.5 52.5q133 0 219 -55.5t112 -155.5q80 98 195.5 154.5t251.5 56.5
q178 0 286.5 -106.5t108.5 -268.5q0 -68 -22 -151h-828q-8 -44 -8 -98q0 -168 94 -273.5t264 -105.5q117 0 216 46.5t161 129.5l84 -78q-79 -99 -199.5 -154t-265.5 -55q-156 0 -267 69t-165 189q-96 -119 -210 -182.5t-259 -63.5zM1399 969q-148 0 -260.5 -90t-163.5 -234
l700 -2q20 132 -54 229t-222 97zM209 242q0 -74 54 -120t147 -46q126 0 225.5 65t193.5 185q-12 62 -12 125q0 25 4 65l-348 -59q-264 -44 -264 -215z" />
    <glyph glyph-name="Oslashacute" unicode="&#x1fe;" horiz-adv-x="1671" 
d="M1071 1556h-129l275 277h155zM147 -41h-135l250 240h4l6 6q-137 176 -137 420q0 168 60 323t165 271.5t259 186t331 69.5q138 0 256.5 -47t206.5 -132l184 179h134l-248 -240h-4l-6 -6q137 -176 137 -420q0 -168 -60 -323t-165 -271.5t-259 -186t-331 -69.5
q-279 0 -463 178zM272 631q0 -184 99 -332l942 907q-146 146 -367 146q-191 0 -347 -99.5t-241.5 -264t-85.5 -357.5zM797 82q192 0 348.5 99.5t242 264t85.5 357.5q0 189 -101 330l-940 -906q145 -145 365 -145z" />
    <glyph glyph-name="oslashacute" unicode="&#x1ff;" horiz-adv-x="1277" 
d="M819 1196h-125l267 340h147zM135 -41h-131l184 182q-96 128 -96 310q0 164 76 306t217 229t317 87q197 0 328 -115l115 115h131l-182 -182h-2q96 -128 96 -309q0 -122 -45 -235.5t-123.5 -199t-193.5 -137t-246 -51.5q-199 0 -330 115zM221 449q0 -123 62 -220l655 643
q-96 86 -240 86q-103 0 -193 -41.5t-151.5 -111.5t-97 -162.5t-35.5 -193.5zM582 74q103 0 193 42t152 112t98 162.5t36 193.5q0 124 -64 219l-655 -643q99 -86 240 -86z" />
    <glyph glyph-name="Scommaaccent" unicode="&#x218;" horiz-adv-x="1167" 
d="M449 1096q0 -65 29.5 -120t76.5 -95t103.5 -78t113 -79.5t103.5 -88.5t76.5 -114.5t29.5 -149.5q0 -176 -123.5 -294t-320.5 -118q-292 0 -445 240l105 77q133 -196 342 -196q139 0 223 81.5t84 200.5q0 66 -29.5 122t-76.5 96.5t-103.5 79.5t-113.5 80t-104 88
t-76.5 114t-29.5 148q0 159 121 272t299 113q274 0 393 -230l-106 -76q-88 187 -291 187q-119 0 -199.5 -76.5t-80.5 -183.5zM272 -504h-125l267 340h149z" />
    <glyph glyph-name="scommaaccent" unicode="&#x219;" horiz-adv-x="862" 
d="M301 784q0 -47 23 -85t60 -65.5t81.5 -52.5t89 -53.5t81.5 -61.5t60 -83.5t23 -112.5q0 -126 -96 -218.5t-244 -92.5q-114 0 -209.5 51t-151.5 146l95 67q101 -160 270 -160q96 0 155.5 58t59.5 147q0 47 -23 84.5t-59.5 64.5t-81 52t-89 53t-81 61.5t-59.5 83.5t-23 113
q0 122 95.5 207.5t236.5 85.5q105 0 187.5 -51.5t123.5 -134.5l-98 -64q-67 146 -215 146q-90 0 -150.5 -56t-60.5 -129zM121 -504h-125l266 340h150z" />
    <glyph glyph-name="Tcommaaccent" unicode="&#x21a;" horiz-adv-x="1241" 
d="M215 1313l23 121h1089l-22 -121h-478l-233 -1313h-131l233 1313h-481zM287 -504h-125l266 340h150z" />
    <glyph glyph-name="tcommaaccent" unicode="&#x21b;" horiz-adv-x="825" 
d="M219 344l103 580h-191l21 108h188l45 258h123l-45 -258h373l-19 -108h-375l-102 -586q-13 -60 -8 -103t17.5 -70.5t40 -43.5t58 -22.5t72.5 -6.5q69 0 156 27l-21 -111q-70 -28 -157 -28q-345 0 -279 364zM170 -504h-125l266 340h150z" />
    <glyph glyph-name="Ymacron" unicode="&#x232;" horiz-adv-x="1302" 
d="M565 1688l17 94h571l-18 -94h-570zM1438 1434l-695 -766l-116 -668h-131l118 674l-424 760h146l358 -646l582 646h162z" />
    <glyph glyph-name="ymacron" unicode="&#x233;" horiz-adv-x="1077" 
d="M410 1401l16 94h569l-16 -94h-569zM362 -260q-78 -133 -162.5 -192.5t-195.5 -59.5q-113 0 -174 37l18 110q56 -34 146 -34q157 0 264 182l129 219l-256 1030h129l213 -885l520 885h135z" />
    <glyph glyph-name="dotlessj" unicode="&#x237;" horiz-adv-x="512" 
d="M195 -170q-17 -100 -50.5 -168.5t-82.5 -105.5t-105.5 -52.5t-130.5 -15.5q-104 0 -180 37l18 108q69 -32 150 -32q43 0 74 4.5t63.5 18.5t55 39.5t41.5 70t30 106.5l209 1192h119z" />
    <glyph glyph-name="schwa" unicode="&#x259;" horiz-adv-x="1155" 
d="M584 1073q153 0 263.5 -66.5t164 -176.5t53.5 -248q0 -125 -38.5 -237.5t-109.5 -198.5t-180 -136.5t-241 -50.5q-181 0 -298.5 107.5t-117.5 267.5q0 72 24 151h828q6 49 6 99q0 169 -93 274t-265 105q-117 0 -216 -47t-161 -130l-82 78q78 98 198 153.5t265 55.5z
M498 63q156 0 263 89.5t150 236.5h-706q-13 -84 17.5 -158t103 -121t172.5 -47z" />
    <glyph glyph-name="eopen" unicode="&#x25b;" horiz-adv-x="974" 
d="M446 70q112 0 208.5 48t160.5 132l82 -78q-83 -101 -202 -157t-259 -56q-173 0 -278 78.5t-105 212.5q0 111 68 194.5t184 114.5q-112 66 -112 199q0 136 99 225.5t269 89.5q228 0 365 -168l-95 -76q-43 58 -112.5 96t-159.5 38q-114 0 -177 -57t-63 -152q0 -70 46 -113
t120 -43h211l-18 -102h-246q-113 0 -181.5 -66t-68.5 -166q0 -93 70.5 -143.5t193.5 -50.5z" />
    <glyph glyph-name="ipagamma" unicode="&#x263;" horiz-adv-x="1058" 
d="M649 -236q0 -73 -27.5 -133.5t-90 -101.5t-150.5 -41q-105 0 -175.5 63.5t-70.5 159.5q0 63 28 127.5t103 171.5l140 203l-275 819h127l234 -698l483 698h139l-579 -829l69 -209q45 -131 45 -230zM385 -408q67 0 104 48t37 129q0 92 -34 190l-41 123l-78 -113
q-66 -94 -91.5 -147.5t-25.5 -100.5q0 -61 34 -95t95 -34z" />
    <glyph glyph-name="nhookleft" unicode="&#x272;" horiz-adv-x="1239" 
d="M195 -170q-17 -100 -50.5 -168.5t-82.5 -105.5t-105.5 -52.5t-130.5 -15.5q-104 0 -180 37l18 108q69 -32 150 -32q43 0 74 4.5t63.5 18.5t55 39.5t41.5 70t30 106.5l209 1192h119l-23 -133q160 174 367 174q186 0 279 -115.5t56 -324.5l-110 -633h-121l111 629
q29 157 -36.5 243t-203.5 86q-219 0 -371 -217z" />
    <glyph glyph-name="ringhalfrightmod" unicode="&#x2be;" 
d="M604 1143l14 84q79 -1 127 46t48 116q0 61 -32.5 99.5t-88.5 43.5l14 82q85 -8 143 -68t58 -155q0 -113 -80 -182t-203 -66z" />
    <glyph glyph-name="ringhalfleftmod" unicode="&#x2bf;" 
d="M930 1610l-15 -84q-80 1 -128 -47t-48 -117q0 -61 32.5 -98.5t88.5 -42.5l-12 -82q-85 8 -143 68t-58 153q0 113 79.5 183t203.5 67z" />
    <glyph glyph-name="circumflex" unicode="&#x2c6;" horiz-adv-x="688" 
d="M287 1196h-121l270 340h172l150 -340h-105l-135 279z" />
    <glyph glyph-name="caron" unicode="&#x2c7;" horiz-adv-x="688" 
d="M336 1536l133 -279l231 279h123l-270 -340h-174l-150 340h107z" />
    <glyph glyph-name="verticallinemod" unicode="&#x2c8;" 
d="M748 1536h94l-60 -340h-94z" />
    <glyph glyph-name="verticallinelowmod" unicode="&#x2cc;" 
d="M449 -164h94l-60 -340h-94z" />
    <glyph glyph-name="breve" unicode="&#x2d8;" horiz-adv-x="688" 
d="M489 1288q97 0 153.5 61t78.5 187h108q-24 -166 -114.5 -253t-229.5 -87q-140 0 -217 89.5t-53 250.5h98q-13 -123 32 -185.5t144 -62.5z" />
    <glyph glyph-name="dotaccent" unicode="&#x2d9;" horiz-adv-x="688" 
d="M510 1358q-40 0 -68 25.5t-28 62.5q0 40 28 67t68 27q37 0 64.5 -27.5t27.5 -66.5q0 -36 -27.5 -62t-64.5 -26z" />
    <glyph glyph-name="ring" unicode="&#x2da;" horiz-adv-x="688" 
d="M477 1139q-93 0 -157 60t-64 153q0 112 76 186t184 74q91 0 156 -61t65 -154q0 -112 -76 -185t-184 -73zM483 1223q72 0 117 49t45 119q0 60 -37.5 98.5t-97.5 38.5q-72 0 -117 -50.5t-45 -121.5q0 -60 37 -96.5t98 -36.5z" />
    <glyph glyph-name="ogonek" unicode="&#x2db;" horiz-adv-x="688" 
d="M16 -319q-1 79 60 147t211 166l63 43l86 -37l-84 -55q-142 -100 -186.5 -148t-44.5 -104q0 -50 34.5 -76.5t88.5 -26.5t127 31l-19 -98q-56 -27 -123 -27q-102 0 -157.5 52.5t-55.5 132.5z" />
    <glyph glyph-name="tilde" unicode="&#x2dc;" horiz-adv-x="688" 
d="M223 1229h-94l14 94q12 87 63.5 141t129.5 54q47 0 86.5 -21.5t66 -52t50 -61.5t51 -52.5t57.5 -21.5q43 0 69 26t34 70l14 98h94l-14 -94q-14 -87 -65 -141t-128 -54q-48 0 -87.5 21.5t-66 52t-50 61.5t-51.5 52.5t-58 21.5q-39 0 -65.5 -26.5t-32.5 -69.5z" />
    <glyph glyph-name="hungarumlaut" unicode="&#x2dd;" horiz-adv-x="688" 
d="M238 1196h-125l270 340h145zM588 1196h-123l268 340h146z" />
    <glyph glyph-name="gravecmb" unicode="&#x300;" horiz-adv-x="0" 
d="M63 1196l-169 340h135l147 -340h-113z" />
    <glyph glyph-name="acutecmb" unicode="&#x301;" horiz-adv-x="0" 
d="M180 1196h-125l267 340h147z" />
    <glyph glyph-name="circumflexcmb" unicode="&#x302;" horiz-adv-x="0" 
d="M-57 1196h-121l270 340h172l150 -340h-105l-135 279z" />
    <glyph glyph-name="tildecmb" unicode="&#x303;" horiz-adv-x="0" 
d="M-119 1229h-94l14 94q12 87 63.5 141t129.5 54q47 0 86.5 -21.5t66 -52t50 -61.5t51 -52.5t57.5 -21.5q43 0 69 26t34 70l14 98h94l-14 -94q-14 -87 -65 -141t-128 -54q-48 0 -87.5 21.5t-66 52t-50 61.5t-51.5 52.5t-58 21.5q-39 0 -65.5 -26.5t-32.5 -69.5z" />
    <glyph glyph-name="macroncmb" unicode="&#x304;" horiz-adv-x="0" 
d="M-129 1401l16 94h570l-17 -94h-569z" />
    <glyph glyph-name="brevecmb" unicode="&#x306;" horiz-adv-x="0" 
d="M152 1288q97 0 153 61t78 187h109q-24 -166 -115 -253t-230 -87q-140 0 -217 89.5t-53 250.5h98q-13 -123 32.5 -185.5t144.5 -62.5z" />
    <glyph glyph-name="dotaccentcmb" unicode="&#x307;" horiz-adv-x="0" 
d="M170 1358q-40 0 -68 25.5t-28 62.5q0 40 28 67t68 27q37 0 64.5 -27.5t27.5 -66.5q0 -36 -27.5 -62t-64.5 -26z" />
    <glyph glyph-name="dieresiscmb" unicode="&#x308;" horiz-adv-x="0" 
d="M-14 1364q-37 0 -64.5 25.5t-27.5 60.5q0 38 27.5 64t64.5 26t63.5 -26t26.5 -64q0 -35 -26.5 -60.5t-63.5 -25.5zM346 1364q-38 0 -65 25.5t-27 60.5q0 38 27 64t65 26q37 0 63.5 -26t26.5 -64q0 -35 -26.5 -60.5t-63.5 -25.5z" />
    <glyph glyph-name="hookabovecmb" unicode="&#x309;" horiz-adv-x="0" 
d="M76 1137l-4 86q109 17 154.5 49t45.5 90q0 43 -29.5 70.5t-84.5 27.5q-73 0 -158 -63l-47 71q103 82 213 82q92 0 146.5 -49t56.5 -129q0 -203 -293 -235z" />
    <glyph glyph-name="ringabovecmb" unicode="&#x30a;" horiz-adv-x="0" 
d="M133 1139q-93 0 -157 60t-64 153q0 112 76 186t184 74q91 0 156 -61t65 -154q0 -112 -76 -185t-184 -73zM139 1223q72 0 117 49t45 119q0 60 -37.5 98.5t-97.5 38.5q-72 0 -117 -50.5t-45 -121.5q0 -60 37 -96.5t98 -36.5z" />
    <glyph glyph-name="hungarumlautcmb" unicode="&#x30b;" horiz-adv-x="0" 
d="M-12 1196h-125l270 340h146zM338 1196h-123l268 340h146z" />
    <glyph glyph-name="caroncmb" unicode="&#x30c;" horiz-adv-x="0" 
d="M-6 1536l133 -279l231 279h123l-270 -340h-174l-150 340h107z" />
    <glyph glyph-name="verticallineabovecmb" unicode="&#x30d;" horiz-adv-x="0" 
d="M133 1536h94l-59 -340h-94z" />
    <glyph glyph-name="commaturnedabovecmb" unicode="&#x312;" horiz-adv-x="0" 
d="M332 1536h125l-269 -340h-147z" />
    <glyph glyph-name="horncmb" unicode="&#x31b;" horiz-adv-x="0" 
d="M78 948h-94l-21 84h113q100 0 146 52t46 122q0 62 -41 109l82 57q66 -70 66 -164q0 -112 -77 -186t-220 -74z" />
    <glyph glyph-name="dotbelowcmb" unicode="&#x323;" horiz-adv-x="0" 
d="M-164 -508q-39 0 -66.5 26t-27.5 64t28 65t66 27t66 -27t28 -65t-27.5 -64t-66.5 -26z" />
    <glyph glyph-name="commaaccentbelowcmb" unicode="&#x326;" horiz-adv-x="0" 
d="M-328 -504h-125l267 340h149z" />
    <glyph glyph-name="cedillacmb" unicode="&#x327;" horiz-adv-x="0" 
d="M-90 18l94 -14l-137 -151h8q81 0 133.5 -47.5t52.5 -116.5q0 -85 -61 -140t-162 -55q-61 0 -115 21t-90 57l62 72q62 -66 143 -66q53 0 86 27.5t33 77.5q0 39 -28.5 66.5t-78.5 27.5q-44 0 -79 -21l-45 60z" />
    <glyph glyph-name="ogonekcmb" unicode="&#x328;" horiz-adv-x="0" 
d="M-508 -319q-1 79 60 147t210 166l64 43l86 -37l-84 -55q-142 -100 -186.5 -148t-44.5 -104q0 -50 34 -76.5t88 -26.5t127 31l-18 -98q-56 -27 -123 -27q-102 0 -157.5 52.5t-55.5 132.5z" />
    <glyph glyph-name="verticallinebelowcmb" unicode="&#x329;" horiz-adv-x="0" 
d="M-168 -164h94l-59 -340h-94z" />
    <glyph glyph-name="belowbrevecmb" unicode="&#x32e;" horiz-adv-x="0" 
d="M-152 -412q97 0 153.5 61t78.5 187h108q-24 -166 -114.5 -253t-229.5 -87t-216.5 90t-53.5 250h100q-15 -123 30 -185.5t144 -62.5z" />
    <glyph glyph-name="macronbelowcmb" unicode="&#x331;" horiz-adv-x="0" 
d="M-455 -469l17 94h569l-16 -94h-570z" />
    <glyph glyph-name="halfleftringabovecmb" unicode="&#x351;" horiz-adv-x="0" 
d="M315 1610l-14 -84q-80 1 -128 -47t-48 -117q0 -61 32.5 -98.5t88.5 -42.5l-13 -82q-85 8 -142.5 67.5t-57.5 153.5q0 114 79 183.5t203 66.5z" />
    <glyph glyph-name="halfrightringabovecmb" unicode="&#x357;" horiz-adv-x="0" 
d="M33 1143l14 84q79 -1 126.5 46t47.5 116q0 61 -32.5 99.5t-88.5 43.5l15 82q85 -8 142.5 -68t57.5 -155q0 -113 -79.5 -182t-202.5 -66z" />
    <glyph glyph-name="Ddotbelow" unicode="&#x1e0c;" horiz-adv-x="1595" 
d="M139 0l254 1434h438q321 0 511 -174t190 -461q0 -125 -37 -242.5t-111 -218.5t-176 -176.5t-240 -118.5t-296 -43h-533zM831 1313h-327l-213 -1192h381q131 0 247 36t202 99t148.5 147.5t94 184t31.5 205.5q0 234 -152.5 377t-411.5 143zM635 -508q-39 0 -66.5 26
t-27.5 64t28 65t66 27t66 -27t28 -65t-27.5 -64t-66.5 -26z" />
    <glyph glyph-name="ddotbelow" unicode="&#x1e0d;" horiz-adv-x="1312" 
d="M94 440q0 129 43.5 245.5t119 202t184 135.5t233.5 50q126 0 229 -52.5t164 -148.5l117 664h119l-271 -1536h-121l21 119q-160 -160 -367 -160q-219 0 -345 135t-126 346zM221 444q0 -162 100 -266t269 -104q107 0 203.5 48.5t164.5 143.5l82 457q-48 110 -140.5 172.5
t-217.5 62.5q-199 0 -330 -147t-131 -367zM492 -508q-39 0 -67 26t-28 64t28 65t67 27q38 0 66 -27t28 -65t-27.5 -64t-66.5 -26z" />
    <glyph glyph-name="Dlinebelow" unicode="&#x1e0e;" horiz-adv-x="1595" 
d="M139 0l254 1434h438q321 0 511 -174t190 -461q0 -125 -37 -242.5t-111 -218.5t-176 -176.5t-240 -118.5t-296 -43h-533zM831 1313h-327l-213 -1192h381q131 0 247 36t202 99t148.5 147.5t94 184t31.5 205.5q0 234 -152.5 377t-411.5 143zM344 -469l16 94h570l-17 -94
h-569z" />
    <glyph glyph-name="dlinebelow" unicode="&#x1e0f;" horiz-adv-x="1312" 
d="M94 440q0 129 43.5 245.5t119 202t184 135.5t233.5 50q126 0 229 -52.5t164 -148.5l117 664h119l-271 -1536h-121l21 119q-160 -160 -367 -160q-219 0 -345 135t-126 346zM221 444q0 -162 100 -266t269 -104q107 0 203.5 48.5t164.5 143.5l82 457q-48 110 -140.5 172.5
t-217.5 62.5q-199 0 -330 -147t-131 -367zM201 -469l16 94h569l-16 -94h-569z" />
    <glyph glyph-name="Dcedilla" unicode="&#x1e10;" horiz-adv-x="1595" 
d="M139 0l254 1434h438q321 0 511 -174t190 -461q0 -125 -37 -242.5t-111 -218.5t-176 -176.5t-240 -118.5t-296 -43h-533zM831 1313h-327l-213 -1192h381q131 0 247 36t202 99t148.5 147.5t94 184t31.5 205.5q0 234 -152.5 377t-411.5 143zM471 -504h-125l266 340h150z" />
    <glyph glyph-name="dcedilla" unicode="&#x1e11;" horiz-adv-x="1312" 
d="M94 440q0 129 43.5 245.5t119 202t184 135.5t233.5 50q126 0 229 -52.5t164 -148.5l117 664h119l-271 -1536h-121l21 119q-160 -160 -367 -160q-219 0 -345 135t-126 346zM221 444q0 -162 100 -266t269 -104q107 0 203.5 48.5t164.5 143.5l82 457q-48 110 -140.5 172.5
t-217.5 62.5q-199 0 -330 -147t-131 -367zM328 -504h-125l266 340h149z" />
    <glyph glyph-name="Gmacron" unicode="&#x1e20;" horiz-adv-x="1624" 
d="M717 1688l16 94h572l-19 -94h-569zM788 -41q-192 0 -342 88t-231.5 239.5t-81.5 338.5q0 168 61 323t167.5 271.5t262 186t334.5 69.5q197 0 344 -83.5t226 -222.5l-115 -73q-60 116 -182 186t-277 70q-146 0 -274.5 -58.5t-217.5 -156.5t-140.5 -230t-51.5 -276
q0 -149 64.5 -274t185.5 -200t273 -75q282 0 493 194l70 396h-432l20 114h563l-102 -571q-116 -117 -273 -186.5t-344 -69.5z" />
    <glyph glyph-name="gmacron" unicode="&#x1e21;" horiz-adv-x="1101" 
d="M369 1401l16 94h569l-16 -94h-569zM-57 -223q0 91 55.5 169t159.5 136q-60 45 -60 125q0 68 48 124t128 95q-108 94 -108 246q0 78 28.5 149.5t81 128.5t135 91t181.5 34q101 0 182 -43h397l-20 -106h-262q51 -79 51 -178q0 -105 -48.5 -196t-147 -150.5t-228.5 -59.5
q-98 0 -168 37q-63 -30 -98 -70.5t-35 -81.5q0 -69 84 -69h285q182 0 270 -77.5t88 -207.5q0 -166 -145.5 -275.5t-399.5 -109.5q-227 0 -340.5 77t-113.5 212zM819 743q0 98 -62 164t-167 66q-144 0 -224.5 -88t-80.5 -211q0 -97 61.5 -163.5t169.5 -66.5q141 0 222 89
t81 210zM68 -207q0 -201 331 -201q202 0 310 76.5t108 198.5q0 180 -239 180h-310q-95 -44 -147.5 -114.5t-52.5 -139.5z" />
    <glyph glyph-name="Hdotbelow" unicode="&#x1e24;" horiz-adv-x="1648" 
d="M139 0l254 1434h131l-114 -643h927l115 643h131l-254 -1434h-131l119 670h-928l-119 -670h-131zM659 -508q-39 0 -66.5 26t-27.5 64t28 65t66 27q39 0 67 -27t28 -65t-28 -64t-67 -26z" />
    <glyph glyph-name="hdotbelow" unicode="&#x1e25;" horiz-adv-x="1239" 
d="M104 0l271 1536h121l-113 -635q161 172 367 172q186 0 279 -115.5t56 -324.5l-110 -633h-121l111 629q29 157 -36.5 243t-203.5 86q-220 0 -369 -215l-131 -743h-121zM471 -508q-39 0 -66.5 26t-27.5 64t28 65t66 27t66 -27t28 -65t-27.5 -64t-66.5 -26z" />
    <glyph glyph-name="Hcedilla" unicode="&#x1e28;" horiz-adv-x="1648" 
d="M139 0l254 1434h131l-114 -643h927l115 643h131l-254 -1434h-131l119 670h-928l-119 -670h-131zM496 -504h-125l266 340h149z" />
    <glyph glyph-name="hcedilla" unicode="&#x1e29;" horiz-adv-x="1239" 
d="M104 0l271 1536h121l-113 -635q161 172 367 172q186 0 279 -115.5t56 -324.5l-110 -633h-121l111 629q29 157 -36.5 243t-203.5 86q-220 0 -369 -215l-131 -743h-121zM307 -504h-125l267 340h149z" />
    <glyph glyph-name="Hbrevebelow" unicode="&#x1e2a;" horiz-adv-x="1648" 
d="M139 0l254 1434h131l-114 -643h927l115 643h131l-254 -1434h-131l119 670h-928l-119 -670h-131zM672 -412q97 0 153 61t78 187h109q-24 -166 -114.5 -253t-229.5 -87t-217 90t-54 250h101q-15 -123 30 -185.5t144 -62.5z" />
    <glyph glyph-name="hbrevebelow" unicode="&#x1e2b;" horiz-adv-x="1239" 
d="M104 0l271 1536h121l-113 -635q161 172 367 172q186 0 279 -115.5t56 -324.5l-110 -633h-121l111 629q29 157 -36.5 243t-203.5 86q-220 0 -369 -215l-131 -743h-121zM483 -412q97 0 153.5 61t78.5 187h108q-24 -166 -114.5 -253t-229.5 -87t-216.5 90t-53.5 250h100
q-15 -123 30 -185.5t144 -62.5z" />
    <glyph glyph-name="Kdotbelow" unicode="&#x1e32;" horiz-adv-x="1400" 
d="M139 0l254 1434h131l-137 -775l918 775h176l-697 -588l469 -846h-155l-414 762l-328 -277l-86 -485h-131zM594 -508q-39 0 -66.5 26t-27.5 64t28 65t66 27t66 -27t28 -65t-27.5 -64t-66.5 -26z" />
    <glyph glyph-name="kdotbelow" unicode="&#x1e33;" horiz-adv-x="1069" 
d="M106 0l271 1536h119l-181 -1034l621 530h162l-498 -426l332 -606h-135l-287 526l-223 -192l-60 -334h-121zM442 -508q-39 0 -66.5 26t-27.5 64t28 65t66 27q39 0 67 -27t28 -65t-28 -64t-67 -26z" />
    <glyph glyph-name="Klinebelow" unicode="&#x1e34;" horiz-adv-x="1400" 
d="M139 0l254 1434h131l-137 -775l918 775h176l-697 -588l469 -846h-155l-414 762l-328 -277l-86 -485h-131zM303 -469l16 94h570l-17 -94h-569z" />
    <glyph glyph-name="klinebelow" unicode="&#x1e35;" horiz-adv-x="1069" 
d="M106 0l271 1536h119l-181 -1034l621 530h162l-498 -426l332 -606h-135l-287 526l-223 -192l-60 -334h-121zM152 -469l16 94h569l-16 -94h-569z" />
    <glyph glyph-name="Mdotbelow" unicode="&#x1e42;" horiz-adv-x="1753" 
d="M139 0l254 1434h166l334 -795l614 795h181l-254 -1434h-131l223 1260l-596 -768h-111l-325 768l-224 -1260h-131zM717 -508q-39 0 -66.5 26t-27.5 64t28 65t66 27t66 -27t28 -65t-27.5 -64t-66.5 -26z" />
    <glyph glyph-name="mdotbelow" unicode="&#x1e43;" horiz-adv-x="1906" 
d="M106 0l181 1032h121l-23 -129q156 170 344 170q121 0 203 -57.5t110 -163.5q183 221 398 221q174 0 263 -115.5t52 -320.5l-113 -637h-118l110 633q28 156 -33 240.5t-186 84.5q-204 0 -358 -231q-4 -60 -10 -90l-113 -637h-121l113 633q27 156 -34.5 240.5t-186.5 84.5
q-200 0 -349 -213l-131 -745h-119zM788 -508q-39 0 -66.5 26t-27.5 64t28 65t66 27q39 0 67 -27t28 -65t-28 -64t-67 -26z" />
    <glyph glyph-name="Ndotbelow" unicode="&#x1e46;" horiz-adv-x="1648" 
d="M139 0l254 1434h170l662 -1289l227 1289h131l-254 -1434h-170l-661 1286l-228 -1286h-131zM666 -508q-39 0 -67 26t-28 64t28 65t67 27q38 0 66 -27t28 -65t-27.5 -64t-66.5 -26z" />
    <glyph glyph-name="ndotbelow" unicode="&#x1e47;" horiz-adv-x="1239" 
d="M104 0l183 1032h119l-23 -133q160 174 367 174q186 0 279 -115.5t56 -324.5l-110 -633h-121l111 629q29 157 -36.5 243t-203.5 86q-219 0 -371 -217l-129 -741h-121zM477 -508q-39 0 -66.5 26t-27.5 64t28 65t66 27t66 -27t28 -65t-27.5 -64t-66.5 -26z" />
    <glyph glyph-name="Rdotbelow" unicode="&#x1e5a;" horiz-adv-x="1241" 
d="M139 0l254 1434h295q192 0 301 -92t109 -259q0 -146 -86.5 -253.5t-237.5 -147.5l348 -682h-149l-324 662q-24 -3 -49 -3h-213l-117 -659h-131zM682 1319h-178l-96 -545h192q167 0 262.5 83.5t95.5 221.5q0 120 -71.5 180t-204.5 60zM522 -508q-39 0 -66.5 26t-27.5 64
t28 65t66 27t66 -27t28 -65t-27.5 -64t-66.5 -26z" />
    <glyph glyph-name="rdotbelow" unicode="&#x1e5b;" horiz-adv-x="778" 
d="M104 0l183 1032h121l-27 -153q76 88 152.5 131t173.5 43q56 0 94 -13l-21 -116q-51 14 -90 14q-98 0 -177 -52t-159 -157l-129 -729h-121zM90 -508q-39 0 -66.5 26t-27.5 64t28 65t66 27t66 -27t28 -65t-27.5 -64t-66.5 -26z" />
    <glyph glyph-name="Sdotbelow" unicode="&#x1e62;" horiz-adv-x="1167" 
d="M449 1096q0 -65 29.5 -120t76.5 -95t103.5 -78t113 -79.5t103.5 -88.5t76.5 -114.5t29.5 -149.5q0 -176 -123.5 -294t-320.5 -118q-292 0 -445 240l105 77q133 -196 342 -196q139 0 223 81.5t84 200.5q0 66 -29.5 122t-76.5 96.5t-103.5 79.5t-113.5 80t-104 88
t-76.5 114t-29.5 148q0 159 121 272t299 113q274 0 393 -230l-106 -76q-88 187 -291 187q-119 0 -199.5 -76.5t-80.5 -183.5zM436 -508q-39 0 -66.5 26t-27.5 64t28 65t66 27t66 -27t28 -65t-27.5 -64t-66.5 -26z" />
    <glyph glyph-name="sdotbelow" unicode="&#x1e63;" horiz-adv-x="862" 
d="M301 784q0 -47 23 -85t60 -65.5t81.5 -52.5t89 -53.5t81.5 -61.5t60 -83.5t23 -112.5q0 -126 -96 -218.5t-244 -92.5q-114 0 -209.5 51t-151.5 146l95 67q101 -160 270 -160q96 0 155.5 58t59.5 147q0 47 -23 84.5t-59.5 64.5t-81 52t-89 53t-81 61.5t-59.5 83.5t-23 113
q0 122 95.5 207.5t236.5 85.5q105 0 187.5 -51.5t123.5 -134.5l-98 -64q-67 146 -215 146q-90 0 -150.5 -56t-60.5 -129zM285 -508q-39 0 -67 26t-28 64t28 65t67 27q38 0 66 -27t28 -65t-27.5 -64t-66.5 -26z" />
    <glyph glyph-name="Tdotbelow" unicode="&#x1e6c;" horiz-adv-x="1241" 
d="M215 1313l23 121h1089l-22 -121h-478l-233 -1313h-131l233 1313h-481zM451 -508q-39 0 -67 26t-28 64t28 65t67 27q38 0 66 -27t28 -65t-27.5 -64t-66.5 -26z" />
    <glyph glyph-name="tdotbelow" unicode="&#x1e6d;" horiz-adv-x="825" 
d="M219 344l103 580h-191l21 108h188l45 258h123l-45 -258h373l-19 -108h-375l-102 -586q-13 -60 -8 -103t17.5 -70.5t40 -43.5t58 -22.5t72.5 -6.5q69 0 156 27l-21 -111q-70 -28 -157 -28q-345 0 -279 364zM334 -508q-39 0 -66.5 26t-27.5 64t28 65t66 27t66 -27t28 -65
t-27.5 -64t-66.5 -26z" />
    <glyph glyph-name="Tlinebelow" unicode="&#x1e6e;" horiz-adv-x="1241" 
d="M215 1313l23 121h1089l-22 -121h-478l-233 -1313h-131l233 1313h-481zM160 -469l16 94h569l-16 -94h-569z" />
    <glyph glyph-name="tlinebelow" unicode="&#x1e6f;" horiz-adv-x="825" 
d="M219 344l103 580h-191l21 108h188l45 258h123l-45 -258h373l-19 -108h-375l-102 -586q-13 -60 -8 -103t17.5 -70.5t40 -43.5t58 -22.5t72.5 -6.5q69 0 156 27l-21 -111q-70 -28 -157 -28q-345 0 -279 364zM43 -469l16 94h570l-17 -94h-569z" />
    <glyph glyph-name="Wgrave" unicode="&#x1e80;" horiz-adv-x="2027" 
d="M1145 1556l-203 277h143l177 -277h-117zM236 1434h133l98 -1293l614 1293h181l159 -1293l555 1293h140l-619 -1434h-184l-162 1292l-621 -1292h-180z" />
    <glyph glyph-name="wgrave" unicode="&#x1e81;" horiz-adv-x="1550" 
d="M840 1196l-170 340h135l147 -340h-112zM170 1032h119l67 -909l422 909h168l101 -911l391 911h125l-441 -1032h-172l-104 915l-430 -915h-168z" />
    <glyph glyph-name="Wacute" unicode="&#x1e82;" horiz-adv-x="2027" 
d="M1266 1556h-129l274 277h156zM236 1434h133l98 -1293l614 1293h181l159 -1293l555 1293h140l-619 -1434h-184l-162 1292l-621 -1292h-180z" />
    <glyph glyph-name="wacute" unicode="&#x1e83;" horiz-adv-x="1550" 
d="M956 1196h-125l267 340h147zM170 1032h119l67 -909l422 909h168l101 -911l391 911h125l-441 -1032h-172l-104 915l-430 -915h-168z" />
    <glyph glyph-name="Wdieresis" unicode="&#x1e84;" horiz-adv-x="2027" 
d="M1049 1651q-36 0 -62 25t-26 61q0 35 26.5 60.5t61.5 25.5q37 0 62.5 -25.5t25.5 -60.5q0 -37 -25.5 -61.5t-62.5 -24.5zM1409 1651q-37 0 -62.5 24.5t-25.5 61.5q0 35 25.5 60.5t62.5 25.5t62.5 -25.5t25.5 -60.5q0 -37 -25.5 -61.5t-62.5 -24.5zM236 1434h133l98 -1293
l614 1293h181l159 -1293l555 1293h140l-619 -1434h-184l-162 1292l-621 -1292h-180z" />
    <glyph glyph-name="wdieresis" unicode="&#x1e85;" horiz-adv-x="1550" 
d="M762 1364q-37 0 -64.5 25.5t-27.5 60.5q0 38 27.5 64t64.5 26t63.5 -26t26.5 -64q0 -35 -26.5 -60.5t-63.5 -25.5zM1122 1364q-38 0 -65 25.5t-27 60.5q0 38 27 64t65 26q37 0 63.5 -26t26.5 -64q0 -35 -26.5 -60.5t-63.5 -25.5zM170 1032h119l67 -909l422 909h168
l101 -911l391 911h125l-441 -1032h-172l-104 915l-430 -915h-168z" />
    <glyph glyph-name="Zdotbelow" unicode="&#x1e92;" horiz-adv-x="1296" 
d="M12 0l21 121l1114 1192h-883l21 121h1050l-20 -121l-1114 -1192h923l-22 -121h-1090zM500 -508q-39 0 -66.5 26t-27.5 64t28 65t66 27t66 -27t28 -65t-27.5 -64t-66.5 -26z" />
    <glyph glyph-name="zdotbelow" unicode="&#x1e93;" horiz-adv-x="970" 
d="M0 0l18 109l775 815h-617l19 108h766l-19 -108l-776 -815h645l-18 -109h-793zM322 -508q-39 0 -67 26t-28 64t28 65t67 27q38 0 66 -27t28 -65t-27.5 -64t-66.5 -26z" />
    <glyph glyph-name="hlinebelow" unicode="&#x1e96;" horiz-adv-x="1239" 
d="M104 0l271 1536h121l-113 -635q161 172 367 172q186 0 279 -115.5t56 -324.5l-110 -633h-121l111 629q29 157 -36.5 243t-203.5 86q-220 0 -369 -215l-131 -743h-121zM180 -469l17 94h569l-16 -94h-570z" />
    <glyph glyph-name="tdieresis" unicode="&#x1e97;" horiz-adv-x="825" 
d="M330 1561q-37 0 -64.5 25.5t-27.5 60.5q0 38 27.5 64t64.5 26t63.5 -26t26.5 -64q0 -35 -26.5 -60.5t-63.5 -25.5zM690 1561q-38 0 -65 25.5t-27 60.5q0 38 27 64t65 26q37 0 63.5 -26t26.5 -64q0 -35 -26.5 -60.5t-63.5 -25.5zM219 344l103 580h-191l21 108h188l45 258
h123l-45 -258h373l-19 -108h-375l-102 -586q-13 -60 -8 -103t17.5 -70.5t40 -43.5t58 -22.5t72.5 -6.5q69 0 156 27l-21 -111q-70 -28 -157 -28q-345 0 -279 364z" />
    <glyph glyph-name="Germandbls" unicode="&#x1e9e;" horiz-adv-x="1531" 
d="M139 0l254 1434h1092l-21 -121l-497 -498q196 -15 312 -123t116 -280q0 -203 -132.5 -328t-338.5 -125q-139 0 -258 57t-195 172l102 80q67 -94 160.5 -141t188.5 -47q152 0 245 89t93 237q0 141 -100.5 218.5t-262.5 77.5h-119l21 115l497 496h-792l-234 -1313h-131z
" />
    <glyph glyph-name="Adotbelow" unicode="&#x1ea0;" horiz-adv-x="1456" 
d="M-23 0l824 1434h180l317 -1434h-133l-98 451h-688l-258 -451h-144zM444 567h598l-163 758zM573 -508q-39 0 -66.5 26t-27.5 64t28 65t66 27q39 0 67 -27t28 -65t-28 -64t-67 -26z" />
    <glyph glyph-name="adotbelow" unicode="&#x1ea1;" horiz-adv-x="1112" 
d="M391 -29q-140 0 -224.5 68t-84.5 188q0 128 93.5 209.5t273.5 110.5l387 65l14 82q23 128 -39 198.5t-188 70.5q-91 0 -175 -42.5t-151 -117.5l-90 76q79 89 187.5 141.5t232.5 52.5q189 0 281.5 -107t60.5 -288l-123 -678h-117l25 137q-150 -166 -363 -166zM209 238
q0 -72 54 -117t147 -45q215 0 366 198l43 242l-346 -59q-264 -44 -264 -219zM393 -508q-39 0 -66.5 26t-27.5 64t28 65t66 27t66 -27t28 -65t-27.5 -64t-66.5 -26z" />
    <glyph glyph-name="Ahoi" unicode="&#x1ea2;" horiz-adv-x="1456" 
d="M872 1505l-2 88q105 15 151 47t46 89q0 43 -29.5 69.5t-83.5 26.5q-75 0 -159 -66l-45 74q100 80 211 80q93 0 147.5 -48t54.5 -128q0 -195 -291 -232zM-23 0l824 1434h180l317 -1434h-133l-98 451h-688l-258 -451h-144zM444 567h598l-163 758z" />
    <glyph glyph-name="ahoi" unicode="&#x1ea3;" horiz-adv-x="1112" 
d="M633 1137l-4 86q109 17 154.5 49t45.5 90q0 43 -29.5 70.5t-84.5 27.5q-73 0 -158 -63l-47 71q103 82 213 82q92 0 146.5 -49t56.5 -129q0 -203 -293 -235zM391 -29q-140 0 -224.5 68t-84.5 188q0 128 93.5 209.5t273.5 110.5l387 65l14 82q23 128 -39 198.5t-188 70.5
q-91 0 -175 -42.5t-151 -117.5l-90 76q79 89 187.5 141.5t232.5 52.5q189 0 281.5 -107t60.5 -288l-123 -678h-117l25 137q-150 -166 -363 -166zM209 238q0 -72 54 -117t147 -45q215 0 366 198l43 242l-346 -59q-264 -44 -264 -219z" />
    <glyph glyph-name="Acircumflexacute" unicode="&#x1ea4;" horiz-adv-x="1456" 
d="M1286 1765h-123l281 277h151zM729 1556h-119l273 277h161l175 -277h-107l-154 211zM-23 0l824 1434h180l317 -1434h-133l-98 451h-688l-258 -451h-144zM444 567h598l-163 758z" />
    <glyph glyph-name="acircumflexacute" unicode="&#x1ea5;" horiz-adv-x="1112" 
d="M1044 1364h-122l280 276h152zM487 1155h-118l272 277h162l174 -277h-107l-153 211zM391 -29q-140 0 -224.5 68t-84.5 188q0 128 93.5 209.5t273.5 110.5l387 65l14 82q23 128 -39 198.5t-188 70.5q-91 0 -175 -42.5t-151 -117.5l-90 76q79 89 187.5 141.5t232.5 52.5
q189 0 281.5 -107t60.5 -288l-123 -678h-117l25 137q-150 -166 -363 -166zM209 238q0 -72 54 -117t147 -45q215 0 366 198l43 242l-346 -59q-264 -44 -264 -219z" />
    <glyph glyph-name="Acircumflexgrave" unicode="&#x1ea6;" horiz-adv-x="1456" 
d="M1245 1765l-211 277h144l182 -277h-115zM729 1556h-119l273 277h161l175 -277h-107l-154 211zM-23 0l824 1434h180l317 -1434h-133l-98 451h-688l-258 -451h-144zM444 567h598l-163 758z" />
    <glyph glyph-name="acircumflexgrave" unicode="&#x1ea7;" horiz-adv-x="1112" 
d="M1004 1364l-211 276h143l182 -276h-114zM487 1155h-118l272 277h162l174 -277h-107l-153 211zM391 -29q-140 0 -224.5 68t-84.5 188q0 128 93.5 209.5t273.5 110.5l387 65l14 82q23 128 -39 198.5t-188 70.5q-91 0 -175 -42.5t-151 -117.5l-90 76q79 89 187.5 141.5
t232.5 52.5q189 0 281.5 -107t60.5 -288l-123 -678h-117l25 137q-150 -166 -363 -166zM209 238q0 -72 54 -117t147 -45q215 0 366 198l43 242l-346 -59q-264 -44 -264 -219z" />
    <glyph glyph-name="Acircumflexhoi" unicode="&#x1ea8;" horiz-adv-x="1456" 
d="M1214 1733l-12 79q82 12 116 38t34 69q0 30 -21.5 50t-58.5 20q-58 0 -115 -47l-45 61q67 70 162 70q75 0 122.5 -41t47.5 -107q0 -162 -230 -192zM729 1556h-119l273 277h161l175 -277h-107l-154 211zM-23 0l824 1434h180l317 -1434h-133l-98 451h-688l-258 -451h-144z
M444 567h598l-163 758z" />
    <glyph glyph-name="acircumflexhoi" unicode="&#x1ea9;" horiz-adv-x="1112" 
d="M973 1331l-12 80q82 12 115.5 38t33.5 69q0 30 -21.5 49.5t-58.5 19.5q-58 0 -115 -47l-45 62q66 69 162 69q75 0 122.5 -40.5t47.5 -106.5q0 -163 -229 -193zM487 1155h-118l272 277h162l174 -277h-107l-153 211zM391 -29q-140 0 -224.5 68t-84.5 188q0 128 93.5 209.5
t273.5 110.5l387 65l14 82q23 128 -39 198.5t-188 70.5q-91 0 -175 -42.5t-151 -117.5l-90 76q79 89 187.5 141.5t232.5 52.5q189 0 281.5 -107t60.5 -288l-123 -678h-117l25 137q-150 -166 -363 -166zM209 238q0 -72 54 -117t147 -45q215 0 366 198l43 242l-346 -59
q-264 -44 -264 -219z" />
    <glyph glyph-name="Acircumflextilde" unicode="&#x1eaa;" horiz-adv-x="1456" 
d="M668 1911l16 90q12 79 57.5 126.5t114.5 47.5q47 0 82.5 -20t57.5 -48.5t40.5 -57.5t40.5 -49t49 -20q67 0 80 88l17 86h96l-14 -90q-12 -78 -59 -126t-116 -48q-47 0 -83.5 20t-59 48.5t-41.5 57.5t-41 49t-47 20q-62 0 -78 -88l-16 -86h-96zM729 1556h-119l273 277h161
l175 -277h-107l-154 211zM-23 0l824 1434h180l317 -1434h-133l-98 451h-688l-258 -451h-144zM444 567h598l-163 758z" />
    <glyph glyph-name="acircumflextilde" unicode="&#x1eab;" horiz-adv-x="1112" 
d="M428 1509l16 90q12 79 57.5 127t114.5 48q47 0 83 -20t57.5 -49t40.5 -57.5t41 -48.5t49 -20q67 0 80 88l16 86h96l-14 -90q-12 -78 -58.5 -126t-115.5 -48q-47 0 -83.5 20t-59.5 48.5t-42 57t-41 48.5t-47 20q-61 0 -77 -88l-17 -86h-96zM487 1155h-118l272 277h162
l174 -277h-107l-153 211zM391 -29q-140 0 -224.5 68t-84.5 188q0 128 93.5 209.5t273.5 110.5l387 65l14 82q23 128 -39 198.5t-188 70.5q-91 0 -175 -42.5t-151 -117.5l-90 76q79 89 187.5 141.5t232.5 52.5q189 0 281.5 -107t60.5 -288l-123 -678h-117l25 137
q-150 -166 -363 -166zM209 238q0 -72 54 -117t147 -45q215 0 366 198l43 242l-346 -59q-264 -44 -264 -219z" />
    <glyph glyph-name="Acircumflexdotbelow" unicode="&#x1eac;" horiz-adv-x="1456" 
d="M729 1556h-119l273 277h161l175 -277h-107l-154 211zM-23 0l824 1434h180l317 -1434h-133l-98 451h-688l-258 -451h-144zM444 567h598l-163 758zM573 -508q-39 0 -66.5 26t-27.5 64t28 65t66 27q39 0 67 -27t28 -65t-28 -64t-67 -26z" />
    <glyph glyph-name="acircumflexdotbelow" unicode="&#x1ead;" horiz-adv-x="1112" 
d="M500 1196h-121l270 340h172l150 -340h-105l-135 279zM391 -29q-140 0 -224.5 68t-84.5 188q0 128 93.5 209.5t273.5 110.5l387 65l14 82q23 128 -39 198.5t-188 70.5q-91 0 -175 -42.5t-151 -117.5l-90 76q79 89 187.5 141.5t232.5 52.5q189 0 281.5 -107t60.5 -288
l-123 -678h-117l25 137q-150 -166 -363 -166zM209 238q0 -72 54 -117t147 -45q215 0 366 198l43 242l-346 -59q-264 -44 -264 -219zM393 -508q-39 0 -66.5 26t-27.5 64t28 65t66 27t66 -27t28 -65t-27.5 -64t-66.5 -26z" />
    <glyph glyph-name="Abreveacute" unicode="&#x1eae;" horiz-adv-x="1456" 
d="M1038 1894h-129l275 277h155zM936 1628q181 0 227 205h111q-26 -144 -118 -220.5t-222 -76.5q-141 0 -221 78t-58 219h99q-12 -100 37 -152.5t145 -52.5zM-23 0l824 1434h180l317 -1434h-133l-98 451h-688l-258 -451h-144zM444 567h598l-163 758z" />
    <glyph glyph-name="abreveacute" unicode="&#x1eaf;" horiz-adv-x="1112" 
d="M799 1493h-129l274 276h156zM694 1227q89 0 147 51.5t81 153.5h110q-26 -144 -118 -220.5t-222 -76.5q-141 0 -220.5 78t-57.5 219h98q-12 -100 37 -152.5t145 -52.5zM391 -29q-140 0 -224.5 68t-84.5 188q0 128 93.5 209.5t273.5 110.5l387 65l14 82q23 128 -39 198.5
t-188 70.5q-91 0 -175 -42.5t-151 -117.5l-90 76q79 89 187.5 141.5t232.5 52.5q189 0 281.5 -107t60.5 -288l-123 -678h-117l25 137q-150 -166 -363 -166zM209 238q0 -72 54 -117t147 -45q215 0 366 198l43 242l-346 -59q-264 -44 -264 -219z" />
    <glyph glyph-name="Abrevegrave" unicode="&#x1eb0;" horiz-adv-x="1456" 
d="M918 1894l-203 277h143l176 -277h-116zM936 1628q181 0 227 205h111q-26 -144 -118 -220.5t-222 -76.5q-141 0 -221 78t-58 219h99q-12 -100 37 -152.5t145 -52.5zM-23 0l824 1434h180l317 -1434h-133l-98 451h-688l-258 -451h-144zM444 567h598l-163 758z" />
    <glyph glyph-name="abrevegrave" unicode="&#x1eb1;" horiz-adv-x="1112" 
d="M678 1493l-203 276h143l177 -276h-117zM694 1227q89 0 147 51.5t81 153.5h110q-26 -144 -118 -220.5t-222 -76.5q-141 0 -220.5 78t-57.5 219h98q-12 -100 37 -152.5t145 -52.5zM391 -29q-140 0 -224.5 68t-84.5 188q0 128 93.5 209.5t273.5 110.5l387 65l14 82
q23 128 -39 198.5t-188 70.5q-91 0 -175 -42.5t-151 -117.5l-90 76q79 89 187.5 141.5t232.5 52.5q189 0 281.5 -107t60.5 -288l-123 -678h-117l25 137q-150 -166 -363 -166zM209 238q0 -72 54 -117t147 -45q215 0 366 198l43 242l-346 -59q-264 -44 -264 -219z" />
    <glyph glyph-name="Abrevehoi" unicode="&#x1eb2;" horiz-adv-x="1456" 
d="M932 1843l-2 88q105 15 150.5 46.5t45.5 88.5q0 43 -29 70t-83 27q-76 0 -160 -66l-45 74q100 80 211 80q93 0 148 -48t55 -128q0 -195 -291 -232zM936 1628q181 0 227 205h111q-26 -144 -118 -220.5t-222 -76.5q-141 0 -221 78t-58 219h99q-12 -100 37 -152.5t145 -52.5
zM-23 0l824 1434h180l317 -1434h-133l-98 451h-688l-258 -451h-144zM444 567h598l-163 758z" />
    <glyph glyph-name="abrevehoi" unicode="&#x1eb3;" horiz-adv-x="1112" 
d="M692 1442l-2 88q106 15 151.5 46.5t45.5 88.5q0 43 -29.5 69.5t-83.5 26.5q-77 0 -160 -65l-45 73q100 80 211 80q93 0 148 -48t55 -128q0 -194 -291 -231zM694 1227q89 0 147 51.5t81 153.5h110q-26 -144 -118 -220.5t-222 -76.5q-141 0 -220.5 78t-57.5 219h98
q-12 -100 37 -152.5t145 -52.5zM391 -29q-140 0 -224.5 68t-84.5 188q0 128 93.5 209.5t273.5 110.5l387 65l14 82q23 128 -39 198.5t-188 70.5q-91 0 -175 -42.5t-151 -117.5l-90 76q79 89 187.5 141.5t232.5 52.5q189 0 281.5 -107t60.5 -288l-123 -678h-117l25 137
q-150 -166 -363 -166zM209 238q0 -72 54 -117t147 -45q215 0 366 198l43 242l-346 -59q-264 -44 -264 -219z" />
    <glyph glyph-name="Abrevetilde" unicode="&#x1eb4;" horiz-adv-x="1456" 
d="M668 1911l16 90q12 79 57.5 126.5t114.5 47.5q47 0 82.5 -20t57.5 -48.5t40.5 -57.5t40.5 -49t49 -20q67 0 80 88l17 86h96l-14 -90q-12 -78 -59 -126t-116 -48q-47 0 -83.5 20t-59 48.5t-41.5 57.5t-41 49t-47 20q-62 0 -78 -88l-16 -86h-96zM936 1628q181 0 227 205
h111q-26 -144 -118 -220.5t-222 -76.5q-141 0 -221 78t-58 219h99q-12 -100 37 -152.5t145 -52.5zM-23 0l824 1434h180l317 -1434h-133l-98 451h-688l-258 -451h-144zM444 567h598l-163 758z" />
    <glyph glyph-name="abrevetilde" unicode="&#x1eb5;" horiz-adv-x="1112" 
d="M428 1509l16 90q12 79 57.5 127t114.5 48q47 0 83 -20t57.5 -49t40.5 -57.5t41 -48.5t49 -20q67 0 80 88l16 86h96l-14 -90q-12 -78 -58.5 -126t-115.5 -48q-47 0 -83.5 20t-59.5 48.5t-42 57t-41 48.5t-47 20q-61 0 -77 -88l-17 -86h-96zM694 1227q89 0 147 51.5
t81 153.5h110q-26 -144 -118 -220.5t-222 -76.5q-141 0 -220.5 78t-57.5 219h98q-12 -100 37 -152.5t145 -52.5zM391 -29q-140 0 -224.5 68t-84.5 188q0 128 93.5 209.5t273.5 110.5l387 65l14 82q23 128 -39 198.5t-188 70.5q-91 0 -175 -42.5t-151 -117.5l-90 76
q79 89 187.5 141.5t232.5 52.5q189 0 281.5 -107t60.5 -288l-123 -678h-117l25 137q-150 -166 -363 -166zM209 238q0 -72 54 -117t147 -45q215 0 366 198l43 242l-346 -59q-264 -44 -264 -219z" />
    <glyph glyph-name="Abrevedotbelow" unicode="&#x1eb6;" horiz-adv-x="1456" 
d="M936 1628q181 0 227 205h111q-26 -144 -118 -220.5t-222 -76.5q-141 0 -221 78t-58 219h99q-12 -100 37 -152.5t145 -52.5zM-23 0l824 1434h180l317 -1434h-133l-98 451h-688l-258 -451h-144zM444 567h598l-163 758zM573 -508q-39 0 -66.5 26t-27.5 64t28 65t66 27
q39 0 67 -27t28 -65t-28 -64t-67 -26z" />
    <glyph glyph-name="abrevedotbelow" unicode="&#x1eb7;" horiz-adv-x="1112" 
d="M709 1288q97 0 153 61t78 187h109q-24 -166 -114.5 -253t-229.5 -87q-140 0 -217.5 90t-53.5 250h98q-13 -123 32.5 -185.5t144.5 -62.5zM391 -29q-140 0 -224.5 68t-84.5 188q0 128 93.5 209.5t273.5 110.5l387 65l14 82q23 128 -39 198.5t-188 70.5q-91 0 -175 -42.5
t-151 -117.5l-90 76q79 89 187.5 141.5t232.5 52.5q189 0 281.5 -107t60.5 -288l-123 -678h-117l25 137q-150 -166 -363 -166zM209 238q0 -72 54 -117t147 -45q215 0 366 198l43 242l-346 -59q-264 -44 -264 -219zM393 -508q-39 0 -66.5 26t-27.5 64t28 65t66 27t66 -27
t28 -65t-27.5 -64t-66.5 -26z" />
    <glyph glyph-name="Edotbelow" unicode="&#x1eb8;" horiz-adv-x="1093" 
d="M139 0l254 1434h709l-21 -115h-577l-94 -533h499l-20 -112h-500l-98 -559h579l-20 -115h-711zM446 -508q-39 0 -66.5 26t-27.5 64t28 65t66 27q39 0 67 -27t28 -65t-28 -64t-67 -26z" />
    <glyph glyph-name="edotbelow" unicode="&#x1eb9;" horiz-adv-x="1155" 
d="M573 -41q-153 0 -263.5 67t-164 177t-53.5 248q0 125 39 237.5t110 198t180 136t241 50.5q182 0 298.5 -107.5t116.5 -267.5q0 -78 -22 -151h-830q-6 -49 -6 -98q0 -168 94.5 -273.5t264.5 -105.5q117 0 215.5 46.5t160.5 129.5l84 -78q-79 -99 -199.5 -154t-265.5 -55z
M659 969q-156 0 -262 -89.5t-151 -236.5h706q13 84 -17.5 158t-103 121t-172.5 47zM485 -508q-39 0 -66.5 26t-27.5 64t28 65t66 27q39 0 67 -27t28 -65t-28 -64t-67 -26z" />
    <glyph glyph-name="Ehoi" unicode="&#x1eba;" horiz-adv-x="1093" 
d="M696 1505l-2 88q105 15 151 47t46 89q0 43 -29.5 69.5t-83.5 26.5q-76 0 -160 -66l-45 74q100 80 211 80q93 0 148 -48t55 -128q0 -195 -291 -232zM139 0l254 1434h709l-21 -115h-577l-94 -533h499l-20 -112h-500l-98 -559h579l-20 -115h-711z" />
    <glyph glyph-name="ehoi" unicode="&#x1ebb;" horiz-adv-x="1155" 
d="M662 1137l-5 86q109 17 155 49t46 90q0 43 -30 70.5t-85 27.5q-72 0 -157 -63l-47 71q103 82 213 82q91 0 145.5 -49t56.5 -129q0 -203 -292 -235zM573 -41q-153 0 -263.5 67t-164 177t-53.5 248q0 125 39 237.5t110 198t180 136t241 50.5q182 0 298.5 -107.5
t116.5 -267.5q0 -78 -22 -151h-830q-6 -49 -6 -98q0 -168 94.5 -273.5t264.5 -105.5q117 0 215.5 46.5t160.5 129.5l84 -78q-79 -99 -199.5 -154t-265.5 -55zM659 969q-156 0 -262 -89.5t-151 -236.5h706q13 84 -17.5 158t-103 121t-172.5 47z" />
    <glyph glyph-name="Etilde" unicode="&#x1ebc;" horiz-adv-x="1093" 
d="M432 1573l17 90q12 79 57.5 126.5t114.5 47.5q47 0 82.5 -20t57.5 -48.5t40.5 -57.5t40.5 -49t49 -20q67 0 80 89l16 86h96l-14 -91q-12 -78 -58.5 -126t-115.5 -48q-47 0 -83.5 20t-59 49t-41.5 57.5t-41 48.5t-47 20q-62 0 -78 -88l-17 -86h-96zM139 0l254 1434h709
l-21 -115h-577l-94 -533h499l-20 -112h-500l-98 -559h579l-20 -115h-711z" />
    <glyph glyph-name="etilde" unicode="&#x1ebd;" horiz-adv-x="1155" 
d="M465 1229h-94l14 94q12 87 63.5 141t129.5 54q47 0 86.5 -21.5t66 -52t50 -61.5t51 -52.5t57.5 -21.5q85 0 102 96l15 98h94l-15 -94q-14 -88 -64.5 -141.5t-127.5 -53.5q-48 0 -87.5 21.5t-66 52t-50 61.5t-51.5 52.5t-58 21.5q-39 0 -66 -26.5t-33 -69.5zM573 -41
q-153 0 -263.5 67t-164 177t-53.5 248q0 125 39 237.5t110 198t180 136t241 50.5q182 0 298.5 -107.5t116.5 -267.5q0 -78 -22 -151h-830q-6 -49 -6 -98q0 -168 94.5 -273.5t264.5 -105.5q117 0 215.5 46.5t160.5 129.5l84 -78q-79 -99 -199.5 -154t-265.5 -55zM659 969
q-156 0 -262 -89.5t-151 -236.5h706q13 84 -17.5 158t-103 121t-172.5 47z" />
    <glyph glyph-name="Ecircumflexacute" unicode="&#x1ebe;" horiz-adv-x="1093" 
d="M1108 1765h-123l281 277h151zM551 1556h-119l273 277h161l174 -277h-106l-154 211zM139 0l254 1434h709l-21 -115h-577l-94 -533h499l-20 -112h-500l-98 -559h579l-20 -115h-711z" />
    <glyph glyph-name="ecircumflexacute" unicode="&#x1ebf;" horiz-adv-x="1155" 
d="M1073 1364h-123l281 276h151zM516 1155h-119l273 277h161l175 -277h-107l-154 211zM573 -41q-153 0 -263.5 67t-164 177t-53.5 248q0 125 39 237.5t110 198t180 136t241 50.5q182 0 298.5 -107.5t116.5 -267.5q0 -78 -22 -151h-830q-6 -49 -6 -98q0 -168 94.5 -273.5
t264.5 -105.5q117 0 215.5 46.5t160.5 129.5l84 -78q-79 -99 -199.5 -154t-265.5 -55zM659 969q-156 0 -262 -89.5t-151 -236.5h706q13 84 -17.5 158t-103 121t-172.5 47z" />
    <glyph glyph-name="Ecircumflexgrave" unicode="&#x1ec0;" horiz-adv-x="1093" 
d="M1067 1765l-211 277h143l183 -277h-115zM551 1556h-119l273 277h161l174 -277h-106l-154 211zM139 0l254 1434h709l-21 -115h-577l-94 -533h499l-20 -112h-500l-98 -559h579l-20 -115h-711z" />
    <glyph glyph-name="ecircumflexgrave" unicode="&#x1ec1;" horiz-adv-x="1155" 
d="M1032 1364l-211 276h144l182 -276h-115zM516 1155h-119l273 277h161l175 -277h-107l-154 211zM573 -41q-153 0 -263.5 67t-164 177t-53.5 248q0 125 39 237.5t110 198t180 136t241 50.5q182 0 298.5 -107.5t116.5 -267.5q0 -78 -22 -151h-830q-6 -49 -6 -98
q0 -168 94.5 -273.5t264.5 -105.5q117 0 215.5 46.5t160.5 129.5l84 -78q-79 -99 -199.5 -154t-265.5 -55zM659 969q-156 0 -262 -89.5t-151 -236.5h706q13 84 -17.5 158t-103 121t-172.5 47z" />
    <glyph glyph-name="Ecircumflexhoi" unicode="&#x1ec2;" horiz-adv-x="1093" 
d="M1036 1733l-12 79q82 12 116 38t34 69q0 30 -21.5 50t-58.5 20q-58 0 -115 -47l-45 61q67 70 162 70q75 0 122.5 -41t47.5 -107q0 -162 -230 -192zM551 1556h-119l273 277h161l174 -277h-106l-154 211zM139 0l254 1434h709l-21 -115h-577l-94 -533h499l-20 -112h-500
l-98 -559h579l-20 -115h-711z" />
    <glyph glyph-name="ecircumflexhoi" unicode="&#x1ec3;" horiz-adv-x="1155" 
d="M1001 1331l-12 80q82 12 116 38t34 69q0 30 -21.5 49.5t-58.5 19.5q-58 0 -115 -47l-45 62q66 69 162 69q75 0 122.5 -40.5t47.5 -106.5q0 -163 -230 -193zM516 1155h-119l273 277h161l175 -277h-107l-154 211zM573 -41q-153 0 -263.5 67t-164 177t-53.5 248
q0 125 39 237.5t110 198t180 136t241 50.5q182 0 298.5 -107.5t116.5 -267.5q0 -78 -22 -151h-830q-6 -49 -6 -98q0 -168 94.5 -273.5t264.5 -105.5q117 0 215.5 46.5t160.5 129.5l84 -78q-79 -99 -199.5 -154t-265.5 -55zM659 969q-156 0 -262 -89.5t-151 -236.5h706
q13 84 -17.5 158t-103 121t-172.5 47z" />
    <glyph glyph-name="Ecircumflextilde" unicode="&#x1ec4;" horiz-adv-x="1093" 
d="M492 1911l16 90q12 79 57.5 126.5t114.5 47.5q47 0 82.5 -20t57.5 -48.5t40.5 -57.5t40.5 -49t49 -20q67 0 80 88l17 86h96l-15 -90q-12 -78 -58.5 -126t-115.5 -48q-47 0 -83.5 20t-59 48.5t-41.5 57.5t-41 49t-47 20q-62 0 -78 -88l-16 -86h-96zM551 1556h-119l273 277
h161l174 -277h-106l-154 211zM139 0l254 1434h709l-21 -115h-577l-94 -533h499l-20 -112h-500l-98 -559h579l-20 -115h-711z" />
    <glyph glyph-name="ecircumflextilde" unicode="&#x1ec5;" horiz-adv-x="1155" 
d="M457 1509l16 90q12 79 57.5 127t114.5 48q47 0 82.5 -20t57.5 -49t40.5 -57.5t40.5 -48.5t49 -20q67 0 80 88l17 86h96l-14 -90q-12 -78 -58.5 -126t-115.5 -48q-47 0 -83.5 20t-59.5 48.5t-42 57t-41 48.5t-47 20q-62 0 -78 -88l-16 -86h-96zM516 1155h-119l273 277h161
l175 -277h-107l-154 211zM573 -41q-153 0 -263.5 67t-164 177t-53.5 248q0 125 39 237.5t110 198t180 136t241 50.5q182 0 298.5 -107.5t116.5 -267.5q0 -78 -22 -151h-830q-6 -49 -6 -98q0 -168 94.5 -273.5t264.5 -105.5q117 0 215.5 46.5t160.5 129.5l84 -78
q-79 -99 -199.5 -154t-265.5 -55zM659 969q-156 0 -262 -89.5t-151 -236.5h706q13 84 -17.5 158t-103 121t-172.5 47z" />
    <glyph glyph-name="Ecircumflexdotbelow" unicode="&#x1ec6;" horiz-adv-x="1093" 
d="M551 1556h-119l273 277h161l174 -277h-106l-154 211zM139 0l254 1434h709l-21 -115h-577l-94 -533h499l-20 -112h-500l-98 -559h579l-20 -115h-711zM446 -508q-39 0 -66.5 26t-27.5 64t28 65t66 27q39 0 67 -27t28 -65t-28 -64t-67 -26z" />
    <glyph glyph-name="ecircumflexdotbelow" unicode="&#x1ec7;" horiz-adv-x="1155" 
d="M528 1196h-120l270 340h172l149 -340h-104l-135 279zM573 -41q-153 0 -263.5 67t-164 177t-53.5 248q0 125 39 237.5t110 198t180 136t241 50.5q182 0 298.5 -107.5t116.5 -267.5q0 -78 -22 -151h-830q-6 -49 -6 -98q0 -168 94.5 -273.5t264.5 -105.5q117 0 215.5 46.5
t160.5 129.5l84 -78q-79 -99 -199.5 -154t-265.5 -55zM659 969q-156 0 -262 -89.5t-151 -236.5h706q13 84 -17.5 158t-103 121t-172.5 47zM485 -508q-39 0 -66.5 26t-27.5 64t28 65t66 27q39 0 67 -27t28 -65t-28 -64t-67 -26z" />
    <glyph glyph-name="Ihoi" unicode="&#x1ec8;" horiz-adv-x="589" 
d="M440 1505l-2 88q105 15 151 47t46 89q0 43 -29.5 69.5t-83.5 26.5q-76 0 -160 -66l-45 74q100 80 211 80q93 0 148 -48t55 -128q0 -195 -291 -232zM139 0l254 1434h131l-254 -1434h-131z" />
    <glyph glyph-name="ihoi" unicode="&#x1ec9;" horiz-adv-x="512" 
d="M332 1137l-4 86q109 17 154.5 49t45.5 90q0 43 -29.5 70.5t-84.5 27.5q-73 0 -158 -63l-47 71q103 82 213 82q92 0 146.5 -49t56.5 -129q0 -203 -293 -235zM104 0l183 1032h121l-183 -1032h-121z" />
    <glyph glyph-name="Idotbelow" unicode="&#x1eca;" horiz-adv-x="589" 
d="M139 0l254 1434h131l-254 -1434h-131zM131 -508q-39 0 -66.5 26t-27.5 64t28 65t66 27t66 -27t28 -65t-27.5 -64t-66.5 -26z" />
    <glyph glyph-name="idotbelow" unicode="&#x1ecb;" horiz-adv-x="512" 
d="M420 1358q-39 0 -65.5 26.5t-26.5 65.5q0 37 27 63.5t65 26.5t65 -26.5t27 -63.5q0 -39 -26.5 -65.5t-65.5 -26.5zM106 0l181 1032h121l-183 -1032h-119zM92 -508q-39 0 -66.5 26t-27.5 64t28 65t66 27t66 -27t28 -65t-27.5 -64t-66.5 -26z" />
    <glyph glyph-name="Odotbelow" unicode="&#x1ecc;" horiz-adv-x="1671" 
d="M950 1475q145 0 268.5 -51.5t209 -140.5t134 -212t48.5 -262q0 -168 -60 -323t-165 -271.5t-259 -186t-331 -69.5q-145 0 -268.5 51.5t-209 140.5t-134 212t-48.5 262q0 168 60 323t165 271.5t259 186t331 69.5zM797 82q192 0 348.5 99.5t242 264t85.5 357.5
q0 112 -38 212t-106 174.5t-167.5 118.5t-215.5 44q-191 0 -347 -99.5t-241.5 -264t-85.5 -357.5q0 -112 38 -212t105 -174.5t166.5 -118.5t215.5 -44zM672 -508q-39 0 -66.5 26t-27.5 64t28 65t66 27t66 -27t28 -65t-27.5 -64t-66.5 -26z" />
    <glyph glyph-name="odotbelow" unicode="&#x1ecd;" horiz-adv-x="1277" 
d="M702 1073q149 0 261 -66.5t168.5 -177t56.5 -247.5q0 -122 -45 -235.5t-123.5 -199t-193.5 -137t-246 -51.5q-150 0 -262.5 66.5t-169 177.5t-56.5 248q0 164 76 306t217 229t317 87zM582 74q103 0 193 42t152 112t98 162.5t36 193.5q0 159 -100.5 266.5t-262.5 107.5
q-103 0 -193 -41.5t-151.5 -111.5t-97 -162.5t-35.5 -193.5q0 -159 99.5 -267t261.5 -108zM475 -508q-39 0 -66.5 26t-27.5 64t28 65t66 27t66 -27t28 -65t-27.5 -64t-66.5 -26z" />
    <glyph glyph-name="Ohoi" unicode="&#x1ece;" horiz-adv-x="1671" 
d="M965 1505l-2 88q105 15 150.5 47t45.5 89q0 43 -29 69.5t-83 26.5q-76 0 -160 -66l-45 74q100 80 211 80q93 0 147.5 -48t54.5 -128q0 -195 -290 -232zM950 1475q145 0 268.5 -51.5t209 -140.5t134 -212t48.5 -262q0 -168 -60 -323t-165 -271.5t-259 -186t-331 -69.5
q-145 0 -268.5 51.5t-209 140.5t-134 212t-48.5 262q0 168 60 323t165 271.5t259 186t331 69.5zM797 82q192 0 348.5 99.5t242 264t85.5 357.5q0 112 -38 212t-106 174.5t-167.5 118.5t-215.5 44q-191 0 -347 -99.5t-241.5 -264t-85.5 -357.5q0 -112 38 -212t105 -174.5
t166.5 -118.5t215.5 -44z" />
    <glyph glyph-name="ohoi" unicode="&#x1ecf;" horiz-adv-x="1277" 
d="M715 1137l-4 86q109 17 154.5 49t45.5 90q0 43 -29.5 70.5t-84.5 27.5q-73 0 -158 -63l-47 71q103 82 213 82q92 0 146.5 -49t56.5 -129q0 -203 -293 -235zM702 1073q149 0 261 -66.5t168.5 -177t56.5 -247.5q0 -122 -45 -235.5t-123.5 -199t-193.5 -137t-246 -51.5
q-150 0 -262.5 66.5t-169 177.5t-56.5 248q0 164 76 306t217 229t317 87zM582 74q103 0 193 42t152 112t98 162.5t36 193.5q0 159 -100.5 266.5t-262.5 107.5q-103 0 -193 -41.5t-151.5 -111.5t-97 -162.5t-35.5 -193.5q0 -159 99.5 -267t261.5 -108z" />
    <glyph glyph-name="Ocircumflexacute" unicode="&#x1ed0;" horiz-adv-x="1671" 
d="M1378 1765h-123l281 277h152zM819 1556h-119l273 277h162l174 -277h-107l-153 211zM950 1475q145 0 268.5 -51.5t209 -140.5t134 -212t48.5 -262q0 -168 -60 -323t-165 -271.5t-259 -186t-331 -69.5q-145 0 -268.5 51.5t-209 140.5t-134 212t-48.5 262q0 168 60 323
t165 271.5t259 186t331 69.5zM797 82q192 0 348.5 99.5t242 264t85.5 357.5q0 112 -38 212t-106 174.5t-167.5 118.5t-215.5 44q-191 0 -347 -99.5t-241.5 -264t-85.5 -357.5q0 -112 38 -212t105 -174.5t166.5 -118.5t215.5 -44z" />
    <glyph glyph-name="ocircumflexacute" unicode="&#x1ed1;" horiz-adv-x="1277" 
d="M1126 1364h-122l280 276h152zM569 1155h-118l272 277h162l174 -277h-107l-153 211zM702 1073q149 0 261 -66.5t168.5 -177t56.5 -247.5q0 -122 -45 -235.5t-123.5 -199t-193.5 -137t-246 -51.5q-150 0 -262.5 66.5t-169 177.5t-56.5 248q0 164 76 306t217 229t317 87z
M582 74q103 0 193 42t152 112t98 162.5t36 193.5q0 159 -100.5 266.5t-262.5 107.5q-103 0 -193 -41.5t-151.5 -111.5t-97 -162.5t-35.5 -193.5q0 -159 99.5 -267t261.5 -108z" />
    <glyph glyph-name="Ocircumflexgrave" unicode="&#x1ed2;" horiz-adv-x="1671" 
d="M1337 1765l-211 277h144l182 -277h-115zM819 1556h-119l273 277h162l174 -277h-107l-153 211zM950 1475q145 0 268.5 -51.5t209 -140.5t134 -212t48.5 -262q0 -168 -60 -323t-165 -271.5t-259 -186t-331 -69.5q-145 0 -268.5 51.5t-209 140.5t-134 212t-48.5 262
q0 168 60 323t165 271.5t259 186t331 69.5zM797 82q192 0 348.5 99.5t242 264t85.5 357.5q0 112 -38 212t-106 174.5t-167.5 118.5t-215.5 44q-191 0 -347 -99.5t-241.5 -264t-85.5 -357.5q0 -112 38 -212t105 -174.5t166.5 -118.5t215.5 -44z" />
    <glyph glyph-name="ocircumflexgrave" unicode="&#x1ed3;" horiz-adv-x="1277" 
d="M1085 1364l-211 276h144l182 -276h-115zM569 1155h-118l272 277h162l174 -277h-107l-153 211zM702 1073q149 0 261 -66.5t168.5 -177t56.5 -247.5q0 -122 -45 -235.5t-123.5 -199t-193.5 -137t-246 -51.5q-150 0 -262.5 66.5t-169 177.5t-56.5 248q0 164 76 306t217 229
t317 87zM582 74q103 0 193 42t152 112t98 162.5t36 193.5q0 159 -100.5 266.5t-262.5 107.5q-103 0 -193 -41.5t-151.5 -111.5t-97 -162.5t-35.5 -193.5q0 -159 99.5 -267t261.5 -108z" />
    <glyph glyph-name="Ocircumflexhoi" unicode="&#x1ed4;" horiz-adv-x="1671" 
d="M1307 1733l-13 79q82 12 116 38t34 69q0 30 -21.5 50t-58.5 20q-58 0 -115 -47l-45 61q67 70 162 70q75 0 122.5 -41t47.5 -107q0 -162 -229 -192zM819 1556h-119l273 277h162l174 -277h-107l-153 211zM950 1475q145 0 268.5 -51.5t209 -140.5t134 -212t48.5 -262
q0 -168 -60 -323t-165 -271.5t-259 -186t-331 -69.5q-145 0 -268.5 51.5t-209 140.5t-134 212t-48.5 262q0 168 60 323t165 271.5t259 186t331 69.5zM797 82q192 0 348.5 99.5t242 264t85.5 357.5q0 112 -38 212t-106 174.5t-167.5 118.5t-215.5 44q-191 0 -347 -99.5
t-241.5 -264t-85.5 -357.5q0 -112 38 -212t105 -174.5t166.5 -118.5t215.5 -44z" />
    <glyph glyph-name="ocircumflexhoi" unicode="&#x1ed5;" horiz-adv-x="1277" 
d="M1055 1331l-13 80q82 12 116 38t34 69q0 30 -21.5 49.5t-58.5 19.5q-58 0 -115 -47l-45 62q66 69 162 69q75 0 122.5 -40.5t47.5 -106.5q0 -163 -229 -193zM569 1155h-118l272 277h162l174 -277h-107l-153 211zM702 1073q149 0 261 -66.5t168.5 -177t56.5 -247.5
q0 -122 -45 -235.5t-123.5 -199t-193.5 -137t-246 -51.5q-150 0 -262.5 66.5t-169 177.5t-56.5 248q0 164 76 306t217 229t317 87zM582 74q103 0 193 42t152 112t98 162.5t36 193.5q0 159 -100.5 266.5t-262.5 107.5q-103 0 -193 -41.5t-151.5 -111.5t-97 -162.5
t-35.5 -193.5q0 -159 99.5 -267t261.5 -108z" />
    <glyph glyph-name="Ocircumflextilde" unicode="&#x1ed6;" horiz-adv-x="1671" 
d="M760 1911l16 90q12 79 57.5 126.5t114.5 47.5q39 0 71.5 -14.5t52 -36t38.5 -47t33 -47t33.5 -36t42.5 -14.5q66 0 79 88l17 86h96l-14 -90q-12 -78 -58.5 -126t-115.5 -48q-47 0 -83.5 20t-59.5 48.5t-42 57.5t-41 49t-47 20q-62 0 -78 -88l-16 -86h-96zM819 1556h-119
l273 277h162l174 -277h-107l-153 211zM950 1475q145 0 268.5 -51.5t209 -140.5t134 -212t48.5 -262q0 -168 -60 -323t-165 -271.5t-259 -186t-331 -69.5q-145 0 -268.5 51.5t-209 140.5t-134 212t-48.5 262q0 168 60 323t165 271.5t259 186t331 69.5zM797 82
q192 0 348.5 99.5t242 264t85.5 357.5q0 112 -38 212t-106 174.5t-167.5 118.5t-215.5 44q-191 0 -347 -99.5t-241.5 -264t-85.5 -357.5q0 -112 38 -212t105 -174.5t166.5 -118.5t215.5 -44z" />
    <glyph glyph-name="ocircumflextilde" unicode="&#x1ed7;" horiz-adv-x="1277" 
d="M510 1509l16 90q12 79 57.5 127t114.5 48q47 0 83 -20t57.5 -49t40.5 -57.5t41 -48.5t49 -20q67 0 80 88l16 86h96l-14 -90q-12 -78 -58.5 -126t-115.5 -48q-47 0 -83.5 20t-59.5 48.5t-42 57t-41 48.5t-47 20q-61 0 -77 -88l-17 -86h-96zM569 1155h-118l272 277h162
l174 -277h-107l-153 211zM702 1073q149 0 261 -66.5t168.5 -177t56.5 -247.5q0 -122 -45 -235.5t-123.5 -199t-193.5 -137t-246 -51.5q-150 0 -262.5 66.5t-169 177.5t-56.5 248q0 164 76 306t217 229t317 87zM582 74q103 0 193 42t152 112t98 162.5t36 193.5
q0 159 -100.5 266.5t-262.5 107.5q-103 0 -193 -41.5t-151.5 -111.5t-97 -162.5t-35.5 -193.5q0 -159 99.5 -267t261.5 -108z" />
    <glyph glyph-name="Ocircumflexdotbelow" unicode="&#x1ed8;" horiz-adv-x="1671" 
d="M819 1556h-119l273 277h162l174 -277h-107l-153 211zM950 1475q145 0 268.5 -51.5t209 -140.5t134 -212t48.5 -262q0 -168 -60 -323t-165 -271.5t-259 -186t-331 -69.5q-145 0 -268.5 51.5t-209 140.5t-134 212t-48.5 262q0 168 60 323t165 271.5t259 186t331 69.5z
M797 82q192 0 348.5 99.5t242 264t85.5 357.5q0 112 -38 212t-106 174.5t-167.5 118.5t-215.5 44q-191 0 -347 -99.5t-241.5 -264t-85.5 -357.5q0 -112 38 -212t105 -174.5t166.5 -118.5t215.5 -44zM672 -508q-39 0 -66.5 26t-27.5 64t28 65t66 27t66 -27t28 -65t-27.5 -64
t-66.5 -26z" />
    <glyph glyph-name="ocircumflexdotbelow" unicode="&#x1ed9;" horiz-adv-x="1277" 
d="M582 1196h-121l270 340h172l150 -340h-105l-135 279zM702 1073q149 0 261 -66.5t168.5 -177t56.5 -247.5q0 -122 -45 -235.5t-123.5 -199t-193.5 -137t-246 -51.5q-150 0 -262.5 66.5t-169 177.5t-56.5 248q0 164 76 306t217 229t317 87zM582 74q103 0 193 42t152 112
t98 162.5t36 193.5q0 159 -100.5 266.5t-262.5 107.5q-103 0 -193 -41.5t-151.5 -111.5t-97 -162.5t-35.5 -193.5q0 -159 99.5 -267t261.5 -108zM475 -508q-39 0 -66.5 26t-27.5 64t28 65t66 27t66 -27t28 -65t-27.5 -64t-66.5 -26z" />
    <glyph glyph-name="Ohornacute" unicode="&#x1eda;" horiz-adv-x="1671" 
d="M1071 1556h-129l275 277h155zM950 1475q130 0 242 -41h92q100 0 146.5 52t46.5 122q0 61 -41 108l82 58q65 -69 65 -164q0 -100 -61.5 -171t-175.5 -85q125 -90 194.5 -232.5t69.5 -312.5q0 -168 -60 -323t-165 -271.5t-259 -186t-331 -69.5q-145 0 -268.5 51.5
t-209 140.5t-134 212t-48.5 262q0 168 60 323t165 271.5t259 186t331 69.5zM797 82q192 0 348.5 99.5t242 264t85.5 357.5q0 112 -38 212t-106 174.5t-167.5 118.5t-215.5 44q-191 0 -347 -99.5t-241.5 -264t-85.5 -357.5q0 -112 38 -212t105 -174.5t166.5 -118.5t215.5 -44
z" />
    <glyph glyph-name="ohornacute" unicode="&#x1edb;" horiz-adv-x="1277" 
d="M819 1196h-125l267 340h147zM702 1073q118 0 211 -41h88q100 0 146.5 52t46.5 122q0 62 -41 109l82 57q65 -69 65 -164q0 -105 -67.5 -177t-192.5 -81q148 -139 148 -368q0 -122 -45 -235.5t-123.5 -199t-193.5 -137t-246 -51.5q-150 0 -262.5 66.5t-169 177.5t-56.5 248
q0 164 76 306t217 229t317 87zM582 74q103 0 193 42t152 112t98 162.5t36 193.5q0 159 -100.5 266.5t-262.5 107.5q-103 0 -193 -41.5t-151.5 -111.5t-97 -162.5t-35.5 -193.5q0 -159 99.5 -267t261.5 -108z" />
    <glyph glyph-name="Ohorngrave" unicode="&#x1edc;" horiz-adv-x="1671" 
d="M950 1556l-202 277h143l176 -277h-117zM950 1475q130 0 242 -41h92q100 0 146.5 52t46.5 122q0 61 -41 108l82 58q65 -69 65 -164q0 -100 -61.5 -171t-175.5 -85q125 -90 194.5 -232.5t69.5 -312.5q0 -168 -60 -323t-165 -271.5t-259 -186t-331 -69.5q-145 0 -268.5 51.5
t-209 140.5t-134 212t-48.5 262q0 168 60 323t165 271.5t259 186t331 69.5zM797 82q192 0 348.5 99.5t242 264t85.5 357.5q0 112 -38 212t-106 174.5t-167.5 118.5t-215.5 44q-191 0 -347 -99.5t-241.5 -264t-85.5 -357.5q0 -112 38 -212t105 -174.5t166.5 -118.5t215.5 -44
z" />
    <glyph glyph-name="ohorngrave" unicode="&#x1edd;" horiz-adv-x="1277" 
d="M702 1196l-170 340h136l147 -340h-113zM702 1073q118 0 211 -41h88q100 0 146.5 52t46.5 122q0 62 -41 109l82 57q65 -69 65 -164q0 -105 -67.5 -177t-192.5 -81q148 -139 148 -368q0 -122 -45 -235.5t-123.5 -199t-193.5 -137t-246 -51.5q-150 0 -262.5 66.5t-169 177.5
t-56.5 248q0 164 76 306t217 229t317 87zM582 74q103 0 193 42t152 112t98 162.5t36 193.5q0 159 -100.5 266.5t-262.5 107.5q-103 0 -193 -41.5t-151.5 -111.5t-97 -162.5t-35.5 -193.5q0 -159 99.5 -267t261.5 -108z" />
    <glyph glyph-name="Ohornhoi" unicode="&#x1ede;" horiz-adv-x="1671" 
d="M965 1505l-2 88q105 15 150.5 47t45.5 89q0 43 -29 69.5t-83 26.5q-76 0 -160 -66l-45 74q100 80 211 80q93 0 147.5 -48t54.5 -128q0 -195 -290 -232zM950 1475q130 0 242 -41h92q100 0 146.5 52t46.5 122q0 61 -41 108l82 58q65 -69 65 -164q0 -100 -61.5 -171
t-175.5 -85q125 -90 194.5 -232.5t69.5 -312.5q0 -168 -60 -323t-165 -271.5t-259 -186t-331 -69.5q-145 0 -268.5 51.5t-209 140.5t-134 212t-48.5 262q0 168 60 323t165 271.5t259 186t331 69.5zM797 82q192 0 348.5 99.5t242 264t85.5 357.5q0 112 -38 212t-106 174.5
t-167.5 118.5t-215.5 44q-191 0 -347 -99.5t-241.5 -264t-85.5 -357.5q0 -112 38 -212t105 -174.5t166.5 -118.5t215.5 -44z" />
    <glyph glyph-name="ohornhoi" unicode="&#x1edf;" horiz-adv-x="1277" 
d="M715 1137l-4 86q109 17 154.5 49t45.5 90q0 43 -29.5 70.5t-84.5 27.5q-73 0 -158 -63l-47 71q103 82 213 82q92 0 146.5 -49t56.5 -129q0 -203 -293 -235zM702 1073q118 0 211 -41h88q100 0 146.5 52t46.5 122q0 62 -41 109l82 57q65 -69 65 -164q0 -105 -67.5 -177
t-192.5 -81q148 -139 148 -368q0 -122 -45 -235.5t-123.5 -199t-193.5 -137t-246 -51.5q-150 0 -262.5 66.5t-169 177.5t-56.5 248q0 164 76 306t217 229t317 87zM582 74q103 0 193 42t152 112t98 162.5t36 193.5q0 159 -100.5 266.5t-262.5 107.5q-103 0 -193 -41.5
t-151.5 -111.5t-97 -162.5t-35.5 -193.5q0 -159 99.5 -267t261.5 -108z" />
    <glyph glyph-name="Ohorntilde" unicode="&#x1ee0;" horiz-adv-x="1671" 
d="M700 1573l17 90q12 79 57.5 126.5t114.5 47.5q47 0 82.5 -20t57.5 -48.5t40.5 -57.5t40.5 -49t49 -20q67 0 80 89l16 86h97l-15 -91q-12 -78 -58.5 -126t-115.5 -48q-47 0 -83.5 20t-59 49t-41.5 57.5t-41 48.5t-47 20q-62 0 -78 -88l-16 -86h-97zM950 1475
q130 0 242 -41h92q100 0 146.5 52t46.5 122q0 61 -41 108l82 58q65 -69 65 -164q0 -100 -61.5 -171t-175.5 -85q125 -90 194.5 -232.5t69.5 -312.5q0 -168 -60 -323t-165 -271.5t-259 -186t-331 -69.5q-145 0 -268.5 51.5t-209 140.5t-134 212t-48.5 262q0 168 60 323
t165 271.5t259 186t331 69.5zM797 82q192 0 348.5 99.5t242 264t85.5 357.5q0 112 -38 212t-106 174.5t-167.5 118.5t-215.5 44q-191 0 -347 -99.5t-241.5 -264t-85.5 -357.5q0 -112 38 -212t105 -174.5t166.5 -118.5t215.5 -44z" />
    <glyph glyph-name="ohorntilde" unicode="&#x1ee1;" horiz-adv-x="1277" 
d="M518 1229h-94l14 94q12 87 63.5 141t129.5 54q47 0 86.5 -21.5t66 -52t50 -61.5t51 -52.5t57.5 -21.5q85 0 102 96l15 98h94l-14 -94q-14 -87 -65 -141t-128 -54q-48 0 -87.5 21.5t-66 52t-50 61.5t-51.5 52.5t-58 21.5q-39 0 -65.5 -26.5t-32.5 -69.5zM702 1073
q118 0 211 -41h88q100 0 146.5 52t46.5 122q0 62 -41 109l82 57q65 -69 65 -164q0 -105 -67.5 -177t-192.5 -81q148 -139 148 -368q0 -122 -45 -235.5t-123.5 -199t-193.5 -137t-246 -51.5q-150 0 -262.5 66.5t-169 177.5t-56.5 248q0 164 76 306t217 229t317 87zM582 74
q103 0 193 42t152 112t98 162.5t36 193.5q0 159 -100.5 266.5t-262.5 107.5q-103 0 -193 -41.5t-151.5 -111.5t-97 -162.5t-35.5 -193.5q0 -159 99.5 -267t261.5 -108z" />
    <glyph glyph-name="Ohorndotbelow" unicode="&#x1ee2;" horiz-adv-x="1671" 
d="M950 1475q130 0 242 -41h92q100 0 146.5 52t46.5 122q0 61 -41 108l82 58q65 -69 65 -164q0 -100 -61.5 -171t-175.5 -85q125 -90 194.5 -232.5t69.5 -312.5q0 -168 -60 -323t-165 -271.5t-259 -186t-331 -69.5q-145 0 -268.5 51.5t-209 140.5t-134 212t-48.5 262
q0 168 60 323t165 271.5t259 186t331 69.5zM797 82q192 0 348.5 99.5t242 264t85.5 357.5q0 112 -38 212t-106 174.5t-167.5 118.5t-215.5 44q-191 0 -347 -99.5t-241.5 -264t-85.5 -357.5q0 -112 38 -212t105 -174.5t166.5 -118.5t215.5 -44zM672 -508q-39 0 -66.5 26
t-27.5 64t28 65t66 27t66 -27t28 -65t-27.5 -64t-66.5 -26z" />
    <glyph glyph-name="ohorndotbelow" unicode="&#x1ee3;" horiz-adv-x="1277" 
d="M702 1073q118 0 211 -41h88q100 0 146.5 52t46.5 122q0 62 -41 109l82 57q65 -69 65 -164q0 -105 -67.5 -177t-192.5 -81q148 -139 148 -368q0 -122 -45 -235.5t-123.5 -199t-193.5 -137t-246 -51.5q-150 0 -262.5 66.5t-169 177.5t-56.5 248q0 164 76 306t217 229
t317 87zM582 74q103 0 193 42t152 112t98 162.5t36 193.5q0 159 -100.5 266.5t-262.5 107.5q-103 0 -193 -41.5t-151.5 -111.5t-97 -162.5t-35.5 -193.5q0 -159 99.5 -267t261.5 -108zM475 -508q-39 0 -66.5 26t-27.5 64t28 65t66 27t66 -27t28 -65t-27.5 -64t-66.5 -26z
" />
    <glyph glyph-name="Udotbelow" unicode="&#x1ee4;" horiz-adv-x="1431" 
d="M1112 524l160 910h131l-162 -914q-96 -561 -582 -561q-124 0 -220.5 38.5t-159.5 113.5t-85.5 186.5t3.5 257.5l155 879h131l-153 -883q-41 -230 48.5 -349.5t287.5 -119.5q182 0 295 111.5t151 330.5zM555 -508q-39 0 -66.5 26t-27.5 64t28 65t66 27t66 -27t28 -65
t-27.5 -64t-66.5 -26z" />
    <glyph glyph-name="udotbelow" unicode="&#x1ee5;" horiz-adv-x="1204" 
d="M899 438l105 594h120l-104 -596q-42 -231 -161.5 -354t-311.5 -123q-214 0 -319.5 127.5t-65.5 359.5l102 586h121l-104 -594q-32 -175 40.5 -269.5t231.5 -94.5q139 0 227 93t119 271zM467 -508q-39 0 -66.5 26t-27.5 64t28 65t66 27t66 -27t28 -65t-27.5 -64t-66.5 -26
z" />
    <glyph glyph-name="Uhoi" unicode="&#x1ee6;" horiz-adv-x="1431" 
d="M860 1505l-2 88q105 15 151 47t46 89q0 43 -29.5 69.5t-83.5 26.5q-76 0 -160 -66l-45 74q100 80 211 80q93 0 148 -48t55 -128q0 -195 -291 -232zM1112 524l160 910h131l-162 -914q-96 -561 -582 -561q-124 0 -220.5 38.5t-159.5 113.5t-85.5 186.5t3.5 257.5l155 879
h131l-153 -883q-41 -230 48.5 -349.5t287.5 -119.5q182 0 295 111.5t151 330.5z" />
    <glyph glyph-name="uhoi" unicode="&#x1ee7;" horiz-adv-x="1204" 
d="M678 1137l-4 86q109 17 154.5 49t45.5 90q0 43 -29.5 70.5t-84.5 27.5q-73 0 -158 -63l-47 71q103 82 213 82q92 0 146.5 -49t56.5 -129q0 -203 -293 -235zM899 438l105 594h120l-104 -596q-42 -231 -161.5 -354t-311.5 -123q-214 0 -319.5 127.5t-65.5 359.5l102 586
h121l-104 -594q-32 -175 40.5 -269.5t231.5 -94.5q139 0 227 93t119 271z" />
    <glyph glyph-name="Uhornacute" unicode="&#x1ee8;" horiz-adv-x="1431" 
d="M969 1556h-129l274 277h156zM1112 524l160 910h119q100 0 146 52t46 122q0 61 -41 108l82 58q66 -70 66 -164q0 -112 -77 -186t-218 -74h-6l-148 -830q-96 -561 -582 -561q-124 0 -220.5 38.5t-159.5 113.5t-85.5 186.5t3.5 257.5l155 879h131l-153 -883
q-41 -230 48.5 -349.5t287.5 -119.5q182 0 295 111.5t151 330.5z" />
    <glyph glyph-name="uhornacute" unicode="&#x1ee9;" horiz-adv-x="1212" 
d="M782 1196h-125l267 340h147zM899 438l105 594h118q100 0 146.5 52t46.5 122q0 62 -41 109l82 57q65 -69 65 -164q0 -112 -77 -186t-220 -74h-14l-90 -512q-42 -231 -161.5 -354t-311.5 -123q-214 0 -319.5 127.5t-65.5 359.5l102 586h121l-104 -594q-32 -175 40.5 -269.5
t231.5 -94.5q139 0 227 93t119 271z" />
    <glyph glyph-name="Uhorngrave" unicode="&#x1eea;" horiz-adv-x="1431" 
d="M848 1556l-203 277h143l177 -277h-117zM1112 524l160 910h119q100 0 146 52t46 122q0 61 -41 108l82 58q66 -70 66 -164q0 -112 -77 -186t-218 -74h-6l-148 -830q-96 -561 -582 -561q-124 0 -220.5 38.5t-159.5 113.5t-85.5 186.5t3.5 257.5l155 879h131l-153 -883
q-41 -230 48.5 -349.5t287.5 -119.5q182 0 295 111.5t151 330.5z" />
    <glyph glyph-name="uhorngrave" unicode="&#x1eeb;" horiz-adv-x="1212" 
d="M666 1196l-170 340h135l147 -340h-112zM899 438l105 594h118q100 0 146.5 52t46.5 122q0 62 -41 109l82 57q65 -69 65 -164q0 -112 -77 -186t-220 -74h-14l-90 -512q-42 -231 -161.5 -354t-311.5 -123q-214 0 -319.5 127.5t-65.5 359.5l102 586h121l-104 -594
q-32 -175 40.5 -269.5t231.5 -94.5q139 0 227 93t119 271z" />
    <glyph glyph-name="Uhornhoi" unicode="&#x1eec;" horiz-adv-x="1431" 
d="M860 1505l-2 88q105 15 151 47t46 89q0 43 -29.5 69.5t-83.5 26.5q-76 0 -160 -66l-45 74q100 80 211 80q93 0 148 -48t55 -128q0 -195 -291 -232zM1112 524l160 910h119q100 0 146 52t46 122q0 61 -41 108l82 58q66 -70 66 -164q0 -112 -77 -186t-218 -74h-6l-148 -830
q-96 -561 -582 -561q-124 0 -220.5 38.5t-159.5 113.5t-85.5 186.5t3.5 257.5l155 879h131l-153 -883q-41 -230 48.5 -349.5t287.5 -119.5q182 0 295 111.5t151 330.5z" />
    <glyph glyph-name="uhornhoi" unicode="&#x1eed;" horiz-adv-x="1212" 
d="M678 1137l-4 86q109 17 154.5 49t45.5 90q0 43 -29.5 70.5t-84.5 27.5q-73 0 -158 -63l-47 71q103 82 213 82q92 0 146.5 -49t56.5 -129q0 -203 -293 -235zM899 438l105 594h118q100 0 146.5 52t46.5 122q0 62 -41 109l82 57q65 -69 65 -164q0 -112 -77 -186t-220 -74
h-14l-90 -512q-42 -231 -161.5 -354t-311.5 -123q-214 0 -319.5 127.5t-65.5 359.5l102 586h121l-104 -594q-32 -175 40.5 -269.5t231.5 -94.5q139 0 227 93t119 271z" />
    <glyph glyph-name="Uhorntilde" unicode="&#x1eee;" horiz-adv-x="1431" 
d="M598 1573l16 90q12 79 57.5 126.5t114.5 47.5q39 0 71.5 -14.5t52 -36t38.5 -47t33 -47t33.5 -36t42.5 -14.5q67 0 80 89l16 86h96l-14 -91q-12 -78 -58.5 -126t-115.5 -48q-47 0 -83.5 20t-59.5 49t-42 57.5t-41 48.5t-47 20q-61 0 -77 -88l-17 -86h-96zM1112 524
l160 910h119q100 0 146 52t46 122q0 61 -41 108l82 58q66 -70 66 -164q0 -112 -77 -186t-218 -74h-6l-148 -830q-96 -561 -582 -561q-124 0 -220.5 38.5t-159.5 113.5t-85.5 186.5t3.5 257.5l155 879h131l-153 -883q-41 -230 48.5 -349.5t287.5 -119.5q182 0 295 111.5
t151 330.5z" />
    <glyph glyph-name="uhorntilde" unicode="&#x1eef;" horiz-adv-x="1212" 
d="M481 1229h-94l14 94q12 87 63.5 141t129.5 54q47 0 86.5 -21.5t66 -52t50 -61.5t51 -52.5t57.5 -21.5q43 0 69 26t34 70l14 98h94l-14 -94q-14 -87 -65 -141t-128 -54q-48 0 -87.5 21.5t-66 52t-50 61.5t-51.5 52.5t-58 21.5q-39 0 -65.5 -26.5t-32.5 -69.5zM899 438
l105 594h118q100 0 146.5 52t46.5 122q0 62 -41 109l82 57q65 -69 65 -164q0 -112 -77 -186t-220 -74h-14l-90 -512q-42 -231 -161.5 -354t-311.5 -123q-214 0 -319.5 127.5t-65.5 359.5l102 586h121l-104 -594q-32 -175 40.5 -269.5t231.5 -94.5q139 0 227 93t119 271z" />
    <glyph glyph-name="Uhorndotbelow" unicode="&#x1ef0;" horiz-adv-x="1431" 
d="M1112 524l160 910h119q100 0 146 52t46 122q0 61 -41 108l82 58q66 -70 66 -164q0 -112 -77 -186t-218 -74h-6l-148 -830q-96 -561 -582 -561q-124 0 -220.5 38.5t-159.5 113.5t-85.5 186.5t3.5 257.5l155 879h131l-153 -883q-41 -230 48.5 -349.5t287.5 -119.5
q182 0 295 111.5t151 330.5zM555 -508q-39 0 -66.5 26t-27.5 64t28 65t66 27t66 -27t28 -65t-27.5 -64t-66.5 -26z" />
    <glyph glyph-name="uhorndotbelow" unicode="&#x1ef1;" horiz-adv-x="1212" 
d="M899 438l105 594h118q100 0 146.5 52t46.5 122q0 62 -41 109l82 57q65 -69 65 -164q0 -112 -77 -186t-220 -74h-14l-90 -512q-42 -231 -161.5 -354t-311.5 -123q-214 0 -319.5 127.5t-65.5 359.5l102 586h121l-104 -594q-32 -175 40.5 -269.5t231.5 -94.5q139 0 227 93
t119 271zM467 -508q-39 0 -66.5 26t-27.5 64t28 65t66 27t66 -27t28 -65t-27.5 -64t-66.5 -26z" />
    <glyph glyph-name="Ygrave" unicode="&#x1ef2;" horiz-adv-x="1302" 
d="M774 1556l-203 277h144l176 -277h-117zM1438 1434l-695 -766l-116 -668h-131l118 674l-424 760h146l358 -646l582 646h162z" />
    <glyph glyph-name="ygrave" unicode="&#x1ef3;" horiz-adv-x="1077" 
d="M602 1196l-170 340h135l148 -340h-113zM362 -260q-78 -133 -162.5 -192.5t-195.5 -59.5q-113 0 -174 37l18 110q56 -34 146 -34q157 0 264 182l129 219l-256 1030h129l213 -885l520 885h135z" />
    <glyph glyph-name="Ydotbelow" unicode="&#x1ef4;" horiz-adv-x="1302" 
d="M1438 1434l-695 -766l-116 -668h-131l118 674l-424 760h146l358 -646l582 646h162zM487 -508q-39 0 -66.5 26t-27.5 64t28 65t66 27q39 0 67 -27t28 -65t-28 -64t-67 -26z" />
    <glyph glyph-name="ydotbelow" unicode="&#x1ef5;" horiz-adv-x="1077" 
d="M362 -260q-78 -133 -162.5 -192.5t-195.5 -59.5q-113 0 -174 37l18 110q56 -34 146 -34q157 0 264 182l129 219l-256 1030h129l213 -885l520 885h135zM655 -508q-39 0 -66.5 26t-27.5 64t28 65t66 27q39 0 67 -27t28 -65t-28 -64t-67 -26z" />
    <glyph glyph-name="Yhoi" unicode="&#x1ef6;" horiz-adv-x="1302" 
d="M788 1505l-2 88q105 15 151 47t46 89q0 43 -29.5 69.5t-83.5 26.5q-75 0 -159 -66l-45 74q100 80 211 80q93 0 147.5 -48t54.5 -128q0 -195 -291 -232zM1438 1434l-695 -766l-116 -668h-131l118 674l-424 760h146l358 -646l582 646h162z" />
    <glyph glyph-name="yhoi" unicode="&#x1ef7;" horiz-adv-x="1077" 
d="M614 1137l-4 86q109 17 155 49t46 90q0 43 -30 70.5t-85 27.5q-72 0 -157 -63l-47 71q103 82 213 82q91 0 145.5 -49t56.5 -129q0 -203 -293 -235zM362 -260q-78 -133 -162.5 -192.5t-195.5 -59.5q-113 0 -174 37l18 110q56 -34 146 -34q157 0 264 182l129 219l-256 1030
h129l213 -885l520 885h135z" />
    <glyph glyph-name="Ytilde" unicode="&#x1ef8;" horiz-adv-x="1302" 
d="M524 1573l17 90q12 79 57.5 126.5t114.5 47.5q47 0 82.5 -20t57.5 -48.5t40.5 -57.5t40.5 -49t49 -20q67 0 80 89l16 86h97l-15 -91q-12 -78 -58.5 -126t-115.5 -48q-47 0 -83.5 20t-59 49t-41.5 57.5t-41 48.5t-47 20q-62 0 -78 -88l-16 -86h-97zM1438 1434l-695 -766
l-116 -668h-131l118 674l-424 760h146l358 -646l582 646h162z" />
    <glyph glyph-name="ytilde" unicode="&#x1ef9;" horiz-adv-x="1077" 
d="M418 1229h-94l14 94q12 87 63 141t129 54q47 0 86.5 -21.5t66 -52t50.5 -61.5t51.5 -52.5t57.5 -21.5q85 0 102 96l14 98h95l-15 -94q-14 -88 -64.5 -141.5t-127.5 -53.5q-48 0 -87.5 21.5t-66 52t-50.5 61.5t-52 52.5t-58 21.5q-39 0 -65.5 -26.5t-32.5 -69.5zM362 -260
q-78 -133 -162.5 -192.5t-195.5 -59.5q-113 0 -174 37l18 110q56 -34 146 -34q157 0 264 182l129 219l-256 1030h129l213 -885l520 885h135z" />
    <glyph glyph-name="enquad" unicode="&#x2000;" horiz-adv-x="1073" 
 />
    <glyph glyph-name="emquad" unicode="&#x2001;" horiz-adv-x="2146" 
 />
    <glyph glyph-name="enspace" unicode="&#x2002;" horiz-adv-x="1073" 
 />
    <glyph glyph-name="emspace" unicode="&#x2003;" horiz-adv-x="2146" 
 />
    <glyph glyph-name="threeperemspace" unicode="&#x2004;" horiz-adv-x="714" 
 />
    <glyph glyph-name="fourperemspace" unicode="&#x2005;" horiz-adv-x="536" 
 />
    <glyph glyph-name="sixperemspace" unicode="&#x2006;" horiz-adv-x="358" 
 />
    <glyph glyph-name="figurespace" unicode="&#x2007;" 
 />
    <glyph glyph-name="punctuationspace" unicode="&#x2008;" horiz-adv-x="552" 
 />
    <glyph glyph-name="thinspace" unicode="&#x2009;" horiz-adv-x="268" 
 />
    <glyph glyph-name="hairspace" unicode="&#x200a;" horiz-adv-x="215" 
 />
    <glyph glyph-name="zerowidthspace" unicode="&#x200b;" horiz-adv-x="0" 
 />
    <glyph glyph-name="zerowidthnonjoiner" unicode="&#x200c;" horiz-adv-x="0" 
 />
    <glyph glyph-name="zerowidthjoiner" unicode="&#x200d;" horiz-adv-x="0" 
 />
    <glyph glyph-name="endash" unicode="&#x2013;" horiz-adv-x="1073" 
d="M51 578h993l-18 -107h-993z" />
    <glyph glyph-name="emdash" unicode="&#x2014;" horiz-adv-x="2146" 
d="M51 578h2067l-19 -107h-2066z" />
    <glyph glyph-name="quoteleft" unicode="&#x2018;" horiz-adv-x="552" 
d="M477 1434h115l-254 -525h-143z" />
    <glyph glyph-name="quoteright" unicode="&#x2019;" horiz-adv-x="552" 
d="M309 909h-114l254 525h143z" />
    <glyph glyph-name="quotesinglbase" unicode="&#x201a;" horiz-adv-x="555" 
d="M92 -328h-117l250 498h146z" />
    <glyph glyph-name="quotedblleft" unicode="&#x201c;" horiz-adv-x="909" 
d="M477 1434h115l-254 -525h-143zM836 1434h114l-254 -525h-143z" />
    <glyph glyph-name="quotedblright" unicode="&#x201d;" horiz-adv-x="911" 
d="M309 909h-114l254 525h143zM668 909h-115l254 525h143z" />
    <glyph glyph-name="quotedblbase" unicode="&#x201e;" horiz-adv-x="913" 
d="M92 -328h-117l250 498h146zM451 -328h-117l250 498h145z" />
    <glyph glyph-name="dagger" unicode="&#x2020;" horiz-adv-x="790" 
d="M287 225l157 889h-311l21 107h309l55 315h117l-55 -315h305l-19 -107h-305l-158 -889h-116z" />
    <glyph glyph-name="daggerdbl" unicode="&#x2021;" horiz-adv-x="790" 
d="M287 225l55 316h-309l18 106h309l84 467h-311l21 107h309l55 315h117l-55 -315h305l-19 -107h-305l-84 -467h307l-18 -106h-307l-56 -316h-116z" />
    <glyph glyph-name="bullet" unicode="&#x2022;" horiz-adv-x="614" 
d="M313 309q-94 0 -160.5 65t-66.5 156q0 89 66.5 151t160.5 62t159 -62t65 -151q0 -91 -65.5 -156t-158.5 -65z" />
    <glyph glyph-name="ellipsis" unicode="&#x2026;" horiz-adv-x="1345" 
d="M193 -23q-43 0 -72 29t-29 72t29 71.5t72 28.5q44 0 73 -28.5t29 -71.5t-29 -72t-73 -29zM598 -23q-44 0 -73 29t-29 72t29 71.5t73 28.5q43 0 71.5 -28.5t28.5 -71.5t-28.5 -72t-71.5 -29zM999 -23q-43 0 -71.5 29t-28.5 72t28.5 71.5t71.5 28.5q44 0 73.5 -28.5
t29.5 -71.5t-29.5 -72t-73.5 -29z" />
    <glyph glyph-name="perthousand" unicode="&#x2030;" horiz-adv-x="2482" 
d="M559 1475q139 0 221 -86.5t82 -217.5q0 -155 -107.5 -269t-267.5 -114q-140 0 -221.5 86.5t-81.5 217.5q0 156 107 269.5t268 113.5zM174 0l1264 1434h139l-1264 -1434h-139zM489 879q117 0 194 87.5t77 207.5q0 90 -56 150t-149 60q-116 0 -193 -87t-77 -205
q0 -92 55.5 -152.5t148.5 -60.5zM1280 643q139 0 221 -86t82 -217q0 -155 -107.5 -269t-267.5 -114q-140 0 -221.5 86t-81.5 217q0 156 107 269.5t268 113.5zM2068 643q139 0 221.5 -86t82.5 -217q0 -155 -107.5 -269t-267.5 -114q-140 0 -221.5 86t-81.5 217
q0 156 106.5 269.5t267.5 113.5zM1210 47q117 0 194 87.5t77 207.5q0 90 -56 150.5t-149 60.5q-116 0 -193 -87t-77 -206q0 -92 55.5 -152.5t148.5 -60.5zM1999 47q117 0 193.5 87.5t76.5 207.5q0 90 -56 150.5t-149 60.5q-116 0 -193 -87t-77 -206q0 -92 56 -152.5
t149 -60.5z" />
    <glyph glyph-name="guilsinglleft" unicode="&#x2039;" horiz-adv-x="632" 
d="M434 98h-125l-196 410l342 410h141l-350 -424z" />
    <glyph glyph-name="guilsinglright" unicode="&#x203a;" horiz-adv-x="632" 
d="M197 918h122l199 -410l-344 -410h-139l348 422z" />
    <glyph glyph-name="fraction" unicode="&#x2044;" horiz-adv-x="385" 
d="M-475 0l1263 1434h140l-1264 -1434h-139z" />
    <glyph glyph-name="wordjoiner" unicode="&#x2060;" horiz-adv-x="0" 
 />
    <glyph glyph-name="zerosuperior" unicode="&#x2070;" horiz-adv-x="772" 
d="M571 1737q137 0 207 -96t70 -263q0 -151 -44 -279.5t-134.5 -211t-210.5 -82.5q-137 0 -206 94.5t-69 261.5q0 151 44 280t134 212.5t209 83.5zM459 899q85 0 151 70t99.5 179t33.5 234q0 120 -42.5 190t-127.5 70t-151 -70t-99.5 -179.5t-33.5 -235.5q0 -120 42.5 -189
t127.5 -69z" />
    <glyph glyph-name="i.superior" unicode="&#x2071;" horiz-adv-x="319" 
d="M391 1640q-29 0 -49 20.5t-20 49.5q0 28 20 48t49 20q28 0 48 -20t20 -48q0 -29 -20 -49.5t-48 -20.5zM188 829l113 635h94l-112 -635h-95z" />
    <glyph glyph-name="foursuperior" unicode="&#x2074;" horiz-adv-x="772" 
d="M553 829l45 258h-430l16 93l496 530h129l-94 -530h100l-16 -93h-101l-45 -258h-100zM297 1180h317l76 422z" />
    <glyph glyph-name="fivesuperior" unicode="&#x2075;" horiz-adv-x="772" 
d="M276 1253l105 457h465l-17 -90h-366l-66 -274h86q155 0 227 -72t72 -187q0 -121 -84.5 -201.5t-226.5 -80.5q-225 0 -313 174l88 49q76 -133 225 -133q94 0 150.5 53t56.5 133q0 78 -50.5 125t-152.5 47h-199z" />
    <glyph glyph-name="sixsuperior" unicode="&#x2076;" horiz-adv-x="772" 
d="M621 1737q85 0 152.5 -40.5t103.5 -103.5l-84 -57q-27 50 -74 79.5t-103 29.5q-126 0 -208 -105.5t-105 -267.5q101 104 234 104q117 0 188.5 -70.5t71.5 -189.5q0 -134 -88.5 -222.5t-227.5 -88.5q-132 0 -212.5 92.5t-80.5 257.5q0 114 27.5 217t80 185t136.5 131
t189 49zM295 1161q0 -134 51 -199t137 -65q94 0 149.5 61t55.5 156q0 81 -46 126.5t-122 45.5q-136 0 -225 -121v-4z" />
    <glyph glyph-name="sevensuperior" unicode="&#x2077;" horiz-adv-x="770" 
d="M305 829h-123l590 791h-475l14 90h592l-16 -90z" />
    <glyph glyph-name="eightsuperior" unicode="&#x2078;" horiz-adv-x="772" 
d="M797 1087q0 -53 -20 -102t-58.5 -90t-103 -65.5t-144.5 -24.5q-146 0 -225.5 69.5t-79.5 182.5q0 90 56.5 164t164.5 100q-102 54 -102 172q0 46 17 88.5t50.5 78t89 56.5t125.5 21q126 0 195 -60.5t69 -158.5q0 -73 -44.5 -133t-129.5 -85q69 -28 104.5 -82.5
t35.5 -130.5zM391 1489q0 -64 41 -100.5t119 -36.5q85 0 128.5 46.5t43.5 112.5q0 64 -40.5 101t-119.5 37q-84 0 -128 -46.5t-44 -113.5zM690 1094q0 79 -51.5 125.5t-149.5 46.5q-106 0 -161.5 -59.5t-55.5 -141.5q0 -79 52 -125.5t151 -46.5q104 0 159.5 59t55.5 142z
" />
    <glyph glyph-name="ninesuperior" unicode="&#x2079;" horiz-adv-x="772" 
d="M406 805q-86 0 -154 40t-102 103l83 58q26 -51 73 -80t104 -29q125 0 207.5 105t105.5 266q-105 -105 -234 -105q-117 0 -188.5 70.5t-71.5 189.5q0 134 88.5 224t227.5 90q132 0 212.5 -93t80.5 -258q0 -114 -27.5 -217t-79.5 -185t-136 -130.5t-189 -48.5zM338 1427
q0 -81 46 -126.5t122 -45.5q136 0 225 121v4q0 133 -51 199t-137 66q-93 0 -149 -62t-56 -156z" />
    <glyph glyph-name="n.superior" unicode="&#x207f;" horiz-adv-x="759" 
d="M188 829l113 635h94l-12 -73q95 98 213 98q114 0 171.5 -72.5t33.5 -202.5l-68 -385h-94l68 383q15 88 -22 137.5t-114 49.5q-127 0 -209 -125v2l-79 -447h-95z" />
    <glyph glyph-name="zeroinferior" unicode="&#x2080;" horiz-adv-x="772" 
d="M379 631q137 0 206.5 -96t69.5 -263q0 -151 -44 -279.5t-134.5 -211t-210.5 -82.5q-137 0 -205.5 94.5t-68.5 261.5q0 151 44 280t134 212.5t209 83.5zM266 -207q85 0 151 70t100 179t34 234q0 120 -42.5 190.5t-127.5 70.5t-151 -70.5t-100 -180t-34 -235.5
q0 -120 42.5 -189t127.5 -69z" />
    <glyph glyph-name="oneinferior" unicode="&#x2081;" horiz-adv-x="772" 
d="M-49 -276l14 92h268l119 678l-258 -129l-43 79l320 162h102l-139 -790h231l-16 -92h-598z" />
    <glyph glyph-name="twoinferior" unicode="&#x2082;" horiz-adv-x="772" 
d="M-35 -276l17 92l360 313q111 98 149.5 151t38.5 117q0 62 -42.5 102t-106.5 40q-61 0 -111.5 -32.5t-99.5 -103.5l-78 56q110 172 295 172q106 0 177 -63.5t71 -161.5q0 -87 -51.5 -158t-184.5 -187l-284 -245h436l-16 -92h-570z" />
    <glyph glyph-name="threeinferior" unicode="&#x2083;" horiz-adv-x="772" 
d="M623 406q0 -72 -46.5 -132t-132.5 -88q74 -29 110 -86t36 -127q0 -116 -84.5 -195t-226.5 -79q-225 0 -316 174l90 49q76 -133 226 -133q94 0 150 53t56 133q0 78 -49.5 125t-150.5 47h-107l17 91h120q99 0 151 45t52 116q0 62 -40.5 101t-100.5 39q-61 0 -108.5 -27.5
t-88.5 -91.5l-80 53q107 158 283 158q103 0 171.5 -63.5t68.5 -161.5z" />
    <glyph glyph-name="fourinferior" unicode="&#x2084;" horiz-adv-x="772" 
d="M-25 -18l17 92l495 530h129l-94 -530h101l-17 -92h-100l-45 -258h-101l46 258h-431zM104 74h318l76 422z" />
    <glyph glyph-name="fiveinferior" unicode="&#x2085;" horiz-adv-x="772" 
d="M84 147l104 457h465l-16 -90h-367l-65 -274h86q155 0 227 -71.5t72 -186.5q0 -121 -84.5 -202t-226.5 -81q-226 0 -314 174l88 49q76 -133 226 -133q94 0 150 53t56 133q0 78 -50 125t-152 47h-199z" />
    <glyph glyph-name="sixinferior" unicode="&#x2086;" horiz-adv-x="772" 
d="M428 631q85 0 152.5 -40.5t103.5 -103.5l-84 -57q-27 50 -73.5 79.5t-102.5 29.5q-126 0 -208 -105.5t-105 -267.5q101 104 233 104q117 0 188.5 -70.5t71.5 -189.5q0 -134 -88 -222.5t-227 -88.5q-132 0 -212.5 92.5t-80.5 257.5q0 114 27.5 217t79.5 185t136 131
t189 49zM102 55q0 -134 51.5 -199t137.5 -65q94 0 149.5 61t55.5 156q0 81 -46 126.5t-122 45.5q-137 0 -226 -121v-4z" />
    <glyph glyph-name="seveninferior" unicode="&#x2087;" horiz-adv-x="770" 
d="M113 -276h-123l590 790h-476l15 90h592l-17 -90z" />
    <glyph glyph-name="eightinferior" unicode="&#x2088;" horiz-adv-x="772" 
d="M92 387q0 46 17.5 88.5t50.5 78t89 56.5t126 21q126 0 195 -60.5t69 -158.5q0 -73 -44.5 -132.5t-129.5 -84.5q139 -56 139 -213q0 -53 -20 -102.5t-58.5 -90.5t-102.5 -65.5t-144 -24.5q-146 0 -226 69.5t-80 182.5q0 89 57 163.5t165 100.5q-103 55 -103 172zM199 383
q0 -64 40.5 -100.5t118.5 -36.5q85 0 128.5 47t43.5 113q0 64 -40 100.5t-119 36.5q-84 0 -128 -46.5t-44 -113.5zM498 -12q0 79 -51.5 125.5t-149.5 46.5q-106 0 -161.5 -59.5t-55.5 -141.5q0 -79 52 -125.5t151 -46.5q104 0 159.5 59t55.5 142z" />
    <glyph glyph-name="nineinferior" unicode="&#x2089;" horiz-adv-x="772" 
d="M213 -301q-86 0 -154 40t-102 103l84 58q26 -51 72.5 -80t103.5 -29q125 0 207.5 105t105.5 266q-105 -105 -233 -105q-117 0 -188.5 70.5t-71.5 189.5q0 134 88 224t227 90q132 0 212.5 -92.5t80.5 -257.5q0 -91 -17 -175.5t-52 -158.5t-85.5 -129t-122 -87t-155.5 -32z
M145 322q0 -81 46 -126.5t122 -45.5q138 0 226 120v4q0 133 -51.5 199t-137.5 66q-93 0 -149 -61.5t-56 -155.5z" />
    <glyph glyph-name="Euro" unicode="&#x20ac;" 
d="M59 496l19 108h174q4 48 8 76q5 35 23 129h-168l18 109h178q77 265 229.5 411t356.5 146q137 0 225.5 -56t145.5 -159l-109 -74q-42 84 -105 129t-165 45q-147 0 -262 -114.5t-181 -327.5h603l-21 -109h-612q-18 -73 -25 -127q-8 -55 -10 -78h612l-18 -108h-602
q-6 -215 71 -317.5t222 -102.5q185 0 327 172l86 -80q-88 -101 -191.5 -155t-238.5 -54q-195 0 -302 135.5t-103 401.5h-185z" />
    <glyph glyph-name="numero" unicode="&#x2116;" horiz-adv-x="2404" 
d="M2142 1489q139 0 221 -86t82 -217q0 -155 -107 -269t-267 -114q-141 0 -222.5 86.5t-81.5 216.5q0 156 107 269.5t268 113.5zM139 0l254 1434h170l662 -1289l227 1289h131l-254 -1434h-170l-661 1286l-228 -1286h-131zM2073 893q117 0 193.5 87.5t76.5 207.5
q0 90 -56 150.5t-149 60.5q-116 0 -193 -87t-77 -206q0 -92 56 -152.5t149 -60.5zM1714 541l17 92h569l-16 -92h-570z" />
    <glyph glyph-name="trademark" unicode="&#x2122;" horiz-adv-x="1892" 
d="M209 1337l18 97h678l-16 -97h-287l-139 -786h-105l140 786h-289zM934 551l156 883h131l188 -459l350 459h142l-156 -883h-107l134 741l-338 -438h-82l-183 438l-129 -741h-106z" />
    <glyph glyph-name="arrowleft" unicode="&#x2190;" horiz-adv-x="1622" 
d="M659 152l-585 587l588 588l75 -76l-465 -460h1276v-109h-1269l456 -455z" />
    <glyph glyph-name="arrowup" unicode="&#x2191;" horiz-adv-x="1622" 
d="M754 0v1268l-455 -455l-78 76l588 586l590 -588l-76 -76l-463 461v-1272h-106z" />
    <glyph glyph-name="arrowright" unicode="&#x2192;" horiz-adv-x="1622" 
d="M74 795h1267l-454 454l76 78l585 -588l-587 -589l-76 75l461 463h-1272v107z" />
    <glyph glyph-name="arrowdown" unicode="&#x2193;" horiz-adv-x="1622" 
d="M1399 545l-588 -586l-590 588l78 76l461 -461v1272h106v-1268l457 455z" />
    <glyph glyph-name="arrowNW" unicode="&#x2196;" horiz-adv-x="1622" 
d="M289 432v830h833v-109h-655l901 -899l-76 -76l-897 895v-641h-106z" />
    <glyph glyph-name="arrowNE" unicode="&#x2197;" horiz-adv-x="1622" 
d="M365 178l-76 76l901 899h-655v109h833v-830h-106v641z" />
    <glyph glyph-name="arrowSE" unicode="&#x2198;" horiz-adv-x="1622" 
d="M365 1262l897 -895v641h106v-830h-833v109h655l-901 899z" />
    <glyph glyph-name="arrowSW" unicode="&#x2199;" horiz-adv-x="1622" 
d="M289 1008h106v-641l897 895l76 -76l-901 -899h655v-109h-833v830z" />
    <glyph glyph-name="minus" unicode="&#x2212;" 
d="M1106 463h-1002l21 108h1001z" />
    <glyph glyph-name="radical" unicode="&#x221a;" 
d="M268 795l148 -680l745 1319h125l-817 -1434h-141l-172 795h112z" />
    <glyph glyph-name="integral" unicode="&#x222b;" horiz-adv-x="747" 
d="M432 1184q31 176 129.5 264t239.5 88q124 0 225 -68l-68 -96q-66 53 -157 53q-93 0 -160 -60t-88 -181l-236 -1338q-31 -177 -128 -264.5t-238 -87.5q-128 0 -225 68l65 96q69 -53 158 -53q94 0 161 60t89 181z" />
    <glyph glyph-name="approxequal" unicode="&#x2248;" 
d="M125 567l10 56q18 121 86 191.5t176 70.5q62 0 120.5 -24t103.5 -58.5t88.5 -69t93 -58.5t98.5 -24q131 0 158 164l8 49h109l-9 -53q-19 -123 -86.5 -193.5t-175.5 -70.5q-62 0 -120.5 24t-103.5 58.5t-88.5 69.5t-93.5 59t-100 24q-63 0 -103 -42t-54 -122l-9 -51h-108z
M57 180l9 58q19 121 87 191.5t175 70.5q63 0 121.5 -24t103.5 -58.5t88.5 -69t94 -58.5t100.5 -24q131 0 155 164l8 49h111l-10 -55q-19 -122 -86.5 -193t-175.5 -71q-63 0 -121.5 24t-103.5 59t-88.5 69.5t-93 58.5t-99.5 24q-132 0 -156 -164l-8 -51h-111z" />
    <glyph glyph-name="notequal" unicode="&#x2260;" 
d="M1067 240h-664l-243 -240h-135l243 240h-202l18 108h293l344 338h-576l19 107h663l244 239h135l-243 -239h200l-16 -107h-291l-344 -338h573z" />
    <glyph glyph-name="lessequal" unicode="&#x2264;" 
d="M1059 188l-922 455l21 125l1081 453l-20 -121l-945 -400l805 -399zM1024 0h-999l18 106h1001z" />
    <glyph glyph-name="greaterequal" unicode="&#x2265;" 
d="M78 311l946 400l-805 399l21 111l919 -453l-20 -125l-1082 -455zM25 0l18 106h1001l-20 -106h-999z" />
    <glyph glyph-name="lozenge" unicode="&#x25ca;" 
d="M463 0l-234 717l488 717h121l233 -717l-485 -717h-123zM344 705l193 -601l421 625l-194 602z" />
    <glyph glyph-name="circledotted" unicode="&#x25cc;" horiz-adv-x="1236" 
d="M618 -20q-145 0 -268.5 72t-195.5 195.5t-72 268.5t72 269t195.5 196t268.5 72q109 0 208 -43t171 -115t115 -171t43 -208q0 -145 -72 -268.5t-196 -195.5t-269 -72zM618 1032q-140 0 -259 -69t-188 -188t-69 -259t69 -259t188 -188t259 -69t259 69t188.5 188t69.5 259
t-69.5 259t-188.5 188t-259 69z" />
    <glyph glyph-name="zerowidthnobreakspace" unicode="&#xfeff;" horiz-adv-x="0" 
 />
    <glyph glyph-name="Ccedilla.1" horiz-adv-x="1523" 
d="M946 1475q186 0 336.5 -86t228.5 -224l-114 -73q-60 116 -185 188t-270 72q-191 0 -346 -99.5t-240.5 -264t-85.5 -357.5q0 -150 64 -274.5t185 -199.5t274 -75q159 0 280 59.5t223 177.5l95 -88q-213 -255 -553 -270l-99 -108h9q81 0 133.5 -47.5t52.5 -116.5
q0 -85 -61 -140t-162 -55q-61 0 -115 21t-90 57l61 72q62 -66 144 -66q53 0 85.5 27.5t32.5 77.5q0 39 -28 66.5t-78 27.5q-45 0 -80 -21l-45 60l133 145q-177 13 -314 104t-210.5 237t-73.5 323q0 112 27 219.5t76.5 201.5t122.5 173t161.5 136t198 88.5t227.5 31.5z" />
    <glyph glyph-name="Q.1" horiz-adv-x="1669" 
d="M135 627q0 167 59.5 320.5t164.5 270.5t260 187t333 70q146 0 270 -52.5t208.5 -143t132 -212.5t47.5 -260q0 -213 -94 -400.5t-261 -304.5l289 -354h-178l-225 287q-161 -76 -348 -76q-146 0 -270.5 52.5t-208.5 143t-131.5 212.5t-47.5 260zM1473 809
q0 147 -64.5 270.5t-185.5 198t-273 74.5q-146 0 -273.5 -60t-215.5 -160t-138.5 -233t-50.5 -276q0 -146 64.5 -269.5t185 -197.5t271.5 -74q146 0 274.5 60t216.5 160t138.5 232t50.5 275z" />
    <glyph glyph-name="Q.2" horiz-adv-x="1669" 
d="M135 627q0 167 59.5 320.5t164.5 270.5t260 187t333 70q146 0 270 -52.5t208.5 -143t132 -212.5t47.5 -260q0 -213 -94 -400.5t-259 -304.5l250 -235q149 -140 278 -200t261 -60q125 0 240 47l-21 -123q-105 -43 -235 -43q-307 0 -607 281l-280 266q-168 -76 -350 -76
q-146 0 -270.5 52.5t-208.5 143t-131.5 212.5t-47.5 260zM1473 809q0 147 -64.5 270.5t-185.5 198t-273 74.5q-146 0 -273.5 -60t-215.5 -160t-138.5 -233t-50.5 -276q0 -146 64.5 -269.5t185 -197.5t271.5 -74q146 0 274.5 60t216.5 160t138.5 232t50.5 275z" />
    </font>
</defs>
</svg>
