<?xml version="1.0" standalone="no"?>
<!DOCTYPE svg PUBLIC "-//W3C//DTD SVG 1.1//EN" "http://www.w3.org/Graphics/SVG/1.1/DTD/svg11.dtd" >
<svg xmlns="http://www.w3.org/2000/svg" xmlns:xlink="http://www.w3.org/1999/xlink" version="1.1">
<metadata>
Created by FontForge 20170731 at Wed Jun  1 11:19:28 2022
 By Aleksey,,,
Service d'Information du Gouvernement
</metadata>
<defs>
<font id="Marianne-Medium" horiz-adv-x="1228" >
  <font-face 
    font-family="Marianne Medium"
    font-weight="500"
    font-stretch="normal"
    units-per-em="2048"
    panose-1="2 0 0 0 0 0 0 0 0 0"
    ascent="1536"
    descent="-512"
    x-height="1032"
    cap-height="1434"
    bbox="-436 -524 2494 2310"
    underline-thickness="182"
    underline-position="-450"
    unicode-range="U+0020-FEFF"
  />
<missing-glyph 
d="M2 -504v2040h1227v-2040h-1227zM455 254h172l10 154q196 33 314 144.5t118 283.5q0 180 -128.5 294.5t-311.5 114.5q-153 0 -266 -65.5t-197 -194.5l199 -123q60 87 117 126.5t136 39.5q86 0 143.5 -54.5t57.5 -137.5q0 -124 -98.5 -183.5t-294.5 -79.5zM541 -205
q66 0 113.5 47.5t47.5 112.5t-47.5 112.5t-113.5 47.5t-113 -47.5t-47 -112.5t47 -112.5t113 -47.5z" />
    <glyph glyph-name=".notdef" 
d="M2 -504v2040h1227v-2040h-1227zM455 254h172l10 154q196 33 314 144.5t118 283.5q0 180 -128.5 294.5t-311.5 114.5q-153 0 -266 -65.5t-197 -194.5l199 -123q60 87 117 126.5t136 39.5q86 0 143.5 -54.5t57.5 -137.5q0 -124 -98.5 -183.5t-294.5 -79.5zM541 -205
q66 0 113.5 47.5t47.5 112.5t-47.5 112.5t-113.5 47.5t-113 -47.5t-47 -112.5t47 -112.5t113 -47.5z" />
    <glyph glyph-name=".null" horiz-adv-x="0" 
 />
    <glyph glyph-name="nonmarkingreturn" horiz-adv-x="682" 
 />
    <glyph glyph-name="space" unicode=" " horiz-adv-x="552" 
 />
    <glyph glyph-name="exclam" unicode="!" horiz-adv-x="647" 
d="M244 436l-43 998h243l-43 -998h-157zM324 -25q-62 0 -107 45.5t-45 108.5q0 61 45 105.5t107 44.5t106.5 -44.5t44.5 -105.5q0 -63 -44 -108.5t-107 -45.5z" />
    <glyph glyph-name="quotedbl" unicode="&#x22;" horiz-adv-x="972" 
d="M371 866h-187l-26 568h239zM786 866h-186l-27 568h240z" />
    <glyph glyph-name="numbersign" unicode="#" horiz-adv-x="1384" 
d="M76 549h211l90 336h-301v172h350l102 377h193l-103 -377h336l103 377h192l-102 -377h162v-172h-211l-90 -336h301v-172h-351l-102 -377h-192l102 377h-336l-102 -377h-193l103 377h-162v172zM479 549h336l90 336h-336z" />
    <glyph glyph-name="dollar" unicode="$" 
d="M94 227l154 142q124 -142 282 -172v458q-64 24 -109 44.5t-97.5 55.5t-84.5 74t-53.5 97t-21.5 129q0 142 101 247t265 128v147h183v-147q243 -34 391 -218l-152 -137q-96 131 -239 162v-428q46 -17 80 -31t76 -35.5t71.5 -43.5t60 -53t49.5 -66t30.5 -80.5t11.5 -98.5
q-1 -158 -106 -264t-273 -131v-149h-183v147q-270 26 -436 223zM373 1061q0 -63 40.5 -105.5t116.5 -76.5v362q-78 -17 -117.5 -64t-39.5 -116zM885 397q0 67 -44.5 111t-127.5 80v-389q84 18 128 70.5t44 127.5z" />
    <glyph glyph-name="percent" unicode="%" horiz-adv-x="1691" 
d="M420 1479q151 0 248.5 -99t97.5 -243t-97.5 -243t-248.5 -99q-154 0 -251 99t-97 243t97 243t251 99zM209 2l1051 1434h219l-1051 -1434h-219zM420 940q79 0 131.5 56.5t52.5 140.5q0 85 -52 140.5t-132 55.5q-82 0 -134.5 -55.5t-52.5 -140.5t53 -141t134 -56zM1272 645
q151 0 248.5 -99t97.5 -243t-97.5 -243t-248.5 -99q-154 0 -251 99t-97 243t97 243t251 99zM1272 106q79 0 131.5 56.5t52.5 140.5q0 85 -52.5 141t-131.5 56q-81 0 -134 -56t-53 -141t53 -141t134 -56z" />
    <glyph glyph-name="ampersand" unicode="&#x26;" horiz-adv-x="1521" 
d="M1477 0h-275l-131 125q-184 -166 -444 -166q-226 0 -368 123t-142 332q0 136 74 236t194 153q-64 78 -94.5 151.5t-30.5 159.5q0 157 109.5 259t287.5 102q168 0 276.5 -98t108.5 -257q0 -139 -83.5 -232.5t-225.5 -142.5l318 -317q82 139 129 340h217
q-75 -301 -197 -489zM477 1102q0 -39 9 -71t31 -62t38.5 -47.5t52.5 -51.5q122 35 178 93.5t56 148.5q0 72 -48.5 122t-129.5 50q-87 0 -137 -51t-50 -131zM338 414q0 -121 85.5 -191.5t215.5 -70.5q160 0 285 116l-398 385q-2 2 -7 7.5t-7 7.5q-82 -36 -128 -101.5
t-46 -152.5z" />
    <glyph glyph-name="quotesingle" unicode="'" horiz-adv-x="552" 
d="M371 866h-187l-26 568h239z" />
    <glyph glyph-name="parenleft" unicode="(" horiz-adv-x="696" 
d="M305 565q0 -509 342 -848l-153 -127q-191 176 -295.5 424.5t-104.5 550.5q0 299 108 547.5t292 423.5l153 -127q-342 -339 -342 -844z" />
    <glyph glyph-name="parenright" unicode=")" horiz-adv-x="696" 
d="M389 561q0 512 -342 848l154 127q188 -174 293.5 -423t105.5 -552q0 -301 -106 -549.5t-293 -421.5l-154 127q342 336 342 844z" />
    <glyph glyph-name="asterisk" unicode="*" horiz-adv-x="917" 
d="M774 743l-147 -104l-168 264l-168 -264l-148 104l201 242l-303 78l55 174l293 -117l-20 314h182l-21 -314l291 117l56 -174l-302 -78z" />
    <glyph glyph-name="plus" unicode="+" 
d="M1128 426h-423v-426h-183v426h-424v182h424v424h183v-424h423v-182z" />
    <glyph glyph-name="comma" unicode="," horiz-adv-x="552" 
d="M264 -328h-196l178 574h241z" />
    <glyph glyph-name="hyphen" unicode="-" horiz-adv-x="634" 
d="M41 627h553v-205h-553v205z" />
    <glyph glyph-name="period" unicode="." horiz-adv-x="552" 
d="M279 -25q-64 0 -109 44.5t-45 107.5q0 62 45 107t109 45q63 0 107 -45t44 -107q0 -63 -44 -107.5t-107 -44.5z" />
    <glyph glyph-name="slash" unicode="/" horiz-adv-x="749" 
d="M27 -403l481 1939h213l-481 -1939h-213z" />
    <glyph glyph-name="zero" unicode="0" 
d="M614 1475q134 0 239 -58t170.5 -161t99.5 -239.5t34 -299.5t-34 -299.5t-99.5 -239.5t-170.5 -161t-239 -58t-239 58t-171 161t-100 239.5t-34 299.5t34 299.5t100 239.5t171 161t239 58zM614 1266q-152 0 -232.5 -150.5t-80.5 -398.5q0 -250 80.5 -399.5t232.5 -149.5
q101 0 172.5 71.5t105.5 193.5t34 284q0 249 -80.5 399t-231.5 150z" />
    <glyph glyph-name="one" unicode="1" horiz-adv-x="946" 
d="M465 2v1204l-342 -190l-115 160l461 260h219v-1434h-223z" />
    <glyph glyph-name="two" unicode="2" 
d="M131 0v203l487 493q124 127 171 198.5t47 164.5q0 100 -64.5 157.5t-165.5 57.5q-104 0 -178.5 -53.5t-138.5 -159.5l-185 113q193 301 523 301q187 0 312.5 -110.5t125.5 -287.5q0 -70 -20.5 -136t-64.5 -130.5t-88 -115.5t-114 -122l-375 -370h701v-203h-973z" />
    <glyph glyph-name="three" unicode="3" 
d="M1118 401q0 -197 -144 -319.5t-366 -122.5q-189 0 -320 76.5t-220 228.5l196 121q63 -118 145 -171.5t197 -53.5q124 0 203.5 68t79.5 184q0 113 -77 180t-206 67h-239v201h215q109 0 175 58t66 153t-63 149t-164 54q-177 0 -279 -178l-184 112q165 267 477 267
q194 0 319.5 -105t125.5 -276q0 -102 -45.5 -186t-132.5 -136q116 -54 178.5 -151t62.5 -220z" />
    <glyph glyph-name="four" unicode="4" 
d="M78 399v203l649 832h266v-832h158v-203h-158v-399h-223v399h-692zM313 602h457v584z" />
    <glyph glyph-name="five" unicode="5" 
d="M201 662l41 772h819v-203h-604l-21 -369h164q260 0 390 -118t130 -324q0 -209 -144 -335t-366 -126q-364 0 -540 305l196 121q64 -117 147 -171t197 -54q124 0 202.5 68t78.5 184t-79 183t-222 67h-389z" />
    <glyph glyph-name="six" unicode="6" 
d="M686 1475q301 0 469 -240l-176 -139q-62 87 -133 130.5t-162 43.5q-175 0 -268.5 -132t-102.5 -378q148 145 375 145q135 0 240.5 -61.5t162 -165.5t56.5 -232q0 -205 -138 -346t-368 -141q-267 0 -414 190t-147 551q0 174 36 314t108.5 244t189.5 160.5t272 56.5z
M651 705q-213 0 -332 -168q46 -373 318 -373q128 0 203 77t75 197q0 115 -74.5 191t-189.5 76z" />
    <glyph glyph-name="seven" unicode="7" 
d="M422 0h-258l741 1231h-772v203h1012v-203z" />
    <glyph glyph-name="eight" unicode="8" 
d="M614 1475q218 0 342.5 -109.5t124.5 -271.5q0 -104 -51.5 -185.5t-148.5 -126.5q129 -51 197.5 -150t68.5 -233q0 -193 -142 -316.5t-391 -123.5q-247 0 -389.5 123.5t-142.5 316.5q0 134 69 233t199 150q-99 45 -151 126.5t-52 185.5q0 161 125 271t342 110zM618 866
q103 0 167.5 57t64.5 150q0 92 -64.5 149.5t-167.5 57.5q-109 0 -174 -57t-65 -150q0 -94 65 -150.5t174 -56.5zM616 156q135 0 217 70t82 184q0 118 -82.5 191t-216.5 73q-137 0 -220 -73t-83 -191q0 -116 82.5 -185t220.5 -69z" />
    <glyph glyph-name="nine" unicode="9" 
d="M539 -41q-301 0 -469 240l174 139q123 -174 295 -174q176 0 269.5 131.5t102.5 378.5q-149 -146 -374 -146q-135 0 -240.5 61.5t-162 165.5t-56.5 232q0 133 59.5 243t176 177.5t270.5 67.5q266 0 413.5 -190.5t147.5 -551.5q0 -174 -36 -314t-108.5 -244t-189.5 -160
t-272 -56zM309 995q0 -115 74 -190.5t190 -75.5q213 0 332 168q-46 373 -319 373q-126 0 -201.5 -77.5t-75.5 -197.5z" />
    <glyph glyph-name="colon" unicode=":" horiz-adv-x="552" 
d="M279 754q-64 0 -109 45t-45 108q0 62 45 106t109 44q63 0 107 -44t44 -106q0 -63 -44 -108t-107 -45zM279 -25q-64 0 -109 44.5t-45 107.5q0 62 45 107t109 45q63 0 107 -45t44 -107q0 -63 -44 -107.5t-107 -44.5z" />
    <glyph glyph-name="semicolon" unicode=";" horiz-adv-x="552" 
d="M279 754q-64 0 -109 45t-45 108q0 62 45 106t109 44q63 0 107 -44t44 -106q0 -63 -44 -108t-107 -45zM213 -328h-197l181 574h239z" />
    <glyph glyph-name="less" unicode="&#x3c;" 
d="M1128 197v-197l-1030 412v209l1030 411v-196l-823 -320z" />
    <glyph glyph-name="equal" unicode="=" 
d="M1128 643h-1030v182h1030v-182zM1128 207h-1030v182h1030v-182z" />
    <glyph glyph-name="greater" unicode="&#x3e;" 
d="M98 197l824 319l-824 320v196l1030 -411v-209l-1030 -412v197z" />
    <glyph glyph-name="question" unicode="?" horiz-adv-x="1050" 
d="M362 436l-26 322q211 25 317.5 93t106.5 202q0 96 -65.5 159.5t-164.5 63.5q-87 0 -150.5 -41.5t-127.5 -132.5l-182 112q173 261 471 261q121 0 223 -52.5t163.5 -150t61.5 -219.5q0 -179 -124 -295.5t-330 -151.5l-13 -170h-160zM444 -25q-63 0 -108 45.5t-45 108.5
q0 60 45 105t108 45q61 0 106.5 -45t45.5 -105q0 -63 -45 -108.5t-107 -45.5z" />
    <glyph glyph-name="at" unicode="@" horiz-adv-x="1712" 
d="M471 512q0 155 96 263t252 108q133 0 228 -95v68h165v-479q0 -44 25.5 -71t65.5 -27q73 0 120 86.5t47 226.5q0 151 -77 276.5t-215.5 199t-309.5 73.5q-178 0 -321.5 -86t-222 -229t-78.5 -312q0 -170 78.5 -313.5t222 -229.5t321.5 -86q136 0 245 39t220 135l80 -120
q-122 -96 -253 -139.5t-294 -43.5q-168 0 -313.5 61t-244.5 164t-155.5 241.5t-56.5 291.5t56.5 291.5t155.5 241.5t244.5 164t313.5 61q163 0 304 -54t238 -146t152.5 -216.5t55.5 -263.5q0 -196 -89 -322.5t-237 -126.5q-77 0 -132 34t-81 91q-98 -125 -258 -125
q-156 0 -252 107t-96 262zM651 512q0 -92 54.5 -153.5t142.5 -61.5q118 0 199 119v188q-79 123 -199 123q-88 0 -142.5 -61t-54.5 -154z" />
    <glyph glyph-name="A" unicode="A" horiz-adv-x="1519" 
d="M45 0l559 1434h311l560 -1434h-252l-152 401h-625l-151 -401h-250zM524 602h469l-233 619z" />
    <glyph glyph-name="B" unicode="B" horiz-adv-x="1261" 
d="M221 0v1434h383q214 0 336.5 -102t122.5 -279q0 -92 -42.5 -167t-121.5 -122q119 -47 183.5 -138t64.5 -210q0 -192 -137 -304t-373 -112h-416zM608 1235h-153v-385h153q100 0 155.5 51.5t55.5 145.5q0 89 -55.5 138.5t-155.5 49.5zM649 653h-194v-454h194q120 0 187 60
t67 167q0 108 -67 167.5t-187 59.5z" />
    <glyph glyph-name="C" unicode="C" horiz-adv-x="1536" 
d="M854 180q131 0 238.5 58.5t177.5 158.5l188 -145q-103 -136 -258.5 -214.5t-345.5 -78.5q-165 0 -307.5 61t-240 164t-153 241.5t-55.5 291.5t55.5 291.5t153 241.5t240 164t307.5 61q190 0 345.5 -78.5t258.5 -214.5l-188 -146q-70 100 -177.5 158.5t-238.5 58.5
q-147 0 -265 -71.5t-183.5 -194t-65.5 -270.5q0 -228 146 -382.5t368 -154.5z" />
    <glyph glyph-name="D" unicode="D" horiz-adv-x="1632" 
d="M221 0v1434h557q165 0 307.5 -57.5t240 -155.5t153 -229t55.5 -275t-55.5 -275t-153 -229t-240 -155.5t-307.5 -57.5h-557zM780 1219h-325v-1004h325q220 0 365 145t145 357q0 139 -65 254t-182 181.5t-263 66.5z" />
    <glyph glyph-name="E" unicode="E" horiz-adv-x="1171" 
d="M221 0v1434h799v-199h-565v-406h483v-198h-483v-432h565v-199h-799z" />
    <glyph glyph-name="F" unicode="F" horiz-adv-x="1089" 
d="M221 0v1434h799v-199h-565v-406h483v-198h-483v-631h-234z" />
    <glyph glyph-name="G" unicode="G" horiz-adv-x="1644" 
d="M874 180q118 0 218.5 42.5t171.5 117.5v289h-396v202h631v-579q-104 -137 -266 -215t-359 -78q-169 0 -315.5 61t-246.5 164t-157 241.5t-57 291.5t55.5 291.5t153 241.5t240 164t307.5 61q190 0 345.5 -78.5t258.5 -214.5l-188 -146q-70 100 -177.5 158.5t-238.5 58.5
q-147 0 -265 -71.5t-183.5 -194t-65.5 -270.5q0 -149 68 -272t190.5 -194t275.5 -71z" />
    <glyph glyph-name="H" unicode="H" horiz-adv-x="1716" 
d="M221 0v1434h234v-596h807v596h235v-1434h-235v623h-807v-623h-234z" />
    <glyph glyph-name="I" unicode="I" horiz-adv-x="675" 
d="M221 0v1434h234v-1434h-234z" />
    <glyph glyph-name="J" unicode="J" horiz-adv-x="698" 
d="M481 111q0 -455 -424 -455q-70 0 -106 8v209q31 -8 76 -8q107 0 163 53t56 180v1336h235v-1323z" />
    <glyph glyph-name="K" unicode="K" horiz-adv-x="1501" 
d="M221 0v1434h234v-686l690 686h295l-604 -600l612 -834h-289l-487 672l-217 -215v-457h-234z" />
    <glyph glyph-name="L" unicode="L" horiz-adv-x="1089" 
d="M221 0v1434h234v-1219h565v-215h-799z" />
    <glyph glyph-name="M" unicode="M" horiz-adv-x="1830" 
d="M221 0v1434h297l397 -672l402 672h297v-1434h-236v1110l-374 -618h-173l-376 622v-1114h-234z" />
    <glyph glyph-name="N" unicode="N" horiz-adv-x="1716" 
d="M221 0v1434h303l738 -1133v1133h235v-1434h-305l-737 1133v-1133h-234z" />
    <glyph glyph-name="O" unicode="O" horiz-adv-x="1708" 
d="M854 1475q164 0 306.5 -61t240.5 -164t153.5 -241.5t55.5 -291.5t-55.5 -291.5t-153.5 -241.5t-240.5 -164t-306.5 -61q-165 0 -307.5 61t-240 164t-153 241.5t-55.5 291.5t55.5 291.5t153 241.5t240 164t307.5 61zM854 180q146 0 264 71.5t183 194.5t65 271
q0 228 -145 382t-367 154q-147 0 -265 -71.5t-183.5 -194t-65.5 -270.5q0 -228 146 -382.5t368 -154.5z" />
    <glyph glyph-name="P" unicode="P" horiz-adv-x="1204" 
d="M221 0v1434h441q225 0 355 -111.5t130 -302.5t-130 -302.5t-355 -111.5h-207v-606h-234zM672 1235h-217v-430h217q109 0 170 58t61 161q0 97 -61.5 154t-169.5 57z" />
    <glyph glyph-name="Q" unicode="Q" horiz-adv-x="1708" 
d="M1413 6q159 -141 311 -141q60 0 103 14v-201q-64 -22 -139 -22q-225 0 -431 180l-178 154q-112 -31 -225 -31q-165 0 -307.5 61t-240 164t-153 241.5t-55.5 291.5t55.5 291.5t153 241.5t240 164t307.5 61q164 0 306.5 -61t240.5 -164t153.5 -241.5t55.5 -291.5
q0 -186 -80.5 -348t-222.5 -267zM854 180q146 0 264 71.5t183 194.5t65 271q0 228 -145 382t-367 154q-147 0 -265 -71.5t-183.5 -194t-65.5 -270.5q0 -228 146 -382.5t368 -154.5z" />
    <glyph glyph-name="R" unicode="R" horiz-adv-x="1337" 
d="M221 0v1434h406q225 0 355 -111.5t130 -302.5q0 -130 -61 -225t-174 -142l454 -653h-278l-400 606h-26h-172v-606h-234zM639 1235h-184v-430h184q108 0 168.5 58t60.5 161q0 98 -60.5 154.5t-168.5 56.5z" />
    <glyph glyph-name="S" unicode="S" horiz-adv-x="1204" 
d="M102 199l172 157q147 -186 334 -186q105 0 164 54.5t59 146.5q0 60 -37 107t-95.5 79.5t-129.5 64t-142.5 69.5t-130 86t-95.5 124.5t-37 173.5q0 167 125 283.5t317 116.5q284 0 475 -238l-174 -156q-133 185 -299 185q-93 0 -149 -51.5t-56 -133.5q0 -59 37 -105.5
t96 -79t130 -63.5t142 -69.5t130 -86.5t96 -125t37 -175q-3 -189 -133 -303.5t-326 -114.5q-164 0 -288 60.5t-222 179.5z" />
    <glyph glyph-name="T" unicode="T" horiz-adv-x="1294" 
d="M68 1219v215h1157v-215h-461v-1219h-236v1219h-460z" />
    <glyph glyph-name="U" unicode="U" horiz-adv-x="1490" 
d="M1077 532v902h236v-885q0 -277 -152 -433.5t-413 -156.5q-262 0 -415 157t-153 433v885h234v-902q0 -167 89.5 -259.5t244.5 -92.5q152 0 240.5 92.5t88.5 259.5z" />
    <glyph glyph-name="V" unicode="V" horiz-adv-x="1519" 
d="M45 1434h250l465 -1188l463 1188h252l-562 -1434h-309z" />
    <glyph glyph-name="W" unicode="W" horiz-adv-x="2158" 
d="M61 1434h234l293 -1168l336 1168h311l334 -1172l297 1172h231l-362 -1434h-318l-338 1180l-340 -1180h-315z" />
    <glyph glyph-name="X" unicode="X" horiz-adv-x="1488" 
d="M334 0h-281l525 743l-484 691h279l370 -523l373 523h281l-488 -691l527 -743h-281l-412 578z" />
    <glyph glyph-name="Y" unicode="Y" horiz-adv-x="1413" 
d="M1411 1434l-586 -805v-629h-235v627l-586 807h285l418 -576l419 576h285z" />
    <glyph glyph-name="Z" unicode="Z" horiz-adv-x="1392" 
d="M117 0v215l850 1004h-830v215h1116v-215l-847 -1004h868v-215h-1157z" />
    <glyph glyph-name="bracketleft" unicode="[" horiz-adv-x="649" 
d="M141 1536h475v-182h-276v-1575h276v-182h-475v1939z" />
    <glyph glyph-name="backslash" unicode="\" horiz-adv-x="749" 
d="M721 -403h-213l-481 1939h213z" />
    <glyph glyph-name="bracketright" unicode="]" horiz-adv-x="649" 
d="M510 -403h-475v182h274v1575h-274v182h475v-1939z" />
    <glyph glyph-name="asciicircum" unicode="^" 
d="M391 315h-190l274 463h279l274 -463h-190l-224 355z" />
    <glyph glyph-name="underscore" unicode="_" horiz-adv-x="1105" 
d="M18 -178h1069v-182h-1069v182z" />
    <glyph glyph-name="grave" unicode="`" 
d="M633 1196l-242 340h234l213 -340h-205z" />
    <glyph glyph-name="a" unicode="a" horiz-adv-x="1155" 
d="M457 -31q-155 0 -249.5 81.5t-94.5 217.5q0 118 88.5 197.5t251.5 107.5l333 56v53q0 94 -63 149.5t-164 55.5q-165 0 -260 -135l-158 120q71 95 180 148t244 53q204 0 318 -108t114 -283v-682h-211v117q-56 -68 -145 -108t-184 -40zM326 276q0 -61 45.5 -98t124.5 -37
q95 0 169 42.5t121 117.5v178l-278 -47q-182 -32 -182 -156z" />
    <glyph glyph-name="b" unicode="b" horiz-adv-x="1349" 
d="M1257 516q0 -151 -63 -277t-184.5 -203t-278.5 -77q-210 0 -348 147v-106h-211v1536h211v-610q138 147 348 147q157 0 278.5 -77t184.5 -203t63 -277zM705 874q-101 0 -184.5 -45.5t-137.5 -128.5v-368q117 -174 322 -174q147 0 239 102t92 256t-92 256t-239 102z" />
    <glyph glyph-name="c" unicode="c" horiz-adv-x="1138" 
d="M655 158q85 0 154.5 37t114.5 100l166 -127q-72 -98 -185 -153.5t-252 -55.5q-168 0 -298 77t-197.5 203t-67.5 277t67.5 277t197.5 203t298 77q138 0 251.5 -55.5t185.5 -153.5l-166 -127q-45 63 -115 100t-156 37q-148 0 -245 -102.5t-97 -255.5q0 -154 97 -256
t247 -102z" />
    <glyph glyph-name="d" unicode="d" horiz-adv-x="1345" 
d="M90 516q0 152 63 277.5t185 202.5t280 77q209 0 345 -145v608h215v-1536h-215v104q-136 -145 -345 -145q-158 0 -280 77t-185 202.5t-63 277.5zM313 516q0 -154 92.5 -256t239.5 -102q99 0 182 45t136 127v372q-57 84 -139 128t-179 44q-147 0 -239.5 -102t-92.5 -256z
" />
    <glyph glyph-name="e" unicode="e" horiz-adv-x="1187" 
d="M1104 168q-73 -99 -189 -154t-258 -55q-130 0 -238 44.5t-179.5 121t-110.5 177.5t-39 214q0 116 36 217.5t102.5 177t166 119t219.5 43.5q211 0 340 -129t129 -328q0 -70 -14 -124h-762q10 -166 104 -254t246 -88q92 0 168.5 37.5t124.5 103.5zM610 897q-116 0 -192 -64
t-101 -184h555q-3 103 -73 175.5t-189 72.5z" />
    <glyph glyph-name="f" unicode="f" horiz-adv-x="808" 
d="M39 1032h194v119q0 168 103.5 276.5t279.5 108.5q130 0 232 -57l-90 -179q-60 46 -137 46q-79 0 -127 -51t-48 -138v-125h342v-190h-342v-842h-213v842h-194v190z" />
    <glyph glyph-name="g" unicode="g" horiz-adv-x="1140" 
d="M61 -184q0 147 148 258q-68 59 -68 147q0 121 119 203q-67 51 -104 126t-37 161q0 154 110.5 258t294.5 104q116 0 203 -41h381v-180h-203q29 -69 29 -141q0 -156 -111.5 -261.5t-298.5 -105.5q-57 0 -125 14q-51 -42 -51 -88q0 -67 78 -67h281q193 0 296 -89.5
t103 -234.5q0 -169 -149 -280t-382 -111q-240 0 -377 85.5t-137 242.5zM526 506q98 0 154.5 57.5t56.5 147.5q0 88 -56.5 144t-154.5 56t-154.5 -56t-56.5 -144q0 -90 56.5 -147.5t154.5 -57.5zM262 -156q0 -86 81.5 -135t227.5 -49q152 0 238 54.5t86 146.5q0 157 -209 157
h-328q-96 -76 -96 -174z" />
    <glyph glyph-name="h" unicode="h" horiz-adv-x="1267" 
d="M172 0v1536h211v-604q134 141 328 141q179 0 290 -117.5t111 -334.5v-621h-213v612q0 123 -63.5 192.5t-173.5 69.5q-170 0 -279 -178v-696h-211z" />
    <glyph glyph-name="i" unicode="i" horiz-adv-x="555" 
d="M279 1262q-59 0 -101.5 42.5t-42.5 100.5t42.5 100.5t101.5 42.5t101 -42t42 -101t-42 -101t-101 -42zM172 0v1032h211v-1032h-211z" />
    <glyph glyph-name="j" unicode="j" horiz-adv-x="555" 
d="M274 1262q-58 0 -100.5 42t-42.5 101t42.5 101t100.5 42q59 0 101.5 -42.5t42.5 -100.5t-42.5 -100.5t-101.5 -42.5zM383 -125q0 -387 -367 -387q-110 0 -186 31v186q55 -22 154 -22q92 0 140 43.5t48 148.5v1157h211v-1157z" />
    <glyph glyph-name="k" unicode="k" horiz-adv-x="1128" 
d="M176 0v1536h213v-950l438 446h269l-428 -434l432 -598h-262l-322 446l-127 -129v-317h-213z" />
    <glyph glyph-name="l" unicode="l" horiz-adv-x="555" 
d="M172 0v1536h211v-1536h-211z" />
    <glyph glyph-name="m" unicode="m" horiz-adv-x="1912" 
d="M172 0v1032h211v-96q127 137 307 137q107 0 192 -47.5t134 -138.5q69 88 153 137t207 49q168 0 274.5 -112.5t106.5 -319.5v-641h-213v633q0 113 -58.5 177t-158.5 64q-159 0 -258 -176q2 -18 2 -57v-641h-213v633q0 114 -57.5 177.5t-159.5 63.5q-159 0 -258 -178v-696
h-211z" />
    <glyph glyph-name="n" unicode="n" horiz-adv-x="1267" 
d="M172 0v1032h211v-100q134 141 328 141q177 0 289 -117.5t112 -334.5v-621h-213v612q0 123 -63.5 192.5t-173.5 69.5q-174 0 -279 -178v-696h-211z" />
    <glyph glyph-name="o" unicode="o" horiz-adv-x="1304" 
d="M651 1073q123 0 229 -44.5t178 -120t113 -177t41 -215.5t-41 -215.5t-113 -177t-178 -120t-229 -44.5q-122 0 -228 44.5t-178.5 119.5t-113.5 177t-41 216t41 216t113.5 177t178.5 119.5t228 44.5zM653 158q145 0 241.5 104.5t96.5 253.5q0 152 -96.5 255t-241.5 103
q-148 0 -245 -103.5t-97 -254.5t97 -254.5t245 -103.5z" />
    <glyph glyph-name="p" unicode="p" horiz-adv-x="1347" 
d="M172 -504v1536h211v-106q138 147 348 147q157 0 278.5 -77t184.5 -203t63 -277t-63 -277t-184.5 -203t-278.5 -77q-210 0 -348 147v-610h-211zM705 874q-101 0 -183.5 -45.5t-138.5 -130.5v-364q57 -86 139.5 -131t182.5 -45q147 0 239 102t92 256t-92 256t-239 102z" />
    <glyph glyph-name="q" unicode="q" horiz-adv-x="1347" 
d="M90 516q0 151 63 277t184.5 203t278.5 77q213 0 347 -147v106h215v-1536h-215v610q-134 -147 -347 -147q-157 0 -278.5 77t-184.5 203t-63 277zM311 516q0 -154 92.5 -256t239.5 -102q101 0 184 45t136 127v372q-116 172 -320 172q-147 0 -239.5 -102t-92.5 -256z" />
    <glyph glyph-name="r" unicode="r" horiz-adv-x="821" 
d="M172 0v1032h211v-117q124 138 289 138q39 0 90 -15v-207q-62 15 -109 15q-175 0 -270 -158v-688h-211z" />
    <glyph glyph-name="s" unicode="s" horiz-adv-x="919" 
d="M70 145l145 127q111 -141 252 -141q73 0 114.5 39t41.5 100q0 42 -28 73.5t-72.5 53t-98.5 42t-108 46.5t-98.5 60.5t-72.5 91.5t-28 131q0 129 98.5 217t251.5 88q110 0 205 -47.5t153 -124.5l-143 -125q-93 125 -213 125q-71 0 -109 -36t-38 -91q0 -42 28 -73.5
t72.5 -53t98 -42t107.5 -46.5t98.5 -59.5t72.5 -89t28 -127.5q-1 -98 -50.5 -173t-130 -113t-177.5 -38q-246 0 -399 186z" />
    <glyph glyph-name="t" unicode="t" horiz-adv-x="868" 
d="M233 358v484h-194v190h194v258h213v-258h342v-190h-342v-484q0 -99 48.5 -141.5t140.5 -42.5t153 23v-187q-74 -30 -186 -30q-182 0 -275.5 95t-93.5 283z" />
    <glyph glyph-name="u" unicode="u" horiz-adv-x="1234" 
d="M872 442v590h213v-579q0 -231 -125 -362.5t-342 -131.5q-219 0 -343.5 131.5t-124.5 362.5v579h212v-590q0 -134 67.5 -209t188.5 -75q119 0 186.5 75.5t67.5 208.5z" />
    <glyph glyph-name="v" unicode="v" horiz-adv-x="1099" 
d="M20 1032h228l303 -803l301 803h229l-391 -1032h-280z" />
    <glyph glyph-name="w" unicode="w" horiz-adv-x="1673" 
d="M61 1032h211l199 -811l221 811h289l219 -811l201 811h209l-252 -1032h-297l-223 829l-228 -829h-293z" />
    <glyph glyph-name="x" unicode="x" horiz-adv-x="1112" 
d="M291 0h-246l373 532l-348 500h243l244 -354l244 354h243l-350 -500l373 -532h-242l-268 389z" />
    <glyph glyph-name="y" unicode="y" horiz-adv-x="1134" 
d="M582 -244q-112 -268 -375 -268q-96 0 -174 33v188q60 -26 131 -26q82 0 137 34.5t90 118.5l70 166l-441 1030h234l319 -760l316 760h225z" />
    <glyph glyph-name="z" unicode="z" horiz-adv-x="1060" 
d="M106 0v190l574 652h-559v190h819v-190l-573 -652h587v-190h-848z" />
    <glyph glyph-name="braceleft" unicode="{" horiz-adv-x="649" 
d="M340 -78q0 -65 38.5 -104t102.5 -39h135v-182h-137q-158 0 -248 88.5t-90 236.5q0 64 27.5 147t54.5 158.5t27 120.5q0 127 -113 127h-110v184h110q113 0 113 127q0 45 -27 120t-54.5 157.5t-27.5 146.5q0 149 90 237.5t248 88.5h137v-182h-135q-64 0 -102.5 -39.5
t-38.5 -104.5q0 -49 28 -124t56.5 -156t28.5 -144q0 -146 -115 -219q115 -73 115 -219q0 -63 -28.5 -144.5t-56.5 -157t-28 -124.5z" />
    <glyph glyph-name="bar" unicode="|" horiz-adv-x="749" 
d="M274 -403v1939h201v-1939h-201z" />
    <glyph glyph-name="braceright" unicode="}" horiz-adv-x="649" 
d="M311 -78q0 49 -27.5 124t-55 156t-27.5 144q0 148 114 219q-114 70 -114 219q0 63 27.5 144.5t55 157t27.5 124.5q0 65 -37.5 104.5t-101.5 39.5h-137v182h139q157 0 247.5 -88.5t90.5 -237.5q0 -64 -28 -147t-55.5 -158.5t-27.5 -120.5q0 -127 115 -127h111v-184h-111
q-115 0 -115 -127q0 -45 27.5 -120t55.5 -157.5t28 -146.5q0 -149 -90.5 -237t-247.5 -88h-139v182h137q64 0 101.5 39t37.5 104z" />
    <glyph glyph-name="asciitilde" unicode="~" 
d="M1047 766v-156q0 -133 -61.5 -215t-172.5 -82q-59 0 -107 23t-76.5 57.5t-55 74.5t-45.5 74.5t-45 57.5t-56 23q-90 0 -90 -123v-172h-158v164q0 132 61.5 210t172.5 78q71 0 125 -32t85.5 -77t57.5 -90.5t56 -77.5t65 -32q86 0 86 123v172h158z" />
    <glyph glyph-name="nbspace" unicode="&#xa0;" horiz-adv-x="552" 
 />
    <glyph glyph-name="exclamdown" unicode="&#xa1;" horiz-adv-x="647" 
d="M324 1073q62 0 106.5 -45t44.5 -108q0 -61 -44.5 -105.5t-106.5 -44.5q-63 0 -107.5 44t-44.5 106q0 63 44.5 108t107.5 45zM403 612l41 -997h-241l41 997h159z" />
    <glyph glyph-name="cent" unicode="&#xa2;" 
d="M569 1434h183v-166q232 -24 368 -203l-172 -133q-72 108 -196 135v-700q129 28 196 131l172 -129q-64 -87 -158.5 -141t-209.5 -66v-162h-183v168q-206 36 -328 189.5t-122 357.5t122 357.5t328 189.5v172zM340 715q0 -121 62 -211.5t167 -124.5v676q-105 -35 -167 -127
t-62 -213z" />
    <glyph glyph-name="sterling" unicode="&#xa3;" 
d="M139 0v203l170 153q76 68 103.5 112.5t27.5 109.5q0 22 -6 43h-295v178h197q-36 52 -55.5 85.5t-38 89.5t-17.5 111q0 169 118 279.5t304 110.5q146 0 245.5 -58.5t172.5 -171.5l-170 -129q-90 156 -236 156q-93 0 -151.5 -55.5t-58.5 -147.5q0 -26 5.5 -53t11 -45.5
t22 -47.5t23.5 -40t30 -44t28 -40h439v-178h-363q4 -28 4 -46q-1 -92 -41 -164.5t-137 -160.5l-55 -47h694v-203h-971z" />
    <glyph glyph-name="currency" unicode="&#xa4;" 
d="M1001 0l-217 217q-74 -41 -170 -41t-170 41l-219 -219l-127 129l215 217q-45 79 -45 174q0 96 43 172l-211 211l127 129l213 -211q74 41 174 41q101 0 174 -43l213 213l129 -127l-212 -213q45 -76 45 -172q0 -97 -48 -176l215 -215zM616 322q78 0 131.5 56.5t53.5 139.5
q0 84 -53.5 140.5t-131.5 56.5q-82 0 -135 -56t-53 -141t53 -140.5t135 -55.5z" />
    <glyph glyph-name="yen" unicode="&#xa5;" 
d="M119 463v178h383v147h-383v181h243l-303 465h263l294 -457l295 457h258l-301 -465h242v-181h-383v-147h383v-178h-383v-463h-225v463h-383z" />
    <glyph glyph-name="brokenbar" unicode="&#xa6;" horiz-adv-x="749" 
d="M475 815h-201v721h201v-721zM475 -403h-201v720h201v-720z" />
    <glyph glyph-name="section" unicode="&#xa7;" horiz-adv-x="1077" 
d="M719 -43q0 47 -21.5 83t-58 59.5t-84 43t-99.5 37t-104.5 37.5t-100 48.5t-84 66t-58 94.5t-21.5 129q1 99 52 172t136 113q-135 95 -135 274q0 153 114 257t290 104q253 0 426 -201l-131 -135q-122 157 -295 157q-88 0 -142.5 -49.5t-54.5 -126.5q0 -47 21.5 -83
t58 -59.5t84 -43t100 -37t104.5 -37.5t99.5 -49t84 -66.5t58 -95t21.5 -129.5q-3 -97 -54 -169.5t-134 -112.5q135 -95 135 -273q0 -154 -113.5 -258t-288.5 -104q-258 0 -430 200l133 134q126 -156 295 -156q89 0 143 49t54 127zM297 563q0 -27 8 -50.5t18 -40.5t33.5 -35
t38 -28t50 -25t51.5 -21t59.5 -21t58.5 -20q71 19 113.5 69.5t42.5 120.5q0 24 -5 45.5t-17.5 39.5t-24 32t-34 28t-38.5 23t-46 21t-47.5 18.5t-52.5 18.5t-52 18q-71 -17 -113.5 -69t-42.5 -124z" />
    <glyph glyph-name="dieresis" unicode="&#xa8;" 
d="M403 1280q-55 0 -95 40t-40 95q0 54 40 93.5t95 39.5q54 0 94 -39.5t40 -93.5q0 -55 -40 -95t-94 -40zM827 1280q-55 0 -95 40t-40 95q0 54 40 93.5t95 39.5q54 0 94 -39.5t40 -93.5q0 -55 -40 -95t-94 -40z" />
    <glyph glyph-name="copyright" unicode="&#xa9;" horiz-adv-x="1726" 
d="M1628 717q0 -153 -56 -291.5t-155 -241.5t-244 -164t-313 -61q-167 0 -311 61t-242.5 164t-154.5 241.5t-56 291.5t56 291.5t155 241.5t244 164t313 61q167 0 311 -61t242.5 -164t154.5 -241.5t56 -291.5zM236 717q0 -172 78.5 -316.5t223 -230.5t324.5 -86
q181 0 325.5 86t223 230.5t78.5 316.5t-78.5 316.5t-223 230.5t-325.5 86q-136 0 -254 -50.5t-199 -136t-127 -201.5t-46 -245zM877 414q75 0 135 33t98 90l137 -105q-63 -85 -158 -132.5t-212 -47.5q-102 0 -190.5 37.5t-149 100.5t-95 148t-34.5 179t34.5 179t95 148
t149 100.5t190.5 37.5q116 0 211 -47.5t159 -130.5l-137 -107q-38 57 -98 90t-135 33q-126 0 -207.5 -87t-81.5 -216q0 -130 81.5 -216.5t207.5 -86.5z" />
    <glyph glyph-name="ordfeminine" unicode="&#xaa;" horiz-adv-x="733" 
d="M287 805q-94 0 -151.5 51t-57.5 139q0 75 55.5 126.5t155.5 66.5l186 33v20q0 51 -33.5 82t-89.5 31q-89 0 -139 -76l-117 84q96 127 262 127q129 0 201 -70t72 -178v-412h-156v64q-29 -40 -80.5 -64t-107.5 -24zM225 999q0 -34 25 -54.5t69 -20.5q95 0 156 92v98
l-145 -24q-105 -17 -105 -91zM115 518v148h516v-148h-516z" />
    <glyph glyph-name="guillemetleft" unicode="&#xab;" horiz-adv-x="1116" 
d="M588 98h-230l-266 410l266 410h230l-264 -410zM1022 98h-229l-267 410l267 410h229l-264 -410z" />
    <glyph glyph-name="logicalnot" unicode="&#xac;" 
d="M1128 825v-618h-182v436h-848v182h1030z" />
    <glyph glyph-name="registered" unicode="&#xae;" horiz-adv-x="1034" 
d="M977 1020q0 -189 -130 -322t-331 -133q-132 0 -238.5 62.5t-163.5 166t-57 226.5q0 189 130 322t331 133q132 0 238.5 -62.5t163.5 -166t57 -226.5zM150 1020q0 -156 104 -264.5t264 -108.5q159 0 263 108.5t104 264.5t-104 264.5t-263 108.5q-160 0 -264 -108.5
t-104 -264.5zM352 758v528h164q89 0 141 -42.5t52 -115.5q0 -93 -88 -133l133 -237h-125l-115 217h-49v-217h-113zM522 1194h-57v-127h57q33 0 51.5 16.5t18.5 46.5q0 29 -19 46.5t-51 17.5z" />
    <glyph glyph-name="macron" unicode="&#xaf;" 
d="M279 1315v160h671v-160h-671z" />
    <glyph glyph-name="degree" unicode="&#xb0;" horiz-adv-x="837" 
d="M420 1475q152 0 249 -98.5t97 -243.5t-97 -243.5t-249 -98.5q-154 0 -251 98.5t-97 243.5t97 243.5t251 98.5zM420 936q79 0 131.5 56.5t52.5 140.5q0 85 -52 140.5t-132 55.5q-82 0 -134.5 -55.5t-52.5 -140.5t53 -141t134 -56z" />
    <glyph glyph-name="plusminus" unicode="&#xb1;" 
d="M705 1032v-272h423v-182h-423v-273h-183v273h-424v182h424v272h183zM1128 0h-1030v182h1030v-182z" />
    <glyph glyph-name="twosuperior" unicode="&#xb2;" horiz-adv-x="796" 
d="M94 829v148l303 299q5 5 24 25t24.5 26.5t20 24t20 28t13 27t10.5 32.5t3 34q0 54 -35 85t-92 31q-58 0 -101 -33t-81 -96l-133 82q59 94 137 143.5t188 49.5q123 0 203 -68.5t80 -179.5q0 -46 -12.5 -87.5t-39.5 -80.5t-50.5 -66t-63.5 -67l-217 -209h407v-148h-608z
" />
    <glyph glyph-name="threesuperior" unicode="&#xb3;" horiz-adv-x="796" 
d="M713 1081q0 -127 -88.5 -201.5t-231.5 -74.5q-236 0 -342 184l144 88q35 -66 82.5 -96.5t113.5 -30.5q68 0 111 37t43 100t-43 99.5t-115 36.5h-145v145h133q58 0 94.5 30.5t36.5 82.5q0 51 -34 79.5t-89 28.5q-102 0 -156 -102l-135 84q106 164 303 164q121 0 200 -64.5
t79 -169.5q0 -129 -101 -198q67 -32 103.5 -90.5t36.5 -131.5z" />
    <glyph glyph-name="acute" unicode="&#xb4;" horiz-adv-x="1230" 
d="M596 1196h-205l213 340h234z" />
    <glyph glyph-name="paragraph" unicode="&#xb6;" horiz-adv-x="1409" 
d="M774 -403h-201v1009h-38q-220 0 -349 112t-129 302t129 302t349 112h239v-1837zM989 -403v1837h201v-1837h-201z" />
    <glyph glyph-name="periodcentered" unicode="&#xb7;" horiz-adv-x="552" 
d="M279 369q-64 0 -109 44t-45 107q0 62 45 107t109 45q63 0 107 -45t44 -107q0 -63 -44 -107t-107 -44z" />
    <glyph glyph-name="cedilla" unicode="&#xb8;" 
d="M575 16l168 -8l-112 -129q89 0 152 -52t63 -130q0 -89 -69 -148t-175 -59q-140 0 -219 70l78 110q56 -53 131 -53q41 0 66.5 21t25.5 57t-26.5 56t-71.5 20q-44 0 -82 -21l-72 86z" />
    <glyph glyph-name="onesuperior" unicode="&#xb9;" horiz-adv-x="796" 
d="M115 829v148h235v565l-198 -106l-82 116l284 158h160v-733h209v-148h-608z" />
    <glyph glyph-name="ordmasculine" unicode="&#xba;" horiz-adv-x="837" 
d="M420 1489q151 0 248.5 -99t97.5 -243t-97.5 -243t-248.5 -99q-154 0 -251 99t-97 243t97 243t251 99zM420 950q79 0 131.5 56.5t52.5 140.5q0 85 -52 140.5t-132 55.5q-82 0 -134.5 -55.5t-52.5 -140.5t53 -141t134 -56zM121 518v148h598v-148h-598z" />
    <glyph glyph-name="guillemetright" unicode="&#xbb;" horiz-adv-x="1116" 
d="M94 918h228l266 -410l-266 -410h-228l264 410zM528 918h228l266 -410l-266 -410h-228l265 410z" />
    <glyph glyph-name="onequarter" unicode="&#xbc;" horiz-adv-x="1921" 
d="M115 553v147h235v566l-198 -107l-82 117l284 158h160v-734h209v-147h-608zM430 0l1051 1434h219l-1051 -1434h-219zM1198 236v137l375 508h190v-508h92v-137h-92v-236h-164v236h-401zM1364 373h235v315z" />
    <glyph glyph-name="onehalf" unicode="&#xbd;" horiz-adv-x="2078" 
d="M115 553v147h235v566l-198 -107l-82 117l284 158h160v-734h209v-147h-608zM430 0l1051 1434h219l-1051 -1434h-219zM1376 0v147l303 299q5 5 24 25t24.5 26.5t20 24t20 28t13 27t10.5 32.5t3 34q0 54 -35 85.5t-92 31.5q-58 0 -101 -33t-81 -96l-133 82q59 93 137 142.5
t188 49.5q123 0 203 -68.5t80 -179.5q0 -46 -12.5 -87.5t-39.5 -80.5t-50.5 -66t-63.5 -67l-217 -209h408v-147h-609z" />
    <glyph glyph-name="threequarters" unicode="&#xbe;" horiz-adv-x="1847" 
d="M713 805q0 -127 -88.5 -202t-231.5 -75q-235 0 -342 185l144 88q35 -66 82.5 -96.5t113.5 -30.5q68 0 111 37t43 100t-43 99t-115 36h-145v146h133q58 0 94.5 30t36.5 82q0 51 -34 80t-89 29q-101 0 -156 -103l-135 84q106 164 303 164q122 0 200.5 -64.5t78.5 -168.5
q0 -130 -101 -199q67 -32 103.5 -90t36.5 -131zM356 0l1051 1434h219l-1051 -1434h-219zM1124 236v137l375 508h191v-508h92v-137h-92v-236h-164v236h-402zM1290 373h236v315z" />
    <glyph glyph-name="questiondown" unicode="&#xbf;" horiz-adv-x="1050" 
d="M606 1073q63 0 108.5 -45t45.5 -108q0 -61 -45.5 -105.5t-108.5 -44.5q-62 0 -106.5 44.5t-44.5 105.5q0 63 44.5 108t106.5 45zM688 612l27 -321q-212 -24 -318 -92.5t-106 -202.5q0 -96 65 -159.5t164 -63.5q87 0 151 41.5t128 132.5l184 -113q-176 -260 -471 -260
q-122 0 -224.5 52.5t-164.5 150t-62 219.5q0 180 124 295.5t331 150.5l14 170h158z" />
    <glyph glyph-name="Agrave" unicode="&#xc0;" horiz-adv-x="1519" 
d="M657 1556l-264 277h250l231 -277h-217zM45 0l559 1434h311l560 -1434h-252l-152 401h-625l-151 -401h-250zM524 602h469l-233 619z" />
    <glyph glyph-name="Aacute" unicode="&#xc1;" horiz-adv-x="1519" 
d="M868 1556h-217l232 277h250zM45 0l559 1434h311l560 -1434h-252l-152 401h-625l-151 -401h-250zM524 602h469l-233 619z" />
    <glyph glyph-name="Acircumflex" unicode="&#xc2;" horiz-adv-x="1519" 
d="M592 1556h-189l232 277h252l229 -277h-188l-168 177zM45 0l559 1434h311l560 -1434h-252l-152 401h-625l-151 -401h-250zM524 602h469l-233 619z" />
    <glyph glyph-name="Atilde" unicode="&#xc3;" horiz-adv-x="1519" 
d="M401 1565v71q0 95 55.5 152t145.5 57q48 0 97.5 -23.5t82.5 -51t68.5 -51t60.5 -23.5q23 0 36.5 16t13.5 45v68h155l2 -72q0 -97 -55.5 -153t-144.5 -56q-49 0 -98.5 23.5t-82.5 51.5t-68.5 51.5t-60.5 23.5q-49 0 -49 -64l-2 -65h-156zM45 0l559 1434h311l560 -1434
h-252l-152 401h-625l-151 -401h-250zM524 602h469l-233 619z" />
    <glyph glyph-name="Adieresis" unicode="&#xc4;" horiz-adv-x="1519" 
d="M551 1569q-53 0 -90 36.5t-37 88.5q0 51 37 87t90 36q50 0 87.5 -36.5t37.5 -86.5q0 -52 -37.5 -88.5t-87.5 -36.5zM969 1569q-51 0 -88 36.5t-37 88.5q0 51 37 87t88 36q53 0 90 -36t37 -87q0 -52 -37 -88.5t-90 -36.5zM45 0l559 1434h311l560 -1434h-252l-152 401h-625
l-151 -401h-250zM524 602h469l-233 619z" />
    <glyph glyph-name="Aring" unicode="&#xc5;" horiz-adv-x="1519" 
d="M502 1743q0 111 73.5 170t184.5 59q113 0 186.5 -58.5t73.5 -170.5q0 -110 -74 -170t-186 -60q-111 0 -184.5 60t-73.5 170zM889 1743q0 54 -35.5 83t-93.5 29t-93.5 -29t-35.5 -83q0 -53 36 -82t93 -29q56 0 92.5 29.5t36.5 81.5zM45 0l559 1434h311l560 -1434h-252
l-152 401h-625l-151 -401h-250zM524 602h469l-233 619z" />
    <glyph glyph-name="AE" unicode="&#xc6;" horiz-adv-x="2015" 
d="M33 0l899 1434h934v-199h-563v-406h481v-196h-481v-436h563v-197h-799v401h-514l-248 -401h-272zM676 602h391v635z" />
    <glyph glyph-name="Ccedilla" unicode="&#xc7;" horiz-adv-x="1536" 
d="M854 180q131 0 238.5 58.5t177.5 158.5l188 -145q-89 -119 -222 -195t-294 -94l-180 -293h-213l184 297q-188 28 -333.5 135.5t-223.5 268t-78 346.5q0 153 55.5 291.5t153 241.5t240 164t307.5 61q190 0 345.5 -78.5t258.5 -214.5l-188 -146q-70 100 -177.5 158.5
t-238.5 58.5q-147 0 -265 -71.5t-183.5 -194t-65.5 -270.5q0 -228 146 -382.5t368 -154.5z" />
    <glyph glyph-name="Egrave" unicode="&#xc8;" horiz-adv-x="1171" 
d="M518 1556l-264 277h250l231 -277h-217zM221 0v1434h799v-199h-565v-406h483v-198h-483v-432h565v-199h-799z" />
    <glyph glyph-name="Eacute" unicode="&#xc9;" horiz-adv-x="1171" 
d="M729 1556h-217l231 277h250zM221 0v1434h799v-199h-565v-406h483v-198h-483v-432h565v-199h-799z" />
    <glyph glyph-name="Ecircumflex" unicode="&#xca;" horiz-adv-x="1171" 
d="M453 1556h-189l232 277h252l229 -277h-189l-167 177zM221 0v1434h799v-199h-565v-406h483v-198h-483v-432h565v-199h-799z" />
    <glyph glyph-name="Edieresis" unicode="&#xcb;" horiz-adv-x="1171" 
d="M412 1569q-53 0 -90 36.5t-37 88.5q0 51 37 87t90 36q50 0 87.5 -36.5t37.5 -86.5q0 -52 -37.5 -88.5t-87.5 -36.5zM829 1569q-51 0 -87.5 36.5t-36.5 88.5q0 51 36.5 87t87.5 36q53 0 90 -36t37 -87q0 -52 -37 -88.5t-90 -36.5zM221 0v1434h799v-199h-565v-406h483v-198
h-483v-432h565v-199h-799z" />
    <glyph glyph-name="Igrave" unicode="&#xcc;" horiz-adv-x="675" 
d="M236 1556l-265 277h250l232 -277h-217zM221 0v1434h234v-1434h-234z" />
    <glyph glyph-name="Iacute" unicode="&#xcd;" horiz-adv-x="675" 
d="M446 1556h-217l232 277h250zM221 0v1434h234v-1434h-234z" />
    <glyph glyph-name="Icircumflex" unicode="&#xce;" horiz-adv-x="675" 
d="M170 1556h-188l231 277h252l229 -277h-188l-168 177zM221 0v1434h234v-1434h-234z" />
    <glyph glyph-name="Idieresis" unicode="&#xcf;" horiz-adv-x="675" 
d="M129 1569q-53 0 -90 36.5t-37 88.5q0 51 37 87t90 36q50 0 87.5 -36.5t37.5 -86.5q0 -52 -37.5 -88.5t-87.5 -36.5zM547 1569q-51 0 -88 36.5t-37 88.5q0 51 37 87t88 36q53 0 90 -36t37 -87q0 -52 -37 -88.5t-90 -36.5zM221 0v1434h234v-1434h-234z" />
    <glyph glyph-name="Eth" unicode="&#xd0;" horiz-adv-x="1632" 
d="M221 0v653h-221v160h221v621h557q165 0 307.5 -57.5t240 -155.5t153 -229t55.5 -275t-55.5 -275t-153 -229t-240 -155.5t-307.5 -57.5h-557zM815 653h-360v-438h325q220 0 365 145t145 357q0 139 -65 254t-182 181.5t-263 66.5h-325v-406h360v-160z" />
    <glyph glyph-name="Ntilde" unicode="&#xd1;" horiz-adv-x="1716" 
d="M500 1565v71q0 95 55 152t145 57q48 0 97.5 -23.5t82.5 -51t69 -51t61 -23.5q49 0 49 61v68h155l3 -72q0 -97 -56 -153t-145 -56q-49 0 -98.5 23.5t-82 51.5t-68 51.5t-60.5 23.5q-50 0 -50 -64l-2 -65h-155zM221 0v1434h303l738 -1133v1133h235v-1434h-305l-737 1133
v-1133h-234z" />
    <glyph glyph-name="Ograve" unicode="&#xd2;" horiz-adv-x="1708" 
d="M752 1556l-265 277h250l232 -277h-217zM854 1475q164 0 306.5 -61t240.5 -164t153.5 -241.5t55.5 -291.5t-55.5 -291.5t-153.5 -241.5t-240.5 -164t-306.5 -61q-165 0 -307.5 61t-240 164t-153 241.5t-55.5 291.5t55.5 291.5t153 241.5t240 164t307.5 61zM854 180
q146 0 264 71.5t183 194.5t65 271q0 228 -145 382t-367 154q-147 0 -265 -71.5t-183.5 -194t-65.5 -270.5q0 -228 146 -382.5t368 -154.5z" />
    <glyph glyph-name="Oacute" unicode="&#xd3;" horiz-adv-x="1708" 
d="M963 1556h-218l232 277h250zM854 1475q164 0 306.5 -61t240.5 -164t153.5 -241.5t55.5 -291.5t-55.5 -291.5t-153.5 -241.5t-240.5 -164t-306.5 -61q-165 0 -307.5 61t-240 164t-153 241.5t-55.5 291.5t55.5 291.5t153 241.5t240 164t307.5 61zM854 180q146 0 264 71.5
t183 194.5t65 271q0 228 -145 382t-367 154q-147 0 -265 -71.5t-183.5 -194t-65.5 -270.5q0 -228 146 -382.5t368 -154.5z" />
    <glyph glyph-name="Ocircumflex" unicode="&#xd4;" horiz-adv-x="1708" 
d="M686 1556h-188l231 277h252l229 -277h-188l-168 177zM854 1475q164 0 306.5 -61t240.5 -164t153.5 -241.5t55.5 -291.5t-55.5 -291.5t-153.5 -241.5t-240.5 -164t-306.5 -61q-165 0 -307.5 61t-240 164t-153 241.5t-55.5 291.5t55.5 291.5t153 241.5t240 164t307.5 61z
M854 180q146 0 264 71.5t183 194.5t65 271q0 228 -145 382t-367 154q-147 0 -265 -71.5t-183.5 -194t-65.5 -270.5q0 -228 146 -382.5t368 -154.5z" />
    <glyph glyph-name="Otilde" unicode="&#xd5;" horiz-adv-x="1708" 
d="M496 1565v71q0 95 55 152t145 57q48 0 97.5 -23.5t82.5 -51t69 -51t61 -23.5q49 0 49 61v68h155l2 -72q0 -97 -55.5 -153t-144.5 -56q-49 0 -98.5 23.5t-82.5 51.5t-68.5 51.5t-60.5 23.5q-49 0 -49 -64l-2 -65h-155zM854 1475q164 0 306.5 -61t240.5 -164t153.5 -241.5
t55.5 -291.5t-55.5 -291.5t-153.5 -241.5t-240.5 -164t-306.5 -61q-165 0 -307.5 61t-240 164t-153 241.5t-55.5 291.5t55.5 291.5t153 241.5t240 164t307.5 61zM854 180q146 0 264 71.5t183 194.5t65 271q0 228 -145 382t-367 154q-147 0 -265 -71.5t-183.5 -194
t-65.5 -270.5q0 -228 146 -382.5t368 -154.5z" />
    <glyph glyph-name="Odieresis" unicode="&#xd6;" horiz-adv-x="1708" 
d="M645 1569q-53 0 -90 36.5t-37 88.5q0 51 37 87t90 36q50 0 87.5 -36.5t37.5 -86.5q0 -52 -37.5 -88.5t-87.5 -36.5zM1063 1569q-51 0 -88 36.5t-37 88.5q0 51 37 87t88 36q53 0 90 -36t37 -87q0 -52 -37 -88.5t-90 -36.5zM854 1475q164 0 306.5 -61t240.5 -164
t153.5 -241.5t55.5 -291.5t-55.5 -291.5t-153.5 -241.5t-240.5 -164t-306.5 -61q-165 0 -307.5 61t-240 164t-153 241.5t-55.5 291.5t55.5 291.5t153 241.5t240 164t307.5 61zM854 180q146 0 264 71.5t183 194.5t65 271q0 228 -145 382t-367 154q-147 0 -265 -71.5
t-183.5 -194t-65.5 -270.5q0 -228 146 -382.5t368 -154.5z" />
    <glyph glyph-name="multiply" unicode="&#xd7;" 
d="M1001 0l-387 389l-389 -389l-127 129l387 387l-385 387l127 129l387 -387l387 387l129 -127l-389 -389l389 -389z" />
    <glyph glyph-name="Oslash" unicode="&#xd8;" horiz-adv-x="1708" 
d="M319 -41h-221l197 240q-94 102 -145.5 236t-51.5 282q0 153 55.5 291.5t153 241.5t240 164t307.5 61q241 0 430 -127l105 127h221l-197 -240q95 -104 146 -237t51 -281q0 -153 -55.5 -291.5t-153.5 -241.5t-240.5 -164t-306.5 -61q-241 0 -430 127zM340 717
q0 -200 113 -344l675 803q-123 77 -274 77q-147 0 -265 -71.5t-183.5 -194t-65.5 -270.5zM854 180q146 0 264 71.5t183 194.5t65 271q0 200 -113 344l-673 -803q124 -78 274 -78z" />
    <glyph glyph-name="Ugrave" unicode="&#xd9;" horiz-adv-x="1490" 
d="M645 1556l-264 277h250l231 -277h-217zM1077 532v902h236v-885q0 -277 -152 -433.5t-413 -156.5q-262 0 -415 157t-153 433v885h234v-902q0 -167 89.5 -259.5t244.5 -92.5q152 0 240.5 92.5t88.5 259.5z" />
    <glyph glyph-name="Uacute" unicode="&#xda;" horiz-adv-x="1490" 
d="M856 1556h-217l231 277h250zM1077 532v902h236v-885q0 -277 -152 -433.5t-413 -156.5q-262 0 -415 157t-153 433v885h234v-902q0 -167 89.5 -259.5t244.5 -92.5q152 0 240.5 92.5t88.5 259.5z" />
    <glyph glyph-name="Ucircumflex" unicode="&#xdb;" horiz-adv-x="1490" 
d="M580 1556h-189l232 277h251l230 -277h-189l-167 177zM1077 532v902h236v-885q0 -277 -152 -433.5t-413 -156.5q-262 0 -415 157t-153 433v885h234v-902q0 -167 89.5 -259.5t244.5 -92.5q152 0 240.5 92.5t88.5 259.5z" />
    <glyph glyph-name="Udieresis" unicode="&#xdc;" horiz-adv-x="1490" 
d="M539 1569q-53 0 -90 36.5t-37 88.5q0 51 37 87t90 36q50 0 87.5 -36.5t37.5 -86.5q0 -52 -37.5 -88.5t-87.5 -36.5zM956 1569q-51 0 -88 36.5t-37 88.5q0 51 37 87t88 36q53 0 90 -36t37 -87q0 -52 -37 -88.5t-90 -36.5zM1077 532v902h236v-885q0 -277 -152 -433.5
t-413 -156.5q-262 0 -415 157t-153 433v885h234v-902q0 -167 89.5 -259.5t244.5 -92.5q152 0 240.5 92.5t88.5 259.5z" />
    <glyph glyph-name="Yacute" unicode="&#xdd;" horiz-adv-x="1413" 
d="M815 1556h-217l231 277h250zM1411 1434l-586 -805v-629h-235v627l-586 807h285l418 -576l419 576h285z" />
    <glyph glyph-name="Thorn" unicode="&#xde;" horiz-adv-x="1204" 
d="M221 0v1434h234v-287h207q225 0 355 -111.5t130 -302.5t-130 -302.5t-355 -111.5h-207v-319h-234zM672 950h-217v-432h217q109 0 170 56.5t61 160.5q0 100 -61.5 157.5t-169.5 57.5z" />
    <glyph glyph-name="germandbls" unicode="&#xdf;" horiz-adv-x="1224" 
d="M672 -8q-66 0 -115 12v199q50 -13 102 -13q114 0 184 66.5t70 175.5q0 106 -75.5 177t-192.5 71h-88v201h76q103 0 165 64.5t62 170.5q0 96 -64.5 158.5t-166.5 62.5q-110 0 -177 -62t-67 -167v-1108h-213v1108q0 188 125.5 308t337.5 120q203 0 324.5 -116.5
t121.5 -293.5q0 -112 -59 -209t-166 -135q132 -36 205.5 -136.5t73.5 -225.5q0 -194 -132.5 -311t-330.5 -117z" />
    <glyph glyph-name="agrave" unicode="&#xe0;" horiz-adv-x="1155" 
d="M465 1196l-242 340h234l213 -340h-205zM457 -31q-155 0 -249.5 81.5t-94.5 217.5q0 118 88.5 197.5t251.5 107.5l333 56v53q0 94 -63 149.5t-164 55.5q-165 0 -260 -135l-158 120q71 95 180 148t244 53q204 0 318 -108t114 -283v-682h-211v117q-56 -68 -145 -108
t-184 -40zM326 276q0 -61 45.5 -98t124.5 -37q95 0 169 42.5t121 117.5v178l-278 -47q-182 -32 -182 -156z" />
    <glyph glyph-name="aacute" unicode="&#xe1;" horiz-adv-x="1155" 
d="M684 1196h-205l213 340h234zM457 -31q-155 0 -249.5 81.5t-94.5 217.5q0 118 88.5 197.5t251.5 107.5l333 56v53q0 94 -63 149.5t-164 55.5q-165 0 -260 -135l-158 120q71 95 180 148t244 53q204 0 318 -108t114 -283v-682h-211v117q-56 -68 -145 -108t-184 -40zM326 276
q0 -61 45.5 -98t124.5 -37q95 0 169 42.5t121 117.5v178l-278 -47q-182 -32 -182 -156z" />
    <glyph glyph-name="acircumflex" unicode="&#xe2;" horiz-adv-x="1155" 
d="M412 1196h-189l213 340h279l213 -340h-189l-164 244zM457 -31q-155 0 -249.5 81.5t-94.5 217.5q0 118 88.5 197.5t251.5 107.5l333 56v53q0 94 -63 149.5t-164 55.5q-165 0 -260 -135l-158 120q71 95 180 148t244 53q204 0 318 -108t114 -283v-682h-211v117
q-56 -68 -145 -108t-184 -40zM326 276q0 -61 45.5 -98t124.5 -37q95 0 169 42.5t121 117.5v178l-278 -47q-182 -32 -182 -156z" />
    <glyph glyph-name="atilde" unicode="&#xe3;" horiz-adv-x="1155" 
d="M946 1518v-91q0 -104 -53.5 -166t-149.5 -61q-53 0 -95.5 18t-70.5 43.5t-51.5 51t-50 43.5t-55.5 18q-28 0 -44 -15.5t-16 -43.5v-101h-157v93q0 103 52.5 164.5t147.5 60.5q54 0 97.5 -18t71.5 -43.5t52.5 -51t51 -43.5t55.5 -18q27 0 42 16.5t15 44.5v99h158zM457 -31
q-155 0 -249.5 81.5t-94.5 217.5q0 118 88.5 197.5t251.5 107.5l333 56v53q0 94 -63 149.5t-164 55.5q-165 0 -260 -135l-158 120q71 95 180 148t244 53q204 0 318 -108t114 -283v-682h-211v117q-56 -68 -145 -108t-184 -40zM326 276q0 -61 45.5 -98t124.5 -37
q95 0 169 42.5t121 117.5v178l-278 -47q-182 -32 -182 -156z" />
    <glyph glyph-name="adieresis" unicode="&#xe4;" horiz-adv-x="1155" 
d="M365 1280q-56 0 -96 40t-40 95q0 54 40.5 93.5t95.5 39.5q54 0 93.5 -39.5t39.5 -93.5q0 -55 -39.5 -95t-93.5 -40zM788 1280q-56 0 -95.5 40t-39.5 95q0 54 40 93.5t95 39.5q54 0 94 -39.5t40 -93.5q0 -55 -40 -95t-94 -40zM457 -31q-155 0 -249.5 81.5t-94.5 217.5
q0 118 88.5 197.5t251.5 107.5l333 56v53q0 94 -63 149.5t-164 55.5q-165 0 -260 -135l-158 120q71 95 180 148t244 53q204 0 318 -108t114 -283v-682h-211v117q-56 -68 -145 -108t-184 -40zM326 276q0 -61 45.5 -98t124.5 -37q95 0 169 42.5t121 117.5v178l-278 -47
q-182 -32 -182 -156z" />
    <glyph glyph-name="aring" unicode="&#xe5;" horiz-adv-x="1155" 
d="M317 1382q0 106 75.5 174t182.5 68q108 0 184.5 -68t76.5 -174q0 -108 -76 -175.5t-185 -67.5q-107 0 -182.5 68t-75.5 175zM705 1380q0 56 -37.5 91.5t-92.5 35.5t-92 -35.5t-37 -91.5t37 -90.5t92 -34.5t92.5 34.5t37.5 90.5zM457 -31q-155 0 -249.5 81.5t-94.5 217.5
q0 118 88.5 197.5t251.5 107.5l333 56v53q0 94 -63 149.5t-164 55.5q-165 0 -260 -135l-158 120q71 95 180 148t244 53q204 0 318 -108t114 -283v-682h-211v117q-56 -68 -145 -108t-184 -40zM326 276q0 -61 45.5 -98t124.5 -37q95 0 169 42.5t121 117.5v178l-278 -47
q-182 -32 -182 -156z" />
    <glyph glyph-name="ae" unicode="&#xe6;" horiz-adv-x="1886" 
d="M459 -27q-156 0 -251 79.5t-95 215.5q0 118 88.5 197.5t253.5 107.5l333 56v53q0 94 -63 149.5t-164 55.5q-168 0 -260 -135l-158 120q69 94 179 147.5t245 53.5q248 0 361 -162q146 162 383 162q211 0 340 -128t129 -327q0 -68 -15 -126h-761q10 -165 104.5 -253.5
t245.5 -88.5q93 0 169 37.5t124 103.5l153 -123q-74 -99 -188.5 -154t-257.5 -55q-155 0 -275.5 62.5t-193.5 171.5q-153 -220 -426 -220zM1307 897q-115 0 -192.5 -61.5t-102.5 -186.5h557q-3 103 -74 175.5t-188 72.5zM326 276q0 -58 46.5 -95.5t123.5 -37.5
q194 0 319 197q-21 64 -24 139l-283 -47q-182 -33 -182 -156z" />
    <glyph glyph-name="ccedilla" unicode="&#xe7;" horiz-adv-x="1138" 
d="M655 158q85 0 154.5 37t114.5 100l166 -127q-124 -168 -345 -203l-180 -293h-213l185 297q-136 25 -238.5 104.5t-155.5 194.5t-53 248q0 151 67.5 277t197.5 203t298 77q138 0 251.5 -55.5t185.5 -153.5l-166 -127q-45 63 -115 100t-156 37q-148 0 -245 -102.5
t-97 -255.5q0 -154 97 -256t247 -102z" />
    <glyph glyph-name="egrave" unicode="&#xe8;" horiz-adv-x="1187" 
d="M510 1196l-242 340h234l213 -340h-205zM1104 168q-73 -99 -189 -154t-258 -55q-130 0 -238 44.5t-179.5 121t-110.5 177.5t-39 214q0 116 36 217.5t102.5 177t166 119t219.5 43.5q211 0 340 -129t129 -328q0 -70 -14 -124h-762q10 -166 104 -254t246 -88q92 0 168.5 37.5
t124.5 103.5zM610 897q-116 0 -192 -64t-101 -184h555q-3 103 -73 175.5t-189 72.5z" />
    <glyph glyph-name="eacute" unicode="&#xe9;" horiz-adv-x="1187" 
d="M729 1196h-205l213 340h234zM1104 168q-73 -99 -189 -154t-258 -55q-130 0 -238 44.5t-179.5 121t-110.5 177.5t-39 214q0 116 36 217.5t102.5 177t166 119t219.5 43.5q211 0 340 -129t129 -328q0 -70 -14 -124h-762q10 -166 104 -254t246 -88q92 0 168.5 37.5
t124.5 103.5zM610 897q-116 0 -192 -64t-101 -184h555q-3 103 -73 175.5t-189 72.5z" />
    <glyph glyph-name="ecircumflex" unicode="&#xea;" horiz-adv-x="1187" 
d="M457 1196h-189l213 340h279l213 -340h-189l-163 244zM1104 168q-73 -99 -189 -154t-258 -55q-130 0 -238 44.5t-179.5 121t-110.5 177.5t-39 214q0 116 36 217.5t102.5 177t166 119t219.5 43.5q211 0 340 -129t129 -328q0 -70 -14 -124h-762q10 -166 104 -254t246 -88
q92 0 168.5 37.5t124.5 103.5zM610 897q-116 0 -192 -64t-101 -184h555q-3 103 -73 175.5t-189 72.5z" />
    <glyph glyph-name="edieresis" unicode="&#xeb;" horiz-adv-x="1187" 
d="M410 1280q-56 0 -96 40t-40 95q0 54 40.5 93.5t95.5 39.5q54 0 93.5 -39.5t39.5 -93.5q0 -55 -39.5 -95t-93.5 -40zM834 1280q-56 0 -96 40t-40 95q0 54 40.5 93.5t95.5 39.5q54 0 93.5 -39.5t39.5 -93.5q0 -55 -39.5 -95t-93.5 -40zM1104 168q-73 -99 -189 -154
t-258 -55q-130 0 -238 44.5t-179.5 121t-110.5 177.5t-39 214q0 116 36 217.5t102.5 177t166 119t219.5 43.5q211 0 340 -129t129 -328q0 -70 -14 -124h-762q10 -166 104 -254t246 -88q92 0 168.5 37.5t124.5 103.5zM610 897q-116 0 -192 -64t-101 -184h555
q-3 103 -73 175.5t-189 72.5z" />
    <glyph glyph-name="igrave" unicode="&#xec;" horiz-adv-x="555" 
d="M168 1196l-242 340h234l213 -340h-205zM172 0v1032h211v-1032h-211z" />
    <glyph glyph-name="iacute" unicode="&#xed;" horiz-adv-x="555" 
d="M387 1196h-205l213 340h234zM172 0v1032h211v-1032h-211z" />
    <glyph glyph-name="icircumflex" unicode="&#xee;" horiz-adv-x="555" 
d="M115 1196h-189l213 340h279l213 -340h-189l-163 244zM172 0v1032h211v-1032h-211z" />
    <glyph glyph-name="idieresis" unicode="&#xef;" horiz-adv-x="555" 
d="M68 1280q-56 0 -96 40t-40 95q0 54 40.5 93.5t95.5 39.5q54 0 93.5 -39.5t39.5 -93.5q0 -55 -39.5 -95t-93.5 -40zM492 1280q-56 0 -96 40t-40 95q0 54 40.5 93.5t95.5 39.5q54 0 93.5 -39.5t39.5 -93.5q0 -55 -39.5 -95t-93.5 -40zM172 0v1032h211v-1032h-211z" />
    <glyph glyph-name="eth" unicode="&#xf0;" horiz-adv-x="1292" 
d="M283 1130v162l237 72q-116 85 -272 172h317q87 -46 172 -109l361 109v-164l-224 -65q152 -160 240 -352t88 -371q0 -284 -148.5 -454.5t-402.5 -170.5q-165 0 -294 73t-198 197t-69 275q0 241 150 394t383 153q155 0 272 -90q-78 149 -227 284zM311 504q0 -152 96 -249
t242 -97q159 0 247.5 108.5t88.5 304.5q0 53 -2 78q-58 94 -147 147.5t-193 53.5q-146 0 -239 -96t-93 -250z" />
    <glyph glyph-name="ntilde" unicode="&#xf1;" horiz-adv-x="1267" 
d="M1030 1518v-91q0 -104 -53.5 -166t-149.5 -61q-53 0 -95.5 18t-70.5 43.5t-51.5 51t-50 43.5t-55.5 18q-28 0 -44 -15.5t-16 -43.5v-101h-157v93q0 103 52.5 164.5t147.5 60.5q54 0 97.5 -18t71.5 -43.5t52.5 -51t51 -43.5t55.5 -18q27 0 42 16.5t15 44.5v99h158zM172 0
v1032h211v-100q134 141 328 141q177 0 289 -117.5t112 -334.5v-621h-213v612q0 123 -63.5 192.5t-173.5 69.5q-174 0 -279 -178v-696h-211z" />
    <glyph glyph-name="ograve" unicode="&#xf2;" horiz-adv-x="1304" 
d="M541 1196l-242 340h233l213 -340h-204zM651 1073q123 0 229 -44.5t178 -120t113 -177t41 -215.5t-41 -215.5t-113 -177t-178 -120t-229 -44.5q-122 0 -228 44.5t-178.5 119.5t-113.5 177t-41 216t41 216t113.5 177t178.5 119.5t228 44.5zM653 158q145 0 241.5 104.5
t96.5 253.5q0 152 -96.5 255t-241.5 103q-148 0 -245 -103.5t-97 -254.5t97 -254.5t245 -103.5z" />
    <glyph glyph-name="oacute" unicode="&#xf3;" horiz-adv-x="1304" 
d="M760 1196h-205l213 340h233zM651 1073q123 0 229 -44.5t178 -120t113 -177t41 -215.5t-41 -215.5t-113 -177t-178 -120t-229 -44.5q-122 0 -228 44.5t-178.5 119.5t-113.5 177t-41 216t41 216t113.5 177t178.5 119.5t228 44.5zM653 158q145 0 241.5 104.5t96.5 253.5
q0 152 -96.5 255t-241.5 103q-148 0 -245 -103.5t-97 -254.5t97 -254.5t245 -103.5z" />
    <glyph glyph-name="ocircumflex" unicode="&#xf4;" horiz-adv-x="1304" 
d="M487 1196h-188l213 340h279l213 -340h-189l-164 244zM651 1073q123 0 229 -44.5t178 -120t113 -177t41 -215.5t-41 -215.5t-113 -177t-178 -120t-229 -44.5q-122 0 -228 44.5t-178.5 119.5t-113.5 177t-41 216t41 216t113.5 177t178.5 119.5t228 44.5zM653 158
q145 0 241.5 104.5t96.5 253.5q0 152 -96.5 255t-241.5 103q-148 0 -245 -103.5t-97 -254.5t97 -254.5t245 -103.5z" />
    <glyph glyph-name="otilde" unicode="&#xf5;" horiz-adv-x="1304" 
d="M1022 1518v-91q0 -104 -53.5 -166t-149.5 -61q-53 0 -95.5 18t-70.5 43.5t-51.5 51t-50 43.5t-55.5 18q-28 0 -44 -15.5t-16 -43.5v-101h-157v93q0 103 52.5 164.5t147.5 60.5q54 0 97.5 -18t71.5 -43.5t52.5 -51t51 -43.5t55.5 -18q27 0 42 16.5t15 44.5v99h158z
M651 1073q123 0 229 -44.5t178 -120t113 -177t41 -215.5t-41 -215.5t-113 -177t-178 -120t-229 -44.5q-122 0 -228 44.5t-178.5 119.5t-113.5 177t-41 216t41 216t113.5 177t178.5 119.5t228 44.5zM653 158q145 0 241.5 104.5t96.5 253.5q0 152 -96.5 255t-241.5 103
q-148 0 -245 -103.5t-97 -254.5t97 -254.5t245 -103.5z" />
    <glyph glyph-name="odieresis" unicode="&#xf6;" horiz-adv-x="1304" 
d="M440 1280q-56 0 -95.5 40t-39.5 95q0 54 40 93.5t95 39.5q54 0 93.5 -39.5t39.5 -93.5q0 -55 -39.5 -95t-93.5 -40zM864 1280q-56 0 -95.5 40t-39.5 95q0 54 40 93.5t95 39.5q54 0 93.5 -39.5t39.5 -93.5q0 -55 -39.5 -95t-93.5 -40zM651 1073q123 0 229 -44.5t178 -120
t113 -177t41 -215.5t-41 -215.5t-113 -177t-178 -120t-229 -44.5q-122 0 -228 44.5t-178.5 119.5t-113.5 177t-41 216t41 216t113.5 177t178.5 119.5t228 44.5zM653 158q145 0 241.5 104.5t96.5 253.5q0 152 -96.5 255t-241.5 103q-148 0 -245 -103.5t-97 -254.5t97 -254.5
t245 -103.5z" />
    <glyph glyph-name="divide" unicode="&#xf7;" 
d="M614 815q-52 0 -89.5 37t-37.5 88t37.5 88t89.5 37q51 0 88 -37t37 -88t-37 -88t-88 -37zM1128 426h-1030v182h1030v-182zM614 -33q-52 0 -89.5 37t-37.5 88t37.5 88t89.5 37q51 0 88 -37t37 -88t-37 -88t-88 -37z" />
    <glyph glyph-name="oslash" unicode="&#xf8;" horiz-adv-x="1304" 
d="M307 -41h-217l141 178q-141 157 -141 379q0 114 41 216t113.5 177t178.5 119.5t228 44.5q160 0 289 -74l57 74h215l-139 -180q139 -155 139 -377q0 -114 -41 -215.5t-113 -177t-178 -120t-229 -44.5q-155 0 -286 72zM311 516q0 -121 64 -213l428 537q-67 34 -150 34
q-148 0 -245 -103.5t-97 -254.5zM653 158q145 0 241.5 104.5t96.5 253.5q0 121 -61 213l-426 -536q68 -35 149 -35z" />
    <glyph glyph-name="ugrave" unicode="&#xf9;" horiz-adv-x="1234" 
d="M506 1196l-242 340h234l213 -340h-205zM872 442v590h213v-579q0 -231 -125 -362.5t-342 -131.5q-219 0 -343.5 131.5t-124.5 362.5v579h212v-590q0 -134 67.5 -209t188.5 -75q119 0 186.5 75.5t67.5 208.5z" />
    <glyph glyph-name="uacute" unicode="&#xfa;" horiz-adv-x="1234" 
d="M725 1196h-205l213 340h234zM872 442v590h213v-579q0 -231 -125 -362.5t-342 -131.5q-219 0 -343.5 131.5t-124.5 362.5v579h212v-590q0 -134 67.5 -209t188.5 -75q119 0 186.5 75.5t67.5 208.5z" />
    <glyph glyph-name="ucircumflex" unicode="&#xfb;" horiz-adv-x="1234" 
d="M453 1196h-189l213 340h279l213 -340h-189l-164 244zM872 442v590h213v-579q0 -231 -125 -362.5t-342 -131.5q-219 0 -343.5 131.5t-124.5 362.5v579h212v-590q0 -134 67.5 -209t188.5 -75q119 0 186.5 75.5t67.5 208.5z" />
    <glyph glyph-name="udieresis" unicode="&#xfc;" horiz-adv-x="1234" 
d="M406 1280q-56 0 -96 40t-40 95q0 54 40.5 93.5t95.5 39.5q54 0 93.5 -39.5t39.5 -93.5q0 -55 -39.5 -95t-93.5 -40zM829 1280q-55 0 -95 40t-40 95q0 54 40 93.5t95 39.5q54 0 94 -39.5t40 -93.5q0 -55 -40 -95t-94 -40zM872 442v590h213v-579q0 -231 -125 -362.5
t-342 -131.5q-219 0 -343.5 131.5t-124.5 362.5v579h212v-590q0 -134 67.5 -209t188.5 -75q119 0 186.5 75.5t67.5 208.5z" />
    <glyph glyph-name="yacute" unicode="&#xfd;" horiz-adv-x="1134" 
d="M676 1196h-205l213 340h234zM582 -244q-112 -268 -375 -268q-96 0 -174 33v188q60 -26 131 -26q82 0 137 34.5t90 118.5l70 166l-441 1030h234l319 -760l316 760h225z" />
    <glyph glyph-name="thorn" unicode="&#xfe;" horiz-adv-x="1347" 
d="M172 -504v2040h211v-602q139 139 348 139q157 0 278.5 -77t184.5 -203t63 -277t-63 -277t-184.5 -203t-278.5 -77q-209 0 -348 139v-602h-211zM383 338q117 -180 322 -180q147 0 239 102t92 256t-92 256t-239 102q-205 0 -322 -180v-356z" />
    <glyph glyph-name="ydieresis" unicode="&#xff;" horiz-adv-x="1134" 
d="M356 1280q-56 0 -95.5 40t-39.5 95q0 54 40 93.5t95 39.5q54 0 93.5 -39.5t39.5 -93.5q0 -55 -39.5 -95t-93.5 -40zM780 1280q-56 0 -95.5 40t-39.5 95q0 54 40 93.5t95 39.5q54 0 93.5 -39.5t39.5 -93.5q0 -55 -39.5 -95t-93.5 -40zM582 -244q-112 -268 -375 -268
q-96 0 -174 33v188q60 -26 131 -26q82 0 137 34.5t90 118.5l70 166l-441 1030h234l319 -760l316 760h225z" />
    <glyph glyph-name="Amacron" unicode="&#x100;" horiz-adv-x="1519" 
d="M424 1612v157h672v-157h-672zM45 0l559 1434h311l560 -1434h-252l-152 401h-625l-151 -401h-250zM524 602h469l-233 619z" />
    <glyph glyph-name="amacron" unicode="&#x101;" horiz-adv-x="1155" 
d="M240 1315v160h671v-160h-671zM457 -31q-155 0 -249.5 81.5t-94.5 217.5q0 118 88.5 197.5t251.5 107.5l333 56v53q0 94 -63 149.5t-164 55.5q-165 0 -260 -135l-158 120q71 95 180 148t244 53q204 0 318 -108t114 -283v-682h-211v117q-56 -68 -145 -108t-184 -40z
M326 276q0 -61 45.5 -98t124.5 -37q95 0 169 42.5t121 117.5v178l-278 -47q-182 -32 -182 -156z" />
    <glyph glyph-name="Abreve" unicode="&#x102;" horiz-adv-x="1519" 
d="M760 1683q87 0 133 38.5t51 111.5h176q0 -142 -98 -219.5t-262 -77.5t-262.5 77.5t-98.5 219.5h176q5 -73 51.5 -111.5t133.5 -38.5zM45 0l559 1434h311l560 -1434h-252l-152 401h-625l-151 -401h-250zM524 602h469l-233 619z" />
    <glyph glyph-name="abreve" unicode="&#x103;" horiz-adv-x="1155" 
d="M575 1343q88 0 132.5 49.5t44.5 143.5h176q0 -164 -93.5 -252t-259.5 -88q-164 0 -258 88.5t-94 251.5h176q0 -93 45 -143t131 -50zM457 -31q-155 0 -249.5 81.5t-94.5 217.5q0 118 88.5 197.5t251.5 107.5l333 56v53q0 94 -63 149.5t-164 55.5q-165 0 -260 -135
l-158 120q71 95 180 148t244 53q204 0 318 -108t114 -283v-682h-211v117q-56 -68 -145 -108t-184 -40zM326 276q0 -61 45.5 -98t124.5 -37q95 0 169 42.5t121 117.5v178l-278 -47q-182 -32 -182 -156z" />
    <glyph glyph-name="Aogonek" unicode="&#x104;" horiz-adv-x="1519" 
d="M45 0l559 1434h311l560 -1434h-33l-105 -68q-89 -62 -124 -104t-35 -84q0 -100 122 -100q80 0 142 28v-145q-71 -31 -172 -31q-125 0 -194.5 65.5t-69.5 155.5q0 145 184 267l31 18l-150 399h-625l-151 -401h-250zM524 602h469l-233 619z" />
    <glyph glyph-name="aogonek" unicode="&#x105;" horiz-adv-x="1155" 
d="M457 -31q-155 0 -249.5 81.5t-94.5 217.5q0 118 88.5 197.5t251.5 107.5l333 56v53q0 94 -63 149.5t-164 55.5q-165 0 -260 -135l-158 120q71 95 180 148t244 53q204 0 318 -108t114 -283v-682l-104 -68q-89 -62 -124.5 -104t-35.5 -84q0 -100 123 -100q79 0 141 28v-145
q-71 -31 -172 -31q-125 0 -194.5 65.5t-69.5 155.5q0 145 184 267l41 24v109q-56 -68 -145 -108t-184 -40zM326 276q0 -61 45.5 -98t124.5 -37q95 0 169 42.5t121 117.5v178l-278 -47q-182 -32 -182 -156z" />
    <glyph glyph-name="Cacute" unicode="&#x106;" horiz-adv-x="1536" 
d="M963 1556h-218l232 277h250zM854 180q131 0 238.5 58.5t177.5 158.5l188 -145q-103 -136 -258.5 -214.5t-345.5 -78.5q-165 0 -307.5 61t-240 164t-153 241.5t-55.5 291.5t55.5 291.5t153 241.5t240 164t307.5 61q190 0 345.5 -78.5t258.5 -214.5l-188 -146
q-70 100 -177.5 158.5t-238.5 58.5q-147 0 -265 -71.5t-183.5 -194t-65.5 -270.5q0 -228 146 -382.5t368 -154.5z" />
    <glyph glyph-name="cacute" unicode="&#x107;" horiz-adv-x="1138" 
d="M762 1196h-205l213 340h234zM655 158q85 0 154.5 37t114.5 100l166 -127q-72 -98 -185 -153.5t-252 -55.5q-168 0 -298 77t-197.5 203t-67.5 277t67.5 277t197.5 203t298 77q138 0 251.5 -55.5t185.5 -153.5l-166 -127q-45 63 -115 100t-156 37q-148 0 -245 -102.5
t-97 -255.5q0 -154 97 -256t247 -102z" />
    <glyph glyph-name="Ccircumflex" unicode="&#x108;" horiz-adv-x="1536" 
d="M686 1556h-188l231 277h252l229 -277h-188l-168 177zM854 180q131 0 238.5 58.5t177.5 158.5l188 -145q-103 -136 -258.5 -214.5t-345.5 -78.5q-165 0 -307.5 61t-240 164t-153 241.5t-55.5 291.5t55.5 291.5t153 241.5t240 164t307.5 61q190 0 345.5 -78.5t258.5 -214.5
l-188 -146q-70 100 -177.5 158.5t-238.5 58.5q-147 0 -265 -71.5t-183.5 -194t-65.5 -270.5q0 -228 146 -382.5t368 -154.5z" />
    <glyph glyph-name="ccircumflex" unicode="&#x109;" horiz-adv-x="1138" 
d="M489 1196h-188l213 340h279l213 -340h-189l-164 244zM655 158q85 0 154.5 37t114.5 100l166 -127q-72 -98 -185 -153.5t-252 -55.5q-168 0 -298 77t-197.5 203t-67.5 277t67.5 277t197.5 203t298 77q138 0 251.5 -55.5t185.5 -153.5l-166 -127q-45 63 -115 100t-156 37
q-148 0 -245 -102.5t-97 -255.5q0 -154 97 -256t247 -102z" />
    <glyph glyph-name="Cdotaccent" unicode="&#x10a;" horiz-adv-x="1536" 
d="M854 1595q-53 0 -90 36.5t-37 88.5q0 51 37 87t90 36q51 0 88 -36t37 -87q0 -52 -37 -88.5t-88 -36.5zM854 180q131 0 238.5 58.5t177.5 158.5l188 -145q-103 -136 -258.5 -214.5t-345.5 -78.5q-165 0 -307.5 61t-240 164t-153 241.5t-55.5 291.5t55.5 291.5t153 241.5
t240 164t307.5 61q190 0 345.5 -78.5t258.5 -214.5l-188 -146q-70 100 -177.5 158.5t-238.5 58.5q-147 0 -265 -71.5t-183.5 -194t-65.5 -270.5q0 -228 146 -382.5t368 -154.5z" />
    <glyph glyph-name="cdotaccent" unicode="&#x10b;" horiz-adv-x="1138" 
d="M653 1262q-59 0 -101 42t-42 101t42 101t101 42t101.5 -42.5t42.5 -100.5t-42.5 -100.5t-101.5 -42.5zM655 158q85 0 154.5 37t114.5 100l166 -127q-72 -98 -185 -153.5t-252 -55.5q-168 0 -298 77t-197.5 203t-67.5 277t67.5 277t197.5 203t298 77q138 0 251.5 -55.5
t185.5 -153.5l-166 -127q-45 63 -115 100t-156 37q-148 0 -245 -102.5t-97 -255.5q0 -154 97 -256t247 -102z" />
    <glyph glyph-name="Ccaron" unicode="&#x10c;" horiz-adv-x="1536" 
d="M686 1833l168 -176l168 176h188l-229 -277h-252l-231 277h188zM854 180q131 0 238.5 58.5t177.5 158.5l188 -145q-103 -136 -258.5 -214.5t-345.5 -78.5q-165 0 -307.5 61t-240 164t-153 241.5t-55.5 291.5t55.5 291.5t153 241.5t240 164t307.5 61q190 0 345.5 -78.5
t258.5 -214.5l-188 -146q-70 100 -177.5 158.5t-238.5 58.5q-147 0 -265 -71.5t-183.5 -194t-65.5 -270.5q0 -228 146 -382.5t368 -154.5z" />
    <glyph glyph-name="ccaron" unicode="&#x10d;" horiz-adv-x="1138" 
d="M489 1536l164 -244l164 244h189l-213 -340h-279l-213 340h188zM655 158q85 0 154.5 37t114.5 100l166 -127q-72 -98 -185 -153.5t-252 -55.5q-168 0 -298 77t-197.5 203t-67.5 277t67.5 277t197.5 203t298 77q138 0 251.5 -55.5t185.5 -153.5l-166 -127q-45 63 -115 100
t-156 37q-148 0 -245 -102.5t-97 -255.5q0 -154 97 -256t247 -102z" />
    <glyph glyph-name="Dcaron" unicode="&#x10e;" horiz-adv-x="1632" 
d="M647 1833l168 -176l168 176h188l-229 -277h-252l-231 277h188zM221 0v1434h557q165 0 307.5 -57.5t240 -155.5t153 -229t55.5 -275t-55.5 -275t-153 -229t-240 -155.5t-307.5 -57.5h-557zM780 1219h-325v-1004h325q220 0 365 145t145 357q0 139 -65 254t-182 181.5
t-263 66.5z" />
    <glyph glyph-name="dcaron" unicode="&#x10f;" horiz-adv-x="1345" 
d="M90 516q0 152 63 277.5t185 202.5t280 77q209 0 345 -145v608h215v-1536h-215v104q-136 -145 -345 -145q-158 0 -280 77t-185 202.5t-63 277.5zM1419 1155h-180l172 381h223zM313 516q0 -154 92.5 -256t239.5 -102q99 0 182 45t136 127v372q-57 84 -139 128t-179 44
q-147 0 -239.5 -102t-92.5 -256z" />
    <glyph glyph-name="Dcroat" unicode="&#x110;" horiz-adv-x="1632" 
d="M221 0v653h-221v160h221v621h557q165 0 307.5 -57.5t240 -155.5t153 -229t55.5 -275t-55.5 -275t-153 -229t-240 -155.5t-307.5 -57.5h-557zM815 653h-360v-438h325q220 0 365 145t145 357q0 139 -65 254t-182 181.5t-263 66.5h-325v-406h360v-160z" />
    <glyph glyph-name="dcroat" unicode="&#x111;" horiz-adv-x="1345" 
d="M90 516q0 152 63 277.5t185 202.5t280 77q209 0 345 -145v260h-398v158h398v190h215v-190h168v-158h-168v-1188h-215v104q-136 -145 -345 -145q-158 0 -280 77t-185 202.5t-63 277.5zM313 516q0 -154 92.5 -256t239.5 -102q99 0 182 45t136 127v372q-57 84 -139 128
t-179 44q-147 0 -239.5 -102t-92.5 -256z" />
    <glyph glyph-name="Emacron" unicode="&#x112;" horiz-adv-x="1171" 
d="M285 1612v157h671v-157h-671zM221 0v1434h799v-199h-565v-406h483v-198h-483v-432h565v-199h-799z" />
    <glyph glyph-name="emacron" unicode="&#x113;" horiz-adv-x="1187" 
d="M285 1315v160h671v-160h-671zM1104 168q-73 -99 -189 -154t-258 -55q-130 0 -238 44.5t-179.5 121t-110.5 177.5t-39 214q0 116 36 217.5t102.5 177t166 119t219.5 43.5q211 0 340 -129t129 -328q0 -70 -14 -124h-762q10 -166 104 -254t246 -88q92 0 168.5 37.5
t124.5 103.5zM610 897q-116 0 -192 -64t-101 -184h555q-3 103 -73 175.5t-189 72.5z" />
    <glyph glyph-name="Ebreve" unicode="&#x114;" horiz-adv-x="1171" 
d="M621 1683q87 0 133 38.5t51 111.5h176q0 -142 -98 -219.5t-262 -77.5t-262.5 77.5t-98.5 219.5h176q5 -73 51.5 -111.5t133.5 -38.5zM221 0v1434h799v-199h-565v-406h483v-198h-483v-432h565v-199h-799z" />
    <glyph glyph-name="ebreve" unicode="&#x115;" horiz-adv-x="1187" 
d="M621 1343q88 0 132 49.5t44 143.5h176q0 -164 -93 -252t-259 -88q-164 0 -258.5 88.5t-94.5 251.5h176q0 -93 45.5 -143t131.5 -50zM1104 168q-73 -99 -189 -154t-258 -55q-130 0 -238 44.5t-179.5 121t-110.5 177.5t-39 214q0 116 36 217.5t102.5 177t166 119
t219.5 43.5q211 0 340 -129t129 -328q0 -70 -14 -124h-762q10 -166 104 -254t246 -88q92 0 168.5 37.5t124.5 103.5zM610 897q-116 0 -192 -64t-101 -184h555q-3 103 -73 175.5t-189 72.5z" />
    <glyph glyph-name="Edotaccent" unicode="&#x116;" horiz-adv-x="1171" 
d="M621 1595q-53 0 -90 36.5t-37 88.5q0 51 37 87t90 36q51 0 87.5 -36t36.5 -87q0 -52 -36.5 -88.5t-87.5 -36.5zM221 0v1434h799v-199h-565v-406h483v-198h-483v-432h565v-199h-799z" />
    <glyph glyph-name="edotaccent" unicode="&#x117;" horiz-adv-x="1187" 
d="M621 1262q-59 0 -101.5 42.5t-42.5 100.5t42.5 100.5t101.5 42.5t101 -42t42 -101t-42 -101t-101 -42zM1104 168q-73 -99 -189 -154t-258 -55q-130 0 -238 44.5t-179.5 121t-110.5 177.5t-39 214q0 116 36 217.5t102.5 177t166 119t219.5 43.5q211 0 340 -129t129 -328
q0 -70 -14 -124h-762q10 -166 104 -254t246 -88q92 0 168.5 37.5t124.5 103.5zM610 897q-116 0 -192 -64t-101 -184h555q-3 103 -73 175.5t-189 72.5z" />
    <glyph glyph-name="Eogonek" unicode="&#x118;" horiz-adv-x="1171" 
d="M221 0v1434h799v-199h-565v-406h483v-198h-483v-432h565v-199l-105 -68q-89 -62 -124 -104t-35 -84q0 -100 123 -100q79 0 141 28v-145q-71 -31 -172 -31q-125 0 -194.5 65.5t-69.5 155.5q0 145 184 267l27 16h-574z" />
    <glyph glyph-name="eogonek" unicode="&#x119;" horiz-adv-x="1187" 
d="M442 -283q0 134 154 244q-155 14 -271.5 93t-175.5 199t-59 263q0 116 36 217.5t102.5 177t166 119t219.5 43.5q211 0 340 -129t129 -328q0 -70 -14 -124h-762q10 -166 104 -254t246 -88q92 0 168.5 37.5t124.5 103.5l154 -123q-87 -116 -230 -172l-100 -64
q-89 -62 -124.5 -104t-35.5 -84q0 -100 123 -100q80 0 142 28v-145q-71 -31 -172 -31q-125 0 -195 65.5t-70 155.5zM610 897q-116 0 -192 -64t-101 -184h555q-3 103 -73 175.5t-189 72.5z" />
    <glyph glyph-name="Ecaron" unicode="&#x11a;" horiz-adv-x="1171" 
d="M453 1833l168 -176l167 176h189l-229 -277h-252l-232 277h189zM221 0v1434h799v-199h-565v-406h483v-198h-483v-432h565v-199h-799z" />
    <glyph glyph-name="ecaron" unicode="&#x11b;" horiz-adv-x="1187" 
d="M457 1536l164 -244l163 244h189l-213 -340h-279l-213 340h189zM1104 168q-73 -99 -189 -154t-258 -55q-130 0 -238 44.5t-179.5 121t-110.5 177.5t-39 214q0 116 36 217.5t102.5 177t166 119t219.5 43.5q211 0 340 -129t129 -328q0 -70 -14 -124h-762q10 -166 104 -254
t246 -88q92 0 168.5 37.5t124.5 103.5zM610 897q-116 0 -192 -64t-101 -184h555q-3 103 -73 175.5t-189 72.5z" />
    <glyph glyph-name="Gcircumflex" unicode="&#x11c;" horiz-adv-x="1644" 
d="M686 1556h-188l231 277h252l229 -277h-188l-168 177zM874 180q118 0 218.5 42.5t171.5 117.5v289h-396v202h631v-579q-104 -137 -266 -215t-359 -78q-169 0 -315.5 61t-246.5 164t-157 241.5t-57 291.5t55.5 291.5t153 241.5t240 164t307.5 61q190 0 345.5 -78.5
t258.5 -214.5l-188 -146q-70 100 -177.5 158.5t-238.5 58.5q-147 0 -265 -71.5t-183.5 -194t-65.5 -270.5q0 -149 68 -272t190.5 -194t275.5 -71z" />
    <glyph glyph-name="gcircumflex" unicode="&#x11d;" horiz-adv-x="1140" 
d="M383 1194h-188l213 340h278l213 -340h-188l-164 244zM61 -184q0 147 148 258q-68 59 -68 147q0 121 119 203q-67 51 -104 126t-37 161q0 154 110.5 258t294.5 104q116 0 203 -41h381v-180h-203q29 -69 29 -141q0 -156 -111.5 -261.5t-298.5 -105.5q-57 0 -125 14
q-51 -42 -51 -88q0 -67 78 -67h281q193 0 296 -89.5t103 -234.5q0 -169 -149 -280t-382 -111q-240 0 -377 85.5t-137 242.5zM526 506q98 0 154.5 57.5t56.5 147.5q0 88 -56.5 144t-154.5 56t-154.5 -56t-56.5 -144q0 -90 56.5 -147.5t154.5 -57.5zM262 -156q0 -86 81.5 -135
t227.5 -49q152 0 238 54.5t86 146.5q0 157 -209 157h-328q-96 -76 -96 -174z" />
    <glyph glyph-name="Gbreve" unicode="&#x11e;" horiz-adv-x="1644" 
d="M854 1683q87 0 133 38.5t51 111.5h176q0 -142 -98 -219.5t-262 -77.5t-262 77.5t-98 219.5h176q5 -73 51 -111.5t133 -38.5zM874 180q118 0 218.5 42.5t171.5 117.5v289h-396v202h631v-579q-104 -137 -266 -215t-359 -78q-169 0 -315.5 61t-246.5 164t-157 241.5
t-57 291.5t55.5 291.5t153 241.5t240 164t307.5 61q190 0 345.5 -78.5t258.5 -214.5l-188 -146q-70 100 -177.5 158.5t-238.5 58.5q-147 0 -265 -71.5t-183.5 -194t-65.5 -270.5q0 -149 68 -272t190.5 -194t275.5 -71z" />
    <glyph glyph-name="gbreve" unicode="&#x11f;" horiz-adv-x="1140" 
d="M547 1341q88 0 132 49.5t44 143.5h176q0 -164 -93 -252t-259 -88q-164 0 -258 88.5t-94 251.5h176q0 -93 45 -143t131 -50zM61 -184q0 147 148 258q-68 59 -68 147q0 121 119 203q-67 51 -104 126t-37 161q0 154 110.5 258t294.5 104q116 0 203 -41h381v-180h-203
q29 -69 29 -141q0 -156 -111.5 -261.5t-298.5 -105.5q-57 0 -125 14q-51 -42 -51 -88q0 -67 78 -67h281q193 0 296 -89.5t103 -234.5q0 -169 -149 -280t-382 -111q-240 0 -377 85.5t-137 242.5zM526 506q98 0 154.5 57.5t56.5 147.5q0 88 -56.5 144t-154.5 56t-154.5 -56
t-56.5 -144q0 -90 56.5 -147.5t154.5 -57.5zM262 -156q0 -86 81.5 -135t227.5 -49q152 0 238 54.5t86 146.5q0 157 -209 157h-328q-96 -76 -96 -174z" />
    <glyph glyph-name="Gdotaccent" unicode="&#x120;" horiz-adv-x="1644" 
d="M854 1595q-53 0 -90 36.5t-37 88.5q0 51 37 87t90 36q51 0 88 -36t37 -87q0 -52 -37 -88.5t-88 -36.5zM874 180q118 0 218.5 42.5t171.5 117.5v289h-396v202h631v-579q-104 -137 -266 -215t-359 -78q-169 0 -315.5 61t-246.5 164t-157 241.5t-57 291.5t55.5 291.5
t153 241.5t240 164t307.5 61q190 0 345.5 -78.5t258.5 -214.5l-188 -146q-70 100 -177.5 158.5t-238.5 58.5q-147 0 -265 -71.5t-183.5 -194t-65.5 -270.5q0 -149 68 -272t190.5 -194t275.5 -71z" />
    <glyph glyph-name="gdotaccent" unicode="&#x121;" horiz-adv-x="1140" 
d="M547 1260q-59 0 -101.5 42.5t-42.5 100.5t42.5 100.5t101.5 42.5t101 -42t42 -101t-42 -101t-101 -42zM61 -184q0 147 148 258q-68 59 -68 147q0 121 119 203q-67 51 -104 126t-37 161q0 154 110.5 258t294.5 104q116 0 203 -41h381v-180h-203q29 -69 29 -141
q0 -156 -111.5 -261.5t-298.5 -105.5q-57 0 -125 14q-51 -42 -51 -88q0 -67 78 -67h281q193 0 296 -89.5t103 -234.5q0 -169 -149 -280t-382 -111q-240 0 -377 85.5t-137 242.5zM526 506q98 0 154.5 57.5t56.5 147.5q0 88 -56.5 144t-154.5 56t-154.5 -56t-56.5 -144
q0 -90 56.5 -147.5t154.5 -57.5zM262 -156q0 -86 81.5 -135t227.5 -49q152 0 238 54.5t86 146.5q0 157 -209 157h-328q-96 -76 -96 -174z" />
    <glyph glyph-name="Gcedilla" unicode="&#x122;" horiz-adv-x="1644" 
d="M874 180q118 0 218.5 42.5t171.5 117.5v289h-396v202h631v-579q-104 -137 -266 -215t-359 -78q-169 0 -315.5 61t-246.5 164t-157 241.5t-57 291.5t55.5 291.5t153 241.5t240 164t307.5 61q190 0 345.5 -78.5t258.5 -214.5l-188 -146q-70 100 -177.5 158.5t-238.5 58.5
q-147 0 -265 -71.5t-183.5 -194t-65.5 -270.5q0 -149 68 -272t190.5 -194t275.5 -71zM760 -504h-205l213 340h233z" />
    <glyph glyph-name="gcedilla" unicode="&#x123;" horiz-adv-x="1140" 
d="M692 1534h203l-211 -340h-235zM61 -184q0 147 148 258q-68 59 -68 147q0 121 119 203q-67 51 -104 126t-37 161q0 154 110.5 258t294.5 104q116 0 203 -41h381v-180h-203q29 -69 29 -141q0 -156 -111.5 -261.5t-298.5 -105.5q-57 0 -125 14q-51 -42 -51 -88q0 -67 78 -67
h281q193 0 296 -89.5t103 -234.5q0 -169 -149 -280t-382 -111q-240 0 -377 85.5t-137 242.5zM526 506q98 0 154.5 57.5t56.5 147.5q0 88 -56.5 144t-154.5 56t-154.5 -56t-56.5 -144q0 -90 56.5 -147.5t154.5 -57.5zM262 -156q0 -86 81.5 -135t227.5 -49q152 0 238 54.5
t86 146.5q0 157 -209 157h-328q-96 -76 -96 -174z" />
    <glyph glyph-name="Hcircumflex" unicode="&#x124;" horiz-adv-x="1716" 
d="M690 1556h-188l231 277h252l229 -277h-188l-168 177zM221 0v1434h234v-596h807v596h235v-1434h-235v623h-807v-623h-234z" />
    <glyph glyph-name="hcircumflex" unicode="&#x125;" horiz-adv-x="1267" 
d="M463 1659h-189l232 276h252l229 -276h-188l-168 176zM172 0v1536h211v-604q134 141 328 141q179 0 290 -117.5t111 -334.5v-621h-213v612q0 123 -63.5 192.5t-173.5 69.5q-170 0 -279 -178v-696h-211z" />
    <glyph glyph-name="Hbar" unicode="&#x126;" horiz-adv-x="1716" 
d="M221 0v1055h-221v159h221v220h234v-220h807v220h235v-220h219v-159h-219v-1055h-235v623h-807v-623h-234zM455 838h807v217h-807v-217z" />
    <glyph glyph-name="hbar" unicode="&#x127;" horiz-adv-x="1267" 
d="M172 0v1188h-172v158h172v190h211v-190h383v-158h-383v-256q134 141 328 141q179 0 290 -117.5t111 -334.5v-621h-213v612q0 123 -63.5 192.5t-173.5 69.5q-170 0 -279 -178v-696h-211z" />
    <glyph glyph-name="Itilde" unicode="&#x128;" horiz-adv-x="675" 
d="M-20 1565v71q0 95 55 152t145 57q48 0 97.5 -23.5t82.5 -51t68.5 -51t60.5 -23.5q23 0 36.5 16t13.5 45v68h155l2 -72q0 -97 -55.5 -153t-144.5 -56q-49 0 -98.5 23.5t-82.5 51.5t-68.5 51.5t-60.5 23.5q-49 0 -49 -64l-2 -65h-155zM221 0v1434h234v-1434h-234z" />
    <glyph glyph-name="itilde" unicode="&#x129;" horiz-adv-x="555" 
d="M649 1518v-91q0 -104 -53.5 -166t-149.5 -61q-53 0 -95.5 18t-70.5 43.5t-51.5 51t-50 43.5t-55.5 18q-28 0 -44 -15.5t-16 -43.5v-101h-157v93q0 103 52.5 164.5t147.5 60.5q54 0 97.5 -18t71.5 -43.5t52.5 -51t51 -43.5t55.5 -18q27 0 42.5 16.5t15.5 44.5v99h157z
M172 0v1032h211v-1032h-211z" />
    <glyph glyph-name="Imacron" unicode="&#x12a;" horiz-adv-x="675" 
d="M2 1612v157h672v-157h-672zM221 0v1434h234v-1434h-234z" />
    <glyph glyph-name="imacron" unicode="&#x12b;" horiz-adv-x="555" 
d="M-57 1315v160h671v-160h-671zM172 0v1032h211v-1032h-211z" />
    <glyph glyph-name="Ibreve" unicode="&#x12c;" horiz-adv-x="675" 
d="M338 1683q87 0 133 38.5t51 111.5h176q0 -142 -98 -219.5t-262 -77.5t-262.5 77.5t-98.5 219.5h177q5 -73 51 -111.5t133 -38.5zM221 0v1434h234v-1434h-234z" />
    <glyph glyph-name="ibreve" unicode="&#x12d;" horiz-adv-x="555" 
d="M279 1343q88 0 132 49.5t44 143.5h176q0 -164 -93 -252t-259 -88q-164 0 -258.5 88.5t-94.5 251.5h176q0 -93 45.5 -143t131.5 -50zM172 0v1032h211v-1032h-211z" />
    <glyph glyph-name="Iogonek" unicode="&#x12e;" horiz-adv-x="675" 
d="M0 -283q0 145 184 267l37 22v1428h234v-1434h-19l-104 -68q-89 -62 -124.5 -104t-35.5 -84q0 -100 123 -100q79 0 141 28v-145q-71 -31 -172 -31q-125 0 -194.5 65.5t-69.5 155.5z" />
    <glyph glyph-name="iogonek" unicode="&#x12f;" horiz-adv-x="555" 
d="M279 1262q-59 0 -101.5 42.5t-42.5 100.5t42.5 100.5t101.5 42.5t101 -42t42 -101t-42 -101t-101 -42zM-53 -283q0 145 184 267l41 24v1024h211v-1032l-104 -68q-89 -62 -124.5 -104t-35.5 -84q0 -100 123 -100q79 0 141 28v-145q-71 -31 -172 -31q-125 0 -194.5 65.5
t-69.5 155.5z" />
    <glyph glyph-name="Idotaccent" unicode="&#x130;" horiz-adv-x="675" 
d="M338 1595q-53 0 -90 36.5t-37 88.5q0 51 37 87t90 36q51 0 88 -36t37 -87q0 -52 -37 -88.5t-88 -36.5zM221 0v1434h234v-1434h-234z" />
    <glyph glyph-name="dotlessi" unicode="&#x131;" horiz-adv-x="555" 
d="M172 0v1032h211v-1032h-211z" />
    <glyph glyph-name="IJ" unicode="&#x132;" horiz-adv-x="1361" 
d="M221 0v1434h234v-1434h-234zM1143 111q0 -455 -424 -455q-71 0 -107 8v209q31 -8 76 -8q107 0 163 53t56 180v1336h236v-1323z" />
    <glyph glyph-name="ij" unicode="&#x133;" horiz-adv-x="1112" 
d="M279 1262q-59 0 -101.5 42.5t-42.5 100.5t42.5 100.5t101.5 42.5t101 -42t42 -101t-42 -101t-101 -42zM829 1262q-59 0 -101 42t-42 101t42 101t101 42t101.5 -42.5t42.5 -100.5t-42.5 -100.5t-101.5 -42.5zM172 0v1032h211v-1032h-211zM938 -125q0 -387 -367 -387
q-110 0 -186 31v186q55 -22 154 -22q92 0 140 43.5t48 148.5v1157h211v-1157z" />
    <glyph glyph-name="Jcircumflex" unicode="&#x134;" horiz-adv-x="698" 
d="M195 1556h-189l232 277h251l230 -277h-189l-168 177zM481 111q0 -455 -424 -455q-70 0 -106 8v209q31 -8 76 -8q107 0 163 53t56 180v1336h235v-1323z" />
    <glyph glyph-name="jcircumflex" unicode="&#x135;" horiz-adv-x="555" 
d="M115 1196h-189l213 340h279l213 -340h-189l-163 244zM383 -125q0 -387 -367 -387q-110 0 -186 31v186q55 -22 154 -22q92 0 140 43.5t48 148.5v1157h211v-1157z" />
    <glyph glyph-name="Kcedilla" unicode="&#x136;" horiz-adv-x="1501" 
d="M221 0v1434h234v-686l690 686h295l-604 -600l612 -834h-289l-487 672l-217 -215v-457h-234zM678 -504h-205l213 340h234z" />
    <glyph glyph-name="kcedilla" unicode="&#x137;" horiz-adv-x="1128" 
d="M176 0v1536h213v-950l438 446h269l-428 -434l432 -598h-262l-322 446l-127 -129v-317h-213zM496 -504h-205l213 340h233z" />
    <glyph glyph-name="kra" unicode="&#x138;" horiz-adv-x="1128" 
d="M176 0v1032h213v-442l436 442h271l-428 -434l432 -598h-262l-322 446l-127 -129v-317h-213z" />
    <glyph glyph-name="Lacute" unicode="&#x139;" horiz-adv-x="1089" 
d="M449 1556h-218l232 277h250zM221 0v1434h234v-1219h565v-215h-799z" />
    <glyph glyph-name="lacute" unicode="&#x13a;" horiz-adv-x="555" 
d="M387 1659h-217l231 276h250zM172 0v1536h211v-1536h-211z" />
    <glyph glyph-name="Lcedilla" unicode="&#x13b;" horiz-adv-x="1089" 
d="M221 0v1434h234v-1219h565v-215h-799zM508 -504h-205l213 340h234z" />
    <glyph glyph-name="lcedilla" unicode="&#x13c;" horiz-adv-x="555" 
d="M172 0v1536h211v-1536h-211zM164 -504h-205l213 340h234z" />
    <glyph glyph-name="Lcaron" unicode="&#x13d;" horiz-adv-x="1089" 
d="M221 0v1434h234v-1219h565v-215h-799zM725 1053h-180l172 381h223z" />
    <glyph glyph-name="lcaron" unicode="&#x13e;" horiz-adv-x="555" 
d="M172 0v1536h211v-1536h-211zM629 1155h-180l172 381h223z" />
    <glyph glyph-name="Ldot" unicode="&#x13f;" horiz-adv-x="1089" 
d="M221 0v1434h234v-1219h565v-215h-799zM881 608q-64 0 -109 44.5t-45 107.5q0 62 45 106.5t109 44.5q63 0 107 -44.5t44 -106.5q0 -63 -44 -107.5t-107 -44.5z" />
    <glyph glyph-name="ldot" unicode="&#x140;" horiz-adv-x="800" 
d="M172 0v1536h211v-1536h-211zM680 369q-64 0 -109 44t-45 107q0 62 45 107t109 45q63 0 107 -45t44 -107q0 -63 -44 -107t-107 -44z" />
    <glyph glyph-name="Lslash" unicode="&#x141;" horiz-adv-x="1089" 
d="M221 0v535l-221 -119v176l221 119v723h234v-600l303 161v-176l-303 -162v-442h565v-215h-799z" />
    <glyph glyph-name="lslash" unicode="&#x142;" horiz-adv-x="555" 
d="M172 0v655l-172 -92v174l172 92v707h211v-596l172 92v-174l-172 -92v-766h-211z" />
    <glyph glyph-name="Nacute" unicode="&#x143;" horiz-adv-x="1716" 
d="M967 1556h-217l231 277h250zM221 0v1434h303l738 -1133v1133h235v-1434h-305l-737 1133v-1133h-234z" />
    <glyph glyph-name="nacute" unicode="&#x144;" horiz-adv-x="1267" 
d="M768 1196h-205l213 340h234zM172 0v1032h211v-100q134 141 328 141q177 0 289 -117.5t112 -334.5v-621h-213v612q0 123 -63.5 192.5t-173.5 69.5q-174 0 -279 -178v-696h-211z" />
    <glyph glyph-name="Ncedilla" unicode="&#x145;" horiz-adv-x="1716" 
d="M221 0v1434h303l738 -1133v1133h235v-1434h-305l-737 1133v-1133h-234zM743 -504h-204l213 340h233z" />
    <glyph glyph-name="ncedilla" unicode="&#x146;" horiz-adv-x="1267" 
d="M172 0v1032h211v-100q134 141 328 141q177 0 289 -117.5t112 -334.5v-621h-213v612q0 123 -63.5 192.5t-173.5 69.5q-174 0 -279 -178v-696h-211zM526 -504h-204l213 340h233z" />
    <glyph glyph-name="Ncaron" unicode="&#x147;" horiz-adv-x="1716" 
d="M690 1833l168 -176l168 176h188l-229 -277h-252l-231 277h188zM221 0v1434h303l738 -1133v1133h235v-1434h-305l-737 1133v-1133h-234z" />
    <glyph glyph-name="ncaron" unicode="&#x148;" horiz-adv-x="1267" 
d="M496 1536l163 -244l164 244h189l-213 -340h-279l-213 340h189zM172 0v1032h211v-100q134 141 328 141q177 0 289 -117.5t112 -334.5v-621h-213v612q0 123 -63.5 192.5t-173.5 69.5q-174 0 -279 -178v-696h-211z" />
    <glyph glyph-name="napostrophe" unicode="&#x149;" horiz-adv-x="1820" 
d="M262 866h-194l178 568h239zM725 0v1032h211v-100q134 141 328 141q177 0 289 -117.5t112 -334.5v-621h-213v612q0 123 -63.5 192.5t-174.5 69.5q-173 0 -278 -178v-696h-211z" />
    <glyph glyph-name="Eng" unicode="&#x14a;" horiz-adv-x="1716" 
d="M221 0v1434h316l727 -1004v1004h235v-1352q0 -444 -414 -444q-77 0 -116 10v209q49 -11 84 -11q97 0 150.5 45.5t60.5 149.5l-809 1114v-1155h-234z" />
    <glyph glyph-name="eng" unicode="&#x14b;" horiz-adv-x="1267" 
d="M899 612q0 123 -64.5 192.5t-177.5 69.5q-169 0 -274 -178v-696h-211v1032h211v-102q136 143 324 143q180 0 292.5 -117.5t112.5 -334.5v-746q0 -387 -369 -387q-107 0 -186 31v186q58 -22 156 -22q92 0 139 43.5t47 148.5v737z" />
    <glyph glyph-name="Omacron" unicode="&#x14c;" horiz-adv-x="1708" 
d="M518 1612v157h672v-157h-672zM854 1475q164 0 306.5 -61t240.5 -164t153.5 -241.5t55.5 -291.5t-55.5 -291.5t-153.5 -241.5t-240.5 -164t-306.5 -61q-165 0 -307.5 61t-240 164t-153 241.5t-55.5 291.5t55.5 291.5t153 241.5t240 164t307.5 61zM854 180q146 0 264 71.5
t183 194.5t65 271q0 228 -145 382t-367 154q-147 0 -265 -71.5t-183.5 -194t-65.5 -270.5q0 -228 146 -382.5t368 -154.5z" />
    <glyph glyph-name="omacron" unicode="&#x14d;" horiz-adv-x="1304" 
d="M315 1315v160h672v-160h-672zM651 1073q123 0 229 -44.5t178 -120t113 -177t41 -215.5t-41 -215.5t-113 -177t-178 -120t-229 -44.5q-122 0 -228 44.5t-178.5 119.5t-113.5 177t-41 216t41 216t113.5 177t178.5 119.5t228 44.5zM653 158q145 0 241.5 104.5t96.5 253.5
q0 152 -96.5 255t-241.5 103q-148 0 -245 -103.5t-97 -254.5t97 -254.5t245 -103.5z" />
    <glyph glyph-name="Obreve" unicode="&#x14e;" horiz-adv-x="1708" 
d="M854 1683q87 0 133 38.5t51 111.5h176q0 -142 -98 -219.5t-262 -77.5t-262 77.5t-98 219.5h176q5 -73 51 -111.5t133 -38.5zM854 1475q164 0 306.5 -61t240.5 -164t153.5 -241.5t55.5 -291.5t-55.5 -291.5t-153.5 -241.5t-240.5 -164t-306.5 -61q-165 0 -307.5 61
t-240 164t-153 241.5t-55.5 291.5t55.5 291.5t153 241.5t240 164t307.5 61zM854 180q146 0 264 71.5t183 194.5t65 271q0 228 -145 382t-367 154q-147 0 -265 -71.5t-183.5 -194t-65.5 -270.5q0 -228 146 -382.5t368 -154.5z" />
    <glyph glyph-name="obreve" unicode="&#x14f;" horiz-adv-x="1304" 
d="M651 1343q88 0 132 49.5t44 143.5h177q0 -164 -93.5 -252t-259.5 -88q-164 0 -258 88.5t-94 251.5h176q0 -93 45 -143t131 -50zM651 1073q123 0 229 -44.5t178 -120t113 -177t41 -215.5t-41 -215.5t-113 -177t-178 -120t-229 -44.5q-122 0 -228 44.5t-178.5 119.5
t-113.5 177t-41 216t41 216t113.5 177t178.5 119.5t228 44.5zM653 158q145 0 241.5 104.5t96.5 253.5q0 152 -96.5 255t-241.5 103q-148 0 -245 -103.5t-97 -254.5t97 -254.5t245 -103.5z" />
    <glyph glyph-name="Ohungarumlaut" unicode="&#x150;" horiz-adv-x="1708" 
d="M745 1556h-217l232 277h250zM1176 1556h-218l232 277h250zM854 1475q164 0 306.5 -61t240.5 -164t153.5 -241.5t55.5 -291.5t-55.5 -291.5t-153.5 -241.5t-240.5 -164t-306.5 -61q-165 0 -307.5 61t-240 164t-153 241.5t-55.5 291.5t55.5 291.5t153 241.5t240 164
t307.5 61zM854 180q146 0 264 71.5t183 194.5t65 271q0 228 -145 382t-367 154q-147 0 -265 -71.5t-183.5 -194t-65.5 -270.5q0 -228 146 -382.5t368 -154.5z" />
    <glyph glyph-name="ohungarumlaut" unicode="&#x151;" horiz-adv-x="1304" 
d="M557 1196h-203l211 340h236zM944 1196h-205l213 340h234zM651 1073q123 0 229 -44.5t178 -120t113 -177t41 -215.5t-41 -215.5t-113 -177t-178 -120t-229 -44.5q-122 0 -228 44.5t-178.5 119.5t-113.5 177t-41 216t41 216t113.5 177t178.5 119.5t228 44.5zM653 158
q145 0 241.5 104.5t96.5 253.5q0 152 -96.5 255t-241.5 103q-148 0 -245 -103.5t-97 -254.5t97 -254.5t245 -103.5z" />
    <glyph glyph-name="OE" unicode="&#x152;" horiz-adv-x="2125" 
d="M854 1434h1120v-199h-563v-406h481v-198h-481v-432h563v-199h-1120q-165 0 -307.5 57.5t-240 155.5t-153 229t-55.5 275t55.5 275t153 229t240 155.5t307.5 57.5zM850 203h326v1028h-326q-219 0 -364.5 -148.5t-145.5 -365.5q0 -143 65.5 -260.5t182.5 -185.5t262 -68z
" />
    <glyph glyph-name="oe" unicode="&#x153;" horiz-adv-x="2105" 
d="M651 1073q141 0 256 -59t189 -162q66 104 174 162.5t246 58.5q210 0 338 -128t128 -327q0 -64 -12 -126h-764q10 -165 105.5 -253.5t247.5 -88.5q93 0 168 37.5t122 103.5l156 -123q-73 -99 -188.5 -154t-257.5 -55q-152 0 -269 61t-190 168q-72 -107 -188.5 -168
t-260.5 -61q-122 0 -228 44.5t-178.5 119.5t-113.5 177t-41 216t41 216t113.5 177t178.5 119.5t228 44.5zM1509 897q-113 0 -190.5 -62t-104.5 -186h560q-3 103 -75 175.5t-190 72.5zM653 158q145 0 241.5 104.5t96.5 253.5q0 152 -96.5 255t-241.5 103q-148 0 -245 -103.5
t-97 -254.5t97 -254.5t245 -103.5z" />
    <glyph glyph-name="Racute" unicode="&#x154;" horiz-adv-x="1337" 
d="M762 1556h-217l231 277h250zM221 0v1434h406q225 0 355 -111.5t130 -302.5q0 -130 -61 -225t-174 -142l454 -653h-278l-400 606h-26h-172v-606h-234zM639 1235h-184v-430h184q108 0 168.5 58t60.5 161q0 98 -60.5 154.5t-168.5 56.5z" />
    <glyph glyph-name="racute" unicode="&#x155;" horiz-adv-x="821" 
d="M510 1196h-205l213 340h234zM172 0v1032h211v-117q124 138 289 138q39 0 90 -15v-207q-62 15 -109 15q-175 0 -270 -158v-688h-211z" />
    <glyph glyph-name="Rcedilla" unicode="&#x156;" horiz-adv-x="1337" 
d="M221 0v1434h406q225 0 355 -111.5t130 -302.5q0 -130 -61 -225t-174 -142l454 -653h-278l-400 606h-26h-172v-606h-234zM639 1235h-184v-430h184q108 0 168.5 58t60.5 161q0 98 -60.5 154.5t-168.5 56.5zM618 -504h-204l213 340h233z" />
    <glyph glyph-name="rcedilla" unicode="&#x157;" horiz-adv-x="821" 
d="M172 0v1032h211v-117q124 138 289 138q39 0 90 -15v-207q-62 15 -109 15q-175 0 -270 -158v-688h-211zM219 -504h-205l213 340h234z" />
    <glyph glyph-name="Rcaron" unicode="&#x158;" horiz-adv-x="1337" 
d="M485 1833l168 -176l168 176h189l-230 -277h-252l-231 277h188zM221 0v1434h406q225 0 355 -111.5t130 -302.5q0 -130 -61 -225t-174 -142l454 -653h-278l-400 606h-26h-172v-606h-234zM639 1235h-184v-430h184q108 0 168.5 58t60.5 161q0 98 -60.5 154.5t-168.5 56.5z
" />
    <glyph glyph-name="rcaron" unicode="&#x159;" horiz-adv-x="821" 
d="M238 1536l163 -244l164 244h189l-213 -340h-279l-213 340h189zM172 0v1032h211v-117q124 138 289 138q39 0 90 -15v-207q-62 15 -109 15q-175 0 -270 -158v-688h-211z" />
    <glyph glyph-name="Sacute" unicode="&#x15a;" horiz-adv-x="1204" 
d="M717 1556h-217l231 277h250zM102 199l172 157q147 -186 334 -186q105 0 164 54.5t59 146.5q0 60 -37 107t-95.5 79.5t-129.5 64t-142.5 69.5t-130 86t-95.5 124.5t-37 173.5q0 167 125 283.5t317 116.5q284 0 475 -238l-174 -156q-133 185 -299 185q-93 0 -149 -51.5
t-56 -133.5q0 -59 37 -105.5t96 -79t130 -63.5t142 -69.5t130 -86.5t96 -125t37 -175q-3 -189 -133 -303.5t-326 -114.5q-164 0 -288 60.5t-222 179.5z" />
    <glyph glyph-name="sacute" unicode="&#x15b;" horiz-adv-x="919" 
d="M584 1196h-205l213 340h233zM70 145l145 127q111 -141 252 -141q73 0 114.5 39t41.5 100q0 42 -28 73.5t-72.5 53t-98.5 42t-108 46.5t-98.5 60.5t-72.5 91.5t-28 131q0 129 98.5 217t251.5 88q110 0 205 -47.5t153 -124.5l-143 -125q-93 125 -213 125q-71 0 -109 -36
t-38 -91q0 -42 28 -73.5t72.5 -53t98 -42t107.5 -46.5t98.5 -59.5t72.5 -89t28 -127.5q-1 -98 -50.5 -173t-130 -113t-177.5 -38q-246 0 -399 186z" />
    <glyph glyph-name="Scircumflex" unicode="&#x15c;" horiz-adv-x="1204" 
d="M440 1556h-188l231 277h252l230 -277h-189l-168 177zM102 199l172 157q147 -186 334 -186q105 0 164 54.5t59 146.5q0 60 -37 107t-95.5 79.5t-129.5 64t-142.5 69.5t-130 86t-95.5 124.5t-37 173.5q0 167 125 283.5t317 116.5q284 0 475 -238l-174 -156
q-133 185 -299 185q-93 0 -149 -51.5t-56 -133.5q0 -59 37 -105.5t96 -79t130 -63.5t142 -69.5t130 -86.5t96 -125t37 -175q-3 -189 -133 -303.5t-326 -114.5q-164 0 -288 60.5t-222 179.5z" />
    <glyph glyph-name="scircumflex" unicode="&#x15d;" horiz-adv-x="919" 
d="M311 1196h-188l213 340h278l213 -340h-188l-164 244zM70 145l145 127q111 -141 252 -141q73 0 114.5 39t41.5 100q0 42 -28 73.5t-72.5 53t-98.5 42t-108 46.5t-98.5 60.5t-72.5 91.5t-28 131q0 129 98.5 217t251.5 88q110 0 205 -47.5t153 -124.5l-143 -125
q-93 125 -213 125q-71 0 -109 -36t-38 -91q0 -42 28 -73.5t72.5 -53t98 -42t107.5 -46.5t98.5 -59.5t72.5 -89t28 -127.5q-1 -98 -50.5 -173t-130 -113t-177.5 -38q-246 0 -399 186z" />
    <glyph glyph-name="Scedilla" unicode="&#x15e;" horiz-adv-x="1204" 
d="M102 199l172 157q147 -186 334 -186q105 0 164 54.5t59 146.5q0 60 -37 107t-95.5 79.5t-129.5 64t-142.5 69.5t-130 86t-95.5 124.5t-37 173.5q0 167 125 283.5t317 116.5q284 0 475 -238l-174 -156q-133 185 -299 185q-93 0 -149 -51.5t-56 -133.5q0 -59 37 -105.5
t96 -79t130 -63.5t142 -69.5t130 -86.5t96 -125t37 -175q-3 -165 -105 -275t-264 -137l-75 -86q89 0 152 -52t63 -130q0 -89 -69 -148t-175 -59q-140 0 -219 70l78 110q56 -53 131 -53q41 0 66.5 21t25.5 57t-26.5 56t-71.5 20q-44 0 -82 -21l-72 86l100 127
q-250 25 -426 236z" />
    <glyph glyph-name="scedilla" unicode="&#x15f;" horiz-adv-x="919" 
d="M70 145l145 127q111 -141 252 -141q73 0 114.5 39t41.5 100q0 42 -28 73.5t-72.5 53t-98.5 42t-108 46.5t-98.5 60.5t-72.5 91.5t-28 131q0 129 98.5 217t251.5 88q110 0 205 -47.5t153 -124.5l-143 -125q-93 125 -213 125q-71 0 -109 -36t-38 -91q0 -42 28 -73.5
t72.5 -53t98 -42t107.5 -46.5t98.5 -59.5t72.5 -89t28 -127.5q-1 -128 -81 -212.5t-203 -105.5l-76 -86q89 0 152 -52t63 -130q0 -89 -69 -148t-175 -59q-140 0 -219 70l78 110q56 -53 131 -53q41 0 66.5 21t25.5 57t-26.5 56t-71.5 20q-44 0 -82 -21l-72 86l105 131
q-179 28 -303 178z" />
    <glyph glyph-name="Scaron" unicode="&#x160;" horiz-adv-x="1204" 
d="M440 1833l168 -176l168 176h189l-230 -277h-252l-231 277h188zM102 199l172 157q147 -186 334 -186q105 0 164 54.5t59 146.5q0 60 -37 107t-95.5 79.5t-129.5 64t-142.5 69.5t-130 86t-95.5 124.5t-37 173.5q0 167 125 283.5t317 116.5q284 0 475 -238l-174 -156
q-133 185 -299 185q-93 0 -149 -51.5t-56 -133.5q0 -59 37 -105.5t96 -79t130 -63.5t142 -69.5t130 -86.5t96 -125t37 -175q-3 -189 -133 -303.5t-326 -114.5q-164 0 -288 60.5t-222 179.5z" />
    <glyph glyph-name="scaron" unicode="&#x161;" horiz-adv-x="919" 
d="M311 1536l164 -244l164 244h188l-213 -340h-278l-213 340h188zM70 145l145 127q111 -141 252 -141q73 0 114.5 39t41.5 100q0 42 -28 73.5t-72.5 53t-98.5 42t-108 46.5t-98.5 60.5t-72.5 91.5t-28 131q0 129 98.5 217t251.5 88q110 0 205 -47.5t153 -124.5l-143 -125
q-93 125 -213 125q-71 0 -109 -36t-38 -91q0 -42 28 -73.5t72.5 -53t98 -42t107.5 -46.5t98.5 -59.5t72.5 -89t28 -127.5q-1 -98 -50.5 -173t-130 -113t-177.5 -38q-246 0 -399 186z" />
    <glyph glyph-name="Tcedilla" unicode="&#x162;" horiz-adv-x="1294" 
d="M68 1219v215h1157v-215h-461v-1219h-27l-106 -121q89 0 152 -52t63 -130q0 -89 -69 -148t-175 -59q-140 0 -219 70l78 110q56 -53 131 -53q41 0 66.5 21t25.5 57t-26.5 56t-71.5 20q-44 0 -82 -21l-72 86l131 164h-35v1219h-460z" />
    <glyph glyph-name="tcedilla" unicode="&#x163;" horiz-adv-x="868" 
d="M233 358v484h-194v190h194v258h213v-258h342v-190h-342v-484q0 -99 48.5 -141.5t140.5 -42.5t153 23v-187q-61 -25 -135 -28l-90 -103q89 0 152 -52t63 -130q0 -89 -68.5 -148t-174.5 -59q-141 0 -220 70l78 110q56 -53 131 -53q41 0 66.5 21t25.5 57t-26.5 56t-71.5 20
q-44 0 -82 -21l-71 86l122 156q-254 53 -254 366z" />
    <glyph glyph-name="Tcaron" unicode="&#x164;" horiz-adv-x="1294" 
d="M481 1833l168 -176l168 176h189l-230 -277h-252l-231 277h188zM68 1219v215h1157v-215h-461v-1219h-236v1219h-460z" />
    <glyph glyph-name="tcaron" unicode="&#x165;" horiz-adv-x="868" 
d="M690 1155h-180l172 381h223zM233 358v484h-194v190h194v258h213v-258h342v-190h-342v-484q0 -99 48.5 -141.5t140.5 -42.5t153 23v-187q-74 -30 -186 -30q-182 0 -275.5 95t-93.5 283z" />
    <glyph glyph-name="Tbar" unicode="&#x166;" horiz-adv-x="1294" 
d="M242 571v160h286v488h-460v215h1157v-215h-461v-488h291v-160h-291v-571h-236v571h-286z" />
    <glyph glyph-name="tbar" unicode="&#x167;" horiz-adv-x="868" 
d="M233 358v150h-194v160h194v174h-194v190h194v258h213v-258h342v-190h-342v-174h345v-160h-345v-150q0 -99 48.5 -141.5t140.5 -42.5t153 23v-187q-74 -30 -186 -30q-182 0 -275.5 95t-93.5 283z" />
    <glyph glyph-name="Utilde" unicode="&#x168;" horiz-adv-x="1490" 
d="M389 1565v71q0 95 55.5 152t145.5 57q48 0 97.5 -23.5t82.5 -51t68.5 -51t60.5 -23.5q49 0 49 61v68h156l2 -72q0 -97 -56 -153t-145 -56q-49 0 -98.5 23.5t-82 51.5t-68 51.5t-60.5 23.5q-49 0 -49 -64l-2 -65h-156zM1077 532v902h236v-885q0 -277 -152 -433.5
t-413 -156.5q-262 0 -415 157t-153 433v885h234v-902q0 -167 89.5 -259.5t244.5 -92.5q152 0 240.5 92.5t88.5 259.5z" />
    <glyph glyph-name="utilde" unicode="&#x169;" horiz-adv-x="1234" 
d="M987 1518v-91q0 -104 -53.5 -166t-149.5 -61q-53 0 -95.5 18t-70.5 43.5t-51.5 51t-50 43.5t-55.5 18q-28 0 -44 -15.5t-16 -43.5v-101h-157v93q0 103 52.5 164.5t147.5 60.5q54 0 97.5 -18t71.5 -43.5t52.5 -51t51 -43.5t55.5 -18q27 0 42 16.5t15 44.5v99h158zM872 442
v590h213v-579q0 -231 -125 -362.5t-342 -131.5q-219 0 -343.5 131.5t-124.5 362.5v579h212v-590q0 -134 67.5 -209t188.5 -75q119 0 186.5 75.5t67.5 208.5z" />
    <glyph glyph-name="Umacron" unicode="&#x16a;" horiz-adv-x="1490" 
d="M412 1612v157h671v-157h-671zM1077 532v902h236v-885q0 -277 -152 -433.5t-413 -156.5q-262 0 -415 157t-153 433v885h234v-902q0 -167 89.5 -259.5t244.5 -92.5q152 0 240.5 92.5t88.5 259.5z" />
    <glyph glyph-name="umacron" unicode="&#x16b;" horiz-adv-x="1234" 
d="M281 1315v160h671v-160h-671zM872 442v590h213v-579q0 -231 -125 -362.5t-342 -131.5q-219 0 -343.5 131.5t-124.5 362.5v579h212v-590q0 -134 67.5 -209t188.5 -75q119 0 186.5 75.5t67.5 208.5z" />
    <glyph glyph-name="Ubreve" unicode="&#x16c;" horiz-adv-x="1490" 
d="M748 1683q87 0 133 38.5t51 111.5h176q0 -142 -98 -219.5t-262 -77.5t-262.5 77.5t-98.5 219.5h176q5 -73 51.5 -111.5t133.5 -38.5zM1077 532v902h236v-885q0 -277 -152 -433.5t-413 -156.5q-262 0 -415 157t-153 433v885h234v-902q0 -167 89.5 -259.5t244.5 -92.5
q152 0 240.5 92.5t88.5 259.5z" />
    <glyph glyph-name="ubreve" unicode="&#x16d;" horiz-adv-x="1234" 
d="M616 1343q88 0 132.5 49.5t44.5 143.5h176q0 -164 -93.5 -252t-259.5 -88q-164 0 -258 88.5t-94 251.5h176q0 -93 45 -143t131 -50zM872 442v590h213v-579q0 -231 -125 -362.5t-342 -131.5q-219 0 -343.5 131.5t-124.5 362.5v579h212v-590q0 -134 67.5 -209t188.5 -75
q119 0 186.5 75.5t67.5 208.5z" />
    <glyph glyph-name="Uring" unicode="&#x16e;" horiz-adv-x="1490" 
d="M489 1743q0 111 74 170t185 59q113 0 186.5 -58.5t73.5 -170.5q0 -110 -74 -170t-186 -60q-111 0 -185 60t-74 170zM877 1743q0 54 -35.5 83t-93.5 29t-94 -29t-36 -83q0 -52 36.5 -81.5t93.5 -29.5q56 0 92.5 29.5t36.5 81.5zM1077 532v902h236v-885q0 -277 -152 -433.5
t-413 -156.5q-262 0 -415 157t-153 433v885h234v-902q0 -167 89.5 -259.5t244.5 -92.5q152 0 240.5 92.5t88.5 259.5z" />
    <glyph glyph-name="uring" unicode="&#x16f;" horiz-adv-x="1234" 
d="M358 1382q0 106 75.5 174t182.5 68q108 0 184.5 -68t76.5 -174q0 -108 -76 -175.5t-185 -67.5q-107 0 -182.5 68t-75.5 175zM745 1380q0 56 -37 91.5t-92 35.5t-92 -35.5t-37 -91.5t37 -90.5t92 -34.5t92 34.5t37 90.5zM872 442v590h213v-579q0 -231 -125 -362.5
t-342 -131.5q-219 0 -343.5 131.5t-124.5 362.5v579h212v-590q0 -134 67.5 -209t188.5 -75q119 0 186.5 75.5t67.5 208.5z" />
    <glyph glyph-name="Uhungarumlaut" unicode="&#x170;" horiz-adv-x="1490" 
d="M639 1556h-217l231 277h250zM1069 1556h-217l231 277h250zM1077 532v902h236v-885q0 -277 -152 -433.5t-413 -156.5q-262 0 -415 157t-153 433v885h234v-902q0 -167 89.5 -259.5t244.5 -92.5q152 0 240.5 92.5t88.5 259.5z" />
    <glyph glyph-name="uhungarumlaut" unicode="&#x171;" horiz-adv-x="1234" 
d="M522 1196h-203l211 340h236zM909 1196h-204l213 340h233zM872 442v590h213v-579q0 -231 -125 -362.5t-342 -131.5q-219 0 -343.5 131.5t-124.5 362.5v579h212v-590q0 -134 67.5 -209t188.5 -75q119 0 186.5 75.5t67.5 208.5z" />
    <glyph glyph-name="Uogonek" unicode="&#x172;" horiz-adv-x="1490" 
d="M532 -283q0 131 154 244q-235 19 -370.5 174t-135.5 414v885h234v-902q0 -167 89.5 -259.5t244.5 -92.5q152 0 240.5 92.5t88.5 259.5v902h236v-885q0 -216 -95.5 -361t-267.5 -200l-86 -56q-89 -62 -124 -104t-35 -84q0 -100 122 -100q80 0 142 28v-145
q-71 -31 -172 -31q-125 0 -195 65.5t-70 155.5z" />
    <glyph glyph-name="uogonek" unicode="&#x173;" horiz-adv-x="1234" 
d="M377 -283q0 135 158 248q-182 25 -283.5 152.5t-101.5 335.5v579h212v-590q0 -134 67.5 -209t188.5 -75q119 0 186.5 75.5t67.5 208.5v590h213v-579q0 -181 -78 -302.5t-219 -166.5l-79 -52q-89 -62 -124.5 -104t-35.5 -84q0 -100 123 -100q79 0 141 28v-145
q-71 -31 -172 -31q-125 0 -194.5 65.5t-69.5 155.5z" />
    <glyph glyph-name="Wcircumflex" unicode="&#x174;" horiz-adv-x="2158" 
d="M918 1556h-189l232 277h251l230 -277h-189l-168 177zM61 1434h234l293 -1168l336 1168h311l334 -1172l297 1172h231l-362 -1434h-318l-338 1180l-340 -1180h-315z" />
    <glyph glyph-name="wcircumflex" unicode="&#x175;" horiz-adv-x="1673" 
d="M672 1196h-189l213 340h279l213 -340h-189l-163 244zM61 1032h211l199 -811l221 811h289l219 -811l201 811h209l-252 -1032h-297l-223 829l-228 -829h-293z" />
    <glyph glyph-name="Ycircumflex" unicode="&#x176;" horiz-adv-x="1413" 
d="M539 1556h-189l232 277h252l229 -277h-189l-167 177zM1411 1434l-586 -805v-629h-235v627l-586 807h285l418 -576l419 576h285z" />
    <glyph glyph-name="ycircumflex" unicode="&#x177;" horiz-adv-x="1134" 
d="M403 1196h-188l213 340h279l213 -340h-189l-164 244zM582 -244q-112 -268 -375 -268q-96 0 -174 33v188q60 -26 131 -26q82 0 137 34.5t90 118.5l70 166l-441 1030h234l319 -760l316 760h225z" />
    <glyph glyph-name="Ydieresis" unicode="&#x178;" horiz-adv-x="1413" 
d="M498 1569q-53 0 -90 36.5t-37 88.5q0 51 37 87t90 36q50 0 87.5 -36.5t37.5 -86.5q0 -52 -37.5 -88.5t-87.5 -36.5zM915 1569q-51 0 -87.5 36.5t-36.5 88.5q0 51 36.5 87t87.5 36q53 0 90 -36t37 -87q0 -52 -37 -88.5t-90 -36.5zM1411 1434l-586 -805v-629h-235v627
l-586 807h285l418 -576l419 576h285z" />
    <glyph glyph-name="Zacute" unicode="&#x179;" horiz-adv-x="1392" 
d="M813 1556h-217l231 277h250zM117 0v215l850 1004h-830v215h1116v-215l-847 -1004h868v-215h-1157z" />
    <glyph glyph-name="zacute" unicode="&#x17a;" horiz-adv-x="1060" 
d="M639 1196h-205l213 340h234zM106 0v190l574 652h-559v190h819v-190l-573 -652h587v-190h-848z" />
    <glyph glyph-name="Zdotaccent" unicode="&#x17b;" horiz-adv-x="1392" 
d="M705 1595q-53 0 -90 36.5t-37 88.5q0 51 37 87t90 36q51 0 87.5 -36t36.5 -87q0 -52 -36.5 -88.5t-87.5 -36.5zM117 0v215l850 1004h-830v215h1116v-215l-847 -1004h868v-215h-1157z" />
    <glyph glyph-name="zdotaccent" unicode="&#x17c;" horiz-adv-x="1060" 
d="M530 1262q-58 0 -100.5 42t-42.5 101t42.5 101t100.5 42q59 0 101.5 -42.5t42.5 -100.5t-42.5 -100.5t-101.5 -42.5zM106 0v190l574 652h-559v190h819v-190l-573 -652h587v-190h-848z" />
    <glyph glyph-name="Zcaron" unicode="&#x17d;" horiz-adv-x="1392" 
d="M537 1833l168 -176l167 176h189l-230 -277h-251l-232 277h189zM117 0v215l850 1004h-830v215h1116v-215l-847 -1004h868v-215h-1157z" />
    <glyph glyph-name="zcaron" unicode="&#x17e;" horiz-adv-x="1060" 
d="M367 1536l163 -244l164 244h189l-213 -340h-279l-213 340h189zM106 0v190l574 652h-559v190h819v-190l-573 -652h587v-190h-848z" />
    <glyph glyph-name="Schwa" unicode="&#x18f;" horiz-adv-x="1583" 
d="M1487 715q0 -155 -50 -292.5t-139.5 -240.5t-224.5 -163t-295 -60q-146 0 -271.5 50t-211.5 135t-135 200t-49 244q0 85 14 153h1118q-6 144 -72 260.5t-182.5 184t-261.5 67.5q-138 0 -254 -60t-194 -167l-181 143q108 141 268.5 222.5t364.5 81.5q221 0 395 -102.5
t267.5 -274.5t93.5 -381zM784 168q171 0 288 99t155 278h-877q5 -156 122 -266.5t312 -110.5z" />
    <glyph glyph-name="Eopen" unicode="&#x190;" horiz-adv-x="1245" 
d="M125 401q0 123 63 220t179 149q-86 54 -132.5 137.5t-46.5 186.5q0 171 125.5 276t319.5 105q312 0 477 -267l-184 -114q-102 178 -279 178q-101 0 -164 -53.5t-63 -147.5t67 -152.5t175 -58.5h215v-201h-240q-128 0 -205.5 -68t-77.5 -179q0 -115 79.5 -182.5
t203.5 -67.5q117 0 201.5 54.5t150.5 174.5l197 -125q-90 -153 -224 -230t-325 -77q-147 0 -263 54.5t-182.5 155.5t-66.5 232z" />
    <glyph glyph-name="ltGamma" unicode="&#x194;" horiz-adv-x="1519" 
d="M1102 -193q-1 -147 -96.5 -233t-247.5 -86t-248.5 86t-97.5 233q0 95 28 169t105 214l82 152l-586 1092h256l461 -850l459 850h258l-586 -1094l82 -150q76 -141 103.5 -214.5t27.5 -168.5zM758 -313q52 0 82 34.5t30 90.5q0 69 -108 276l-4 8l-4 -8q-109 -208 -109 -276
q0 -57 30 -91t83 -34z" />
    <glyph glyph-name="Nhookleft" unicode="&#x19d;" horiz-adv-x="1716" 
d="M455 111q0 -455 -422 -455q-70 0 -109 8v209q33 -8 76 -8q108 0 164.5 53t56.5 180v1336h303l738 -1133v1133h235v-1434h-305l-737 1133v-1022z" />
    <glyph glyph-name="Ohorn" unicode="&#x1a0;" horiz-adv-x="1708" 
d="M854 1475q135 0 256 -41h102q71 0 107.5 36t36.5 91q0 70 -68 125l123 102q50 -40 80.5 -101.5t30.5 -125.5q0 -94 -54 -156t-143 -88q134 -105 209.5 -262.5t75.5 -337.5q0 -153 -55.5 -291.5t-153.5 -241.5t-240.5 -164t-306.5 -61q-165 0 -307.5 61t-240 164
t-153 241.5t-55.5 291.5t55.5 291.5t153 241.5t240 164t307.5 61zM854 180q146 0 264 71.5t183 194.5t65 271q0 228 -145 382t-367 154q-147 0 -265 -71.5t-183.5 -194t-65.5 -270.5q0 -228 146 -382.5t368 -154.5z" />
    <glyph glyph-name="ohorn" unicode="&#x1a1;" horiz-adv-x="1304" 
d="M651 1073q121 0 221 -41h66q72 0 108.5 36t36.5 91q0 70 -67 125l119 102q51 -40 81.5 -101.5t30.5 -125.5q0 -94 -53.5 -156t-142.5 -88q77 -75 119 -179t42 -220q0 -114 -41 -215.5t-113 -177t-178 -120t-229 -44.5q-122 0 -228 44.5t-178.5 119.5t-113.5 177t-41 216
t41 216t113.5 177t178.5 119.5t228 44.5zM653 158q145 0 241.5 104.5t96.5 253.5q0 152 -96.5 255t-241.5 103q-148 0 -245 -103.5t-97 -254.5t97 -254.5t245 -103.5z" />
    <glyph glyph-name="Uhorn" unicode="&#x1af;" horiz-adv-x="1490" 
d="M1077 532v902h166q71 0 107 36t36 91q0 70 -67 125l123 102q50 -40 80 -101.5t30 -125.5q0 -105 -68 -170.5t-171 -81.5v-760q0 -277 -152 -433.5t-413 -156.5q-262 0 -415 157t-153 433v885h234v-902q0 -167 89.5 -259.5t244.5 -92.5q152 0 240.5 92.5t88.5 259.5z" />
    <glyph glyph-name="uhorn" unicode="&#x1b0;" horiz-adv-x="1234" 
d="M872 442v590h142q72 0 108.5 36t36.5 91q0 70 -67 125l118 102q51 -40 82 -101.5t31 -125.5q0 -105 -67.5 -170.5t-170.5 -81.5v-454q0 -231 -125 -362.5t-342 -131.5q-219 0 -343.5 131.5t-124.5 362.5v579h212v-590q0 -134 67.5 -209t188.5 -75q119 0 186.5 75.5
t67.5 208.5z" />
    <glyph glyph-name="Acaron" unicode="&#x1cd;" horiz-adv-x="1519" 
d="M592 1833l168 -176l168 176h188l-229 -277h-252l-232 277h189zM45 0l559 1434h311l560 -1434h-252l-152 401h-625l-151 -401h-250zM524 602h469l-233 619z" />
    <glyph glyph-name="acaron" unicode="&#x1ce;" horiz-adv-x="1155" 
d="M412 1536l163 -244l164 244h189l-213 -340h-279l-213 340h189zM457 -31q-155 0 -249.5 81.5t-94.5 217.5q0 118 88.5 197.5t251.5 107.5l333 56v53q0 94 -63 149.5t-164 55.5q-165 0 -260 -135l-158 120q71 95 180 148t244 53q204 0 318 -108t114 -283v-682h-211v117
q-56 -68 -145 -108t-184 -40zM326 276q0 -61 45.5 -98t124.5 -37q95 0 169 42.5t121 117.5v178l-278 -47q-182 -32 -182 -156z" />
    <glyph glyph-name="Icaron" unicode="&#x1cf;" horiz-adv-x="675" 
d="M170 1833l168 -176l168 176h188l-229 -277h-252l-231 277h188zM221 0v1434h234v-1434h-234z" />
    <glyph glyph-name="icaron" unicode="&#x1d0;" horiz-adv-x="555" 
d="M115 1536l164 -244l163 244h189l-213 -340h-279l-213 340h189zM172 0v1032h211v-1032h-211z" />
    <glyph glyph-name="Ocaron" unicode="&#x1d1;" horiz-adv-x="1708" 
d="M686 1833l168 -176l168 176h188l-229 -277h-252l-231 277h188zM854 1475q164 0 306.5 -61t240.5 -164t153.5 -241.5t55.5 -291.5t-55.5 -291.5t-153.5 -241.5t-240.5 -164t-306.5 -61q-165 0 -307.5 61t-240 164t-153 241.5t-55.5 291.5t55.5 291.5t153 241.5t240 164
t307.5 61zM854 180q146 0 264 71.5t183 194.5t65 271q0 228 -145 382t-367 154q-147 0 -265 -71.5t-183.5 -194t-65.5 -270.5q0 -228 146 -382.5t368 -154.5z" />
    <glyph glyph-name="ocaron" unicode="&#x1d2;" horiz-adv-x="1304" 
d="M487 1536l164 -244l164 244h189l-213 -340h-279l-213 340h188zM651 1073q123 0 229 -44.5t178 -120t113 -177t41 -215.5t-41 -215.5t-113 -177t-178 -120t-229 -44.5q-122 0 -228 44.5t-178.5 119.5t-113.5 177t-41 216t41 216t113.5 177t178.5 119.5t228 44.5zM653 158
q145 0 241.5 104.5t96.5 253.5q0 152 -96.5 255t-241.5 103q-148 0 -245 -103.5t-97 -254.5t97 -254.5t245 -103.5z" />
    <glyph glyph-name="Ucaron" unicode="&#x1d3;" horiz-adv-x="1490" 
d="M580 1833l168 -176l167 176h189l-230 -277h-251l-232 277h189zM1077 532v902h236v-885q0 -277 -152 -433.5t-413 -156.5q-262 0 -415 157t-153 433v885h234v-902q0 -167 89.5 -259.5t244.5 -92.5q152 0 240.5 92.5t88.5 259.5z" />
    <glyph glyph-name="ucaron" unicode="&#x1d4;" horiz-adv-x="1234" 
d="M453 1536l163 -244l164 244h189l-213 -340h-279l-213 340h189zM872 442v590h213v-579q0 -231 -125 -362.5t-342 -131.5q-219 0 -343.5 131.5t-124.5 362.5v579h212v-590q0 -134 67.5 -209t188.5 -75q119 0 186.5 75.5t67.5 208.5z" />
    <glyph glyph-name="Udieresismacron" unicode="&#x1d5;" horiz-adv-x="1490" 
d="M412 1933v158h671v-158h-671zM539 1569q-53 0 -90 36.5t-37 88.5q0 51 37 87t90 36q50 0 87.5 -36.5t37.5 -86.5q0 -52 -37.5 -88.5t-87.5 -36.5zM956 1569q-51 0 -88 36.5t-37 88.5q0 51 37 87t88 36q53 0 90 -36t37 -87q0 -52 -37 -88.5t-90 -36.5zM1077 532v902h236
v-885q0 -277 -152 -433.5t-413 -156.5q-262 0 -415 157t-153 433v885h234v-902q0 -167 89.5 -259.5t244.5 -92.5q152 0 240.5 92.5t88.5 259.5z" />
    <glyph glyph-name="udieresismacron" unicode="&#x1d6;" horiz-adv-x="1234" 
d="M281 1532v158h671v-158h-671zM408 1167q-53 0 -90 36.5t-37 88.5q0 51 37 87t90 36q50 0 87 -36t37 -87q0 -52 -37 -88.5t-87 -36.5zM825 1167q-51 0 -88 36.5t-37 88.5q0 51 37 87t88 36q53 0 90 -36t37 -87q0 -52 -37 -88.5t-90 -36.5zM872 442v590h213v-579
q0 -231 -125 -362.5t-342 -131.5q-219 0 -343.5 131.5t-124.5 362.5v579h212v-590q0 -134 67.5 -209t188.5 -75q119 0 186.5 75.5t67.5 208.5z" />
    <glyph glyph-name="Udieresisacute" unicode="&#x1d7;" horiz-adv-x="1490" 
d="M856 1878h-217l231 276h250zM539 1569q-53 0 -90 36.5t-37 88.5q0 51 37 87t90 36q50 0 87.5 -36.5t37.5 -86.5q0 -52 -37.5 -88.5t-87.5 -36.5zM956 1569q-51 0 -88 36.5t-37 88.5q0 51 37 87t88 36q53 0 90 -36t37 -87q0 -52 -37 -88.5t-90 -36.5zM1077 532v902h236
v-885q0 -277 -152 -433.5t-413 -156.5q-262 0 -415 157t-153 433v885h234v-902q0 -167 89.5 -259.5t244.5 -92.5q152 0 240.5 92.5t88.5 259.5z" />
    <glyph glyph-name="udieresisacute" unicode="&#x1d8;" horiz-adv-x="1234" 
d="M725 1477h-217l231 276h250zM408 1167q-53 0 -90 36.5t-37 88.5q0 51 37 87t90 36q50 0 87 -36t37 -87q0 -52 -37 -88.5t-87 -36.5zM825 1167q-51 0 -88 36.5t-37 88.5q0 51 37 87t88 36q53 0 90 -36t37 -87q0 -52 -37 -88.5t-90 -36.5zM872 442v590h213v-579
q0 -231 -125 -362.5t-342 -131.5q-219 0 -343.5 131.5t-124.5 362.5v579h212v-590q0 -134 67.5 -209t188.5 -75q119 0 186.5 75.5t67.5 208.5z" />
    <glyph glyph-name="Udieresiscaron" unicode="&#x1d9;" horiz-adv-x="1490" 
d="M580 2154l168 -176l167 176h189l-230 -276h-251l-232 276h189zM539 1569q-53 0 -90 36.5t-37 88.5q0 51 37 87t90 36q50 0 87.5 -36.5t37.5 -86.5q0 -52 -37.5 -88.5t-87.5 -36.5zM956 1569q-51 0 -88 36.5t-37 88.5q0 51 37 87t88 36q53 0 90 -36t37 -87
q0 -52 -37 -88.5t-90 -36.5zM1077 532v902h236v-885q0 -277 -152 -433.5t-413 -156.5q-262 0 -415 157t-153 433v885h234v-902q0 -167 89.5 -259.5t244.5 -92.5q152 0 240.5 92.5t88.5 259.5z" />
    <glyph glyph-name="udieresiscaron" unicode="&#x1da;" horiz-adv-x="1234" 
d="M449 1753l167 -176l168 176h189l-230 -276h-251l-232 276h189zM408 1167q-53 0 -90 36.5t-37 88.5q0 51 37 87t90 36q50 0 87 -36t37 -87q0 -52 -37 -88.5t-87 -36.5zM825 1167q-51 0 -88 36.5t-37 88.5q0 51 37 87t88 36q53 0 90 -36t37 -87q0 -52 -37 -88.5t-90 -36.5z
M872 442v590h213v-579q0 -231 -125 -362.5t-342 -131.5q-219 0 -343.5 131.5t-124.5 362.5v579h212v-590q0 -134 67.5 -209t188.5 -75q119 0 186.5 75.5t67.5 208.5z" />
    <glyph glyph-name="Udieresisgrave" unicode="&#x1db;" horiz-adv-x="1490" 
d="M645 1878l-264 276h250l231 -276h-217zM539 1569q-53 0 -90 36.5t-37 88.5q0 51 37 87t90 36q50 0 87.5 -36.5t37.5 -86.5q0 -52 -37.5 -88.5t-87.5 -36.5zM956 1569q-51 0 -88 36.5t-37 88.5q0 51 37 87t88 36q53 0 90 -36t37 -87q0 -52 -37 -88.5t-90 -36.5zM1077 532
v902h236v-885q0 -277 -152 -433.5t-413 -156.5q-262 0 -415 157t-153 433v885h234v-902q0 -167 89.5 -259.5t244.5 -92.5q152 0 240.5 92.5t88.5 259.5z" />
    <glyph glyph-name="udieresisgrave" unicode="&#x1dc;" horiz-adv-x="1234" 
d="M514 1477l-264 276h250l231 -276h-217zM408 1167q-53 0 -90 36.5t-37 88.5q0 51 37 87t90 36q50 0 87 -36t37 -87q0 -52 -37 -88.5t-87 -36.5zM825 1167q-51 0 -88 36.5t-37 88.5q0 51 37 87t88 36q53 0 90 -36t37 -87q0 -52 -37 -88.5t-90 -36.5zM872 442v590h213v-579
q0 -231 -125 -362.5t-342 -131.5q-219 0 -343.5 131.5t-124.5 362.5v579h212v-590q0 -134 67.5 -209t188.5 -75q119 0 186.5 75.5t67.5 208.5z" />
    <glyph glyph-name="Gcaron" unicode="&#x1e6;" horiz-adv-x="1644" 
d="M686 1833l168 -176l168 176h188l-229 -277h-252l-231 277h188zM874 180q118 0 218.5 42.5t171.5 117.5v289h-396v202h631v-579q-104 -137 -266 -215t-359 -78q-169 0 -315.5 61t-246.5 164t-157 241.5t-57 291.5t55.5 291.5t153 241.5t240 164t307.5 61
q190 0 345.5 -78.5t258.5 -214.5l-188 -146q-70 100 -177.5 158.5t-238.5 58.5q-147 0 -265 -71.5t-183.5 -194t-65.5 -270.5q0 -149 68 -272t190.5 -194t275.5 -71z" />
    <glyph glyph-name="gcaron" unicode="&#x1e7;" horiz-adv-x="1140" 
d="M383 1534l164 -244l164 244h188l-213 -340h-278l-213 340h188zM61 -184q0 147 148 258q-68 59 -68 147q0 121 119 203q-67 51 -104 126t-37 161q0 154 110.5 258t294.5 104q116 0 203 -41h381v-180h-203q29 -69 29 -141q0 -156 -111.5 -261.5t-298.5 -105.5
q-57 0 -125 14q-51 -42 -51 -88q0 -67 78 -67h281q193 0 296 -89.5t103 -234.5q0 -169 -149 -280t-382 -111q-240 0 -377 85.5t-137 242.5zM526 506q98 0 154.5 57.5t56.5 147.5q0 88 -56.5 144t-154.5 56t-154.5 -56t-56.5 -144q0 -90 56.5 -147.5t154.5 -57.5zM262 -156
q0 -86 81.5 -135t227.5 -49q152 0 238 54.5t86 146.5q0 157 -209 157h-328q-96 -76 -96 -174z" />
    <glyph glyph-name="Aringacute" unicode="&#x1fa;" horiz-adv-x="1519" 
d="M868 2034h-217l232 276h250zM502 1743q0 111 73.5 170t184.5 59q113 0 186.5 -58.5t73.5 -170.5q0 -110 -74 -170t-186 -60q-111 0 -184.5 60t-73.5 170zM889 1743q0 54 -35.5 83t-93.5 29t-93.5 -29t-35.5 -83q0 -53 36 -82t93 -29q56 0 92.5 29.5t36.5 81.5zM45 0
l559 1434h311l560 -1434h-252l-152 401h-625l-151 -401h-250zM524 602h469l-233 619z" />
    <glyph glyph-name="aringacute" unicode="&#x1fb;" horiz-adv-x="1155" 
d="M684 1632h-217l231 277h250zM317 1341q0 112 73.5 171t184.5 59q113 0 187 -59t74 -171q0 -110 -74.5 -169.5t-186.5 -59.5q-111 0 -184.5 59.5t-73.5 169.5zM705 1341q0 54 -36 83.5t-94 29.5q-57 0 -93 -29.5t-36 -83.5q0 -52 36 -81t93 -29q56 0 93 29t37 81zM457 -31
q-155 0 -249.5 81.5t-94.5 217.5q0 118 88.5 197.5t251.5 107.5l333 56v53q0 94 -63 149.5t-164 55.5q-165 0 -260 -135l-158 120q71 95 180 148t244 53q204 0 318 -108t114 -283v-682h-211v117q-56 -68 -145 -108t-184 -40zM326 276q0 -61 45.5 -98t124.5 -37
q95 0 169 42.5t121 117.5v178l-278 -47q-182 -32 -182 -156z" />
    <glyph glyph-name="AEacute" unicode="&#x1fc;" horiz-adv-x="2015" 
d="M1292 1556h-217l232 277h249zM33 0l899 1434h934v-199h-563v-406h481v-196h-481v-436h563v-197h-799v401h-514l-248 -401h-272zM676 602h391v635z" />
    <glyph glyph-name="aeacute" unicode="&#x1fd;" horiz-adv-x="1886" 
d="M1032 1196h-205l213 340h234zM459 -27q-156 0 -251 79.5t-95 215.5q0 118 88.5 197.5t253.5 107.5l333 56v53q0 94 -63 149.5t-164 55.5q-168 0 -260 -135l-158 120q69 94 179 147.5t245 53.5q248 0 361 -162q146 162 383 162q211 0 340 -128t129 -327q0 -68 -15 -126
h-761q10 -165 104.5 -253.5t245.5 -88.5q93 0 169 37.5t124 103.5l153 -123q-74 -99 -188.5 -154t-257.5 -55q-155 0 -275.5 62.5t-193.5 171.5q-153 -220 -426 -220zM1307 897q-115 0 -192.5 -61.5t-102.5 -186.5h557q-3 103 -74 175.5t-188 72.5zM326 276
q0 -58 46.5 -95.5t123.5 -37.5q194 0 319 197q-21 64 -24 139l-283 -47q-182 -33 -182 -156z" />
    <glyph glyph-name="Oslashacute" unicode="&#x1fe;" horiz-adv-x="1708" 
d="M963 1556h-218l232 277h250zM319 -41h-221l197 240q-94 102 -145.5 236t-51.5 282q0 153 55.5 291.5t153 241.5t240 164t307.5 61q241 0 430 -127l105 127h221l-197 -240q95 -104 146 -237t51 -281q0 -153 -55.5 -291.5t-153.5 -241.5t-240.5 -164t-306.5 -61
q-241 0 -430 127zM340 717q0 -200 113 -344l675 803q-123 77 -274 77q-147 0 -265 -71.5t-183.5 -194t-65.5 -270.5zM854 180q146 0 264 71.5t183 194.5t65 271q0 200 -113 344l-673 -803q124 -78 274 -78z" />
    <glyph glyph-name="oslashacute" unicode="&#x1ff;" horiz-adv-x="1304" 
d="M760 1196h-205l213 340h233zM307 -41h-217l141 178q-141 157 -141 379q0 114 41 216t113.5 177t178.5 119.5t228 44.5q160 0 289 -74l57 74h215l-139 -180q139 -155 139 -377q0 -114 -41 -215.5t-113 -177t-178 -120t-229 -44.5q-155 0 -286 72zM311 516q0 -121 64 -213
l428 537q-67 34 -150 34q-148 0 -245 -103.5t-97 -254.5zM653 158q145 0 241.5 104.5t96.5 253.5q0 121 -61 213l-426 -536q68 -35 149 -35z" />
    <glyph glyph-name="Scommaaccent" unicode="&#x218;" horiz-adv-x="1204" 
d="M102 199l172 157q147 -186 334 -186q105 0 164 54.5t59 146.5q0 60 -37 107t-95.5 79.5t-129.5 64t-142.5 69.5t-130 86t-95.5 124.5t-37 173.5q0 167 125 283.5t317 116.5q284 0 475 -238l-174 -156q-133 185 -299 185q-93 0 -149 -51.5t-56 -133.5q0 -59 37 -105.5
t96 -79t130 -63.5t142 -69.5t130 -86.5t96 -125t37 -175q-3 -189 -133 -303.5t-326 -114.5q-164 0 -288 60.5t-222 179.5zM506 -504h-205l213 340h234z" />
    <glyph glyph-name="scommaaccent" unicode="&#x219;" horiz-adv-x="919" 
d="M70 145l145 127q111 -141 252 -141q73 0 114.5 39t41.5 100q0 42 -28 73.5t-72.5 53t-98.5 42t-108 46.5t-98.5 60.5t-72.5 91.5t-28 131q0 129 98.5 217t251.5 88q110 0 205 -47.5t153 -124.5l-143 -125q-93 125 -213 125q-71 0 -109 -36t-38 -91q0 -42 28 -73.5
t72.5 -53t98 -42t107.5 -46.5t98.5 -59.5t72.5 -89t28 -127.5q-1 -98 -50.5 -173t-130 -113t-177.5 -38q-246 0 -399 186zM346 -504h-205l213 340h234z" />
    <glyph glyph-name="Tcommaaccent" unicode="&#x21a;" horiz-adv-x="1294" 
d="M68 1219v215h1157v-215h-461v-1219h-236v1219h-460zM535 -504h-205l213 340h233z" />
    <glyph glyph-name="tcommaaccent" unicode="&#x21b;" horiz-adv-x="868" 
d="M233 358v484h-194v190h194v258h213v-258h342v-190h-342v-484q0 -99 48.5 -141.5t140.5 -42.5t153 23v-187q-74 -30 -186 -30q-182 0 -275.5 95t-93.5 283zM442 -504h-204l213 340h233z" />
    <glyph glyph-name="Ymacron" unicode="&#x232;" horiz-adv-x="1413" 
d="M371 1612v157h671v-157h-671zM1411 1434l-586 -805v-629h-235v627l-586 807h285l418 -576l419 576h285z" />
    <glyph glyph-name="ymacron" unicode="&#x233;" horiz-adv-x="1134" 
d="M231 1315v160h672v-160h-672zM582 -244q-112 -268 -375 -268q-96 0 -174 33v188q60 -26 131 -26q82 0 137 34.5t90 118.5l70 166l-441 1030h234l319 -760l316 760h225z" />
    <glyph glyph-name="dotlessj" unicode="&#x237;" horiz-adv-x="555" 
d="M383 -125q0 -387 -367 -387q-110 0 -186 31v186q55 -22 154 -22q92 0 140 43.5t48 148.5v1157h211v-1157z" />
    <glyph glyph-name="schwa" unicode="&#x259;" horiz-adv-x="1187" 
d="M1098 516q0 -156 -62 -281.5t-182.5 -200.5t-280.5 -75q-211 0 -340 129t-129 328q0 48 15 125h762q-10 165 -104 253.5t-247 88.5q-92 0 -168 -38t-124 -104l-154 123q73 99 188.5 154t257.5 55q173 0 304 -77t197.5 -202.5t66.5 -277.5zM578 135q116 0 191.5 64
t100.5 184h-555q3 -103 73.5 -175.5t189.5 -72.5z" />
    <glyph glyph-name="eopen" unicode="&#x25b;" horiz-adv-x="1040" 
d="M537 150q96 0 178.5 43t136.5 116l154 -121q-81 -108 -204.5 -168.5t-275.5 -60.5q-203 0 -319.5 86.5t-116.5 237.5q0 89 48 158t136 102q-67 35 -103 95t-36 134q0 137 102 219t285 82q132 0 239 -46.5t175 -127.5l-148 -127q-108 111 -251 111q-87 0 -136 -34.5
t-49 -98.5q0 -56 40 -90.5t104 -34.5h229v-172h-252q-76 0 -121 -40t-45 -104q0 -77 63 -118t167 -41z" />
    <glyph glyph-name="ipagamma" unicode="&#x263;" horiz-adv-x="1146" 
d="M893 -227q-1 -126 -91.5 -206.5t-228.5 -80.5t-228 80.5t-91 206.5q0 74 20.5 134.5t73.5 153.5l111 199l-434 772h237l311 -563l314 563h235l-434 -772l111 -199q53 -93 73.5 -153.5t20.5 -134.5zM573 -340q49 0 78 34t29 89q0 72 -82 229l-25 43l-24 -43
q-80 -156 -80 -229q0 -56 27 -89.5t77 -33.5z" />
    <glyph glyph-name="nhookleft" unicode="&#x272;" horiz-adv-x="1267" 
d="M383 -125q0 -387 -367 -387q-110 0 -186 31v186q55 -22 154 -22q92 0 140 43.5t48 148.5v1157h211v-100q134 141 328 141q177 0 289 -117.5t112 -334.5v-621h-213v612q0 123 -63.5 192.5t-173.5 69.5q-174 0 -279 -178v-821z" />
    <glyph glyph-name="ringhalfrightmod" unicode="&#x2be;" horiz-adv-x="1230" 
d="M487 1624q108 0 183 -65t75 -177t-75 -177.5t-183 -65.5v114q57 0 93 32.5t36 94.5t-36 94.5t-93 32.5v117z" />
    <glyph glyph-name="ringhalfleftmod" unicode="&#x2bf;" horiz-adv-x="1230" 
d="M745 1624v-117q-57 0 -93 -32.5t-36 -94.5t36 -94.5t93 -32.5v-114q-109 0 -183.5 65t-74.5 178t74.5 177.5t183.5 64.5z" />
    <glyph glyph-name="circumflex" unicode="&#x2c6;" 
d="M451 1196h-189l213 340h279l213 -340h-189l-164 244z" />
    <glyph glyph-name="caron" unicode="&#x2c7;" 
d="M451 1536l163 -244l164 244h189l-213 -340h-279l-213 340h189z" />
    <glyph glyph-name="verticallinemod" unicode="&#x2c8;" 
d="M535 1536h159v-340h-159v340z" />
    <glyph glyph-name="verticallinelowmod" unicode="&#x2cc;" 
d="M535 -164h159v-340h-159v340z" />
    <glyph glyph-name="breve" unicode="&#x2d8;" 
d="M614 1343q88 0 132.5 49.5t44.5 143.5h176q0 -164 -93.5 -252t-259.5 -88q-164 0 -258 88.5t-94 251.5h176q0 -93 45 -143t131 -50z" />
    <glyph glyph-name="dotaccent" unicode="&#x2d9;" horiz-adv-x="1230" 
d="M616 1262q-58 0 -100.5 42t-42.5 101t42.5 101t100.5 42q59 0 101.5 -42.5t42.5 -100.5t-42.5 -100.5t-101.5 -42.5z" />
    <glyph glyph-name="ring" unicode="&#x2da;" horiz-adv-x="1226" 
d="M354 1382q0 106 75.5 174t182.5 68q108 0 184 -68t76 -174q0 -108 -75.5 -175.5t-184.5 -67.5q-107 0 -182.5 68t-75.5 175zM741 1380q0 56 -37 91.5t-92 35.5t-92 -35.5t-37 -91.5t37 -90.5t92 -34.5t92 34.5t37 90.5z" />
    <glyph glyph-name="ogonek" unicode="&#x2db;" 
d="M397 -283q0 145 185 267l80 49l172 -33l-105 -68q-89 -62 -124.5 -104t-35.5 -84q0 -100 123 -100q80 0 142 28v-145q-71 -31 -172 -31q-125 0 -195 65.5t-70 155.5z" />
    <glyph glyph-name="tilde" unicode="&#x2dc;" 
d="M985 1518v-91q0 -104 -53.5 -166t-149.5 -61q-53 0 -95.5 18t-70.5 43.5t-51.5 51t-50 43.5t-55.5 18q-28 0 -44 -15.5t-16 -43.5v-101h-157v93q0 103 52.5 164.5t147.5 60.5q54 0 97.5 -18t71.5 -43.5t52.5 -51t51 -43.5t55.5 -18q27 0 42 16.5t15 44.5v99h158z" />
    <glyph glyph-name="hungarumlaut" unicode="&#x2dd;" horiz-adv-x="1230" 
d="M401 1196h-202l211 340h235zM788 1196h-204l213 340h233z" />
    <glyph glyph-name="gravecmb" unicode="&#x300;" horiz-adv-x="0" 
d="M-111 1196l-241 340h233l213 -340h-205z" />
    <glyph glyph-name="acutecmb" unicode="&#x301;" horiz-adv-x="0" 
d="M109 1196h-205l213 340h233z" />
    <glyph glyph-name="circumflexcmb" unicode="&#x302;" horiz-adv-x="0" 
d="M-164 1196h-188l213 340h278l213 -340h-188l-164 244z" />
    <glyph glyph-name="tildecmb" unicode="&#x303;" horiz-adv-x="0" 
d="M371 1518v-91q0 -104 -53.5 -166t-149.5 -61q-53 0 -96 18t-70.5 43.5t-51.5 51t-50.5 43.5t-55.5 18q-28 0 -43.5 -15.5t-15.5 -43.5v-101h-158v93q0 103 53 164.5t148 60.5q54 0 97.5 -18t71.5 -43.5t52.5 -51t51 -43.5t55.5 -18q27 0 42 16.5t15 44.5v99h158z" />
    <glyph glyph-name="macroncmb" unicode="&#x304;" horiz-adv-x="0" 
d="M-336 1315v160h672v-160h-672z" />
    <glyph glyph-name="brevecmb" unicode="&#x306;" horiz-adv-x="0" 
d="M0 1343q88 0 132 49.5t44 143.5h176q0 -164 -93 -252t-259 -88q-164 0 -258 88.5t-94 251.5h176q0 -93 45 -143t131 -50z" />
    <glyph glyph-name="dotaccentcmb" unicode="&#x307;" horiz-adv-x="0" 
d="M0 1262q-58 0 -100.5 42t-42.5 101t42.5 101t100.5 42t100.5 -42t42.5 -101t-42.5 -101t-100.5 -42z" />
    <glyph glyph-name="dieresiscmb" unicode="&#x308;" horiz-adv-x="0" 
d="M-211 1280q-55 0 -95 40t-40 95q0 54 40 93.5t95 39.5q54 0 93.5 -39.5t39.5 -93.5q0 -55 -39.5 -95t-93.5 -40zM213 1280q-55 0 -95 40t-40 95q0 54 40 93.5t95 39.5q54 0 93.5 -39.5t39.5 -93.5q0 -55 -39.5 -95t-93.5 -40z" />
    <glyph glyph-name="hookabovecmb" unicode="&#x309;" horiz-adv-x="0" 
d="M-37 1145l-31 135q90 14 132 40.5t42 72.5q0 32 -27.5 52.5t-76.5 20.5q-81 0 -158 -63l-86 110q108 93 258 93q110 0 178 -57.5t68 -151.5q0 -105 -78.5 -168t-220.5 -84z" />
    <glyph glyph-name="ringabovecmb" unicode="&#x30a;" horiz-adv-x="0" 
d="M-258 1382q0 106 75.5 174t182.5 68q108 0 184 -68t76 -174q0 -108 -75.5 -175.5t-184.5 -67.5q-107 0 -182.5 68t-75.5 175zM129 1380q0 56 -37 91.5t-92 35.5t-92 -35.5t-37 -91.5t37 -90.5t92 -34.5t92 34.5t37 90.5z" />
    <glyph glyph-name="hungarumlautcmb" unicode="&#x30b;" horiz-adv-x="0" 
d="M-94 1196h-203l211 340h236zM293 1196h-205l213 340h234z" />
    <glyph glyph-name="caroncmb" unicode="&#x30c;" horiz-adv-x="0" 
d="M164 1536h188l-213 -340h-278l-213 340h188l164 -244z" />
    <glyph glyph-name="verticallineabovecmb" unicode="&#x30d;" horiz-adv-x="0" 
d="M-80 1536h160v-340h-160v340z" />
    <glyph glyph-name="commaturnedabovecmb" unicode="&#x312;" horiz-adv-x="0" 
d="M145 1536h203l-211 -340h-235z" />
    <glyph glyph-name="horncmb" unicode="&#x31b;" horiz-adv-x="0" 
d="M-104 901h-76l-68 131h142q72 0 108.5 36t36.5 91q0 70 -68 125l119 102q51 -40 82 -101.5t31 -125.5q0 -123 -90 -190.5t-217 -67.5z" />
    <glyph glyph-name="dotbelowcmb" unicode="&#x323;" horiz-adv-x="0" 
d="M0 -516q-58 0 -100.5 42t-42.5 101q0 60 42 102t101 42t101 -42t42 -102q0 -59 -42.5 -101t-100.5 -42z" />
    <glyph glyph-name="commaaccentbelowcmb" unicode="&#x326;" horiz-adv-x="0" 
d="M-115 -504h-204l213 340h233z" />
    <glyph glyph-name="cedillacmb" unicode="&#x327;" horiz-adv-x="0" 
d="M-49 16l168 -8l-113 -129q89 0 152 -52t63 -130q0 -89 -69 -148t-175 -59q-140 0 -219 70l78 110q56 -53 131 -53q41 0 66.5 21t25.5 57t-26.5 56t-71.5 20t-82 -21l-72 86z" />
    <glyph glyph-name="ogonekcmb" unicode="&#x328;" horiz-adv-x="0" 
d="M-436 -283q0 145 184 267l80 49l172 -33l-104 -68q-89 -62 -124.5 -104t-35.5 -84q0 -100 123 -100q79 0 141 28v-145q-71 -31 -172 -31q-125 0 -194.5 65.5t-69.5 155.5z" />
    <glyph glyph-name="verticallinebelowcmb" unicode="&#x329;" horiz-adv-x="0" 
d="M-80 -164h160v-340h-160v340z" />
    <glyph glyph-name="belowbrevecmb" unicode="&#x32e;" horiz-adv-x="0" 
d="M0 -356q176 0 176 192h176q0 -165 -93 -252.5t-259 -87.5q-164 0 -258 88.5t-94 251.5h176q0 -93 45 -142.5t131 -49.5z" />
    <glyph glyph-name="macronbelowcmb" unicode="&#x331;" horiz-adv-x="0" 
d="M-336 -469v158h672v-158h-672z" />
    <glyph glyph-name="halfleftringabovecmb" unicode="&#x351;" horiz-adv-x="0" 
d="M129 1624v-117q-57 0 -93 -32.5t-36 -94.5t36 -94.5t93 -32.5v-114q-109 0 -183.5 65t-74.5 178t74.5 177.5t183.5 64.5z" />
    <glyph glyph-name="halfrightringabovecmb" unicode="&#x357;" horiz-adv-x="0" 
d="M-129 1624q108 0 183 -65t75 -177t-75 -177.5t-183 -65.5v114q57 0 93 32.5t36 94.5t-36 94.5t-93 32.5v117z" />
    <glyph glyph-name="Ddotbelow" unicode="&#x1e0c;" horiz-adv-x="1632" 
d="M221 0v1434h557q165 0 307.5 -57.5t240 -155.5t153 -229t55.5 -275t-55.5 -275t-153 -229t-240 -155.5t-307.5 -57.5h-557zM780 1219h-325v-1004h325q220 0 365 145t145 357q0 139 -65 254t-182 181.5t-263 66.5zM817 -524q-59 0 -101 42t-42 101q0 60 42 101.5t101 41.5
t101.5 -41.5t42.5 -101.5q0 -58 -42.5 -100.5t-101.5 -42.5z" />
    <glyph glyph-name="ddotbelow" unicode="&#x1e0d;" horiz-adv-x="1345" 
d="M90 516q0 152 63 277.5t185 202.5t280 77q209 0 345 -145v608h215v-1536h-215v104q-136 -145 -345 -145q-158 0 -280 77t-185 202.5t-63 277.5zM313 516q0 -154 92.5 -256t239.5 -102q99 0 182 45t136 127v372q-57 84 -139 128t-179 44q-147 0 -239.5 -102t-92.5 -256z
M696 -524q-58 0 -100.5 42t-42.5 101q0 60 42 101.5t101 41.5t101.5 -41.5t42.5 -101.5q0 -58 -42.5 -100.5t-101.5 -42.5z" />
    <glyph glyph-name="Dlinebelow" unicode="&#x1e0e;" horiz-adv-x="1632" 
d="M221 0v1434h557q165 0 307.5 -57.5t240 -155.5t153 -229t55.5 -275t-55.5 -275t-153 -229t-240 -155.5t-307.5 -57.5h-557zM780 1219h-325v-1004h325q220 0 365 145t145 357q0 139 -65 254t-182 181.5t-263 66.5zM481 -469v158h672v-158h-672z" />
    <glyph glyph-name="dlinebelow" unicode="&#x1e0f;" horiz-adv-x="1345" 
d="M90 516q0 152 63 277.5t185 202.5t280 77q209 0 345 -145v608h215v-1536h-215v104q-136 -145 -345 -145q-158 0 -280 77t-185 202.5t-63 277.5zM313 516q0 -154 92.5 -256t239.5 -102q99 0 182 45t136 127v372q-57 84 -139 128t-179 44q-147 0 -239.5 -102t-92.5 -256z
M360 -469v158h672v-158h-672z" />
    <glyph glyph-name="Dcedilla" unicode="&#x1e10;" horiz-adv-x="1632" 
d="M221 0v1434h557q165 0 307.5 -57.5t240 -155.5t153 -229t55.5 -275t-55.5 -275t-153 -229t-240 -155.5t-307.5 -57.5h-557zM780 1219h-325v-1004h325q220 0 365 145t145 357q0 139 -65 254t-182 181.5t-263 66.5zM702 -504h-204l213 340h233z" />
    <glyph glyph-name="dcedilla" unicode="&#x1e11;" horiz-adv-x="1345" 
d="M90 516q0 152 63 277.5t185 202.5t280 77q209 0 345 -145v608h215v-1536h-215v104q-136 -145 -345 -145q-158 0 -280 77t-185 202.5t-63 277.5zM313 516q0 -154 92.5 -256t239.5 -102q99 0 182 45t136 127v372q-57 84 -139 128t-179 44q-147 0 -239.5 -102t-92.5 -256z
M582 -504h-205l213 340h233z" />
    <glyph glyph-name="Gmacron" unicode="&#x1e20;" horiz-adv-x="1644" 
d="M518 1612v157h672v-157h-672zM874 180q118 0 218.5 42.5t171.5 117.5v289h-396v202h631v-579q-104 -137 -266 -215t-359 -78q-169 0 -315.5 61t-246.5 164t-157 241.5t-57 291.5t55.5 291.5t153 241.5t240 164t307.5 61q190 0 345.5 -78.5t258.5 -214.5l-188 -146
q-70 100 -177.5 158.5t-238.5 58.5q-147 0 -265 -71.5t-183.5 -194t-65.5 -270.5q0 -149 68 -272t190.5 -194t275.5 -71z" />
    <glyph glyph-name="gmacron" unicode="&#x1e21;" horiz-adv-x="1140" 
d="M211 1313v160h672v-160h-672zM61 -184q0 147 148 258q-68 59 -68 147q0 121 119 203q-67 51 -104 126t-37 161q0 154 110.5 258t294.5 104q116 0 203 -41h381v-180h-203q29 -69 29 -141q0 -156 -111.5 -261.5t-298.5 -105.5q-57 0 -125 14q-51 -42 -51 -88q0 -67 78 -67
h281q193 0 296 -89.5t103 -234.5q0 -169 -149 -280t-382 -111q-240 0 -377 85.5t-137 242.5zM526 506q98 0 154.5 57.5t56.5 147.5q0 88 -56.5 144t-154.5 56t-154.5 -56t-56.5 -144q0 -90 56.5 -147.5t154.5 -57.5zM262 -156q0 -86 81.5 -135t227.5 -49q152 0 238 54.5
t86 146.5q0 157 -209 157h-328q-96 -76 -96 -174z" />
    <glyph glyph-name="Hdotbelow" unicode="&#x1e24;" horiz-adv-x="1716" 
d="M221 0v1434h234v-596h807v596h235v-1434h-235v623h-807v-623h-234zM858 -524q-58 0 -100.5 42t-42.5 101q0 60 42 101.5t101 41.5t101 -41.5t42 -101.5q0 -59 -42.5 -101t-100.5 -42z" />
    <glyph glyph-name="hdotbelow" unicode="&#x1e25;" horiz-adv-x="1267" 
d="M172 0v1536h211v-604q134 141 328 141q179 0 290 -117.5t111 -334.5v-621h-213v612q0 123 -63.5 192.5t-173.5 69.5q-170 0 -279 -178v-696h-211zM639 -524q-59 0 -101 42t-42 101q0 60 42 101.5t101 41.5t101 -41.5t42 -101.5q0 -59 -42 -101t-101 -42z" />
    <glyph glyph-name="Hcedilla" unicode="&#x1e28;" horiz-adv-x="1716" 
d="M221 0v1434h234v-596h807v596h235v-1434h-235v623h-807v-623h-234zM743 -504h-204l213 340h233z" />
    <glyph glyph-name="hcedilla" unicode="&#x1e29;" horiz-adv-x="1267" 
d="M172 0v1536h211v-604q134 141 328 141q179 0 290 -117.5t111 -334.5v-621h-213v612q0 123 -63.5 192.5t-173.5 69.5q-170 0 -279 -178v-696h-211zM524 -504h-205l213 340h234z" />
    <glyph glyph-name="Hbrevebelow" unicode="&#x1e2a;" horiz-adv-x="1716" 
d="M221 0v1434h234v-596h807v596h235v-1434h-235v623h-807v-623h-234zM858 -356q176 0 176 192h176q0 -165 -93 -252.5t-259 -87.5q-164 0 -258 88.5t-94 251.5h176q0 -93 45 -142.5t131 -49.5z" />
    <glyph glyph-name="hbrevebelow" unicode="&#x1e2b;" horiz-adv-x="1267" 
d="M172 0v1536h211v-604q134 141 328 141q179 0 290 -117.5t111 -334.5v-621h-213v612q0 123 -63.5 192.5t-173.5 69.5q-170 0 -279 -178v-696h-211zM639 -356q176 0 176 192h176q0 -165 -93 -252.5t-259 -87.5q-164 0 -258 88.5t-94 251.5h176q0 -93 45 -142.5t131 -49.5z
" />
    <glyph glyph-name="Kdotbelow" unicode="&#x1e32;" horiz-adv-x="1501" 
d="M221 0v1434h234v-686l690 686h295l-604 -600l612 -834h-289l-487 672l-217 -215v-457h-234zM793 -524q-59 0 -101.5 42.5t-42.5 100.5q0 60 42.5 101.5t101.5 41.5t101 -41.5t42 -101.5q0 -59 -42 -101t-101 -42z" />
    <glyph glyph-name="kdotbelow" unicode="&#x1e33;" horiz-adv-x="1128" 
d="M176 0v1536h213v-950l438 446h269l-428 -434l432 -598h-262l-322 446l-127 -129v-317h-213zM610 -524q-58 0 -100.5 42t-42.5 101q0 60 42 101.5t101 41.5t101.5 -41.5t42.5 -101.5q0 -58 -42.5 -100.5t-101.5 -42.5z" />
    <glyph glyph-name="Klinebelow" unicode="&#x1e34;" horiz-adv-x="1501" 
d="M221 0v1434h234v-686l690 686h295l-604 -600l612 -834h-289l-487 672l-217 -215v-457h-234zM457 -469v158h671v-158h-671z" />
    <glyph glyph-name="klinebelow" unicode="&#x1e35;" horiz-adv-x="1128" 
d="M176 0v1536h213v-950l438 446h269l-428 -434l432 -598h-262l-322 446l-127 -129v-317h-213zM274 -469v158h672v-158h-672z" />
    <glyph glyph-name="Mdotbelow" unicode="&#x1e42;" horiz-adv-x="1830" 
d="M221 0v1434h297l397 -672l402 672h297v-1434h-236v1110l-374 -618h-173l-376 622v-1114h-234zM915 -524q-59 0 -101 42t-42 101q0 60 42 101.5t101 41.5t101.5 -41.5t42.5 -101.5q0 -58 -42.5 -100.5t-101.5 -42.5z" />
    <glyph glyph-name="mdotbelow" unicode="&#x1e43;" horiz-adv-x="1912" 
d="M172 0v1032h211v-96q127 137 307 137q107 0 192 -47.5t134 -138.5q69 88 153 137t207 49q168 0 274.5 -112.5t106.5 -319.5v-641h-213v633q0 113 -58.5 177t-158.5 64q-159 0 -258 -176q2 -18 2 -57v-641h-213v633q0 114 -57.5 177.5t-159.5 63.5q-159 0 -258 -178v-696
h-211zM963 -524q-59 0 -101.5 42.5t-42.5 100.5q0 60 42.5 101.5t101.5 41.5t101 -41.5t42 -101.5q0 -59 -42 -101t-101 -42z" />
    <glyph glyph-name="Ndotbelow" unicode="&#x1e46;" horiz-adv-x="1716" 
d="M221 0v1434h303l738 -1133v1133h235v-1434h-305l-737 1133v-1133h-234zM858 -524q-58 0 -100.5 42t-42.5 101q0 60 42 101.5t101 41.5t101 -41.5t42 -101.5q0 -59 -42.5 -101t-100.5 -42z" />
    <glyph glyph-name="ndotbelow" unicode="&#x1e47;" horiz-adv-x="1267" 
d="M172 0v1032h211v-100q134 141 328 141q177 0 289 -117.5t112 -334.5v-621h-213v612q0 123 -63.5 192.5t-173.5 69.5q-174 0 -279 -178v-696h-211zM641 -524q-59 0 -101 42t-42 101q0 60 42 101.5t101 41.5t101 -41.5t42 -101.5q0 -59 -42 -101t-101 -42z" />
    <glyph glyph-name="Rdotbelow" unicode="&#x1e5a;" horiz-adv-x="1337" 
d="M221 0v1434h406q225 0 355 -111.5t130 -302.5q0 -130 -61 -225t-174 -142l454 -653h-278l-400 606h-26h-172v-606h-234zM639 1235h-184v-430h184q108 0 168.5 58t60.5 161q0 98 -60.5 154.5t-168.5 56.5zM733 -524q-59 0 -101 42t-42 101q0 60 42 101.5t101 41.5
t101.5 -41.5t42.5 -101.5q0 -58 -42.5 -100.5t-101.5 -42.5z" />
    <glyph glyph-name="rdotbelow" unicode="&#x1e5b;" horiz-adv-x="821" 
d="M172 0v1032h211v-117q124 138 289 138q39 0 90 -15v-207q-62 15 -109 15q-175 0 -270 -158v-688h-211zM334 -524q-59 0 -101.5 42.5t-42.5 100.5q0 60 42.5 101.5t101.5 41.5t101 -41.5t42 -101.5q0 -59 -42.5 -101t-100.5 -42z" />
    <glyph glyph-name="Sdotbelow" unicode="&#x1e62;" horiz-adv-x="1204" 
d="M102 199l172 157q147 -186 334 -186q105 0 164 54.5t59 146.5q0 60 -37 107t-95.5 79.5t-129.5 64t-142.5 69.5t-130 86t-95.5 124.5t-37 173.5q0 167 125 283.5t317 116.5q284 0 475 -238l-174 -156q-133 185 -299 185q-93 0 -149 -51.5t-56 -133.5q0 -59 37 -105.5
t96 -79t130 -63.5t142 -69.5t130 -86.5t96 -125t37 -175q-3 -189 -133 -303.5t-326 -114.5q-164 0 -288 60.5t-222 179.5zM621 -524q-59 0 -101.5 42.5t-42.5 100.5q0 60 42.5 101.5t101.5 41.5t101 -41.5t42 -101.5q0 -59 -42 -101t-101 -42z" />
    <glyph glyph-name="sdotbelow" unicode="&#x1e63;" horiz-adv-x="919" 
d="M70 145l145 127q111 -141 252 -141q73 0 114.5 39t41.5 100q0 42 -28 73.5t-72.5 53t-98.5 42t-108 46.5t-98.5 60.5t-72.5 91.5t-28 131q0 129 98.5 217t251.5 88q110 0 205 -47.5t153 -124.5l-143 -125q-93 125 -213 125q-71 0 -109 -36t-38 -91q0 -42 28 -73.5
t72.5 -53t98 -42t107.5 -46.5t98.5 -59.5t72.5 -89t28 -127.5q-1 -98 -50.5 -173t-130 -113t-177.5 -38q-246 0 -399 186zM461 -524q-59 0 -101.5 42.5t-42.5 100.5q0 60 42.5 101.5t101.5 41.5t101 -41.5t42 -101.5q0 -59 -42 -101t-101 -42z" />
    <glyph glyph-name="Tdotbelow" unicode="&#x1e6c;" horiz-adv-x="1294" 
d="M68 1219v215h1157v-215h-461v-1219h-236v1219h-460zM649 -524q-59 0 -101 42t-42 101q0 60 42 101.5t101 41.5t101.5 -41.5t42.5 -101.5q0 -58 -42.5 -100.5t-101.5 -42.5z" />
    <glyph glyph-name="tdotbelow" unicode="&#x1e6d;" horiz-adv-x="868" 
d="M233 358v484h-194v190h194v258h213v-258h342v-190h-342v-484q0 -99 48.5 -141.5t140.5 -42.5t153 23v-187q-74 -30 -186 -30q-182 0 -275.5 95t-93.5 283zM557 -524q-59 0 -101 42t-42 101q0 60 42 101.5t101 41.5t101 -41.5t42 -101.5q0 -59 -42 -101t-101 -42z" />
    <glyph glyph-name="Tlinebelow" unicode="&#x1e6e;" horiz-adv-x="1294" 
d="M68 1219v215h1157v-215h-461v-1219h-236v1219h-460zM313 -469v158h672v-158h-672z" />
    <glyph glyph-name="tlinebelow" unicode="&#x1e6f;" horiz-adv-x="868" 
d="M233 358v484h-194v190h194v258h213v-258h342v-190h-342v-484q0 -99 48.5 -141.5t140.5 -42.5t153 23v-187q-74 -30 -186 -30q-182 0 -275.5 95t-93.5 283zM221 -469v158h672v-158h-672z" />
    <glyph glyph-name="Wgrave" unicode="&#x1e80;" horiz-adv-x="2158" 
d="M983 1556l-264 277h250l231 -277h-217zM61 1434h234l293 -1168l336 1168h311l334 -1172l297 1172h231l-362 -1434h-318l-338 1180l-340 -1180h-315z" />
    <glyph glyph-name="wgrave" unicode="&#x1e81;" horiz-adv-x="1673" 
d="M725 1196l-242 340h234l213 -340h-205zM61 1032h211l199 -811l221 811h289l219 -811l201 811h209l-252 -1032h-297l-223 829l-228 -829h-293z" />
    <glyph glyph-name="Wacute" unicode="&#x1e82;" horiz-adv-x="2158" 
d="M1194 1556h-217l231 277h250zM61 1434h234l293 -1168l336 1168h311l334 -1172l297 1172h231l-362 -1434h-318l-338 1180l-340 -1180h-315z" />
    <glyph glyph-name="wacute" unicode="&#x1e83;" horiz-adv-x="1673" 
d="M944 1196h-205l213 340h234zM61 1032h211l199 -811l221 811h289l219 -811l201 811h209l-252 -1032h-297l-223 829l-228 -829h-293z" />
    <glyph glyph-name="Wdieresis" unicode="&#x1e84;" horiz-adv-x="2158" 
d="M877 1569q-53 0 -90 36.5t-37 88.5q0 51 37 87t90 36q50 0 87 -36t37 -87q0 -52 -37 -88.5t-87 -36.5zM1294 1569q-51 0 -88 36.5t-37 88.5q0 51 37 87t88 36q53 0 90 -36t37 -87q0 -52 -37 -88.5t-90 -36.5zM61 1434h234l293 -1168l336 1168h311l334 -1172l297 1172h231
l-362 -1434h-318l-338 1180l-340 -1180h-315z" />
    <glyph glyph-name="wdieresis" unicode="&#x1e85;" horiz-adv-x="1673" 
d="M625 1280q-56 0 -96 40t-40 95q0 54 40.5 93.5t95.5 39.5q54 0 93.5 -39.5t39.5 -93.5q0 -55 -39.5 -95t-93.5 -40zM1049 1280q-56 0 -96 40t-40 95q0 54 40.5 93.5t95.5 39.5q54 0 93.5 -39.5t39.5 -93.5q0 -55 -39.5 -95t-93.5 -40zM61 1032h211l199 -811l221 811h289
l219 -811l201 811h209l-252 -1032h-297l-223 829l-228 -829h-293z" />
    <glyph glyph-name="Zdotbelow" unicode="&#x1e92;" horiz-adv-x="1392" 
d="M117 0v215l850 1004h-830v215h1116v-215l-847 -1004h868v-215h-1157zM696 -524q-58 0 -100.5 42t-42.5 101q0 60 42 101.5t101 41.5t101.5 -41.5t42.5 -101.5q0 -58 -42.5 -100.5t-101.5 -42.5z" />
    <glyph glyph-name="zdotbelow" unicode="&#x1e93;" horiz-adv-x="1060" 
d="M106 0v190l574 652h-559v190h819v-190l-573 -652h587v-190h-848zM530 -524q-58 0 -100.5 42t-42.5 101q0 60 42 101.5t101 41.5t101.5 -41.5t42.5 -101.5q0 -58 -42.5 -100.5t-101.5 -42.5z" />
    <glyph glyph-name="hlinebelow" unicode="&#x1e96;" horiz-adv-x="1267" 
d="M172 0v1536h211v-604q134 141 328 141q179 0 290 -117.5t111 -334.5v-621h-213v612q0 123 -63.5 192.5t-173.5 69.5q-170 0 -279 -178v-696h-211zM303 -469v158h672v-158h-672z" />
    <glyph glyph-name="tdieresis" unicode="&#x1e97;" horiz-adv-x="868" 
d="M135 1477q-55 0 -95 39.5t-40 95.5q0 54 40 93.5t95 39.5q54 0 93.5 -39.5t39.5 -93.5q0 -55 -39.5 -95t-93.5 -40zM559 1477q-55 0 -95 39.5t-40 95.5q0 54 40 93.5t95 39.5q54 0 93.5 -39.5t39.5 -93.5q0 -55 -39.5 -95t-93.5 -40zM233 358v484h-194v190h194v258h213
v-258h342v-190h-342v-484q0 -99 48.5 -141.5t140.5 -42.5t153 23v-187q-74 -30 -186 -30q-182 0 -275.5 95t-93.5 283z" />
    <glyph glyph-name="Germandbls" unicode="&#x1e9e;" horiz-adv-x="1613" 
d="M221 0v1434h1182v-215l-344 -392q207 -9 326 -122t120 -306q-1 -132 -65 -233.5t-168 -154t-228 -52.5q-292 0 -475 213l162 166q70 -88 144 -128t163 -40q104 0 167 66t63 163q0 111 -74 171.5t-199 60.5h-215v196l344 392h-669v-1219h-234z" />
    <glyph glyph-name="Adotbelow" unicode="&#x1ea0;" horiz-adv-x="1519" 
d="M45 0l559 1434h311l560 -1434h-252l-152 401h-625l-151 -401h-250zM524 602h469l-233 619zM760 -524q-59 0 -101.5 42.5t-42.5 100.5q0 60 42.5 101.5t101.5 41.5t101 -41.5t42 -101.5q0 -59 -42.5 -101t-100.5 -42z" />
    <glyph glyph-name="adotbelow" unicode="&#x1ea1;" horiz-adv-x="1155" 
d="M457 -31q-155 0 -249.5 81.5t-94.5 217.5q0 118 88.5 197.5t251.5 107.5l333 56v53q0 94 -63 149.5t-164 55.5q-165 0 -260 -135l-158 120q71 95 180 148t244 53q204 0 318 -108t114 -283v-682h-211v117q-56 -68 -145 -108t-184 -40zM326 276q0 -61 45.5 -98t124.5 -37
q95 0 169 42.5t121 117.5v178l-278 -47q-182 -32 -182 -156zM578 -524q-59 0 -101.5 42.5t-42.5 100.5q0 60 42.5 101.5t101.5 41.5t101 -41.5t42 -101.5q0 -59 -42.5 -101t-100.5 -42z" />
    <glyph glyph-name="Ahoi" unicode="&#x1ea2;" horiz-adv-x="1519" 
d="M733 1499l-31 135q158 24 158 99q0 30 -25 49.5t-69 19.5q-81 0 -154 -59l-86 110q106 89 250 89q107 0 174.5 -56t67.5 -147q0 -98 -75 -158.5t-210 -81.5zM45 0l559 1434h311l560 -1434h-252l-152 401h-625l-151 -401h-250zM524 602h469l-233 619z" />
    <glyph glyph-name="ahoi" unicode="&#x1ea3;" horiz-adv-x="1155" 
d="M539 1145l-31 135q90 14 132 40.5t42 72.5q0 32 -27.5 52.5t-76.5 20.5q-81 0 -158 -63l-86 110q108 93 258 93q110 0 178 -57.5t68 -151.5q0 -105 -78.5 -168t-220.5 -84zM457 -31q-155 0 -249.5 81.5t-94.5 217.5q0 118 88.5 197.5t251.5 107.5l333 56v53
q0 94 -63 149.5t-164 55.5q-165 0 -260 -135l-158 120q71 95 180 148t244 53q204 0 318 -108t114 -283v-682h-211v117q-56 -68 -145 -108t-184 -40zM326 276q0 -61 45.5 -98t124.5 -37q95 0 169 42.5t121 117.5v178l-278 -47q-182 -32 -182 -156z" />
    <glyph glyph-name="Acircumflexacute" unicode="&#x1ea4;" horiz-adv-x="1519" 
d="M1167 1765h-204l231 277h236zM592 1556h-189l232 277h252l229 -277h-188l-168 177zM45 0l559 1434h311l560 -1434h-252l-152 401h-625l-151 -401h-250zM524 602h469l-233 619z" />
    <glyph glyph-name="acircumflexacute" unicode="&#x1ea5;" horiz-adv-x="1155" 
d="M985 1364h-205l232 276h235zM408 1155h-189l232 277h251l230 -277h-189l-168 176zM457 -31q-155 0 -249.5 81.5t-94.5 217.5q0 118 88.5 197.5t251.5 107.5l333 56v53q0 94 -63 149.5t-164 55.5q-165 0 -260 -135l-158 120q71 95 180 148t244 53q204 0 318 -108t114 -283
v-682h-211v117q-56 -68 -145 -108t-184 -40zM326 276q0 -61 45.5 -98t124.5 -37q95 0 169 42.5t121 117.5v178l-278 -47q-182 -32 -182 -156z" />
    <glyph glyph-name="Acircumflexgrave" unicode="&#x1ea6;" horiz-adv-x="1519" 
d="M1065 1765l-264 277h239l232 -277h-207zM592 1556h-189l232 277h252l229 -277h-188l-168 177zM45 0l559 1434h311l560 -1434h-252l-152 401h-625l-151 -401h-250zM524 602h469l-233 619z" />
    <glyph glyph-name="acircumflexgrave" unicode="&#x1ea7;" horiz-adv-x="1155" 
d="M883 1364l-265 276h240l232 -276h-207zM408 1155h-189l232 277h251l230 -277h-189l-168 176zM457 -31q-155 0 -249.5 81.5t-94.5 217.5q0 118 88.5 197.5t251.5 107.5l333 56v53q0 94 -63 149.5t-164 55.5q-165 0 -260 -135l-158 120q71 95 180 148t244 53
q204 0 318 -108t114 -283v-682h-211v117q-56 -68 -145 -108t-184 -40zM326 276q0 -61 45.5 -98t124.5 -37q95 0 169 42.5t121 117.5v178l-278 -47q-182 -32 -182 -156z" />
    <glyph glyph-name="Acircumflexhoi" unicode="&#x1ea8;" horiz-adv-x="1519" 
d="M1081 1718l-28 117q70 11 104.5 28.5t34.5 47.5q0 23 -19.5 38t-58.5 15q-79 0 -149 -55l-76 96q94 80 229 80q98 0 153.5 -46.5t55.5 -121.5q0 -159 -246 -199zM592 1556h-189l232 277h252l229 -277h-188l-168 177zM45 0l559 1434h311l560 -1434h-252l-152 401h-625
l-151 -401h-250zM524 602h469l-233 619z" />
    <glyph glyph-name="acircumflexhoi" unicode="&#x1ea9;" horiz-adv-x="1155" 
d="M899 1317l-29 117q71 12 105.5 28.5t34.5 46.5q0 24 -19.5 39t-58.5 15q-79 0 -150 -56l-75 97q92 79 229 79q98 0 153.5 -46t55.5 -121q0 -159 -246 -199zM408 1155h-189l232 277h251l230 -277h-189l-168 176zM457 -31q-155 0 -249.5 81.5t-94.5 217.5q0 118 88.5 197.5
t251.5 107.5l333 56v53q0 94 -63 149.5t-164 55.5q-165 0 -260 -135l-158 120q71 95 180 148t244 53q204 0 318 -108t114 -283v-682h-211v117q-56 -68 -145 -108t-184 -40zM326 276q0 -61 45.5 -98t124.5 -37q95 0 169 42.5t121 117.5v178l-278 -47q-182 -32 -182 -156z" />
    <glyph glyph-name="Acircumflextilde" unicode="&#x1eaa;" horiz-adv-x="1519" 
d="M401 1903v71q0 95 55.5 152t145.5 57q48 0 97.5 -23.5t82.5 -51t68.5 -51t60.5 -23.5q23 0 36.5 16t13.5 45v68h155l2 -72q0 -97 -55.5 -153t-144.5 -56q-49 0 -98.5 23.5t-82.5 51.5t-68.5 51.5t-60.5 23.5q-49 0 -49 -64l-2 -65h-156zM592 1556h-189l232 277h252
l229 -277h-188l-168 177zM45 0l559 1434h311l560 -1434h-252l-152 401h-625l-151 -401h-250zM524 602h469l-233 619z" />
    <glyph glyph-name="acircumflextilde" unicode="&#x1eab;" horiz-adv-x="1155" 
d="M217 1501v72q0 95 55.5 152t145.5 57q48 0 97.5 -23.5t82.5 -51.5t68.5 -51.5t60.5 -23.5q23 0 36 16.5t13 45.5v67h156l2 -71q0 -97 -56 -153t-145 -56q-49 0 -98.5 23.5t-82 51t-68 51t-60.5 23.5q-49 0 -49 -63l-2 -66h-156zM408 1155h-189l232 277h251l230 -277h-189
l-168 176zM457 -31q-155 0 -249.5 81.5t-94.5 217.5q0 118 88.5 197.5t251.5 107.5l333 56v53q0 94 -63 149.5t-164 55.5q-165 0 -260 -135l-158 120q71 95 180 148t244 53q204 0 318 -108t114 -283v-682h-211v117q-56 -68 -145 -108t-184 -40zM326 276q0 -61 45.5 -98
t124.5 -37q95 0 169 42.5t121 117.5v178l-278 -47q-182 -32 -182 -156z" />
    <glyph glyph-name="Acircumflexdotbelow" unicode="&#x1eac;" horiz-adv-x="1519" 
d="M592 1556h-189l232 277h252l229 -277h-188l-168 177zM45 0l559 1434h311l560 -1434h-252l-152 401h-625l-151 -401h-250zM524 602h469l-233 619zM760 -524q-59 0 -101.5 42.5t-42.5 100.5q0 60 42.5 101.5t101.5 41.5t101 -41.5t42 -101.5q0 -59 -42.5 -101t-100.5 -42z
" />
    <glyph glyph-name="acircumflexdotbelow" unicode="&#x1ead;" horiz-adv-x="1155" 
d="M412 1196h-189l213 340h279l213 -340h-189l-164 244zM457 -31q-155 0 -249.5 81.5t-94.5 217.5q0 118 88.5 197.5t251.5 107.5l333 56v53q0 94 -63 149.5t-164 55.5q-165 0 -260 -135l-158 120q71 95 180 148t244 53q204 0 318 -108t114 -283v-682h-211v117
q-56 -68 -145 -108t-184 -40zM326 276q0 -61 45.5 -98t124.5 -37q95 0 169 42.5t121 117.5v178l-278 -47q-182 -32 -182 -156zM578 -524q-59 0 -101.5 42.5t-42.5 100.5q0 60 42.5 101.5t101.5 41.5t101 -41.5t42 -101.5q0 -59 -42.5 -101t-100.5 -42z" />
    <glyph glyph-name="Abreveacute" unicode="&#x1eae;" horiz-adv-x="1519" 
d="M868 1894h-217l232 277h250zM760 1683q87 0 133 38.5t51 111.5h176q0 -142 -98 -219.5t-262 -77.5t-262.5 77.5t-98.5 219.5h176q5 -73 51.5 -111.5t133.5 -38.5zM45 0l559 1434h311l560 -1434h-252l-152 401h-625l-151 -401h-250zM524 602h469l-233 619z" />
    <glyph glyph-name="abreveacute" unicode="&#x1eaf;" horiz-adv-x="1155" 
d="M684 1493h-217l231 276h250zM575 1282q87 0 133.5 38.5t51.5 111.5h176q0 -142 -98.5 -219.5t-262.5 -77.5t-262 77.5t-98 219.5h176q5 -73 51 -111.5t133 -38.5zM457 -31q-155 0 -249.5 81.5t-94.5 217.5q0 118 88.5 197.5t251.5 107.5l333 56v53q0 94 -63 149.5
t-164 55.5q-165 0 -260 -135l-158 120q71 95 180 148t244 53q204 0 318 -108t114 -283v-682h-211v117q-56 -68 -145 -108t-184 -40zM326 276q0 -61 45.5 -98t124.5 -37q95 0 169 42.5t121 117.5v178l-278 -47q-182 -32 -182 -156z" />
    <glyph glyph-name="Abrevegrave" unicode="&#x1eb0;" horiz-adv-x="1519" 
d="M657 1894l-264 277h250l231 -277h-217zM760 1683q87 0 133 38.5t51 111.5h176q0 -142 -98 -219.5t-262 -77.5t-262.5 77.5t-98.5 219.5h176q5 -73 51.5 -111.5t133.5 -38.5zM45 0l559 1434h311l560 -1434h-252l-152 401h-625l-151 -401h-250zM524 602h469l-233 619z" />
    <glyph glyph-name="abrevegrave" unicode="&#x1eb1;" horiz-adv-x="1155" 
d="M473 1493l-264 276h250l231 -276h-217zM575 1282q87 0 133.5 38.5t51.5 111.5h176q0 -142 -98.5 -219.5t-262.5 -77.5t-262 77.5t-98 219.5h176q5 -73 51 -111.5t133 -38.5zM457 -31q-155 0 -249.5 81.5t-94.5 217.5q0 118 88.5 197.5t251.5 107.5l333 56v53
q0 94 -63 149.5t-164 55.5q-165 0 -260 -135l-158 120q71 95 180 148t244 53q204 0 318 -108t114 -283v-682h-211v117q-56 -68 -145 -108t-184 -40zM326 276q0 -61 45.5 -98t124.5 -37q95 0 169 42.5t121 117.5v178l-278 -47q-182 -32 -182 -156z" />
    <glyph glyph-name="Abrevehoi" unicode="&#x1eb2;" horiz-adv-x="1519" 
d="M733 1837l-31 135q158 24 158 99q0 30 -25 49.5t-69 19.5q-81 0 -154 -59l-86 110q105 88 250 88q108 0 175 -56t67 -146q0 -98 -75 -158.5t-210 -81.5zM760 1683q87 0 133 38.5t51 111.5h176q0 -142 -98 -219.5t-262 -77.5t-262.5 77.5t-98.5 219.5h176
q5 -73 51.5 -111.5t133.5 -38.5zM45 0l559 1434h311l560 -1434h-252l-152 401h-625l-151 -401h-250zM524 602h469l-233 619z" />
    <glyph glyph-name="abrevehoi" unicode="&#x1eb3;" horiz-adv-x="1155" 
d="M549 1436l-31 135q81 12 119.5 35.5t38.5 62.5q0 30 -25 50t-69 20q-79 0 -154 -60l-86 111q105 88 250 88q107 0 174.5 -56t67.5 -147q0 -98 -75 -158t-210 -81zM575 1282q87 0 133.5 38.5t51.5 111.5h176q0 -142 -98.5 -219.5t-262.5 -77.5t-262 77.5t-98 219.5h176
q5 -73 51 -111.5t133 -38.5zM457 -31q-155 0 -249.5 81.5t-94.5 217.5q0 118 88.5 197.5t251.5 107.5l333 56v53q0 94 -63 149.5t-164 55.5q-165 0 -260 -135l-158 120q71 95 180 148t244 53q204 0 318 -108t114 -283v-682h-211v117q-56 -68 -145 -108t-184 -40zM326 276
q0 -61 45.5 -98t124.5 -37q95 0 169 42.5t121 117.5v178l-278 -47q-182 -32 -182 -156z" />
    <glyph glyph-name="Abrevetilde" unicode="&#x1eb4;" horiz-adv-x="1519" 
d="M401 1903v71q0 95 55.5 152t145.5 57q48 0 97.5 -23.5t82.5 -51t68.5 -51t60.5 -23.5q23 0 36.5 16t13.5 45v68h155l2 -72q0 -97 -55.5 -153t-144.5 -56q-49 0 -98.5 23.5t-82.5 51.5t-68.5 51.5t-60.5 23.5q-49 0 -49 -64l-2 -65h-156zM760 1683q87 0 133 38.5t51 111.5
h176q0 -142 -98 -219.5t-262 -77.5t-262.5 77.5t-98.5 219.5h176q5 -73 51.5 -111.5t133.5 -38.5zM45 0l559 1434h311l560 -1434h-252l-152 401h-625l-151 -401h-250zM524 602h469l-233 619z" />
    <glyph glyph-name="abrevetilde" unicode="&#x1eb5;" horiz-adv-x="1155" 
d="M217 1501v72q0 95 55.5 152t145.5 57q48 0 97.5 -23.5t82.5 -51.5t68.5 -51.5t60.5 -23.5q23 0 36 16.5t13 45.5v67h156l2 -71q0 -97 -56 -153t-145 -56q-49 0 -98.5 23.5t-82 51t-68 51t-60.5 23.5q-49 0 -49 -63l-2 -66h-156zM575 1282q87 0 133.5 38.5t51.5 111.5h176
q0 -142 -98.5 -219.5t-262.5 -77.5t-262 77.5t-98 219.5h176q5 -73 51 -111.5t133 -38.5zM457 -31q-155 0 -249.5 81.5t-94.5 217.5q0 118 88.5 197.5t251.5 107.5l333 56v53q0 94 -63 149.5t-164 55.5q-165 0 -260 -135l-158 120q71 95 180 148t244 53q204 0 318 -108
t114 -283v-682h-211v117q-56 -68 -145 -108t-184 -40zM326 276q0 -61 45.5 -98t124.5 -37q95 0 169 42.5t121 117.5v178l-278 -47q-182 -32 -182 -156z" />
    <glyph glyph-name="Abrevedotbelow" unicode="&#x1eb6;" horiz-adv-x="1519" 
d="M760 1683q87 0 133 38.5t51 111.5h176q0 -142 -98 -219.5t-262 -77.5t-262.5 77.5t-98.5 219.5h176q5 -73 51.5 -111.5t133.5 -38.5zM45 0l559 1434h311l560 -1434h-252l-152 401h-625l-151 -401h-250zM524 602h469l-233 619zM760 -524q-59 0 -101.5 42.5t-42.5 100.5
q0 60 42.5 101.5t101.5 41.5t101 -41.5t42 -101.5q0 -59 -42.5 -101t-100.5 -42z" />
    <glyph glyph-name="abrevedotbelow" unicode="&#x1eb7;" horiz-adv-x="1155" 
d="M575 1343q88 0 132.5 49.5t44.5 143.5h176q0 -164 -93.5 -252t-259.5 -88q-164 0 -258 88.5t-94 251.5h176q0 -93 45 -143t131 -50zM457 -31q-155 0 -249.5 81.5t-94.5 217.5q0 118 88.5 197.5t251.5 107.5l333 56v53q0 94 -63 149.5t-164 55.5q-165 0 -260 -135
l-158 120q71 95 180 148t244 53q204 0 318 -108t114 -283v-682h-211v117q-56 -68 -145 -108t-184 -40zM326 276q0 -61 45.5 -98t124.5 -37q95 0 169 42.5t121 117.5v178l-278 -47q-182 -32 -182 -156zM578 -524q-59 0 -101.5 42.5t-42.5 100.5q0 60 42.5 101.5t101.5 41.5
t101 -41.5t42 -101.5q0 -59 -42.5 -101t-100.5 -42z" />
    <glyph glyph-name="Edotbelow" unicode="&#x1eb8;" horiz-adv-x="1171" 
d="M221 0v1434h799v-199h-565v-406h483v-198h-483v-432h565v-199h-799zM608 -524q-58 0 -100.5 42t-42.5 101q0 60 42 101.5t101 41.5t101.5 -41.5t42.5 -101.5q0 -58 -42.5 -100.5t-101.5 -42.5z" />
    <glyph glyph-name="edotbelow" unicode="&#x1eb9;" horiz-adv-x="1187" 
d="M1104 168q-73 -99 -189 -154t-258 -55q-130 0 -238 44.5t-179.5 121t-110.5 177.5t-39 214q0 116 36 217.5t102.5 177t166 119t219.5 43.5q211 0 340 -129t129 -328q0 -70 -14 -124h-762q10 -166 104 -254t246 -88q92 0 168.5 37.5t124.5 103.5zM610 897q-116 0 -192 -64
t-101 -184h555q-3 103 -73 175.5t-189 72.5zM625 -524q-59 0 -101.5 42.5t-42.5 100.5q0 60 42.5 101.5t101.5 41.5t101 -41.5t42 -101.5q0 -59 -42 -101t-101 -42z" />
    <glyph glyph-name="Ehoi" unicode="&#x1eba;" horiz-adv-x="1171" 
d="M594 1499l-31 135q158 24 158 99q0 30 -25 49.5t-69 19.5q-81 0 -154 -59l-86 110q106 89 250 89q107 0 174.5 -56t67.5 -147q0 -98 -75 -158.5t-210 -81.5zM221 0v1434h799v-199h-565v-406h483v-198h-483v-432h565v-199h-799z" />
    <glyph glyph-name="ehoi" unicode="&#x1ebb;" horiz-adv-x="1187" 
d="M584 1145l-31 135q90 14 132 40.5t42 72.5q0 32 -27.5 52.5t-76.5 20.5q-81 0 -158 -63l-86 110q108 93 258 93q110 0 178 -57.5t68 -151.5q0 -105 -78.5 -168t-220.5 -84zM1104 168q-73 -99 -189 -154t-258 -55q-130 0 -238 44.5t-179.5 121t-110.5 177.5t-39 214
q0 116 36 217.5t102.5 177t166 119t219.5 43.5q211 0 340 -129t129 -328q0 -70 -14 -124h-762q10 -166 104 -254t246 -88q92 0 168.5 37.5t124.5 103.5zM610 897q-116 0 -192 -64t-101 -184h555q-3 103 -73 175.5t-189 72.5z" />
    <glyph glyph-name="Etilde" unicode="&#x1ebc;" horiz-adv-x="1171" 
d="M262 1565v71q0 95 55.5 152t145.5 57q48 0 97.5 -23.5t82.5 -51t68.5 -51t60.5 -23.5q49 0 49 61v68h156l2 -72q0 -97 -56 -153t-145 -56q-49 0 -98.5 23.5t-82 51.5t-68 51.5t-60.5 23.5q-49 0 -49 -64l-2 -65h-156zM221 0v1434h799v-199h-565v-406h483v-198h-483v-432
h565v-199h-799z" />
    <glyph glyph-name="etilde" unicode="&#x1ebd;" horiz-adv-x="1187" 
d="M991 1518v-91q0 -104 -53.5 -166t-149.5 -61q-53 0 -95.5 18t-70.5 43.5t-51.5 51t-50 43.5t-55.5 18q-28 0 -43.5 -15.5t-15.5 -43.5v-101h-158v93q0 103 53 164.5t148 60.5q54 0 97.5 -18t71.5 -43.5t52 -51t50.5 -43.5t55.5 -18q27 0 42.5 16.5t15.5 44.5v99h157z
M1104 168q-73 -99 -189 -154t-258 -55q-130 0 -238 44.5t-179.5 121t-110.5 177.5t-39 214q0 116 36 217.5t102.5 177t166 119t219.5 43.5q211 0 340 -129t129 -328q0 -70 -14 -124h-762q10 -166 104 -254t246 -88q92 0 168.5 37.5t124.5 103.5zM610 897q-116 0 -192 -64
t-101 -184h555q-3 103 -73 175.5t-189 72.5z" />
    <glyph glyph-name="Ecircumflexacute" unicode="&#x1ebe;" horiz-adv-x="1171" 
d="M1030 1765h-205l232 277h235zM453 1556h-189l232 277h252l229 -277h-189l-167 177zM221 0v1434h799v-199h-565v-406h483v-198h-483v-432h565v-199h-799z" />
    <glyph glyph-name="ecircumflexacute" unicode="&#x1ebf;" horiz-adv-x="1187" 
d="M1030 1364h-205l232 276h235zM453 1155h-189l232 277h252l229 -277h-189l-167 176zM1104 168q-73 -99 -189 -154t-258 -55q-130 0 -238 44.5t-179.5 121t-110.5 177.5t-39 214q0 116 36 217.5t102.5 177t166 119t219.5 43.5q211 0 340 -129t129 -328q0 -70 -14 -124h-762
q10 -166 104 -254t246 -88q92 0 168.5 37.5t124.5 103.5zM610 897q-116 0 -192 -64t-101 -184h555q-3 103 -73 175.5t-189 72.5z" />
    <glyph glyph-name="Ecircumflexgrave" unicode="&#x1ec0;" horiz-adv-x="1171" 
d="M928 1765l-264 277h239l232 -277h-207zM453 1556h-189l232 277h252l229 -277h-189l-167 177zM221 0v1434h799v-199h-565v-406h483v-198h-483v-432h565v-199h-799z" />
    <glyph glyph-name="ecircumflexgrave" unicode="&#x1ec1;" horiz-adv-x="1187" 
d="M928 1364l-264 276h239l232 -276h-207zM453 1155h-189l232 277h252l229 -277h-189l-167 176zM1104 168q-73 -99 -189 -154t-258 -55q-130 0 -238 44.5t-179.5 121t-110.5 177.5t-39 214q0 116 36 217.5t102.5 177t166 119t219.5 43.5q211 0 340 -129t129 -328
q0 -70 -14 -124h-762q10 -166 104 -254t246 -88q92 0 168.5 37.5t124.5 103.5zM610 897q-116 0 -192 -64t-101 -184h555q-3 103 -73 175.5t-189 72.5z" />
    <glyph glyph-name="Ecircumflexhoi" unicode="&#x1ec2;" horiz-adv-x="1171" 
d="M944 1718l-29 117q70 11 105 28.5t35 47.5q0 23 -19.5 38t-58.5 15q-80 0 -150 -55l-75 96q94 80 229 80q98 0 153.5 -46.5t55.5 -121.5q0 -159 -246 -199zM453 1556h-189l232 277h252l229 -277h-189l-167 177zM221 0v1434h799v-199h-565v-406h483v-198h-483v-432h565
v-199h-799z" />
    <glyph glyph-name="ecircumflexhoi" unicode="&#x1ec3;" horiz-adv-x="1187" 
d="M944 1317l-29 117q71 12 105.5 28.5t34.5 46.5q0 24 -19.5 39t-58.5 15q-79 0 -150 -56l-75 97q92 79 229 79q98 0 153.5 -46t55.5 -121q0 -159 -246 -199zM453 1155h-189l232 277h252l229 -277h-189l-167 176zM1104 168q-73 -99 -189 -154t-258 -55q-130 0 -238 44.5
t-179.5 121t-110.5 177.5t-39 214q0 116 36 217.5t102.5 177t166 119t219.5 43.5q211 0 340 -129t129 -328q0 -70 -14 -124h-762q10 -166 104 -254t246 -88q92 0 168.5 37.5t124.5 103.5zM610 897q-116 0 -192 -64t-101 -184h555q-3 103 -73 175.5t-189 72.5z" />
    <glyph glyph-name="Ecircumflextilde" unicode="&#x1ec4;" horiz-adv-x="1171" 
d="M262 1903v71q0 95 55.5 152t145.5 57q48 0 97.5 -23.5t82.5 -51t68.5 -51t60.5 -23.5q49 0 49 61v68h156l2 -72q0 -97 -56 -153t-145 -56q-49 0 -98.5 23.5t-82 51.5t-68 51.5t-60.5 23.5q-49 0 -49 -64l-2 -65h-156zM453 1556h-189l232 277h252l229 -277h-189l-167 177z
M221 0v1434h799v-199h-565v-406h483v-198h-483v-432h565v-199h-799z" />
    <glyph glyph-name="ecircumflextilde" unicode="&#x1ec5;" horiz-adv-x="1187" 
d="M262 1501v72q0 95 55.5 152t145.5 57q48 0 97.5 -23.5t82.5 -51.5t68.5 -51.5t60.5 -23.5q23 0 36 16.5t13 45.5v67h156l2 -71q0 -97 -56 -153t-145 -56q-49 0 -98.5 23.5t-82 51t-68 51t-60.5 23.5q-49 0 -49 -63l-2 -66h-156zM453 1155h-189l232 277h252l229 -277h-189
l-167 176zM1104 168q-73 -99 -189 -154t-258 -55q-130 0 -238 44.5t-179.5 121t-110.5 177.5t-39 214q0 116 36 217.5t102.5 177t166 119t219.5 43.5q211 0 340 -129t129 -328q0 -70 -14 -124h-762q10 -166 104 -254t246 -88q92 0 168.5 37.5t124.5 103.5zM610 897
q-116 0 -192 -64t-101 -184h555q-3 103 -73 175.5t-189 72.5z" />
    <glyph glyph-name="Ecircumflexdotbelow" unicode="&#x1ec6;" horiz-adv-x="1171" 
d="M453 1556h-189l232 277h252l229 -277h-189l-167 177zM221 0v1434h799v-199h-565v-406h483v-198h-483v-432h565v-199h-799zM608 -524q-58 0 -100.5 42t-42.5 101q0 60 42 101.5t101 41.5t101.5 -41.5t42.5 -101.5q0 -58 -42.5 -100.5t-101.5 -42.5z" />
    <glyph glyph-name="ecircumflexdotbelow" unicode="&#x1ec7;" horiz-adv-x="1187" 
d="M457 1196h-189l213 340h279l213 -340h-189l-163 244zM1104 168q-73 -99 -189 -154t-258 -55q-130 0 -238 44.5t-179.5 121t-110.5 177.5t-39 214q0 116 36 217.5t102.5 177t166 119t219.5 43.5q211 0 340 -129t129 -328q0 -70 -14 -124h-762q10 -166 104 -254t246 -88
q92 0 168.5 37.5t124.5 103.5zM610 897q-116 0 -192 -64t-101 -184h555q-3 103 -73 175.5t-189 72.5zM625 -524q-59 0 -101.5 42.5t-42.5 100.5q0 60 42.5 101.5t101.5 41.5t101 -41.5t42 -101.5q0 -59 -42 -101t-101 -42z" />
    <glyph glyph-name="Ihoi" unicode="&#x1ec8;" horiz-adv-x="675" 
d="M311 1499l-30 135q80 12 118.5 36t38.5 63q0 30 -25 49.5t-69 19.5q-81 0 -154 -59l-86 110q106 89 250 89q107 0 174.5 -56t67.5 -147q0 -98 -75 -158.5t-210 -81.5zM221 0v1434h234v-1434h-234z" />
    <glyph glyph-name="ihoi" unicode="&#x1ec9;" horiz-adv-x="555" 
d="M242 1145l-31 135q90 14 132 40.5t42 72.5q0 32 -27.5 52.5t-76.5 20.5q-81 0 -158 -63l-86 110q108 93 258 93q110 0 178 -57.5t68 -151.5q0 -105 -78.5 -168t-220.5 -84zM172 0v1032h211v-1032h-211z" />
    <glyph glyph-name="Idotbelow" unicode="&#x1eca;" horiz-adv-x="675" 
d="M221 0v1434h234v-1434h-234zM338 -524q-58 0 -100.5 42t-42.5 101q0 60 42 101.5t101 41.5t101 -41.5t42 -101.5q0 -59 -42.5 -101t-100.5 -42z" />
    <glyph glyph-name="idotbelow" unicode="&#x1ecb;" horiz-adv-x="555" 
d="M279 1262q-59 0 -101.5 42.5t-42.5 100.5t42.5 100.5t101.5 42.5t101 -42t42 -101t-42 -101t-101 -42zM172 0v1032h211v-1032h-211zM279 -524q-59 0 -101.5 42.5t-42.5 100.5q0 60 42.5 101.5t101.5 41.5t101 -41.5t42 -101.5q0 -59 -42 -101t-101 -42z" />
    <glyph glyph-name="Odotbelow" unicode="&#x1ecc;" horiz-adv-x="1708" 
d="M854 1475q164 0 306.5 -61t240.5 -164t153.5 -241.5t55.5 -291.5t-55.5 -291.5t-153.5 -241.5t-240.5 -164t-306.5 -61q-165 0 -307.5 61t-240 164t-153 241.5t-55.5 291.5t55.5 291.5t153 241.5t240 164t307.5 61zM854 180q146 0 264 71.5t183 194.5t65 271
q0 228 -145 382t-367 154q-147 0 -265 -71.5t-183.5 -194t-65.5 -270.5q0 -228 146 -382.5t368 -154.5zM854 -524q-58 0 -100.5 42t-42.5 101q0 60 42 101.5t101 41.5t101 -41.5t42 -101.5q0 -59 -42.5 -101t-100.5 -42z" />
    <glyph glyph-name="odotbelow" unicode="&#x1ecd;" horiz-adv-x="1304" 
d="M651 1073q123 0 229 -44.5t178 -120t113 -177t41 -215.5t-41 -215.5t-113 -177t-178 -120t-229 -44.5q-122 0 -228 44.5t-178.5 119.5t-113.5 177t-41 216t41 216t113.5 177t178.5 119.5t228 44.5zM653 158q145 0 241.5 104.5t96.5 253.5q0 152 -96.5 255t-241.5 103
q-148 0 -245 -103.5t-97 -254.5t97 -254.5t245 -103.5zM651 -524q-59 0 -101 42t-42 101q0 60 42 101.5t101 41.5t101.5 -41.5t42.5 -101.5q0 -58 -42.5 -100.5t-101.5 -42.5z" />
    <glyph glyph-name="Ohoi" unicode="&#x1ece;" horiz-adv-x="1708" 
d="M827 1499l-30 135q80 12 118.5 36t38.5 63q0 30 -25 49.5t-69 19.5q-80 0 -153 -59l-86 110q106 89 249 89q107 0 174.5 -56t67.5 -147q0 -98 -75 -158.5t-210 -81.5zM854 1475q164 0 306.5 -61t240.5 -164t153.5 -241.5t55.5 -291.5t-55.5 -291.5t-153.5 -241.5
t-240.5 -164t-306.5 -61q-165 0 -307.5 61t-240 164t-153 241.5t-55.5 291.5t55.5 291.5t153 241.5t240 164t307.5 61zM854 180q146 0 264 71.5t183 194.5t65 271q0 228 -145 382t-367 154q-147 0 -265 -71.5t-183.5 -194t-65.5 -270.5q0 -228 146 -382.5t368 -154.5z" />
    <glyph glyph-name="ohoi" unicode="&#x1ecf;" horiz-adv-x="1304" 
d="M614 1145l-30 135q90 14 132 40.5t42 72.5q0 32 -28 52.5t-77 20.5q-80 0 -157 -63l-86 110q108 93 258 93q110 0 177.5 -57.5t67.5 -151.5q0 -105 -78.5 -168t-220.5 -84zM651 1073q123 0 229 -44.5t178 -120t113 -177t41 -215.5t-41 -215.5t-113 -177t-178 -120
t-229 -44.5q-122 0 -228 44.5t-178.5 119.5t-113.5 177t-41 216t41 216t113.5 177t178.5 119.5t228 44.5zM653 158q145 0 241.5 104.5t96.5 253.5q0 152 -96.5 255t-241.5 103q-148 0 -245 -103.5t-97 -254.5t97 -254.5t245 -103.5z" />
    <glyph glyph-name="Ocircumflexacute" unicode="&#x1ed0;" horiz-adv-x="1708" 
d="M1264 1765h-205l231 277h236zM686 1556h-188l231 277h252l229 -277h-188l-168 177zM854 1475q164 0 306.5 -61t240.5 -164t153.5 -241.5t55.5 -291.5t-55.5 -291.5t-153.5 -241.5t-240.5 -164t-306.5 -61q-165 0 -307.5 61t-240 164t-153 241.5t-55.5 291.5t55.5 291.5
t153 241.5t240 164t307.5 61zM854 180q146 0 264 71.5t183 194.5t65 271q0 228 -145 382t-367 154q-147 0 -265 -71.5t-183.5 -194t-65.5 -270.5q0 -228 146 -382.5t368 -154.5z" />
    <glyph glyph-name="ocircumflexacute" unicode="&#x1ed1;" horiz-adv-x="1304" 
d="M1061 1364h-205l231 276h236zM483 1155h-188l231 277h252l230 -277h-189l-168 176zM651 1073q123 0 229 -44.5t178 -120t113 -177t41 -215.5t-41 -215.5t-113 -177t-178 -120t-229 -44.5q-122 0 -228 44.5t-178.5 119.5t-113.5 177t-41 216t41 216t113.5 177t178.5 119.5
t228 44.5zM653 158q145 0 241.5 104.5t96.5 253.5q0 152 -96.5 255t-241.5 103q-148 0 -245 -103.5t-97 -254.5t97 -254.5t245 -103.5z" />
    <glyph glyph-name="Ocircumflexgrave" unicode="&#x1ed2;" horiz-adv-x="1708" 
d="M1161 1765l-264 277h240l231 -277h-207zM686 1556h-188l231 277h252l229 -277h-188l-168 177zM854 1475q164 0 306.5 -61t240.5 -164t153.5 -241.5t55.5 -291.5t-55.5 -291.5t-153.5 -241.5t-240.5 -164t-306.5 -61q-165 0 -307.5 61t-240 164t-153 241.5t-55.5 291.5
t55.5 291.5t153 241.5t240 164t307.5 61zM854 180q146 0 264 71.5t183 194.5t65 271q0 228 -145 382t-367 154q-147 0 -265 -71.5t-183.5 -194t-65.5 -270.5q0 -228 146 -382.5t368 -154.5z" />
    <glyph glyph-name="ocircumflexgrave" unicode="&#x1ed3;" horiz-adv-x="1304" 
d="M958 1364l-264 276h240l231 -276h-207zM483 1155h-188l231 277h252l230 -277h-189l-168 176zM651 1073q123 0 229 -44.5t178 -120t113 -177t41 -215.5t-41 -215.5t-113 -177t-178 -120t-229 -44.5q-122 0 -228 44.5t-178.5 119.5t-113.5 177t-41 216t41 216t113.5 177
t178.5 119.5t228 44.5zM653 158q145 0 241.5 104.5t96.5 253.5q0 152 -96.5 255t-241.5 103q-148 0 -245 -103.5t-97 -254.5t97 -254.5t245 -103.5z" />
    <glyph glyph-name="Ocircumflexhoi" unicode="&#x1ed4;" horiz-adv-x="1708" 
d="M1178 1718l-29 117q70 11 104.5 28.5t34.5 47.5q0 23 -19.5 38t-58.5 15q-79 0 -149 -55l-76 96q94 80 229 80q98 0 153.5 -46.5t55.5 -121.5q0 -159 -245 -199zM686 1556h-188l231 277h252l229 -277h-188l-168 177zM854 1475q164 0 306.5 -61t240.5 -164t153.5 -241.5
t55.5 -291.5t-55.5 -291.5t-153.5 -241.5t-240.5 -164t-306.5 -61q-165 0 -307.5 61t-240 164t-153 241.5t-55.5 291.5t55.5 291.5t153 241.5t240 164t307.5 61zM854 180q146 0 264 71.5t183 194.5t65 271q0 228 -145 382t-367 154q-147 0 -265 -71.5t-183.5 -194
t-65.5 -270.5q0 -228 146 -382.5t368 -154.5z" />
    <glyph glyph-name="ocircumflexhoi" unicode="&#x1ed5;" horiz-adv-x="1304" 
d="M975 1317l-29 117q70 11 104.5 28t34.5 47q0 24 -19 39t-58 15q-79 0 -150 -56l-76 97q42 36 103 57.5t127 21.5q98 0 153.5 -46t55.5 -121q0 -159 -246 -199zM483 1155h-188l231 277h252l230 -277h-189l-168 176zM651 1073q123 0 229 -44.5t178 -120t113 -177t41 -215.5
t-41 -215.5t-113 -177t-178 -120t-229 -44.5q-122 0 -228 44.5t-178.5 119.5t-113.5 177t-41 216t41 216t113.5 177t178.5 119.5t228 44.5zM653 158q145 0 241.5 104.5t96.5 253.5q0 152 -96.5 255t-241.5 103q-148 0 -245 -103.5t-97 -254.5t97 -254.5t245 -103.5z" />
    <glyph glyph-name="Ocircumflextilde" unicode="&#x1ed6;" horiz-adv-x="1708" 
d="M496 1903v71q0 95 55 152t145 57q48 0 97.5 -23.5t82.5 -51t69 -51t61 -23.5q49 0 49 61v68h155l2 -72q0 -97 -55.5 -153t-144.5 -56q-49 0 -98.5 23.5t-82.5 51.5t-68.5 51.5t-60.5 23.5q-49 0 -49 -64l-2 -65h-155zM686 1556h-188l231 277h252l229 -277h-188l-168 177z
M854 1475q164 0 306.5 -61t240.5 -164t153.5 -241.5t55.5 -291.5t-55.5 -291.5t-153.5 -241.5t-240.5 -164t-306.5 -61q-165 0 -307.5 61t-240 164t-153 241.5t-55.5 291.5t55.5 291.5t153 241.5t240 164t307.5 61zM854 180q146 0 264 71.5t183 194.5t65 271q0 228 -145 382
t-367 154q-147 0 -265 -71.5t-183.5 -194t-65.5 -270.5q0 -228 146 -382.5t368 -154.5z" />
    <glyph glyph-name="ocircumflextilde" unicode="&#x1ed7;" horiz-adv-x="1304" 
d="M293 1501v72q0 95 55.5 152t145.5 57q48 0 97.5 -23.5t82.5 -51.5t68.5 -51.5t60.5 -23.5q23 0 36 16.5t13 45.5v67h156l2 -71q0 -97 -56 -153t-145 -56q-49 0 -98.5 23.5t-82 51t-68 51t-60.5 23.5q-49 0 -49 -63l-2 -66h-156zM483 1155h-188l231 277h252l230 -277h-189
l-168 176zM651 1073q123 0 229 -44.5t178 -120t113 -177t41 -215.5t-41 -215.5t-113 -177t-178 -120t-229 -44.5q-122 0 -228 44.5t-178.5 119.5t-113.5 177t-41 216t41 216t113.5 177t178.5 119.5t228 44.5zM653 158q145 0 241.5 104.5t96.5 253.5q0 152 -96.5 255
t-241.5 103q-148 0 -245 -103.5t-97 -254.5t97 -254.5t245 -103.5z" />
    <glyph glyph-name="Ocircumflexdotbelow" unicode="&#x1ed8;" horiz-adv-x="1708" 
d="M686 1556h-188l231 277h252l229 -277h-188l-168 177zM854 1475q164 0 306.5 -61t240.5 -164t153.5 -241.5t55.5 -291.5t-55.5 -291.5t-153.5 -241.5t-240.5 -164t-306.5 -61q-165 0 -307.5 61t-240 164t-153 241.5t-55.5 291.5t55.5 291.5t153 241.5t240 164t307.5 61z
M854 180q146 0 264 71.5t183 194.5t65 271q0 228 -145 382t-367 154q-147 0 -265 -71.5t-183.5 -194t-65.5 -270.5q0 -228 146 -382.5t368 -154.5zM854 -524q-58 0 -100.5 42t-42.5 101q0 60 42 101.5t101 41.5t101 -41.5t42 -101.5q0 -59 -42.5 -101t-100.5 -42z" />
    <glyph glyph-name="ocircumflexdotbelow" unicode="&#x1ed9;" horiz-adv-x="1304" 
d="M487 1196h-188l213 340h279l213 -340h-189l-164 244zM651 1073q123 0 229 -44.5t178 -120t113 -177t41 -215.5t-41 -215.5t-113 -177t-178 -120t-229 -44.5q-122 0 -228 44.5t-178.5 119.5t-113.5 177t-41 216t41 216t113.5 177t178.5 119.5t228 44.5zM653 158
q145 0 241.5 104.5t96.5 253.5q0 152 -96.5 255t-241.5 103q-148 0 -245 -103.5t-97 -254.5t97 -254.5t245 -103.5zM651 -524q-59 0 -101 42t-42 101q0 60 42 101.5t101 41.5t101.5 -41.5t42.5 -101.5q0 -58 -42.5 -100.5t-101.5 -42.5z" />
    <glyph glyph-name="Ohornacute" unicode="&#x1eda;" horiz-adv-x="1708" 
d="M963 1556h-218l232 277h250zM854 1475q135 0 256 -41h102q71 0 107.5 36t36.5 91q0 70 -68 125l123 102q50 -40 80.5 -101.5t30.5 -125.5q0 -94 -54 -156t-143 -88q134 -105 209.5 -262.5t75.5 -337.5q0 -153 -55.5 -291.5t-153.5 -241.5t-240.5 -164t-306.5 -61
q-165 0 -307.5 61t-240 164t-153 241.5t-55.5 291.5t55.5 291.5t153 241.5t240 164t307.5 61zM854 180q146 0 264 71.5t183 194.5t65 271q0 228 -145 382t-367 154q-147 0 -265 -71.5t-183.5 -194t-65.5 -270.5q0 -228 146 -382.5t368 -154.5z" />
    <glyph glyph-name="ohornacute" unicode="&#x1edb;" horiz-adv-x="1304" 
d="M760 1196h-205l213 340h233zM651 1073q121 0 221 -41h66q72 0 108.5 36t36.5 91q0 70 -67 125l119 102q51 -40 81.5 -101.5t30.5 -125.5q0 -94 -53.5 -156t-142.5 -88q77 -75 119 -179t42 -220q0 -114 -41 -215.5t-113 -177t-178 -120t-229 -44.5q-122 0 -228 44.5
t-178.5 119.5t-113.5 177t-41 216t41 216t113.5 177t178.5 119.5t228 44.5zM653 158q145 0 241.5 104.5t96.5 253.5q0 152 -96.5 255t-241.5 103q-148 0 -245 -103.5t-97 -254.5t97 -254.5t245 -103.5z" />
    <glyph glyph-name="Ohorngrave" unicode="&#x1edc;" horiz-adv-x="1708" 
d="M752 1556l-265 277h250l232 -277h-217zM854 1475q135 0 256 -41h102q71 0 107.5 36t36.5 91q0 70 -68 125l123 102q50 -40 80.5 -101.5t30.5 -125.5q0 -94 -54 -156t-143 -88q134 -105 209.5 -262.5t75.5 -337.5q0 -153 -55.5 -291.5t-153.5 -241.5t-240.5 -164
t-306.5 -61q-165 0 -307.5 61t-240 164t-153 241.5t-55.5 291.5t55.5 291.5t153 241.5t240 164t307.5 61zM854 180q146 0 264 71.5t183 194.5t65 271q0 228 -145 382t-367 154q-147 0 -265 -71.5t-183.5 -194t-65.5 -270.5q0 -228 146 -382.5t368 -154.5z" />
    <glyph glyph-name="ohorngrave" unicode="&#x1edd;" horiz-adv-x="1304" 
d="M541 1196l-242 340h233l213 -340h-204zM651 1073q121 0 221 -41h66q72 0 108.5 36t36.5 91q0 70 -67 125l119 102q51 -40 81.5 -101.5t30.5 -125.5q0 -94 -53.5 -156t-142.5 -88q77 -75 119 -179t42 -220q0 -114 -41 -215.5t-113 -177t-178 -120t-229 -44.5
q-122 0 -228 44.5t-178.5 119.5t-113.5 177t-41 216t41 216t113.5 177t178.5 119.5t228 44.5zM653 158q145 0 241.5 104.5t96.5 253.5q0 152 -96.5 255t-241.5 103q-148 0 -245 -103.5t-97 -254.5t97 -254.5t245 -103.5z" />
    <glyph glyph-name="Ohornhoi" unicode="&#x1ede;" horiz-adv-x="1708" 
d="M827 1499l-30 135q80 12 118.5 36t38.5 63q0 30 -25 49.5t-69 19.5q-80 0 -153 -59l-86 110q106 89 249 89q107 0 174.5 -56t67.5 -147q0 -98 -75 -158.5t-210 -81.5zM854 1475q135 0 256 -41h102q71 0 107.5 36t36.5 91q0 70 -68 125l123 102q50 -40 80.5 -101.5
t30.5 -125.5q0 -94 -54 -156t-143 -88q134 -105 209.5 -262.5t75.5 -337.5q0 -153 -55.5 -291.5t-153.5 -241.5t-240.5 -164t-306.5 -61q-165 0 -307.5 61t-240 164t-153 241.5t-55.5 291.5t55.5 291.5t153 241.5t240 164t307.5 61zM854 180q146 0 264 71.5t183 194.5
t65 271q0 228 -145 382t-367 154q-147 0 -265 -71.5t-183.5 -194t-65.5 -270.5q0 -228 146 -382.5t368 -154.5z" />
    <glyph glyph-name="ohornhoi" unicode="&#x1edf;" horiz-adv-x="1304" 
d="M614 1145l-30 135q90 14 132 40.5t42 72.5q0 32 -28 52.5t-77 20.5q-80 0 -157 -63l-86 110q108 93 258 93q110 0 177.5 -57.5t67.5 -151.5q0 -105 -78.5 -168t-220.5 -84zM651 1073q121 0 221 -41h66q72 0 108.5 36t36.5 91q0 70 -67 125l119 102q51 -40 81.5 -101.5
t30.5 -125.5q0 -94 -53.5 -156t-142.5 -88q77 -75 119 -179t42 -220q0 -114 -41 -215.5t-113 -177t-178 -120t-229 -44.5q-122 0 -228 44.5t-178.5 119.5t-113.5 177t-41 216t41 216t113.5 177t178.5 119.5t228 44.5zM653 158q145 0 241.5 104.5t96.5 253.5q0 152 -96.5 255
t-241.5 103q-148 0 -245 -103.5t-97 -254.5t97 -254.5t245 -103.5z" />
    <glyph glyph-name="Ohorntilde" unicode="&#x1ee0;" horiz-adv-x="1708" 
d="M496 1565v71q0 95 55 152t145 57q48 0 97.5 -23.5t82.5 -51t69 -51t61 -23.5q49 0 49 61v68h155l2 -72q0 -97 -55.5 -153t-144.5 -56q-49 0 -98.5 23.5t-82.5 51.5t-68.5 51.5t-60.5 23.5q-49 0 -49 -64l-2 -65h-155zM854 1475q135 0 256 -41h102q71 0 107.5 36t36.5 91
q0 70 -68 125l123 102q50 -40 80.5 -101.5t30.5 -125.5q0 -94 -54 -156t-143 -88q134 -105 209.5 -262.5t75.5 -337.5q0 -153 -55.5 -291.5t-153.5 -241.5t-240.5 -164t-306.5 -61q-165 0 -307.5 61t-240 164t-153 241.5t-55.5 291.5t55.5 291.5t153 241.5t240 164t307.5 61
zM854 180q146 0 264 71.5t183 194.5t65 271q0 228 -145 382t-367 154q-147 0 -265 -71.5t-183.5 -194t-65.5 -270.5q0 -228 146 -382.5t368 -154.5z" />
    <glyph glyph-name="ohorntilde" unicode="&#x1ee1;" horiz-adv-x="1304" 
d="M1022 1518v-91q0 -104 -53.5 -166t-149.5 -61q-53 0 -95.5 18t-70.5 43.5t-51.5 51t-50 43.5t-55.5 18q-28 0 -44 -15.5t-16 -43.5v-101h-157v93q0 103 52.5 164.5t147.5 60.5q54 0 97.5 -18t71.5 -43.5t52.5 -51t51 -43.5t55.5 -18q27 0 42 16.5t15 44.5v99h158z
M651 1073q121 0 221 -41h66q72 0 108.5 36t36.5 91q0 70 -67 125l119 102q51 -40 81.5 -101.5t30.5 -125.5q0 -94 -53.5 -156t-142.5 -88q77 -75 119 -179t42 -220q0 -114 -41 -215.5t-113 -177t-178 -120t-229 -44.5q-122 0 -228 44.5t-178.5 119.5t-113.5 177t-41 216
t41 216t113.5 177t178.5 119.5t228 44.5zM653 158q145 0 241.5 104.5t96.5 253.5q0 152 -96.5 255t-241.5 103q-148 0 -245 -103.5t-97 -254.5t97 -254.5t245 -103.5z" />
    <glyph glyph-name="Ohorndotbelow" unicode="&#x1ee2;" horiz-adv-x="1708" 
d="M854 1475q135 0 256 -41h102q71 0 107.5 36t36.5 91q0 70 -68 125l123 102q50 -40 80.5 -101.5t30.5 -125.5q0 -94 -54 -156t-143 -88q134 -105 209.5 -262.5t75.5 -337.5q0 -153 -55.5 -291.5t-153.5 -241.5t-240.5 -164t-306.5 -61q-165 0 -307.5 61t-240 164
t-153 241.5t-55.5 291.5t55.5 291.5t153 241.5t240 164t307.5 61zM854 180q146 0 264 71.5t183 194.5t65 271q0 228 -145 382t-367 154q-147 0 -265 -71.5t-183.5 -194t-65.5 -270.5q0 -228 146 -382.5t368 -154.5zM854 -524q-58 0 -100.5 42t-42.5 101q0 60 42 101.5
t101 41.5t101 -41.5t42 -101.5q0 -59 -42.5 -101t-100.5 -42z" />
    <glyph glyph-name="ohorndotbelow" unicode="&#x1ee3;" horiz-adv-x="1304" 
d="M651 1073q121 0 221 -41h66q72 0 108.5 36t36.5 91q0 70 -67 125l119 102q51 -40 81.5 -101.5t30.5 -125.5q0 -94 -53.5 -156t-142.5 -88q77 -75 119 -179t42 -220q0 -114 -41 -215.5t-113 -177t-178 -120t-229 -44.5q-122 0 -228 44.5t-178.5 119.5t-113.5 177t-41 216
t41 216t113.5 177t178.5 119.5t228 44.5zM653 158q145 0 241.5 104.5t96.5 253.5q0 152 -96.5 255t-241.5 103q-148 0 -245 -103.5t-97 -254.5t97 -254.5t245 -103.5zM651 -524q-59 0 -101 42t-42 101q0 60 42 101.5t101 41.5t101.5 -41.5t42.5 -101.5q0 -58 -42.5 -100.5
t-101.5 -42.5z" />
    <glyph glyph-name="Udotbelow" unicode="&#x1ee4;" horiz-adv-x="1490" 
d="M1077 532v902h236v-885q0 -277 -152 -433.5t-413 -156.5q-262 0 -415 157t-153 433v885h234v-902q0 -167 89.5 -259.5t244.5 -92.5q152 0 240.5 92.5t88.5 259.5zM745 -524q-59 0 -101 42t-42 101q0 60 42 101.5t101 41.5t101.5 -41.5t42.5 -101.5q0 -58 -42.5 -100.5
t-101.5 -42.5z" />
    <glyph glyph-name="udotbelow" unicode="&#x1ee5;" horiz-adv-x="1234" 
d="M872 442v590h213v-579q0 -231 -125 -362.5t-342 -131.5q-219 0 -343.5 131.5t-124.5 362.5v579h212v-590q0 -134 67.5 -209t188.5 -75q119 0 186.5 75.5t67.5 208.5zM616 -524q-58 0 -100.5 42t-42.5 101q0 60 42 101.5t101 41.5t101.5 -41.5t42.5 -101.5
q0 -58 -42.5 -100.5t-101.5 -42.5z" />
    <glyph glyph-name="Uhoi" unicode="&#x1ee6;" horiz-adv-x="1490" 
d="M721 1499l-31 135q158 24 158 99q0 30 -25 49.5t-69 19.5q-81 0 -154 -59l-86 110q106 89 250 89q107 0 174.5 -56t67.5 -147q0 -98 -75 -158.5t-210 -81.5zM1077 532v902h236v-885q0 -277 -152 -433.5t-413 -156.5q-262 0 -415 157t-153 433v885h234v-902
q0 -167 89.5 -259.5t244.5 -92.5q152 0 240.5 92.5t88.5 259.5z" />
    <glyph glyph-name="uhoi" unicode="&#x1ee7;" horiz-adv-x="1234" 
d="M580 1145l-31 135q90 14 132 40.5t42 72.5q0 32 -28 52.5t-77 20.5q-80 0 -157 -63l-86 110q108 93 258 93q110 0 178 -57.5t68 -151.5q0 -105 -78.5 -168t-220.5 -84zM872 442v590h213v-579q0 -231 -125 -362.5t-342 -131.5q-219 0 -343.5 131.5t-124.5 362.5v579h212
v-590q0 -134 67.5 -209t188.5 -75q119 0 186.5 75.5t67.5 208.5z" />
    <glyph glyph-name="Uhornacute" unicode="&#x1ee8;" horiz-adv-x="1490" 
d="M856 1556h-217l231 277h250zM1077 532v902h166q71 0 107 36t36 91q0 70 -67 125l123 102q50 -40 80 -101.5t30 -125.5q0 -105 -68 -170.5t-171 -81.5v-760q0 -277 -152 -433.5t-413 -156.5q-262 0 -415 157t-153 433v885h234v-902q0 -167 89.5 -259.5t244.5 -92.5
q152 0 240.5 92.5t88.5 259.5z" />
    <glyph glyph-name="uhornacute" unicode="&#x1ee9;" horiz-adv-x="1234" 
d="M725 1196h-205l213 340h234zM872 442v590h142q72 0 108.5 36t36.5 91q0 70 -67 125l118 102q51 -40 82 -101.5t31 -125.5q0 -105 -67.5 -170.5t-170.5 -81.5v-454q0 -231 -125 -362.5t-342 -131.5q-219 0 -343.5 131.5t-124.5 362.5v579h212v-590q0 -134 67.5 -209
t188.5 -75q119 0 186.5 75.5t67.5 208.5z" />
    <glyph glyph-name="Uhorngrave" unicode="&#x1eea;" horiz-adv-x="1490" 
d="M645 1556l-264 277h250l231 -277h-217zM1077 532v902h166q71 0 107 36t36 91q0 70 -67 125l123 102q50 -40 80 -101.5t30 -125.5q0 -105 -68 -170.5t-171 -81.5v-760q0 -277 -152 -433.5t-413 -156.5q-262 0 -415 157t-153 433v885h234v-902q0 -167 89.5 -259.5
t244.5 -92.5q152 0 240.5 92.5t88.5 259.5z" />
    <glyph glyph-name="uhorngrave" unicode="&#x1eeb;" horiz-adv-x="1234" 
d="M506 1196l-242 340h234l213 -340h-205zM872 442v590h142q72 0 108.5 36t36.5 91q0 70 -67 125l118 102q51 -40 82 -101.5t31 -125.5q0 -105 -67.5 -170.5t-170.5 -81.5v-454q0 -231 -125 -362.5t-342 -131.5q-219 0 -343.5 131.5t-124.5 362.5v579h212v-590
q0 -134 67.5 -209t188.5 -75q119 0 186.5 75.5t67.5 208.5z" />
    <glyph glyph-name="Uhornhoi" unicode="&#x1eec;" horiz-adv-x="1490" 
d="M721 1499l-31 135q158 24 158 99q0 30 -25 49.5t-69 19.5q-81 0 -154 -59l-86 110q106 89 250 89q107 0 174.5 -56t67.5 -147q0 -98 -75 -158.5t-210 -81.5zM1077 532v902h166q71 0 107 36t36 91q0 70 -67 125l123 102q50 -40 80 -101.5t30 -125.5q0 -105 -68 -170.5
t-171 -81.5v-760q0 -277 -152 -433.5t-413 -156.5q-262 0 -415 157t-153 433v885h234v-902q0 -167 89.5 -259.5t244.5 -92.5q152 0 240.5 92.5t88.5 259.5z" />
    <glyph glyph-name="uhornhoi" unicode="&#x1eed;" horiz-adv-x="1234" 
d="M580 1145l-31 135q90 14 132 40.5t42 72.5q0 32 -28 52.5t-77 20.5q-80 0 -157 -63l-86 110q108 93 258 93q110 0 178 -57.5t68 -151.5q0 -105 -78.5 -168t-220.5 -84zM872 442v590h142q72 0 108.5 36t36.5 91q0 70 -67 125l118 102q51 -40 82 -101.5t31 -125.5
q0 -105 -67.5 -170.5t-170.5 -81.5v-454q0 -231 -125 -362.5t-342 -131.5q-219 0 -343.5 131.5t-124.5 362.5v579h212v-590q0 -134 67.5 -209t188.5 -75q119 0 186.5 75.5t67.5 208.5z" />
    <glyph glyph-name="Uhorntilde" unicode="&#x1eee;" horiz-adv-x="1490" 
d="M389 1565v71q0 95 55.5 152t145.5 57q48 0 97.5 -23.5t82.5 -51t68.5 -51t60.5 -23.5q49 0 49 61v68h156l2 -72q0 -97 -56 -153t-145 -56q-49 0 -98.5 23.5t-82 51.5t-68 51.5t-60.5 23.5q-49 0 -49 -64l-2 -65h-156zM1077 532v902h166q71 0 107 36t36 91q0 70 -67 125
l123 102q50 -40 80 -101.5t30 -125.5q0 -105 -68 -170.5t-171 -81.5v-760q0 -277 -152 -433.5t-413 -156.5q-262 0 -415 157t-153 433v885h234v-902q0 -167 89.5 -259.5t244.5 -92.5q152 0 240.5 92.5t88.5 259.5z" />
    <glyph glyph-name="uhorntilde" unicode="&#x1eef;" horiz-adv-x="1234" 
d="M987 1518v-91q0 -104 -53.5 -166t-149.5 -61q-53 0 -95.5 18t-70.5 43.5t-51.5 51t-50 43.5t-55.5 18q-28 0 -44 -15.5t-16 -43.5v-101h-157v93q0 103 52.5 164.5t147.5 60.5q54 0 97.5 -18t71.5 -43.5t52.5 -51t51 -43.5t55.5 -18q27 0 42 16.5t15 44.5v99h158zM872 442
v590h142q72 0 108.5 36t36.5 91q0 70 -67 125l118 102q51 -40 82 -101.5t31 -125.5q0 -105 -67.5 -170.5t-170.5 -81.5v-454q0 -231 -125 -362.5t-342 -131.5q-219 0 -343.5 131.5t-124.5 362.5v579h212v-590q0 -134 67.5 -209t188.5 -75q119 0 186.5 75.5t67.5 208.5z" />
    <glyph glyph-name="Uhorndotbelow" unicode="&#x1ef0;" horiz-adv-x="1490" 
d="M1077 532v902h166q71 0 107 36t36 91q0 70 -67 125l123 102q50 -40 80 -101.5t30 -125.5q0 -105 -68 -170.5t-171 -81.5v-760q0 -277 -152 -433.5t-413 -156.5q-262 0 -415 157t-153 433v885h234v-902q0 -167 89.5 -259.5t244.5 -92.5q152 0 240.5 92.5t88.5 259.5z
M745 -524q-59 0 -101 42t-42 101q0 60 42 101.5t101 41.5t101.5 -41.5t42.5 -101.5q0 -58 -42.5 -100.5t-101.5 -42.5z" />
    <glyph glyph-name="uhorndotbelow" unicode="&#x1ef1;" horiz-adv-x="1234" 
d="M872 442v590h142q72 0 108.5 36t36.5 91q0 70 -67 125l118 102q51 -40 82 -101.5t31 -125.5q0 -105 -67.5 -170.5t-170.5 -81.5v-454q0 -231 -125 -362.5t-342 -131.5q-219 0 -343.5 131.5t-124.5 362.5v579h212v-590q0 -134 67.5 -209t188.5 -75q119 0 186.5 75.5
t67.5 208.5zM616 -524q-58 0 -100.5 42t-42.5 101q0 60 42 101.5t101 41.5t101.5 -41.5t42.5 -101.5q0 -58 -42.5 -100.5t-101.5 -42.5z" />
    <glyph glyph-name="Ygrave" unicode="&#x1ef2;" horiz-adv-x="1413" 
d="M604 1556l-264 277h250l231 -277h-217zM1411 1434l-586 -805v-629h-235v627l-586 807h285l418 -576l419 576h285z" />
    <glyph glyph-name="ygrave" unicode="&#x1ef3;" horiz-adv-x="1134" 
d="M457 1196l-242 340h234l213 -340h-205zM582 -244q-112 -268 -375 -268q-96 0 -174 33v188q60 -26 131 -26q82 0 137 34.5t90 118.5l70 166l-441 1030h234l319 -760l316 760h225z" />
    <glyph glyph-name="Ydotbelow" unicode="&#x1ef4;" horiz-adv-x="1413" 
d="M1411 1434l-586 -805v-629h-235v627l-586 807h285l418 -576l419 576h285zM707 -524q-59 0 -101.5 42.5t-42.5 100.5q0 60 42.5 101.5t101.5 41.5t101 -41.5t42 -101.5q0 -59 -42 -101t-101 -42z" />
    <glyph glyph-name="ydotbelow" unicode="&#x1ef5;" horiz-adv-x="1134" 
d="M582 -244q-112 -268 -375 -268q-96 0 -174 33v188q60 -26 131 -26q82 0 137 34.5t90 118.5l70 166l-441 1030h234l319 -760l316 760h225zM860 -524q-58 0 -100.5 42t-42.5 101q0 60 42 101.5t101 41.5t101.5 -41.5t42.5 -101.5q0 -58 -42.5 -100.5t-101.5 -42.5z" />
    <glyph glyph-name="Yhoi" unicode="&#x1ef6;" horiz-adv-x="1413" 
d="M680 1499l-31 135q158 24 158 99q0 30 -25 49.5t-69 19.5q-81 0 -154 -59l-86 110q106 89 250 89q107 0 174.5 -56t67.5 -147q0 -98 -75 -158.5t-210 -81.5zM1411 1434l-586 -805v-629h-235v627l-586 807h285l418 -576l419 576h285z" />
    <glyph glyph-name="yhoi" unicode="&#x1ef7;" horiz-adv-x="1134" 
d="M530 1145l-30 135q90 14 132 40.5t42 72.5q0 32 -28 52.5t-77 20.5q-80 0 -157 -63l-86 110q108 93 258 93q110 0 177.5 -57.5t67.5 -151.5q0 -105 -78.5 -168t-220.5 -84zM582 -244q-112 -268 -375 -268q-96 0 -174 33v188q60 -26 131 -26q82 0 137 34.5t90 118.5
l70 166l-441 1030h234l319 -760l316 760h225z" />
    <glyph glyph-name="Ytilde" unicode="&#x1ef8;" horiz-adv-x="1413" 
d="M348 1565v71q0 95 55.5 152t145.5 57q48 0 97.5 -23.5t82.5 -51t68.5 -51t60.5 -23.5q49 0 49 61v68h156l2 -72q0 -97 -56 -153t-145 -56q-49 0 -98.5 23.5t-82 51.5t-68 51.5t-60.5 23.5q-49 0 -49 -64l-2 -65h-156zM1411 1434l-586 -805v-629h-235v627l-586 807h285
l418 -576l419 576h285z" />
    <glyph glyph-name="ytilde" unicode="&#x1ef9;" horiz-adv-x="1134" 
d="M938 1518v-91q0 -104 -53.5 -166t-149.5 -61q-53 0 -95.5 18t-70.5 43.5t-51.5 51t-50 43.5t-55.5 18q-28 0 -44 -15.5t-16 -43.5v-101h-157v93q0 103 52.5 164.5t147.5 60.5q54 0 97.5 -18t71.5 -43.5t52.5 -51t51 -43.5t55.5 -18q27 0 42 16.5t15 44.5v99h158z
M582 -244q-112 -268 -375 -268q-96 0 -174 33v188q60 -26 131 -26q82 0 137 34.5t90 118.5l70 166l-441 1030h234l319 -760l316 760h225z" />
    <glyph glyph-name="enquad" unicode="&#x2000;" horiz-adv-x="1105" 
 />
    <glyph glyph-name="emquad" unicode="&#x2001;" horiz-adv-x="2211" 
 />
    <glyph glyph-name="enspace" unicode="&#x2002;" horiz-adv-x="1105" 
 />
    <glyph glyph-name="emspace" unicode="&#x2003;" horiz-adv-x="2211" 
 />
    <glyph glyph-name="threeperemspace" unicode="&#x2004;" horiz-adv-x="737" 
 />
    <glyph glyph-name="fourperemspace" unicode="&#x2005;" horiz-adv-x="552" 
 />
    <glyph glyph-name="sixperemspace" unicode="&#x2006;" horiz-adv-x="368" 
 />
    <glyph glyph-name="figurespace" unicode="&#x2007;" 
 />
    <glyph glyph-name="punctuationspace" unicode="&#x2008;" horiz-adv-x="552" 
 />
    <glyph glyph-name="thinspace" unicode="&#x2009;" horiz-adv-x="276" 
 />
    <glyph glyph-name="hairspace" unicode="&#x200a;" horiz-adv-x="221" 
 />
    <glyph glyph-name="zerowidthspace" unicode="&#x200b;" horiz-adv-x="0" 
 />
    <glyph glyph-name="zerowidthnonjoiner" unicode="&#x200c;" horiz-adv-x="0" 
 />
    <glyph glyph-name="zerowidthjoiner" unicode="&#x200d;" horiz-adv-x="0" 
 />
    <glyph glyph-name="endash" unicode="&#x2013;" horiz-adv-x="1105" 
d="M43 614h1020v-182h-1020v182z" />
    <glyph glyph-name="emdash" unicode="&#x2014;" horiz-adv-x="2211" 
d="M43 614h2126v-182h-2126v182z" />
    <glyph glyph-name="quoteleft" unicode="&#x2018;" horiz-adv-x="552" 
d="M291 1434h194l-178 -568h-239z" />
    <glyph glyph-name="quoteright" unicode="&#x2019;" horiz-adv-x="552" 
d="M262 866h-194l178 568h239z" />
    <glyph glyph-name="quotesinglbase" unicode="&#x201a;" horiz-adv-x="552" 
d="M264 -328h-196l178 574h241z" />
    <glyph glyph-name="quotedblleft" unicode="&#x201c;" horiz-adv-x="968" 
d="M291 1434h194l-178 -568h-239zM707 1434h194l-178 -568h-240z" />
    <glyph glyph-name="quotedblright" unicode="&#x201d;" horiz-adv-x="968" 
d="M262 866h-194l178 568h239zM678 866h-195l179 568h239z" />
    <glyph glyph-name="quotedblbase" unicode="&#x201e;" horiz-adv-x="970" 
d="M264 -328h-196l178 574h241zM680 -328h-197l179 574h241z" />
    <glyph glyph-name="dagger" unicode="&#x2020;" horiz-adv-x="905" 
d="M352 225v813h-317v183h317v315h201v-315h317v-183h-317v-813h-201z" />
    <glyph glyph-name="daggerdbl" unicode="&#x2021;" horiz-adv-x="905" 
d="M352 225v316h-317v182h317v315h-317v183h317v315h201v-315h317v-183h-317v-315h317v-182h-317v-316h-201z" />
    <glyph glyph-name="bullet" unicode="&#x2022;" horiz-adv-x="784" 
d="M395 242q-124 0 -211.5 84.5t-87.5 203.5q0 117 87.5 199t211.5 82t208.5 -81.5t84.5 -199.5q0 -119 -84.5 -203.5t-208.5 -84.5z" />
    <glyph glyph-name="ellipsis" unicode="&#x2026;" horiz-adv-x="1486" 
d="M279 -25q-64 0 -109 44.5t-45 107.5q0 62 45 107t109 45q63 0 107 -45t44 -107q0 -63 -44 -107.5t-107 -44.5zM743 -25q-64 0 -108.5 44.5t-44.5 107.5q0 62 44.5 107t108.5 45q61 0 106.5 -45.5t45.5 -106.5q0 -63 -45 -107.5t-107 -44.5zM1210 -25q-64 0 -108.5 44.5
t-44.5 107.5q0 62 44.5 107t108.5 45q63 0 107.5 -45t44.5 -107q0 -63 -44.5 -107.5t-107.5 -44.5z" />
    <glyph glyph-name="perthousand" unicode="&#x2030;" horiz-adv-x="2461" 
d="M420 1479q151 0 248.5 -99t97.5 -243t-97.5 -243t-248.5 -99q-154 0 -251 99t-97 243t97 243t251 99zM209 2l1051 1434h219l-1051 -1434h-219zM420 940q79 0 131.5 56.5t52.5 140.5q0 85 -52 140.5t-132 55.5q-82 0 -134.5 -55.5t-52.5 -140.5t53 -141t134 -56zM1272 645
q151 0 248.5 -99t97.5 -243t-97.5 -243t-248.5 -99q-154 0 -251 99t-97 243t97 243t251 99zM2044 645q151 0 248.5 -99t97.5 -243t-97.5 -243t-248.5 -99q-154 0 -251 99t-97 243t97 243t251 99zM1272 106q79 0 131.5 56.5t52.5 140.5q0 85 -52.5 141t-131.5 56
q-81 0 -134 -56t-53 -141t53 -141t134 -56zM2044 106q79 0 131.5 56.5t52.5 140.5q0 85 -52.5 141t-131.5 56q-81 0 -133.5 -56t-52.5 -141t52.5 -141t133.5 -56z" />
    <glyph glyph-name="guilsinglleft" unicode="&#x2039;" horiz-adv-x="679" 
d="M588 98h-230l-266 410l266 410h230l-264 -410z" />
    <glyph glyph-name="guilsinglright" unicode="&#x203a;" horiz-adv-x="679" 
d="M94 918h228l266 -410l-266 -410h-228l264 410z" />
    <glyph glyph-name="fraction" unicode="&#x2044;" horiz-adv-x="493" 
d="M-393 0l1050 1434h220l-1051 -1434h-219z" />
    <glyph glyph-name="wordjoiner" unicode="&#x2060;" horiz-adv-x="0" 
 />
    <glyph glyph-name="zerosuperior" unicode="&#x2070;" horiz-adv-x="796" 
d="M397 1735q166 0 252 -128.5t86 -336.5t-86 -336.5t-252 -128.5q-165 0 -251.5 128.5t-86.5 336.5t86.5 336.5t251.5 128.5zM399 1583q-85 0 -127.5 -83.5t-42.5 -229.5t42.5 -230t127.5 -84q81 0 124.5 84.5t43.5 229.5t-43.5 229t-124.5 84z" />
    <glyph glyph-name="i.superior" unicode="&#x2071;" horiz-adv-x="391" 
d="M197 1571q-43 0 -73 29.5t-30 70.5q0 42 30.5 72.5t72.5 30.5q40 0 70 -31t30 -72t-30 -70.5t-70 -29.5zM119 829v635h153v-635h-153z" />
    <glyph glyph-name="foursuperior" unicode="&#x2074;" horiz-adv-x="796" 
d="M475 829v236h-401v137l375 508h190v-508h92v-137h-92v-236h-164zM240 1202h235v316z" />
    <glyph glyph-name="fivesuperior" unicode="&#x2075;" horiz-adv-x="796" 
d="M139 1225l27 485h522v-147h-366l-9 -193h74q154 0 244 -76t90 -209q0 -129 -90.5 -204.5t-231.5 -75.5q-236 0 -342 184l144 88q66 -127 198 -127q69 0 111.5 37t42.5 100q0 64 -45.5 100t-128.5 36h-150z" />
    <glyph glyph-name="sixsuperior" unicode="&#x2076;" horiz-adv-x="796" 
d="M442 1735q194 0 303 -144l-124 -100q-37 48 -78 72t-97 24q-196 0 -208 -289q92 95 225 95q126 0 202 -81t76 -204q0 -128 -87.5 -215.5t-231.5 -87.5q-172 0 -262 119t-90 340q0 219 94 345t278 126zM428 1247q-123 0 -184 -92q13 -106 57 -154.5t119 -48.5
q70 0 110.5 42t40.5 110q0 63 -39 103t-104 40z" />
    <glyph glyph-name="sevensuperior" unicode="&#x2077;" horiz-adv-x="796" 
d="M307 829h-198l438 734h-449v147h631v-147z" />
    <glyph glyph-name="eightsuperior" unicode="&#x2078;" horiz-adv-x="796" 
d="M397 1735q140 0 218.5 -68.5t78.5 -169.5q0 -60 -31 -110t-90 -80q77 -32 118.5 -93t41.5 -139q0 -118 -89 -194t-247 -76q-157 0 -246.5 76t-89.5 194q0 77 42.5 138.5t119.5 93.5q-59 30 -90 80t-31 110q0 101 77.5 169.5t217.5 68.5zM401 1370q56 0 89.5 30t33.5 81
t-34 82.5t-89 31.5q-61 0 -96 -31t-35 -83q0 -51 35 -81t96 -30zM399 946q75 0 120.5 38t45.5 101t-45.5 102.5t-120.5 39.5q-76 0 -122 -39.5t-46 -102.5t46 -101t122 -38z" />
    <glyph glyph-name="ninesuperior" unicode="&#x2079;" horiz-adv-x="796" 
d="M362 805q-195 0 -303 143l125 101q38 -49 78.5 -73t97.5 -24q96 0 148.5 73.5t58.5 215.5q-91 -94 -225 -94q-126 0 -202.5 81t-76.5 204q0 129 87.5 216t232.5 87q173 0 262.5 -118.5t89.5 -340.5q0 -219 -94.5 -345t-278.5 -126zM233 1436q0 -63 39.5 -103.5
t104.5 -40.5q123 0 184 92q-13 106 -57 154.5t-119 48.5q-71 0 -111.5 -42t-40.5 -109z" />
    <glyph glyph-name="n.superior" unicode="&#x207f;" horiz-adv-x="813" 
d="M119 829v635h153v-53q78 78 189 78q109 0 178.5 -73.5t69.5 -209.5v-377h-156v373q0 66 -34.5 103.5t-94.5 37.5q-89 0 -152 -96v-418h-153z" />
    <glyph glyph-name="zeroinferior" unicode="&#x2080;" horiz-adv-x="796" 
d="M397 629q166 0 252 -128.5t86 -336.5t-86 -336.5t-252 -128.5q-165 0 -251.5 128.5t-86.5 336.5t86.5 336.5t251.5 128.5zM399 477q-85 0 -127.5 -83.5t-42.5 -229.5t42.5 -230t127.5 -84q81 0 124.5 84.5t43.5 229.5t-43.5 229t-124.5 84z" />
    <glyph glyph-name="oneinferior" unicode="&#x2081;" horiz-adv-x="796" 
d="M115 -276v147h235v565l-198 -106l-82 116l284 158h160v-733h209v-147h-608z" />
    <glyph glyph-name="twoinferior" unicode="&#x2082;" horiz-adv-x="796" 
d="M94 -276v147l303 299q5 5 24 25t24.5 26.5t20 24t20 28t13 27t10.5 32.5t3 34q0 54 -35 85t-92 31q-58 0 -101 -33t-81 -96l-133 82q59 94 137 143.5t188 49.5q123 0 203 -68.5t80 -179.5q0 -46 -12.5 -87.5t-39.5 -80.5t-50.5 -66t-63.5 -67l-217 -209h407v-147h-608z
" />
    <glyph glyph-name="threeinferior" unicode="&#x2083;" horiz-adv-x="796" 
d="M383 483q-102 0 -156 -102l-135 84q106 164 303 164q121 0 200 -64.5t79 -169.5q0 -129 -101 -198q67 -32 103.5 -90.5t36.5 -131.5q0 -127 -88.5 -201.5t-231.5 -74.5q-236 0 -342 184l144 88q35 -66 82.5 -96.5t113.5 -30.5q67 0 110.5 37.5t43.5 100.5t-43 99t-115 36
h-145v145h133q58 0 94.5 30.5t36.5 82.5q0 51 -34 79.5t-89 28.5z" />
    <glyph glyph-name="fourinferior" unicode="&#x2084;" horiz-adv-x="796" 
d="M74 -41v137l375 508h190v-508h92v-137h-92v-235h-164v235h-401zM240 96h235v316z" />
    <glyph glyph-name="fiveinferior" unicode="&#x2085;" horiz-adv-x="796" 
d="M139 119l27 485h522v-147h-366l-9 -193h74q155 0 244.5 -75.5t89.5 -208.5q0 -129 -90.5 -205t-231.5 -76q-236 0 -342 184l144 88q66 -127 198 -127q69 0 111.5 37t42.5 101q0 63 -45.5 99t-128.5 36h-150z" />
    <glyph glyph-name="sixinferior" unicode="&#x2086;" horiz-adv-x="796" 
d="M442 629q194 0 303 -144l-124 -100q-37 48 -78 72t-97 24q-196 0 -208 -288q91 94 225 94q126 0 202 -81t76 -204q0 -128 -87.5 -215.5t-231.5 -87.5q-172 0 -262 119t-90 340q0 219 94 345t278 126zM428 141q-123 0 -184 -92q13 -106 57 -154.5t119 -48.5q70 0 110.5 42
t40.5 110q0 63 -39 103t-104 40z" />
    <glyph glyph-name="seveninferior" unicode="&#x2087;" horiz-adv-x="796" 
d="M307 -276h-198l438 733h-449v147h631v-147z" />
    <glyph glyph-name="eightinferior" unicode="&#x2088;" horiz-adv-x="796" 
d="M397 629q140 0 218.5 -68.5t78.5 -169.5q0 -60 -31 -110t-90 -80q77 -32 118.5 -93t41.5 -139q0 -118 -89 -194t-247 -76q-157 0 -246.5 76t-89.5 194q0 77 42.5 138.5t119.5 93.5q-59 30 -90 80t-31 110q0 101 77.5 169.5t217.5 68.5zM401 264q56 0 89.5 30t33.5 81
t-34 82.5t-89 31.5q-61 0 -96 -31t-35 -83q0 -51 35 -81t96 -30zM399 -160q75 0 120.5 38.5t45.5 101.5t-45.5 102t-120.5 39q-76 0 -122 -39t-46 -102t46 -101.5t122 -38.5z" />
    <glyph glyph-name="nineinferior" unicode="&#x2089;" horiz-adv-x="796" 
d="M362 -301q-195 0 -303 143l125 101q38 -49 78.5 -73t97.5 -24q96 0 148.5 73.5t58.5 215.5q-91 -94 -225 -94q-126 0 -202.5 81t-76.5 204q0 129 87.5 216t232.5 87q173 0 262.5 -118.5t89.5 -340.5q0 -219 -94.5 -345t-278.5 -126zM233 330q0 -63 39.5 -103.5
t104.5 -40.5q58 0 106.5 24.5t77.5 68.5q-13 106 -56.5 154t-119.5 48q-71 0 -111.5 -42t-40.5 -109z" />
    <glyph glyph-name="Euro" unicode="&#x20ac;" 
d="M43 463v178h168q-2 25 -2 78q0 46 2 69h-168v181h184q41 254 173.5 381t347.5 127q265 0 426 -209l-170 -131q-96 141 -252 141q-118 0 -191.5 -72t-103.5 -237h540v-181h-557q-2 -23 -2 -69q0 -53 2 -78h557v-178h-538q29 -163 103 -234t190 -71q156 0 252 139l170 -129
q-155 -209 -426 -209q-213 0 -345.5 126.5t-173.5 377.5h-186z" />
    <glyph glyph-name="numero" unicode="&#x2116;" horiz-adv-x="2508" 
d="M2073 1489q151 0 248.5 -99t97.5 -243t-97.5 -243t-248.5 -99q-154 0 -251.5 99t-97.5 243t97.5 243t251.5 99zM221 0v1434h303l738 -1133v1133h235v-1434h-305l-737 1133v-1133h-234zM2073 950q79 0 131.5 56.5t52.5 140.5q0 85 -52 140.5t-132 55.5q-82 0 -134.5 -55.5
t-52.5 -140.5t53 -141t134 -56zM1774 518v148h598v-148h-598z" />
    <glyph glyph-name="trademark" unicode="&#x2122;" horiz-adv-x="1961" 
d="M61 1276v158h719v-158h-274v-723h-172v723h-273zM938 553v881h217l219 -369l219 369h217v-881h-172v635l-202 -334h-123l-203 334v-635h-172z" />
    <glyph glyph-name="arrowleft" unicode="&#x2190;" horiz-adv-x="1630" 
d="M698 117l-620 620l620 623l129 -129l-411 -404h1136v-182h-1134l409 -399z" />
    <glyph glyph-name="arrowup" unicode="&#x2191;" horiz-adv-x="1630" 
d="M721 0v1124l-399 -399l-129 129l620 621l623 -621l-129 -129l-404 401v-1126h-182z" />
    <glyph glyph-name="arrowright" unicode="&#x2192;" horiz-adv-x="1630" 
d="M78 831h1122l-397 400l129 129l620 -621l-622 -622l-129 129l405 403h-1128v182z" />
    <glyph glyph-name="arrowdown" unicode="&#x2193;" horiz-adv-x="1630" 
d="M1436 580l-623 -621l-620 621l129 129l403 -402v1127h182v-1125l400 400z" />
    <glyph glyph-name="arrowNW" unicode="&#x2196;" horiz-adv-x="1630" 
d="M293 381v879h881v-183h-574l799 -796l-129 -129l-795 796v-567h-182z" />
    <glyph glyph-name="arrowNE" unicode="&#x2197;" horiz-adv-x="1630" 
d="M422 152l-129 129l799 796h-574v183h881v-879h-182v567z" />
    <glyph glyph-name="arrowSE" unicode="&#x2198;" horiz-adv-x="1630" 
d="M422 1260l795 -797v567h182v-878h-881v182h574l-799 796z" />
    <glyph glyph-name="arrowSW" unicode="&#x2199;" horiz-adv-x="1630" 
d="M293 1030h182v-567l795 797l129 -130l-799 -796h574v-182h-881v878z" />
    <glyph glyph-name="minus" unicode="&#x2212;" 
d="M1128 426h-1030v182h1030v-182z" />
    <glyph glyph-name="radical" unicode="&#x221a;" 
d="M272 827l236 -641l444 1248h199l-516 -1434h-254l-305 827h196z" />
    <glyph glyph-name="integral" unicode="&#x222b;" horiz-adv-x="808" 
d="M512 -127q0 -168 -105.5 -276.5t-277.5 -108.5q-168 0 -274 98l131 154q55 -62 139 -62q76 0 124 52t48 137v1284q0 168 105.5 276.5t277.5 108.5q168 0 274 -98l-131 -154q-55 62 -139 62q-76 0 -124 -52t-48 -137v-1284z" />
    <glyph glyph-name="approxequal" unicode="&#x2248;" 
d="M283 571h-183v62q0 128 76 205t197 77q61 0 119 -19.5t103 -47.5t86 -56t82.5 -47.5t78.5 -19.5q106 0 106 127v41h182v-62q0 -127 -76 -204.5t-198 -77.5q-60 0 -118 20t-103 48t-86 56t-83 48t-79 20q-104 0 -104 -127v-43zM283 170h-183v61q0 127 76 205t197 78
q61 0 119 -20t103 -48t86 -56t82.5 -48t78.5 -20q106 0 106 127v43h182v-62q0 -128 -76 -205.5t-198 -77.5q-73 0 -145.5 30t-120 65.5t-103.5 65.5t-100 30q-104 0 -104 -125v-43z" />
    <glyph glyph-name="notequal" unicode="&#x2260;" 
d="M1128 207h-663l-166 -207h-201l166 207h-166v182h314l204 254h-518v182h666l166 207h198l-165 -207h165v-182h-313l-203 -254h516v-182z" />
    <glyph glyph-name="lessequal" unicode="&#x2264;" 
d="M1128 233l-1030 412v209l1030 412v-197l-823 -319l823 -320v-197zM1128 0h-1030v182h1030v-182z" />
    <glyph glyph-name="greaterequal" unicode="&#x2265;" 
d="M98 430l824 320l-824 319v197l1030 -412v-209l-1030 -412v197zM98 0v182h1030v-182h-1030z" />
    <glyph glyph-name="lozenge" unicode="&#x25ca;" 
d="M508 0l-363 717l363 717h211l362 -717l-362 -717h-211zM338 717l276 -547l275 547l-275 547z" />
    <glyph glyph-name="circledotted" unicode="&#x25cc;" horiz-adv-x="1236" 
d="M618 -20q-145 0 -268.5 72t-195.5 195.5t-72 268.5t72 269t195.5 196t268.5 72q109 0 208 -43t171 -115t115 -171t43 -208q0 -145 -72 -268.5t-196 -195.5t-269 -72zM618 1032q-140 0 -259 -69t-188 -188t-69 -259t69 -259t188 -188t259 -69t259 69t188.5 188t69.5 259
t-69.5 259t-188.5 188t-259 69z" />
    <glyph glyph-name="zerowidthnobreakspace" unicode="&#xfeff;" horiz-adv-x="0" 
 />
    <glyph glyph-name="Ccedilla.1" horiz-adv-x="1536" 
d="M854 180q131 0 238.5 58.5t177.5 158.5l188 -145q-95 -125 -235 -202t-310 -89l-73 -84q89 0 152 -52t63 -130q0 -89 -69 -148t-175 -59q-140 0 -219 70l78 110q56 -53 131 -53q41 0 66.5 21t25.5 57t-26.5 56t-71.5 20t-82 -21l-72 86l104 131q-143 19 -264.5 86
t-205 167.5t-130.5 229.5t-47 269q0 153 55.5 291.5t153 241.5t240 164t307.5 61q190 0 345.5 -78.5t258.5 -214.5l-188 -146q-70 100 -177.5 158.5t-238.5 58.5q-147 0 -265 -71.5t-183.5 -194t-65.5 -270.5q0 -228 146 -382.5t368 -154.5z" />
    <glyph glyph-name="Q.1" horiz-adv-x="1708" 
d="M1454 -252l-276 279q-152 -68 -324 -68q-165 0 -307.5 61t-240 164t-153 241.5t-55.5 291.5t55.5 291.5t153 241.5t240 164t307.5 61q164 0 306.5 -61t240.5 -164t153.5 -241.5t55.5 -291.5q0 -161 -61.5 -305.5t-172.5 -249.5l422 -414h-344zM854 180q146 0 264 71.5
t183 194.5t65 271q0 228 -145 382t-367 154q-147 0 -265 -71.5t-183.5 -194t-65.5 -270.5q0 -228 146 -382.5t368 -154.5z" />
    <glyph glyph-name="Q.2" horiz-adv-x="1708" 
d="M1667 -68q305 -235 588 -235q132 0 239 39v-207q-90 -41 -247 -41q-381 0 -742 283l-327 256q-152 -68 -324 -68q-165 0 -307.5 61t-240 164t-153 241.5t-55.5 291.5t55.5 291.5t153 241.5t240 164t307.5 61q164 0 306.5 -61t240.5 -164t153.5 -241.5t55.5 -291.5
q0 -163 -62.5 -308.5t-175.5 -252.5zM854 180q146 0 264 71.5t183 194.5t65 271q0 228 -145 382t-367 154q-147 0 -265 -71.5t-183.5 -194t-65.5 -270.5q0 -228 146 -382.5t368 -154.5z" />
    <glyph glyph-name="Scedilla.1" horiz-adv-x="1204" 
d="M102 199l172 157q147 -186 334 -186q105 0 164 54.5t59 146.5q0 60 -37 107t-95.5 79.5t-129.5 64t-142.5 69.5t-130 86t-95.5 124.5t-37 173.5q0 167 125 283.5t317 116.5q284 0 475 -238l-174 -156q-133 185 -299 185q-93 0 -149 -51.5t-56 -133.5q0 -59 37 -105.5
t96 -79t130 -63.5t142 -69.5t130 -86.5t96 -125t37 -175q-3 -158 -95.5 -265.5t-242.5 -140.5l-184 -299h-213l180 293q-242 28 -414 234z" />
    <glyph glyph-name="germandbls.cap" horiz-adv-x="2381" 
d="M1280 199l172 157q147 -186 334 -186q105 0 164 54.5t59 146.5q0 60 -37 107t-96 79.5t-130 64t-142 69.5t-130 86t-96 124.5t-37 173.5q0 167 125.5 283.5t317.5 116.5q284 0 475 -238l-174 -156q-133 185 -299 185q-93 0 -149 -51.5t-56 -133.5q0 -59 37 -105.5t96 -79
t130 -63.5t142 -69.5t130 -86.5t96 -125t37 -175q-3 -189 -133 -303.5t-326 -114.5q-164 0 -288 60.5t-222 179.5zM102 199l172 157q147 -186 334 -186q105 0 164 54.5t59 146.5q0 60 -37 107t-95.5 79.5t-129.5 64t-142.5 69.5t-130 86t-95.5 124.5t-37 173.5
q0 167 125 283.5t317 116.5q284 0 475 -238l-174 -156q-133 185 -299 185q-93 0 -149 -51.5t-56 -133.5q0 -59 37 -105.5t96 -79t130 -63.5t142 -69.5t130 -86.5t96 -125t37 -175q-3 -189 -133 -303.5t-326 -114.5q-164 0 -288 60.5t-222 179.5z" />
    <glyph glyph-name="Tcedilla.1" horiz-adv-x="1294" 
d="M68 1219v215h1157v-215h-461v-1219h-25l-200 -328h-213l202 328v1219h-460z" />
    <glyph glyph-name="ccedilla.1" horiz-adv-x="1138" 
d="M655 158q85 0 154.5 37t114.5 100l166 -127q-136 -183 -375 -207l-72 -82q89 0 152 -52t63 -130q0 -89 -69 -148t-175 -59q-140 0 -219 70l78 110q56 -53 131 -53q41 0 66.5 21t25.5 57t-26.5 56t-71.5 20q-44 0 -82 -21l-72 86l105 131q-209 33 -334 187.5t-125 361.5
q0 151 67.5 277t197.5 203t298 77q138 0 251.5 -55.5t185.5 -153.5l-166 -127q-45 63 -115 100t-156 37q-148 0 -245 -102.5t-97 -255.5q0 -154 97 -256t247 -102z" />
    <glyph glyph-name="i.trk" horiz-adv-x="555" 
d="M279 1262q-59 0 -101.5 42.5t-42.5 100.5t42.5 100.5t101.5 42.5t101 -42t42 -101t-42 -101t-101 -42zM172 0v1032h211v-1032h-211z" />
    <glyph glyph-name="scedilla.1" horiz-adv-x="919" 
d="M70 145l145 127q111 -141 252 -141q73 0 114.5 39t41.5 100q0 42 -28 73.5t-72.5 53t-98.5 42t-108 46.5t-98.5 60.5t-72.5 91.5t-28 131q0 129 98.5 217t251.5 88q110 0 205 -47.5t153 -124.5l-143 -125q-93 125 -213 125q-71 0 -109 -36t-38 -91q0 -42 28 -73.5
t72.5 -53t98 -42t107.5 -46.5t98.5 -59.5t72.5 -89t28 -127.5q-1 -120 -71.5 -202.5t-182.5 -109.5l-184 -299h-213l184 297q-168 32 -290 176z" />
    <glyph glyph-name="tcedilla.1" horiz-adv-x="868" 
d="M233 358v484h-194v190h194v258h213v-258h342v-190h-342v-484q0 -99 48.5 -141.5t140.5 -42.5t153 23v-187q-48 -20 -112 -26l-191 -312h-213l201 322q-240 62 -240 364z" />
    <glyph glyph-name="y.1" horiz-adv-x="1134" 
d="M20 1032h234l317 -756l314 756h229l-641 -1536h-225l209 504z" />
    <glyph glyph-name="yacute.1" horiz-adv-x="1134" 
d="M676 1196h-205l213 340h234zM20 1032h234l317 -756l314 756h229l-641 -1536h-225l209 504z" />
    <glyph glyph-name="ygrave.1" horiz-adv-x="1134" 
d="M457 1196l-242 340h234l213 -340h-205zM20 1032h234l317 -756l314 756h229l-641 -1536h-225l209 504z" />
    <glyph glyph-name="ycircumflex.1" horiz-adv-x="1134" 
d="M403 1196h-188l213 340h279l213 -340h-189l-164 244zM20 1032h234l317 -756l314 756h229l-641 -1536h-225l209 504z" />
    <glyph glyph-name="ydieresis.1" horiz-adv-x="1134" 
d="M356 1280q-56 0 -95.5 40t-39.5 95q0 54 40 93.5t95 39.5q54 0 93.5 -39.5t39.5 -93.5q0 -55 -39.5 -95t-93.5 -40zM780 1280q-56 0 -95.5 40t-39.5 95q0 54 40 93.5t95 39.5q54 0 93.5 -39.5t39.5 -93.5q0 -55 -39.5 -95t-93.5 -40zM20 1032h234l317 -756l314 756h229
l-641 -1536h-225l209 504z" />
    <glyph glyph-name="ytilde.1" horiz-adv-x="1134" 
d="M938 1518v-91q0 -104 -53.5 -166t-149.5 -61q-53 0 -95.5 18t-70.5 43.5t-51.5 51t-50 43.5t-55.5 18q-28 0 -44 -15.5t-16 -43.5v-101h-157v93q0 103 52.5 164.5t147.5 60.5q54 0 97.5 -18t71.5 -43.5t52.5 -51t51 -43.5t55.5 -18q27 0 42 16.5t15 44.5v99h158zM20 1032
h234l317 -756l314 756h229l-641 -1536h-225l209 504z" />
    <glyph glyph-name="ymacron.1" horiz-adv-x="1134" 
d="M231 1315v160h672v-160h-672zM20 1032h234l317 -756l314 756h229l-641 -1536h-225l209 504z" />
    <glyph glyph-name="ydotbelow.1" horiz-adv-x="1134" 
d="M20 1032h234l317 -756l314 756h229l-641 -1536h-225l209 504zM860 -524q-58 0 -100.5 42t-42.5 101q0 60 42 101.5t101 41.5t101.5 -41.5t42.5 -101.5q0 -58 -42.5 -100.5t-101.5 -42.5z" />
    <glyph glyph-name="yhoi.1" horiz-adv-x="1134" 
d="M530 1145l-30 135q90 14 132 40.5t42 72.5q0 32 -28 52.5t-77 20.5q-80 0 -157 -63l-86 110q108 93 258 93q110 0 177.5 -57.5t67.5 -151.5q0 -105 -78.5 -168t-220.5 -84zM20 1032h234l317 -756l314 756h229l-641 -1536h-225l209 504z" />
    <glyph glyph-name="caroncmb.slovak" horiz-adv-x="0" 
d="M86 1155h-180l172 381h223z" />
    <glyph glyph-name="cedillacmb.1" horiz-adv-x="0" 
d="M-57 39h211l-226 -367h-213z" />
    <glyph glyph-name="commaturnedabove" horiz-adv-x="1230" 
d="M635 1536h203l-211 -340h-236z" />
    <glyph glyph-name="commaaccentbelow" horiz-adv-x="1230" 
d="M596 -504h-205l213 340h234z" />
    <glyph glyph-name="dotbelow" horiz-adv-x="1230" 
d="M616 -516q-58 0 -100.5 42t-42.5 101q0 60 42 102t101 42t101.5 -42t42.5 -102q0 -58 -42.5 -100.5t-101.5 -42.5z" />
    <glyph glyph-name="belowbreve" 
d="M614 -356q88 0 132.5 49.5t44.5 142.5h176q0 -165 -93 -252.5t-260 -87.5q-164 0 -258 88.5t-94 251.5h176q0 -93 45 -142.5t131 -49.5z" />
    <glyph glyph-name="macronbelow" 
d="M279 -469v158h671v-158h-671z" />
    <glyph glyph-name="gravecmb.case" horiz-adv-x="0" 
d="M-102 1556l-265 277h250l232 -277h-217z" />
    <glyph glyph-name="acutecmb.case" horiz-adv-x="0" 
d="M109 1556h-218l232 277h250z" />
    <glyph glyph-name="hungarumlautcmb.case" horiz-adv-x="0" 
d="M-109 1556h-217l232 277h250zM322 1556h-218l232 277h250z" />
    <glyph glyph-name="circumflexcmb.case" horiz-adv-x="0" 
d="M-168 1556h-188l231 277h252l229 -277h-188l-168 177z" />
    <glyph glyph-name="caroncmb.case" horiz-adv-x="0" 
d="M168 1833h188l-229 -277h-252l-231 277h188l168 -176z" />
    <glyph glyph-name="brevecmb.case" horiz-adv-x="0" 
d="M0 1683q87 0 133 38.5t51 111.5h176q0 -142 -98 -219.5t-262 -77.5t-262 77.5t-98 219.5h176q5 -73 51 -111.5t133 -38.5z" />
    <glyph glyph-name="ringabovecmb.case" horiz-adv-x="0" 
d="M-258 1743q0 111 73.5 170t184.5 59q113 0 186.5 -58.5t73.5 -170.5q0 -110 -74 -170t-186 -60q-111 0 -184.5 60t-73.5 170zM129 1743q0 54 -35.5 83t-93.5 29t-93.5 -29t-35.5 -83q0 -53 36 -82t93 -29q56 0 92.5 29.5t36.5 81.5z" />
    <glyph glyph-name="tildecmb.case" horiz-adv-x="0" 
d="M-358 1565v71q0 95 55 152t145 57q48 0 97.5 -23.5t82.5 -51t69 -51t61 -23.5q49 0 49 61v68h155l2 -72q0 -97 -55.5 -153t-144.5 -56q-49 0 -98.5 23.5t-82.5 51.5t-68.5 51.5t-60.5 23.5q-49 0 -49 -64l-2 -65h-155z" />
    <glyph glyph-name="dotaccentcmb.case" horiz-adv-x="0" 
d="M0 1569q-53 0 -90 36.5t-37 88.5q0 51 37 87t90 36q51 0 88 -36t37 -87q0 -52 -37 -88.5t-88 -36.5z" />
    <glyph glyph-name="dieresiscmb.case" horiz-adv-x="0" 
d="M-209 1569q-53 0 -90 36.5t-37 88.5q0 51 37 87t90 36q50 0 87.5 -36.5t37.5 -86.5q0 -52 -37.5 -88.5t-87.5 -36.5zM209 1569q-51 0 -88 36.5t-37 88.5q0 51 37 87t88 36q53 0 90 -36t37 -87q0 -52 -37 -88.5t-90 -36.5z" />
    <glyph glyph-name="macroncmb.case" horiz-adv-x="0" 
d="M-336 1612v157h672v-157h-672z" />
    <glyph glyph-name="hookabovecmb.case" horiz-adv-x="0" 
d="M-27 1499l-30 135q80 12 118.5 36t38.5 63q0 30 -25 49.5t-69 19.5q-80 0 -153 -59l-86 110q106 89 249 89q107 0 174.5 -56t67.5 -147q0 -98 -75 -158.5t-210 -81.5z" />
    <glyph glyph-name="horncmb.case" horiz-adv-x="0" 
d="M-94 1303h-86l-68 131h154q71 0 107 36t36 91q0 70 -67 125l122 102q50 -40 80.5 -101.5t30.5 -125.5q0 -123 -90.5 -190.5t-218.5 -67.5z" />
    <glyph glyph-name="halfleftringabovecmb.case" horiz-adv-x="0" 
d="M129 1978v-118q-57 0 -92 -29.5t-35 -83.5q0 -55 35 -85t92 -30v-119q-111 0 -185.5 61t-74.5 173q0 111 74.5 171t185.5 60z" />
    <glyph glyph-name="halfrightringabovecmb.case" horiz-adv-x="0" 
d="M-131 1978q111 0 185.5 -60t74.5 -171q0 -112 -74.5 -173t-185.5 -61v119q59 0 94 29.5t35 85.5q0 54 -35 83.5t-94 29.5v118z" />
    <glyph glyph-name="gravecmb.tiny" horiz-adv-x="0" 
d="M-49 1556l-264 277h239l232 -277h-207z" />
    <glyph glyph-name="acutecmb.tiny" horiz-adv-x="0" 
d="M53 1556h-205l232 277h235z" />
    <glyph glyph-name="hookabovecmb.tiny" horiz-adv-x="0" 
d="M-33 1511l-28 117q70 11 104.5 28.5t34.5 47.5q0 23 -19.5 38t-58.5 15q-80 0 -150 -55l-75 96q94 80 229 80q98 0 153.5 -46.5t55.5 -121.5q0 -159 -246 -199z" />
    <glyph glyph-name="exclamdown.case" horiz-adv-x="647" 
d="M324 1458q62 0 106.5 -45t44.5 -108q0 -61 -44.5 -105.5t-106.5 -44.5q-63 0 -107.5 44t-44.5 106q0 63 44.5 108t107.5 45zM403 997l41 -997h-241l41 997h159z" />
    <glyph glyph-name="questiondown.case" horiz-adv-x="1050" 
d="M606 1466q63 0 108.5 -45t45.5 -108q0 -61 -45.5 -105.5t-108.5 -44.5q-62 0 -106.5 44.5t-44.5 105.5q0 63 44.5 108t106.5 45zM688 1006l27 -322q-212 -24 -318 -92.5t-106 -202.5q0 -96 65 -159.5t164 -63.5q87 0 151 41.5t128 132.5l184 -113q-176 -260 -471 -260
q-122 0 -224.5 52.5t-164.5 150t-62 219.5q0 180 124 296t331 151l14 170h158z" />
    <glyph glyph-name="hyphen.case" horiz-adv-x="634" 
d="M41 819h553v-205h-553v205z" />
    <glyph glyph-name="guilsinglleft.case" horiz-adv-x="681" 
d="M588 307h-230l-266 410l266 409h230l-264 -409z" />
    <glyph glyph-name="guilsinglright.case" horiz-adv-x="681" 
d="M94 1126h228l266 -409l-266 -410h-228l264 410z" />
    <glyph glyph-name="guillemetleft.case" horiz-adv-x="1116" 
d="M588 307h-230l-266 410l266 409h230l-264 -409zM1022 307h-229l-267 410l267 409h229l-264 -409z" />
    <glyph glyph-name="guillemetright.case" horiz-adv-x="1116" 
d="M94 1126h228l266 -409l-266 -410h-228l264 410zM528 1126h228l266 -409l-266 -410h-228l265 410z" />
    <glyph glyph-name="parenleft.case" horiz-adv-x="696" 
d="M305 719q0 -509 342 -848l-153 -127q-191 176 -295.5 424.5t-104.5 550.5q0 299 108 547.5t292 423.5l153 -127q-342 -339 -342 -844z" />
    <glyph glyph-name="parenright.case" horiz-adv-x="696" 
d="M389 715q0 512 -342 848l154 127q188 -174 293.5 -423t105.5 -552q0 -301 -106 -549.5t-293 -421.5l-154 127q342 336 342 844z" />
    <glyph glyph-name="braceleft.case" horiz-adv-x="649" 
d="M340 74q0 -65 38.5 -104.5t102.5 -39.5h135v-182h-137q-158 0 -248 89t-90 237q0 64 27.5 147t54.5 158.5t27 120.5q0 127 -113 127h-110v184h110q113 0 113 127q0 45 -27 120t-54.5 157.5t-27.5 146.5q0 149 90 237.5t248 88.5h137v-183h-135q-64 0 -102.5 -39
t-38.5 -104q0 -49 28 -124t56.5 -156t28.5 -144q0 -146 -115 -219q115 -73 115 -219q0 -63 -28.5 -144.5t-56.5 -157t-28 -124.5z" />
    </font>
</defs>
</svg>
