<?xml version="1.0" standalone="no"?>
<!DOCTYPE svg PUBLIC "-//W3C//DTD SVG 1.1//EN" "http://www.w3.org/Graphics/SVG/1.1/DTD/svg11.dtd" >
<svg xmlns="http://www.w3.org/2000/svg" xmlns:xlink="http://www.w3.org/1999/xlink" version="1.1">
<metadata>
Created by FontForge 20170731 at Wed Jun  1 11:19:30 2022
 By Aleksey,,,
Service d'Information du Gouvernement
</metadata>
<defs>
<font id="Marianne-ThinItalic" horiz-adv-x="1228" >
  <font-face 
    font-family="Marianne Thin"
    font-weight="250"
    font-style="italic"
    font-stretch="normal"
    units-per-em="2048"
    panose-1="2 0 0 0 0 0 0 0 0 0"
    ascent="1536"
    descent="-512"
    x-height="1032"
    cap-height="1434"
    bbox="-479.061 -512 2439 2316"
    underline-thickness="63"
    underline-position="-320"
    slope="-10"
    unicode-range="U+0020-FEFF"
  />
<missing-glyph horiz-adv-x="1191" 
d="M-176 -504l358 2040h1190l-358 -2040h-1190zM410 305h213l34 115q173 30 292.5 133.5t146.5 261.5q32 181 -74 289t-279 108q-296 0 -505 -278l221 -158q65 81 113 116.5t108 35.5q50 0 79.5 -31.5t22.5 -81.5q-7 -35 -22 -62t-41 -45.5t-52.5 -30.5t-69 -20.5
t-76.5 -12.5t-89 -9zM432 -176q78 0 146 59t81 140q14 80 -32.5 138t-124.5 58q-79 0 -146.5 -58t-81.5 -138q-15 -82 31.5 -140.5t126.5 -58.5z" />
    <glyph glyph-name=".notdef" horiz-adv-x="1191" 
d="M-176 -504l358 2040h1190l-358 -2040h-1190zM410 305h213l34 115q173 30 292.5 133.5t146.5 261.5q32 181 -74 289t-279 108q-296 0 -505 -278l221 -158q65 81 113 116.5t108 35.5q50 0 79.5 -31.5t22.5 -81.5q-7 -35 -22 -62t-41 -45.5t-52.5 -30.5t-69 -20.5
t-76.5 -12.5t-89 -9zM432 -176q78 0 146 59t81 140q14 80 -32.5 138t-124.5 58q-79 0 -146.5 -58t-81.5 -138q-15 -82 31.5 -140.5t126.5 -58.5z" />
    <glyph glyph-name=".null" horiz-adv-x="0" 
 />
    <glyph glyph-name="nonmarkingreturn" horiz-adv-x="682" 
 />
    <glyph glyph-name="space" unicode=" " horiz-adv-x="552" 
 />
    <glyph glyph-name="exclam" unicode="!" horiz-adv-x="538" 
d="M213 362l182 1072h74l-197 -1072h-59zM188 -20q-32 0 -51.5 19t-19.5 50t19.5 50.5t51.5 19.5t52 -19.5t20 -50.5t-20 -50t-52 -19z" />
    <glyph glyph-name="quotedbl" unicode="&#x22;" horiz-adv-x="874" 
d="M379 934h-55l75 500h80zM700 934h-55l76 500h80z" />
    <glyph glyph-name="numbersign" unicode="#" horiz-adv-x="1232" 
d="M33 467h207l221 500h-340l10 63h358l179 404h71l-178 -404h463l178 404h70l-178 -404h190l-10 -63h-209l-219 -500h340l-12 -64h-357l-178 -403h-72l178 403h-462l-179 -403h-71l178 403h-191zM311 467h463l221 500h-463z" />
    <glyph glyph-name="dollar" unicode="$" 
d="M104 231l60 41q116 -179 325 -204l115 655q-62 36 -101.5 64.5t-82 72.5t-63.5 100t-21 125q0 148 110.5 248.5t284.5 100.5l25 143h69l-26 -145q119 -13 202 -73t125 -145l-59 -34q-37 76 -108 126t-171 60l-108 -610q59 -34 91 -54t79 -58t71.5 -73t43 -87.5
t18.5 -112.5q0 -162 -115.5 -266.5t-320.5 -104.5l-25 -143h-69l26 147q-246 24 -375 227zM408 1085q0 -99 54 -164.5t156 -127.5l101 575q-145 -7 -228 -87t-83 -196zM911 371q0 57 -18.5 104.5t-56.5 86t-74 64.5t-94 60l-109 -620q172 3 262 85.5t90 219.5z" />
    <glyph glyph-name="percent" unicode="%" horiz-adv-x="1683" 
d="M565 1475q137 0 217 -86t80 -215q0 -101 -47.5 -189.5t-134.5 -142.5t-193 -54q-137 0 -217 87.5t-80 216.5q0 155 107.5 269t267.5 114zM195 0l1265 1434h84l-1268 -1434h-81zM489 848q131 0 219.5 97t88.5 229q0 102 -64.5 171.5t-169.5 69.5q-131 0 -219 -96t-88 -229
q0 -103 63.5 -172.5t169.5 -69.5zM1270 643q137 0 217 -86t80 -215q0 -101 -47.5 -189t-134.5 -142t-193 -54q-137 0 -217 87t-80 216q0 155 107.5 269t267.5 114zM1194 16q131 0 219 97t88 229q0 103 -64 172.5t-169 69.5q-131 0 -219 -96.5t-88 -229.5q0 -103 63.5 -172.5
t169.5 -69.5z" />
    <glyph glyph-name="ampersand" unicode="&#x26;" horiz-adv-x="1490" 
d="M1300 0h-88l-165 199q-205 -238 -484 -238q-191 0 -310.5 105t-119.5 272q0 164 101 275.5t313 183.5q-81 102 -118.5 177.5t-37.5 160.5q0 143 100 241.5t252 98.5q146 0 235 -87t89 -221q0 -138 -116.5 -243t-293.5 -154q16 -16 19 -20l371 -445q122 166 239 463h76
q-133 -332 -272 -516zM465 1135q0 -77 35 -144.5t118 -171.5q171 45 274 137.5t103 210.5q0 103 -67 171.5t-185 68.5q-127 0 -202.5 -76.5t-75.5 -195.5zM207 338q0 -137 101.5 -225t254.5 -88q251 0 441 225l-396 473q-3 4 -10 12.5t-10 12.5q-381 -128 -381 -410z" />
    <glyph glyph-name="quotesingle" unicode="'" horiz-adv-x="555" 
d="M379 934h-55l75 500h80z" />
    <glyph glyph-name="parenleft" unicode="(" horiz-adv-x="538" 
d="M680 1491q-287 -234 -425 -516.5t-138 -591.5q0 -242 63 -420t187 -336l-60 -37q-124 153 -194 342.5t-70 448.5q0 684 590 1155z" />
    <glyph glyph-name="parenright" unicode=")" horiz-adv-x="538" 
d="M-127 -365q287 234 425 516.5t138 591.5q0 242 -63 420t-187 336l60 37q124 -153 194 -342.5t70 -448.5q0 -681 -590 -1155z" />
    <glyph glyph-name="asterisk" unicode="*" horiz-adv-x="757" 
d="M664 807l-62 -37l-127 266l-223 -266l-51 41l235 254l-278 94l24 58l279 -109l47 326h70l-68 -324l313 109l8 -64l-319 -92z" />
    <glyph glyph-name="plus" unicode="+" 
d="M1110 485h-469l-86 -485h-63l86 485h-469l12 64h467l86 483h63l-86 -483h471z" />
    <glyph glyph-name="comma" unicode="," horiz-adv-x="552" 
d="M76 -328h-66l234 455h86z" />
    <glyph glyph-name="hyphen" unicode="-" horiz-adv-x="616" 
d="M47 557h537l-11 -63h-536z" />
    <glyph glyph-name="period" unicode="." horiz-adv-x="552" 
d="M197 -20q-32 0 -52 19t-20 50t20 50.5t52 19.5t51.5 -19.5t19.5 -50.5t-19.5 -50t-51.5 -19z" />
    <glyph glyph-name="slash" unicode="/" horiz-adv-x="659" 
d="M-125 -403l858 1939h70l-858 -1939h-70z" />
    <glyph glyph-name="zero" unicode="0" 
d="M750 1475q138 0 233.5 -75t140.5 -203.5t45 -301.5q0 -146 -26.5 -284t-79.5 -256t-127 -206.5t-174 -139t-215 -50.5q-138 0 -234 75t-141 203.5t-45 301.5q0 184 43 352t120.5 298.5t197 208t262.5 77.5zM547 27q126 0 231.5 73t174.5 195t107 278t38 324
q0 231 -88 370.5t-260 139.5q-126 0 -231.5 -73t-174.5 -195t-107 -278t-38 -324q0 -231 88 -370.5t260 -139.5z" />
    <glyph glyph-name="one" unicode="1" horiz-adv-x="917" 
d="M436 0l240 1360l-504 -250l-35 57l539 267h80l-252 -1434h-68z" />
    <glyph glyph-name="two" unicode="2" 
d="M88 0l12 63l586 521q160 141 237 223.5t113.5 157t36.5 161.5q0 125 -86 204t-215 79q-112 0 -203.5 -49t-177.5 -172l-57 39q171 248 438 248q160 0 266.5 -100t106.5 -247q0 -60 -16 -114t-43 -102.5t-81.5 -109.5t-113 -117t-156.5 -144l-538 -478h794l-12 -63h-891z
" />
    <glyph glyph-name="three" unicode="3" 
d="M1116 1128q0 -127 -80.5 -229.5t-236.5 -140.5q262 -90 262 -363q0 -88 -32 -166.5t-91.5 -139t-152.5 -95.5t-207 -35q-331 0 -484 250l64 37q141 -221 417 -221q193 0 303.5 106t110.5 260q0 151 -96.5 246.5t-296.5 95.5h-162l12 64h207q184 0 287.5 92.5t103.5 236.5
q0 124 -81.5 203.5t-200.5 79.5q-115 0 -203 -48.5t-174 -172.5l-57 39q85 124 189 186t245 62q150 0 252 -100t102 -247z" />
    <glyph glyph-name="four" unicode="4" 
d="M96 455l10 63l883 916h103l-162 -916h184l-10 -63h-184l-80 -455h-68l80 455h-756zM195 518h667l150 846z" />
    <glyph glyph-name="five" unicode="5" 
d="M295 737l164 697h686l-10 -64h-621l-133 -569h211q123 0 215.5 -33t145.5 -91t78.5 -128.5t25.5 -153.5q0 -88 -32 -166.5t-92 -139t-153 -95.5t-207 -35q-330 0 -483 250l64 37q141 -221 417 -221q193 0 303.5 106t110.5 260q0 153 -96.5 249.5t-296.5 96.5h-297z" />
    <glyph glyph-name="six" unicode="6" 
d="M784 1475q141 0 250 -63.5t162 -172.5l-63 -37q-43 97 -140 152t-209 55q-99 0 -186 -42t-151 -114.5t-112.5 -170t-77 -207t-38.5 -226.5q79 98 190 156.5t246 58.5q185 0 297.5 -108t112.5 -297q0 -220 -136 -360t-351 -140q-90 0 -168 34.5t-138.5 102.5t-95.5 179
t-35 253q0 114 18 227t52 219t89 196.5t124 159t162 107t198 38.5zM213 528q0 -128 30 -226.5t81.5 -157.5t116 -89t137.5 -30q188 0 301.5 124.5t113.5 307.5q0 159 -94 250.5t-242 91.5q-260 0 -444 -250v-21z" />
    <glyph glyph-name="seven" unicode="7" 
d="M231 0h-84l1020 1370h-843l10 64h923l-10 -64z" />
    <glyph glyph-name="eight" unicode="8" 
d="M309 1094q0 66 28.5 133t80.5 122.5t134 90.5t179 35q181 0 289 -93t108 -241q0 -121 -79 -224t-226 -135q125 -44 190.5 -138t65.5 -222q0 -83 -30.5 -163t-89.5 -148t-158 -110t-223 -42q-227 0 -349.5 111t-122.5 295q0 71 24 141t71 132t124.5 107.5t174.5 61.5
q-94 38 -142.5 112.5t-48.5 174.5zM383 1094q0 -126 83 -199.5t241 -73.5q87 0 156 27.5t110.5 73.5t62.5 102t21 117q0 119 -89.5 193.5t-236.5 74.5q-156 0 -252 -95t-96 -220zM1008 422q0 157 -102.5 248.5t-297.5 91.5q-107 0 -191.5 -34t-135.5 -91t-77 -126.5
t-26 -145.5q0 -157 102.5 -248.5t297.5 -91.5q107 0 191.5 34t135.5 91t77 126.5t26 145.5z" />
    <glyph glyph-name="nine" unicode="9" 
d="M504 -41q-141 0 -250 63.5t-162 172.5l64 36q43 -97 139 -151.5t209 -54.5q100 0 187 42t150.5 114t112.5 169.5t77 206.5t38 227q-79 -98 -190 -156.5t-246 -58.5q-185 0 -297.5 108.5t-112.5 297.5q0 220 136.5 360t351.5 140q90 0 168 -35t138.5 -103t95 -179
t34.5 -253q0 -138 -24.5 -271.5t-77 -256t-127 -215.5t-181.5 -148t-233 -55zM295 977q0 -159 93 -250.5t243 -91.5q260 0 444 250v20q0 128 -29.5 226.5t-80.5 158t-115.5 89.5t-138.5 30q-189 0 -302.5 -124.5t-113.5 -307.5z" />
    <glyph glyph-name="colon" unicode=":" horiz-adv-x="552" 
d="M360 913q-32 0 -51.5 19.5t-19.5 50.5t19.5 50.5t51.5 19.5t52 -19.5t20 -50.5t-20 -50.5t-52 -19.5zM197 -20q-32 0 -52 19t-20 50t20 50.5t52 19.5t51.5 -19.5t19.5 -50.5t-19.5 -50t-51.5 -19z" />
    <glyph glyph-name="semicolon" unicode=";" horiz-adv-x="552" 
d="M360 913q-32 0 -51.5 19.5t-19.5 50.5t19.5 50.5t51.5 19.5t52 -19.5t20 -50.5t-20 -50.5t-52 -19.5zM76 -328h-66l234 455h86z" />
    <glyph glyph-name="less" unicode="&#x3c;" 
d="M1036 66l-12 -66l-915 479l12 74l1085 479l-12 -74l-1012 -446z" />
    <glyph glyph-name="equal" unicode="=" 
d="M1151 711h-1001l10 63h1001zM1071 260h-1001l10 64h1001z" />
    <glyph glyph-name="greater" unicode="&#x3e;" 
d="M37 74l1010 446l-854 447l12 65l917 -479l-12 -74l-1085 -479z" />
    <glyph glyph-name="question" unicode="?" horiz-adv-x="991" 
d="M344 362l39 316q270 19 419.5 123t149.5 295q0 134 -88.5 226.5t-242.5 92.5q-205 0 -340 -172l-56 39q77 98 179 145.5t214 47.5q186 0 296 -109.5t110 -269.5q0 -199 -150.5 -320t-416.5 -149l-54 -265h-59zM322 -20q-32 0 -52 19t-20 50t20 50.5t52 19.5t51.5 -19.5
t19.5 -50.5t-19.5 -50t-51.5 -19z" />
    <glyph glyph-name="at" unicode="@" horiz-adv-x="1681" 
d="M502 463q0 170 105.5 285.5t266.5 115.5q88 0 157.5 -39t105.5 -110l22 125h70l-84 -480q-11 -63 18 -101t94 -38q108 0 184.5 121t76.5 305q0 156 -81.5 286t-223.5 204.5t-312 74.5q-151 0 -286.5 -60.5t-231 -162t-151.5 -239t-56 -285.5q0 -142 54.5 -265.5
t144 -206.5t205.5 -130t239 -47q183 0 317 55.5t244 177.5l41 -49q-122 -128 -265.5 -186t-336.5 -58q-145 0 -275.5 52t-227 143.5t-153.5 224.5t-57 287q0 219 105 405t288 295t402 109q144 0 271.5 -48.5t218.5 -131.5t143.5 -198.5t52.5 -244.5q0 -213 -99 -351
t-231 -138q-74 0 -121.5 37t-54.5 102q-51 -68 -123 -103.5t-147 -35.5q-139 0 -224 87.5t-85 215.5zM573 463q0 -104 64 -173t176 -69q74 0 143 35.5t119 103.5l49 281q-35 75 -99 118.5t-148 43.5q-132 0 -218 -96t-86 -244z" />
    <glyph glyph-name="A" unicode="A" horiz-adv-x="1445" 
d="M-8 0l844 1434h100l338 -1434h-70l-112 481h-740l-282 -481h-78zM391 547h686l-194 837z" />
    <glyph glyph-name="B" unicode="B" horiz-adv-x="1103" 
d="M150 0l253 1434h207q184 0 282.5 -84.5t98.5 -231.5q0 -127 -75 -222.5t-207 -131.5q124 -34 186.5 -123t62.5 -205q0 -196 -143 -316t-373 -120h-292zM610 1368h-149l-101 -571h193q164 0 264.5 90.5t100.5 230.5q0 120 -80.5 185t-227.5 65zM565 731h-217l-117 -665
h213q199 0 319 101t120 267q0 132 -83.5 214.5t-234.5 82.5z" />
    <glyph glyph-name="C" unicode="C" horiz-adv-x="1546" 
d="M956 1475q181 0 331.5 -85t223.5 -221l-61 -39q-63 125 -199.5 202t-294.5 77q-157 0 -296 -64.5t-235.5 -172t-152 -251t-55.5 -298.5q0 -162 72 -298t205 -218t299 -82q178 0 310.5 64t244.5 194l51 -50q-118 -137 -265.5 -205.5t-338.5 -68.5q-190 0 -340.5 91
t-231 242.5t-80.5 332.5q0 168 60 322.5t164.5 271t258.5 186.5t330 70z" />
    <glyph glyph-name="D" unicode="D" horiz-adv-x="1603" 
d="M150 0l253 1434h449q156 0 283.5 -46t214 -129t133.5 -199t47 -255q0 -125 -37 -243.5t-111.5 -220t-177 -178t-242 -120t-298.5 -43.5h-514zM852 1368h-391l-230 -1302h433q180 0 331.5 61.5t251 164.5t154.5 235t55 276q0 253 -164 409t-440 156z" />
    <glyph glyph-name="E" unicode="E" horiz-adv-x="1069" 
d="M150 0l253 1434h668l-10 -66h-600l-107 -606h520l-12 -64h-520l-111 -632h598l-10 -66h-669z" />
    <glyph glyph-name="F" unicode="F" horiz-adv-x="989" 
d="M150 0l253 1434h668l-10 -66h-600l-107 -606h520l-12 -64h-520l-123 -698h-69z" />
    <glyph glyph-name="G" unicode="G" horiz-adv-x="1642" 
d="M795 -41q-190 0 -340.5 91t-231 242.5t-80.5 332.5q0 168 60.5 322.5t167 271t262.5 186.5t336 70q195 0 341.5 -82t221.5 -219l-62 -39q-64 126 -197 200t-304 74q-160 0 -301 -64.5t-239 -171.5t-155 -251t-57 -299q0 -162 72 -298t205 -218t299 -82q309 0 550 223
l80 450h-460l10 64h532l-98 -551q-259 -252 -612 -252z" />
    <glyph glyph-name="H" unicode="H" horiz-adv-x="1638" 
d="M150 0l253 1434h70l-119 -672h1020l119 672h70l-254 -1434h-70l123 698h-1020l-123 -698h-69z" />
    <glyph glyph-name="I" unicode="I" horiz-adv-x="548" 
d="M150 0l253 1434h70l-254 -1434h-69z" />
    <glyph glyph-name="J" unicode="J" horiz-adv-x="575" 
d="M258 41q-34 -191 -119 -269.5t-229 -78.5q-87 0 -135 22l12 62q54 -21 123 -21q56 0 97 12t77.5 42.5t61.5 88t40 142.5l246 1393h70z" />
    <glyph glyph-name="K" unicode="K" horiz-adv-x="1366" 
d="M150 0l253 1434h70l-147 -830l1007 830h99l-701 -580l486 -854h-87l-452 811l-369 -305l-90 -506h-69z" />
    <glyph glyph-name="L" unicode="L" horiz-adv-x="989" 
d="M150 0l253 1434h70l-242 -1368h598l-10 -66h-669z" />
    <glyph glyph-name="M" unicode="M" horiz-adv-x="1736" 
d="M150 0l253 1434h95l376 -873l685 873h102l-252 -1434h-70l238 1350l-674 -858h-74l-370 860l-240 -1352h-69z" />
    <glyph glyph-name="N" unicode="N" horiz-adv-x="1638" 
d="M150 0l253 1434h93l755 -1362l242 1362h70l-254 -1434h-95l-755 1358l-240 -1358h-69z" />
    <glyph glyph-name="O" unicode="O" horiz-adv-x="1681" 
d="M958 1475q190 0 340.5 -91t231 -242.5t80.5 -332.5q0 -168 -60 -322.5t-164.5 -271t-258.5 -186.5t-330 -70q-190 0 -340.5 91t-231 242.5t-80.5 332.5q0 168 60 322.5t164.5 271t258.5 186.5t330 70zM795 25q210 0 381.5 109.5t265.5 289t94 387.5q0 121 -42.5 230
t-117.5 190.5t-184 129.5t-234 48q-157 0 -296 -64.5t-235.5 -172t-152 -251t-55.5 -298.5q0 -162 72 -298t205 -218t299 -82z" />
    <glyph glyph-name="P" unicode="P" horiz-adv-x="1064" 
d="M150 0l253 1434h293q180 0 284.5 -86.5t104.5 -245.5q0 -185 -131 -298.5t-354 -113.5h-258l-123 -690h-69zM696 1368h-235l-109 -612h248q193 0 302.5 93.5t109.5 250.5q0 134 -82 201t-234 67z" />
    <glyph glyph-name="Q" unicode="Q" horiz-adv-x="1681" 
d="M145 625q0 168 60 322.5t164.5 271t258.5 186.5t330 70q190 0 340.5 -91t231 -242.5t80.5 -332.5q0 -252 -128 -463.5t-345 -312.5l127 -123q77 -75 156.5 -112.5t144.5 -37.5q58 0 102 13l-12 -68q-35 -12 -90 -12q-188 0 -348 155l-160 152q-121 -41 -260 -41
q-190 0 -340.5 91t-231 242.5t-80.5 332.5zM1536 811q0 121 -42.5 230t-117.5 190.5t-184 129.5t-234 48q-157 0 -296 -64.5t-235.5 -172t-152 -251t-55.5 -298.5q0 -162 72 -298t205 -218t299 -82q210 0 381.5 109.5t265.5 289t94 387.5z" />
    <glyph glyph-name="R" unicode="R" horiz-adv-x="1204" 
d="M150 0l253 1434h254q183 0 286.5 -86t103.5 -246q0 -148 -88 -253t-242 -140l354 -709h-84l-340 694q-54 -4 -86 -4h-219l-123 -690h-69zM657 1368h-196l-109 -612h209q193 0 302.5 93.5t109.5 250.5q0 134 -82 201t-234 67z" />
    <glyph glyph-name="S" unicode="S" horiz-adv-x="1167" 
d="M416 1106q0 -71 30 -131t77.5 -103t105 -83.5t115 -82.5t105 -89.5t77.5 -114.5t30 -148q0 -169 -118 -282t-306 -113q-276 0 -421 231l59 41q133 -204 362 -204q160 0 256.5 95t96.5 232q0 72 -30 132.5t-77.5 104t-105.5 84t-115.5 82.5t-105 89t-77.5 113.5t-30 146.5
q0 153 115.5 261t279.5 108q266 0 363 -220l-62 -36q-78 188 -301 188q-135 0 -229 -88.5t-94 -212.5z" />
    <glyph glyph-name="T" unicode="T" horiz-adv-x="1230" 
d="M231 1368l11 66h1069l-11 -66h-501l-240 -1368h-70l240 1368h-498z" />
    <glyph glyph-name="U" unicode="U" horiz-adv-x="1421" 
d="M1153 520l160 914h69l-161 -918q-99 -557 -564 -557q-252 0 -377.5 153.5t-74.5 436.5l157 885h70l-153 -881q-45 -261 55 -394.5t321 -133.5q202 0 329 124t169 371z" />
    <glyph glyph-name="V" unicode="V" horiz-adv-x="1445" 
d="M246 1434h71l324 -1375l809 1375h76l-846 -1434h-94z" />
    <glyph glyph-name="W" unicode="W" horiz-adv-x="1984" 
d="M246 1434h71l115 -1362l670 1362h102l189 -1366l596 1366h75l-628 -1434h-103l-190 1354l-672 -1354h-102z" />
    <glyph glyph-name="X" unicode="X" horiz-adv-x="1363" 
d="M82 0h-88l684 758l-379 676h78l356 -631l570 631h90l-625 -689l420 -745h-78l-395 700z" />
    <glyph glyph-name="Y" unicode="Y" horiz-adv-x="1259" 
d="M1378 1434l-682 -740l-123 -694h-69l123 698l-420 736h74l387 -678l626 678h84z" />
    <glyph glyph-name="Z" unicode="Z" horiz-adv-x="1261" 
d="M6 0l10 66l1190 1302h-940l13 66h1030l-13 -66l-1190 -1302h979l-10 -66h-1069z" />
    <glyph glyph-name="bracketleft" unicode="[" horiz-adv-x="538" 
d="M311 1536h389l-12 -63h-319l-322 -1813h322l-11 -63h-389z" />
    <glyph glyph-name="backslash" unicode="\" horiz-adv-x="659" 
d="M461 -403h-64l-180 1939h64z" />
    <glyph glyph-name="bracketright" unicode="]" horiz-adv-x="538" 
d="M248 -403h-389l12 63h319l322 1813h-322l11 63h389z" />
    <glyph glyph-name="asciicircum" unicode="^" 
d="M328 315h-74l352 463h113l190 -463h-63l-187 416z" />
    <glyph glyph-name="underscore" unicode="_" horiz-adv-x="1073" 
d="M-90 -227h993l-12 -64h-993z" />
    <glyph glyph-name="grave" unicode="`" horiz-adv-x="688" 
d="M543 1196l-166 340h82l149 -340h-65z" />
    <glyph glyph-name="a" unicode="a" horiz-adv-x="1110" 
d="M399 -29q-138 0 -219.5 67.5t-81.5 182.5q0 250 367 311l405 68l19 105q26 146 -45 224.5t-211 78.5q-101 0 -194.5 -46.5t-164.5 -127.5l-53 47q81 90 187 141t225 51q173 0 262 -98.5t59 -269.5l-127 -705h-63l29 158q-85 -93 -179.5 -140t-214.5 -47zM172 221
q0 -81 61 -132.5t166 -51.5q127 0 226.5 58t185.5 171l49 273l-381 -66q-307 -53 -307 -252z" />
    <glyph glyph-name="b" unicode="b" horiz-adv-x="1325" 
d="M1219 594q0 -176 -75 -321.5t-209 -229.5t-300 -84q-138 0 -246 61t-166 173l-35 -193h-65l272 1536h66l-113 -639q78 86 180 131t209 45q147 0 257.5 -63.5t167.5 -171.5t57 -244zM735 1010q-116 0 -223.5 -54.5t-181.5 -160.5l-92 -514q54 -120 157 -189t238 -69
q221 0 367.5 162.5t146.5 408.5q0 181 -112 298.5t-300 117.5z" />
    <glyph glyph-name="c" unicode="c" horiz-adv-x="1138" 
d="M711 1073q141 0 247.5 -62t161.5 -169l-59 -37q-47 96 -138.5 150.5t-213.5 54.5q-150 0 -274 -78.5t-192.5 -207.5t-68.5 -278q0 -179 114.5 -301t305.5 -122q238 0 379 192l49 -45q-163 -211 -428 -211q-114 0 -208.5 39t-155.5 106.5t-94.5 156t-33.5 188.5
q0 123 45.5 236.5t125 199t194 137t244.5 51.5z" />
    <glyph glyph-name="d" unicode="d" horiz-adv-x="1316" 
d="M104 438q0 176 75 321.5t209 229.5t300 84q139 0 247.5 -62t166.5 -175l123 700h65l-270 -1536h-66l25 139q-80 -88 -183 -134t-210 -46q-147 0 -257.5 63.5t-167.5 171.5t-57 244zM176 438q0 -181 112 -298t300 -117q117 0 224.5 55t184.5 164l88 508
q-52 121 -155.5 190.5t-239.5 69.5q-221 0 -367.5 -163t-146.5 -409z" />
    <glyph glyph-name="e" unicode="e" horiz-adv-x="1159" 
d="M573 -41q-114 0 -205 39t-148.5 106.5t-87.5 155.5t-30 189q0 125 38 237t108.5 198.5t179.5 137.5t242 51q178 0 291.5 -105t113.5 -257q0 -70 -16 -133h-873q-12 -64 -12 -132q0 -88 26 -164t75 -134t125.5 -91.5t172.5 -33.5q128 0 238 51t176 141l49 -45
q-77 -99 -197 -155t-266 -56zM668 1010q-178 0 -299.5 -101.5t-167.5 -267.5h798q22 150 -70.5 259.5t-260.5 109.5z" />
    <glyph glyph-name="f" unicode="f" horiz-adv-x="724" 
d="M164 1032h190l29 164q31 173 125.5 256.5t224.5 83.5q121 0 213 -66l-39 -53q-75 56 -174 56q-105 0 -182 -68.5t-102 -208.5l-29 -164h403l-10 -61h-403l-256 -1475h-68l258 1475h-192z" />
    <glyph glyph-name="g" unicode="g" horiz-adv-x="1099" 
d="M-49 -236q0 193 225 322q-67 36 -67 123q0 68 54.5 125.5t125.5 87.5q-53 46 -82 111t-29 137q0 104 48 195t146.5 150.5t227.5 59.5q92 0 170 -43h404l-13 -63h-313q84 -94 84 -219q0 -77 -28.5 -149.5t-80 -130.5t-132.5 -93t-177 -35q-99 0 -178 45
q-77 -33 -120.5 -82t-43.5 -96q0 -78 94 -78h316q177 0 260.5 -72.5t83.5 -197.5q0 -162 -142.5 -267.5t-390.5 -105.5q-222 0 -332 74t-110 202zM858 748q0 109 -70.5 185.5t-187.5 76.5q-69 0 -126.5 -19.5t-98 -52t-68.5 -76t-41.5 -92.5t-13.5 -100q0 -110 70 -186
t192 -76q160 0 252 102.5t92 237.5zM23 -227q0 -104 90 -161.5t278 -57.5q221 0 343 85.5t122 223.5q0 91 -63.5 147t-210.5 56h-316h-6q-110 -47 -173.5 -130t-63.5 -163z" />
    <glyph glyph-name="h" unicode="h" horiz-adv-x="1245" 
d="M123 0l270 1536h66l-117 -664q164 201 397 201q188 0 281 -114.5t57 -319.5l-112 -639h-66l113 639q32 178 -43.5 274.5t-229.5 96.5q-248 0 -415 -244l-136 -766h-65z" />
    <glyph glyph-name="i" unicode="i" horiz-adv-x="493" 
d="M416 1413q-27 0 -45.5 17.5t-18.5 44.5q0 26 18.5 43.5t45.5 17.5q28 0 45.5 -17.5t17.5 -43.5q0 -28 -17.5 -45t-45.5 -17zM123 0l182 1032h66l-183 -1032h-65z" />
    <glyph glyph-name="j" unicode="j" horiz-adv-x="493" 
d="M416 1413q-27 0 -45.5 17.5t-18.5 44.5q0 26 18.5 43.5t45.5 17.5q28 0 45.5 -17.5t17.5 -43.5q0 -28 -17.5 -45t-45.5 -17zM156 -190q-17 -97 -50 -162t-81.5 -99t-102 -47.5t-125.5 -13.5q-94 0 -159 35l10 63q72 -35 149 -35q47 0 80.5 4.5t70.5 20.5t62.5 44.5t47 80
t34.5 123.5l213 1208h66z" />
    <glyph glyph-name="k" unicode="k" horiz-adv-x="1054" 
d="M123 0l270 1536h66l-191 -1083l701 579h94l-504 -418l344 -614h-74l-319 571l-258 -215l-64 -356h-65z" />
    <glyph glyph-name="l" unicode="l" horiz-adv-x="493" 
d="M123 0l272 1536h66l-273 -1536h-65z" />
    <glyph glyph-name="m" unicode="m" horiz-adv-x="1939" 
d="M123 0l182 1032h66l-29 -158q165 199 377 199q130 0 214.5 -65t106.5 -185q188 250 416 250q176 0 265 -114.5t53 -319.5l-113 -639h-66l113 639q31 177 -39.5 274t-212.5 97q-228 0 -409 -265q0 -38 -11 -106l-112 -639h-66l113 639q31 177 -39.5 274t-212.5 97
q-229 0 -395 -244l-136 -766h-65z" />
    <glyph glyph-name="n" unicode="n" horiz-adv-x="1245" 
d="M123 0l182 1032h66l-29 -160q167 201 397 201q188 0 281 -114.5t57 -319.5l-112 -639h-66l113 639q32 178 -43.5 274.5t-229.5 96.5q-248 0 -415 -244l-136 -766h-65z" />
    <glyph glyph-name="o" unicode="o" horiz-adv-x="1288" 
d="M711 1073q148 0 258 -67.5t164.5 -177t54.5 -244.5q0 -123 -46 -237t-125 -199.5t-193.5 -137t-243.5 -51.5q-148 0 -258 67.5t-165 177.5t-55 245q0 165 77.5 307.5t218.5 229.5t313 87zM582 23q150 0 273.5 78.5t192 207t68.5 277.5q0 179 -111 301.5t-296 122.5
q-150 0 -273.5 -78.5t-192.5 -207.5t-69 -278q0 -179 111.5 -301t296.5 -122z" />
    <glyph glyph-name="p" unicode="p" horiz-adv-x="1323" 
d="M35 -504l270 1536h66l-25 -135q80 86 182.5 131t208.5 45q147 0 257.5 -63.5t167.5 -171.5t57 -244q0 -176 -75 -321.5t-209 -229.5t-300 -84q-138 0 -246 61t-166 173l-123 -697h-65zM735 1010q-117 0 -224 -55t-183 -162l-90 -512q54 -120 157 -189t238 -69
q221 0 367.5 162.5t146.5 408.5q0 181 -112 298.5t-300 117.5z" />
    <glyph glyph-name="q" unicode="q" horiz-adv-x="1323" 
d="M104 438q0 176 75 321.5t209 229.5t300 84q139 0 246.5 -60.5t165.5 -172.5l35 192h65l-270 -1536h-66l113 641q-80 -87 -182 -132.5t-209 -45.5q-147 0 -257.5 63.5t-167.5 171.5t-57 244zM176 438q0 -181 112 -298t300 -117q117 0 224 55t183 162l90 512
q-54 120 -157 189t-238 69q-221 0 -367.5 -163t-146.5 -409z" />
    <glyph glyph-name="r" unicode="r" horiz-adv-x="768" 
d="M123 0l182 1032h66l-29 -168q84 98 164.5 143.5t179.5 45.5q56 0 96 -13l-12 -61q-43 12 -86 12q-102 0 -184.5 -53.5t-175.5 -173.5l-136 -764h-65z" />
    <glyph glyph-name="s" unicode="s" horiz-adv-x="845" 
d="M264 795q0 -53 23.5 -95.5t61 -72t83 -57t91 -56t83 -61.5t61 -82.5t23.5 -110.5q0 -124 -91.5 -212.5t-227.5 -88.5q-109 0 -202.5 49.5t-145.5 143.5l59 38q104 -167 289 -167q111 0 180.5 68t69.5 169q0 53 -23.5 95t-61 71.5t-83 56.5t-91 55.5t-83 62t-61 83
t-23.5 111.5q0 117 91 197.5t220 80.5q102 0 178.5 -50.5t116.5 -133.5l-64 -35q-67 156 -231 156q-102 0 -172 -65t-70 -150z" />
    <glyph glyph-name="t" unicode="t" horiz-adv-x="815" 
d="M227 317l115 654h-190l12 61h190l45 258h68l-45 -258h401l-10 -61h-403l-115 -654q-9 -48 -9 -87t6.5 -67.5t20.5 -49.5t32 -34.5t42.5 -21.5t50.5 -11t58 -3q72 0 157 29l-12 -66q-70 -26 -145 -26q-59 0 -104.5 10t-84.5 33.5t-59.5 62t-28.5 96t8 135.5z" />
    <glyph glyph-name="u" unicode="u" horiz-adv-x="1208" 
d="M940 436l107 596h65l-106 -598q-40 -230 -157.5 -352.5t-299.5 -122.5q-206 0 -309 124t-64 351l107 598h65l-106 -596q-35 -198 48 -305.5t259 -107.5q157 0 256 106t135 307z" />
    <glyph glyph-name="v" unicode="v" horiz-adv-x="1042" 
d="M145 1032h72l223 -971l566 971h75l-606 -1032h-88z" />
    <glyph glyph-name="w" unicode="w" horiz-adv-x="1505" 
d="M180 1032h70l78 -960l465 960h96l127 -960l418 960h71l-448 -1032h-96l-132 954l-467 -954h-96z" />
    <glyph glyph-name="x" unicode="x" horiz-adv-x="980" 
d="M45 0h-84l488 545l-271 487h74l252 -446l397 446h86l-446 -497l299 -535h-74l-279 496z" />
    <glyph glyph-name="y" unicode="y" horiz-adv-x="1062" 
d="M319 -270q-76 -127 -159 -184.5t-187 -57.5q-105 0 -161 35l12 67q58 -39 149 -39q170 0 289 201l148 248l-265 1032h72l242 -950l565 950h76z" />
    <glyph glyph-name="z" unicode="z" horiz-adv-x="933" 
d="M-10 0l10 61l838 910h-664l12 61h748l-12 -61l-838 -910h692l-10 -61h-776z" />
    <glyph glyph-name="braceleft" unicode="{" horiz-adv-x="538" 
d="M299 401q0 -60 -22 -124t-53.5 -119t-63.5 -109.5t-54 -115.5t-22 -117q0 -74 57.5 -115t159.5 -41h68l-11 -63h-57q-135 0 -210 57t-75 162q0 56 22 117t53.5 115.5t63.5 109.5t54 119t22 124q0 62 -26 99t-80 37h-123l12 63h121q81 0 123.5 67.5t42.5 174.5
q0 70 -22.5 196t-22.5 193q0 151 90 228t238 77h116l-12 -63h-104q-123 0 -191.5 -60.5t-68.5 -181.5q0 -69 22.5 -195t22.5 -194q0 -92 -37.5 -169.5t-110.5 -111.5q46 -31 62 -70t16 -90z" />
    <glyph glyph-name="bar" unicode="|" horiz-adv-x="659" 
d="M135 -403l342 1939h66l-342 -1939h-66z" />
    <glyph glyph-name="braceright" unicode="}" horiz-adv-x="538" 
d="M258 731q0 60 22 124t54 119t63.5 110t53.5 116t22 117q0 74 -57.5 115t-159.5 41h-68l11 63h57q135 0 210 -57t75 -162q0 -56 -22 -117t-53.5 -116t-63.5 -110t-54 -119t-22 -124q0 -62 26 -98.5t80 -36.5h123l-12 -64h-121q-81 0 -123.5 -67t-42.5 -174
q0 -70 22.5 -196t22.5 -193q0 -151 -90 -228t-238 -77h-116l12 63h104q123 0 191.5 60.5t68.5 181.5q0 69 -22.5 195t-22.5 194q0 92 37.5 169t110.5 111q-46 31 -62 70t-16 90z" />
    <glyph glyph-name="asciitilde" unicode="~" 
d="M207 348l39 213q17 96 66 147.5t122 51.5q49 0 86 -20.5t59.5 -53t41 -71.5t34.5 -78.5t34.5 -72t47 -53t66.5 -20.5q58 0 91 43.5t48 134.5l31 176h59l-39 -213q-17 -96 -66 -147t-122 -51q-49 0 -86 20.5t-59.5 53t-41 71.5t-34.5 78t-34.5 71.5t-47 53t-66.5 20.5
q-58 0 -91 -43.5t-48 -134.5l-31 -176h-59z" />
    <glyph glyph-name="nbspace" unicode="&#xa0;" horiz-adv-x="552" 
 />
    <glyph glyph-name="exclamdown" unicode="&#xa1;" horiz-adv-x="538" 
d="M356 1073q32 0 52 -19t20 -50t-20 -50.5t-52 -19.5t-51.5 19.5t-19.5 50.5t19.5 50t51.5 19zM332 690l-182 -1071h-74l196 1071h60z" />
    <glyph glyph-name="cent" unicode="&#xa2;" 
d="M797 1434h67l-28 -160q123 -10 215 -71t143 -159l-59 -36q-41 86 -122 138.5t-188 61.5l-172 -981h15q239 0 379 191l49 -45q-163 -211 -428 -211h-27l-29 -162h-69l30 170q-185 28 -291 162.5t-106 318.5q0 163 74.5 304t211.5 229t306 92zM250 649q0 -156 90.5 -272.5
t243.5 -143.5l174 977q-144 -7 -261.5 -86.5t-182 -205t-64.5 -269.5z" />
    <glyph glyph-name="sterling" unicode="&#xa3;" 
d="M88 0l12 63l133 107q89 71 137 114t85.5 88t51 83.5t13.5 87.5q0 63 -22 127h-291l12 65h254q-10 24 -36 80.5t-39 88t-25.5 80.5t-12.5 93q0 175 114 286.5t292 111.5q121 0 215 -61.5t154 -172.5l-60 -35q-107 201 -309 201q-153 0 -242.5 -89.5t-89.5 -240.5
q0 -44 12.5 -92.5t26.5 -81t39.5 -86.5t36.5 -82h461l-13 -65h-424q21 -68 21 -125q0 -102 -68.5 -190t-246.5 -232l-74 -60h786l-12 -63h-891z" />
    <glyph glyph-name="currency" unicode="&#xa4;" 
d="M983 0l-195 246q-93 -70 -210 -70q-130 0 -213 80l-291 -256l-43 45l295 258q-50 74 -50 174q0 163 111 277l-186 239l51 39l184 -237q90 65 205 65q138 0 221 -86l293 258l43 -45l-299 -260q45 -71 45 -168q0 -156 -106 -272l194 -248zM578 236q128 0 213.5 95.5
t85.5 227.5q0 102 -64.5 172t-171.5 70q-125 0 -211 -96.5t-86 -227.5q0 -102 64 -171.5t170 -69.5z" />
    <glyph glyph-name="yen" unicode="&#xa5;" 
d="M164 516l12 66h418l43 239h-420l12 66h377l-309 549h80l303 -547l491 545h86l-497 -547h377l-13 -66h-417l-43 -239h417l-10 -66h-420l-90 -516h-69l90 516h-418z" />
    <glyph glyph-name="brokenbar" unicode="&#xa6;" horiz-adv-x="659" 
d="M416 817h-66l127 719h66zM201 -403h-66l127 718h66z" />
    <glyph glyph-name="section" unicode="&#xa7;" horiz-adv-x="1038" 
d="M395 -332q75 0 137 25t104 83.5t42 141.5q0 64 -29.5 116t-76 87t-103.5 67t-113.5 65.5t-103 72.5t-76 98t-29.5 133q0 121 87.5 200.5t228.5 112.5q-88 58 -136 124.5t-48 166.5q0 77 29.5 138.5t79.5 99t111.5 57t129.5 19.5q202 0 370 -168l-53 -50
q-157 154 -317 154q-75 0 -137 -25t-104 -83.5t-42 -141.5q0 -64 29.5 -116t76 -87t103.5 -67t113.5 -65.5t103 -72.5t76 -98t29.5 -133q0 -121 -87.5 -200.5t-228.5 -112.5q88 -58 136 -124.5t48 -166.5q0 -77 -29.5 -138.5t-79.5 -98.5t-111.5 -56.5t-129.5 -19.5
q-202 0 -370 168l53 49q157 -154 317 -154zM217 559q0 -45 17 -85t31.5 -63t61.5 -58t62 -43.5t78 -44.5q19 -11 29 -17q139 20 225 95.5t86 176.5q0 45 -17 85t-31.5 63t-61.5 58t-62 43.5t-78 44.5q-19 11 -29 17q-139 -20 -225 -95.5t-86 -176.5z" />
    <glyph glyph-name="dieresis" unicode="&#xa8;" horiz-adv-x="688" 
d="M350 1413q-28 0 -46.5 17t-18.5 43q0 28 18.5 45.5t46.5 17.5q27 0 45.5 -18t18.5 -45q0 -26 -18.5 -43t-45.5 -17zM678 1413q-28 0 -47 17t-19 43q0 27 19 45t47 18q27 0 45 -18t18 -45q0 -26 -18 -43t-45 -17z" />
    <glyph glyph-name="copyright" unicode="&#xa9;" horiz-adv-x="1726" 
d="M965 1475q161 0 292.5 -51.5t217 -141.5t132 -210.5t46.5 -260.5q0 -175 -65.5 -333t-176 -271.5t-262.5 -180.5t-318 -67q-161 0 -292.5 51.5t-217 141.5t-132 210.5t-46.5 260.5q0 175 65.5 333t176 271.5t262.5 180.5t318 67zM831 18q204 0 378 108t275 290.5
t101 394.5q0 128 -42 238t-119.5 191.5t-195.5 128t-263 46.5q-153 0 -293 -63.5t-240.5 -170.5t-160.5 -253t-60 -305q0 -172 71.5 -307.5t214 -216.5t334.5 -81zM954 1182q114 0 206.5 -52.5t139.5 -136.5l-59 -39q-37 74 -116 119t-171 45q-122 0 -221.5 -63.5
t-154 -168.5t-54.5 -227q0 -144 94 -246t240 -102q192 0 322 152l47 -45q-142 -168 -371 -168q-177 0 -289 117t-112 292q0 138 62 257t177.5 192.5t259.5 73.5z" />
    <glyph glyph-name="ordfeminine" unicode="&#xaa;" horiz-adv-x="714" 
d="M373 803q-85 0 -136 43.5t-51 118.5q0 158 226 196l241 41l11 55q13 83 -27.5 129t-120.5 46q-118 0 -207 -103l-47 41q48 55 114.5 87t141.5 32q113 0 169 -64t36 -174l-76 -422h-59l14 86q-95 -112 -229 -112zM252 969q0 -49 34.5 -80t94.5 -31q135 0 235 137v-2
l29 158l-221 -37q-172 -30 -172 -145zM139 553l13 59h450l-10 -59h-453z" />
    <glyph glyph-name="guillemetleft" unicode="&#xab;" horiz-adv-x="970" 
d="M403 98h-71l-203 410l348 410h82l-352 -418zM768 98h-72l-202 410l348 410h82l-353 -418z" />
    <glyph glyph-name="logicalnot" unicode="&#xac;" 
d="M1161 774l-90 -514h-63l79 451h-937l10 63h1001z" />
    <glyph glyph-name="registered" unicode="&#xae;" horiz-adv-x="1036" 
d="M649 1475q191 0 301.5 -113t110.5 -285q0 -141 -66.5 -259t-179.5 -185.5t-246 -67.5q-192 0 -302.5 113t-110.5 285q0 141 66 259t179.5 185.5t247.5 67.5zM569 616q87 0 166.5 37.5t137 100t92 147.5t34.5 176q0 150 -94 248t-256 98q-117 0 -216.5 -63t-157.5 -169
t-58 -228q0 -150 94 -248.5t258 -98.5zM420 760l92 530h115q74 0 115.5 -33t41.5 -94q0 -53 -32 -92.5t-88 -54.5l131 -256h-68l-121 248h-84l-43 -248h-59zM625 1239h-60l-33 -180h62q59 0 93 28.5t34 73.5q0 78 -96 78z" />
    <glyph glyph-name="macron" unicode="&#xaf;" horiz-adv-x="688" 
d="M250 1450l10 57h518l-10 -57h-518z" />
    <glyph glyph-name="degree" unicode="&#xb0;" horiz-adv-x="827" 
d="M555 1475q141 0 222 -86.5t81 -214.5q0 -101 -46.5 -188.5t-131 -141t-188.5 -53.5q-140 0 -221 86.5t-81 214.5q0 155 105 269t260 114zM492 850q128 0 213.5 96t85.5 228q0 102 -64.5 171.5t-171.5 69.5q-125 0 -211 -96t-86 -227q0 -102 64 -172t170 -70z" />
    <glyph glyph-name="plusminus" unicode="&#xb1;" 
d="M737 1032l-63 -360h469l-10 -64h-471l-64 -362h-63l63 362h-467l10 64h469l64 360h63zM1024 0h-999l10 63h1001z" />
    <glyph glyph-name="twosuperior" unicode="&#xb2;" horiz-adv-x="772" 
d="M166 829l10 60l361 317q131 116 175 176.5t44 133.5q0 71 -49 116t-123 45q-65 0 -119.5 -31.5t-106.5 -105.5l-51 37q109 160 281 160q101 0 168 -62t67 -155q0 -87 -52 -159t-193 -198l-312 -274h467l-12 -60h-555z" />
    <glyph glyph-name="threesuperior" unicode="&#xb3;" horiz-adv-x="772" 
d="M807 1520q0 -77 -48.5 -139t-142.5 -87q82 -30 120 -88.5t38 -130.5q0 -114 -81 -192t-222 -78q-211 0 -303 162l57 30q82 -133 246 -133q110 0 173 60.5t63 150.5q0 86 -55.5 140.5t-170.5 54.5h-102l10 59h125q108 0 167.5 52.5t59.5 134.5q0 71 -47 116t-114 45
t-119 -29.5t-101 -101.5l-51 37q106 154 273 154q96 0 160.5 -62.5t64.5 -154.5z" />
    <glyph glyph-name="acute" unicode="&#xb4;" horiz-adv-x="688" 
d="M387 1196h-74l269 340h92z" />
    <glyph glyph-name="paragraph" unicode="&#xb6;" horiz-adv-x="1181" 
d="M475 -403h-72l193 1093h-31q-171 0 -282 91t-111 261q0 79 30 149t87 124.5t148.5 86.5t205.5 32h158zM715 -403l323 1837h68l-326 -1837h-65z" />
    <glyph glyph-name="periodcentered" unicode="&#xb7;" horiz-adv-x="552" 
d="M289 457q-32 0 -52 19t-20 50t20 50.5t52 19.5t51.5 -19.5t19.5 -50.5t-19.5 -50t-51.5 -19z" />
    <glyph glyph-name="cedilla" unicode="&#xb8;" horiz-adv-x="688" 
d="M270 18l60 -18l-150 -164q8 2 27 2q78 0 129 -46.5t51 -113.5q0 -78 -57 -130t-152 -52q-54 0 -106.5 20.5t-87.5 55.5l45 51q65 -65 153 -65q59 0 97 30t38 86q0 43 -31.5 74t-86.5 31q-46 0 -80 -19l-41 45z" />
    <glyph glyph-name="onesuperior" unicode="&#xb9;" horiz-adv-x="772" 
d="M145 829l11 60h284l133 751l-297 -145l-30 53l336 164h67l-143 -823h248l-11 -60h-598z" />
    <glyph glyph-name="ordmasculine" unicode="&#xba;" horiz-adv-x="827" 
d="M565 1489q137 0 217 -86t80 -215q0 -101 -47.5 -189t-134.5 -142t-193 -54q-137 0 -217 87t-80 216q0 155 107.5 269t267.5 114zM489 862q131 0 219.5 97t88.5 229q0 102 -64.5 172t-169.5 70q-131 0 -219 -96.5t-88 -229.5q0 -103 63.5 -172.5t169.5 -69.5zM139 553
l13 59h561l-11 -59h-563z" />
    <glyph glyph-name="guillemetright" unicode="&#xbb;" horiz-adv-x="970" 
d="M209 918h72l202 -410l-348 -410h-82l353 418zM573 918h72l203 -410l-348 -410h-82l352 418z" />
    <glyph glyph-name="onequarter" unicode="&#xbc;" horiz-adv-x="1730" 
d="M98 553l11 59h284l133 752l-297 -145l-30 53l336 164h67l-143 -824h248l-11 -59h-598zM356 0l1266 1434h84l-1268 -1434h-82zM987 272l10 58l525 551h88l-97 -551h109l-10 -58h-109l-47 -272h-65l49 272h-453zM1073 330h375l86 483z" />
    <glyph glyph-name="onehalf" unicode="&#xbd;" horiz-adv-x="1929" 
d="M98 553l11 59h284l133 752l-297 -145l-30 53l336 164h67l-143 -824h248l-11 -59h-598zM356 0l1266 1434h84l-1268 -1434h-82zM1180 0l10 59l360 318q132 116 175.5 176t43.5 133q0 71 -49 116.5t-123 45.5q-65 0 -119 -31.5t-106 -105.5l-51 37q108 159 281 159
q101 0 168 -62t67 -155q0 -87 -52 -158t-194 -198l-311 -275h467l-12 -59h-555z" />
    <glyph glyph-name="threequarters" unicode="&#xbe;" horiz-adv-x="1671" 
d="M760 1243q0 -76 -48.5 -138t-142.5 -87q82 -30 120 -88.5t38 -130.5q0 -114 -81 -192.5t-222 -78.5q-211 0 -303 162l57 31q82 -133 246 -133q110 0 172.5 60.5t62.5 150.5q0 86 -55 140t-170 54h-102l10 60h125q108 0 167.5 52t59.5 134q0 71 -47.5 116.5t-114.5 45.5
t-118.5 -29t-100.5 -102l-51 37q105 153 273 153q96 0 160.5 -62.5t64.5 -154.5zM297 0l1266 1434h84l-1268 -1434h-82zM928 272l10 58l524 551h88l-96 -551h109l-11 -58h-108l-47 -272h-66l49 272h-452zM1014 330h375l86 483z" />
    <glyph glyph-name="questiondown" unicode="&#xbf;" horiz-adv-x="991" 
d="M676 1073q32 0 52 -19t20 -50t-20 -50.5t-52 -19.5t-52 19.5t-20 50.5t20 50t52 19zM653 690l-39 -315q-266 -19 -417.5 -131t-151.5 -305q0 -132 88.5 -216.5t243.5 -84.5q205 0 340 172l55 -39q-77 -98 -179 -145.5t-214 -47.5q-188 0 -297 101.5t-109 259.5
q0 201 152 329t416 158l53 264h59z" />
    <glyph glyph-name="Agrave" unicode="&#xc0;" horiz-adv-x="1445" 
d="M881 1556l-201 277h88l176 -277h-63zM-8 0l844 1434h100l338 -1434h-70l-112 481h-740l-282 -481h-78zM391 547h686l-194 837z" />
    <glyph glyph-name="Aacute" unicode="&#xc1;" horiz-adv-x="1445" 
d="M948 1556h-71l272 277h98zM-8 0l844 1434h100l338 -1434h-70l-112 481h-740l-282 -481h-78zM391 547h686l-194 837z" />
    <glyph glyph-name="Acircumflex" unicode="&#xc2;" horiz-adv-x="1445" 
d="M702 1556h-71l272 277h109l174 -277h-62l-168 234zM-8 0l844 1434h100l338 -1434h-70l-112 481h-740l-282 -481h-78zM391 547h686l-194 837z" />
    <glyph glyph-name="Atilde" unicode="&#xc3;" horiz-adv-x="1445" 
d="M629 1577l18 100q13 68 51 112t99 44q44 0 77 -22.5t52 -54.5t36.5 -64.5t42 -55t56.5 -22.5q35 0 60 26t32 72l18 100h60l-19 -100q-13 -69 -51 -112.5t-100 -43.5q-44 0 -77.5 22.5t-54 55t-38.5 65t-41.5 55t-52.5 22.5q-34 0 -58.5 -26.5t-31.5 -72.5l-19 -100h-59z
M-8 0l844 1434h100l338 -1434h-70l-112 481h-740l-282 -481h-78zM391 547h686l-194 837z" />
    <glyph glyph-name="Adieresis" unicode="&#xc4;" horiz-adv-x="1445" 
d="M776 1688q-28 0 -46.5 17t-18.5 44q0 28 18.5 45.5t46.5 17.5t47 -18t19 -45t-19 -44t-47 -17zM1106 1688q-28 0 -47 17t-19 44t19 45t47 18t46.5 -17.5t18.5 -45.5q0 -27 -18.5 -44t-46.5 -17zM-8 0l844 1434h100l338 -1434h-70l-112 481h-740l-282 -481h-78zM391 547
h686l-194 837z" />
    <glyph glyph-name="Aring" unicode="&#xc5;" horiz-adv-x="1445" 
d="M958 1978q88 0 149.5 -59t61.5 -150q0 -107 -73.5 -180t-173.5 -73q-88 0 -149.5 58t-61.5 148q0 107 73.5 181.5t173.5 74.5zM956 1915q-79 0 -128.5 -55.5t-49.5 -133.5q0 -66 40.5 -106.5t105.5 -40.5q79 0 128.5 54t49.5 132q0 66 -41 108t-105 42zM-8 0l844 1434
h100l338 -1434h-70l-112 481h-740l-282 -481h-78zM391 547h686l-194 837z" />
    <glyph glyph-name="AE" unicode="&#xc6;" horiz-adv-x="1904" 
d="M-16 0l462 547l752 887h709l-11 -66h-600l-106 -606h520l-12 -64h-520l-111 -632h600l-12 -66h-670l86 481h-592l-405 -481h-90zM535 547h546l146 819z" />
    <glyph glyph-name="Ccedilla" unicode="&#xc7;" horiz-adv-x="1546" 
d="M956 1475q181 0 331.5 -85t223.5 -221l-61 -39q-63 125 -199.5 202t-294.5 77q-157 0 -296 -64.5t-235.5 -172t-152 -251t-55.5 -298.5q0 -162 72 -298t205 -218t299 -82q178 0 310.5 64t244.5 194l51 -50q-224 -263 -574 -274l-235 -287h-84l242 289q-178 11 -317.5 104
t-213.5 239.5t-74 320.5q0 168 60 322.5t164.5 271t258.5 186.5t330 70z" />
    <glyph glyph-name="Egrave" unicode="&#xc8;" horiz-adv-x="1069" 
d="M692 1556l-200 277h88l176 -277h-64zM150 0l253 1434h668l-10 -66h-600l-107 -606h520l-12 -64h-520l-111 -632h598l-10 -66h-669z" />
    <glyph glyph-name="Eacute" unicode="&#xc9;" horiz-adv-x="1069" 
d="M760 1556h-72l273 277h98zM150 0l253 1434h668l-10 -66h-600l-107 -606h520l-12 -64h-520l-111 -632h598l-10 -66h-669z" />
    <glyph glyph-name="Ecircumflex" unicode="&#xca;" horiz-adv-x="1069" 
d="M514 1556h-72l273 277h108l174 -277h-61l-168 234zM150 0l253 1434h668l-10 -66h-600l-107 -606h520l-12 -64h-520l-111 -632h598l-10 -66h-669z" />
    <glyph glyph-name="Edieresis" unicode="&#xcb;" horiz-adv-x="1069" 
d="M588 1688q-28 0 -47 17t-19 44t19 45t47 18t46.5 -17.5t18.5 -45.5q0 -27 -18.5 -44t-46.5 -17zM918 1688q-28 0 -47 17t-19 44t19 45t47 18t46.5 -17.5t18.5 -45.5q0 -27 -18.5 -44t-46.5 -17zM150 0l253 1434h668l-10 -66h-600l-107 -606h520l-12 -64h-520l-111 -632
h598l-10 -66h-669z" />
    <glyph glyph-name="Igrave" unicode="&#xcc;" horiz-adv-x="548" 
d="M432 1556l-201 277h88l177 -277h-64zM150 0l253 1434h70l-254 -1434h-69z" />
    <glyph glyph-name="Iacute" unicode="&#xcd;" horiz-adv-x="548" 
d="M500 1556h-72l272 277h99zM150 0l253 1434h70l-254 -1434h-69z" />
    <glyph glyph-name="Icircumflex" unicode="&#xce;" horiz-adv-x="548" 
d="M254 1556h-72l273 277h108l174 -277h-61l-168 234zM150 0l253 1434h70l-254 -1434h-69z" />
    <glyph glyph-name="Idieresis" unicode="&#xcf;" horiz-adv-x="548" 
d="M328 1688q-28 0 -47 17t-19 44t19 45t47 18t46.5 -17.5t18.5 -45.5q0 -27 -18.5 -44t-46.5 -17zM657 1688q-28 0 -46.5 17t-18.5 44q0 28 18.5 45.5t46.5 17.5t47 -18t19 -45t-19 -44t-47 -17zM150 0l253 1434h70l-254 -1434h-69z" />
    <glyph glyph-name="Eth" unicode="&#xd0;" horiz-adv-x="1603" 
d="M150 0l124 707h-239l10 57h240l118 670h449q156 0 283.5 -46t214 -129t133.5 -199t47 -255q0 -125 -37 -243.5t-111.5 -220t-177 -178t-242 -120t-298.5 -43.5h-514zM852 1368h-391l-107 -604h414l-10 -57h-414l-113 -641h433q180 0 331.5 61.5t251 164.5t154.5 235
t55 276q0 253 -164 409t-440 156z" />
    <glyph glyph-name="Ntilde" unicode="&#xd1;" horiz-adv-x="1638" 
d="M725 1577l18 100q13 68 51 112t99 44q44 0 77 -22.5t52 -54.5t36.5 -64.5t42 -55t56.5 -22.5q35 0 60 26t32 72l19 100h59l-18 -100q-13 -69 -51.5 -112.5t-100.5 -43.5q-44 0 -77.5 22.5t-54 55t-38.5 65t-41.5 55t-52.5 22.5q-34 0 -58.5 -26.5t-31.5 -72.5l-19 -100
h-59zM150 0l253 1434h93l755 -1362l242 1362h70l-254 -1434h-95l-755 1358l-240 -1358h-69z" />
    <glyph glyph-name="Ograve" unicode="&#xd2;" horiz-adv-x="1681" 
d="M979 1556l-201 277h88l176 -277h-63zM958 1475q190 0 340.5 -91t231 -242.5t80.5 -332.5q0 -168 -60 -322.5t-164.5 -271t-258.5 -186.5t-330 -70q-190 0 -340.5 91t-231 242.5t-80.5 332.5q0 168 60 322.5t164.5 271t258.5 186.5t330 70zM795 25q210 0 381.5 109.5
t265.5 289t94 387.5q0 121 -42.5 230t-117.5 190.5t-184 129.5t-234 48q-157 0 -296 -64.5t-235.5 -172t-152 -251t-55.5 -298.5q0 -162 72 -298t205 -218t299 -82z" />
    <glyph glyph-name="Oacute" unicode="&#xd3;" horiz-adv-x="1681" 
d="M1047 1556h-72l272 277h99zM958 1475q190 0 340.5 -91t231 -242.5t80.5 -332.5q0 -168 -60 -322.5t-164.5 -271t-258.5 -186.5t-330 -70q-190 0 -340.5 91t-231 242.5t-80.5 332.5q0 168 60 322.5t164.5 271t258.5 186.5t330 70zM795 25q210 0 381.5 109.5t265.5 289
t94 387.5q0 121 -42.5 230t-117.5 190.5t-184 129.5t-234 48q-157 0 -296 -64.5t-235.5 -172t-152 -251t-55.5 -298.5q0 -162 72 -298t205 -218t299 -82z" />
    <glyph glyph-name="Ocircumflex" unicode="&#xd4;" horiz-adv-x="1681" 
d="M801 1556h-72l272 277h109l174 -277h-61l-168 234zM958 1475q190 0 340.5 -91t231 -242.5t80.5 -332.5q0 -168 -60 -322.5t-164.5 -271t-258.5 -186.5t-330 -70q-190 0 -340.5 91t-231 242.5t-80.5 332.5q0 168 60 322.5t164.5 271t258.5 186.5t330 70zM795 25
q210 0 381.5 109.5t265.5 289t94 387.5q0 121 -42.5 230t-117.5 190.5t-184 129.5t-234 48q-157 0 -296 -64.5t-235.5 -172t-152 -251t-55.5 -298.5q0 -162 72 -298t205 -218t299 -82z" />
    <glyph glyph-name="Otilde" unicode="&#xd5;" horiz-adv-x="1681" 
d="M727 1577l18 100q13 68 51 112t99 44q44 0 77 -22.5t52 -54.5t36.5 -64.5t42 -55t56.5 -22.5q35 0 60 26t32 72l19 100h59l-18 -100q-13 -69 -51.5 -112.5t-100.5 -43.5q-44 0 -77.5 22.5t-54 55t-38.5 65t-41.5 55t-52.5 22.5q-34 0 -58.5 -26.5t-31.5 -72.5l-19 -100
h-59zM958 1475q190 0 340.5 -91t231 -242.5t80.5 -332.5q0 -168 -60 -322.5t-164.5 -271t-258.5 -186.5t-330 -70q-190 0 -340.5 91t-231 242.5t-80.5 332.5q0 168 60 322.5t164.5 271t258.5 186.5t330 70zM795 25q210 0 381.5 109.5t265.5 289t94 387.5q0 121 -42.5 230
t-117.5 190.5t-184 129.5t-234 48q-157 0 -296 -64.5t-235.5 -172t-152 -251t-55.5 -298.5q0 -162 72 -298t205 -218t299 -82z" />
    <glyph glyph-name="Odieresis" unicode="&#xd6;" horiz-adv-x="1681" 
d="M874 1688q-28 0 -46.5 17t-18.5 44q0 28 18.5 45.5t46.5 17.5t47 -18t19 -45t-19 -44t-47 -17zM1204 1688q-28 0 -46.5 17t-18.5 44q0 28 18.5 45.5t46.5 17.5t47 -18t19 -45t-19 -44t-47 -17zM958 1475q190 0 340.5 -91t231 -242.5t80.5 -332.5q0 -168 -60 -322.5
t-164.5 -271t-258.5 -186.5t-330 -70q-190 0 -340.5 91t-231 242.5t-80.5 332.5q0 168 60 322.5t164.5 271t258.5 186.5t330 70zM795 25q210 0 381.5 109.5t265.5 289t94 387.5q0 121 -42.5 230t-117.5 190.5t-184 129.5t-234 48q-157 0 -296 -64.5t-235.5 -172t-152 -251
t-55.5 -298.5q0 -162 72 -298t205 -218t299 -82z" />
    <glyph glyph-name="multiply" unicode="&#xd7;" 
d="M983 0l-373 471l-536 -471l-43 45l542 475l-372 473l51 39l369 -469l534 469l43 -45l-539 -473l373 -475z" />
    <glyph glyph-name="Oslash" unicode="&#xd8;" horiz-adv-x="1681" 
d="M106 -41h-83l243 225h-2l21 19q-140 182 -140 422q0 168 60 322.5t164.5 271t258.5 186.5t330 70q145 0 266.5 -52t209.5 -147l215 199h82l-242 -226h2l-21 -18q140 -182 140 -422q0 -168 -60 -322.5t-164.5 -271t-258.5 -186.5t-330 -70q-144 0 -265 53t-210 148z
M219 623q0 -208 119 -371l1042 973q-77 87 -185.5 135.5t-236.5 48.5q-157 0 -296 -64.5t-235.5 -172t-152 -251t-55.5 -298.5zM795 25q210 0 381.5 109.5t265.5 289t94 387.5t-119 371l-1042 -973q77 -87 184.5 -135.5t235.5 -48.5z" />
    <glyph glyph-name="Ugrave" unicode="&#xd9;" horiz-adv-x="1421" 
d="M868 1556l-200 277h88l176 -277h-64zM1153 520l160 914h69l-161 -918q-99 -557 -564 -557q-252 0 -377.5 153.5t-74.5 436.5l157 885h70l-153 -881q-45 -261 55 -394.5t321 -133.5q202 0 329 124t169 371z" />
    <glyph glyph-name="Uacute" unicode="&#xda;" horiz-adv-x="1421" 
d="M936 1556h-72l273 277h98zM1153 520l160 914h69l-161 -918q-99 -557 -564 -557q-252 0 -377.5 153.5t-74.5 436.5l157 885h70l-153 -881q-45 -261 55 -394.5t321 -133.5q202 0 329 124t169 371z" />
    <glyph glyph-name="Ucircumflex" unicode="&#xdb;" horiz-adv-x="1421" 
d="M690 1556h-72l273 277h108l175 -277h-62l-168 234zM1153 520l160 914h69l-161 -918q-99 -557 -564 -557q-252 0 -377.5 153.5t-74.5 436.5l157 885h70l-153 -881q-45 -261 55 -394.5t321 -133.5q202 0 329 124t169 371z" />
    <glyph glyph-name="Udieresis" unicode="&#xdc;" horiz-adv-x="1421" 
d="M764 1688q-28 0 -47 17t-19 44t19 45t47 18t46.5 -17.5t18.5 -45.5q0 -27 -18.5 -44t-46.5 -17zM1094 1688q-28 0 -47 17t-19 44t19 45t47 18t46.5 -17.5t18.5 -45.5q0 -27 -18.5 -44t-46.5 -17zM1153 520l160 914h69l-161 -918q-99 -557 -564 -557q-252 0 -377.5 153.5
t-74.5 436.5l157 885h70l-153 -881q-45 -261 55 -394.5t321 -133.5q202 0 329 124t169 371z" />
    <glyph glyph-name="Yacute" unicode="&#xdd;" horiz-adv-x="1259" 
d="M856 1556h-72l273 277h98zM1378 1434l-682 -740l-123 -694h-69l123 698l-420 736h74l387 -678l626 678h84z" />
    <glyph glyph-name="Thorn" unicode="&#xde;" horiz-adv-x="1064" 
d="M150 0l253 1434h70l-59 -332h223q180 0 284.5 -86.5t104.5 -245.5q0 -185 -131 -298.5t-354 -113.5h-258l-64 -358h-69zM637 1036h-234l-108 -612h246q193 0 302 93.5t109 250.5q0 134 -81.5 201t-233.5 67z" />
    <glyph glyph-name="germandbls" unicode="&#xdf;" horiz-adv-x="1122" 
d="M504 -6q-71 0 -135 22l10 62q78 -21 123 -21q199 0 310.5 98.5t111.5 276.5q0 138 -84.5 233t-221.5 95h-96l10 63h99q102 0 186 38t137.5 118.5t53.5 191.5q0 134 -73.5 218t-215.5 84q-130 0 -214 -76.5t-106 -204.5l-209 -1192h-67l211 1198q27 152 129.5 245
t255.5 93q166 0 263 -102t97 -263q0 -144 -87.5 -249t-227.5 -136q115 -42 173 -140.5t58 -213.5q0 -203 -133 -320.5t-358 -117.5z" />
    <glyph glyph-name="agrave" unicode="&#xe0;" horiz-adv-x="1110" 
d="M643 1196l-166 340h82l150 -340h-66zM399 -29q-138 0 -219.5 67.5t-81.5 182.5q0 250 367 311l405 68l19 105q26 146 -45 224.5t-211 78.5q-101 0 -194.5 -46.5t-164.5 -127.5l-53 47q81 90 187 141t225 51q173 0 262 -98.5t59 -269.5l-127 -705h-63l29 158
q-85 -93 -179.5 -140t-214.5 -47zM172 221q0 -81 61 -132.5t166 -51.5q127 0 226.5 58t185.5 171l49 273l-381 -66q-307 -53 -307 -252z" />
    <glyph glyph-name="aacute" unicode="&#xe1;" horiz-adv-x="1110" 
d="M709 1196h-74l268 340h92zM399 -29q-138 0 -219.5 67.5t-81.5 182.5q0 250 367 311l405 68l19 105q26 146 -45 224.5t-211 78.5q-101 0 -194.5 -46.5t-164.5 -127.5l-53 47q81 90 187 141t225 51q173 0 262 -98.5t59 -269.5l-127 -705h-63l29 158q-85 -93 -179.5 -140
t-214.5 -47zM172 221q0 -81 61 -132.5t166 -51.5q127 0 226.5 58t185.5 171l49 273l-381 -66q-307 -53 -307 -252z" />
    <glyph glyph-name="acircumflex" unicode="&#xe2;" horiz-adv-x="1110" 
d="M481 1196h-73l274 340h111l151 -340h-61l-148 301zM399 -29q-138 0 -219.5 67.5t-81.5 182.5q0 250 367 311l405 68l19 105q26 146 -45 224.5t-211 78.5q-101 0 -194.5 -46.5t-164.5 -127.5l-53 47q81 90 187 141t225 51q173 0 262 -98.5t59 -269.5l-127 -705h-63l29 158
q-85 -93 -179.5 -140t-214.5 -47zM172 221q0 -81 61 -132.5t166 -51.5q127 0 226.5 58t185.5 171l49 273l-381 -66q-307 -53 -307 -252z" />
    <glyph glyph-name="atilde" unicode="&#xe3;" horiz-adv-x="1110" 
d="M416 1237h-60l17 102q11 71 58.5 120.5t119.5 49.5q47 0 84 -23.5t61 -57.5t46.5 -67.5t51.5 -57t64 -23.5q46 0 78 30t41 79l18 106h60l-19 -104q-11 -69 -59 -118.5t-119 -49.5q-48 0 -85 23.5t-61.5 57.5t-47 67.5t-51.5 57t-64 23.5q-45 0 -76 -30.5t-39 -78.5z
M399 -29q-138 0 -219.5 67.5t-81.5 182.5q0 250 367 311l405 68l19 105q26 146 -45 224.5t-211 78.5q-101 0 -194.5 -46.5t-164.5 -127.5l-53 47q81 90 187 141t225 51q173 0 262 -98.5t59 -269.5l-127 -705h-63l29 158q-85 -93 -179.5 -140t-214.5 -47zM172 221
q0 -81 61 -132.5t166 -51.5q127 0 226.5 58t185.5 171l49 273l-381 -66q-307 -53 -307 -252z" />
    <glyph glyph-name="adieresis" unicode="&#xe4;" horiz-adv-x="1110" 
d="M561 1413q-28 0 -46.5 17t-18.5 43q0 28 18.5 45.5t46.5 17.5q27 0 45.5 -18t18.5 -45q0 -26 -18.5 -43t-45.5 -17zM889 1413q-28 0 -47 17t-19 43q0 27 19 45t47 18q27 0 45 -18t18 -45q0 -26 -18 -43t-45 -17zM399 -29q-138 0 -219.5 67.5t-81.5 182.5q0 250 367 311
l405 68l19 105q26 146 -45 224.5t-211 78.5q-101 0 -194.5 -46.5t-164.5 -127.5l-53 47q81 90 187 141t225 51q173 0 262 -98.5t59 -269.5l-127 -705h-63l29 158q-85 -93 -179.5 -140t-214.5 -47zM172 221q0 -81 61 -132.5t166 -51.5q127 0 226.5 58t185.5 171l49 273
l-381 -66q-307 -53 -307 -252z" />
    <glyph glyph-name="aring" unicode="&#xe5;" horiz-adv-x="1110" 
d="M688 1139q-88 0 -149.5 58t-61.5 149q0 107 74 181.5t174 74.5q88 0 149.5 -59t61.5 -150q0 -107 -74 -180.5t-174 -73.5zM690 1202q79 0 128.5 54.5t49.5 132.5q0 66 -40.5 107.5t-104.5 41.5q-79 0 -128.5 -55t-49.5 -133q0 -66 40 -107t105 -41zM399 -29
q-138 0 -219.5 67.5t-81.5 182.5q0 250 367 311l405 68l19 105q26 146 -45 224.5t-211 78.5q-101 0 -194.5 -46.5t-164.5 -127.5l-53 47q81 90 187 141t225 51q173 0 262 -98.5t59 -269.5l-127 -705h-63l29 158q-85 -93 -179.5 -140t-214.5 -47zM172 221q0 -81 61 -132.5
t166 -51.5q127 0 226.5 58t185.5 171l49 273l-381 -66q-307 -53 -307 -252z" />
    <glyph glyph-name="ae" unicode="&#xe6;" horiz-adv-x="1904" 
d="M397 -29q-138 0 -219.5 68.5t-81.5 185.5q0 246 367 307l403 68l21 105q27 145 -44 224t-212 79q-101 0 -194.5 -46.5t-164.5 -127.5l-53 47q81 90 187 141t225 51q144 0 231 -70t94 -196q79 122 205 194t277 72q176 0 280.5 -104t104.5 -258q0 -66 -17 -133h-870
q-14 -60 -14 -132q0 -88 26 -164t75 -134t125.5 -91.5t172.5 -33.5q128 0 238 51t176 141l49 -45q-77 -99 -197 -155t-266 -56q-166 0 -278 79t-160 212q-109 -139 -223 -209t-263 -70zM1436 1010q-168 0 -298 -103t-186 -266h795q12 73 -3.5 139.5t-53.5 117.5t-104 81.5
t-150 30.5zM170 225q0 -83 61 -135.5t166 -52.5q98 0 183.5 38t149 97t132.5 150q-12 62 -12 127q0 45 6 88l-379 -64q-307 -53 -307 -248z" />
    <glyph glyph-name="ccedilla" unicode="&#xe7;" horiz-adv-x="1138" 
d="M711 1073q141 0 247.5 -62t161.5 -169l-59 -37q-47 96 -138.5 150.5t-213.5 54.5q-150 0 -274 -78.5t-192.5 -207.5t-68.5 -278q0 -179 114.5 -301t305.5 -122q238 0 379 192l49 -45q-148 -192 -381 -209l-235 -289h-84l241 287q-108 5 -196 46t-145.5 107.5t-88.5 153
t-31 183.5q0 123 45.5 236.5t125 199t194 137t244.5 51.5z" />
    <glyph glyph-name="egrave" unicode="&#xe8;" horiz-adv-x="1159" 
d="M678 1196l-166 340h82l149 -340h-65zM573 -41q-114 0 -205 39t-148.5 106.5t-87.5 155.5t-30 189q0 125 38 237t108.5 198.5t179.5 137.5t242 51q178 0 291.5 -105t113.5 -257q0 -70 -16 -133h-873q-12 -64 -12 -132q0 -88 26 -164t75 -134t125.5 -91.5t172.5 -33.5
q128 0 238 51t176 141l49 -45q-77 -99 -197 -155t-266 -56zM668 1010q-178 0 -299.5 -101.5t-167.5 -267.5h798q22 150 -70.5 259.5t-260.5 109.5z" />
    <glyph glyph-name="eacute" unicode="&#xe9;" horiz-adv-x="1159" 
d="M743 1196h-73l268 340h92zM573 -41q-114 0 -205 39t-148.5 106.5t-87.5 155.5t-30 189q0 125 38 237t108.5 198.5t179.5 137.5t242 51q178 0 291.5 -105t113.5 -257q0 -70 -16 -133h-873q-12 -64 -12 -132q0 -88 26 -164t75 -134t125.5 -91.5t172.5 -33.5q128 0 238 51
t176 141l49 -45q-77 -99 -197 -155t-266 -56zM668 1010q-178 0 -299.5 -101.5t-167.5 -267.5h798q22 150 -70.5 259.5t-260.5 109.5z" />
    <glyph glyph-name="ecircumflex" unicode="&#xea;" horiz-adv-x="1159" 
d="M516 1196h-74l275 340h110l152 -340h-61l-148 301zM573 -41q-114 0 -205 39t-148.5 106.5t-87.5 155.5t-30 189q0 125 38 237t108.5 198.5t179.5 137.5t242 51q178 0 291.5 -105t113.5 -257q0 -70 -16 -133h-873q-12 -64 -12 -132q0 -88 26 -164t75 -134t125.5 -91.5
t172.5 -33.5q128 0 238 51t176 141l49 -45q-77 -99 -197 -155t-266 -56zM668 1010q-178 0 -299.5 -101.5t-167.5 -267.5h798q22 150 -70.5 259.5t-260.5 109.5z" />
    <glyph glyph-name="edieresis" unicode="&#xeb;" horiz-adv-x="1159" 
d="M596 1413q-28 0 -47 17t-19 43q0 27 19 45t47 18q27 0 45 -18t18 -45q0 -26 -18 -43t-45 -17zM924 1413q-28 0 -47 17t-19 43q0 27 19 45t47 18q27 0 45 -18t18 -45q0 -26 -18 -43t-45 -17zM573 -41q-114 0 -205 39t-148.5 106.5t-87.5 155.5t-30 189q0 125 38 237
t108.5 198.5t179.5 137.5t242 51q178 0 291.5 -105t113.5 -257q0 -70 -16 -133h-873q-12 -64 -12 -132q0 -88 26 -164t75 -134t125.5 -91.5t172.5 -33.5q128 0 238 51t176 141l49 -45q-77 -99 -197 -155t-266 -56zM668 1010q-178 0 -299.5 -101.5t-167.5 -267.5h798
q22 150 -70.5 259.5t-260.5 109.5z" />
    <glyph glyph-name="igrave" unicode="&#xec;" horiz-adv-x="493" 
d="M334 1196l-166 340h82l149 -340h-65zM123 0l182 1032h66l-183 -1032h-65z" />
    <glyph glyph-name="iacute" unicode="&#xed;" horiz-adv-x="493" 
d="M399 1196h-73l268 340h92zM123 0l182 1032h66l-183 -1032h-65z" />
    <glyph glyph-name="icircumflex" unicode="&#xee;" horiz-adv-x="493" 
d="M172 1196h-74l275 340h110l152 -340h-62l-147 301zM123 0l182 1032h66l-183 -1032h-65z" />
    <glyph glyph-name="idieresis" unicode="&#xef;" horiz-adv-x="493" 
d="M252 1413q-28 0 -47 17t-19 43q0 27 19 45t47 18q27 0 45 -18t18 -45q0 -26 -18 -43t-45 -17zM580 1413q-28 0 -47 17t-19 43q0 27 19 45t47 18q27 0 45 -18t18 -45q0 -26 -18 -43t-45 -17zM123 0l182 1032h66l-183 -1032h-65z" />
    <glyph glyph-name="eth" unicode="&#xf0;" horiz-adv-x="1259" 
d="M463 1204l12 64l287 104q-108 86 -262 164h110q124 -65 215 -141l383 139l-12 -64l-322 -116q300 -275 300 -715q0 -192 -74 -347.5t-206.5 -244t-297.5 -88.5q-225 0 -359.5 137t-134.5 361q0 125 42 237t117 196t186 133.5t241 49.5q123 0 223.5 -54t167.5 -140
q-54 264 -268 452zM176 455q0 -195 113.5 -313.5t304.5 -118.5q145 0 261 80t181.5 221t65.5 317q0 37 -4 111q-52 106 -161.5 181t-250.5 75q-153 0 -270 -74t-178.5 -199t-61.5 -280z" />
    <glyph glyph-name="ntilde" unicode="&#xf1;" horiz-adv-x="1245" 
d="M483 1237h-59l16 102q11 71 58.5 120.5t119.5 49.5q47 0 84 -23.5t61.5 -57.5t46.5 -67.5t51.5 -57t64.5 -23.5q46 0 77.5 30t40.5 79l19 106h59l-18 -104q-11 -69 -59 -118.5t-119 -49.5q-48 0 -85.5 23.5t-61.5 57.5t-46.5 67.5t-52 57t-64.5 23.5q-45 0 -75.5 -30.5
t-38.5 -78.5zM123 0l182 1032h66l-29 -160q167 201 397 201q188 0 281 -114.5t57 -319.5l-112 -639h-66l113 639q32 178 -43.5 274.5t-229.5 96.5q-248 0 -415 -244l-136 -766h-65z" />
    <glyph glyph-name="ograve" unicode="&#xf2;" horiz-adv-x="1288" 
d="M731 1196l-166 340h82l150 -340h-66zM711 1073q148 0 258 -67.5t164.5 -177t54.5 -244.5q0 -123 -46 -237t-125 -199.5t-193.5 -137t-243.5 -51.5q-148 0 -258 67.5t-165 177.5t-55 245q0 165 77.5 307.5t218.5 229.5t313 87zM582 23q150 0 273.5 78.5t192 207
t68.5 277.5q0 179 -111 301.5t-296 122.5q-150 0 -273.5 -78.5t-192.5 -207.5t-69 -278q0 -179 111.5 -301t296.5 -122z" />
    <glyph glyph-name="oacute" unicode="&#xf3;" horiz-adv-x="1288" 
d="M797 1196h-74l268 340h92zM711 1073q148 0 258 -67.5t164.5 -177t54.5 -244.5q0 -123 -46 -237t-125 -199.5t-193.5 -137t-243.5 -51.5q-148 0 -258 67.5t-165 177.5t-55 245q0 165 77.5 307.5t218.5 229.5t313 87zM582 23q150 0 273.5 78.5t192 207t68.5 277.5
q0 179 -111 301.5t-296 122.5q-150 0 -273.5 -78.5t-192.5 -207.5t-69 -278q0 -179 111.5 -301t296.5 -122z" />
    <glyph glyph-name="ocircumflex" unicode="&#xf4;" horiz-adv-x="1288" 
d="M569 1196h-73l274 340h111l151 -340h-61l-148 301zM711 1073q148 0 258 -67.5t164.5 -177t54.5 -244.5q0 -123 -46 -237t-125 -199.5t-193.5 -137t-243.5 -51.5q-148 0 -258 67.5t-165 177.5t-55 245q0 165 77.5 307.5t218.5 229.5t313 87zM582 23q150 0 273.5 78.5
t192 207t68.5 277.5q0 179 -111 301.5t-296 122.5q-150 0 -273.5 -78.5t-192.5 -207.5t-69 -278q0 -179 111.5 -301t296.5 -122z" />
    <glyph glyph-name="otilde" unicode="&#xf5;" horiz-adv-x="1288" 
d="M506 1237h-60l17 102q11 71 58.5 120.5t119.5 49.5q47 0 84 -23.5t61 -57.5t46.5 -67.5t51.5 -57t64 -23.5q46 0 78 30t41 79l18 106h60l-19 -104q-11 -69 -59 -118.5t-119 -49.5q-48 0 -85 23.5t-61.5 57.5t-47 67.5t-51.5 57t-64 23.5q-45 0 -76 -30.5t-39 -78.5z
M711 1073q148 0 258 -67.5t164.5 -177t54.5 -244.5q0 -123 -46 -237t-125 -199.5t-193.5 -137t-243.5 -51.5q-148 0 -258 67.5t-165 177.5t-55 245q0 165 77.5 307.5t218.5 229.5t313 87zM582 23q150 0 273.5 78.5t192 207t68.5 277.5q0 179 -111 301.5t-296 122.5
q-150 0 -273.5 -78.5t-192.5 -207.5t-69 -278q0 -179 111.5 -301t296.5 -122z" />
    <glyph glyph-name="odieresis" unicode="&#xf6;" horiz-adv-x="1288" 
d="M649 1413q-28 0 -46.5 17t-18.5 43q0 28 18.5 45.5t46.5 17.5q27 0 45.5 -18t18.5 -45q0 -26 -18.5 -43t-45.5 -17zM977 1413q-28 0 -47 17t-19 43q0 27 19 45t47 18q27 0 45 -18t18 -45q0 -26 -18 -43t-45 -17zM711 1073q148 0 258 -67.5t164.5 -177t54.5 -244.5
q0 -123 -46 -237t-125 -199.5t-193.5 -137t-243.5 -51.5q-148 0 -258 67.5t-165 177.5t-55 245q0 165 77.5 307.5t218.5 229.5t313 87zM582 23q150 0 273.5 78.5t192 207t68.5 277.5q0 179 -111 301.5t-296 122.5q-150 0 -273.5 -78.5t-192.5 -207.5t-69 -278
q0 -179 111.5 -301t296.5 -122z" />
    <glyph glyph-name="divide" unicode="&#xf7;" 
d="M696 930q-27 0 -45 17t-18 44q0 26 18.5 44t44.5 18q28 0 46 -18t18 -44q0 -27 -18 -44t-46 -17zM1110 485h-1001l12 64h1001zM528 -20q-27 0 -45 17t-18 44q0 26 18.5 43.5t44.5 17.5q28 0 46 -17.5t18 -43.5q0 -27 -18 -44t-46 -17z" />
    <glyph glyph-name="oslash" unicode="&#xf8;" horiz-adv-x="1288" 
d="M94 -41h-80l183 172l4 4q-99 135 -99 314q0 165 77.5 307.5t218.5 229.5t313 87q212 0 344 -135l141 135h82l-184 -172l-4 -4q98 -134 98 -313q0 -123 -46 -237t-125 -199.5t-193.5 -137t-243.5 -51.5q-212 0 -342 133zM174 446q0 -149 80 -262l747 707
q-113 119 -292 119q-150 0 -273.5 -78.5t-192.5 -207.5t-69 -278zM582 23q150 0 273.5 78.5t192 207t68.5 277.5t-80 262l-747 -707q112 -118 293 -118z" />
    <glyph glyph-name="ugrave" unicode="&#xf9;" horiz-adv-x="1208" 
d="M692 1196l-166 340h82l150 -340h-66zM940 436l107 596h65l-106 -598q-40 -230 -157.5 -352.5t-299.5 -122.5q-206 0 -309 124t-64 351l107 598h65l-106 -596q-35 -198 48 -305.5t259 -107.5q157 0 256 106t135 307z" />
    <glyph glyph-name="uacute" unicode="&#xfa;" horiz-adv-x="1208" 
d="M758 1196h-74l268 340h92zM940 436l107 596h65l-106 -598q-40 -230 -157.5 -352.5t-299.5 -122.5q-206 0 -309 124t-64 351l107 598h65l-106 -596q-35 -198 48 -305.5t259 -107.5q157 0 256 106t135 307z" />
    <glyph glyph-name="ucircumflex" unicode="&#xfb;" horiz-adv-x="1208" 
d="M530 1196h-73l274 340h111l151 -340h-61l-148 301zM940 436l107 596h65l-106 -598q-40 -230 -157.5 -352.5t-299.5 -122.5q-206 0 -309 124t-64 351l107 598h65l-106 -596q-35 -198 48 -305.5t259 -107.5q157 0 256 106t135 307z" />
    <glyph glyph-name="udieresis" unicode="&#xfc;" horiz-adv-x="1208" 
d="M610 1413q-28 0 -46.5 17t-18.5 43q0 28 18.5 45.5t46.5 17.5q27 0 45.5 -18t18.5 -45q0 -26 -18.5 -43t-45.5 -17zM938 1413q-28 0 -47 17t-19 43q0 27 19 45t47 18q27 0 45 -18t18 -45q0 -26 -18 -43t-45 -17zM940 436l107 596h65l-106 -598q-40 -230 -157.5 -352.5
t-299.5 -122.5q-206 0 -309 124t-64 351l107 598h65l-106 -596q-35 -198 48 -305.5t259 -107.5q157 0 256 106t135 307z" />
    <glyph glyph-name="yacute" unicode="&#xfd;" horiz-adv-x="1062" 
d="M686 1196h-74l269 340h92zM319 -270q-76 -127 -159 -184.5t-187 -57.5q-105 0 -161 35l12 67q58 -39 149 -39q170 0 289 201l148 248l-265 1032h72l242 -950l565 950h76z" />
    <glyph glyph-name="thorn" unicode="&#xfe;" horiz-adv-x="1323" 
d="M35 -504l358 2040h66l-113 -641q80 87 182 132.5t209 45.5q147 0 257.5 -63.5t167.5 -171.5t57 -244q0 -176 -75 -321.5t-209 -229.5t-300 -84q-138 0 -246 61t-166 173l-123 -697h-65zM735 1010q-117 0 -224 -55t-183 -162l-90 -512q54 -120 157 -189t238 -69
q221 0 367.5 162.5t146.5 408.5q0 181 -112 298.5t-300 117.5z" />
    <glyph glyph-name="ydieresis" unicode="&#xff;" horiz-adv-x="1062" 
d="M539 1413q-28 0 -47 17t-19 43q0 27 19 45t47 18q27 0 45 -18t18 -45q0 -26 -18 -43t-45 -17zM866 1413q-28 0 -46.5 17t-18.5 43q0 28 18.5 45.5t46.5 17.5q27 0 45.5 -18t18.5 -45q0 -26 -18.5 -43t-45.5 -17zM319 -270q-76 -127 -159 -184.5t-187 -57.5
q-105 0 -161 35l12 67q58 -39 149 -39q170 0 289 201l148 248l-265 1032h72l242 -950l565 950h76z" />
    <glyph glyph-name="Amacron" unicode="&#x100;" horiz-adv-x="1445" 
d="M678 1720l10 58h518l-10 -58h-518zM-8 0l844 1434h100l338 -1434h-70l-112 481h-740l-282 -481h-78zM391 547h686l-194 837z" />
    <glyph glyph-name="amacron" unicode="&#x101;" horiz-adv-x="1110" 
d="M461 1450l10 57h518l-10 -57h-518zM399 -29q-138 0 -219.5 67.5t-81.5 182.5q0 250 367 311l405 68l19 105q26 146 -45 224.5t-211 78.5q-101 0 -194.5 -46.5t-164.5 -127.5l-53 47q81 90 187 141t225 51q173 0 262 -98.5t59 -269.5l-127 -705h-63l29 158
q-85 -93 -179.5 -140t-214.5 -47zM172 221q0 -81 61 -132.5t166 -51.5q127 0 226.5 58t185.5 171l49 273l-381 -66q-307 -53 -307 -252z" />
    <glyph glyph-name="Abreve" unicode="&#x102;" horiz-adv-x="1445" 
d="M928 1597q93 0 157.5 59t90.5 177h67q-25 -142 -114 -219.5t-203 -77.5q-128 0 -200.5 77.5t-51.5 219.5h57q-13 -117 41 -176.5t156 -59.5zM-8 0l844 1434h100l338 -1434h-70l-112 481h-740l-282 -481h-78zM391 547h686l-194 837z" />
    <glyph glyph-name="abreve" unicode="&#x103;" horiz-adv-x="1110" 
d="M700 1257q106 0 167.5 68t86.5 211h66q-23 -165 -109.5 -252.5t-212.5 -87.5q-130 0 -200.5 88.5t-46.5 251.5h57q-17 -140 33.5 -209.5t158.5 -69.5zM399 -29q-138 0 -219.5 67.5t-81.5 182.5q0 250 367 311l405 68l19 105q26 146 -45 224.5t-211 78.5
q-101 0 -194.5 -46.5t-164.5 -127.5l-53 47q81 90 187 141t225 51q173 0 262 -98.5t59 -269.5l-127 -705h-63l29 158q-85 -93 -179.5 -140t-214.5 -47zM172 221q0 -81 61 -132.5t166 -51.5q127 0 226.5 58t185.5 171l49 273l-381 -66q-307 -53 -307 -252z" />
    <glyph glyph-name="Aogonek" unicode="&#x104;" horiz-adv-x="1445" 
d="M-8 0l844 1434h100l338 -1434l-66 -47q-165 -119 -213.5 -171t-48.5 -114q0 -53 37 -81.5t92 -28.5q57 0 127 32l-12 -67q-56 -27 -117 -27q-92 0 -141 48t-49 124q-1 41 14.5 76.5t56 76t85.5 75.5t128 94l33 24l-108 467h-740l-282 -481h-78zM391 547h686l-194 837z
" />
    <glyph glyph-name="aogonek" unicode="&#x105;" horiz-adv-x="1110" 
d="M399 -29q-138 0 -219.5 67.5t-81.5 182.5q0 250 367 311l405 68l19 105q26 146 -45 224.5t-211 78.5q-101 0 -194.5 -46.5t-164.5 -127.5l-53 47q81 90 187 141t225 51q173 0 262 -98.5t59 -269.5l-127 -705l-65 -47q-165 -119 -213.5 -171t-48.5 -114q0 -53 37 -81.5
t92 -28.5q57 0 127 32l-13 -67q-56 -27 -116 -27q-92 0 -141.5 48.5t-49.5 123.5q-1 33 11 64t31.5 57.5t59.5 61t78 63.5t105 76l47 33l25 135q-85 -93 -179.5 -140t-214.5 -47zM172 221q0 -81 61 -132.5t166 -51.5q127 0 226.5 58t185.5 171l49 273l-381 -66
q-307 -53 -307 -252z" />
    <glyph glyph-name="Cacute" unicode="&#x106;" horiz-adv-x="1546" 
d="M1016 1556h-72l273 277h98zM956 1475q181 0 331.5 -85t223.5 -221l-61 -39q-63 125 -199.5 202t-294.5 77q-157 0 -296 -64.5t-235.5 -172t-152 -251t-55.5 -298.5q0 -162 72 -298t205 -218t299 -82q178 0 310.5 64t244.5 194l51 -50q-118 -137 -265.5 -205.5
t-338.5 -68.5q-190 0 -340.5 91t-231 242.5t-80.5 332.5q0 168 60 322.5t164.5 271t258.5 186.5t330 70z" />
    <glyph glyph-name="cacute" unicode="&#x107;" horiz-adv-x="1138" 
d="M760 1196h-74l268 340h93zM711 1073q141 0 247.5 -62t161.5 -169l-59 -37q-47 96 -138.5 150.5t-213.5 54.5q-150 0 -274 -78.5t-192.5 -207.5t-68.5 -278q0 -179 114.5 -301t305.5 -122q238 0 379 192l49 -45q-163 -211 -428 -211q-114 0 -208.5 39t-155.5 106.5
t-94.5 156t-33.5 188.5q0 123 45.5 236.5t125 199t194 137t244.5 51.5z" />
    <glyph glyph-name="Ccircumflex" unicode="&#x108;" horiz-adv-x="1546" 
d="M770 1556h-72l273 277h108l174 -277h-61l-168 234zM956 1475q181 0 331.5 -85t223.5 -221l-61 -39q-63 125 -199.5 202t-294.5 77q-157 0 -296 -64.5t-235.5 -172t-152 -251t-55.5 -298.5q0 -162 72 -298t205 -218t299 -82q178 0 310.5 64t244.5 194l51 -50
q-118 -137 -265.5 -205.5t-338.5 -68.5q-190 0 -340.5 91t-231 242.5t-80.5 332.5q0 168 60 322.5t164.5 271t258.5 186.5t330 70z" />
    <glyph glyph-name="ccircumflex" unicode="&#x109;" horiz-adv-x="1138" 
d="M532 1196h-73l274 340h111l151 -340h-61l-148 301zM711 1073q141 0 247.5 -62t161.5 -169l-59 -37q-47 96 -138.5 150.5t-213.5 54.5q-150 0 -274 -78.5t-192.5 -207.5t-68.5 -278q0 -179 114.5 -301t305.5 -122q238 0 379 192l49 -45q-163 -211 -428 -211
q-114 0 -208.5 39t-155.5 106.5t-94.5 156t-33.5 188.5q0 123 45.5 236.5t125 199t194 137t244.5 51.5z" />
    <glyph glyph-name="Cdotaccent" unicode="&#x10a;" horiz-adv-x="1546" 
d="M1010 1688q-28 0 -47 17t-19 44t19 45t47 18t46.5 -17.5t18.5 -45.5q0 -27 -18.5 -44t-46.5 -17zM956 1475q181 0 331.5 -85t223.5 -221l-61 -39q-63 125 -199.5 202t-294.5 77q-157 0 -296 -64.5t-235.5 -172t-152 -251t-55.5 -298.5q0 -162 72 -298t205 -218t299 -82
q178 0 310.5 64t244.5 194l51 -50q-118 -137 -265.5 -205.5t-338.5 -68.5q-190 0 -340.5 91t-231 242.5t-80.5 332.5q0 168 60 322.5t164.5 271t258.5 186.5t330 70z" />
    <glyph glyph-name="cdotaccent" unicode="&#x10b;" horiz-adv-x="1138" 
d="M776 1413q-28 0 -46.5 17t-18.5 43q0 28 18.5 45.5t46.5 17.5q27 0 45.5 -18t18.5 -45q0 -26 -18.5 -43t-45.5 -17zM711 1073q141 0 247.5 -62t161.5 -169l-59 -37q-47 96 -138.5 150.5t-213.5 54.5q-150 0 -274 -78.5t-192.5 -207.5t-68.5 -278q0 -179 114.5 -301
t305.5 -122q238 0 379 192l49 -45q-163 -211 -428 -211q-114 0 -208.5 39t-155.5 106.5t-94.5 156t-33.5 188.5q0 123 45.5 236.5t125 199t194 137t244.5 51.5z" />
    <glyph glyph-name="Ccaron" unicode="&#x10c;" horiz-adv-x="1546" 
d="M809 1833l168 -234l252 234h74l-271 -277h-110l-174 277h61zM956 1475q181 0 331.5 -85t223.5 -221l-61 -39q-63 125 -199.5 202t-294.5 77q-157 0 -296 -64.5t-235.5 -172t-152 -251t-55.5 -298.5q0 -162 72 -298t205 -218t299 -82q178 0 310.5 64t244.5 194l51 -50
q-118 -137 -265.5 -205.5t-338.5 -68.5q-190 0 -340.5 91t-231 242.5t-80.5 332.5q0 168 60 322.5t164.5 271t258.5 186.5t330 70z" />
    <glyph glyph-name="ccaron" unicode="&#x10d;" horiz-adv-x="1138" 
d="M582 1536l147 -299l250 299h78l-275 -340h-110l-152 340h62zM711 1073q141 0 247.5 -62t161.5 -169l-59 -37q-47 96 -138.5 150.5t-213.5 54.5q-150 0 -274 -78.5t-192.5 -207.5t-68.5 -278q0 -179 114.5 -301t305.5 -122q238 0 379 192l49 -45q-163 -211 -428 -211
q-114 0 -208.5 39t-155.5 106.5t-94.5 156t-33.5 188.5q0 123 45.5 236.5t125 199t194 137t244.5 51.5z" />
    <glyph glyph-name="Dcaron" unicode="&#x10e;" horiz-adv-x="1603" 
d="M821 1833l168 -234l252 234h74l-271 -277h-110l-174 277h61zM150 0l253 1434h449q156 0 283.5 -46t214 -129t133.5 -199t47 -255q0 -125 -37 -243.5t-111.5 -220t-177 -178t-242 -120t-298.5 -43.5h-514zM852 1368h-391l-230 -1302h433q180 0 331.5 61.5t251 164.5
t154.5 235t55 276q0 253 -164 409t-440 156z" />
    <glyph glyph-name="dcaron" unicode="&#x10f;" horiz-adv-x="1316" 
d="M104 438q0 176 75 321.5t209 229.5t300 84q139 0 247.5 -62t166.5 -175l123 700h65l-270 -1536h-66l25 139q-80 -88 -183 -134t-210 -46q-147 0 -257.5 63.5t-167.5 171.5t-57 244zM1393 1155h-68l248 381h82zM176 438q0 -181 112 -298t300 -117q117 0 224.5 55
t184.5 164l88 508q-52 121 -155.5 190.5t-239.5 69.5q-221 0 -367.5 -163t-146.5 -409z" />
    <glyph glyph-name="Dcroat" unicode="&#x110;" horiz-adv-x="1603" 
d="M150 0l124 707h-239l10 57h240l118 670h449q156 0 283.5 -46t214 -129t133.5 -199t47 -255q0 -125 -37 -243.5t-111.5 -220t-177 -178t-242 -120t-298.5 -43.5h-514zM852 1368h-391l-107 -604h414l-10 -57h-414l-113 -641h433q180 0 331.5 61.5t251 164.5t154.5 235
t55 276q0 253 -164 409t-440 156z" />
    <glyph glyph-name="dcroat" unicode="&#x111;" horiz-adv-x="1316" 
d="M104 438q0 176 75 321.5t209 229.5t300 84q139 0 247.5 -62t166.5 -175l69 403h-430l11 57h430l43 240h65l-43 -240h209l-10 -57h-209l-217 -1239h-66l25 139q-80 -88 -183 -134t-210 -46q-147 0 -257.5 63.5t-167.5 171.5t-57 244zM176 438q0 -181 112 -298t300 -117
q117 0 224.5 55t184.5 164l88 508q-52 121 -155.5 190.5t-239.5 69.5q-221 0 -367.5 -163t-146.5 -409z" />
    <glyph glyph-name="Emacron" unicode="&#x112;" horiz-adv-x="1069" 
d="M489 1720l11 58h518l-10 -58h-519zM150 0l253 1434h668l-10 -66h-600l-107 -606h520l-12 -64h-520l-111 -632h598l-10 -66h-669z" />
    <glyph glyph-name="emacron" unicode="&#x113;" horiz-adv-x="1159" 
d="M496 1450l10 57h518l-10 -57h-518zM573 -41q-114 0 -205 39t-148.5 106.5t-87.5 155.5t-30 189q0 125 38 237t108.5 198.5t179.5 137.5t242 51q178 0 291.5 -105t113.5 -257q0 -70 -16 -133h-873q-12 -64 -12 -132q0 -88 26 -164t75 -134t125.5 -91.5t172.5 -33.5
q128 0 238 51t176 141l49 -45q-77 -99 -197 -155t-266 -56zM668 1010q-178 0 -299.5 -101.5t-167.5 -267.5h798q22 150 -70.5 259.5t-260.5 109.5z" />
    <glyph glyph-name="Ebreve" unicode="&#x114;" horiz-adv-x="1069" 
d="M739 1597q93 0 157.5 59t90.5 177h68q-25 -142 -114 -219.5t-204 -77.5q-128 0 -200.5 77.5t-51.5 219.5h58q-13 -117 40.5 -176.5t155.5 -59.5zM150 0l253 1434h668l-10 -66h-600l-107 -606h520l-12 -64h-520l-111 -632h598l-10 -66h-669z" />
    <glyph glyph-name="ebreve" unicode="&#x115;" horiz-adv-x="1159" 
d="M735 1257q106 0 167.5 68t86.5 211h66q-23 -165 -109.5 -252.5t-212.5 -87.5q-130 0 -201 88.5t-47 251.5h58q-17 -140 33.5 -209.5t158.5 -69.5zM573 -41q-114 0 -205 39t-148.5 106.5t-87.5 155.5t-30 189q0 125 38 237t108.5 198.5t179.5 137.5t242 51
q178 0 291.5 -105t113.5 -257q0 -70 -16 -133h-873q-12 -64 -12 -132q0 -88 26 -164t75 -134t125.5 -91.5t172.5 -33.5q128 0 238 51t176 141l49 -45q-77 -99 -197 -155t-266 -56zM668 1010q-178 0 -299.5 -101.5t-167.5 -267.5h798q22 150 -70.5 259.5t-260.5 109.5z" />
    <glyph glyph-name="Edotaccent" unicode="&#x116;" horiz-adv-x="1069" 
d="M754 1688q-28 0 -47 17t-19 44t19 45t47 18t46.5 -17.5t18.5 -45.5q0 -27 -18.5 -44t-46.5 -17zM150 0l253 1434h668l-10 -66h-600l-107 -606h520l-12 -64h-520l-111 -632h598l-10 -66h-669z" />
    <glyph glyph-name="edotaccent" unicode="&#x117;" horiz-adv-x="1159" 
d="M760 1413q-28 0 -47 17t-19 43q0 27 19 45t47 18q27 0 45 -18t18 -45q0 -26 -18 -43t-45 -17zM573 -41q-114 0 -205 39t-148.5 106.5t-87.5 155.5t-30 189q0 125 38 237t108.5 198.5t179.5 137.5t242 51q178 0 291.5 -105t113.5 -257q0 -70 -16 -133h-873
q-12 -64 -12 -132q0 -88 26 -164t75 -134t125.5 -91.5t172.5 -33.5q128 0 238 51t176 141l49 -45q-77 -99 -197 -155t-266 -56zM668 1010q-178 0 -299.5 -101.5t-167.5 -267.5h798q22 150 -70.5 259.5t-260.5 109.5z" />
    <glyph glyph-name="Eogonek" unicode="&#x118;" horiz-adv-x="1069" 
d="M150 0l253 1434h668l-10 -66h-600l-107 -606h520l-12 -64h-520l-111 -632h598l-10 -66h-2l-65 -47q-166 -119 -214.5 -171t-48.5 -114q0 -53 37 -81.5t92 -28.5q57 0 127 32l-12 -67q-56 -27 -117 -27q-92 0 -141 48t-49 124q-1 33 11 64t31.5 57.5t59.5 61t78 63.5
t105 76l14 10h-575z" />
    <glyph glyph-name="eogonek" unicode="&#x119;" horiz-adv-x="1159" 
d="M408 -332q-1 73 53.5 134t193.5 161q-54 -4 -82 -4q-114 0 -205 39t-148.5 106.5t-87.5 155.5t-30 189q0 125 38 237t108.5 198.5t179.5 137.5t242 51q178 0 291.5 -105t113.5 -257q0 -70 -16 -133h-873q-12 -64 -12 -132q0 -88 26 -164t75 -134t125.5 -91.5t172.5 -33.5
q128 0 238 51t176 141l49 -45q-88 -117 -243 -174l-60 -43q-165 -119 -213.5 -171t-48.5 -114q0 -53 37 -81.5t92 -28.5q57 0 127 32l-12 -67q-56 -27 -117 -27q-92 0 -141 48t-49 124zM668 1010q-178 0 -299.5 -101.5t-167.5 -267.5h798q22 150 -70.5 259.5t-260.5 109.5z
" />
    <glyph glyph-name="Ecaron" unicode="&#x11a;" horiz-adv-x="1069" 
d="M553 1833l168 -234l252 234h74l-271 -277h-110l-174 277h61zM150 0l253 1434h668l-10 -66h-600l-107 -606h520l-12 -64h-520l-111 -632h598l-10 -66h-669z" />
    <glyph glyph-name="ecaron" unicode="&#x11b;" horiz-adv-x="1159" 
d="M565 1536l148 -299l250 299h77l-274 -340h-111l-151 340h61zM573 -41q-114 0 -205 39t-148.5 106.5t-87.5 155.5t-30 189q0 125 38 237t108.5 198.5t179.5 137.5t242 51q178 0 291.5 -105t113.5 -257q0 -70 -16 -133h-873q-12 -64 -12 -132q0 -88 26 -164t75 -134
t125.5 -91.5t172.5 -33.5q128 0 238 51t176 141l49 -45q-77 -99 -197 -155t-266 -56zM668 1010q-178 0 -299.5 -101.5t-167.5 -267.5h798q22 150 -70.5 259.5t-260.5 109.5z" />
    <glyph glyph-name="Gcircumflex" unicode="&#x11c;" horiz-adv-x="1642" 
d="M784 1556h-71l272 277h109l174 -277h-62l-168 234zM795 -41q-190 0 -340.5 91t-231 242.5t-80.5 332.5q0 168 60.5 322.5t167 271t262.5 186.5t336 70q195 0 341.5 -82t221.5 -219l-62 -39q-64 126 -197 200t-304 74q-160 0 -301 -64.5t-239 -171.5t-155 -251t-57 -299
q0 -162 72 -298t205 -218t299 -82q309 0 550 223l80 450h-460l10 64h532l-98 -551q-259 -252 -612 -252z" />
    <glyph glyph-name="gcircumflex" unicode="&#x11d;" horiz-adv-x="1099" 
d="M430 1196h-74l275 340h110l152 -340h-62l-147 301zM-49 -236q0 193 225 322q-67 36 -67 123q0 68 54.5 125.5t125.5 87.5q-53 46 -82 111t-29 137q0 104 48 195t146.5 150.5t227.5 59.5q92 0 170 -43h404l-13 -63h-313q84 -94 84 -219q0 -77 -28.5 -149.5t-80 -130.5
t-132.5 -93t-177 -35q-99 0 -178 45q-77 -33 -120.5 -82t-43.5 -96q0 -78 94 -78h316q177 0 260.5 -72.5t83.5 -197.5q0 -162 -142.5 -267.5t-390.5 -105.5q-222 0 -332 74t-110 202zM858 748q0 109 -70.5 185.5t-187.5 76.5q-69 0 -126.5 -19.5t-98 -52t-68.5 -76
t-41.5 -92.5t-13.5 -100q0 -110 70 -186t192 -76q160 0 252 102.5t92 237.5zM23 -227q0 -104 90 -161.5t278 -57.5q221 0 343 85.5t122 223.5q0 91 -63.5 147t-210.5 56h-316h-6q-110 -47 -173.5 -130t-63.5 -163z" />
    <glyph glyph-name="Gbreve" unicode="&#x11e;" horiz-adv-x="1642" 
d="M1010 1597q93 0 157 58.5t90 177.5h68q-25 -142 -114 -219.5t-203 -77.5q-128 0 -200.5 77.5t-51.5 219.5h57q-13 -117 41 -176.5t156 -59.5zM795 -41q-190 0 -340.5 91t-231 242.5t-80.5 332.5q0 168 60.5 322.5t167 271t262.5 186.5t336 70q195 0 341.5 -82t221.5 -219
l-62 -39q-64 126 -197 200t-304 74q-160 0 -301 -64.5t-239 -171.5t-155 -251t-57 -299q0 -162 72 -298t205 -218t299 -82q309 0 550 223l80 450h-460l10 64h532l-98 -551q-259 -252 -612 -252z" />
    <glyph glyph-name="gbreve" unicode="&#x11f;" horiz-adv-x="1099" 
d="M649 1257q106 0 167.5 68t86.5 211h66q-23 -165 -109.5 -252.5t-212.5 -87.5q-130 0 -201 88.5t-47 251.5h58q-17 -140 33.5 -209.5t158.5 -69.5zM-49 -236q0 193 225 322q-67 36 -67 123q0 68 54.5 125.5t125.5 87.5q-53 46 -82 111t-29 137q0 104 48 195t146.5 150.5
t227.5 59.5q92 0 170 -43h404l-13 -63h-313q84 -94 84 -219q0 -77 -28.5 -149.5t-80 -130.5t-132.5 -93t-177 -35q-99 0 -178 45q-77 -33 -120.5 -82t-43.5 -96q0 -78 94 -78h316q177 0 260.5 -72.5t83.5 -197.5q0 -162 -142.5 -267.5t-390.5 -105.5q-222 0 -332 74
t-110 202zM858 748q0 109 -70.5 185.5t-187.5 76.5q-69 0 -126.5 -19.5t-98 -52t-68.5 -76t-41.5 -92.5t-13.5 -100q0 -110 70 -186t192 -76q160 0 252 102.5t92 237.5zM23 -227q0 -104 90 -161.5t278 -57.5q221 0 343 85.5t122 223.5q0 91 -63.5 147t-210.5 56h-316h-6
q-110 -47 -173.5 -130t-63.5 -163z" />
    <glyph glyph-name="Gdotaccent" unicode="&#x120;" horiz-adv-x="1642" 
d="M1024 1688q-28 0 -47 17t-19 44t19 45t47 18t47 -18t19 -45t-19 -44t-47 -17zM795 -41q-190 0 -340.5 91t-231 242.5t-80.5 332.5q0 168 60.5 322.5t167 271t262.5 186.5t336 70q195 0 341.5 -82t221.5 -219l-62 -39q-64 126 -197 200t-304 74q-160 0 -301 -64.5
t-239 -171.5t-155 -251t-57 -299q0 -162 72 -298t205 -218t299 -82q309 0 550 223l80 450h-460l10 64h532l-98 -551q-259 -252 -612 -252z" />
    <glyph glyph-name="gdotaccent" unicode="&#x121;" horiz-adv-x="1099" 
d="M674 1413q-28 0 -47 17t-19 43q0 27 19 45t47 18q27 0 45 -18t18 -45q0 -26 -18 -43t-45 -17zM-49 -236q0 193 225 322q-67 36 -67 123q0 68 54.5 125.5t125.5 87.5q-53 46 -82 111t-29 137q0 104 48 195t146.5 150.5t227.5 59.5q92 0 170 -43h404l-13 -63h-313
q84 -94 84 -219q0 -77 -28.5 -149.5t-80 -130.5t-132.5 -93t-177 -35q-99 0 -178 45q-77 -33 -120.5 -82t-43.5 -96q0 -78 94 -78h316q177 0 260.5 -72.5t83.5 -197.5q0 -162 -142.5 -267.5t-390.5 -105.5q-222 0 -332 74t-110 202zM858 748q0 109 -70.5 185.5t-187.5 76.5
q-69 0 -126.5 -19.5t-98 -52t-68.5 -76t-41.5 -92.5t-13.5 -100q0 -110 70 -186t192 -76q160 0 252 102.5t92 237.5zM23 -227q0 -104 90 -161.5t278 -57.5q221 0 343 85.5t122 223.5q0 91 -63.5 147t-210.5 56h-316h-6q-110 -47 -173.5 -130t-63.5 -163z" />
    <glyph glyph-name="Gcedilla" unicode="&#x122;" horiz-adv-x="1642" 
d="M795 -41q-190 0 -340.5 91t-231 242.5t-80.5 332.5q0 168 60.5 322.5t167 271t262.5 186.5t336 70q195 0 341.5 -82t221.5 -219l-62 -39q-64 126 -197 200t-304 74q-160 0 -301 -64.5t-239 -171.5t-155 -251t-57 -299q0 -162 72 -298t205 -218t299 -82q309 0 550 223
l80 450h-460l10 64h532l-98 -551q-259 -252 -612 -252zM535 -504h-74l268 340h92z" />
    <glyph glyph-name="gcedilla" unicode="&#x123;" horiz-adv-x="1099" 
d="M858 1536h74l-268 -340h-93zM-49 -236q0 193 225 322q-67 36 -67 123q0 68 54.5 125.5t125.5 87.5q-53 46 -82 111t-29 137q0 104 48 195t146.5 150.5t227.5 59.5q92 0 170 -43h404l-13 -63h-313q84 -94 84 -219q0 -77 -28.5 -149.5t-80 -130.5t-132.5 -93t-177 -35
q-99 0 -178 45q-77 -33 -120.5 -82t-43.5 -96q0 -78 94 -78h316q177 0 260.5 -72.5t83.5 -197.5q0 -162 -142.5 -267.5t-390.5 -105.5q-222 0 -332 74t-110 202zM858 748q0 109 -70.5 185.5t-187.5 76.5q-69 0 -126.5 -19.5t-98 -52t-68.5 -76t-41.5 -92.5t-13.5 -100
q0 -110 70 -186t192 -76q160 0 252 102.5t92 237.5zM23 -227q0 -104 90 -161.5t278 -57.5q221 0 343 85.5t122 223.5q0 91 -63.5 147t-210.5 56h-316h-6q-110 -47 -173.5 -130t-63.5 -163z" />
    <glyph glyph-name="Hcircumflex" unicode="&#x124;" horiz-adv-x="1638" 
d="M799 1556h-72l272 277h109l174 -277h-61l-168 234zM150 0l253 1434h70l-119 -672h1020l119 672h70l-254 -1434h-70l123 698h-1020l-123 -698h-69z" />
    <glyph glyph-name="hcircumflex" unicode="&#x125;" horiz-adv-x="1245" 
d="M621 1659h-72l272 276h109l174 -276h-62l-168 233zM123 0l270 1536h66l-117 -664q164 201 397 201q188 0 281 -114.5t57 -319.5l-112 -639h-66l113 639q32 178 -43.5 274.5t-229.5 96.5q-248 0 -415 -244l-136 -766h-65z" />
    <glyph glyph-name="Hbar" unicode="&#x126;" horiz-adv-x="1638" 
d="M150 0l194 1094h-242l11 59h241l49 281h70l-49 -281h1020l49 281h70l-50 -281h240l-10 -59h-240l-194 -1094h-70l123 698h-1020l-123 -698h-69zM354 762h1020l60 332h-1020z" />
    <glyph glyph-name="hbar" unicode="&#x127;" horiz-adv-x="1245" 
d="M123 0l217 1239h-211l10 57h211l43 240h66l-43 -240h426l-11 -57h-425l-64 -367q164 201 397 201q188 0 281 -114.5t57 -319.5l-112 -639h-66l113 639q32 178 -43.5 274.5t-229.5 96.5q-248 0 -415 -244l-136 -766h-65z" />
    <glyph glyph-name="Itilde" unicode="&#x128;" horiz-adv-x="548" 
d="M180 1577l19 100q13 69 50.5 112.5t98.5 43.5q44 0 77 -22.5t52 -54.5t36.5 -64.5t42 -55t56.5 -22.5q35 0 60.5 26t32.5 72l18 100h59l-18 -100q-13 -69 -51.5 -112.5t-100.5 -43.5q-44 0 -77.5 22.5t-54 55t-38.5 65t-41.5 55t-52.5 22.5q-34 0 -58.5 -26.5
t-31.5 -72.5l-18 -100h-60zM150 0l253 1434h70l-254 -1434h-69z" />
    <glyph glyph-name="itilde" unicode="&#x129;" horiz-adv-x="493" 
d="M109 1237h-60l17 102q11 71 58.5 120.5t119.5 49.5q47 0 84 -23.5t61 -57.5t46.5 -67.5t51.5 -57t64 -23.5q46 0 78 30t41 79l18 106h60l-19 -104q-11 -69 -59 -118.5t-119 -49.5q-48 0 -85 23.5t-61.5 57.5t-47 67.5t-51.5 57t-64 23.5q-45 0 -76 -30.5t-39 -78.5z
M123 0l182 1032h66l-183 -1032h-65z" />
    <glyph glyph-name="Imacron" unicode="&#x12a;" horiz-adv-x="548" 
d="M229 1720l11 58h518l-10 -58h-519zM150 0l253 1434h70l-254 -1434h-69z" />
    <glyph glyph-name="imacron" unicode="&#x12b;" horiz-adv-x="493" 
d="M152 1450l10 57h518l-10 -57h-518zM123 0l182 1032h66l-183 -1032h-65z" />
    <glyph glyph-name="Ibreve" unicode="&#x12c;" horiz-adv-x="548" 
d="M479 1597q93 0 157.5 59t90.5 177h68q-25 -142 -114 -219.5t-204 -77.5q-128 0 -200.5 77.5t-51.5 219.5h58q-13 -117 40.5 -176.5t155.5 -59.5zM150 0l253 1434h70l-254 -1434h-69z" />
    <glyph glyph-name="ibreve" unicode="&#x12d;" horiz-adv-x="493" 
d="M391 1257q106 0 167.5 68t86.5 211h66q-23 -165 -109.5 -252.5t-212.5 -87.5q-130 0 -201 88.5t-47 251.5h58q-17 -140 33.5 -209.5t158.5 -69.5zM123 0l182 1032h66l-183 -1032h-65z" />
    <glyph glyph-name="Iogonek" unicode="&#x12e;" horiz-adv-x="548" 
d="M-172 -332q-1 33 11 64t31.5 57.5t59.5 61t78 63.5t105 76l41 28l249 1416h70l-254 -1434l-65 -47q-166 -119 -214.5 -171t-48.5 -114q0 -53 37 -81.5t92 -28.5q57 0 127 32l-12 -67q-56 -27 -117 -27q-92 0 -141 48t-49 124z" />
    <glyph glyph-name="iogonek" unicode="&#x12f;" horiz-adv-x="493" 
d="M416 1413q-27 0 -45.5 17.5t-18.5 44.5q0 26 18.5 43.5t45.5 17.5q28 0 45.5 -17.5t17.5 -43.5q0 -28 -17.5 -45t-45.5 -17zM-203 -332q-1 33 11 64t31.5 57.5t59.5 61t78 63.5t105 76l45 30l178 1012h66l-183 -1032l-65 -47q-165 -119 -213.5 -171t-48.5 -114
q0 -53 37 -81.5t92 -28.5q57 0 127 32l-13 -67q-56 -27 -116 -27q-92 0 -141.5 48.5t-49.5 123.5z" />
    <glyph glyph-name="Idotaccent" unicode="&#x130;" horiz-adv-x="548" 
d="M494 1688q-28 0 -47 17t-19 44t19 45t47 18t46.5 -17.5t18.5 -45.5q0 -27 -18.5 -44t-46.5 -17zM150 0l253 1434h70l-254 -1434h-69z" />
    <glyph glyph-name="dotlessi" unicode="&#x131;" horiz-adv-x="493" 
d="M123 0l182 1032h66l-183 -1032h-65z" />
    <glyph glyph-name="IJ" unicode="&#x132;" horiz-adv-x="1124" 
d="M150 0l253 1434h70l-254 -1434h-69zM807 41q-34 -191 -119 -269.5t-229 -78.5q-87 0 -135 22l12 62q54 -21 123 -21q56 0 97 12t77.5 42.5t61.5 88t40 142.5l246 1393h70z" />
    <glyph glyph-name="ij" unicode="&#x133;" horiz-adv-x="987" 
d="M416 1413q-27 0 -45.5 17.5t-18.5 44.5q0 26 18.5 43.5t45.5 17.5q28 0 45.5 -17.5t17.5 -43.5q0 -28 -17.5 -45t-45.5 -17zM909 1413q-27 0 -45 17.5t-18 44.5q0 26 18.5 43.5t44.5 17.5q28 0 46 -17.5t18 -43.5q0 -28 -18 -45t-46 -17zM123 0l182 1032h66l-183 -1032
h-65zM649 -190q-17 -97 -49.5 -162t-81 -99t-102 -47.5t-125.5 -13.5q-95 0 -160 35l10 63q72 -35 150 -35q47 0 80.5 4.5t70.5 20.5t62.5 44.5t47 80t34.5 123.5l213 1208h65z" />
    <glyph glyph-name="Jcircumflex" unicode="&#x134;" horiz-adv-x="575" 
d="M283 1556h-72l272 277h109l174 -277h-61l-168 234zM258 41q-34 -191 -119 -269.5t-229 -78.5q-87 0 -135 22l12 62q54 -21 123 -21q56 0 97 12t77.5 42.5t61.5 88t40 142.5l246 1393h70z" />
    <glyph glyph-name="jcircumflex" unicode="&#x135;" horiz-adv-x="493" 
d="M172 1196h-74l275 340h110l152 -340h-62l-147 301zM156 -190q-17 -97 -50 -162t-81.5 -99t-102 -47.5t-125.5 -13.5q-94 0 -159 35l10 63q72 -35 149 -35q47 0 80.5 4.5t70.5 20.5t62.5 44.5t47 80t34.5 123.5l213 1208h66z" />
    <glyph glyph-name="Kcedilla" unicode="&#x136;" horiz-adv-x="1366" 
d="M150 0l253 1434h70l-147 -830l1007 830h99l-701 -580l486 -854h-87l-452 811l-369 -305l-90 -506h-69zM393 -504h-74l269 340h92z" />
    <glyph glyph-name="kcedilla" unicode="&#x137;" horiz-adv-x="1054" 
d="M123 0l270 1536h66l-191 -1083l701 579h94l-504 -418l344 -614h-74l-319 571l-258 -215l-64 -356h-65zM248 -504h-74l268 340h93z" />
    <glyph glyph-name="kra" unicode="&#x138;" horiz-adv-x="1054" 
d="M123 0l182 1032h66l-103 -581l703 581h92l-504 -418l344 -614h-74l-319 571l-258 -215l-64 -356h-65z" />
    <glyph glyph-name="Lacute" unicode="&#x139;" horiz-adv-x="989" 
d="M504 1556h-72l273 277h98zM150 0l253 1434h70l-242 -1368h598l-10 -66h-669z" />
    <glyph glyph-name="lacute" unicode="&#x13a;" horiz-adv-x="493" 
d="M492 1659h-72l272 276h99zM123 0l272 1536h66l-273 -1536h-65z" />
    <glyph glyph-name="Lcedilla" unicode="&#x13b;" horiz-adv-x="989" 
d="M150 0l253 1434h70l-242 -1368h598l-10 -66h-669zM236 -504h-74l268 340h92z" />
    <glyph glyph-name="lcedilla" unicode="&#x13c;" horiz-adv-x="493" 
d="M123 0l272 1536h66l-273 -1536h-65zM-106 -504h-74l268 340h92z" />
    <glyph glyph-name="Lcaron" unicode="&#x13d;" horiz-adv-x="989" 
d="M150 0l253 1434h70l-242 -1368h598l-10 -66h-669zM575 1053h-67l248 381h82z" />
    <glyph glyph-name="lcaron" unicode="&#x13e;" horiz-adv-x="493" 
d="M123 0l272 1536h66l-273 -1536h-65zM563 1155h-67l247 381h82z" />
    <glyph glyph-name="Ldot" unicode="&#x13f;" horiz-adv-x="989" 
d="M150 0l253 1434h70l-242 -1368h598l-10 -66h-669zM821 692q-32 0 -51.5 19.5t-19.5 50.5t19.5 50t51.5 19t52 -19t20 -50t-20 -50.5t-52 -19.5z" />
    <glyph glyph-name="ldot" unicode="&#x140;" horiz-adv-x="493" 
d="M123 0l272 1536h66l-273 -1536h-65zM510 457q-32 0 -52 19t-20 50t20 50.5t52 19.5t52 -19.5t20 -50.5t-20 -50t-52 -19z" />
    <glyph glyph-name="Lslash" unicode="&#x141;" horiz-adv-x="989" 
d="M150 0l106 600l-262 -127l10 66l264 129l135 766h70l-129 -729l457 223l-13 -68l-456 -223l-101 -571h598l-10 -66h-669z" />
    <glyph glyph-name="lslash" unicode="&#x142;" horiz-adv-x="493" 
d="M123 0l145 819l-233 -112l10 65l236 115l114 649h66l-109 -614l234 112l-13 -65l-233 -113l-152 -856h-65z" />
    <glyph glyph-name="Nacute" unicode="&#x143;" horiz-adv-x="1638" 
d="M1044 1556h-71l272 277h98zM150 0l253 1434h93l755 -1362l242 1362h70l-254 -1434h-95l-755 1358l-240 -1358h-69z" />
    <glyph glyph-name="nacute" unicode="&#x144;" horiz-adv-x="1245" 
d="M776 1196h-74l269 340h92zM123 0l182 1032h66l-29 -160q167 201 397 201q188 0 281 -114.5t57 -319.5l-112 -639h-66l113 639q32 178 -43.5 274.5t-229.5 96.5q-248 0 -415 -244l-136 -766h-65z" />
    <glyph glyph-name="Ncedilla" unicode="&#x145;" horiz-adv-x="1638" 
d="M150 0l253 1434h93l755 -1362l242 1362h70l-254 -1434h-95l-755 1358l-240 -1358h-69zM467 -504h-74l269 340h92z" />
    <glyph glyph-name="ncedilla" unicode="&#x146;" horiz-adv-x="1245" 
d="M123 0l182 1032h66l-29 -160q167 201 397 201q188 0 281 -114.5t57 -319.5l-112 -639h-66l113 639q32 178 -43.5 274.5t-229.5 96.5q-248 0 -415 -244l-136 -766h-65zM291 -504h-74l268 340h93z" />
    <glyph glyph-name="Ncaron" unicode="&#x147;" horiz-adv-x="1638" 
d="M838 1833l168 -234l251 234h74l-270 -277h-111l-174 277h62zM150 0l253 1434h93l755 -1362l242 1362h70l-254 -1434h-95l-755 1358l-240 -1358h-69z" />
    <glyph glyph-name="ncaron" unicode="&#x148;" horiz-adv-x="1245" 
d="M598 1536l147 -299l250 299h78l-274 -340h-111l-151 340h61zM123 0l182 1032h66l-29 -160q167 201 397 201q188 0 281 -114.5t57 -319.5l-112 -639h-66l113 639q32 178 -43.5 274.5t-229.5 96.5q-248 0 -415 -244l-136 -766h-65z" />
    <glyph glyph-name="napostrophe" unicode="&#x149;" horiz-adv-x="1798" 
d="M297 934h-64l242 500h84zM676 0l182 1032h66l-29 -160q167 201 397 201q188 0 281 -114.5t57 -319.5l-112 -639h-66l113 639q32 178 -43.5 274.5t-229.5 96.5q-248 0 -415 -244l-136 -766h-65z" />
    <glyph glyph-name="Eng" unicode="&#x14a;" horiz-adv-x="1638" 
d="M150 0l253 1434h89l763 -1338l236 1338h70l-250 -1434q-34 -191 -118.5 -269.5t-227.5 -78.5q-83 0 -138 22l13 62q54 -21 123 -21q114 0 180.5 59.5t95.5 221.5l-778 1364l-242 -1360h-69z" />
    <glyph glyph-name="eng" unicode="&#x14b;" horiz-adv-x="1245" 
d="M123 0l182 1032h66l-29 -160q167 201 397 201q188 0 281 -114.5t57 -319.5l-145 -829q-17 -97 -50 -162t-81.5 -99t-102 -47.5t-125.5 -13.5q-94 0 -159 35l10 63q72 -35 149 -35q47 0 80.5 4.5t70.5 20.5t62.5 44.5t47 80t34.5 123.5l144 815q32 178 -43.5 274.5
t-229.5 96.5q-248 0 -415 -244l-136 -766h-65z" />
    <glyph glyph-name="Omacron" unicode="&#x14c;" horiz-adv-x="1681" 
d="M776 1720l10 58h519l-11 -58h-518zM958 1475q190 0 340.5 -91t231 -242.5t80.5 -332.5q0 -168 -60 -322.5t-164.5 -271t-258.5 -186.5t-330 -70q-190 0 -340.5 91t-231 242.5t-80.5 332.5q0 168 60 322.5t164.5 271t258.5 186.5t330 70zM795 25q210 0 381.5 109.5
t265.5 289t94 387.5q0 121 -42.5 230t-117.5 190.5t-184 129.5t-234 48q-157 0 -296 -64.5t-235.5 -172t-152 -251t-55.5 -298.5q0 -162 72 -298t205 -218t299 -82z" />
    <glyph glyph-name="omacron" unicode="&#x14d;" horiz-adv-x="1288" 
d="M549 1450l10 57h518l-10 -57h-518zM711 1073q148 0 258 -67.5t164.5 -177t54.5 -244.5q0 -123 -46 -237t-125 -199.5t-193.5 -137t-243.5 -51.5q-148 0 -258 67.5t-165 177.5t-55 245q0 165 77.5 307.5t218.5 229.5t313 87zM582 23q150 0 273.5 78.5t192 207t68.5 277.5
q0 179 -111 301.5t-296 122.5q-150 0 -273.5 -78.5t-192.5 -207.5t-69 -278q0 -179 111.5 -301t296.5 -122z" />
    <glyph glyph-name="Obreve" unicode="&#x14e;" horiz-adv-x="1681" 
d="M1026 1597q93 0 157.5 59t90.5 177h67q-25 -142 -114 -219.5t-203 -77.5q-128 0 -200.5 77.5t-51.5 219.5h57q-13 -117 41 -176.5t156 -59.5zM958 1475q190 0 340.5 -91t231 -242.5t80.5 -332.5q0 -168 -60 -322.5t-164.5 -271t-258.5 -186.5t-330 -70q-190 0 -340.5 91
t-231 242.5t-80.5 332.5q0 168 60 322.5t164.5 271t258.5 186.5t330 70zM795 25q210 0 381.5 109.5t265.5 289t94 387.5q0 121 -42.5 230t-117.5 190.5t-184 129.5t-234 48q-157 0 -296 -64.5t-235.5 -172t-152 -251t-55.5 -298.5q0 -162 72 -298t205 -218t299 -82z" />
    <glyph glyph-name="obreve" unicode="&#x14f;" horiz-adv-x="1288" 
d="M788 1257q106 0 167.5 68t86.5 211h66q-23 -165 -109.5 -252.5t-212.5 -87.5q-130 0 -200.5 88.5t-46.5 251.5h57q-17 -140 33.5 -209.5t158.5 -69.5zM711 1073q148 0 258 -67.5t164.5 -177t54.5 -244.5q0 -123 -46 -237t-125 -199.5t-193.5 -137t-243.5 -51.5
q-148 0 -258 67.5t-165 177.5t-55 245q0 165 77.5 307.5t218.5 229.5t313 87zM582 23q150 0 273.5 78.5t192 207t68.5 277.5q0 179 -111 301.5t-296 122.5q-150 0 -273.5 -78.5t-192.5 -207.5t-69 -278q0 -179 111.5 -301t296.5 -122z" />
    <glyph glyph-name="Ohungarumlaut" unicode="&#x150;" horiz-adv-x="1681" 
d="M866 1556h-69l274 277h94zM1214 1556h-69l272 277h96zM958 1475q190 0 340.5 -91t231 -242.5t80.5 -332.5q0 -168 -60 -322.5t-164.5 -271t-258.5 -186.5t-330 -70q-190 0 -340.5 91t-231 242.5t-80.5 332.5q0 168 60 322.5t164.5 271t258.5 186.5t330 70zM795 25
q210 0 381.5 109.5t265.5 289t94 387.5q0 121 -42.5 230t-117.5 190.5t-184 129.5t-234 48q-157 0 -296 -64.5t-235.5 -172t-152 -251t-55.5 -298.5q0 -162 72 -298t205 -218t299 -82z" />
    <glyph glyph-name="ohungarumlaut" unicode="&#x151;" horiz-adv-x="1288" 
d="M608 1196h-73l270 340h90zM942 1196h-72l269 340h90zM711 1073q148 0 258 -67.5t164.5 -177t54.5 -244.5q0 -123 -46 -237t-125 -199.5t-193.5 -137t-243.5 -51.5q-148 0 -258 67.5t-165 177.5t-55 245q0 165 77.5 307.5t218.5 229.5t313 87zM582 23q150 0 273.5 78.5
t192 207t68.5 277.5q0 179 -111 301.5t-296 122.5q-150 0 -273.5 -78.5t-192.5 -207.5t-69 -278q0 -179 111.5 -301t296.5 -122z" />
    <glyph glyph-name="OE" unicode="&#x152;" horiz-adv-x="2121" 
d="M147 629q0 125 37.5 243.5t111.5 220t177 178t242.5 120t298.5 43.5h1112l-12 -66h-601l-106 -606h520l-12 -64h-520l-111 -632h600l-12 -66h-1047q-156 0 -283.5 46t-214 129t-133.5 199t-47 255zM825 66h392l227 1302h-430q-144 0 -271.5 -40t-221.5 -110t-162.5 -163
t-103 -201.5t-34.5 -222.5q0 -253 164 -409t440 -156z" />
    <glyph glyph-name="oe" unicode="&#x153;" horiz-adv-x="2160" 
d="M711 1073q181 0 299.5 -98t156.5 -258q69 160 209.5 258t317.5 98q176 0 280.5 -104t104.5 -258q0 -66 -17 -133h-870q-14 -60 -14 -132q0 -88 26 -164t75 -134t125.5 -91.5t172.5 -33.5q128 0 238 51t176 141l49 -45q-77 -99 -197 -155t-266 -56q-185 0 -301.5 98.5
t-151.5 259.5q-73 -161 -218.5 -259.5t-330.5 -98.5q-147 0 -256.5 67.5t-164 177.5t-54.5 245q0 123 46 236.5t125.5 199t194.5 137t245 51.5zM578 23q150 0 274.5 78.5t193 207t68.5 277.5q0 116 -48 212t-141.5 154t-215.5 58q-150 0 -274.5 -78.5t-193.5 -207.5
t-69 -278q0 -116 48 -211.5t142 -153.5t216 -58zM1692 1010q-168 0 -298 -103t-186 -266h795q12 73 -3.5 139.5t-53.5 117.5t-104 81.5t-150 30.5z" />
    <glyph glyph-name="Racute" unicode="&#x154;" horiz-adv-x="1204" 
d="M827 1556h-71l272 277h98zM150 0l253 1434h254q183 0 286.5 -86t103.5 -246q0 -148 -88 -253t-242 -140l354 -709h-84l-340 694q-54 -4 -86 -4h-219l-123 -690h-69zM657 1368h-196l-109 -612h209q193 0 302.5 93.5t109.5 250.5q0 134 -82 201t-234 67z" />
    <glyph glyph-name="racute" unicode="&#x155;" horiz-adv-x="768" 
d="M582 1196h-74l268 340h92zM123 0l182 1032h66l-29 -168q84 98 164.5 143.5t179.5 45.5q56 0 96 -13l-12 -61q-43 12 -86 12q-102 0 -184.5 -53.5t-175.5 -173.5l-136 -764h-65z" />
    <glyph glyph-name="Rcedilla" unicode="&#x156;" horiz-adv-x="1204" 
d="M150 0l253 1434h254q183 0 286.5 -86t103.5 -246q0 -148 -88 -253t-242 -140l354 -709h-84l-340 694q-54 -4 -86 -4h-219l-123 -690h-69zM657 1368h-196l-109 -612h209q193 0 302.5 93.5t109.5 250.5q0 134 -82 201t-234 67zM311 -504h-73l268 340h92z" />
    <glyph glyph-name="rcedilla" unicode="&#x157;" horiz-adv-x="768" 
d="M123 0l182 1032h66l-29 -168q84 98 164.5 143.5t179.5 45.5q56 0 96 -13l-12 -61q-43 12 -86 12q-102 0 -184.5 -53.5t-175.5 -173.5l-136 -764h-65zM-109 -504h-73l268 340h92z" />
    <glyph glyph-name="Rcaron" unicode="&#x158;" horiz-adv-x="1204" 
d="M621 1833l167 -234l252 234h74l-270 -277h-111l-174 277h62zM150 0l253 1434h254q183 0 286.5 -86t103.5 -246q0 -148 -88 -253t-242 -140l354 -709h-84l-340 694q-54 -4 -86 -4h-219l-123 -690h-69zM657 1368h-196l-109 -612h209q193 0 302.5 93.5t109.5 250.5
q0 134 -82 201t-234 67z" />
    <glyph glyph-name="rcaron" unicode="&#x159;" horiz-adv-x="768" 
d="M403 1536l148 -299l250 299h78l-275 -340h-110l-152 340h61zM123 0l182 1032h66l-29 -168q84 98 164.5 143.5t179.5 45.5q56 0 96 -13l-12 -61q-43 12 -86 12q-102 0 -184.5 -53.5t-175.5 -173.5l-136 -764h-65z" />
    <glyph glyph-name="Sacute" unicode="&#x15a;" horiz-adv-x="1167" 
d="M809 1556h-72l273 277h98zM416 1106q0 -71 30 -131t77.5 -103t105 -83.5t115 -82.5t105 -89.5t77.5 -114.5t30 -148q0 -169 -118 -282t-306 -113q-276 0 -421 231l59 41q133 -204 362 -204q160 0 256.5 95t96.5 232q0 72 -30 132.5t-77.5 104t-105.5 84t-115.5 82.5
t-105 89t-77.5 113.5t-30 146.5q0 153 115.5 261t279.5 108q266 0 363 -220l-62 -36q-78 188 -301 188q-135 0 -229 -88.5t-94 -212.5z" />
    <glyph glyph-name="sacute" unicode="&#x15b;" horiz-adv-x="845" 
d="M575 1196h-73l268 340h92zM264 795q0 -53 23.5 -95.5t61 -72t83 -57t91 -56t83 -61.5t61 -82.5t23.5 -110.5q0 -124 -91.5 -212.5t-227.5 -88.5q-109 0 -202.5 49.5t-145.5 143.5l59 38q104 -167 289 -167q111 0 180.5 68t69.5 169q0 53 -23.5 95t-61 71.5t-83 56.5
t-91 55.5t-83 62t-61 83t-23.5 111.5q0 117 91 197.5t220 80.5q102 0 178.5 -50.5t116.5 -133.5l-64 -35q-67 156 -231 156q-102 0 -172 -65t-70 -150z" />
    <glyph glyph-name="Scircumflex" unicode="&#x15c;" horiz-adv-x="1167" 
d="M563 1556h-71l272 277h108l175 -277h-62l-168 234zM416 1106q0 -71 30 -131t77.5 -103t105 -83.5t115 -82.5t105 -89.5t77.5 -114.5t30 -148q0 -169 -118 -282t-306 -113q-276 0 -421 231l59 41q133 -204 362 -204q160 0 256.5 95t96.5 232q0 72 -30 132.5t-77.5 104
t-105.5 84t-115.5 82.5t-105 89t-77.5 113.5t-30 146.5q0 153 115.5 261t279.5 108q266 0 363 -220l-62 -36q-78 188 -301 188q-135 0 -229 -88.5t-94 -212.5z" />
    <glyph glyph-name="scircumflex" unicode="&#x15d;" horiz-adv-x="845" 
d="M348 1196h-74l275 340h110l152 -340h-61l-148 301zM264 795q0 -53 23.5 -95.5t61 -72t83 -57t91 -56t83 -61.5t61 -82.5t23.5 -110.5q0 -124 -91.5 -212.5t-227.5 -88.5q-109 0 -202.5 49.5t-145.5 143.5l59 38q104 -167 289 -167q111 0 180.5 68t69.5 169q0 53 -23.5 95
t-61 71.5t-83 56.5t-91 55.5t-83 62t-61 83t-23.5 111.5q0 117 91 197.5t220 80.5q102 0 178.5 -50.5t116.5 -133.5l-64 -35q-67 156 -231 156q-102 0 -172 -65t-70 -150z" />
    <glyph glyph-name="Scedilla" unicode="&#x15e;" horiz-adv-x="1167" 
d="M416 1106q0 -71 30 -131t77.5 -103t105 -83.5t115 -82.5t105 -89.5t77.5 -114.5t30 -148q0 -163 -112 -275.5t-291 -119.5l-113 -123q8 2 27 2q78 0 129 -46.5t51 -113.5q0 -78 -57 -130t-152 -52q-54 0 -106.5 20.5t-87.5 55.5l45 51q65 -65 153 -65q59 0 97.5 30
t38.5 86q0 43 -31.5 74t-87.5 31q-46 0 -80 -19l-41 45l141 156q-236 19 -368 229l59 41q133 -204 362 -204q160 0 256.5 95t96.5 232q0 72 -30 132.5t-77.5 104t-105.5 84t-115.5 82.5t-105 89t-77.5 113.5t-30 146.5q0 153 115.5 261t279.5 108q266 0 363 -220l-62 -36
q-78 188 -301 188q-135 0 -229 -88.5t-94 -212.5z" />
    <glyph glyph-name="scedilla" unicode="&#x15f;" horiz-adv-x="845" 
d="M264 795q0 -53 23.5 -95.5t61 -72t83 -57t91 -56t83 -61.5t61 -82.5t23.5 -110.5q0 -118 -84.5 -205t-212.5 -96l-112 -123q8 2 26 2q78 0 129 -46.5t51 -113.5q0 -78 -56.5 -130t-151.5 -52q-54 0 -107 20.5t-88 55.5l45 51q65 -65 154 -65q59 0 97 30t38 86
q0 43 -31.5 74t-87.5 31q-46 0 -80 -19l-41 45l141 156q-95 11 -172.5 59.5t-123.5 131.5l59 38q104 -167 289 -167q111 0 180.5 68t69.5 169q0 53 -23.5 95t-61 71.5t-83 56.5t-91 55.5t-83 62t-61 83t-23.5 111.5q0 117 91 197.5t220 80.5q102 0 178.5 -50.5t116.5 -133.5
l-64 -35q-67 156 -231 156q-102 0 -172 -65t-70 -150z" />
    <glyph glyph-name="Scaron" unicode="&#x160;" horiz-adv-x="1167" 
d="M602 1833l168 -234l252 234h74l-271 -277h-110l-174 277h61zM416 1106q0 -71 30 -131t77.5 -103t105 -83.5t115 -82.5t105 -89.5t77.5 -114.5t30 -148q0 -169 -118 -282t-306 -113q-276 0 -421 231l59 41q133 -204 362 -204q160 0 256.5 95t96.5 232q0 72 -30 132.5
t-77.5 104t-105.5 84t-115.5 82.5t-105 89t-77.5 113.5t-30 146.5q0 153 115.5 261t279.5 108q266 0 363 -220l-62 -36q-78 188 -301 188q-135 0 -229 -88.5t-94 -212.5z" />
    <glyph glyph-name="scaron" unicode="&#x161;" horiz-adv-x="845" 
d="M397 1536l148 -299l250 299h77l-274 -340h-111l-151 340h61zM264 795q0 -53 23.5 -95.5t61 -72t83 -57t91 -56t83 -61.5t61 -82.5t23.5 -110.5q0 -124 -91.5 -212.5t-227.5 -88.5q-109 0 -202.5 49.5t-145.5 143.5l59 38q104 -167 289 -167q111 0 180.5 68t69.5 169
q0 53 -23.5 95t-61 71.5t-83 56.5t-91 55.5t-83 62t-61 83t-23.5 111.5q0 117 91 197.5t220 80.5q102 0 178.5 -50.5t116.5 -133.5l-64 -35q-67 156 -231 156q-102 0 -172 -65t-70 -150z" />
    <glyph glyph-name="Tcedilla" unicode="&#x162;" horiz-adv-x="1230" 
d="M231 1368l11 66h1069l-11 -66h-501l-240 -1368l-149 -164q8 2 26 2q78 0 129 -46.5t51 -113.5q0 -78 -56.5 -130t-151.5 -52q-54 0 -107 20.5t-88 55.5l45 51q65 -65 154 -65q59 0 97 30t38 86q0 43 -31.5 74t-87.5 31q-46 0 -80 -19l-41 45l185 203l237 1360h-498z" />
    <glyph glyph-name="tcedilla" unicode="&#x163;" horiz-adv-x="815" 
d="M227 317l115 654h-190l12 61h190l45 258h68l-45 -258h401l-10 -61h-403l-115 -654q-9 -48 -9 -87t6.5 -67.5t20.5 -49.5t32 -34.5t42.5 -21.5t50.5 -11t58 -3q72 0 157 29l-12 -66q-70 -26 -145 -26h-33l-131 -144q8 2 26 2q78 0 129.5 -46.5t51.5 -113.5q0 -78 -57 -130
t-152 -52q-54 0 -107 20.5t-88 55.5l45 51q65 -65 154 -65q59 0 97 30t38 86q0 43 -31.5 74t-87.5 31q-46 0 -80 -19l-41 45l166 183q-220 45 -168 329z" />
    <glyph glyph-name="Tcaron" unicode="&#x164;" horiz-adv-x="1230" 
d="M633 1833l168 -234l252 234h73l-270 -277h-111l-174 277h62zM231 1368l11 66h1069l-11 -66h-501l-240 -1368h-70l240 1368h-498z" />
    <glyph glyph-name="tcaron" unicode="&#x165;" horiz-adv-x="815" 
d="M614 1155h-67l248 381h82zM227 317l115 654h-190l12 61h190l45 258h68l-45 -258h401l-10 -61h-403l-115 -654q-9 -48 -9 -87t6.5 -67.5t20.5 -49.5t32 -34.5t42.5 -21.5t50.5 -11t58 -3q72 0 157 29l-12 -66q-70 -26 -145 -26q-59 0 -104.5 10t-84.5 33.5t-59.5 62
t-28.5 96t8 135.5z" />
    <glyph glyph-name="Tbar" unicode="&#x166;" horiz-adv-x="1230" 
d="M274 625l11 57h325l119 686h-498l11 66h1069l-11 -66h-501l-119 -686h326l-11 -57h-325l-111 -625h-70l111 625h-326z" />
    <glyph glyph-name="tbar" unicode="&#x167;" horiz-adv-x="815" 
d="M227 317l56 312h-193l10 59h193l49 283h-190l12 61h190l45 258h68l-45 -258h401l-10 -61h-403l-50 -283h402l-10 -59h-402l-55 -312q-9 -48 -9 -87t6.5 -67.5t20.5 -49.5t32 -34.5t42.5 -21.5t50.5 -11t58 -3q72 0 157 29l-12 -66q-70 -26 -145 -26q-59 0 -104.5 10
t-84.5 33.5t-59.5 62t-28.5 96t8 135.5z" />
    <glyph glyph-name="Utilde" unicode="&#x168;" horiz-adv-x="1421" 
d="M616 1577l19 100q13 69 50.5 112.5t98.5 43.5q44 0 77 -22.5t52.5 -54.5t37 -64.5t42 -55t56.5 -22.5q35 0 60 26t32 72l18 100h60l-19 -100q-13 -69 -51 -112.5t-100 -43.5q-44 0 -77.5 22.5t-54 55t-39 65t-42 55t-52.5 22.5q-34 0 -58.5 -26.5t-31.5 -72.5l-18 -100
h-60zM1153 520l160 914h69l-161 -918q-99 -557 -564 -557q-252 0 -377.5 153.5t-74.5 436.5l157 885h70l-153 -881q-45 -261 55 -394.5t321 -133.5q202 0 329 124t169 371z" />
    <glyph glyph-name="utilde" unicode="&#x169;" horiz-adv-x="1208" 
d="M465 1237h-59l16 102q11 71 58.5 120.5t119.5 49.5q47 0 84 -23.5t61 -57.5t46.5 -67.5t51.5 -57t64 -23.5q46 0 78 30t41 79l18 106h60l-19 -104q-11 -69 -59 -118.5t-119 -49.5q-48 0 -85 23.5t-61.5 57.5t-47 67.5t-51.5 57t-64 23.5q-45 0 -76 -30.5t-39 -78.5z
M940 436l107 596h65l-106 -598q-40 -230 -157.5 -352.5t-299.5 -122.5q-206 0 -309 124t-64 351l107 598h65l-106 -596q-35 -198 48 -305.5t259 -107.5q157 0 256 106t135 307z" />
    <glyph glyph-name="Umacron" unicode="&#x16a;" horiz-adv-x="1421" 
d="M666 1720l10 58h518l-10 -58h-518zM1153 520l160 914h69l-161 -918q-99 -557 -564 -557q-252 0 -377.5 153.5t-74.5 436.5l157 885h70l-153 -881q-45 -261 55 -394.5t321 -133.5q202 0 329 124t169 371z" />
    <glyph glyph-name="umacron" unicode="&#x16b;" horiz-adv-x="1208" 
d="M510 1450l10 57h518l-10 -57h-518zM940 436l107 596h65l-106 -598q-40 -230 -157.5 -352.5t-299.5 -122.5q-206 0 -309 124t-64 351l107 598h65l-106 -596q-35 -198 48 -305.5t259 -107.5q157 0 256 106t135 307z" />
    <glyph glyph-name="Ubreve" unicode="&#x16c;" horiz-adv-x="1421" 
d="M915 1597q93 0 157.5 59t90.5 177h68q-25 -142 -114 -219.5t-204 -77.5q-128 0 -200 77.5t-51 219.5h57q-13 -117 40.5 -176.5t155.5 -59.5zM1153 520l160 914h69l-161 -918q-99 -557 -564 -557q-252 0 -377.5 153.5t-74.5 436.5l157 885h70l-153 -881
q-45 -261 55 -394.5t321 -133.5q202 0 329 124t169 371z" />
    <glyph glyph-name="ubreve" unicode="&#x16d;" horiz-adv-x="1208" 
d="M750 1257q106 0 167.5 68t86.5 211h65q-23 -165 -109 -252.5t-212 -87.5q-130 0 -201 88.5t-47 251.5h57q-17 -140 34 -209.5t159 -69.5zM940 436l107 596h65l-106 -598q-40 -230 -157.5 -352.5t-299.5 -122.5q-206 0 -309 124t-64 351l107 598h65l-106 -596
q-35 -198 48 -305.5t259 -107.5q157 0 256 106t135 307z" />
    <glyph glyph-name="Uring" unicode="&#x16e;" horiz-adv-x="1421" 
d="M946 1978q88 0 149.5 -59t61.5 -150q0 -107 -74 -180t-174 -73q-88 0 -149.5 58t-61.5 148q0 107 74 181.5t174 74.5zM944 1915q-79 0 -128.5 -55.5t-49.5 -133.5q0 -66 40 -106.5t105 -40.5q80 0 129.5 54.5t49.5 131.5q0 66 -41 108t-105 42zM1153 520l160 914h69
l-161 -918q-99 -557 -564 -557q-252 0 -377.5 153.5t-74.5 436.5l157 885h70l-153 -881q-45 -261 55 -394.5t321 -133.5q202 0 329 124t169 371z" />
    <glyph glyph-name="uring" unicode="&#x16f;" horiz-adv-x="1208" 
d="M737 1139q-88 0 -149.5 58t-61.5 149q0 107 74 181.5t174 74.5q88 0 149.5 -59t61.5 -150q0 -107 -74 -180.5t-174 -73.5zM739 1202q79 0 129 55t50 132q0 66 -40.5 107.5t-105.5 41.5q-79 0 -128.5 -55t-49.5 -133q0 -66 40 -107t105 -41zM940 436l107 596h65l-106 -598
q-40 -230 -157.5 -352.5t-299.5 -122.5q-206 0 -309 124t-64 351l107 598h65l-106 -596q-35 -198 48 -305.5t259 -107.5q157 0 256 106t135 307z" />
    <glyph glyph-name="Uhungarumlaut" unicode="&#x170;" horiz-adv-x="1421" 
d="M756 1556h-70l275 277h94zM1104 1556h-70l273 277h96zM1153 520l160 914h69l-161 -918q-99 -557 -564 -557q-252 0 -377.5 153.5t-74.5 436.5l157 885h70l-153 -881q-45 -261 55 -394.5t321 -133.5q202 0 329 124t169 371z" />
    <glyph glyph-name="uhungarumlaut" unicode="&#x171;" horiz-adv-x="1208" 
d="M569 1196h-73l270 340h90zM903 1196h-72l269 340h90zM940 436l107 596h65l-106 -598q-40 -230 -157.5 -352.5t-299.5 -122.5q-206 0 -309 124t-64 351l107 598h65l-106 -596q-35 -198 48 -305.5t259 -107.5q157 0 256 106t135 307z" />
    <glyph glyph-name="Uogonek" unicode="&#x172;" horiz-adv-x="1421" 
d="M481 -332q-1 72 54 133.5t192 161.5q-46 -4 -70 -4q-252 0 -377.5 153.5t-74.5 436.5l157 885h70l-153 -881q-45 -261 55 -394.5t321 -133.5q202 0 329 124t169 371l160 914h69l-161 -918q-73 -417 -359 -524l-55 -39q-165 -119 -213.5 -171t-48.5 -114q0 -53 37 -81.5
t92 -28.5q57 0 127 32l-13 -67q-56 -27 -116 -27q-92 0 -141.5 48.5t-49.5 123.5z" />
    <glyph glyph-name="uogonek" unicode="&#x173;" horiz-adv-x="1208" 
d="M326 -332q-1 72 52.5 132.5t188.5 158.5h-18q-206 0 -309 124t-64 351l107 598h65l-106 -596q-35 -198 48 -305.5t259 -107.5q157 0 256 106t135 307l107 596h65l-106 -598q-32 -181 -112.5 -296t-203.5 -156l-39 -29q-165 -119 -213.5 -171t-48.5 -114q0 -53 37 -81.5
t92 -28.5q57 0 127 32l-12 -67q-56 -27 -117 -27q-92 0 -141 48t-49 124z" />
    <glyph glyph-name="Wcircumflex" unicode="&#x174;" horiz-adv-x="1984" 
d="M971 1556h-72l272 277h109l174 -277h-61l-168 234zM246 1434h71l115 -1362l670 1362h102l189 -1366l596 1366h75l-628 -1434h-103l-190 1354l-672 -1354h-102z" />
    <glyph glyph-name="wcircumflex" unicode="&#x175;" horiz-adv-x="1505" 
d="M680 1196h-74l275 340h110l152 -340h-62l-147 301zM180 1032h70l78 -960l465 960h96l127 -960l418 960h71l-448 -1032h-96l-132 954l-467 -954h-96z" />
    <glyph glyph-name="Ycircumflex" unicode="&#x176;" horiz-adv-x="1259" 
d="M610 1556h-71l272 277h109l174 -277h-62l-168 234zM1378 1434l-682 -740l-123 -694h-69l123 698l-420 736h74l387 -678l626 678h84z" />
    <glyph glyph-name="ycircumflex" unicode="&#x177;" horiz-adv-x="1062" 
d="M459 1196h-74l274 340h111l152 -340h-62l-147 301zM319 -270q-76 -127 -159 -184.5t-187 -57.5q-105 0 -161 35l12 67q58 -39 149 -39q170 0 289 201l148 248l-265 1032h72l242 -950l565 950h76z" />
    <glyph glyph-name="Ydieresis" unicode="&#x178;" horiz-adv-x="1259" 
d="M684 1688q-28 0 -47 17t-19 44t19 45t47 18t47 -18t19 -45t-19 -44t-47 -17zM1014 1688q-28 0 -47 17t-19 44t19 45t47 18t46.5 -17.5t18.5 -45.5q0 -27 -18.5 -44t-46.5 -17zM1378 1434l-682 -740l-123 -694h-69l123 698l-420 736h74l387 -678l626 678h84z" />
    <glyph glyph-name="Zacute" unicode="&#x179;" horiz-adv-x="1261" 
d="M856 1556h-72l273 277h98zM6 0l10 66l1190 1302h-940l13 66h1030l-13 -66l-1190 -1302h979l-10 -66h-1069z" />
    <glyph glyph-name="zacute" unicode="&#x17a;" horiz-adv-x="933" 
d="M621 1196h-74l268 340h92zM-10 0l10 61l838 910h-664l12 61h748l-12 -61l-838 -910h692l-10 -61h-776z" />
    <glyph glyph-name="Zdotaccent" unicode="&#x17b;" horiz-adv-x="1261" 
d="M850 1688q-28 0 -47 17t-19 44t19 45t47 18t46.5 -17.5t18.5 -45.5q0 -27 -18.5 -44t-46.5 -17zM6 0l10 66l1190 1302h-940l13 66h1030l-13 -66l-1190 -1302h979l-10 -66h-1069z" />
    <glyph glyph-name="zdotaccent" unicode="&#x17c;" horiz-adv-x="933" 
d="M637 1413q-28 0 -47 17t-19 43q0 27 19 45t47 18q27 0 45 -18t18 -45q0 -26 -18 -43t-45 -17zM-10 0l10 61l838 910h-664l12 61h748l-12 -61l-838 -910h692l-10 -61h-776z" />
    <glyph glyph-name="Zcaron" unicode="&#x17d;" horiz-adv-x="1261" 
d="M649 1833l168 -234l252 234h74l-271 -277h-110l-174 277h61zM6 0l10 66l1190 1302h-940l13 66h1030l-13 -66l-1190 -1302h979l-10 -66h-1069z" />
    <glyph glyph-name="zcaron" unicode="&#x17e;" horiz-adv-x="933" 
d="M442 1536l148 -299l250 299h78l-275 -340h-111l-151 340h61zM-10 0l10 61l838 910h-664l12 61h748l-12 -61l-838 -910h692l-10 -61h-776z" />
    <glyph glyph-name="Schwa" unicode="&#x18f;" horiz-adv-x="1552" 
d="M840 1475q125 0 230 -34.5t180 -96t127.5 -145.5t78 -182.5t25.5 -207.5q0 -135 -34 -261t-100.5 -232.5t-159.5 -186.5t-217.5 -125t-267.5 -45q-121 0 -224 39.5t-172.5 106.5t-108.5 157t-39 191q0 96 22 180h1211q16 91 16 178q0 124 -37 232t-106 190t-178.5 129
t-245.5 47q-176 0 -326.5 -73t-245.5 -199l-51 47q105 135 265.5 213t357.5 78zM705 25q128 0 240.5 41.5t196 115.5t143.5 172.5t91 214.5h-1136q-18 -110 4.5 -208.5t80 -173t156 -118.5t224.5 -44z" />
    <glyph glyph-name="Eopen" unicode="&#x190;" horiz-adv-x="1181" 
d="M539 -41q-198 0 -317.5 106t-119.5 283q0 148 97.5 267t279.5 161q-182 94 -182 295q0 172 117 287t309 115q152 0 259.5 -68t162.5 -184l-62 -39q-42 102 -137.5 161.5t-222.5 59.5q-166 0 -258 -89.5t-92 -242.5q0 -121 73.5 -197.5t200.5 -76.5h232l-13 -66h-237
q-206 0 -329.5 -107t-123.5 -274q0 -152 99 -236.5t264 -84.5q138 0 251 56.5t211 178.5l52 -49q-108 -132 -229.5 -194t-284.5 -62z" />
    <glyph glyph-name="ltGamma" unicode="&#x194;" horiz-adv-x="1490" 
d="M836 -240q0 -115 -65 -193.5t-179 -78.5q-97 0 -154 51t-57 139q0 70 35 148.5t123 206.5l110 162l-405 1239h71l383 -1166l793 1166h80l-846 -1244l51 -157q34 -102 47 -156.5t13 -116.5zM592 -446q79 0 123.5 54.5t44.5 151.5q0 88 -51 252l-35 105l-70 -105
q-80 -117 -114.5 -192.5t-34.5 -130.5q0 -64 34.5 -99.5t102.5 -35.5z" />
    <glyph glyph-name="Nhookleft" unicode="&#x19d;" horiz-adv-x="1638" 
d="M229 41q-34 -191 -119 -269.5t-229 -78.5q-87 0 -135 22l12 62q54 -21 123 -21q56 0 97 12t77.5 42.5t62 88t40.5 142.5l245 1393h93l755 -1362l242 1362h70l-254 -1434h-95l-753 1358z" />
    <glyph glyph-name="Ohorn" unicode="&#x1a0;" horiz-adv-x="1681" 
d="M958 1475q127 0 236 -41h94q56 0 98 17t64.5 45.5t33.5 60t11 65.5q0 63 -41 113l57 34q52 -65 52 -147q0 -101 -64 -169.5t-192 -74.5q143 -88 223 -238.5t80 -330.5q0 -168 -60 -322.5t-164.5 -271t-258.5 -186.5t-330 -70q-190 0 -340.5 91t-231 242.5t-80.5 332.5
q0 168 60 322.5t164.5 271t258.5 186.5t330 70zM795 25q210 0 381.5 109.5t265.5 289t94 387.5q0 121 -42.5 230t-117.5 190.5t-184 129.5t-234 48q-157 0 -296 -64.5t-235.5 -172t-152 -251t-55.5 -298.5q0 -162 72 -298t205 -218t299 -82z" />
    <glyph glyph-name="ohorn" unicode="&#x1a1;" horiz-adv-x="1288" 
d="M711 1073q117 0 207 -41h94q56 0 98 17.5t64.5 46t33.5 60t11 65.5q0 62 -41 112l57 35q51 -64 51 -147q0 -105 -68.5 -174.5t-205.5 -69.5q85 -67 130.5 -169.5t45.5 -223.5q0 -123 -46 -237t-125 -199.5t-193.5 -137t-243.5 -51.5q-148 0 -258 67.5t-165 177.5t-55 245
q0 165 77.5 307.5t218.5 229.5t313 87zM582 23q150 0 273.5 78.5t192 207t68.5 277.5q0 179 -111 301.5t-296 122.5q-150 0 -273.5 -78.5t-192.5 -207.5t-69 -278q0 -179 111.5 -301t296.5 -122z" />
    <glyph glyph-name="Uhorn" unicode="&#x1af;" horiz-adv-x="1421" 
d="M1153 520l160 914h96q56 0 98 17t64.5 45.5t33.5 60t11 65.5q0 63 -41 113l57 34q51 -64 51 -147q0 -105 -69 -174.5t-207 -69.5h-35l-151 -862q-99 -557 -564 -557q-252 0 -377.5 153.5t-74.5 436.5l157 885h70l-153 -881q-45 -261 55 -394.5t321 -133.5q202 0 329 124
t169 371z" />
    <glyph glyph-name="uhorn" unicode="&#x1b0;" horiz-adv-x="1208" 
d="M940 436l107 596h98q56 0 98 17.5t64.5 46t33.5 60t11 65.5q0 62 -41 112l57 35q51 -64 51 -147q0 -105 -69 -174.5t-207 -69.5h-41l-96 -543q-40 -230 -157.5 -352.5t-299.5 -122.5q-206 0 -309 124t-64 351l107 598h65l-106 -596q-35 -198 48 -305.5t259 -107.5
q157 0 256 106t135 307z" />
    <glyph glyph-name="Acaron" unicode="&#x1cd;" horiz-adv-x="1445" 
d="M741 1833l168 -234l252 234h74l-270 -277h-111l-174 277h61zM-8 0l844 1434h100l338 -1434h-70l-112 481h-740l-282 -481h-78zM391 547h686l-194 837z" />
    <glyph glyph-name="acaron" unicode="&#x1ce;" horiz-adv-x="1110" 
d="M530 1536l148 -299l250 299h78l-275 -340h-110l-152 340h61zM399 -29q-138 0 -219.5 67.5t-81.5 182.5q0 250 367 311l405 68l19 105q26 146 -45 224.5t-211 78.5q-101 0 -194.5 -46.5t-164.5 -127.5l-53 47q81 90 187 141t225 51q173 0 262 -98.5t59 -269.5l-127 -705
h-63l29 158q-85 -93 -179.5 -140t-214.5 -47zM172 221q0 -81 61 -132.5t166 -51.5q127 0 226.5 58t185.5 171l49 273l-381 -66q-307 -53 -307 -252z" />
    <glyph glyph-name="Icaron" unicode="&#x1cf;" horiz-adv-x="548" 
d="M293 1833l168 -234l252 234h73l-270 -277h-110l-175 277h62zM150 0l253 1434h70l-254 -1434h-69z" />
    <glyph glyph-name="icaron" unicode="&#x1d0;" horiz-adv-x="493" 
d="M221 1536l148 -299l249 299h78l-274 -340h-111l-151 340h61zM123 0l182 1032h66l-183 -1032h-65z" />
    <glyph glyph-name="Ocaron" unicode="&#x1d1;" horiz-adv-x="1681" 
d="M840 1833l168 -234l252 234h73l-270 -277h-111l-174 277h62zM958 1475q190 0 340.5 -91t231 -242.5t80.5 -332.5q0 -168 -60 -322.5t-164.5 -271t-258.5 -186.5t-330 -70q-190 0 -340.5 91t-231 242.5t-80.5 332.5q0 168 60 322.5t164.5 271t258.5 186.5t330 70zM795 25
q210 0 381.5 109.5t265.5 289t94 387.5q0 121 -42.5 230t-117.5 190.5t-184 129.5t-234 48q-157 0 -296 -64.5t-235.5 -172t-152 -251t-55.5 -298.5q0 -162 72 -298t205 -218t299 -82z" />
    <glyph glyph-name="ocaron" unicode="&#x1d2;" horiz-adv-x="1288" 
d="M618 1536l148 -299l250 299h78l-275 -340h-110l-152 340h61zM711 1073q148 0 258 -67.5t164.5 -177t54.5 -244.5q0 -123 -46 -237t-125 -199.5t-193.5 -137t-243.5 -51.5q-148 0 -258 67.5t-165 177.5t-55 245q0 165 77.5 307.5t218.5 229.5t313 87zM582 23
q150 0 273.5 78.5t192 207t68.5 277.5q0 179 -111 301.5t-296 122.5q-150 0 -273.5 -78.5t-192.5 -207.5t-69 -278q0 -179 111.5 -301t296.5 -122z" />
    <glyph glyph-name="Ucaron" unicode="&#x1d3;" horiz-adv-x="1421" 
d="M729 1833l168 -234l252 234h74l-271 -277h-110l-174 277h61zM1153 520l160 914h69l-161 -918q-99 -557 -564 -557q-252 0 -377.5 153.5t-74.5 436.5l157 885h70l-153 -881q-45 -261 55 -394.5t321 -133.5q202 0 329 124t169 371z" />
    <glyph glyph-name="ucaron" unicode="&#x1d4;" horiz-adv-x="1208" 
d="M580 1536l147 -299l250 299h78l-275 -340h-110l-152 340h62zM940 436l107 596h65l-106 -598q-40 -230 -157.5 -352.5t-299.5 -122.5q-206 0 -309 124t-64 351l107 598h65l-106 -596q-35 -198 48 -305.5t259 -107.5q157 0 256 106t135 307z" />
    <glyph glyph-name="Udieresismacron" unicode="&#x1d5;" horiz-adv-x="1421" 
d="M721 2038l10 57h518l-10 -57h-518zM764 1688q-28 0 -47 17t-19 44t19 45t47 18t46.5 -17.5t18.5 -45.5q0 -27 -18.5 -44t-46.5 -17zM1094 1688q-28 0 -47 17t-19 44t19 45t47 18t46.5 -17.5t18.5 -45.5q0 -27 -18.5 -44t-46.5 -17zM1153 520l160 914h69l-161 -918
q-99 -557 -564 -557q-252 0 -377.5 153.5t-74.5 436.5l157 885h70l-153 -881q-45 -261 55 -394.5t321 -133.5q202 0 329 124t169 371z" />
    <glyph glyph-name="udieresismacron" unicode="&#x1d6;" horiz-adv-x="1208" 
d="M545 1636l10 58h518l-10 -58h-518zM588 1286q-28 0 -47 17.5t-19 44.5t19 45t47 18t46.5 -17.5t18.5 -45.5q0 -27 -18.5 -44.5t-46.5 -17.5zM918 1286q-28 0 -47 17.5t-19 44.5t19 45t47 18t46.5 -17.5t18.5 -45.5q0 -27 -18.5 -44.5t-46.5 -17.5zM940 436l107 596h65
l-106 -598q-40 -230 -157.5 -352.5t-299.5 -122.5q-206 0 -309 124t-64 351l107 598h65l-106 -596q-35 -198 48 -305.5t259 -107.5q157 0 256 106t135 307z" />
    <glyph glyph-name="Udieresisacute" unicode="&#x1d7;" horiz-adv-x="1421" 
d="M991 1874h-71l272 276h98zM764 1688q-28 0 -47 17t-19 44t19 45t47 18t46.5 -17.5t18.5 -45.5q0 -27 -18.5 -44t-46.5 -17zM1094 1688q-28 0 -47 17t-19 44t19 45t47 18t46.5 -17.5t18.5 -45.5q0 -27 -18.5 -44t-46.5 -17zM1153 520l160 914h69l-161 -918
q-99 -557 -564 -557q-252 0 -377.5 153.5t-74.5 436.5l157 885h70l-153 -881q-45 -261 55 -394.5t321 -133.5q202 0 329 124t169 371z" />
    <glyph glyph-name="udieresisacute" unicode="&#x1d8;" horiz-adv-x="1208" 
d="M815 1473h-72l273 276h98zM588 1286q-28 0 -47 17.5t-19 44.5t19 45t47 18t46.5 -17.5t18.5 -45.5q0 -27 -18.5 -44.5t-46.5 -17.5zM918 1286q-28 0 -47 17.5t-19 44.5t19 45t47 18t46.5 -17.5t18.5 -45.5q0 -27 -18.5 -44.5t-46.5 -17.5zM940 436l107 596h65l-106 -598
q-40 -230 -157.5 -352.5t-299.5 -122.5q-206 0 -309 124t-64 351l107 598h65l-106 -596q-35 -198 48 -305.5t259 -107.5q157 0 256 106t135 307z" />
    <glyph glyph-name="Udieresiscaron" unicode="&#x1d9;" horiz-adv-x="1421" 
d="M784 2150l168 -233l252 233h74l-270 -276h-111l-174 276h61zM764 1688q-28 0 -47 17t-19 44t19 45t47 18t46.5 -17.5t18.5 -45.5q0 -27 -18.5 -44t-46.5 -17zM1094 1688q-28 0 -47 17t-19 44t19 45t47 18t46.5 -17.5t18.5 -45.5q0 -27 -18.5 -44t-46.5 -17zM1153 520
l160 914h69l-161 -918q-99 -557 -564 -557q-252 0 -377.5 153.5t-74.5 436.5l157 885h70l-153 -881q-45 -261 55 -394.5t321 -133.5q202 0 329 124t169 371z" />
    <glyph glyph-name="udieresiscaron" unicode="&#x1da;" horiz-adv-x="1208" 
d="M608 1749l168 -233l252 233h74l-271 -276h-110l-174 276h61zM588 1286q-28 0 -47 17.5t-19 44.5t19 45t47 18t46.5 -17.5t18.5 -45.5q0 -27 -18.5 -44.5t-46.5 -17.5zM918 1286q-28 0 -47 17.5t-19 44.5t19 45t47 18t46.5 -17.5t18.5 -45.5q0 -27 -18.5 -44.5
t-46.5 -17.5zM940 436l107 596h65l-106 -598q-40 -230 -157.5 -352.5t-299.5 -122.5q-206 0 -309 124t-64 351l107 598h65l-106 -596q-35 -198 48 -305.5t259 -107.5q157 0 256 106t135 307z" />
    <glyph glyph-name="Udieresisgrave" unicode="&#x1db;" horiz-adv-x="1421" 
d="M924 1874l-201 276h88l176 -276h-63zM764 1688q-28 0 -47 17t-19 44t19 45t47 18t46.5 -17.5t18.5 -45.5q0 -27 -18.5 -44t-46.5 -17zM1094 1688q-28 0 -47 17t-19 44t19 45t47 18t46.5 -17.5t18.5 -45.5q0 -27 -18.5 -44t-46.5 -17zM1153 520l160 914h69l-161 -918
q-99 -557 -564 -557q-252 0 -377.5 153.5t-74.5 436.5l157 885h70l-153 -881q-45 -261 55 -394.5t321 -133.5q202 0 329 124t169 371z" />
    <glyph glyph-name="udieresisgrave" unicode="&#x1dc;" horiz-adv-x="1208" 
d="M748 1473l-201 276h88l176 -276h-63zM588 1286q-28 0 -47 17.5t-19 44.5t19 45t47 18t46.5 -17.5t18.5 -45.5q0 -27 -18.5 -44.5t-46.5 -17.5zM918 1286q-28 0 -47 17.5t-19 44.5t19 45t47 18t46.5 -17.5t18.5 -45.5q0 -27 -18.5 -44.5t-46.5 -17.5zM940 436l107 596h65
l-106 -598q-40 -230 -157.5 -352.5t-299.5 -122.5q-206 0 -309 124t-64 351l107 598h65l-106 -596q-35 -198 48 -305.5t259 -107.5q157 0 256 106t135 307z" />
    <glyph glyph-name="Gcaron" unicode="&#x1e6;" horiz-adv-x="1642" 
d="M823 1833l168 -234l252 234h74l-270 -277h-111l-174 277h61zM795 -41q-190 0 -340.5 91t-231 242.5t-80.5 332.5q0 168 60.5 322.5t167 271t262.5 186.5t336 70q195 0 341.5 -82t221.5 -219l-62 -39q-64 126 -197 200t-304 74q-160 0 -301 -64.5t-239 -171.5t-155 -251
t-57 -299q0 -162 72 -298t205 -218t299 -82q309 0 550 223l80 450h-460l10 64h532l-98 -551q-259 -252 -612 -252z" />
    <glyph glyph-name="gcaron" unicode="&#x1e7;" horiz-adv-x="1099" 
d="M479 1536l148 -299l250 299h77l-274 -340h-111l-151 340h61zM-49 -236q0 193 225 322q-67 36 -67 123q0 68 54.5 125.5t125.5 87.5q-53 46 -82 111t-29 137q0 104 48 195t146.5 150.5t227.5 59.5q92 0 170 -43h404l-13 -63h-313q84 -94 84 -219q0 -77 -28.5 -149.5
t-80 -130.5t-132.5 -93t-177 -35q-99 0 -178 45q-77 -33 -120.5 -82t-43.5 -96q0 -78 94 -78h316q177 0 260.5 -72.5t83.5 -197.5q0 -162 -142.5 -267.5t-390.5 -105.5q-222 0 -332 74t-110 202zM858 748q0 109 -70.5 185.5t-187.5 76.5q-69 0 -126.5 -19.5t-98 -52
t-68.5 -76t-41.5 -92.5t-13.5 -100q0 -110 70 -186t192 -76q160 0 252 102.5t92 237.5zM23 -227q0 -104 90 -161.5t278 -57.5q221 0 343 85.5t122 223.5q0 91 -63.5 147t-210.5 56h-316h-6q-110 -47 -173.5 -130t-63.5 -163z" />
    <glyph glyph-name="Aringacute" unicode="&#x1fa;" horiz-adv-x="1445" 
d="M1032 2040h-71l272 276h98zM958 1978q88 0 149.5 -59t61.5 -150q0 -107 -73.5 -180t-173.5 -73q-88 0 -149.5 58t-61.5 148q0 107 73.5 181.5t173.5 74.5zM956 1915q-79 0 -128.5 -55.5t-49.5 -133.5q0 -66 40.5 -106.5t105.5 -40.5q79 0 128.5 54t49.5 132q0 66 -41 108
t-105 42zM-8 0l844 1434h100l338 -1434h-70l-112 481h-740l-282 -481h-78zM391 547h686l-194 837z" />
    <glyph glyph-name="aringacute" unicode="&#x1fb;" horiz-adv-x="1110" 
d="M795 1638h-72l272 277h99zM721 1577q88 0 149.5 -59t61.5 -150q0 -107 -74 -180.5t-174 -73.5q-88 0 -149.5 58t-61.5 149q0 107 74 181.5t174 74.5zM719 1513q-79 0 -128.5 -55t-49.5 -133q0 -66 40 -106.5t105 -40.5q79 0 128.5 54t49.5 132q0 66 -40.5 107.5
t-104.5 41.5zM399 -29q-138 0 -219.5 67.5t-81.5 182.5q0 250 367 311l405 68l19 105q26 146 -45 224.5t-211 78.5q-101 0 -194.5 -46.5t-164.5 -127.5l-53 47q81 90 187 141t225 51q173 0 262 -98.5t59 -269.5l-127 -705h-63l29 158q-85 -93 -179.5 -140t-214.5 -47z
M172 221q0 -81 61 -132.5t166 -51.5q127 0 226.5 58t185.5 171l49 273l-381 -66q-307 -53 -307 -252z" />
    <glyph glyph-name="AEacute" unicode="&#x1fc;" horiz-adv-x="1904" 
d="M1333 1556h-71l272 277h98zM-16 0l462 547l752 887h709l-11 -66h-600l-106 -606h520l-12 -64h-520l-111 -632h600l-12 -66h-670l86 481h-592l-405 -481h-90zM535 547h546l146 819z" />
    <glyph glyph-name="aeacute" unicode="&#x1fd;" horiz-adv-x="1904" 
d="M1036 1196h-73l268 340h92zM397 -29q-138 0 -219.5 68.5t-81.5 185.5q0 246 367 307l403 68l21 105q27 145 -44 224t-212 79q-101 0 -194.5 -46.5t-164.5 -127.5l-53 47q81 90 187 141t225 51q144 0 231 -70t94 -196q79 122 205 194t277 72q176 0 280.5 -104t104.5 -258
q0 -66 -17 -133h-870q-14 -60 -14 -132q0 -88 26 -164t75 -134t125.5 -91.5t172.5 -33.5q128 0 238 51t176 141l49 -45q-77 -99 -197 -155t-266 -56q-166 0 -278 79t-160 212q-109 -139 -223 -209t-263 -70zM1436 1010q-168 0 -298 -103t-186 -266h795q12 73 -3.5 139.5
t-53.5 117.5t-104 81.5t-150 30.5zM170 225q0 -83 61 -135.5t166 -52.5q98 0 183.5 38t149 97t132.5 150q-12 62 -12 127q0 45 6 88l-379 -64q-307 -53 -307 -248z" />
    <glyph glyph-name="Oslashacute" unicode="&#x1fe;" horiz-adv-x="1681" 
d="M1047 1556h-72l272 277h99zM106 -41h-83l243 225h-2l21 19q-140 182 -140 422q0 168 60 322.5t164.5 271t258.5 186.5t330 70q145 0 266.5 -52t209.5 -147l215 199h82l-242 -226h2l-21 -18q140 -182 140 -422q0 -168 -60 -322.5t-164.5 -271t-258.5 -186.5t-330 -70
q-144 0 -265 53t-210 148zM219 623q0 -208 119 -371l1042 973q-77 87 -185.5 135.5t-236.5 48.5q-157 0 -296 -64.5t-235.5 -172t-152 -251t-55.5 -298.5zM795 25q210 0 381.5 109.5t265.5 289t94 387.5t-119 371l-1042 -973q77 -87 184.5 -135.5t235.5 -48.5z" />
    <glyph glyph-name="oslashacute" unicode="&#x1ff;" horiz-adv-x="1288" 
d="M797 1196h-74l268 340h92zM94 -41h-80l183 172l4 4q-99 135 -99 314q0 165 77.5 307.5t218.5 229.5t313 87q212 0 344 -135l141 135h82l-184 -172l-4 -4q98 -134 98 -313q0 -123 -46 -237t-125 -199.5t-193.5 -137t-243.5 -51.5q-212 0 -342 133zM174 446q0 -149 80 -262
l747 707q-113 119 -292 119q-150 0 -273.5 -78.5t-192.5 -207.5t-69 -278zM582 23q150 0 273.5 78.5t192 207t68.5 277.5t-80 262l-747 -707q112 -118 293 -118z" />
    <glyph glyph-name="Scommaaccent" unicode="&#x218;" horiz-adv-x="1167" 
d="M416 1106q0 -71 30 -131t77.5 -103t105 -83.5t115 -82.5t105 -89.5t77.5 -114.5t30 -148q0 -169 -118 -282t-306 -113q-276 0 -421 231l59 41q133 -204 362 -204q160 0 256.5 95t96.5 232q0 72 -30 132.5t-77.5 104t-105.5 84t-115.5 82.5t-105 89t-77.5 113.5t-30 146.5
q0 153 115.5 261t279.5 108q266 0 363 -220l-62 -36q-78 188 -301 188q-135 0 -229 -88.5t-94 -212.5zM252 -504h-74l268 340h93z" />
    <glyph glyph-name="scommaaccent" unicode="&#x219;" horiz-adv-x="845" 
d="M264 795q0 -53 23.5 -95.5t61 -72t83 -57t91 -56t83 -61.5t61 -82.5t23.5 -110.5q0 -124 -91.5 -212.5t-227.5 -88.5q-109 0 -202.5 49.5t-145.5 143.5l59 38q104 -167 289 -167q111 0 180.5 68t69.5 169q0 53 -23.5 95t-61 71.5t-83 56.5t-91 55.5t-83 62t-61 83
t-23.5 111.5q0 117 91 197.5t220 80.5q102 0 178.5 -50.5t116.5 -133.5l-64 -35q-67 156 -231 156q-102 0 -172 -65t-70 -150zM92 -504h-74l269 340h92z" />
    <glyph glyph-name="Tcommaaccent" unicode="&#x21a;" horiz-adv-x="1230" 
d="M231 1368l11 66h1069l-11 -66h-501l-240 -1368h-70l240 1368h-498zM256 -504h-74l269 340h92z" />
    <glyph glyph-name="tcommaaccent" unicode="&#x21b;" horiz-adv-x="815" 
d="M227 317l115 654h-190l12 61h190l45 258h68l-45 -258h401l-10 -61h-403l-115 -654q-9 -48 -9 -87t6.5 -67.5t20.5 -49.5t32 -34.5t42.5 -21.5t50.5 -11t58 -3q72 0 157 29l-12 -66q-70 -26 -145 -26q-59 0 -104.5 10t-84.5 33.5t-59.5 62t-28.5 96t8 135.5zM143 -504h-73
l268 340h92z" />
    <glyph glyph-name="Ymacron" unicode="&#x232;" horiz-adv-x="1259" 
d="M586 1720l10 58h518l-10 -58h-518zM1378 1434l-682 -740l-123 -694h-69l123 698l-420 736h74l387 -678l626 678h84z" />
    <glyph glyph-name="ymacron" unicode="&#x233;" horiz-adv-x="1062" 
d="M438 1450l11 57h518l-11 -57h-518zM319 -270q-76 -127 -159 -184.5t-187 -57.5q-105 0 -161 35l12 67q58 -39 149 -39q170 0 289 201l148 248l-265 1032h72l242 -950l565 950h76z" />
    <glyph glyph-name="dotlessj" unicode="&#x237;" horiz-adv-x="493" 
d="M156 -190q-17 -97 -50 -162t-81.5 -99t-102 -47.5t-125.5 -13.5q-94 0 -159 35l10 63q72 -35 149 -35q47 0 80.5 4.5t70.5 20.5t62.5 44.5t47 80t34.5 123.5l213 1208h66z" />
    <glyph glyph-name="schwa" unicode="&#x259;" horiz-adv-x="1159" 
d="M588 1073q114 0 205 -39t148.5 -106t87.5 -155t30 -189q0 -125 -38 -237t-108 -199t-179 -138t-242 -51q-178 0 -292 105.5t-114 257.5q0 70 16 133h873q12 64 12 131q0 118 -44 212.5t-136 153t-219 58.5q-128 0 -238 -51.5t-176 -141.5l-49 45q77 99 197 155t266 56z
M494 23q178 0 299.5 101.5t167.5 266.5h-799q-15 -97 20.5 -180.5t117.5 -135.5t194 -52z" />
    <glyph glyph-name="eopen" unicode="&#x25b;" horiz-adv-x="944" 
d="M428 23q119 0 220 51t167 141l49 -45q-77 -98 -190 -154.5t-246 -56.5q-166 0 -266.5 78t-100.5 207q0 121 73.5 206.5t195.5 110.5q-125 66 -125 205q0 130 93 218.5t247 88.5q117 0 200.5 -45.5t135.5 -114.5l-50 -45q-42 59 -116.5 100.5t-169.5 41.5q-126 0 -196 -67
t-70 -177q0 -82 53.5 -133t140.5 -51h203l-12 -62h-238q-132 0 -212.5 -77.5t-80.5 -196.5q0 -105 80.5 -164t214.5 -59z" />
    <glyph glyph-name="ipagamma" unicode="&#x263;" horiz-adv-x="1030" 
d="M592 -254q0 -108 -59 -183t-171 -75q-89 0 -149.5 56.5t-60.5 142.5q0 60 26.5 119.5t102.5 170.5l135 199l-273 856h70l250 -786l532 786h76l-584 -862l68 -213q37 -115 37 -211zM367 -449q72 0 113.5 52t41.5 143q0 89 -33 195l-51 157l-98 -145q-67 -99 -93 -154
t-26 -104q0 -67 38 -105.5t108 -38.5z" />
    <glyph glyph-name="nhookleft" unicode="&#x272;" horiz-adv-x="1245" 
d="M156 -190q-17 -97 -50 -162t-81.5 -99t-102 -47.5t-125.5 -13.5q-94 0 -159 35l10 63q72 -35 149 -35q47 0 80.5 4.5t70.5 20.5t62.5 44.5t47 80t34.5 123.5l213 1208h66l-29 -160q167 201 397 201q188 0 281 -114.5t57 -319.5l-112 -639h-66l113 639q32 178 -43.5 274.5
t-229.5 96.5q-248 0 -415 -244z" />
    <glyph glyph-name="ringhalfrightmod" unicode="&#x2be;" 
d="M610 1143l11 63q86 -1 139 52t53 128q0 67 -36.5 109t-96.5 47l10 62q81 -6 136 -66t55 -152q0 -109 -78.5 -177.5t-192.5 -65.5z" />
    <glyph glyph-name="ringhalfleftmod" unicode="&#x2bf;" 
d="M922 1599l-11 -63q-86 1 -139 -52t-53 -128q0 -67 36.5 -109t96.5 -47l-10 -61q-81 6 -136 65.5t-55 151.5q0 109 78.5 177.5t192.5 65.5z" />
    <glyph glyph-name="circumflex" unicode="&#x2c6;" horiz-adv-x="688" 
d="M268 1196h-73l274 340h111l151 -340h-61l-148 301z" />
    <glyph glyph-name="caron" unicode="&#x2c7;" horiz-adv-x="688" 
d="M319 1536l148 -299l250 299h78l-275 -340h-110l-152 340h61z" />
    <glyph glyph-name="verticallinemod" unicode="&#x2c8;" 
d="M766 1536h57l-59 -340h-57z" />
    <glyph glyph-name="verticallinelowmod" unicode="&#x2cc;" 
d="M467 -164h57l-59 -340h-57z" />
    <glyph glyph-name="breve" unicode="&#x2d8;" horiz-adv-x="688" 
d="M487 1257q106 0 167.5 68t86.5 211h66q-23 -165 -109.5 -252.5t-212.5 -87.5q-130 0 -200.5 88.5t-46.5 251.5h57q-17 -140 33.5 -209.5t158.5 -69.5z" />
    <glyph glyph-name="dotaccent" unicode="&#x2d9;" horiz-adv-x="688" 
d="M514 1413q-28 0 -46.5 17t-18.5 43q0 28 18.5 45.5t46.5 17.5q27 0 45.5 -18t18.5 -45q0 -26 -18.5 -43t-45.5 -17z" />
    <glyph glyph-name="ring" unicode="&#x2da;" horiz-adv-x="688" 
d="M477 1139q-88 0 -149.5 58t-61.5 149q0 107 74 181.5t174 74.5q88 0 149.5 -59t61.5 -150q0 -107 -74 -180.5t-174 -73.5zM479 1202q79 0 128.5 54.5t49.5 132.5q0 66 -40.5 107.5t-104.5 41.5q-79 0 -128.5 -55t-49.5 -133q0 -66 40 -107t105 -41z" />
    <glyph glyph-name="ogonek" unicode="&#x2db;" horiz-adv-x="688" 
d="M29 -332q-1 41 14.5 76.5t56 76t85.5 75.5t128 94l70 49l37 -39l-66 -47q-165 -119 -213.5 -171t-48.5 -114q0 -53 37 -81.5t92 -28.5q57 0 127 32l-12 -67q-56 -27 -117 -27q-92 0 -141 48t-49 124z" />
    <glyph glyph-name="tilde" unicode="&#x2dc;" horiz-adv-x="688" 
d="M205 1237h-60l17 102q11 71 58.5 120.5t119.5 49.5q47 0 84 -23.5t61 -57.5t46.5 -67.5t51.5 -57t64 -23.5q46 0 78 30t41 79l18 106h60l-19 -104q-11 -69 -59 -118.5t-119 -49.5q-48 0 -85 23.5t-61.5 57.5t-47 67.5t-51.5 57t-64 23.5q-45 0 -76 -30.5t-39 -78.5z" />
    <glyph glyph-name="hungarumlaut" unicode="&#x2dd;" horiz-adv-x="688" 
d="M221 1196h-74l271 340h90zM555 1196h-72l269 340h90z" />
    <glyph glyph-name="gravecmb" unicode="&#x300;" horiz-adv-x="0" 
d="M88 1196l-166 340h82l150 -340h-66z" />
    <glyph glyph-name="acutecmb" unicode="&#x301;" horiz-adv-x="0" 
d="M154 1196h-74l268 340h92z" />
    <glyph glyph-name="circumflexcmb" unicode="&#x302;" horiz-adv-x="0" 
d="M-74 1196h-73l274 340h111l151 -340h-61l-148 301z" />
    <glyph glyph-name="tildecmb" unicode="&#x303;" horiz-adv-x="0" 
d="M-137 1237h-60l17 102q11 71 58.5 120.5t119.5 49.5q47 0 84 -23.5t61 -57.5t46.5 -67.5t51.5 -57t64 -23.5q46 0 78 30t41 79l18 106h60l-19 -104q-11 -69 -59 -118.5t-119 -49.5q-48 0 -85 23.5t-61.5 57.5t-47 67.5t-51.5 57t-64 23.5q-45 0 -76 -30.5t-39 -78.5z" />
    <glyph glyph-name="macroncmb" unicode="&#x304;" horiz-adv-x="0" 
d="M-94 1450l10 57h518l-10 -57h-518z" />
    <glyph glyph-name="brevecmb" unicode="&#x306;" horiz-adv-x="0" 
d="M145 1257q106 0 167.5 68t86.5 211h66q-23 -165 -109.5 -252.5t-212.5 -87.5q-130 0 -200.5 88.5t-46.5 251.5h57q-17 -140 33.5 -209.5t158.5 -69.5z" />
    <glyph glyph-name="dotaccentcmb" unicode="&#x307;" horiz-adv-x="0" 
d="M170 1413q-28 0 -47 17t-19 43q0 27 19 45t47 18q27 0 45 -18t18 -45q0 -26 -18 -43t-45 -17z" />
    <glyph glyph-name="dieresiscmb" unicode="&#x308;" horiz-adv-x="0" 
d="M6 1413q-28 0 -46.5 17t-18.5 43q0 28 18.5 45.5t46.5 17.5q27 0 45.5 -18t18.5 -45q0 -26 -18.5 -43t-45.5 -17zM334 1413q-28 0 -47 17t-19 43q0 27 19 45t47 18q27 0 45 -18t18 -45q0 -26 -18 -43t-45 -17z" />
    <glyph glyph-name="hookabovecmb" unicode="&#x309;" horiz-adv-x="0" 
d="M80 1137l-2 59q113 17 162 53.5t49 102.5q0 49 -34 80.5t-95 31.5q-78 0 -164 -65l-33 49q96 76 197 76q90 0 140 -46.5t50 -121.5q0 -187 -270 -219z" />
    <glyph glyph-name="ringabovecmb" unicode="&#x30a;" horiz-adv-x="0" 
d="M133 1139q-88 0 -149.5 58t-61.5 149q0 107 74 181.5t174 74.5q88 0 149.5 -59t61.5 -150q0 -107 -74 -180.5t-174 -73.5zM135 1202q79 0 128.5 54.5t49.5 132.5q0 66 -40.5 107.5t-104.5 41.5q-79 0 -128.5 -55t-49.5 -133q0 -66 40 -107t105 -41z" />
    <glyph glyph-name="hungarumlautcmb" unicode="&#x30b;" horiz-adv-x="0" 
d="M-35 1196h-74l271 340h90zM299 1196h-72l269 340h90z" />
    <glyph glyph-name="caroncmb" unicode="&#x30c;" horiz-adv-x="0" 
d="M-25 1536l148 -299l250 299h78l-275 -340h-110l-152 340h61z" />
    <glyph glyph-name="verticallineabovecmb" unicode="&#x30d;" horiz-adv-x="0" 
d="M152 1536h57l-59 -340h-58z" />
    <glyph glyph-name="commaturnedabovecmb" unicode="&#x312;" horiz-adv-x="0" 
d="M354 1536h74l-268 -340h-92z" />
    <glyph glyph-name="horncmb" unicode="&#x31b;" horiz-adv-x="0" 
d="M94 977h-82l-10 55h94q56 0 98 17.5t64.5 46t33.5 60t11 65.5q0 62 -41 112l57 35q52 -65 52 -147q0 -105 -69.5 -174.5t-207.5 -69.5z" />
    <glyph glyph-name="dotbelowcmb" unicode="&#x323;" horiz-adv-x="0" 
d="M-168 -504q-28 0 -46.5 17t-18.5 43q0 28 18.5 45.5t46.5 17.5q27 0 45.5 -18t18.5 -45q0 -26 -18.5 -43t-45.5 -17z" />
    <glyph glyph-name="commaaccentbelowcmb" unicode="&#x326;" horiz-adv-x="0" 
d="M-352 -504h-74l268 340h92z" />
    <glyph glyph-name="cedillacmb" unicode="&#x327;" horiz-adv-x="0" 
d="M-74 18l60 -18l-150 -164q8 2 27 2q78 0 129 -46.5t51 -113.5q0 -78 -57 -130t-152 -52q-54 0 -106.5 20.5t-87.5 55.5l45 51q65 -65 153 -65q59 0 97 30t38 86q0 43 -31.5 74t-86.5 31q-46 0 -80 -19l-41 45z" />
    <glyph glyph-name="ogonekcmb" unicode="&#x328;" horiz-adv-x="0" 
d="M-479 -332q-1 41 14.5 76.5t56 76t85.5 75.5t128 94l70 49l37 -39l-66 -47q-165 -119 -213.5 -171t-48.5 -114q0 -53 37 -81.5t92 -28.5q57 0 127 32l-12 -67q-56 -27 -117 -27q-92 0 -141 48t-49 124z" />
    <glyph glyph-name="verticallinebelowcmb" unicode="&#x329;" horiz-adv-x="0" 
d="M-150 -164h58l-60 -340h-57z" />
    <glyph glyph-name="belowbrevecmb" unicode="&#x32e;" horiz-adv-x="0" 
d="M-154 -442q106 0 167.5 67.5t86.5 210.5h66q-23 -165 -109.5 -252.5t-212.5 -87.5q-130 0 -200.5 88.5t-46.5 251.5h57q-17 -140 33.5 -209t158.5 -69z" />
    <glyph glyph-name="macronbelowcmb" unicode="&#x331;" horiz-adv-x="0" 
d="M-432 -469l10 57h518l-10 -57h-518z" />
    <glyph glyph-name="halfleftringabovecmb" unicode="&#x351;" horiz-adv-x="0" 
d="M307 1599l-10 -63q-86 1 -139.5 -52t-53.5 -128q0 -67 37 -109t97 -47l-11 -61q-81 6 -135.5 65.5t-54.5 151.5q0 109 78 177.5t192 65.5z" />
    <glyph glyph-name="halfrightringabovecmb" unicode="&#x357;" horiz-adv-x="0" 
d="M37 1143l10 63q86 -1 139.5 52t53.5 128q0 67 -37 109t-97 47l11 62q81 -6 135.5 -65.5t54.5 -152.5q0 -109 -78 -177.5t-192 -65.5z" />
    <glyph glyph-name="Ddotbelow" unicode="&#x1e0c;" horiz-adv-x="1603" 
d="M150 0l253 1434h449q156 0 283.5 -46t214 -129t133.5 -199t47 -255q0 -125 -37 -243.5t-111.5 -220t-177 -178t-242 -120t-298.5 -43.5h-514zM852 1368h-391l-230 -1302h433q180 0 331.5 61.5t251 164.5t154.5 235t55 276q0 253 -164 409t-440 156zM635 -504
q-28 0 -47 17t-19 43q0 27 19 45t47 18q27 0 45 -18t18 -45q0 -26 -18 -43t-45 -17z" />
    <glyph glyph-name="ddotbelow" unicode="&#x1e0d;" horiz-adv-x="1316" 
d="M104 438q0 176 75 321.5t209 229.5t300 84q139 0 247.5 -62t166.5 -175l123 700h65l-270 -1536h-66l25 139q-80 -88 -183 -134t-210 -46q-147 0 -257.5 63.5t-167.5 171.5t-57 244zM176 438q0 -181 112 -298t300 -117q117 0 224.5 55t184.5 164l88 508
q-52 121 -155.5 190.5t-239.5 69.5q-221 0 -367.5 -163t-146.5 -409zM492 -504q-28 0 -47 17t-19 43q0 27 19 45t47 18q27 0 45 -18t18 -45q0 -26 -18 -43t-45 -17z" />
    <glyph glyph-name="Dlinebelow" unicode="&#x1e0e;" horiz-adv-x="1603" 
d="M150 0l253 1434h449q156 0 283.5 -46t214 -129t133.5 -199t47 -255q0 -125 -37 -243.5t-111.5 -220t-177 -178t-242 -120t-298.5 -43.5h-514zM852 1368h-391l-230 -1302h433q180 0 331.5 61.5t251 164.5t154.5 235t55 276q0 253 -164 409t-440 156zM371 -469l10 57h518
l-10 -57h-518z" />
    <glyph glyph-name="dlinebelow" unicode="&#x1e0f;" horiz-adv-x="1316" 
d="M104 438q0 176 75 321.5t209 229.5t300 84q139 0 247.5 -62t166.5 -175l123 700h65l-270 -1536h-66l25 139q-80 -88 -183 -134t-210 -46q-147 0 -257.5 63.5t-167.5 171.5t-57 244zM176 438q0 -181 112 -298t300 -117q117 0 224.5 55t184.5 164l88 508
q-52 121 -155.5 190.5t-239.5 69.5q-221 0 -367.5 -163t-146.5 -409zM227 -469l11 57h518l-11 -57h-518z" />
    <glyph glyph-name="Dcedilla" unicode="&#x1e10;" horiz-adv-x="1603" 
d="M150 0l253 1434h449q156 0 283.5 -46t214 -129t133.5 -199t47 -255q0 -125 -37 -243.5t-111.5 -220t-177 -178t-242 -120t-298.5 -43.5h-514zM852 1368h-391l-230 -1302h433q180 0 331.5 61.5t251 164.5t154.5 235t55 276q0 253 -164 409t-440 156zM451 -504h-74l268 340
h92z" />
    <glyph glyph-name="dcedilla" unicode="&#x1e11;" horiz-adv-x="1316" 
d="M104 438q0 176 75 321.5t209 229.5t300 84q139 0 247.5 -62t166.5 -175l123 700h65l-270 -1536h-66l25 139q-80 -88 -183 -134t-210 -46q-147 0 -257.5 63.5t-167.5 171.5t-57 244zM176 438q0 -181 112 -298t300 -117q117 0 224.5 55t184.5 164l88 508
q-52 121 -155.5 190.5t-239.5 69.5q-221 0 -367.5 -163t-146.5 -409zM307 -504h-74l269 340h92z" />
    <glyph glyph-name="Gmacron" unicode="&#x1e20;" horiz-adv-x="1642" 
d="M760 1720l10 58h518l-10 -58h-518zM795 -41q-190 0 -340.5 91t-231 242.5t-80.5 332.5q0 168 60.5 322.5t167 271t262.5 186.5t336 70q195 0 341.5 -82t221.5 -219l-62 -39q-64 126 -197 200t-304 74q-160 0 -301 -64.5t-239 -171.5t-155 -251t-57 -299q0 -162 72 -298
t205 -218t299 -82q309 0 550 223l80 450h-460l10 64h532l-98 -551q-259 -252 -612 -252z" />
    <glyph glyph-name="gmacron" unicode="&#x1e21;" horiz-adv-x="1099" 
d="M410 1450l10 57h518l-10 -57h-518zM-49 -236q0 193 225 322q-67 36 -67 123q0 68 54.5 125.5t125.5 87.5q-53 46 -82 111t-29 137q0 104 48 195t146.5 150.5t227.5 59.5q92 0 170 -43h404l-13 -63h-313q84 -94 84 -219q0 -77 -28.5 -149.5t-80 -130.5t-132.5 -93
t-177 -35q-99 0 -178 45q-77 -33 -120.5 -82t-43.5 -96q0 -78 94 -78h316q177 0 260.5 -72.5t83.5 -197.5q0 -162 -142.5 -267.5t-390.5 -105.5q-222 0 -332 74t-110 202zM858 748q0 109 -70.5 185.5t-187.5 76.5q-69 0 -126.5 -19.5t-98 -52t-68.5 -76t-41.5 -92.5
t-13.5 -100q0 -110 70 -186t192 -76q160 0 252 102.5t92 237.5zM23 -227q0 -104 90 -161.5t278 -57.5q221 0 343 85.5t122 223.5q0 91 -63.5 147t-210.5 56h-316h-6q-110 -47 -173.5 -130t-63.5 -163z" />
    <glyph glyph-name="Hdotbelow" unicode="&#x1e24;" horiz-adv-x="1638" 
d="M150 0l253 1434h70l-119 -672h1020l119 672h70l-254 -1434h-70l123 698h-1020l-123 -698h-69zM651 -504q-28 0 -46.5 17t-18.5 43q0 28 18.5 45.5t46.5 17.5q27 0 45.5 -18t18.5 -45q0 -26 -18.5 -43t-45.5 -17z" />
    <glyph glyph-name="hdotbelow" unicode="&#x1e25;" horiz-adv-x="1245" 
d="M123 0l270 1536h66l-117 -664q164 201 397 201q188 0 281 -114.5t57 -319.5l-112 -639h-66l113 639q32 178 -43.5 274.5t-229.5 96.5q-248 0 -415 -244l-136 -766h-65zM475 -504q-28 0 -46.5 17t-18.5 43q0 28 18.5 45.5t46.5 17.5q27 0 45.5 -18t18.5 -45
q0 -26 -18.5 -43t-45.5 -17z" />
    <glyph glyph-name="Hcedilla" unicode="&#x1e28;" horiz-adv-x="1638" 
d="M150 0l253 1434h70l-119 -672h1020l119 672h70l-254 -1434h-70l123 698h-1020l-123 -698h-69zM467 -504h-74l269 340h92z" />
    <glyph glyph-name="hcedilla" unicode="&#x1e29;" horiz-adv-x="1245" 
d="M123 0l270 1536h66l-117 -664q164 201 397 201q188 0 281 -114.5t57 -319.5l-112 -639h-66l113 639q32 178 -43.5 274.5t-229.5 96.5q-248 0 -415 -244l-136 -766h-65zM291 -504h-74l268 340h93z" />
    <glyph glyph-name="Hbrevebelow" unicode="&#x1e2a;" horiz-adv-x="1638" 
d="M150 0l253 1434h70l-119 -672h1020l119 672h70l-254 -1434h-70l123 698h-1020l-123 -698h-69zM666 -442q106 0 167.5 67.5t86.5 210.5h65q-23 -165 -109 -252.5t-212 -87.5q-130 0 -201 88.5t-47 251.5h57q-17 -139 34 -208.5t159 -69.5z" />
    <glyph glyph-name="hbrevebelow" unicode="&#x1e2b;" horiz-adv-x="1245" 
d="M123 0l270 1536h66l-117 -664q164 201 397 201q188 0 281 -114.5t57 -319.5l-112 -639h-66l113 639q32 178 -43.5 274.5t-229.5 96.5q-248 0 -415 -244l-136 -766h-65zM489 -442q106 0 167.5 67.5t86.5 210.5h66q-23 -165 -109.5 -252.5t-212.5 -87.5q-130 0 -200.5 88.5
t-46.5 251.5h57q-17 -140 33.5 -209t158.5 -69z" />
    <glyph glyph-name="Kdotbelow" unicode="&#x1e32;" horiz-adv-x="1366" 
d="M150 0l253 1434h70l-147 -830l1007 830h99l-701 -580l486 -854h-87l-452 811l-369 -305l-90 -506h-69zM578 -504q-28 0 -47 17t-19 43q0 27 19 45t47 18q27 0 45 -18t18 -45q0 -26 -18 -43t-45 -17z" />
    <glyph glyph-name="kdotbelow" unicode="&#x1e33;" horiz-adv-x="1054" 
d="M123 0l270 1536h66l-191 -1083l701 579h94l-504 -418l344 -614h-74l-319 571l-258 -215l-64 -356h-65zM432 -504q-28 0 -46.5 17t-18.5 43q0 28 18.5 45.5t46.5 17.5q27 0 45.5 -18t18.5 -45q0 -26 -18.5 -43t-45.5 -17z" />
    <glyph glyph-name="Klinebelow" unicode="&#x1e34;" horiz-adv-x="1366" 
d="M150 0l253 1434h70l-147 -830l1007 830h99l-701 -580l486 -854h-87l-452 811l-369 -305l-90 -506h-69zM313 -469l11 57h518l-11 -57h-518z" />
    <glyph glyph-name="klinebelow" unicode="&#x1e35;" horiz-adv-x="1054" 
d="M123 0l270 1536h66l-191 -1083l701 579h94l-504 -418l344 -614h-74l-319 571l-258 -215l-64 -356h-65zM168 -469l10 57h518l-10 -57h-518z" />
    <glyph glyph-name="Mdotbelow" unicode="&#x1e42;" horiz-adv-x="1736" 
d="M150 0l253 1434h95l376 -873l685 873h102l-252 -1434h-70l238 1350l-674 -858h-74l-370 860l-240 -1352h-69zM700 -504q-28 0 -46.5 17t-18.5 43q0 28 18.5 45.5t46.5 17.5q27 0 45.5 -18t18.5 -45q0 -26 -18.5 -43t-45.5 -17z" />
    <glyph glyph-name="mdotbelow" unicode="&#x1e43;" horiz-adv-x="1939" 
d="M123 0l182 1032h66l-29 -158q165 199 377 199q130 0 214.5 -65t106.5 -185q188 250 416 250q176 0 265 -114.5t53 -319.5l-113 -639h-66l113 639q31 177 -39.5 274t-212.5 97q-228 0 -409 -265q0 -38 -11 -106l-112 -639h-66l113 639q31 177 -39.5 274t-212.5 97
q-229 0 -395 -244l-136 -766h-65zM803 -504q-28 0 -47 17t-19 43q0 27 19 45t47 18q27 0 45 -18t18 -45q0 -26 -18 -43t-45 -17z" />
    <glyph glyph-name="Ndotbelow" unicode="&#x1e46;" horiz-adv-x="1638" 
d="M150 0l253 1434h93l755 -1362l242 1362h70l-254 -1434h-95l-755 1358l-240 -1358h-69zM651 -504q-28 0 -46.5 17t-18.5 43q0 28 18.5 45.5t46.5 17.5q27 0 45.5 -18t18.5 -45q0 -26 -18.5 -43t-45.5 -17z" />
    <glyph glyph-name="ndotbelow" unicode="&#x1e47;" horiz-adv-x="1245" 
d="M123 0l182 1032h66l-29 -160q167 201 397 201q188 0 281 -114.5t57 -319.5l-112 -639h-66l113 639q32 178 -43.5 274.5t-229.5 96.5q-248 0 -415 -244l-136 -766h-65zM475 -504q-28 0 -46.5 17t-18.5 43q0 28 18.5 45.5t46.5 17.5q27 0 45.5 -18t18.5 -45
q0 -26 -18.5 -43t-45.5 -17z" />
    <glyph glyph-name="Rdotbelow" unicode="&#x1e5a;" horiz-adv-x="1204" 
d="M150 0l253 1434h254q183 0 286.5 -86t103.5 -246q0 -148 -88 -253t-242 -140l354 -709h-84l-340 694q-54 -4 -86 -4h-219l-123 -690h-69zM657 1368h-196l-109 -612h209q193 0 302.5 93.5t109.5 250.5q0 134 -82 201t-234 67zM496 -504q-28 0 -47 17t-19 43q0 27 19 45
t47 18q27 0 45 -18t18 -45q0 -26 -18 -43t-45 -17z" />
    <glyph glyph-name="rdotbelow" unicode="&#x1e5b;" horiz-adv-x="768" 
d="M123 0l182 1032h66l-29 -168q84 98 164.5 143.5t179.5 45.5q56 0 96 -13l-12 -61q-43 12 -86 12q-102 0 -184.5 -53.5t-175.5 -173.5l-136 -764h-65zM76 -504q-28 0 -47 17t-19 43q0 27 19 45t47 18q27 0 45 -18t18 -45q0 -26 -18 -43t-45 -17z" />
    <glyph glyph-name="Sdotbelow" unicode="&#x1e62;" horiz-adv-x="1167" 
d="M416 1106q0 -71 30 -131t77.5 -103t105 -83.5t115 -82.5t105 -89.5t77.5 -114.5t30 -148q0 -169 -118 -282t-306 -113q-276 0 -421 231l59 41q133 -204 362 -204q160 0 256.5 95t96.5 232q0 72 -30 132.5t-77.5 104t-105.5 84t-115.5 82.5t-105 89t-77.5 113.5t-30 146.5
q0 153 115.5 261t279.5 108q266 0 363 -220l-62 -36q-78 188 -301 188q-135 0 -229 -88.5t-94 -212.5zM436 -504q-28 0 -46.5 17t-18.5 43q0 28 18.5 45.5t46.5 17.5q27 0 45.5 -18t18.5 -45q0 -26 -18.5 -43t-45.5 -17z" />
    <glyph glyph-name="sdotbelow" unicode="&#x1e63;" horiz-adv-x="845" 
d="M264 795q0 -53 23.5 -95.5t61 -72t83 -57t91 -56t83 -61.5t61 -82.5t23.5 -110.5q0 -124 -91.5 -212.5t-227.5 -88.5q-109 0 -202.5 49.5t-145.5 143.5l59 38q104 -167 289 -167q111 0 180.5 68t69.5 169q0 53 -23.5 95t-61 71.5t-83 56.5t-91 55.5t-83 62t-61 83
t-23.5 111.5q0 117 91 197.5t220 80.5q102 0 178.5 -50.5t116.5 -133.5l-64 -35q-67 156 -231 156q-102 0 -172 -65t-70 -150zM276 -504q-28 0 -46.5 17t-18.5 43q0 28 18.5 45.5t46.5 17.5q27 0 45.5 -18t18.5 -45q0 -26 -18.5 -43t-45.5 -17z" />
    <glyph glyph-name="Tdotbelow" unicode="&#x1e6c;" horiz-adv-x="1230" 
d="M231 1368l11 66h1069l-11 -66h-501l-240 -1368h-70l240 1368h-498zM440 -504q-28 0 -46.5 17t-18.5 43q0 28 18.5 45.5t46.5 17.5q27 0 45.5 -18t18.5 -45q0 -26 -18.5 -43t-45.5 -17z" />
    <glyph glyph-name="tdotbelow" unicode="&#x1e6d;" horiz-adv-x="815" 
d="M227 317l115 654h-190l12 61h190l45 258h68l-45 -258h401l-10 -61h-403l-115 -654q-9 -48 -9 -87t6.5 -67.5t20.5 -49.5t32 -34.5t42.5 -21.5t50.5 -11t58 -3q72 0 157 29l-12 -66q-70 -26 -145 -26q-59 0 -104.5 10t-84.5 33.5t-59.5 62t-28.5 96t8 135.5zM328 -504
q-28 0 -47 17t-19 43q0 27 19 45t47 18q27 0 45 -18t18 -45q0 -26 -18 -43t-45 -17z" />
    <glyph glyph-name="Tlinebelow" unicode="&#x1e6e;" horiz-adv-x="1230" 
d="M231 1368l11 66h1069l-11 -66h-501l-240 -1368h-70l240 1368h-498zM176 -469l10 57h519l-11 -57h-518z" />
    <glyph glyph-name="tlinebelow" unicode="&#x1e6f;" horiz-adv-x="815" 
d="M227 317l115 654h-190l12 61h190l45 258h68l-45 -258h401l-10 -61h-403l-115 -654q-9 -48 -9 -87t6.5 -67.5t20.5 -49.5t32 -34.5t42.5 -21.5t50.5 -11t58 -3q72 0 157 29l-12 -66q-70 -26 -145 -26q-59 0 -104.5 10t-84.5 33.5t-59.5 62t-28.5 96t8 135.5zM63 -469
l11 57h518l-10 -57h-519z" />
    <glyph glyph-name="Wgrave" unicode="&#x1e80;" horiz-adv-x="1984" 
d="M1149 1556l-201 277h88l176 -277h-63zM246 1434h71l115 -1362l670 1362h102l189 -1366l596 1366h75l-628 -1434h-103l-190 1354l-672 -1354h-102z" />
    <glyph glyph-name="wgrave" unicode="&#x1e81;" horiz-adv-x="1505" 
d="M842 1196l-166 340h82l149 -340h-65zM180 1032h70l78 -960l465 960h96l127 -960l418 960h71l-448 -1032h-96l-132 954l-467 -954h-96z" />
    <glyph glyph-name="Wacute" unicode="&#x1e82;" horiz-adv-x="1984" 
d="M1217 1556h-72l272 277h99zM246 1434h71l115 -1362l670 1362h102l189 -1366l596 1366h75l-628 -1434h-103l-190 1354l-672 -1354h-102z" />
    <glyph glyph-name="wacute" unicode="&#x1e83;" horiz-adv-x="1505" 
d="M907 1196h-73l268 340h92zM180 1032h70l78 -960l465 960h96l127 -960l418 960h71l-448 -1032h-96l-132 954l-467 -954h-96z" />
    <glyph glyph-name="Wdieresis" unicode="&#x1e84;" horiz-adv-x="1984" 
d="M1044 1688q-28 0 -46.5 17t-18.5 44q0 28 18.5 45.5t46.5 17.5t47 -18t19 -45t-19 -44t-47 -17zM1374 1688q-28 0 -46.5 17t-18.5 44q0 28 18.5 45.5t46.5 17.5t47 -18t19 -45t-19 -44t-47 -17zM246 1434h71l115 -1362l670 1362h102l189 -1366l596 1366h75l-628 -1434
h-103l-190 1354l-672 -1354h-102z" />
    <glyph glyph-name="wdieresis" unicode="&#x1e85;" horiz-adv-x="1505" 
d="M760 1413q-28 0 -47 17t-19 43q0 27 19 45t47 18q27 0 45 -18t18 -45q0 -26 -18 -43t-45 -17zM1087 1413q-28 0 -46.5 17t-18.5 43q0 28 18.5 45.5t46.5 17.5q27 0 45.5 -18t18.5 -45q0 -26 -18.5 -43t-45.5 -17zM180 1032h70l78 -960l465 960h96l127 -960l418 960h71
l-448 -1032h-96l-132 954l-467 -954h-96z" />
    <glyph glyph-name="Zdotbelow" unicode="&#x1e92;" horiz-adv-x="1261" 
d="M6 0l10 66l1190 1302h-940l13 66h1030l-13 -66l-1190 -1302h979l-10 -66h-1069zM483 -504q-28 0 -46.5 17t-18.5 43q0 28 18.5 45.5t46.5 17.5q27 0 45.5 -18t18.5 -45q0 -26 -18.5 -43t-45.5 -17z" />
    <glyph glyph-name="zdotbelow" unicode="&#x1e93;" horiz-adv-x="933" 
d="M-10 0l10 61l838 910h-664l12 61h748l-12 -61l-838 -910h692l-10 -61h-776zM299 -504q-28 0 -47 17t-19 43q0 27 19 45t47 18q27 0 45 -18t18 -45q0 -26 -18 -43t-45 -17z" />
    <glyph glyph-name="hlinebelow" unicode="&#x1e96;" horiz-adv-x="1245" 
d="M123 0l270 1536h66l-117 -664q164 201 397 201q188 0 281 -114.5t57 -319.5l-112 -639h-66l113 639q32 178 -43.5 274.5t-229.5 96.5q-248 0 -415 -244l-136 -766h-65zM211 -469l10 57h518l-10 -57h-518z" />
    <glyph glyph-name="tdieresis" unicode="&#x1e97;" horiz-adv-x="815" 
d="M336 1610q-28 0 -47 16.5t-19 42.5q0 28 19 46t47 18q26 0 44.5 -18.5t18.5 -45.5q0 -26 -18 -42.5t-45 -16.5zM664 1610q-28 0 -47 16.5t-19 42.5q0 28 19 46t47 18q26 0 44.5 -18.5t18.5 -45.5q0 -26 -18 -42.5t-45 -16.5zM227 317l115 654h-190l12 61h190l45 258h68
l-45 -258h401l-10 -61h-403l-115 -654q-9 -48 -9 -87t6.5 -67.5t20.5 -49.5t32 -34.5t42.5 -21.5t50.5 -11t58 -3q72 0 157 29l-12 -66q-70 -26 -145 -26q-59 0 -104.5 10t-84.5 33.5t-59.5 62t-28.5 96t8 135.5z" />
    <glyph glyph-name="Germandbls" unicode="&#x1e9e;" horiz-adv-x="1490" 
d="M150 0l253 1434h1035l-13 -66l-546 -557q214 -7 338 -119t124 -289q0 -205 -129.5 -324.5t-330.5 -119.5q-128 0 -244.5 57t-194.5 174l60 41q73 -102 175 -153t204 -51q172 0 280.5 102t108.5 274q0 160 -116.5 251t-303.5 91h-76l12 66l547 557h-872l-242 -1368h-69z
" />
    <glyph glyph-name="Adotbelow" unicode="&#x1ea0;" horiz-adv-x="1445" 
d="M-8 0l844 1434h100l338 -1434h-70l-112 481h-740l-282 -481h-78zM391 547h686l-194 837zM555 -504q-28 0 -47 17t-19 43q0 27 19 45t47 18q27 0 45 -18t18 -45q0 -26 -18 -43t-45 -17z" />
    <glyph glyph-name="adotbelow" unicode="&#x1ea1;" horiz-adv-x="1110" 
d="M399 -29q-138 0 -219.5 67.5t-81.5 182.5q0 250 367 311l405 68l19 105q26 146 -45 224.5t-211 78.5q-101 0 -194.5 -46.5t-164.5 -127.5l-53 47q81 90 187 141t225 51q173 0 262 -98.5t59 -269.5l-127 -705h-63l29 158q-85 -93 -179.5 -140t-214.5 -47zM172 221
q0 -81 61 -132.5t166 -51.5q127 0 226.5 58t185.5 171l49 273l-381 -66q-307 -53 -307 -252zM387 -504q-28 0 -46.5 17t-18.5 43q0 28 18.5 45.5t46.5 17.5q27 0 45.5 -18t18.5 -45q0 -26 -18.5 -43t-45.5 -17z" />
    <glyph glyph-name="Ahoi" unicode="&#x1ea2;" horiz-adv-x="1445" 
d="M879 1509l-2 60q113 17 161.5 53t48.5 102q0 49 -34 81t-95 32q-77 0 -163 -65l-33 49q95 75 196 75q90 0 140.5 -46t50.5 -121q0 -188 -270 -220zM-8 0l844 1434h100l338 -1434h-70l-112 481h-740l-282 -481h-78zM391 547h686l-194 837z" />
    <glyph glyph-name="ahoi" unicode="&#x1ea3;" horiz-adv-x="1110" 
d="M635 1137l-2 59q113 17 162 53.5t49 102.5q0 49 -34 80.5t-95 31.5q-78 0 -164 -65l-33 49q96 76 197 76q90 0 140 -46.5t50 -121.5q0 -187 -270 -219zM399 -29q-138 0 -219.5 67.5t-81.5 182.5q0 250 367 311l405 68l19 105q26 146 -45 224.5t-211 78.5
q-101 0 -194.5 -46.5t-164.5 -127.5l-53 47q81 90 187 141t225 51q173 0 262 -98.5t59 -269.5l-127 -705h-63l29 158q-85 -93 -179.5 -140t-214.5 -47zM172 221q0 -81 61 -132.5t166 -51.5q127 0 226.5 58t185.5 171l49 273l-381 -66q-307 -53 -307 -252z" />
    <glyph glyph-name="Acircumflexacute" unicode="&#x1ea4;" horiz-adv-x="1445" 
d="M1217 1765h-72l280 277h99zM702 1556h-71l272 277h109l174 -277h-62l-168 234zM-8 0l844 1434h100l338 -1434h-70l-112 481h-740l-282 -481h-78zM391 547h686l-194 837z" />
    <glyph glyph-name="acircumflexacute" unicode="&#x1ea5;" horiz-adv-x="1110" 
d="M979 1364h-72l281 276h98zM465 1155h-72l273 277h108l174 -277h-61l-168 234zM399 -29q-138 0 -219.5 67.5t-81.5 182.5q0 250 367 311l405 68l19 105q26 146 -45 224.5t-211 78.5q-101 0 -194.5 -46.5t-164.5 -127.5l-53 47q81 90 187 141t225 51q173 0 262 -98.5
t59 -269.5l-127 -705h-63l29 158q-85 -93 -179.5 -140t-214.5 -47zM172 221q0 -81 61 -132.5t166 -51.5q127 0 226.5 58t185.5 171l49 273l-381 -66q-307 -53 -307 -252z" />
    <glyph glyph-name="Acircumflexgrave" unicode="&#x1ea6;" horiz-adv-x="1445" 
d="M1231 1765l-209 277h92l182 -277h-65zM702 1556h-71l272 277h109l174 -277h-62l-168 234zM-8 0l844 1434h100l338 -1434h-70l-112 481h-740l-282 -481h-78zM391 547h686l-194 837z" />
    <glyph glyph-name="acircumflexgrave" unicode="&#x1ea7;" horiz-adv-x="1110" 
d="M993 1364l-209 276h93l182 -276h-66zM465 1155h-72l273 277h108l174 -277h-61l-168 234zM399 -29q-138 0 -219.5 67.5t-81.5 182.5q0 250 367 311l405 68l19 105q26 146 -45 224.5t-211 78.5q-101 0 -194.5 -46.5t-164.5 -127.5l-53 47q81 90 187 141t225 51
q173 0 262 -98.5t59 -269.5l-127 -705h-63l29 158q-85 -93 -179.5 -140t-214.5 -47zM172 221q0 -81 61 -132.5t166 -51.5q127 0 226.5 58t185.5 171l49 273l-381 -66q-307 -53 -307 -252z" />
    <glyph glyph-name="Acircumflexhoi" unicode="&#x1ea8;" horiz-adv-x="1445" 
d="M1188 1741l-12 59q85 12 121 42t36 79q0 35 -24 57.5t-66 22.5q-56 0 -108 -45l-37 43q60 63 143 63q71 0 114.5 -39t43.5 -100q0 -152 -211 -182zM702 1556h-71l272 277h109l174 -277h-62l-168 234zM-8 0l844 1434h100l338 -1434h-70l-112 481h-740l-282 -481h-78z
M391 547h686l-194 837z" />
    <glyph glyph-name="acircumflexhoi" unicode="&#x1ea9;" horiz-adv-x="1110" 
d="M950 1339l-12 60q85 12 121.5 42t36.5 79q0 35 -24 57t-66 22q-57 0 -109 -45l-37 43q61 64 144 64q71 0 114 -39t43 -100q0 -153 -211 -183zM465 1155h-72l273 277h108l174 -277h-61l-168 234zM399 -29q-138 0 -219.5 67.5t-81.5 182.5q0 250 367 311l405 68l19 105
q26 146 -45 224.5t-211 78.5q-101 0 -194.5 -46.5t-164.5 -127.5l-53 47q81 90 187 141t225 51q173 0 262 -98.5t59 -269.5l-127 -705h-63l29 158q-85 -93 -179.5 -140t-214.5 -47zM172 221q0 -81 61 -132.5t166 -51.5q127 0 226.5 58t185.5 171l49 273l-381 -66
q-307 -53 -307 -252z" />
    <glyph glyph-name="Acircumflextilde" unicode="&#x1eaa;" horiz-adv-x="1445" 
d="M688 1915l19 100q13 69 50.5 112.5t98.5 43.5q44 0 77 -22.5t52 -55t36.5 -64.5t42 -54.5t56.5 -22.5q35 0 60 26t32 72l19 100h59l-18 -100q-13 -69 -51.5 -112.5t-100.5 -43.5q-44 0 -77.5 22.5t-54 55t-38.5 65t-41.5 55t-52.5 22.5q-34 0 -58.5 -26.5t-31.5 -72.5
l-18 -100h-60zM702 1556h-71l272 277h109l174 -277h-62l-168 234zM-8 0l844 1434h100l338 -1434h-70l-112 481h-740l-282 -481h-78zM391 547h686l-194 837z" />
    <glyph glyph-name="acircumflextilde" unicode="&#x1eab;" horiz-adv-x="1110" 
d="M451 1513l18 101q13 68 50.5 111.5t98.5 43.5q44 0 77 -22.5t52.5 -54.5t37 -64.5t42 -55t56.5 -22.5q35 0 59.5 26.5t32.5 72.5l18 100h60l-19 -100q-13 -69 -51 -112.5t-100 -43.5q-44 0 -77.5 22.5t-54 54.5t-39 64.5t-42 55t-52.5 22.5q-34 0 -58.5 -26t-31.5 -72
l-18 -101h-59zM465 1155h-72l273 277h108l174 -277h-61l-168 234zM399 -29q-138 0 -219.5 67.5t-81.5 182.5q0 250 367 311l405 68l19 105q26 146 -45 224.5t-211 78.5q-101 0 -194.5 -46.5t-164.5 -127.5l-53 47q81 90 187 141t225 51q173 0 262 -98.5t59 -269.5l-127 -705
h-63l29 158q-85 -93 -179.5 -140t-214.5 -47zM172 221q0 -81 61 -132.5t166 -51.5q127 0 226.5 58t185.5 171l49 273l-381 -66q-307 -53 -307 -252z" />
    <glyph glyph-name="Acircumflexdotbelow" unicode="&#x1eac;" horiz-adv-x="1445" 
d="M702 1556h-71l272 277h109l174 -277h-62l-168 234zM-8 0l844 1434h100l338 -1434h-70l-112 481h-740l-282 -481h-78zM391 547h686l-194 837zM555 -504q-28 0 -47 17t-19 43q0 27 19 45t47 18q27 0 45 -18t18 -45q0 -26 -18 -43t-45 -17z" />
    <glyph glyph-name="acircumflexdotbelow" unicode="&#x1ead;" horiz-adv-x="1110" 
d="M481 1196h-73l274 340h111l151 -340h-61l-148 301zM399 -29q-138 0 -219.5 67.5t-81.5 182.5q0 250 367 311l405 68l19 105q26 146 -45 224.5t-211 78.5q-101 0 -194.5 -46.5t-164.5 -127.5l-53 47q81 90 187 141t225 51q173 0 262 -98.5t59 -269.5l-127 -705h-63l29 158
q-85 -93 -179.5 -140t-214.5 -47zM172 221q0 -81 61 -132.5t166 -51.5q127 0 226.5 58t185.5 171l49 273l-381 -66q-307 -53 -307 -252zM387 -504q-28 0 -46.5 17t-18.5 43q0 28 18.5 45.5t46.5 17.5q27 0 45.5 -18t18.5 -45q0 -26 -18.5 -43t-45.5 -17z" />
    <glyph glyph-name="Abreveacute" unicode="&#x1eae;" horiz-adv-x="1445" 
d="M1008 1894h-72l272 277h99zM928 1597q93 0 157.5 59t90.5 177h67q-25 -142 -114 -219.5t-203 -77.5q-128 0 -200.5 77.5t-51.5 219.5h57q-13 -117 41 -176.5t156 -59.5zM-8 0l844 1434h100l338 -1434h-70l-112 481h-740l-282 -481h-78zM391 547h686l-194 837z" />
    <glyph glyph-name="abreveacute" unicode="&#x1eaf;" horiz-adv-x="1110" 
d="M770 1493h-72l273 276h98zM690 1196q93 0 157.5 59t90.5 177h68q-25 -142 -114 -219.5t-204 -77.5q-128 0 -200.5 77.5t-51.5 219.5h58q-13 -117 40.5 -176.5t155.5 -59.5zM399 -29q-138 0 -219.5 67.5t-81.5 182.5q0 250 367 311l405 68l19 105q26 146 -45 224.5
t-211 78.5q-101 0 -194.5 -46.5t-164.5 -127.5l-53 47q81 90 187 141t225 51q173 0 262 -98.5t59 -269.5l-127 -705h-63l29 158q-85 -93 -179.5 -140t-214.5 -47zM172 221q0 -81 61 -132.5t166 -51.5q127 0 226.5 58t185.5 171l49 273l-381 -66q-307 -53 -307 -252z" />
    <glyph glyph-name="Abrevegrave" unicode="&#x1eb0;" horiz-adv-x="1445" 
d="M940 1894l-201 277h88l177 -277h-64zM928 1597q93 0 157.5 59t90.5 177h67q-25 -142 -114 -219.5t-203 -77.5q-128 0 -200.5 77.5t-51.5 219.5h57q-13 -117 41 -176.5t156 -59.5zM-8 0l844 1434h100l338 -1434h-70l-112 481h-740l-282 -481h-78zM391 547h686l-194 837z
" />
    <glyph glyph-name="abrevegrave" unicode="&#x1eb1;" horiz-adv-x="1110" 
d="M702 1493l-200 276h88l176 -276h-64zM690 1196q93 0 157.5 59t90.5 177h68q-25 -142 -114 -219.5t-204 -77.5q-128 0 -200.5 77.5t-51.5 219.5h58q-13 -117 40.5 -176.5t155.5 -59.5zM399 -29q-138 0 -219.5 67.5t-81.5 182.5q0 250 367 311l405 68l19 105
q26 146 -45 224.5t-211 78.5q-101 0 -194.5 -46.5t-164.5 -127.5l-53 47q81 90 187 141t225 51q173 0 262 -98.5t59 -269.5l-127 -705h-63l29 158q-85 -93 -179.5 -140t-214.5 -47zM172 221q0 -81 61 -132.5t166 -51.5q127 0 226.5 58t185.5 171l49 273l-381 -66
q-307 -53 -307 -252z" />
    <glyph glyph-name="Abrevehoi" unicode="&#x1eb2;" horiz-adv-x="1445" 
d="M938 1847l-2 60q113 17 162 53t49 102q0 49 -34 81t-95 32q-77 0 -164 -66l-33 50q95 75 197 75q90 0 140 -46.5t50 -121.5q0 -187 -270 -219zM928 1597q93 0 157.5 59t90.5 177h67q-25 -142 -114 -219.5t-203 -77.5q-128 0 -200.5 77.5t-51.5 219.5h57
q-13 -117 41 -176.5t156 -59.5zM-8 0l844 1434h100l338 -1434h-70l-112 481h-740l-282 -481h-78zM391 547h686l-194 837z" />
    <glyph glyph-name="abrevehoi" unicode="&#x1eb3;" horiz-adv-x="1110" 
d="M700 1446l-2 59q113 17 162 53.5t49 102.5q0 49 -34 81t-95 32q-77 0 -164 -66l-32 49q96 76 196 76q90 0 140.5 -46.5t50.5 -121.5q0 -187 -271 -219zM690 1196q93 0 157.5 59t90.5 177h68q-25 -142 -114 -219.5t-204 -77.5q-128 0 -200.5 77.5t-51.5 219.5h58
q-13 -117 40.5 -176.5t155.5 -59.5zM399 -29q-138 0 -219.5 67.5t-81.5 182.5q0 250 367 311l405 68l19 105q26 146 -45 224.5t-211 78.5q-101 0 -194.5 -46.5t-164.5 -127.5l-53 47q81 90 187 141t225 51q173 0 262 -98.5t59 -269.5l-127 -705h-63l29 158
q-85 -93 -179.5 -140t-214.5 -47zM172 221q0 -81 61 -132.5t166 -51.5q127 0 226.5 58t185.5 171l49 273l-381 -66q-307 -53 -307 -252z" />
    <glyph glyph-name="Abrevetilde" unicode="&#x1eb4;" horiz-adv-x="1445" 
d="M688 1915l19 100q13 69 50.5 112.5t98.5 43.5q44 0 77 -22.5t52 -55t36.5 -64.5t42 -54.5t56.5 -22.5q35 0 60 26t32 72l19 100h59l-18 -100q-13 -69 -51.5 -112.5t-100.5 -43.5q-44 0 -77.5 22.5t-54 55t-38.5 65t-41.5 55t-52.5 22.5q-34 0 -58.5 -26.5t-31.5 -72.5
l-18 -100h-60zM928 1597q93 0 157.5 59t90.5 177h67q-25 -142 -114 -219.5t-203 -77.5q-128 0 -200.5 77.5t-51.5 219.5h57q-13 -117 41 -176.5t156 -59.5zM-8 0l844 1434h100l338 -1434h-70l-112 481h-740l-282 -481h-78zM391 547h686l-194 837z" />
    <glyph glyph-name="abrevetilde" unicode="&#x1eb5;" horiz-adv-x="1110" 
d="M451 1513l18 101q13 68 50.5 111.5t98.5 43.5q44 0 77 -22.5t52.5 -54.5t37 -64.5t42 -55t56.5 -22.5q35 0 59.5 26.5t32.5 72.5l18 100h60l-19 -100q-13 -69 -51 -112.5t-100 -43.5q-44 0 -77.5 22.5t-54 54.5t-39 64.5t-42 55t-52.5 22.5q-34 0 -58.5 -26t-31.5 -72
l-18 -101h-59zM690 1196q93 0 157.5 59t90.5 177h68q-25 -142 -114 -219.5t-204 -77.5q-128 0 -200.5 77.5t-51.5 219.5h58q-13 -117 40.5 -176.5t155.5 -59.5zM399 -29q-138 0 -219.5 67.5t-81.5 182.5q0 250 367 311l405 68l19 105q26 146 -45 224.5t-211 78.5
q-101 0 -194.5 -46.5t-164.5 -127.5l-53 47q81 90 187 141t225 51q173 0 262 -98.5t59 -269.5l-127 -705h-63l29 158q-85 -93 -179.5 -140t-214.5 -47zM172 221q0 -81 61 -132.5t166 -51.5q127 0 226.5 58t185.5 171l49 273l-381 -66q-307 -53 -307 -252z" />
    <glyph glyph-name="Abrevedotbelow" unicode="&#x1eb6;" horiz-adv-x="1445" 
d="M928 1597q93 0 157.5 59t90.5 177h67q-25 -142 -114 -219.5t-203 -77.5q-128 0 -200.5 77.5t-51.5 219.5h57q-13 -117 41 -176.5t156 -59.5zM-8 0l844 1434h100l338 -1434h-70l-112 481h-740l-282 -481h-78zM391 547h686l-194 837zM555 -504q-28 0 -47 17t-19 43
q0 27 19 45t47 18q27 0 45 -18t18 -45q0 -26 -18 -43t-45 -17z" />
    <glyph glyph-name="abrevedotbelow" unicode="&#x1eb7;" horiz-adv-x="1110" 
d="M700 1257q106 0 167.5 68t86.5 211h66q-23 -165 -109.5 -252.5t-212.5 -87.5q-130 0 -200.5 88.5t-46.5 251.5h57q-17 -140 33.5 -209.5t158.5 -69.5zM399 -29q-138 0 -219.5 67.5t-81.5 182.5q0 250 367 311l405 68l19 105q26 146 -45 224.5t-211 78.5
q-101 0 -194.5 -46.5t-164.5 -127.5l-53 47q81 90 187 141t225 51q173 0 262 -98.5t59 -269.5l-127 -705h-63l29 158q-85 -93 -179.5 -140t-214.5 -47zM172 221q0 -81 61 -132.5t166 -51.5q127 0 226.5 58t185.5 171l49 273l-381 -66q-307 -53 -307 -252zM387 -504
q-28 0 -46.5 17t-18.5 43q0 28 18.5 45.5t46.5 17.5q27 0 45.5 -18t18.5 -45q0 -26 -18.5 -43t-45.5 -17z" />
    <glyph glyph-name="Edotbelow" unicode="&#x1eb8;" horiz-adv-x="1069" 
d="M150 0l253 1434h668l-10 -66h-600l-107 -606h520l-12 -64h-520l-111 -632h598l-10 -66h-669zM428 -504q-28 0 -47 17t-19 43q0 27 19 45t47 18q27 0 45.5 -18t18.5 -45q0 -26 -18.5 -43t-45.5 -17z" />
    <glyph glyph-name="edotbelow" unicode="&#x1eb9;" horiz-adv-x="1159" 
d="M573 -41q-114 0 -205 39t-148.5 106.5t-87.5 155.5t-30 189q0 125 38 237t108.5 198.5t179.5 137.5t242 51q178 0 291.5 -105t113.5 -257q0 -70 -16 -133h-873q-12 -64 -12 -132q0 -88 26 -164t75 -134t125.5 -91.5t172.5 -33.5q128 0 238 51t176 141l49 -45
q-77 -99 -197 -155t-266 -56zM668 1010q-178 0 -299.5 -101.5t-167.5 -267.5h798q22 150 -70.5 259.5t-260.5 109.5zM487 -504q-28 0 -46.5 17t-18.5 43q0 28 18.5 45.5t46.5 17.5q27 0 45.5 -18t18.5 -45q0 -26 -18.5 -43t-45.5 -17z" />
    <glyph glyph-name="Ehoi" unicode="&#x1eba;" horiz-adv-x="1069" 
d="M690 1509l-2 60q113 17 162 53t49 102q0 49 -34 81t-95 32q-78 0 -164 -65l-33 49q95 75 197 75q90 0 140.5 -46t50.5 -121q0 -188 -271 -220zM150 0l253 1434h668l-10 -66h-600l-107 -606h520l-12 -64h-520l-111 -632h598l-10 -66h-669z" />
    <glyph glyph-name="ehoi" unicode="&#x1ebb;" horiz-adv-x="1159" 
d="M670 1137l-2 59q113 17 162 53.5t49 102.5q0 49 -34 80.5t-95 31.5q-78 0 -164 -65l-33 49q96 76 197 76q90 0 140 -46.5t50 -121.5q0 -187 -270 -219zM573 -41q-114 0 -205 39t-148.5 106.5t-87.5 155.5t-30 189q0 125 38 237t108.5 198.5t179.5 137.5t242 51
q178 0 291.5 -105t113.5 -257q0 -70 -16 -133h-873q-12 -64 -12 -132q0 -88 26 -164t75 -134t125.5 -91.5t172.5 -33.5q128 0 238 51t176 141l49 -45q-77 -99 -197 -155t-266 -56zM668 1010q-178 0 -299.5 -101.5t-167.5 -267.5h798q22 150 -70.5 259.5t-260.5 109.5z" />
    <glyph glyph-name="Etilde" unicode="&#x1ebc;" horiz-adv-x="1069" 
d="M440 1577l19 100q13 69 50.5 112.5t98.5 43.5q44 0 77 -22.5t52 -54.5t36.5 -64.5t42 -55t56.5 -22.5q35 0 60.5 26t32.5 72l18 100h59l-18 -100q-13 -69 -51.5 -112.5t-100.5 -43.5q-44 0 -77.5 22.5t-54 55t-38.5 65t-41.5 55t-52.5 22.5q-34 0 -58.5 -26.5
t-31.5 -72.5l-18 -100h-60zM150 0l253 1434h668l-10 -66h-600l-107 -606h520l-12 -64h-520l-111 -632h598l-10 -66h-669z" />
    <glyph glyph-name="etilde" unicode="&#x1ebd;" horiz-adv-x="1159" 
d="M451 1237h-60l17 102q11 71 58.5 120.5t119.5 49.5q47 0 84 -23.5t61 -57.5t46.5 -67.5t51.5 -57t64 -23.5q46 0 78 30t41 79l18 106h60l-19 -104q-11 -69 -59 -118.5t-119 -49.5q-48 0 -85 23.5t-61.5 57.5t-47 67.5t-51.5 57t-64 23.5q-45 0 -76 -30.5t-39 -78.5z
M573 -41q-114 0 -205 39t-148.5 106.5t-87.5 155.5t-30 189q0 125 38 237t108.5 198.5t179.5 137.5t242 51q178 0 291.5 -105t113.5 -257q0 -70 -16 -133h-873q-12 -64 -12 -132q0 -88 26 -164t75 -134t125.5 -91.5t172.5 -33.5q128 0 238 51t176 141l49 -45
q-77 -99 -197 -155t-266 -56zM668 1010q-178 0 -299.5 -101.5t-167.5 -267.5h798q22 150 -70.5 259.5t-260.5 109.5z" />
    <glyph glyph-name="Ecircumflexacute" unicode="&#x1ebe;" horiz-adv-x="1069" 
d="M1028 1765h-72l281 277h98zM514 1556h-72l273 277h108l174 -277h-61l-168 234zM150 0l253 1434h668l-10 -66h-600l-107 -606h520l-12 -64h-520l-111 -632h598l-10 -66h-669z" />
    <glyph glyph-name="ecircumflexacute" unicode="&#x1ebf;" horiz-adv-x="1159" 
d="M1014 1364h-72l281 276h98zM500 1155h-72l272 277h109l174 -277h-61l-168 234zM573 -41q-114 0 -205 39t-148.5 106.5t-87.5 155.5t-30 189q0 125 38 237t108.5 198.5t179.5 137.5t242 51q178 0 291.5 -105t113.5 -257q0 -70 -16 -133h-873q-12 -64 -12 -132
q0 -88 26 -164t75 -134t125.5 -91.5t172.5 -33.5q128 0 238 51t176 141l49 -45q-77 -99 -197 -155t-266 -56zM668 1010q-178 0 -299.5 -101.5t-167.5 -267.5h798q22 150 -70.5 259.5t-260.5 109.5z" />
    <glyph glyph-name="Ecircumflexgrave" unicode="&#x1ec0;" horiz-adv-x="1069" 
d="M1042 1765l-208 277h92l182 -277h-66zM514 1556h-72l273 277h108l174 -277h-61l-168 234zM150 0l253 1434h668l-10 -66h-600l-107 -606h520l-12 -64h-520l-111 -632h598l-10 -66h-669z" />
    <glyph glyph-name="ecircumflexgrave" unicode="&#x1ec1;" horiz-adv-x="1159" 
d="M1028 1364l-209 276h92l183 -276h-66zM500 1155h-72l272 277h109l174 -277h-61l-168 234zM573 -41q-114 0 -205 39t-148.5 106.5t-87.5 155.5t-30 189q0 125 38 237t108.5 198.5t179.5 137.5t242 51q178 0 291.5 -105t113.5 -257q0 -70 -16 -133h-873q-12 -64 -12 -132
q0 -88 26 -164t75 -134t125.5 -91.5t172.5 -33.5q128 0 238 51t176 141l49 -45q-77 -99 -197 -155t-266 -56zM668 1010q-178 0 -299.5 -101.5t-167.5 -267.5h798q22 150 -70.5 259.5t-260.5 109.5z" />
    <glyph glyph-name="Ecircumflexhoi" unicode="&#x1ec2;" horiz-adv-x="1069" 
d="M999 1741l-12 59q85 12 121.5 42t36.5 79q0 35 -24 57.5t-66 22.5q-57 0 -109 -45l-37 43q60 63 144 63q71 0 114 -39t43 -100q0 -152 -211 -182zM514 1556h-72l273 277h108l174 -277h-61l-168 234zM150 0l253 1434h668l-10 -66h-600l-107 -606h520l-12 -64h-520
l-111 -632h598l-10 -66h-669z" />
    <glyph glyph-name="ecircumflexhoi" unicode="&#x1ec3;" horiz-adv-x="1159" 
d="M985 1339l-12 60q85 12 121 42t36 79q0 35 -24 57t-66 22q-56 0 -108 -45l-37 43q61 64 143 64q71 0 114.5 -39t43.5 -100q0 -153 -211 -183zM500 1155h-72l272 277h109l174 -277h-61l-168 234zM573 -41q-114 0 -205 39t-148.5 106.5t-87.5 155.5t-30 189q0 125 38 237
t108.5 198.5t179.5 137.5t242 51q178 0 291.5 -105t113.5 -257q0 -70 -16 -133h-873q-12 -64 -12 -132q0 -88 26 -164t75 -134t125.5 -91.5t172.5 -33.5q128 0 238 51t176 141l49 -45q-77 -99 -197 -155t-266 -56zM668 1010q-178 0 -299.5 -101.5t-167.5 -267.5h798
q22 150 -70.5 259.5t-260.5 109.5z" />
    <glyph glyph-name="Ecircumflextilde" unicode="&#x1ec4;" horiz-adv-x="1069" 
d="M500 1915l18 100q13 68 51 112t99 44q44 0 77 -22.5t52 -55t36.5 -64.5t42 -54.5t56.5 -22.5q35 0 60 26t32 72l18 100h60l-19 -100q-13 -69 -51 -112.5t-100 -43.5q-44 0 -77.5 22.5t-54 55t-38.5 65t-41.5 55t-52.5 22.5q-34 0 -58.5 -26.5t-31.5 -72.5l-19 -100h-59z
M514 1556h-72l273 277h108l174 -277h-61l-168 234zM150 0l253 1434h668l-10 -66h-600l-107 -606h520l-12 -64h-520l-111 -632h598l-10 -66h-669z" />
    <glyph glyph-name="ecircumflextilde" unicode="&#x1ec5;" horiz-adv-x="1159" 
d="M485 1513l19 101q13 68 50.5 111.5t98.5 43.5q44 0 77 -22.5t52.5 -54.5t37 -64.5t42 -55t56.5 -22.5q35 0 59.5 26.5t32.5 72.5l18 100h59l-18 -100q-13 -69 -51 -112.5t-100 -43.5q-44 0 -77.5 22.5t-54 54.5t-39 64.5t-42 55t-52.5 22.5q-34 0 -58.5 -26t-31.5 -72
l-18 -101h-60zM500 1155h-72l272 277h109l174 -277h-61l-168 234zM573 -41q-114 0 -205 39t-148.5 106.5t-87.5 155.5t-30 189q0 125 38 237t108.5 198.5t179.5 137.5t242 51q178 0 291.5 -105t113.5 -257q0 -70 -16 -133h-873q-12 -64 -12 -132q0 -88 26 -164t75 -134
t125.5 -91.5t172.5 -33.5q128 0 238 51t176 141l49 -45q-77 -99 -197 -155t-266 -56zM668 1010q-178 0 -299.5 -101.5t-167.5 -267.5h798q22 150 -70.5 259.5t-260.5 109.5z" />
    <glyph glyph-name="Ecircumflexdotbelow" unicode="&#x1ec6;" horiz-adv-x="1069" 
d="M514 1556h-72l273 277h108l174 -277h-61l-168 234zM150 0l253 1434h668l-10 -66h-600l-107 -606h520l-12 -64h-520l-111 -632h598l-10 -66h-669zM428 -504q-28 0 -47 17t-19 43q0 27 19 45t47 18q27 0 45.5 -18t18.5 -45q0 -26 -18.5 -43t-45.5 -17z" />
    <glyph glyph-name="ecircumflexdotbelow" unicode="&#x1ec7;" horiz-adv-x="1159" 
d="M516 1196h-74l275 340h110l152 -340h-61l-148 301zM573 -41q-114 0 -205 39t-148.5 106.5t-87.5 155.5t-30 189q0 125 38 237t108.5 198.5t179.5 137.5t242 51q178 0 291.5 -105t113.5 -257q0 -70 -16 -133h-873q-12 -64 -12 -132q0 -88 26 -164t75 -134t125.5 -91.5
t172.5 -33.5q128 0 238 51t176 141l49 -45q-77 -99 -197 -155t-266 -56zM668 1010q-178 0 -299.5 -101.5t-167.5 -267.5h798q22 150 -70.5 259.5t-260.5 109.5zM487 -504q-28 0 -46.5 17t-18.5 43q0 28 18.5 45.5t46.5 17.5q27 0 45.5 -18t18.5 -45q0 -26 -18.5 -43
t-45.5 -17z" />
    <glyph glyph-name="Ihoi" unicode="&#x1ec8;" horiz-adv-x="548" 
d="M430 1509l-2 60q113 17 162 53t49 102q0 49 -34 81t-95 32q-78 0 -164 -65l-33 49q95 75 197 75q90 0 140 -46t50 -121q0 -188 -270 -220zM150 0l253 1434h70l-254 -1434h-69z" />
    <glyph glyph-name="ihoi" unicode="&#x1ec9;" horiz-adv-x="493" 
d="M326 1137l-2 59q113 17 162 53.5t49 102.5q0 49 -34 80.5t-95 31.5q-78 0 -164 -65l-33 49q96 76 197 76q90 0 140 -46.5t50 -121.5q0 -187 -270 -219zM123 0l182 1032h66l-183 -1032h-65z" />
    <glyph glyph-name="Idotbelow" unicode="&#x1eca;" horiz-adv-x="548" 
d="M150 0l253 1434h70l-254 -1434h-69zM106 -504q-28 0 -46.5 17t-18.5 43q0 28 18.5 45.5t46.5 17.5q27 0 45.5 -18t18.5 -45q0 -26 -18.5 -43t-45.5 -17z" />
    <glyph glyph-name="idotbelow" unicode="&#x1ecb;" horiz-adv-x="493" 
d="M416 1413q-27 0 -45.5 17.5t-18.5 44.5q0 26 18.5 43.5t45.5 17.5q28 0 45.5 -17.5t17.5 -43.5q0 -28 -17.5 -45t-45.5 -17zM123 0l182 1032h66l-183 -1032h-65zM78 -504q-28 0 -47 17t-19 43q0 27 19 45t47 18q27 0 45 -18t18 -45q0 -26 -18 -43t-45 -17z" />
    <glyph glyph-name="Odotbelow" unicode="&#x1ecc;" horiz-adv-x="1681" 
d="M958 1475q190 0 340.5 -91t231 -242.5t80.5 -332.5q0 -168 -60 -322.5t-164.5 -271t-258.5 -186.5t-330 -70q-190 0 -340.5 91t-231 242.5t-80.5 332.5q0 168 60 322.5t164.5 271t258.5 186.5t330 70zM795 25q210 0 381.5 109.5t265.5 289t94 387.5q0 121 -42.5 230
t-117.5 190.5t-184 129.5t-234 48q-157 0 -296 -64.5t-235.5 -172t-152 -251t-55.5 -298.5q0 -162 72 -298t205 -218t299 -82zM672 -504q-28 0 -47 17t-19 43q0 27 19 45t47 18q27 0 45 -18t18 -45q0 -26 -18 -43t-45 -17z" />
    <glyph glyph-name="odotbelow" unicode="&#x1ecd;" horiz-adv-x="1288" 
d="M711 1073q148 0 258 -67.5t164.5 -177t54.5 -244.5q0 -123 -46 -237t-125 -199.5t-193.5 -137t-243.5 -51.5q-148 0 -258 67.5t-165 177.5t-55 245q0 165 77.5 307.5t218.5 229.5t313 87zM582 23q150 0 273.5 78.5t192 207t68.5 277.5q0 179 -111 301.5t-296 122.5
q-150 0 -273.5 -78.5t-192.5 -207.5t-69 -278q0 -179 111.5 -301t296.5 -122zM475 -504q-28 0 -46.5 17t-18.5 43q0 28 18.5 45.5t46.5 17.5q27 0 45.5 -18t18.5 -45q0 -26 -18.5 -43t-45.5 -17z" />
    <glyph glyph-name="Ohoi" unicode="&#x1ece;" horiz-adv-x="1681" 
d="M977 1509l-2 60q113 17 162 53t49 102q0 49 -34 81t-95 32q-78 0 -164 -65l-33 49q95 75 197 75q90 0 140 -46t50 -121q0 -188 -270 -220zM958 1475q190 0 340.5 -91t231 -242.5t80.5 -332.5q0 -168 -60 -322.5t-164.5 -271t-258.5 -186.5t-330 -70q-190 0 -340.5 91
t-231 242.5t-80.5 332.5q0 168 60 322.5t164.5 271t258.5 186.5t330 70zM795 25q210 0 381.5 109.5t265.5 289t94 387.5q0 121 -42.5 230t-117.5 190.5t-184 129.5t-234 48q-157 0 -296 -64.5t-235.5 -172t-152 -251t-55.5 -298.5q0 -162 72 -298t205 -218t299 -82z" />
    <glyph glyph-name="ohoi" unicode="&#x1ecf;" horiz-adv-x="1288" 
d="M723 1137l-2 59q113 17 162 53.5t49 102.5q0 49 -34 80.5t-95 31.5q-78 0 -164 -65l-33 49q96 76 197 76q90 0 140 -46.5t50 -121.5q0 -187 -270 -219zM711 1073q148 0 258 -67.5t164.5 -177t54.5 -244.5q0 -123 -46 -237t-125 -199.5t-193.5 -137t-243.5 -51.5
q-148 0 -258 67.5t-165 177.5t-55 245q0 165 77.5 307.5t218.5 229.5t313 87zM582 23q150 0 273.5 78.5t192 207t68.5 277.5q0 179 -111 301.5t-296 122.5q-150 0 -273.5 -78.5t-192.5 -207.5t-69 -278q0 -179 111.5 -301t296.5 -122z" />
    <glyph glyph-name="Ocircumflexacute" unicode="&#x1ed0;" horiz-adv-x="1681" 
d="M1315 1765h-72l281 277h98zM801 1556h-72l272 277h109l174 -277h-61l-168 234zM958 1475q190 0 340.5 -91t231 -242.5t80.5 -332.5q0 -168 -60 -322.5t-164.5 -271t-258.5 -186.5t-330 -70q-190 0 -340.5 91t-231 242.5t-80.5 332.5q0 168 60 322.5t164.5 271
t258.5 186.5t330 70zM795 25q210 0 381.5 109.5t265.5 289t94 387.5q0 121 -42.5 230t-117.5 190.5t-184 129.5t-234 48q-157 0 -296 -64.5t-235.5 -172t-152 -251t-55.5 -298.5q0 -162 72 -298t205 -218t299 -82z" />
    <glyph glyph-name="ocircumflexacute" unicode="&#x1ed1;" horiz-adv-x="1288" 
d="M1069 1364h-72l281 276h98zM553 1155h-72l273 277h108l174 -277h-61l-168 234zM711 1073q148 0 258 -67.5t164.5 -177t54.5 -244.5q0 -123 -46 -237t-125 -199.5t-193.5 -137t-243.5 -51.5q-148 0 -258 67.5t-165 177.5t-55 245q0 165 77.5 307.5t218.5 229.5t313 87z
M582 23q150 0 273.5 78.5t192 207t68.5 277.5q0 179 -111 301.5t-296 122.5q-150 0 -273.5 -78.5t-192.5 -207.5t-69 -278q0 -179 111.5 -301t296.5 -122z" />
    <glyph glyph-name="Ocircumflexgrave" unicode="&#x1ed2;" horiz-adv-x="1681" 
d="M1329 1765l-209 277h92l183 -277h-66zM801 1556h-72l272 277h109l174 -277h-61l-168 234zM958 1475q190 0 340.5 -91t231 -242.5t80.5 -332.5q0 -168 -60 -322.5t-164.5 -271t-258.5 -186.5t-330 -70q-190 0 -340.5 91t-231 242.5t-80.5 332.5q0 168 60 322.5t164.5 271
t258.5 186.5t330 70zM795 25q210 0 381.5 109.5t265.5 289t94 387.5q0 121 -42.5 230t-117.5 190.5t-184 129.5t-234 48q-157 0 -296 -64.5t-235.5 -172t-152 -251t-55.5 -298.5q0 -162 72 -298t205 -218t299 -82z" />
    <glyph glyph-name="ocircumflexgrave" unicode="&#x1ed3;" horiz-adv-x="1288" 
d="M1083 1364l-209 276h93l182 -276h-66zM553 1155h-72l273 277h108l174 -277h-61l-168 234zM711 1073q148 0 258 -67.5t164.5 -177t54.5 -244.5q0 -123 -46 -237t-125 -199.5t-193.5 -137t-243.5 -51.5q-148 0 -258 67.5t-165 177.5t-55 245q0 165 77.5 307.5t218.5 229.5
t313 87zM582 23q150 0 273.5 78.5t192 207t68.5 277.5q0 179 -111 301.5t-296 122.5q-150 0 -273.5 -78.5t-192.5 -207.5t-69 -278q0 -179 111.5 -301t296.5 -122z" />
    <glyph glyph-name="Ocircumflexhoi" unicode="&#x1ed4;" horiz-adv-x="1681" 
d="M1286 1741l-12 59q85 12 121.5 42t36.5 79q0 35 -24.5 57.5t-66.5 22.5q-56 0 -108 -45l-37 43q60 63 143 63q71 0 114.5 -39t43.5 -100q0 -152 -211 -182zM801 1556h-72l272 277h109l174 -277h-61l-168 234zM958 1475q190 0 340.5 -91t231 -242.5t80.5 -332.5
q0 -168 -60 -322.5t-164.5 -271t-258.5 -186.5t-330 -70q-190 0 -340.5 91t-231 242.5t-80.5 332.5q0 168 60 322.5t164.5 271t258.5 186.5t330 70zM795 25q210 0 381.5 109.5t265.5 289t94 387.5q0 121 -42.5 230t-117.5 190.5t-184 129.5t-234 48q-157 0 -296 -64.5
t-235.5 -172t-152 -251t-55.5 -298.5q0 -162 72 -298t205 -218t299 -82z" />
    <glyph glyph-name="ocircumflexhoi" unicode="&#x1ed5;" horiz-adv-x="1288" 
d="M1040 1339l-12 60q85 12 121.5 42t36.5 79q0 35 -24 57t-66 22q-57 0 -109 -45l-37 43q61 64 144 64q71 0 114 -39t43 -100q0 -153 -211 -183zM553 1155h-72l273 277h108l174 -277h-61l-168 234zM711 1073q148 0 258 -67.5t164.5 -177t54.5 -244.5q0 -123 -46 -237
t-125 -199.5t-193.5 -137t-243.5 -51.5q-148 0 -258 67.5t-165 177.5t-55 245q0 165 77.5 307.5t218.5 229.5t313 87zM582 23q150 0 273.5 78.5t192 207t68.5 277.5q0 179 -111 301.5t-296 122.5q-150 0 -273.5 -78.5t-192.5 -207.5t-69 -278q0 -179 111.5 -301t296.5 -122z
" />
    <glyph glyph-name="Ocircumflextilde" unicode="&#x1ed6;" horiz-adv-x="1681" 
d="M786 1915l19 100q13 69 50.5 112.5t98.5 43.5q44 0 77 -22.5t52.5 -55t37 -64.5t42 -54.5t56.5 -22.5q35 0 60 26t32 72l18 100h60l-19 -100q-13 -69 -51 -112.5t-100 -43.5q-44 0 -77.5 22.5t-54 55t-39 65t-42 55t-52.5 22.5q-34 0 -58.5 -26.5t-31.5 -72.5l-18 -100
h-60zM801 1556h-72l272 277h109l174 -277h-61l-168 234zM958 1475q190 0 340.5 -91t231 -242.5t80.5 -332.5q0 -168 -60 -322.5t-164.5 -271t-258.5 -186.5t-330 -70q-190 0 -340.5 91t-231 242.5t-80.5 332.5q0 168 60 322.5t164.5 271t258.5 186.5t330 70zM795 25
q210 0 381.5 109.5t265.5 289t94 387.5q0 121 -42.5 230t-117.5 190.5t-184 129.5t-234 48q-157 0 -296 -64.5t-235.5 -172t-152 -251t-55.5 -298.5q0 -162 72 -298t205 -218t299 -82z" />
    <glyph glyph-name="ocircumflextilde" unicode="&#x1ed7;" horiz-adv-x="1288" 
d="M541 1513l18 101q13 68 51 111.5t99 43.5q44 0 77 -22.5t52 -54.5t36.5 -64.5t42 -55t56.5 -22.5q35 0 59.5 26.5t32.5 72.5l18 100h60l-19 -100q-13 -69 -51 -112.5t-100 -43.5q-44 0 -77.5 22.5t-54 54.5t-38.5 64.5t-41.5 55t-52.5 22.5q-34 0 -59 -26.5t-32 -71.5
l-18 -101h-59zM553 1155h-72l273 277h108l174 -277h-61l-168 234zM711 1073q148 0 258 -67.5t164.5 -177t54.5 -244.5q0 -123 -46 -237t-125 -199.5t-193.5 -137t-243.5 -51.5q-148 0 -258 67.5t-165 177.5t-55 245q0 165 77.5 307.5t218.5 229.5t313 87zM582 23
q150 0 273.5 78.5t192 207t68.5 277.5q0 179 -111 301.5t-296 122.5q-150 0 -273.5 -78.5t-192.5 -207.5t-69 -278q0 -179 111.5 -301t296.5 -122z" />
    <glyph glyph-name="Ocircumflexdotbelow" unicode="&#x1ed8;" horiz-adv-x="1681" 
d="M801 1556h-72l272 277h109l174 -277h-61l-168 234zM958 1475q190 0 340.5 -91t231 -242.5t80.5 -332.5q0 -168 -60 -322.5t-164.5 -271t-258.5 -186.5t-330 -70q-190 0 -340.5 91t-231 242.5t-80.5 332.5q0 168 60 322.5t164.5 271t258.5 186.5t330 70zM795 25
q210 0 381.5 109.5t265.5 289t94 387.5q0 121 -42.5 230t-117.5 190.5t-184 129.5t-234 48q-157 0 -296 -64.5t-235.5 -172t-152 -251t-55.5 -298.5q0 -162 72 -298t205 -218t299 -82zM672 -504q-28 0 -47 17t-19 43q0 27 19 45t47 18q27 0 45 -18t18 -45q0 -26 -18 -43
t-45 -17z" />
    <glyph glyph-name="ocircumflexdotbelow" unicode="&#x1ed9;" horiz-adv-x="1288" 
d="M569 1196h-73l274 340h111l151 -340h-61l-148 301zM711 1073q148 0 258 -67.5t164.5 -177t54.5 -244.5q0 -123 -46 -237t-125 -199.5t-193.5 -137t-243.5 -51.5q-148 0 -258 67.5t-165 177.5t-55 245q0 165 77.5 307.5t218.5 229.5t313 87zM582 23q150 0 273.5 78.5
t192 207t68.5 277.5q0 179 -111 301.5t-296 122.5q-150 0 -273.5 -78.5t-192.5 -207.5t-69 -278q0 -179 111.5 -301t296.5 -122zM475 -504q-28 0 -46.5 17t-18.5 43q0 28 18.5 45.5t46.5 17.5q27 0 45.5 -18t18.5 -45q0 -26 -18.5 -43t-45.5 -17z" />
    <glyph glyph-name="Ohornacute" unicode="&#x1eda;" horiz-adv-x="1681" 
d="M1047 1556h-72l272 277h99zM958 1475q127 0 236 -41h94q56 0 98 17t64.5 45.5t33.5 60t11 65.5q0 63 -41 113l57 34q52 -65 52 -147q0 -101 -64 -169.5t-192 -74.5q143 -88 223 -238.5t80 -330.5q0 -168 -60 -322.5t-164.5 -271t-258.5 -186.5t-330 -70q-190 0 -340.5 91
t-231 242.5t-80.5 332.5q0 168 60 322.5t164.5 271t258.5 186.5t330 70zM795 25q210 0 381.5 109.5t265.5 289t94 387.5q0 121 -42.5 230t-117.5 190.5t-184 129.5t-234 48q-157 0 -296 -64.5t-235.5 -172t-152 -251t-55.5 -298.5q0 -162 72 -298t205 -218t299 -82z" />
    <glyph glyph-name="ohornacute" unicode="&#x1edb;" horiz-adv-x="1288" 
d="M797 1196h-74l268 340h92zM711 1073q117 0 207 -41h94q56 0 98 17.5t64.5 46t33.5 60t11 65.5q0 62 -41 112l57 35q51 -64 51 -147q0 -105 -68.5 -174.5t-205.5 -69.5q85 -67 130.5 -169.5t45.5 -223.5q0 -123 -46 -237t-125 -199.5t-193.5 -137t-243.5 -51.5
q-148 0 -258 67.5t-165 177.5t-55 245q0 165 77.5 307.5t218.5 229.5t313 87zM582 23q150 0 273.5 78.5t192 207t68.5 277.5q0 179 -111 301.5t-296 122.5q-150 0 -273.5 -78.5t-192.5 -207.5t-69 -278q0 -179 111.5 -301t296.5 -122z" />
    <glyph glyph-name="Ohorngrave" unicode="&#x1edc;" horiz-adv-x="1681" 
d="M979 1556l-201 277h88l176 -277h-63zM958 1475q127 0 236 -41h94q56 0 98 17t64.5 45.5t33.5 60t11 65.5q0 63 -41 113l57 34q52 -65 52 -147q0 -101 -64 -169.5t-192 -74.5q143 -88 223 -238.5t80 -330.5q0 -168 -60 -322.5t-164.5 -271t-258.5 -186.5t-330 -70
q-190 0 -340.5 91t-231 242.5t-80.5 332.5q0 168 60 322.5t164.5 271t258.5 186.5t330 70zM795 25q210 0 381.5 109.5t265.5 289t94 387.5q0 121 -42.5 230t-117.5 190.5t-184 129.5t-234 48q-157 0 -296 -64.5t-235.5 -172t-152 -251t-55.5 -298.5q0 -162 72 -298t205 -218
t299 -82z" />
    <glyph glyph-name="ohorngrave" unicode="&#x1edd;" horiz-adv-x="1288" 
d="M731 1196l-166 340h82l150 -340h-66zM711 1073q117 0 207 -41h94q56 0 98 17.5t64.5 46t33.5 60t11 65.5q0 62 -41 112l57 35q51 -64 51 -147q0 -105 -68.5 -174.5t-205.5 -69.5q85 -67 130.5 -169.5t45.5 -223.5q0 -123 -46 -237t-125 -199.5t-193.5 -137t-243.5 -51.5
q-148 0 -258 67.5t-165 177.5t-55 245q0 165 77.5 307.5t218.5 229.5t313 87zM582 23q150 0 273.5 78.5t192 207t68.5 277.5q0 179 -111 301.5t-296 122.5q-150 0 -273.5 -78.5t-192.5 -207.5t-69 -278q0 -179 111.5 -301t296.5 -122z" />
    <glyph glyph-name="Ohornhoi" unicode="&#x1ede;" horiz-adv-x="1681" 
d="M977 1509l-2 60q113 17 162 53t49 102q0 49 -34 81t-95 32q-78 0 -164 -65l-33 49q95 75 197 75q90 0 140 -46t50 -121q0 -188 -270 -220zM958 1475q127 0 236 -41h94q56 0 98 17t64.5 45.5t33.5 60t11 65.5q0 63 -41 113l57 34q52 -65 52 -147q0 -101 -64 -169.5
t-192 -74.5q143 -88 223 -238.5t80 -330.5q0 -168 -60 -322.5t-164.5 -271t-258.5 -186.5t-330 -70q-190 0 -340.5 91t-231 242.5t-80.5 332.5q0 168 60 322.5t164.5 271t258.5 186.5t330 70zM795 25q210 0 381.5 109.5t265.5 289t94 387.5q0 121 -42.5 230t-117.5 190.5
t-184 129.5t-234 48q-157 0 -296 -64.5t-235.5 -172t-152 -251t-55.5 -298.5q0 -162 72 -298t205 -218t299 -82z" />
    <glyph glyph-name="ohornhoi" unicode="&#x1edf;" horiz-adv-x="1288" 
d="M723 1137l-2 59q113 17 162 53.5t49 102.5q0 49 -34 80.5t-95 31.5q-78 0 -164 -65l-33 49q96 76 197 76q90 0 140 -46.5t50 -121.5q0 -187 -270 -219zM711 1073q117 0 207 -41h94q56 0 98 17.5t64.5 46t33.5 60t11 65.5q0 62 -41 112l57 35q51 -64 51 -147
q0 -105 -68.5 -174.5t-205.5 -69.5q85 -67 130.5 -169.5t45.5 -223.5q0 -123 -46 -237t-125 -199.5t-193.5 -137t-243.5 -51.5q-148 0 -258 67.5t-165 177.5t-55 245q0 165 77.5 307.5t218.5 229.5t313 87zM582 23q150 0 273.5 78.5t192 207t68.5 277.5q0 179 -111 301.5
t-296 122.5q-150 0 -273.5 -78.5t-192.5 -207.5t-69 -278q0 -179 111.5 -301t296.5 -122z" />
    <glyph glyph-name="Ohorntilde" unicode="&#x1ee0;" horiz-adv-x="1681" 
d="M727 1577l18 100q13 68 51 112t99 44q44 0 77 -22.5t52 -54.5t36.5 -64.5t42 -55t56.5 -22.5q35 0 60 26t32 72l19 100h59l-18 -100q-13 -69 -51.5 -112.5t-100.5 -43.5q-44 0 -77.5 22.5t-54 55t-38.5 65t-41.5 55t-52.5 22.5q-34 0 -58.5 -26.5t-31.5 -72.5l-19 -100
h-59zM958 1475q127 0 236 -41h94q56 0 98 17t64.5 45.5t33.5 60t11 65.5q0 63 -41 113l57 34q52 -65 52 -147q0 -101 -64 -169.5t-192 -74.5q143 -88 223 -238.5t80 -330.5q0 -168 -60 -322.5t-164.5 -271t-258.5 -186.5t-330 -70q-190 0 -340.5 91t-231 242.5t-80.5 332.5
q0 168 60 322.5t164.5 271t258.5 186.5t330 70zM795 25q210 0 381.5 109.5t265.5 289t94 387.5q0 121 -42.5 230t-117.5 190.5t-184 129.5t-234 48q-157 0 -296 -64.5t-235.5 -172t-152 -251t-55.5 -298.5q0 -162 72 -298t205 -218t299 -82z" />
    <glyph glyph-name="ohorntilde" unicode="&#x1ee1;" horiz-adv-x="1288" 
d="M506 1237h-60l17 102q11 71 58.5 120.5t119.5 49.5q47 0 84 -23.5t61 -57.5t46.5 -67.5t51.5 -57t64 -23.5q46 0 78 30t41 79l18 106h60l-19 -104q-11 -69 -59 -118.5t-119 -49.5q-48 0 -85 23.5t-61.5 57.5t-47 67.5t-51.5 57t-64 23.5q-45 0 -76 -30.5t-39 -78.5z
M711 1073q117 0 207 -41h94q56 0 98 17.5t64.5 46t33.5 60t11 65.5q0 62 -41 112l57 35q51 -64 51 -147q0 -105 -68.5 -174.5t-205.5 -69.5q85 -67 130.5 -169.5t45.5 -223.5q0 -123 -46 -237t-125 -199.5t-193.5 -137t-243.5 -51.5q-148 0 -258 67.5t-165 177.5t-55 245
q0 165 77.5 307.5t218.5 229.5t313 87zM582 23q150 0 273.5 78.5t192 207t68.5 277.5q0 179 -111 301.5t-296 122.5q-150 0 -273.5 -78.5t-192.5 -207.5t-69 -278q0 -179 111.5 -301t296.5 -122z" />
    <glyph glyph-name="Ohorndotbelow" unicode="&#x1ee2;" horiz-adv-x="1681" 
d="M958 1475q127 0 236 -41h94q56 0 98 17t64.5 45.5t33.5 60t11 65.5q0 63 -41 113l57 34q52 -65 52 -147q0 -101 -64 -169.5t-192 -74.5q143 -88 223 -238.5t80 -330.5q0 -168 -60 -322.5t-164.5 -271t-258.5 -186.5t-330 -70q-190 0 -340.5 91t-231 242.5t-80.5 332.5
q0 168 60 322.5t164.5 271t258.5 186.5t330 70zM795 25q210 0 381.5 109.5t265.5 289t94 387.5q0 121 -42.5 230t-117.5 190.5t-184 129.5t-234 48q-157 0 -296 -64.5t-235.5 -172t-152 -251t-55.5 -298.5q0 -162 72 -298t205 -218t299 -82zM672 -504q-28 0 -47 17t-19 43
q0 27 19 45t47 18q27 0 45 -18t18 -45q0 -26 -18 -43t-45 -17z" />
    <glyph glyph-name="ohorndotbelow" unicode="&#x1ee3;" horiz-adv-x="1288" 
d="M711 1073q117 0 207 -41h94q56 0 98 17.5t64.5 46t33.5 60t11 65.5q0 62 -41 112l57 35q51 -64 51 -147q0 -105 -68.5 -174.5t-205.5 -69.5q85 -67 130.5 -169.5t45.5 -223.5q0 -123 -46 -237t-125 -199.5t-193.5 -137t-243.5 -51.5q-148 0 -258 67.5t-165 177.5t-55 245
q0 165 77.5 307.5t218.5 229.5t313 87zM582 23q150 0 273.5 78.5t192 207t68.5 277.5q0 179 -111 301.5t-296 122.5q-150 0 -273.5 -78.5t-192.5 -207.5t-69 -278q0 -179 111.5 -301t296.5 -122zM475 -504q-28 0 -46.5 17t-18.5 43q0 28 18.5 45.5t46.5 17.5q27 0 45.5 -18
t18.5 -45q0 -26 -18.5 -43t-45.5 -17z" />
    <glyph glyph-name="Udotbelow" unicode="&#x1ee4;" horiz-adv-x="1421" 
d="M1153 520l160 914h69l-161 -918q-99 -557 -564 -557q-252 0 -377.5 153.5t-74.5 436.5l157 885h70l-153 -881q-45 -261 55 -394.5t321 -133.5q202 0 329 124t169 371zM543 -504q-28 0 -47 17t-19 43q0 27 19 45t47 18q27 0 45 -18t18 -45q0 -26 -18 -43t-45 -17z" />
    <glyph glyph-name="udotbelow" unicode="&#x1ee5;" horiz-adv-x="1208" 
d="M940 436l107 596h65l-106 -598q-40 -230 -157.5 -352.5t-299.5 -122.5q-206 0 -309 124t-64 351l107 598h65l-106 -596q-35 -198 48 -305.5t259 -107.5q157 0 256 106t135 307zM473 -504q-28 0 -46.5 17t-18.5 43q0 28 18.5 45.5t46.5 17.5q27 0 45.5 -18t18.5 -45
q0 -26 -18.5 -43t-45.5 -17z" />
    <glyph glyph-name="Uhoi" unicode="&#x1ee6;" horiz-adv-x="1421" 
d="M866 1509l-2 60q113 17 162 53t49 102q0 49 -34 81t-95 32q-78 0 -164 -65l-32 49q95 75 196 75q90 0 140.5 -46t50.5 -121q0 -188 -271 -220zM1153 520l160 914h69l-161 -918q-99 -557 -564 -557q-252 0 -377.5 153.5t-74.5 436.5l157 885h70l-153 -881
q-45 -261 55 -394.5t321 -133.5q202 0 329 124t169 371z" />
    <glyph glyph-name="uhoi" unicode="&#x1ee7;" horiz-adv-x="1208" 
d="M684 1137l-2 59q113 17 162 53.5t49 102.5q0 49 -34 80.5t-95 31.5q-78 0 -164 -65l-33 49q96 76 197 76q90 0 140 -46.5t50 -121.5q0 -187 -270 -219zM940 436l107 596h65l-106 -598q-40 -230 -157.5 -352.5t-299.5 -122.5q-206 0 -309 124t-64 351l107 598h65
l-106 -596q-35 -198 48 -305.5t259 -107.5q157 0 256 106t135 307z" />
    <glyph glyph-name="Uhornacute" unicode="&#x1ee8;" horiz-adv-x="1421" 
d="M936 1556h-72l273 277h98zM1153 520l160 914h96q56 0 98 17t64.5 45.5t33.5 60t11 65.5q0 63 -41 113l57 34q51 -64 51 -147q0 -105 -69 -174.5t-207 -69.5h-35l-151 -862q-99 -557 -564 -557q-252 0 -377.5 153.5t-74.5 436.5l157 885h70l-153 -881q-45 -261 55 -394.5
t321 -133.5q202 0 329 124t169 371z" />
    <glyph glyph-name="uhornacute" unicode="&#x1ee9;" horiz-adv-x="1208" 
d="M758 1196h-74l268 340h92zM940 436l107 596h98q56 0 98 17.5t64.5 46t33.5 60t11 65.5q0 62 -41 112l57 35q51 -64 51 -147q0 -105 -69 -174.5t-207 -69.5h-41l-96 -543q-40 -230 -157.5 -352.5t-299.5 -122.5q-206 0 -309 124t-64 351l107 598h65l-106 -596
q-35 -198 48 -305.5t259 -107.5q157 0 256 106t135 307z" />
    <glyph glyph-name="Uhorngrave" unicode="&#x1eea;" horiz-adv-x="1421" 
d="M868 1556l-200 277h88l176 -277h-64zM1153 520l160 914h96q56 0 98 17t64.5 45.5t33.5 60t11 65.5q0 63 -41 113l57 34q51 -64 51 -147q0 -105 -69 -174.5t-207 -69.5h-35l-151 -862q-99 -557 -564 -557q-252 0 -377.5 153.5t-74.5 436.5l157 885h70l-153 -881
q-45 -261 55 -394.5t321 -133.5q202 0 329 124t169 371z" />
    <glyph glyph-name="uhorngrave" unicode="&#x1eeb;" horiz-adv-x="1208" 
d="M692 1196l-166 340h82l150 -340h-66zM940 436l107 596h98q56 0 98 17.5t64.5 46t33.5 60t11 65.5q0 62 -41 112l57 35q51 -64 51 -147q0 -105 -69 -174.5t-207 -69.5h-41l-96 -543q-40 -230 -157.5 -352.5t-299.5 -122.5q-206 0 -309 124t-64 351l107 598h65l-106 -596
q-35 -198 48 -305.5t259 -107.5q157 0 256 106t135 307z" />
    <glyph glyph-name="Uhornhoi" unicode="&#x1eec;" horiz-adv-x="1421" 
d="M866 1509l-2 60q113 17 162 53t49 102q0 49 -34 81t-95 32q-78 0 -164 -65l-32 49q95 75 196 75q90 0 140.5 -46t50.5 -121q0 -188 -271 -220zM1153 520l160 914h96q56 0 98 17t64.5 45.5t33.5 60t11 65.5q0 63 -41 113l57 34q51 -64 51 -147q0 -105 -69 -174.5
t-207 -69.5h-35l-151 -862q-99 -557 -564 -557q-252 0 -377.5 153.5t-74.5 436.5l157 885h70l-153 -881q-45 -261 55 -394.5t321 -133.5q202 0 329 124t169 371z" />
    <glyph glyph-name="uhornhoi" unicode="&#x1eed;" horiz-adv-x="1208" 
d="M684 1137l-2 59q113 17 162 53.5t49 102.5q0 49 -34 80.5t-95 31.5q-78 0 -164 -65l-33 49q96 76 197 76q90 0 140 -46.5t50 -121.5q0 -187 -270 -219zM940 436l107 596h98q56 0 98 17.5t64.5 46t33.5 60t11 65.5q0 62 -41 112l57 35q51 -64 51 -147q0 -105 -69 -174.5
t-207 -69.5h-41l-96 -543q-40 -230 -157.5 -352.5t-299.5 -122.5q-206 0 -309 124t-64 351l107 598h65l-106 -596q-35 -198 48 -305.5t259 -107.5q157 0 256 106t135 307z" />
    <glyph glyph-name="Uhorntilde" unicode="&#x1eee;" horiz-adv-x="1421" 
d="M616 1577l19 100q13 69 50.5 112.5t98.5 43.5q44 0 77 -22.5t52.5 -54.5t37 -64.5t42 -55t56.5 -22.5q35 0 60 26t32 72l18 100h60l-19 -100q-13 -69 -51 -112.5t-100 -43.5q-44 0 -77.5 22.5t-54 55t-39 65t-42 55t-52.5 22.5q-34 0 -58.5 -26.5t-31.5 -72.5l-18 -100
h-60zM1153 520l160 914h96q56 0 98 17t64.5 45.5t33.5 60t11 65.5q0 63 -41 113l57 34q51 -64 51 -147q0 -105 -69 -174.5t-207 -69.5h-35l-151 -862q-99 -557 -564 -557q-252 0 -377.5 153.5t-74.5 436.5l157 885h70l-153 -881q-45 -261 55 -394.5t321 -133.5
q202 0 329 124t169 371z" />
    <glyph glyph-name="uhorntilde" unicode="&#x1eef;" horiz-adv-x="1208" 
d="M465 1237h-59l16 102q11 71 58.5 120.5t119.5 49.5q47 0 84 -23.5t61 -57.5t46.5 -67.5t51.5 -57t64 -23.5q46 0 78 30t41 79l18 106h60l-19 -104q-11 -69 -59 -118.5t-119 -49.5q-48 0 -85 23.5t-61.5 57.5t-47 67.5t-51.5 57t-64 23.5q-45 0 -76 -30.5t-39 -78.5z
M940 436l107 596h98q56 0 98 17.5t64.5 46t33.5 60t11 65.5q0 62 -41 112l57 35q51 -64 51 -147q0 -105 -69 -174.5t-207 -69.5h-41l-96 -543q-40 -230 -157.5 -352.5t-299.5 -122.5q-206 0 -309 124t-64 351l107 598h65l-106 -596q-35 -198 48 -305.5t259 -107.5
q157 0 256 106t135 307z" />
    <glyph glyph-name="Uhorndotbelow" unicode="&#x1ef0;" horiz-adv-x="1421" 
d="M1153 520l160 914h96q56 0 98 17t64.5 45.5t33.5 60t11 65.5q0 63 -41 113l57 34q51 -64 51 -147q0 -105 -69 -174.5t-207 -69.5h-35l-151 -862q-99 -557 -564 -557q-252 0 -377.5 153.5t-74.5 436.5l157 885h70l-153 -881q-45 -261 55 -394.5t321 -133.5q202 0 329 124
t169 371zM543 -504q-28 0 -47 17t-19 43q0 27 19 45t47 18q27 0 45 -18t18 -45q0 -26 -18 -43t-45 -17z" />
    <glyph glyph-name="uhorndotbelow" unicode="&#x1ef1;" horiz-adv-x="1208" 
d="M940 436l107 596h98q56 0 98 17.5t64.5 46t33.5 60t11 65.5q0 62 -41 112l57 35q51 -64 51 -147q0 -105 -69 -174.5t-207 -69.5h-41l-96 -543q-40 -230 -157.5 -352.5t-299.5 -122.5q-206 0 -309 124t-64 351l107 598h65l-106 -596q-35 -198 48 -305.5t259 -107.5
q157 0 256 106t135 307zM473 -504q-28 0 -46.5 17t-18.5 43q0 28 18.5 45.5t46.5 17.5q27 0 45.5 -18t18.5 -45q0 -26 -18.5 -43t-45.5 -17z" />
    <glyph glyph-name="Ygrave" unicode="&#x1ef2;" horiz-adv-x="1259" 
d="M788 1556l-200 277h88l176 -277h-64zM1378 1434l-682 -740l-123 -694h-69l123 698l-420 736h74l387 -678l626 678h84z" />
    <glyph glyph-name="ygrave" unicode="&#x1ef3;" horiz-adv-x="1062" 
d="M621 1196l-166 340h82l149 -340h-65zM319 -270q-76 -127 -159 -184.5t-187 -57.5q-105 0 -161 35l12 67q58 -39 149 -39q170 0 289 201l148 248l-265 1032h72l242 -950l565 950h76z" />
    <glyph glyph-name="Ydotbelow" unicode="&#x1ef4;" horiz-adv-x="1259" 
d="M1378 1434l-682 -740l-123 -694h-69l123 698l-420 736h74l387 -678l626 678h84zM463 -504q-28 0 -47 17t-19 43q0 27 19 45t47 18q27 0 45 -18t18 -45q0 -26 -18 -43t-45 -17z" />
    <glyph glyph-name="ydotbelow" unicode="&#x1ef5;" horiz-adv-x="1062" 
d="M319 -270q-76 -127 -159 -184.5t-187 -57.5q-105 0 -161 35l12 67q58 -39 149 -39q170 0 289 201l148 248l-265 1032h72l242 -950l565 950h76zM629 -504q-28 0 -47 17t-19 43q0 27 19 45t47 18q27 0 45 -18t18 -45q0 -26 -18 -43t-45 -17z" />
    <glyph glyph-name="Yhoi" unicode="&#x1ef6;" horiz-adv-x="1259" 
d="M786 1509l-2 60q113 17 162 53t49 102q0 49 -34 81t-95 32q-78 0 -164 -65l-32 49q95 75 196 75q90 0 140.5 -46t50.5 -121q0 -188 -271 -220zM1378 1434l-682 -740l-123 -694h-69l123 698l-420 736h74l387 -678l626 678h84z" />
    <glyph glyph-name="yhoi" unicode="&#x1ef7;" horiz-adv-x="1062" 
d="M612 1137l-2 59q113 17 162 53.5t49 102.5q0 49 -34 80.5t-95 31.5q-78 0 -164 -65l-32 49q96 76 196 76q90 0 140.5 -46.5t50.5 -121.5q0 -187 -271 -219zM319 -270q-76 -127 -159 -184.5t-187 -57.5q-105 0 -161 35l12 67q58 -39 149 -39q170 0 289 201l148 248
l-265 1032h72l242 -950l565 950h76z" />
    <glyph glyph-name="Ytilde" unicode="&#x1ef8;" horiz-adv-x="1259" 
d="M537 1577l18 100q13 68 51 112t99 44q44 0 77 -22.5t52 -54.5t36.5 -64.5t42 -55t56.5 -22.5q35 0 60 26t32 72l18 100h60l-19 -100q-13 -69 -51 -112.5t-100 -43.5q-44 0 -77.5 22.5t-54 55t-38.5 65t-41.5 55t-52.5 22.5q-34 0 -59 -27t-32 -72l-18 -100h-59z
M1378 1434l-682 -740l-123 -694h-69l123 698l-420 736h74l387 -678l626 678h84z" />
    <glyph glyph-name="ytilde" unicode="&#x1ef9;" horiz-adv-x="1062" 
d="M391 1237h-59l16 102q11 71 58.5 120.5t119.5 49.5q47 0 84 -23.5t61.5 -57.5t46.5 -67.5t51.5 -57t64.5 -23.5q46 0 77.5 30t40.5 79l19 106h59l-18 -104q-11 -69 -59 -118.5t-119 -49.5q-48 0 -85.5 23.5t-61.5 57.5t-46.5 67.5t-52 57t-64.5 23.5q-45 0 -75.5 -30.5
t-38.5 -78.5zM319 -270q-76 -127 -159 -184.5t-187 -57.5q-105 0 -161 35l12 67q58 -39 149 -39q170 0 289 201l148 248l-265 1032h72l242 -950l565 950h76z" />
    <glyph glyph-name="enquad" unicode="&#x2000;" horiz-adv-x="1073" 
 />
    <glyph glyph-name="emquad" unicode="&#x2001;" horiz-adv-x="2146" 
 />
    <glyph glyph-name="enspace" unicode="&#x2002;" horiz-adv-x="1073" 
 />
    <glyph glyph-name="emspace" unicode="&#x2003;" horiz-adv-x="2146" 
 />
    <glyph glyph-name="threeperemspace" unicode="&#x2004;" horiz-adv-x="714" 
 />
    <glyph glyph-name="fourperemspace" unicode="&#x2005;" horiz-adv-x="536" 
 />
    <glyph glyph-name="sixperemspace" unicode="&#x2006;" horiz-adv-x="358" 
 />
    <glyph glyph-name="figurespace" unicode="&#x2007;" 
 />
    <glyph glyph-name="punctuationspace" unicode="&#x2008;" horiz-adv-x="552" 
 />
    <glyph glyph-name="thinspace" unicode="&#x2009;" horiz-adv-x="268" 
 />
    <glyph glyph-name="hairspace" unicode="&#x200a;" horiz-adv-x="215" 
 />
    <glyph glyph-name="zerowidthspace" unicode="&#x200b;" horiz-adv-x="0" 
 />
    <glyph glyph-name="zerowidthnonjoiner" unicode="&#x200c;" horiz-adv-x="0" 
 />
    <glyph glyph-name="zerowidthjoiner" unicode="&#x200d;" horiz-adv-x="0" 
 />
    <glyph glyph-name="endash" unicode="&#x2013;" horiz-adv-x="1073" 
d="M45 557h997l-10 -63h-997z" />
    <glyph glyph-name="emdash" unicode="&#x2014;" horiz-adv-x="2146" 
d="M45 557h2071l-11 -63h-2070z" />
    <glyph glyph-name="quoteleft" unicode="&#x2018;" horiz-adv-x="552" 
d="M494 1434h63l-242 -500h-84z" />
    <glyph glyph-name="quoteright" unicode="&#x2019;" horiz-adv-x="552" 
d="M297 934h-64l242 500h84z" />
    <glyph glyph-name="quotesinglbase" unicode="&#x201a;" horiz-adv-x="555" 
d="M76 -328h-66l234 455h86z" />
    <glyph glyph-name="quotedblleft" unicode="&#x201c;" horiz-adv-x="872" 
d="M494 1434h63l-242 -500h-84zM815 1434h64l-242 -500h-84z" />
    <glyph glyph-name="quotedblright" unicode="&#x201d;" horiz-adv-x="874" 
d="M297 934h-64l242 500h84zM618 934h-63l242 500h84z" />
    <glyph glyph-name="quotedblbase" unicode="&#x201e;" horiz-adv-x="876" 
d="M76 -328h-66l234 455h86zM397 -328h-65l233 455h86z" />
    <glyph glyph-name="dagger" unicode="&#x2020;" horiz-adv-x="733" 
d="M283 225l163 932h-309l13 64h309l55 315h68l-56 -315h305l-10 -64h-307l-164 -932h-67z" />
    <glyph glyph-name="daggerdbl" unicode="&#x2021;" horiz-adv-x="733" 
d="M283 225l55 316h-309l12 63h309l96 553h-309l13 64h309l55 315h68l-56 -315h305l-10 -64h-307l-96 -553h305l-10 -63h-307l-56 -316h-67z" />
    <glyph glyph-name="bullet" unicode="&#x2022;" horiz-adv-x="522" 
d="M266 348q-76 0 -130 53.5t-54 128.5q0 72 54 123.5t130 51.5t128 -51t52 -124q0 -76 -52 -129t-128 -53z" />
    <glyph glyph-name="ellipsis" unicode="&#x2026;" horiz-adv-x="1284" 
d="M188 -20q-32 0 -51.5 19t-19.5 50t19.5 50.5t51.5 19.5t52 -19.5t20 -50.5t-20 -50t-52 -19zM561 -20q-32 0 -52 19t-20 50t20 50.5t52 19.5t52 -19.5t20 -50.5t-20 -50t-52 -19zM934 -20q-32 0 -52 19t-20 50t20 50.5t52 19.5t52 -19.5t20 -50.5t-20 -50t-52 -19z" />
    <glyph glyph-name="perthousand" unicode="&#x2030;" horiz-adv-x="2480" 
d="M565 1475q137 0 217 -86t80 -215q0 -101 -47.5 -189.5t-134.5 -142.5t-193 -54q-137 0 -217 87.5t-80 216.5q0 155 107.5 269t267.5 114zM195 0l1265 1434h84l-1268 -1434h-81zM489 848q131 0 219.5 97t88.5 229q0 102 -64.5 171.5t-169.5 69.5q-131 0 -219 -96t-88 -229
q0 -103 63.5 -172.5t169.5 -69.5zM1270 643q137 0 217 -86t80 -215q0 -101 -47.5 -189t-134.5 -142t-193 -54q-137 0 -217 87t-80 216q0 155 107.5 269t267.5 114zM2068 643q137 0 217 -86t80 -215q0 -101 -47 -189t-134 -142t-193 -54q-137 0 -217 87t-80 216
q0 155 107 269t267 114zM1194 16q131 0 219 97t88 229q0 103 -64 172.5t-169 69.5q-131 0 -219 -96.5t-88 -229.5q0 -103 63.5 -172.5t169.5 -69.5zM1993 16q131 0 219 97t88 229q0 102 -64.5 172t-169.5 70q-131 0 -219 -96.5t-88 -229.5q0 -103 64 -172.5t170 -69.5z" />
    <glyph glyph-name="guilsinglleft" unicode="&#x2039;" horiz-adv-x="616" 
d="M403 98h-71l-203 410l348 410h82l-352 -418z" />
    <glyph glyph-name="guilsinglright" unicode="&#x203a;" horiz-adv-x="616" 
d="M209 918h72l202 -410l-348 -410h-82l353 418z" />
    <glyph glyph-name="fraction" unicode="&#x2044;" horiz-adv-x="325" 
d="M-475 0l1266 1434h83l-1267 -1434h-82z" />
    <glyph glyph-name="wordjoiner" unicode="&#x2060;" horiz-adv-x="0" 
 />
    <glyph glyph-name="zerosuperior" unicode="&#x2070;" horiz-adv-x="772" 
d="M575 1737q130 0 197.5 -96.5t67.5 -260.5q0 -152 -44 -281.5t-133.5 -211.5t-207.5 -82q-130 0 -197.5 96t-67.5 260q0 152 44 281t133.5 212t207.5 83zM455 866q96 0 169.5 74t110.5 190t37 250q0 135 -49.5 215t-147.5 80q-96 0 -169.5 -74.5t-110.5 -190.5t-37 -249
q0 -134 50 -214.5t147 -80.5z" />
    <glyph glyph-name="i.superior" unicode="&#x2071;" horiz-adv-x="309" 
d="M389 1677q-22 0 -36.5 13.5t-14.5 35.5q0 20 15 35t36 15q20 0 34.5 -15t14.5 -35q0 -21 -14 -35t-35 -14zM201 829l110 635h62l-113 -635h-59z" />
    <glyph glyph-name="foursuperior" unicode="&#x2074;" horiz-adv-x="772" 
d="M575 829l50 273h-453l10 57l525 551h88l-97 -551h109l-10 -57h-109l-47 -273h-66zM258 1159h375l86 483z" />
    <glyph glyph-name="fivesuperior" unicode="&#x2075;" horiz-adv-x="772" 
d="M289 1272l102 438h438l-10 -57h-377l-73 -322h112q150 0 220.5 -71t70.5 -181q0 -117 -81 -195.5t-222 -78.5q-211 0 -303 162l57 30q82 -133 246 -133q110 0 173 60.5t63 150.5q0 88 -56 142.5t-172 54.5h-188z" />
    <glyph glyph-name="sixsuperior" unicode="&#x2076;" horiz-adv-x="772" 
d="M623 1737q81 0 143 -40t94 -106l-55 -35q-26 57 -75.5 89t-108.5 32q-96 0 -172.5 -62t-119.5 -157t-57 -211q104 119 254 119q114 0 184 -67.5t70 -184.5q0 -135 -85 -222t-220 -87q-123 0 -199.5 90t-76.5 260q0 110 27 212t77.5 185.5t133.5 134t186 50.5zM266 1157
q0 -146 59 -219.5t150 -73.5q107 0 171.5 71t64.5 177q0 91 -53 143t-138 52q-81 0 -146 -39t-108 -103v-8z" />
    <glyph glyph-name="sevensuperior" unicode="&#x2077;" horiz-adv-x="770" 
d="M276 829h-77l612 824h-504l10 57h578l-10 -57z" />
    <glyph glyph-name="eightsuperior" unicode="&#x2078;" horiz-adv-x="772" 
d="M786 1090q0 -52 -19.5 -101.5t-56.5 -91t-99 -67t-140 -25.5q-142 0 -218.5 68.5t-76.5 181.5q0 93 60 169.5t174 98.5q-111 53 -111 176q0 93 69 165.5t197 72.5q122 0 188 -58t66 -153q0 -74 -46.5 -135.5t-135.5 -83.5q73 -27 111 -84t38 -133zM369 1497
q0 -72 46.5 -114t135.5 -42q96 0 146.5 54t50.5 129q0 71 -46.5 112t-136.5 41q-95 0 -145.5 -53t-50.5 -127zM717 1090q0 91 -58 143.5t-170 52.5q-119 0 -181 -66.5t-62 -160.5q0 -91 57.5 -144t169.5 -53q119 0 181.5 67t62.5 161z" />
    <glyph glyph-name="ninesuperior" unicode="&#x2079;" horiz-adv-x="772" 
d="M403 805q-81 0 -143.5 39t-95.5 104l57 37q26 -57 74.5 -89t107.5 -32q97 0 174.5 62t120.5 157.5t56 210.5q-108 -120 -254 -120q-115 0 -185.5 68t-70.5 185q0 134 85.5 222t219.5 88q122 0 200 -91.5t78 -259.5q0 -109 -27 -211t-77.5 -185.5t-133.5 -134t-186 -50.5z
M313 1430q0 -92 53.5 -144.5t139.5 -52.5q80 0 145.5 39.5t108.5 101.5v10q0 146 -59 219.5t-152 73.5q-106 0 -171 -71t-65 -176z" />
    <glyph glyph-name="n.superior" unicode="&#x207f;" horiz-adv-x="763" 
d="M199 829l112 635h62l-17 -88q101 113 234 113q115 0 172.5 -71t34.5 -199l-70 -390h-61l69 390q18 101 -24 156t-131 55q-142 0 -238 -140l-82 -461h-61z" />
    <glyph glyph-name="zeroinferior" unicode="&#x2080;" horiz-adv-x="772" 
d="M383 631q130 0 197 -96.5t67 -260.5q0 -152 -44 -281.5t-133.5 -211.5t-207.5 -82q-130 0 -197 96t-67 260q0 152 44 281t133.5 212t207.5 83zM262 -240q96 0 170 74t111 190t37 250q0 135 -49.5 215t-147.5 80q-96 0 -169.5 -74.5t-110.5 -190.5t-37 -249
q0 -134 50 -214.5t146 -80.5z" />
    <glyph glyph-name="oneinferior" unicode="&#x2081;" horiz-adv-x="772" 
d="M-47 -276l10 59h285l133 752l-297 -146l-31 53l336 164h68l-144 -823h248l-10 -59h-598z" />
    <glyph glyph-name="twoinferior" unicode="&#x2082;" horiz-adv-x="772" 
d="M-27 -276l11 59l360 317q131 116 175 176.5t44 133.5q0 71 -49 116t-123 45q-65 0 -119 -31.5t-106 -105.5l-51 37q109 160 280 160q101 0 168.5 -62.5t67.5 -154.5q0 -60 -27.5 -115t-75 -105.5t-143.5 -136.5l-311 -274h467l-13 -59h-555z" />
    <glyph glyph-name="threeinferior" unicode="&#x2083;" horiz-adv-x="772" 
d="M614 414q0 -77 -48 -139t-142 -87q82 -30 120 -88.5t38 -130.5q0 -114 -81 -192t-222 -78q-212 0 -304 162l58 30q82 -133 246 -133q110 0 172.5 60.5t62.5 150.5q0 86 -55 140.5t-170 54.5h-103l11 59h125q108 0 167.5 52.5t59.5 134.5q0 71 -47 116t-115 45
q-67 0 -118.5 -29t-100.5 -102l-51 37q106 154 272 154q96 0 160.5 -62.5t64.5 -154.5z" />
    <glyph glyph-name="fourinferior" unicode="&#x2084;" horiz-adv-x="772" 
d="M-20 -4l10 57l524 551h88l-96 -551h108l-10 -57h-108l-47 -272h-66l49 272h-452zM66 53h374l86 484z" />
    <glyph glyph-name="fiveinferior" unicode="&#x2085;" horiz-adv-x="772" 
d="M96 166l103 438h438l-10 -57h-377l-74 -322h113q150 0 220.5 -71t70.5 -181q0 -117 -81.5 -195.5t-222.5 -78.5q-211 0 -303 162l58 30q82 -133 245 -133q110 0 173 60.5t63 150.5q0 88 -55.5 142.5t-171.5 54.5h-189z" />
    <glyph glyph-name="sixinferior" unicode="&#x2086;" horiz-adv-x="772" 
d="M430 631q81 0 143.5 -40.5t94.5 -105.5l-56 -34q-26 56 -75.5 88t-108.5 32q-96 0 -172.5 -62t-119 -157t-56.5 -211q104 119 254 119q114 0 184 -67.5t70 -184.5q0 -135 -85 -222t-220 -87q-123 0 -200 90t-77 260q0 110 27 212t77.5 185.5t133.5 134t186 50.5zM74 51
q0 -146 59 -219.5t150 -73.5q107 0 171 71t64 177q0 91 -52.5 143t-137.5 52q-81 0 -146 -39t-108 -103v-8z" />
    <glyph glyph-name="seveninferior" unicode="&#x2087;" horiz-adv-x="770" 
d="M84 -276h-78l612 823h-503l10 57h577l-10 -57z" />
    <glyph glyph-name="eightinferior" unicode="&#x2088;" horiz-adv-x="772" 
d="M106 393q0 93 69.5 165.5t197.5 72.5q122 0 188 -58t66 -153q0 -74 -47 -135.5t-136 -83.5q73 -27 111.5 -84t38.5 -133q0 -52 -19.5 -101.5t-56.5 -91t-99 -67t-140 -25.5q-142 0 -218.5 68.5t-76.5 181.5q0 93 59.5 169.5t173.5 98.5q-111 53 -111 176zM176 391
q0 -72 46.5 -113.5t135.5 -41.5q96 0 146.5 53.5t50.5 128.5q0 71 -46 112t-136 41q-95 0 -146 -53t-51 -127zM524 -16q0 91 -57.5 143.5t-169.5 52.5q-119 0 -181.5 -67t-62.5 -160q0 -91 58 -144t170 -53q119 0 181 67t62 161z" />
    <glyph glyph-name="nineinferior" unicode="&#x2089;" horiz-adv-x="772" 
d="M211 -301q-81 0 -144 39t-96 104l58 37q26 -57 74.5 -89t107.5 -32q74 0 136.5 35.5t105.5 96t70.5 137t37.5 161.5q-108 -120 -254 -120q-115 0 -185.5 68.5t-70.5 185.5q0 134 85.5 221.5t219.5 87.5q123 0 201 -91t78 -259q0 -110 -27 -212t-77.5 -185.5t-133.5 -134
t-186 -50.5zM121 324q0 -92 53 -144.5t139 -52.5q80 0 145.5 39.5t108.5 101.5v11q0 146 -59 219t-152 73q-106 0 -170.5 -70.5t-64.5 -176.5z" />
    <glyph glyph-name="Euro" unicode="&#x20ac;" 
d="M63 516l11 66h180q6 64 18 135q3 20 11 55.5t10 48.5h-176l12 66h182q81 290 235.5 439t352.5 149q136 0 220.5 -55t140.5 -158l-64 -48q-49 95 -118.5 144t-186.5 49q-171 0 -303 -129t-205 -391h655l-12 -66h-659q-19 -76 -23 -104q-12 -71 -18 -135h659l-12 -66h-651
q-12 -247 74.5 -368t252.5 -121q117 0 206 49.5t165 142.5l47 -47q-88 -103 -192 -158t-242 -55q-193 0 -295.5 141t-87.5 416h-187z" />
    <glyph glyph-name="numero" unicode="&#x2116;" horiz-adv-x="2404" 
d="M2142 1489q137 0 217 -86t80 -215q0 -101 -47.5 -189t-134.5 -142t-193 -54q-137 0 -217 87t-80 216q0 155 107.5 269t267.5 114zM150 0l253 1434h93l755 -1362l242 1362h70l-254 -1434h-95l-755 1358l-240 -1358h-69zM2066 862q131 0 219.5 97t88.5 229q0 102 -64.5 172
t-169.5 70q-131 0 -219 -96.5t-88 -229.5q0 -103 63.5 -172.5t169.5 -69.5zM1716 553l13 59h561l-11 -59h-563z" />
    <glyph glyph-name="trademark" unicode="&#x2122;" horiz-adv-x="1884" 
d="M219 1372l12 62h666l-12 -62h-299l-146 -821h-65l145 821h-301zM944 551l156 883h86l215 -508l395 508h92l-155 -883h-68l141 799l-385 -496h-59l-211 496l-139 -799h-68z" />
    <glyph glyph-name="arrowleft" unicode="&#x2190;" horiz-adv-x="1617" 
d="M637 172l-565 567l567 570l45 -45l-496 -496h1358v-63h-1351l487 -488z" />
    <glyph glyph-name="arrowup" unicode="&#x2191;" horiz-adv-x="1617" 
d="M772 0v1352l-487 -488l-45 45l567 566l569 -568l-45 -45l-495 496v-1358h-64z" />
    <glyph glyph-name="arrowright" unicode="&#x2192;" horiz-adv-x="1617" 
d="M72 774h1351l-487 488l45 45l565 -568l-567 -569l-45 45l496 496h-1358v63z" />
    <glyph glyph-name="arrowdown" unicode="&#x2193;" horiz-adv-x="1617" 
d="M1376 524l-567 -565l-569 567l45 45l495 -495v1358h64v-1352l487 487z" />
    <glyph glyph-name="arrowNW" unicode="&#x2196;" horiz-adv-x="1617" 
d="M287 461v801h805v-64h-703l961 -960l-45 -43l-957 954v-688h-61z" />
    <glyph glyph-name="arrowNE" unicode="&#x2197;" horiz-adv-x="1617" 
d="M332 195l-45 43l960 960h-702v64h805v-801h-62v688z" />
    <glyph glyph-name="arrowSE" unicode="&#x2198;" horiz-adv-x="1617" 
d="M332 1262l956 -955v688h62v-800h-805v63h702l-960 961z" />
    <glyph glyph-name="arrowSW" unicode="&#x2199;" horiz-adv-x="1617" 
d="M287 995h61v-688l957 955l45 -43l-961 -961h703v-63h-805v800z" />
    <glyph glyph-name="minus" unicode="&#x2212;" 
d="M1110 485h-1001l12 64h1001z" />
    <glyph glyph-name="radical" unicode="&#x221a;" 
d="M227 776l170 -700l805 1358h76l-856 -1434h-74l-188 776h67z" />
    <glyph glyph-name="integral" unicode="&#x222b;" horiz-adv-x="724" 
d="M451 1196q31 173 125.5 256.5t224.5 83.5q121 0 213 -66l-39 -53q-75 56 -174 56q-105 0 -182.5 -68.5t-102.5 -208.5l-237 -1360q-31 -172 -126 -256t-225 -84q-121 0 -213 66l39 53q74 -55 174 -55q106 0 183 68t102 208z" />
    <glyph glyph-name="approxequal" unicode="&#x2248;" 
d="M125 565l8 51q18 113 83 182.5t169 69.5q64 0 124 -27t106.5 -65t92.5 -76t100.5 -65t111.5 -27q149 0 180 191l8 49h66l-9 -51q-18 -113 -83 -182.5t-169 -69.5q-64 0 -124 27t-106.5 65t-92 76t-100 65t-111.5 27q-149 0 -180 -191l-9 -49h-65zM59 188l9 52
q18 114 83 183t168 69q64 0 124 -27t106.5 -65t92.5 -76.5t100.5 -65.5t111.5 -27q149 0 180 191l8 49h66l-8 -51q-18 -113 -83 -182.5t-169 -69.5q-64 0 -124 27t-106.5 65t-92.5 76t-100.5 65t-111.5 27q-74 0 -119.5 -48t-60.5 -142l-8 -50h-66z" />
    <glyph glyph-name="notequal" unicode="&#x2260;" 
d="M1071 260h-680l-274 -260h-92l274 260h-229l10 64h287l407 387h-624l10 63h682l272 258h92l-272 -258h227l-10 -63h-285l-407 -387h622z" />
    <glyph glyph-name="lessequal" unicode="&#x2264;" 
d="M1055 164l-918 479l13 74l1085 479l-12 -74l-1010 -446l854 -447zM1024 0h-999l10 63h1001z" />
    <glyph glyph-name="greaterequal" unicode="&#x2265;" 
d="M66 238l1011 446l-854 446l13 66l915 -479l-12 -74l-1086 -479zM25 0l10 63h1001l-12 -63h-999z" />
    <glyph glyph-name="lozenge" unicode="&#x25ca;" 
d="M1051 717l-490 -717h-74l-235 717l489 717h72zM322 709l210 -643l449 659l-211 645z" />
    <glyph glyph-name="circledotted" unicode="&#x25cc;" horiz-adv-x="1236" 
d="M618 -20q-145 0 -268.5 72t-195.5 195.5t-72 268.5t72 269t195.5 196t268.5 72q109 0 208 -43t171 -115t115 -171t43 -208q0 -145 -72 -268.5t-196 -195.5t-269 -72zM618 1032q-140 0 -259 -69t-188 -188t-69 -259t69 -259t188 -188t259 -69t259 69t188.5 188t69.5 259
t-69.5 259t-188.5 188t-259 69z" />
    <glyph glyph-name="zerowidthnobreakspace" unicode="&#xfeff;" horiz-adv-x="0" 
 />
    <glyph glyph-name="Ccedilla.1" horiz-adv-x="1546" 
d="M956 1475q181 0 331.5 -85t223.5 -221l-61 -39q-63 125 -199.5 202t-294.5 77q-157 0 -296 -64.5t-235.5 -172t-152 -251t-55.5 -298.5q0 -162 72 -298t205 -218t299 -82q178 0 310.5 64t244.5 194l51 -50q-227 -263 -572 -274l-112 -123q8 2 26 2q78 0 129.5 -46.5
t51.5 -113.5q0 -78 -57 -130t-152 -52q-54 0 -107 20.5t-88 55.5l45 51q65 -65 154 -65q59 0 97 30t38 86q0 43 -31.5 74t-87.5 31q-46 0 -80 -19l-41 45l140 156q-179 10 -319.5 102.5t-215 239.5t-74.5 322q0 168 60 322.5t164.5 271t258.5 186.5t330 70z" />
    </font>
</defs>
</svg>
